<?xml version="1.0" encoding="UTF-8"?>
<svg id="svg571" width="40.3mm" height="128.5mm" version="1.1" viewBox="0 0 40.3 128.5" xmlns="http://www.w3.org/2000/svg">
  <defs id="defs295">
    <clipPath id="id1">
      <rect id="rect3" x="-19.525" y="3.4" width="23.81" height="12.905"/>
    </clipPath>
    <linearGradient id="id2" x1="1" x2="0" y2="1">
      <stop id="stop6" stop-color="#fff" offset="-1"/>
      <stop id="stop8" offset="2"/>
    </linearGradient>
    <radialGradient id="id3">
      <stop id="stop11" stop-color="#666" offset="0"/>
      <stop id="stop13" stop-color="#666" offset=".75"/>
      <stop id="stop15" stop-color="#666" stop-opacity="0" offset=".85"/>
      <stop id="stop17" stop-color="#666" stop-opacity="0" offset="1"/>
    </radialGradient>
    <linearGradient id="id4" x1="1" x2="0" y2="1">
      <stop id="stop20" stop-color="#111" offset="0"/>
      <stop id="stop22" stop-color="#444" offset="1"/>
    </linearGradient>
    <linearGradient id="id14" x1=".70711" x2="0" y2=".70711">
      <stop id="stop82" stop-color="#666" offset="0"/>
      <stop id="stop84" stop-color="#191919" offset="1"/>
    </linearGradient>
    <radialGradient id="id15">
      <stop id="stop87" offset=".65385"/>
      <stop id="stop89" stop-opacity="0" offset=".88462"/>
    </radialGradient>
    <linearGradient id="id16" x1=".70711" x2="0" y2=".70711">
      <stop id="stop92" stop-color="#666" offset="0"/>
      <stop id="stop94" stop-color="#686868" offset=".04"/>
      <stop id="stop96" stop-color="#212121" offset="1"/>
    </linearGradient>
    <linearGradient id="id17" x1=".70711" x2="0" y2=".70711">
      <stop id="stop99" stop-color="#777" offset="0"/>
      <stop id="stop101" stop-color="#555" offset="1"/>
    </linearGradient>
    <linearGradient id="id18" x1=".70711" x2="0" y2=".70711">
      <stop id="stop104" stop-color="#fff" offset="0"/>
      <stop id="stop106" stop-color="#ccc" offset="1"/>
    </linearGradient>
    <linearGradient id="id19" x1="1" x2="0" y2="1">
      <stop id="stop109" stop-color="#ff0" offset="0"/>
      <stop id="stop111" stop-color="#550" offset="1"/>
    </linearGradient>
    <linearGradient id="id20" x1="1" x2="0" y2="1">
      <stop id="stop114" stop-color="#dd0" offset="0"/>
      <stop id="stop116" stop-color="#ff9" offset="1"/>
    </linearGradient>
    <radialGradient id="id22">
      <stop id="stop124" offset=".74603"/>
      <stop id="stop126" stop-color="#fff" offset=".87302"/>
      <stop id="stop128" stop-color="#444" offset="1"/>
    </radialGradient>
    <linearGradient id="id23" x1="1" x2="0" y2="1">
      <stop id="stop131" offset="0"/>
      <stop id="stop133" stop-color="#333" offset="1"/>
    </linearGradient>
    <radialGradient id="id24">
      <stop id="stop136" stop-color="#fff" offset="0"/>
      <stop id="stop138" stop-color="#04f" offset="1"/>
    </radialGradient>
  </defs>
  <rect id="background" width="40.3" height="128.5" fill="#fff"/>
  <g id="stencil" font-family="Ubuntu" font-size="3">
    <path id="path1390" d="m15.895 6.375q-0.365 0-0.665-0.12t-0.515-0.35-0.335-0.565q-0.115-0.34-0.115-0.775t0.13-0.77q0.135-0.34 0.36-0.57t0.525-0.35 0.64-0.12q0.215 0 0.385 0.03 0.175 0.03 0.3 0.07 0.13 0.04 0.21 0.08t0.11 0.06l-0.14 0.4q-0.045-0.03-0.13-0.065t-0.195-0.07q-0.105-0.035-0.235-0.055-0.125-0.025-0.255-0.025-0.275 0-0.495 0.095t-0.375 0.275-0.24 0.44q-0.08 0.255-0.08 0.575 0 0.31 0.07 0.565 0.075 0.255 0.22 0.44 0.145 0.18 0.36 0.28 0.22 0.1 0.51 0.1 0.335 0 0.555-0.07t0.33-0.125l0.125 0.4q-0.035 0.025-0.125 0.065-0.09 0.035-0.225 0.07t-0.315 0.06-0.39 0.025z"/>
    <path id="path1392" d="m18.255 6.35q-0.43-0.01-0.61-0.185t-0.18-0.545v-3.12l0.465-0.08v3.125q0 0.115 0.02 0.19t0.065 0.12 0.12 0.07q0.075 0.02 0.185 0.035z"/>
    <path id="path1394" d="m21.135 5q0 0.31-0.09 0.56t-0.255 0.43q-0.16 0.18-0.385 0.28-0.225 0.095-0.49 0.095t-0.49-0.095q-0.225-0.1-0.39-0.28-0.16-0.18-0.25-0.43t-0.09-0.56q0-0.305 0.09-0.555 0.09-0.255 0.25-0.435 0.165-0.18 0.39-0.275 0.225-0.1 0.49-0.1t0.49 0.1q0.225 0.095 0.385 0.275 0.165 0.18 0.255 0.435 0.09 0.25 0.09 0.555zm-0.485 0q0-0.44-0.2-0.695-0.195-0.26-0.535-0.26t-0.54 0.26q-0.195 0.255-0.195 0.695t0.195 0.7q0.2 0.255 0.54 0.255t0.535-0.255q0.2-0.26 0.2-0.7z"/>
    <path id="path1396" d="m22.92 6.36q-0.315 0-0.555-0.1-0.235-0.1-0.4-0.28-0.16-0.18-0.24-0.425-0.08-0.25-0.08-0.55t0.085-0.55q0.09-0.25 0.25-0.43 0.16-0.185 0.39-0.285 0.235-0.105 0.52-0.105 0.175 0 0.35 0.03t0.335 0.095l-0.105 0.395q-0.105-0.05-0.245-0.08-0.135-0.03-0.29-0.03-0.39 0-0.6 0.245-0.205 0.245-0.205 0.715 0 0.21 0.045 0.385 0.05 0.175 0.15 0.3 0.105 0.125 0.265 0.195 0.16 0.065 0.39 0.065 0.185 0 0.335-0.035t0.235-0.075l0.065 0.39q-0.04 0.025-0.115 0.05-0.075 0.02-0.17 0.035-0.095 0.02-0.205 0.03-0.105 0.015-0.205 0.015z"/>
    <path id="path1398" d="m25.055 4.87q0.15 0.115 0.315 0.285 0.17 0.17 0.33 0.37 0.165 0.195 0.31 0.4 0.145 0.2 0.245 0.375h-0.545q-0.105-0.175-0.245-0.355-0.135-0.185-0.285-0.35-0.15-0.17-0.305-0.31t-0.295-0.235v1.25h-0.465v-3.8l0.465-0.08v2.37q0.12-0.12 0.265-0.265t0.285-0.295 0.265-0.285q0.125-0.14 0.215-0.245h0.545q-0.115 0.125-0.25 0.275t-0.28 0.305q-0.145 0.15-0.295 0.305-0.145 0.15-0.275 0.285z"/>
    <path id="path301" transform="translate(12.65 119.5) scale(.15)" d="m23.274 0c-12.804 0-23.274 10.47-23.274 23.274 0 12.804 10.47 23.274 23.274 23.274 6.2817 0 11.38-2.5486 15.731-6.2455 1.5387-1.3073 3.0762-2.7877 4.6583-4.3876l-0.0086-5.8693-5.9894 0.0026c-1.4839 1.5057-2.8467 2.8283-4.0804 3.8765-3.5126 2.9845-6.0494 4.2541-10.311 4.2541-8.2813 0-14.905-6.6235-14.905-14.905 0-8.2813 6.6235-14.905 14.905-14.905 4.2612 0 6.7981 1.2697 10.311 4.2541 1.2337 1.0482 2.5965 2.3707 4.0804 3.8765l5.9894 0.0026 0.0086-5.8693c-1.5821-1.5999-3.1196-3.0803-4.6583-4.3876-4.351-3.6969-9.4489-6.2455-15.731-6.2455zm53.451 0c-6.2815 1.0197e-4 -11.379 2.5487-15.73 6.2455-1.6075 1.3659-3.2135 2.9188-4.8712 4.602h12.572c2.4765-1.7176 4.7403-2.4782 8.0292-2.4783h3.82e-4c6.2002 0 11.47 3.7129 13.728 9.0545l-6.0416-0.07531-8.5851-3.0797-28.741 3.81e-4v5.6456h-22.686v6.7186h22.686v5.6456l28.741 3.82e-4 8.5851-3.0797 6.0416-0.07531c-2.2576 5.3415-7.5279 9.0545-13.728 9.0545h-3.82e-4c-3.2889-5.9e-5 -5.5527-0.76071-8.0292-2.4783h-12.572c1.6577 1.6832 3.2637 3.2361 4.8712 4.602 4.3509 3.6968 9.4487 6.2454 15.73 6.2455h3.82e-4c12.804 0 23.274-10.47 23.274-23.274-8e-6 -12.804-10.47-23.274-23.274-23.274zm-59.712 19.295-2.8907 3.9786 2.8907 3.9786 4.6773-1.5197v-4.9178z"/>
  </g>
  <g id="throughholes">
    <circle id="circle351" cx="7.45" cy="3" r="1.7"/>
    <circle id="circle353" cx="7.45" cy="125.5" r="1.7"/>
    <circle id="circle355" cx="32.85" cy="3" r="1.7"/>
    <circle id="circle357" cx="32.85" cy="125.5" r="1.7"/>
    <circle id="circle359" cx="31.9" cy="35.594" r="1.1906"/>
    <circle id="circle361" cx="31.9" cy="11.594" r="1.1906"/>
    <circle id="circle363" cx="8.4" cy="35.594" r="1.1906"/>
    <circle id="circle365" cx="8.4" cy="11.594" r="1.1906"/>
    <rect id="rect367" x="8.2451" y="14.74" width="23.81" height="12.905"/>
    <circle id="circle371" cx="30.31" cy="45.63" r="3.65"/>
    <circle id="circle375" cx="12.53" cy="64.68" r="3.15"/>
    <circle id="circle379" cx="27.77" cy="64.68" r="3.15"/>
    <circle id="circle383" cx="12.53" cy="79.92" r="3.15"/>
    <circle id="circle387" cx="27.77" cy="79.92" r="3.15"/>
    <circle id="circle391" cx="12.53" cy="95.16" r="3.15"/>
    <circle id="circle395" cx="27.77" cy="95.16" r="3.15"/>
    <circle id="circle399" cx="12.53" cy="110.4" r="3.15"/>
    <circle id="circle403" cx="27.77" cy="110.4" r="3.15"/>
  </g>
  <g id="cosmetics">
    <g id="cosmetics_offset" transform="translate(20.15,21.5)">
      <g id="g437" transform="translate(7.62 -10.16)">
        <rect id="rect409" x="-19.525" y="3.4" width="23.81" height="12.905"/>
        <ellipse id="ellipse411" cx="4.2849" cy="3.4" rx="11.905" ry="6.4524" clip-path="url(#id1)" fill="#fff" opacity=".5"/>
        <circle id="circle413" cx="4.13" cy="24.254" r="1.75" fill="url(#id2) none"/>
        <circle id="circle415" cx="4.13" cy="24.254" r="1.75" fill="url(#id3) none"/>
        <path id="path417" d="m5.13 24.254-0.5 0.86603h-1l-0.5-0.86603 0.5-0.86603h1z" fill="url(#id4) none"/>
        <circle id="circle419" cx="4.13" cy=".254" r="1.75" fill="url(#id2) none"/>
        <circle id="circle421" cx="4.13" cy=".254" r="1.75" fill="url(#id3) none"/>
        <path id="path423" d="m5.13 0.254-0.5 0.86603-1 2e-16 -0.5-0.86603 0.5-0.86603 1-2e-16z" fill="url(#id4) none"/>
        <circle id="circle425" cx="-19.37" cy="24.254" r="1.75" fill="url(#id2) none"/>
        <circle id="circle427" cx="-19.37" cy="24.254" r="1.75" fill="url(#id3) none"/>
        <path id="path429" d="m-18.37 24.254-0.5 0.86603h-1l-0.5-0.86603 0.5-0.86603h1z" fill="url(#id4) none"/>
        <circle id="circle431" cx="-19.37" cy=".254" r="1.75" fill="url(#id2) none"/>
        <circle id="circle433" cx="-19.37" cy=".254" r="1.75" fill="url(#id3) none"/>
        <path id="path435" d="m-18.37 0.254-0.5 0.86603-1 2e-16 -0.5-0.86603 0.5-0.86603 1-2e-16z" fill="url(#id4) none"/>
      </g>
      <g id="g449" transform="translate(2.54,21.59)">
        <circle id="circle439" cx="7.62" cy="2.54" r="7.15" fill="url(#id14) none"/>
        <circle id="circle441" cx="7.62" cy="2.54" r="7.15" fill="url(#id15) none"/>
        <path id="path443" d="m4.3872-1.9096a5.5 5.5 0 0 1 3.8077-1.0203l0.46279 0.32345 0.63684 0.17064 0.56252-0.048716a5.5 5.5 0 0 1 2.7874 2.7874l-0.048716 0.56252 0.17064 0.63684 0.32345 0.46279a5.5 5.5 0 0 1-1.0203 3.8077l-0.51151 0.23907-0.4662 0.4662-0.23907 0.51151a5.5 5.5 0 0 1-3.8077 1.0203l-0.46279-0.32345-0.63684-0.17064-0.56252 0.048716a5.5 5.5 0 0 1-2.7874-2.7874l0.048716-0.56252-0.17064-0.63684-0.32345-0.46279a5.5 5.5 0 0 1 1.0203-3.8077l0.51151-0.23907 0.4662-0.4662z" fill="url(#id16) none"/>
        <path id="path445" d="m4.828-1.3028a4.75 4.75 0 0 1 3.2885-0.88115l0.39295 0.31276 0.54586 0.14626 0.49668-0.074383a4.75 4.75 0 0 1 2.4073 2.4073l-0.074383 0.49668 0.14626 0.54586 0.31276 0.39295a4.75 4.75 0 0 1-0.88115 3.2885l-0.46733 0.18392-0.3996 0.3996-0.18392 0.46733a4.75 4.75 0 0 1-3.2885 0.88115l-0.39295-0.31276-0.54586-0.14626-0.49668 0.074383a4.75 4.75 0 0 1-2.4073-2.4073l0.074383-0.49668-0.14626-0.54586-0.31276-0.39295a4.75 4.75 0 0 1 0.88115-3.2885l0.46733-0.18392 0.3996-0.3996z" fill="url(#id17) none"/>
        <circle id="circle447" cx="7.62" cy="2.54" r="4" fill="url(#id18) none"/>
      </g>
      <g id="g455" transform="translate(-10.16,24.13)">
        <circle id="circle451" r="4.5" fill="url(#id19) none"/>
        <circle id="circle453" r="3.6" fill="url(#id20) none"/>
      </g>
      <g id="g463" transform="translate(-7.62 43.18)">
        <path id="path457" d="m3.55 0-0.013509 0.3094 0.15654 0.34178-0.070807 0.31939-0.28631 0.2436-0.11852 0.28612 0.030203 0.37471-0.17578 0.27591-0.35236 0.13098-0.20923 0.22833-0.099776 0.36244-0.25954 0.19915-0.37591 0.00257-0.27471 0.143-0.21772 0.30645-0.312 0.098375-0.35412-0.12615-0.30705 0.040424-0.3094 0.21351-0.32683-0.01427-0.28962-0.23966-0.30236-0.067031-0.36377 0.094811-0.30224-0.12519-0.19018-0.32426-0.2612-0.1664-0.37426-0.035323-0.2412-0.22102-0.067807-0.36975-0.18853-0.2457-0.33961-0.1612-0.15106-0.29018 0.062745-0.37065-0.093128-0.29536-0.26399-0.26763-0.042701-0.32435 0.18573-0.32683 0.013509-0.3094-0.15654-0.34178 0.070807-0.31939 0.28631-0.2436 0.11852-0.28612-0.030203-0.37471 0.17578-0.27591 0.35236-0.13098 0.20923-0.22833 0.099776-0.36244 0.25954-0.19915 0.37591-0.00257 0.27471-0.143 0.21772-0.30645 0.312-0.098375 0.35412 0.12615 0.30705-0.040424 0.3094-0.21351 0.32683 0.01427 0.28962 0.23966 0.30236 0.067031 0.36377-0.094811 0.30224 0.12519 0.19018 0.32426 0.2612 0.1664 0.37426 0.035323 0.2412 0.22102 0.067807 0.36975 0.18853 0.2457 0.33961 0.1612 0.15106 0.29018-0.062745 0.37065 0.093128 0.29536 0.26399 0.26763 0.042701 0.32435z" fill="url(#id2) none"/>
        <circle id="circle459" r="3.15" fill="url(#id22) none"/>
        <circle id="circle461" r="2.35" fill="url(#id23) none"/>
      </g>
      <g id="g469" transform="translate(-3.81 35.56)">
        <circle id="circle465" cy="1.27" r="1.55" fill="url(#id24) none"/>
        <ellipse id="ellipse467" transform="rotate(20 .51667 .495)" cx=".51667" cy=".495" rx=".775" ry=".51667" fill="#fff" opacity=".8"/>
      </g>
      <g id="g477" transform="translate(7.62 43.18)">
        <path id="path471" d="m3.55 0-0.013509 0.3094 0.15654 0.34178-0.070807 0.31939-0.28631 0.2436-0.11852 0.28612 0.030203 0.37471-0.17578 0.27591-0.35236 0.13098-0.20923 0.22833-0.099776 0.36244-0.25954 0.19915-0.37591 0.00257-0.27471 0.143-0.21772 0.30645-0.312 0.098375-0.35412-0.12615-0.30705 0.040424-0.3094 0.21351-0.32683-0.01427-0.28962-0.23966-0.30236-0.067031-0.36377 0.094811-0.30224-0.12519-0.19018-0.32426-0.2612-0.1664-0.37426-0.035323-0.2412-0.22102-0.067807-0.36975-0.18853-0.2457-0.33961-0.1612-0.15106-0.29018 0.062745-0.37065-0.093128-0.29536-0.26399-0.26763-0.042701-0.32435 0.18573-0.32683 0.013509-0.3094-0.15654-0.34178 0.070807-0.31939 0.28631-0.2436 0.11852-0.28612-0.030203-0.37471 0.17578-0.27591 0.35236-0.13098 0.20923-0.22833 0.099776-0.36244 0.25954-0.19915 0.37591-0.00257 0.27471-0.143 0.21772-0.30645 0.312-0.098375 0.35412 0.12615 0.30705-0.040424 0.3094-0.21351 0.32683 0.01427 0.28962 0.23966 0.30236 0.067031 0.36377-0.094811 0.30224 0.12519 0.19018 0.32426 0.2612 0.1664 0.37426 0.035323 0.2412 0.22102 0.067807 0.36975 0.18853 0.2457 0.33961 0.1612 0.15106 0.29018-0.062745 0.37065 0.093128 0.29536 0.26399 0.26763 0.042701 0.32435z" fill="url(#id2) none"/>
        <circle id="circle473" r="3.15" fill="url(#id22) none"/>
        <circle id="circle475" r="2.35" fill="url(#id23) none"/>
      </g>
      <g id="g483" transform="translate(11.43,35.56)">
        <circle id="circle479" cy="1.27" r="1.55" fill="url(#id24) none"/>
        <ellipse id="ellipse481" transform="rotate(20 .51667 .495)" cx=".51667" cy=".495" rx=".775" ry=".51667" fill="#fff" opacity=".8"/>
      </g>
      <g id="g491" transform="translate(-7.62 58.42)">
        <path id="path485" d="m3.55 0-0.013509 0.3094 0.15654 0.34178-0.070807 0.31939-0.28631 0.2436-0.11852 0.28612 0.030203 0.37471-0.17578 0.27591-0.35236 0.13098-0.20923 0.22833-0.099776 0.36244-0.25954 0.19915-0.37591 0.00257-0.27471 0.143-0.21772 0.30645-0.312 0.098375-0.35412-0.12615-0.30705 0.040424-0.3094 0.21351-0.32683-0.01427-0.28962-0.23966-0.30236-0.067031-0.36377 0.094811-0.30224-0.12519-0.19018-0.32426-0.2612-0.1664-0.37426-0.035323-0.2412-0.22102-0.067807-0.36975-0.18853-0.2457-0.33961-0.1612-0.15106-0.29018 0.062745-0.37065-0.093128-0.29536-0.26399-0.26763-0.042701-0.32435 0.18573-0.32683 0.013509-0.3094-0.15654-0.34178 0.070807-0.31939 0.28631-0.2436 0.11852-0.28612-0.030203-0.37471 0.17578-0.27591 0.35236-0.13098 0.20923-0.22833 0.099776-0.36244 0.25954-0.19915 0.37591-0.00257 0.27471-0.143 0.21772-0.30645 0.312-0.098375 0.35412 0.12615 0.30705-0.040424 0.3094-0.21351 0.32683 0.01427 0.28962 0.23966 0.30236 0.067031 0.36377-0.094811 0.30224 0.12519 0.19018 0.32426 0.2612 0.1664 0.37426 0.035323 0.2412 0.22102 0.067807 0.36975 0.18853 0.2457 0.33961 0.1612 0.15106 0.29018-0.062745 0.37065 0.093128 0.29536 0.26399 0.26763 0.042701 0.32435z" fill="url(#id2) none"/>
        <circle id="circle487" r="3.15" fill="url(#id22) none"/>
        <circle id="circle489" r="2.35" fill="url(#id23) none"/>
      </g>
      <g id="g497" transform="translate(-3.81 50.8)">
        <circle id="circle493" cy="1.27" r="1.55" fill="url(#id24) none"/>
        <ellipse id="ellipse495" transform="rotate(20 .51667 .495)" cx=".51667" cy=".495" rx=".775" ry=".51667" fill="#fff" opacity=".8"/>
      </g>
      <g id="g505" transform="translate(7.62 58.42)">
        <path id="path499" d="m3.55 0-0.013509 0.3094 0.15654 0.34178-0.070807 0.31939-0.28631 0.2436-0.11852 0.28612 0.030203 0.37471-0.17578 0.27591-0.35236 0.13098-0.20923 0.22833-0.099776 0.36244-0.25954 0.19915-0.37591 0.00257-0.27471 0.143-0.21772 0.30645-0.312 0.098375-0.35412-0.12615-0.30705 0.040424-0.3094 0.21351-0.32683-0.01427-0.28962-0.23966-0.30236-0.067031-0.36377 0.094811-0.30224-0.12519-0.19018-0.32426-0.2612-0.1664-0.37426-0.035323-0.2412-0.22102-0.067807-0.36975-0.18853-0.2457-0.33961-0.1612-0.15106-0.29018 0.062745-0.37065-0.093128-0.29536-0.26399-0.26763-0.042701-0.32435 0.18573-0.32683 0.013509-0.3094-0.15654-0.34178 0.070807-0.31939 0.28631-0.2436 0.11852-0.28612-0.030203-0.37471 0.17578-0.27591 0.35236-0.13098 0.20923-0.22833 0.099776-0.36244 0.25954-0.19915 0.37591-0.00257 0.27471-0.143 0.21772-0.30645 0.312-0.098375 0.35412 0.12615 0.30705-0.040424 0.3094-0.21351 0.32683 0.01427 0.28962 0.23966 0.30236 0.067031 0.36377-0.094811 0.30224 0.12519 0.19018 0.32426 0.2612 0.1664 0.37426 0.035323 0.2412 0.22102 0.067807 0.36975 0.18853 0.2457 0.33961 0.1612 0.15106 0.29018-0.062745 0.37065 0.093128 0.29536 0.26399 0.26763 0.042701 0.32435z" fill="url(#id2) none"/>
        <circle id="circle501" r="3.15" fill="url(#id22) none"/>
        <circle id="circle503" r="2.35" fill="url(#id23) none"/>
      </g>
      <g id="g511" transform="translate(11.43 50.8)">
        <circle id="circle507" cy="1.27" r="1.55" fill="url(#id24) none"/>
        <ellipse id="ellipse509" transform="rotate(20 .51667 .495)" cx=".51667" cy=".495" rx=".775" ry=".51667" fill="#fff" opacity=".8"/>
      </g>
      <g id="g519" transform="translate(-7.62 73.66)">
        <path id="path513" d="m3.55 0-0.013509 0.3094 0.15654 0.34178-0.070807 0.31939-0.28631 0.2436-0.11852 0.28612 0.030203 0.37471-0.17578 0.27591-0.35236 0.13098-0.20923 0.22833-0.099776 0.36244-0.25954 0.19915-0.37591 0.00257-0.27471 0.143-0.21772 0.30645-0.312 0.098375-0.35412-0.12615-0.30705 0.040424-0.3094 0.21351-0.32683-0.01427-0.28962-0.23966-0.30236-0.067031-0.36377 0.094811-0.30224-0.12519-0.19018-0.32426-0.2612-0.1664-0.37426-0.035323-0.2412-0.22102-0.067807-0.36975-0.18853-0.2457-0.33961-0.1612-0.15106-0.29018 0.062745-0.37065-0.093128-0.29536-0.26399-0.26763-0.042701-0.32435 0.18573-0.32683 0.013509-0.3094-0.15654-0.34178 0.070807-0.31939 0.28631-0.2436 0.11852-0.28612-0.030203-0.37471 0.17578-0.27591 0.35236-0.13098 0.20923-0.22833 0.099776-0.36244 0.25954-0.19915 0.37591-0.00257 0.27471-0.143 0.21772-0.30645 0.312-0.098375 0.35412 0.12615 0.30705-0.040424 0.3094-0.21351 0.32683 0.01427 0.28962 0.23966 0.30236 0.067031 0.36377-0.094811 0.30224 0.12519 0.19018 0.32426 0.2612 0.1664 0.37426 0.035323 0.2412 0.22102 0.067807 0.36975 0.18853 0.2457 0.33961 0.1612 0.15106 0.29018-0.062745 0.37065 0.093128 0.29536 0.26399 0.26763 0.042701 0.32435z" fill="url(#id2) none"/>
        <circle id="circle515" r="3.15" fill="url(#id22) none"/>
        <circle id="circle517" r="2.35" fill="url(#id23) none"/>
      </g>
      <g id="g525" transform="translate(-3.81 66.04)">
        <circle id="circle521" cy="1.27" r="1.55" fill="url(#id24) none"/>
        <ellipse id="ellipse523" transform="rotate(20 .51667 .495)" cx=".51667" cy=".495" rx=".775" ry=".51667" fill="#fff" opacity=".8"/>
      </g>
      <g id="g533" transform="translate(7.62 73.66)">
        <path id="path527" d="m3.55 0-0.013509 0.3094 0.15654 0.34178-0.070807 0.31939-0.28631 0.2436-0.11852 0.28612 0.030203 0.37471-0.17578 0.27591-0.35236 0.13098-0.20923 0.22833-0.099776 0.36244-0.25954 0.19915-0.37591 0.00257-0.27471 0.143-0.21772 0.30645-0.312 0.098375-0.35412-0.12615-0.30705 0.040424-0.3094 0.21351-0.32683-0.01427-0.28962-0.23966-0.30236-0.067031-0.36377 0.094811-0.30224-0.12519-0.19018-0.32426-0.2612-0.1664-0.37426-0.035323-0.2412-0.22102-0.067807-0.36975-0.18853-0.2457-0.33961-0.1612-0.15106-0.29018 0.062745-0.37065-0.093128-0.29536-0.26399-0.26763-0.042701-0.32435 0.18573-0.32683 0.013509-0.3094-0.15654-0.34178 0.070807-0.31939 0.28631-0.2436 0.11852-0.28612-0.030203-0.37471 0.17578-0.27591 0.35236-0.13098 0.20923-0.22833 0.099776-0.36244 0.25954-0.19915 0.37591-0.00257 0.27471-0.143 0.21772-0.30645 0.312-0.098375 0.35412 0.12615 0.30705-0.040424 0.3094-0.21351 0.32683 0.01427 0.28962 0.23966 0.30236 0.067031 0.36377-0.094811 0.30224 0.12519 0.19018 0.32426 0.2612 0.1664 0.37426 0.035323 0.2412 0.22102 0.067807 0.36975 0.18853 0.2457 0.33961 0.1612 0.15106 0.29018-0.062745 0.37065 0.093128 0.29536 0.26399 0.26763 0.042701 0.32435z" fill="url(#id2) none"/>
        <circle id="circle529" r="3.15" fill="url(#id22) none"/>
        <circle id="circle531" r="2.35" fill="url(#id23) none"/>
      </g>
      <g id="g539" transform="translate(11.43 66.04)">
        <circle id="circle535" cy="1.27" r="1.55" fill="url(#id24) none"/>
        <ellipse id="ellipse537" transform="rotate(20 .51667 .495)" cx=".51667" cy=".495" rx=".775" ry=".51667" fill="#fff" opacity=".8"/>
      </g>
      <g id="g547" transform="translate(-7.62 88.9)">
        <path id="path541" d="m3.55 0-0.013509 0.3094 0.15654 0.34178-0.070807 0.31939-0.28631 0.2436-0.11852 0.28612 0.030203 0.37471-0.17578 0.27591-0.35236 0.13098-0.20923 0.22833-0.099776 0.36244-0.25954 0.19915-0.37591 0.00257-0.27471 0.143-0.21772 0.30645-0.312 0.098375-0.35412-0.12615-0.30705 0.040424-0.3094 0.21351-0.32683-0.01427-0.28962-0.23966-0.30236-0.067031-0.36377 0.094811-0.30224-0.12519-0.19018-0.32426-0.2612-0.1664-0.37426-0.035323-0.2412-0.22102-0.067807-0.36975-0.18853-0.2457-0.33961-0.1612-0.15106-0.29018 0.062745-0.37065-0.093128-0.29536-0.26399-0.26763-0.042701-0.32435 0.18573-0.32683 0.013509-0.3094-0.15654-0.34178 0.070807-0.31939 0.28631-0.2436 0.11852-0.28612-0.030203-0.37471 0.17578-0.27591 0.35236-0.13098 0.20923-0.22833 0.099776-0.36244 0.25954-0.19915 0.37591-0.00257 0.27471-0.143 0.21772-0.30645 0.312-0.098375 0.35412 0.12615 0.30705-0.040424 0.3094-0.21351 0.32683 0.01427 0.28962 0.23966 0.30236 0.067031 0.36377-0.094811 0.30224 0.12519 0.19018 0.32426 0.2612 0.1664 0.37426 0.035323 0.2412 0.22102 0.067807 0.36975 0.18853 0.2457 0.33961 0.1612 0.15106 0.29018-0.062745 0.37065 0.093128 0.29536 0.26399 0.26763 0.042701 0.32435z" fill="url(#id2) none"/>
        <circle id="circle543" r="3.15" fill="url(#id22) none"/>
        <circle id="circle545" r="2.35" fill="url(#id23) none"/>
      </g>
      <g id="g553" transform="translate(-3.81 81.28)">
        <circle id="circle549" cy="1.27" r="1.55" fill="url(#id24) none"/>
        <ellipse id="ellipse551" transform="rotate(20 .51667 .495)" cx=".51667" cy=".495" rx=".775" ry=".51667" fill="#fff" opacity=".8"/>
      </g>
      <g id="g561" transform="translate(7.62 88.9)">
        <path id="path555" d="m3.55 0-0.013509 0.3094 0.15654 0.34178-0.070807 0.31939-0.28631 0.2436-0.11852 0.28612 0.030203 0.37471-0.17578 0.27591-0.35236 0.13098-0.20923 0.22833-0.099776 0.36244-0.25954 0.19915-0.37591 0.00257-0.27471 0.143-0.21772 0.30645-0.312 0.098375-0.35412-0.12615-0.30705 0.040424-0.3094 0.21351-0.32683-0.01427-0.28962-0.23966-0.30236-0.067031-0.36377 0.094811-0.30224-0.12519-0.19018-0.32426-0.2612-0.1664-0.37426-0.035323-0.2412-0.22102-0.067807-0.36975-0.18853-0.2457-0.33961-0.1612-0.15106-0.29018 0.062745-0.37065-0.093128-0.29536-0.26399-0.26763-0.042701-0.32435 0.18573-0.32683 0.013509-0.3094-0.15654-0.34178 0.070807-0.31939 0.28631-0.2436 0.11852-0.28612-0.030203-0.37471 0.17578-0.27591 0.35236-0.13098 0.20923-0.22833 0.099776-0.36244 0.25954-0.19915 0.37591-0.00257 0.27471-0.143 0.21772-0.30645 0.312-0.098375 0.35412 0.12615 0.30705-0.040424 0.3094-0.21351 0.32683 0.01427 0.28962 0.23966 0.30236 0.067031 0.36377-0.094811 0.30224 0.12519 0.19018 0.32426 0.2612 0.1664 0.37426 0.035323 0.2412 0.22102 0.067807 0.36975 0.18853 0.2457 0.33961 0.1612 0.15106 0.29018-0.062745 0.37065 0.093128 0.29536 0.26399 0.26763 0.042701 0.32435z" fill="url(#id2) none"/>
        <circle id="circle557" r="3.15" fill="url(#id22) none"/>
        <circle id="circle559" r="2.35" fill="url(#id23) none"/>
      </g>
      <g id="g567" transform="translate(11.43 81.28)">
        <circle id="circle563" cy="1.27" r="1.55" fill="url(#id24) none"/>
        <ellipse id="ellipse565" transform="rotate(20 .51667 .495)" cx=".51667" cy=".495" rx=".775" ry=".51667" fill="#fff" opacity=".8"/>
      </g>
    </g>
  </g>
</svg>
