<?xml version="1.0" encoding="UTF-8"?>
<svg id="svg371" width="20mm" height="128.5mm" version="1.1" viewBox="0 0 20 128.5" xmlns="http://www.w3.org/2000/svg">
  <defs id="defs189">
    <linearGradient id="id1" x1=".70711" x2="0" y2=".70711">
      <stop id="stop3" stop-color="#666" offset="0"/>
      <stop id="stop5" stop-color="#191919" offset="1"/>
    </linearGradient>
    <radialGradient id="id2">
      <stop id="stop8" offset=".65385"/>
      <stop id="stop10" stop-opacity="0" offset=".88462"/>
    </radialGradient>
    <linearGradient id="id3" x1=".70711" x2="0" y2=".70711">
      <stop id="stop13" stop-color="#666" offset="0"/>
      <stop id="stop15" stop-color="#686868" offset=".04"/>
      <stop id="stop17" stop-color="#212121" offset="1"/>
    </linearGradient>
    <linearGradient id="id4" x1=".70711" x2="0" y2=".70711">
      <stop id="stop20" stop-color="#777" offset="0"/>
      <stop id="stop22" stop-color="#555" offset="1"/>
    </linearGradient>
    <linearGradient id="id5" x1=".70711" x2="0" y2=".70711">
      <stop id="stop25" stop-color="#fff" offset="0"/>
      <stop id="stop27" stop-color="#ccc" offset="1"/>
    </linearGradient>
    <linearGradient id="id10" x1=".70711" x2="0" y2=".70711">
      <stop id="stop52" stop-color="#61d7f8" offset="0"/>
      <stop id="stop54" stop-color="#0998c1" offset="1"/>
    </linearGradient>
    <linearGradient id="id11" x1="1" x2="0" y2="1">
      <stop id="stop57" stop-color="#fff" offset="-1"/>
      <stop id="stop59" offset="2"/>
    </linearGradient>
    <radialGradient id="id12">
      <stop id="stop62" offset=".74603"/>
      <stop id="stop64" stop-color="#fff" offset=".87302"/>
      <stop id="stop66" stop-color="#444" offset="1"/>
    </radialGradient>
    <linearGradient id="id13" x1="1" x2="0" y2="1">
      <stop id="stop69" offset="0"/>
      <stop id="stop71" stop-color="#333" offset="1"/>
    </linearGradient>
    <radialGradient id="id17">
      <stop id="stop91" stop-color="#fff" offset="0"/>
      <stop id="stop93" stop-color="green" offset="1"/>
    </radialGradient>
  </defs>
  <rect id="background" width="20" height="128.5" fill="#fff"/>
  <g id="stencil" font-family="Ubuntu" font-size="3">
    <path id="path1192" d="m5.9575 8.265q0-0.445 0.13-0.785 0.135-0.34 0.36-0.565 0.23-0.23 0.53-0.345 0.305-0.115 0.645-0.115 0.335 0 0.63 0.115 0.3 0.115 0.525 0.345 0.225 0.225 0.355 0.565 0.135 0.34 0.135 0.785t-0.135 0.785q-0.13 0.34-0.355 0.57-0.225 0.225-0.525 0.34-0.295 0.115-0.63 0.115-0.34 0-0.645-0.115-0.3-0.115-0.53-0.34-0.225-0.23-0.36-0.57-0.13-0.34-0.13-0.785zm0.51 0q0 0.315 0.08 0.575 0.08 0.255 0.225 0.435 0.15 0.18 0.36 0.28 0.215 0.095 0.48 0.095t0.475-0.095q0.21-0.1 0.355-0.28 0.15-0.18 0.23-0.435 0.08-0.26 0.08-0.575t-0.08-0.57q-0.08-0.26-0.23-0.44-0.145-0.18-0.355-0.275-0.21-0.1-0.475-0.1t-0.48 0.1q-0.21 0.095-0.36 0.275-0.145 0.18-0.225 0.44-0.08 0.255-0.08 0.57z"/>
    <path id="path1194" d="m9.7025 10.925h-0.475l1.695-4.84h0.465z"/>
    <path id="path1196" d="m13.762 10q-0.085-0.225-0.16-0.44-0.075-0.22-0.155-0.445h-1.57l-0.315 0.885h-0.505q0.2-0.55 0.375-1.015 0.175-0.47 0.34-0.89 0.17-0.42 0.335-0.8 0.165-0.385 0.345-0.76h0.445q0.18 0.375 0.345 0.76 0.165 0.38 0.33 0.8 0.17 0.42 0.345 0.89 0.175 0.465 0.375 1.015zm-0.455-1.285q-0.16-0.435-0.32-0.84-0.155-0.41-0.325-0.785-0.175 0.375-0.335 0.785-0.155 0.405-0.31 0.84z"/>
    <path id="path1199" d="m2.609 21.807q-0.267 0-0.471-0.078-0.204-0.081-0.339-0.216-0.138-0.138-0.207-0.318-0.069-0.183-0.069-0.387 0-0.201 0.069-0.378 0.069-0.18 0.207-0.315 0.135-0.135 0.339-0.213 0.204-0.081 0.471-0.081t0.471 0.081q0.204 0.078 0.342 0.213 0.135 0.135 0.204 0.315 0.069 0.177 0.069 0.378 0 0.204-0.069 0.387-0.069 0.18-0.204 0.318-0.138 0.135-0.342 0.216-0.204 0.078-0.471 0.078zm0-0.306q0.189 0 0.345-0.048 0.153-0.048 0.261-0.135 0.108-0.09 0.168-0.216 0.057-0.129 0.057-0.288t-0.057-0.285q-0.06-0.126-0.168-0.213-0.108-0.09-0.261-0.138-0.156-0.048-0.345-0.048t-0.342 0.048q-0.156 0.048-0.264 0.138-0.108 0.087-0.165 0.213-0.06 0.126-0.06 0.285t0.06 0.288q0.057 0.126 0.165 0.216 0.108 0.087 0.264 0.135 0.153 0.048 0.342 0.048z"/>
    <path id="path1201" d="m1.322 18.798q0-0.123 0.018-0.21 0.018-0.09 0.033-0.126l0.24 0.051q-0.018 0.036-0.033 0.102-0.018 0.066-0.018 0.162 0 0.195 0.108 0.273 0.105 0.078 0.285 0.078h0.135v-0.6h0.234v0.6h1.326v0.279h-1.701q-0.3 0-0.462-0.147-0.165-0.147-0.165-0.462zm0-1.17q0-0.123 0.018-0.21 0.018-0.09 0.033-0.126l0.24 0.051q-0.018 0.036-0.033 0.102-0.018 0.066-0.018 0.162 0 0.195 0.108 0.273 0.105 0.078 0.285 0.078h0.135v-0.6h0.234v0.6h1.326v0.279h-1.701q-0.3 0-0.462-0.147-0.165-0.147-0.165-0.462z"/>
    <path id="path1203" d="m3.449 16.716q0-0.171-0.045-0.252-0.045-0.084-0.144-0.084-0.102 0-0.162 0.081t-0.135 0.267q-0.036 0.09-0.072 0.174-0.039 0.081-0.09 0.141t-0.123 0.096-0.177 0.036q-0.207 0-0.327-0.153-0.123-0.153-0.123-0.417 0-0.066 9e-3 -0.132 6e-3 -0.066 0.018-0.123 9e-3 -0.057 0.021-0.099 0.012-0.045 0.021-0.069l0.24 0.051q-0.024 0.045-0.048 0.141-0.027 0.096-0.027 0.231 0 0.117 0.048 0.204 0.045 0.087 0.144 0.087 0.051 0 0.09-0.018 0.039-0.021 0.072-0.06 0.03-0.042 0.057-0.102t0.057-0.144q0.042-0.111 0.084-0.198 0.039-0.087 0.093-0.147 0.054-0.063 0.132-0.096 0.075-0.033 0.186-0.033 0.216 0 0.327 0.162 0.111 0.159 0.111 0.456 0 0.207-0.036 0.324-0.033 0.117-0.051 0.159l-0.24-0.051q0.018-0.048 0.054-0.153t0.036-0.279z"/>
    <path id="path1205" d="m2.873 15.828q-0.207 0-0.36-0.06-0.156-0.06-0.258-0.159t-0.153-0.228-0.051-0.264q0-0.315 0.198-0.483 0.195-0.168 0.597-0.168 0.018 0 0.048 0 0.027 0 0.051 3e-3v1.068q0.243-0.018 0.369-0.141t0.126-0.384q0-0.147-0.024-0.246-0.027-0.102-0.051-0.153l0.234-0.039q0.027 0.051 0.057 0.18 0.03 0.126 0.03 0.288 0 0.204-0.06 0.354-0.063 0.147-0.171 0.243t-0.255 0.144q-0.15 0.045-0.327 0.045zm-0.153-1.071q-0.189-3e-3 -0.309 0.096-0.123 0.096-0.123 0.267 0 0.096 0.039 0.171 0.036 0.072 0.096 0.123t0.138 0.081q0.078 0.027 0.159 0.036z"/>
    <path id="path1207" d="m2.09 13.804v-0.591h0.234v0.591h0.72q0.117 0 0.195-0.018 0.075-0.018 0.12-0.054 0.042-0.036 0.06-0.09t0.018-0.126q0-0.126-0.027-0.201-0.03-0.078-0.042-0.108l0.231-0.054q0.021 0.042 0.051 0.147 0.033 0.105 0.033 0.24 0 0.159-0.039 0.264-0.042 0.102-0.123 0.165t-0.198 0.09q-0.12 0.024-0.276 0.024h-1.392l-0.048-0.279z"/>
    <path id="path1210" d="m16.35 35.622q0.135-0.051 0.264-0.096 0.132-0.045 0.267-0.093v-0.942l-0.531-0.189v-0.303q0.33 0.12 0.609 0.225 0.282 0.105 0.534 0.204 0.252 0.102 0.48 0.201 0.231 0.099 0.456 0.207v0.267q-0.225 0.108-0.456 0.207-0.228 0.099-0.48 0.198-0.252 0.102-0.534 0.207-0.279 0.105-0.609 0.225zm0.771-0.273q0.261-0.096 0.504-0.192 0.246-0.093 0.471-0.195-0.225-0.105-0.471-0.201-0.243-0.093-0.504-0.186z"/>
    <path id="path1212" d="m17.91 36.465v0.591h-0.234v-0.591h-0.72q-0.117 0-0.195 0.018-0.075 0.018-0.12 0.054-0.042 0.036-0.06 0.09t-0.018 0.126q0 0.126 0.027 0.201 0.03 0.078 0.042 0.108l-0.231 0.054q-0.021-0.042-0.051-0.147-0.033-0.105-0.033-0.24 0-0.159 0.039-0.264 0.042-0.102 0.123-0.165t0.198-0.09q0.12-0.024 0.276-0.024h1.392l0.048 0.279z"/>
    <path id="path1214" d="m17.91 37.671v0.591h-0.234v-0.591h-0.72q-0.117 0-0.195 0.018-0.075 0.018-0.12 0.054-0.042 0.036-0.06 0.09t-0.018 0.126q0 0.126 0.027 0.201 0.03 0.078 0.042 0.108l-0.231 0.054q-0.021-0.042-0.051-0.147-0.033-0.105-0.033-0.24 0-0.159 0.039-0.264 0.042-0.102 0.123-0.165t0.198-0.09q0.12-0.024 0.276-0.024h1.392l0.048 0.279z"/>
    <path id="path1216" d="m17.127 38.499q0.207 0 0.36 0.06 0.156 0.06 0.258 0.159t0.153 0.228 0.051 0.264q0 0.315-0.198 0.483-0.195 0.168-0.597 0.168-0.018 0-0.048 0-0.027 0-0.051-3e-3v-1.068q-0.243 0.018-0.369 0.141t-0.126 0.384q0 0.147 0.024 0.246 0.027 0.102 0.051 0.153l-0.234 0.039q-0.027-0.051-0.057-0.18-0.03-0.126-0.03-0.288 0-0.204 0.06-0.354 0.063-0.147 0.171-0.243t0.255-0.144q0.15-0.045 0.327-0.045zm0.153 1.071q0.189 3e-3 0.309-0.096 0.123-0.096 0.123-0.267 0-0.096-0.039-0.171-0.036-0.072-0.096-0.123t-0.138-0.081q-0.078-0.027-0.159-0.036z"/>
    <path id="path1218" d="m17.865 40.263q0.024 0.096 0.051 0.255t0.027 0.366q0 0.186-0.054 0.309-0.051 0.123-0.147 0.195-0.093 0.075-0.225 0.105t-0.291 0.03h-0.876v-0.279h0.816q0.144 0 0.246-0.021 0.102-0.018 0.165-0.063t0.09-0.12q0.03-0.075 0.03-0.186 0-0.045-3e-3 -0.093t-9e-3 -0.093q-3e-3 -0.042-9e-3 -0.078-6e-3 -0.033-9e-3 -0.048h-1.317v-0.279z"/>
    <g id="g204" transform="translate(4.92,54.37)">
      <path id="path1221" d="m-1.0065 5.921h0.291v2.079h-0.291z"/>
      <path id="path1223" d="m-0.2175 6.485q0.096-0.024 0.255-0.051t0.366-0.027q0.186 0 0.309 0.054 0.123 0.051 0.195 0.147 0.075 0.093 0.105 0.225 0.03 0.132 0.03 0.291v0.876h-0.279v-0.816q0-0.144-0.021-0.246-0.018-0.102-0.063-0.165t-0.12-0.09q-0.075-0.03-0.186-0.03-0.045 0-0.093 3e-3t-0.093 9e-3q-0.042 3e-3 -0.078 9e-3 -0.033 6e-3 -0.048 9e-3v1.317h-0.279z"/>
    </g>
    <g id="g208" transform="translate(15.08,54.37)">
      <path id="path_xymediursd" transform="matrix(.26458 0 0 .26458 -15.08 -54.37)" d="m45.09 187.92a5.6693 5.6693 0 0 0-5.6699 5.6699v45.354a5.6693 5.6693 0 0 0 5.6699 5.6699h23.811a5.6693 5.6693 0 0 0 5.6699-5.6699v-45.354a5.6693 5.6693 0 0 0-5.6699-5.6699zm11.906 4.3457a13.229 13.229 0 0 1 0 26.457 13.229 13.229 0 0 1 0-26.457zm-5.5117 35.426c0.50646 0 0.9837 0.0879 1.4297 0.26172 0.45354 0.17386 0.8493 0.43354 1.1895 0.78125 0.34016 0.34016 0.60815 0.76724 0.80469 1.2812 0.2041 0.51402 0.30664 1.1085 0.30664 1.7812 0 0.67276-0.10255 1.2653-0.30664 1.7793-0.19654 0.51401-0.46453 0.94525-0.80469 1.293-0.34016 0.34015-0.73591 0.59762-1.1895 0.77148-0.44598 0.17386-0.92323 0.25977-1.4297 0.25977-0.51402 0-1.0018-0.0859-1.4629-0.25977-0.45354-0.17386-0.85346-0.43133-1.2012-0.77148-0.34016-0.34772-0.61231-0.77896-0.81641-1.293-0.19654-0.51402-0.29492-1.1065-0.29492-1.7793 0-0.67275 0.09839-1.2672 0.29492-1.7812 0.2041-0.51401 0.47625-0.94109 0.81641-1.2812 0.34772-0.34771 0.74763-0.60739 1.2012-0.78125 0.4611-0.17386 0.94888-0.26172 1.4629-0.26172zm12.791 0.31836v1.8262h2.2324v0.88282h-2.2324v2.7226c0 0.29481 0.02105 0.5398 0.06641 0.73633 0.04535 0.18898 0.11437 0.33974 0.20508 0.45313 0.09071 0.10582 0.20378 0.1812 0.33984 0.22656 0.13606 0.0454 0.29514 0.0684 0.47656 0.0684 0.31748 0 0.57079-0.0335 0.75977-0.10156 0.19654-0.0756 0.33261-0.12797 0.4082-0.15821l0.20312 0.87305c-0.10583 0.0529-0.29012 0.11582-0.55469 0.19141-0.26457 0.0831-0.56805 0.125-0.9082 0.125-0.40063 0-0.73153-0.0482-0.99609-0.14649-0.25701-0.10583-0.46626-0.26075-0.625-0.46484-0.15874-0.2041-0.27181-0.45325-0.33984-0.74805-0.06047-0.30236-0.08984-0.65185-0.08984-1.0449v-5.2598zm-12.812 0.64649c-0.40063 0-0.7648 0.0754-1.0898 0.22656-0.31748 0.14362-0.58964 0.35092-0.81641 0.62305-0.21921 0.27212-0.38882 0.60497-0.50977 0.99804-0.12094 0.38551-0.18164 0.81675-0.18164 1.293s0.0607 0.90967 0.18164 1.3027c0.12094 0.38551 0.29055 0.71615 0.50977 0.98828 0.22677 0.27212 0.49893 0.48358 0.81641 0.63476 0.32504 0.14363 0.68921 0.21485 1.0898 0.21485s0.75869-0.0712 1.0762-0.21485c0.31748-0.15118 0.58548-0.36264 0.80469-0.63476 0.22677-0.27213 0.40054-0.60277 0.52148-0.98828 0.12094-0.39307 0.18164-0.82652 0.18164-1.3027s-0.0607-0.90746-0.18164-1.293c-0.12094-0.39307-0.29471-0.72592-0.52148-0.99804-0.21921-0.27213-0.48721-0.47943-0.80469-0.62305-0.31748-0.15118-0.67554-0.22656-1.0762-0.22656zm5.248 1.1797h1.0547v3.084c0 0.71811 0.11502 1.2311 0.3418 1.541 0.22677 0.30993 0.60784 0.46485 1.1445 0.46485 0.11339 0 0.23062-4e-3 0.35156-0.0117 0.12094-8e-3 0.23402-0.0139 0.33984-0.0215 0.10583-0.0151 0.20005-0.0276 0.2832-0.0352 0.09071-0.0151 0.15556-0.0298 0.19336-0.0449v-4.9766h1.0547v5.7246c-0.24189 0.0605-0.56421 0.12533-0.96484 0.19336-0.39307 0.068-0.84952 0.10157-1.3711 0.10157-0.45354 0-0.83656-0.0649-1.1465-0.19336-0.30992-0.13607-0.55907-0.32452-0.74805-0.56641-0.18898-0.24189-0.32505-0.52457-0.4082-0.84961-0.08315-0.3326-0.125-0.69898-0.125-1.0996z" style=""/>
    </g>
    <path id="path1226" d="m2.609 76.417q-0.267 0-0.471-0.078-0.204-0.081-0.339-0.216-0.138-0.138-0.207-0.318-0.069-0.183-0.069-0.387 0-0.201 0.069-0.378 0.069-0.18 0.207-0.315 0.135-0.135 0.339-0.213 0.204-0.081 0.471-0.081t0.471 0.081q0.204 0.078 0.342 0.213 0.135 0.135 0.204 0.315 0.069 0.177 0.069 0.378 0 0.204-0.069 0.387-0.069 0.18-0.204 0.318-0.138 0.135-0.342 0.216-0.204 0.078-0.471 0.078zm0-0.306q0.189 0 0.345-0.048 0.153-0.048 0.261-0.135 0.108-0.09 0.168-0.216 0.057-0.129 0.057-0.288t-0.057-0.285q-0.06-0.126-0.168-0.213-0.108-0.09-0.261-0.138-0.156-0.048-0.345-0.048t-0.342 0.048q-0.156 0.048-0.264 0.138-0.108 0.087-0.165 0.213-0.06 0.126-0.06 0.285t0.06 0.288q0.057 0.126 0.165 0.216 0.108 0.087 0.264 0.135 0.153 0.048 0.342 0.048z"/>
    <path id="path1228" d="m1.322 73.408q0-0.123 0.018-0.21 0.018-0.09 0.033-0.126l0.24 0.051q-0.018 0.036-0.033 0.102-0.018 0.066-0.018 0.162 0 0.195 0.108 0.273 0.105 0.078 0.285 0.078h0.135v-0.6h0.234v0.6h1.326v0.279h-1.701q-0.3 0-0.462-0.147-0.165-0.147-0.165-0.462zm0-1.17q0-0.123 0.018-0.21 0.018-0.09 0.033-0.126l0.24 0.051q-0.018 0.036-0.033 0.102-0.018 0.066-0.018 0.162 0 0.195 0.108 0.273 0.105 0.078 0.285 0.078h0.135v-0.6h0.234v0.6h1.326v0.279h-1.701q-0.3 0-0.462-0.147-0.165-0.147-0.165-0.462z"/>
    <path id="path1230" d="m3.449 71.326q0-0.171-0.045-0.252-0.045-0.084-0.144-0.084-0.102 0-0.162 0.081t-0.135 0.267q-0.036 0.09-0.072 0.174-0.039 0.081-0.09 0.141t-0.123 0.096-0.177 0.036q-0.207 0-0.327-0.153-0.123-0.153-0.123-0.417 0-0.066 9e-3 -0.132 6e-3 -0.066 0.018-0.123 9e-3 -0.057 0.021-0.099 0.012-0.045 0.021-0.069l0.24 0.051q-0.024 0.045-0.048 0.141-0.027 0.096-0.027 0.231 0 0.117 0.048 0.204 0.045 0.087 0.144 0.087 0.051 0 0.09-0.018 0.039-0.021 0.072-0.06 0.03-0.042 0.057-0.102t0.057-0.144q0.042-0.111 0.084-0.198 0.039-0.087 0.093-0.147 0.054-0.063 0.132-0.096 0.075-0.033 0.186-0.033 0.216 0 0.327 0.162 0.111 0.159 0.111 0.456 0 0.207-0.036 0.324-0.033 0.117-0.051 0.159l-0.24-0.051q0.018-0.048 0.054-0.153t0.036-0.279z"/>
    <path id="path1232" d="m2.873 70.438q-0.207 0-0.36-0.06-0.156-0.06-0.258-0.159t-0.153-0.228-0.051-0.264q0-0.315 0.198-0.483 0.195-0.168 0.597-0.168 0.018 0 0.048 0 0.027 0 0.051 3e-3v1.068q0.243-0.018 0.369-0.141t0.126-0.384q0-0.147-0.024-0.246-0.027-0.102-0.051-0.153l0.234-0.039q0.027 0.051 0.057 0.18 0.03 0.126 0.03 0.288 0 0.204-0.06 0.354-0.063 0.147-0.171 0.243t-0.255 0.144q-0.15 0.045-0.327 0.045zm-0.153-1.071q-0.189-3e-3 -0.309 0.096-0.123 0.096-0.123 0.267 0 0.096 0.039 0.171 0.036 0.072 0.096 0.123t0.138 0.081q0.078 0.027 0.159 0.036z"/>
    <path id="path1234" d="m2.09 68.414v-0.591h0.234v0.591h0.72q0.117 0 0.195-0.018 0.075-0.018 0.12-0.054 0.042-0.036 0.06-0.09t0.018-0.126q0-0.126-0.027-0.201-0.03-0.078-0.042-0.108l0.231-0.054q0.021 0.042 0.051 0.147 0.033 0.105 0.033 0.24 0 0.159-0.039 0.264-0.042 0.102-0.123 0.165t-0.198 0.09q-0.12 0.024-0.276 0.024h-1.392l-0.048-0.279z"/>
    <path id="path1237" d="m16.35 90.232q0.135-0.051 0.264-0.096 0.132-0.045 0.267-0.093v-0.942l-0.531-0.189v-0.303q0.33 0.12 0.609 0.225 0.282 0.105 0.534 0.204 0.252 0.102 0.48 0.201 0.231 0.099 0.456 0.207v0.267q-0.225 0.108-0.456 0.207-0.228 0.099-0.48 0.198-0.252 0.102-0.534 0.207-0.279 0.105-0.609 0.225zm0.771-0.273q0.261-0.096 0.504-0.192 0.246-0.093 0.471-0.195-0.225-0.105-0.471-0.201-0.243-0.093-0.504-0.186z"/>
    <path id="path1239" d="m17.91 91.075v0.591h-0.234v-0.591h-0.72q-0.117 0-0.195 0.018-0.075 0.018-0.12 0.054-0.042 0.036-0.06 0.09t-0.018 0.126q0 0.126 0.027 0.201 0.03 0.078 0.042 0.108l-0.231 0.054q-0.021-0.042-0.051-0.147-0.033-0.105-0.033-0.24 0-0.159 0.039-0.264 0.042-0.102 0.123-0.165t0.198-0.09q0.12-0.024 0.276-0.024h1.392l0.048 0.279z"/>
    <path id="path1241" d="m17.91 92.281v0.591h-0.234v-0.591h-0.72q-0.117 0-0.195 0.018-0.075 0.018-0.12 0.054-0.042 0.036-0.06 0.09t-0.018 0.126q0 0.126 0.027 0.201 0.03 0.078 0.042 0.108l-0.231 0.054q-0.021-0.042-0.051-0.147-0.033-0.105-0.033-0.24 0-0.159 0.039-0.264 0.042-0.102 0.123-0.165t0.198-0.09q0.12-0.024 0.276-0.024h1.392l0.048 0.279z"/>
    <path id="path1243" d="m17.127 93.109q0.207 0 0.36 0.06 0.156 0.06 0.258 0.159t0.153 0.228 0.051 0.264q0 0.315-0.198 0.483-0.195 0.168-0.597 0.168-0.018 0-0.048 0-0.027 0-0.051-3e-3v-1.068q-0.243 0.018-0.369 0.141t-0.126 0.384q0 0.147 0.024 0.246 0.027 0.102 0.051 0.153l-0.234 0.039q-0.027-0.051-0.057-0.18-0.03-0.126-0.03-0.288 0-0.204 0.06-0.354 0.063-0.147 0.171-0.243t0.255-0.144q0.15-0.045 0.327-0.045zm0.153 1.071q0.189 3e-3 0.309-0.096 0.123-0.096 0.123-0.267 0-0.096-0.039-0.171-0.036-0.072-0.096-0.123t-0.138-0.081q-0.078-0.027-0.159-0.036z"/>
    <path id="path1245" d="m17.865 94.873q0.024 0.096 0.051 0.255t0.027 0.366q0 0.186-0.054 0.309-0.051 0.123-0.147 0.195-0.093 0.075-0.225 0.105t-0.291 0.03h-0.876v-0.279h0.816q0.144 0 0.246-0.021 0.102-0.018 0.165-0.063t0.09-0.12q0.03-0.075 0.03-0.186 0-0.045-3e-3 -0.093t-9e-3 -0.093q-3e-3 -0.042-9e-3 -0.078-6e-3 -0.033-9e-3 -0.048h-1.317v-0.279z"/>
    <g id="g221" transform="translate(4.92,108.98)">
      <path id="path1248" d="m-1.0065 5.921h0.291v2.079h-0.291z"/>
      <path id="path1250" d="m-0.2175 6.485q0.096-0.024 0.255-0.051t0.366-0.027q0.186 0 0.309 0.054 0.123 0.051 0.195 0.147 0.075 0.093 0.105 0.225 0.03 0.132 0.03 0.291v0.876h-0.279v-0.816q0-0.144-0.021-0.246-0.018-0.102-0.063-0.165t-0.12-0.09q-0.075-0.03-0.186-0.03-0.045 0-0.093 3e-3t-0.093 9e-3q-0.042 3e-3 -0.078 9e-3 -0.033 6e-3 -0.048 9e-3v1.317h-0.279z"/>
    </g>
    <g id="g225" transform="translate(15.08,108.98)">
      <path id="path_mysithzswx" transform="matrix(.26458 0 0 .26458 -15.08 -108.98)" d="m45.09 394.32a5.6693 5.6693 0 0 0-5.6699 5.6699v45.354a5.6693 5.6693 0 0 0 5.6699 5.6699h23.811a5.6693 5.6693 0 0 0 5.6699-5.6699v-45.354a5.6693 5.6693 0 0 0-5.6699-5.6699zm11.906 4.3457a13.229 13.229 0 0 1 0 26.457 13.229 13.229 0 0 1 0-26.457zm-5.5117 35.426c0.50646 0 0.9837 0.0879 1.4297 0.26172 0.45354 0.17386 0.8493 0.43354 1.1895 0.78125 0.34016 0.34016 0.60815 0.76724 0.80469 1.2812 0.2041 0.51402 0.30664 1.1085 0.30664 1.7812 0 0.67276-0.10255 1.2653-0.30664 1.7793-0.19654 0.51402-0.46453 0.94525-0.80469 1.293-0.34016 0.34016-0.73591 0.59762-1.1895 0.77148-0.44598 0.17386-0.92323 0.25977-1.4297 0.25977-0.51402 0-1.0018-0.0859-1.4629-0.25977-0.45354-0.17386-0.85346-0.43132-1.2012-0.77148-0.34016-0.34772-0.61231-0.77895-0.81641-1.293-0.19654-0.51402-0.29492-1.1065-0.29492-1.7793 0-0.67275 0.09839-1.2672 0.29492-1.7812 0.2041-0.51401 0.47625-0.94109 0.81641-1.2812 0.34772-0.34771 0.74763-0.60739 1.2012-0.78125 0.4611-0.17386 0.94888-0.26172 1.4629-0.26172zm12.791 0.31836v1.8242h2.2324v0.88477h-2.2324v2.7207c0 0.2948 0.02105 0.54175 0.06641 0.73828 0.04535 0.18898 0.11437 0.33974 0.20508 0.45313 0.09071 0.10582 0.20378 0.18121 0.33984 0.22656 0.13606 0.0454 0.29514 0.0684 0.47656 0.0684 0.31748 0 0.57079-0.0335 0.75977-0.10156 0.19654-0.0756 0.33261-0.12992 0.4082-0.16016l0.20312 0.87305c-0.10583 0.0529-0.29012 0.11777-0.55469 0.19336-0.26457 0.0831-0.56805 0.125-0.9082 0.125-0.40063 0-0.73153-0.0482-0.99609-0.14649-0.25701-0.10582-0.46626-0.2627-0.625-0.4668-0.15874-0.20409-0.27181-0.45324-0.33984-0.74804-0.06047-0.30236-0.08984-0.6499-0.08984-1.043v-5.2598zm-12.812 0.64649c-0.40063 0-0.7648 0.0754-1.0898 0.22656-0.31748 0.14362-0.58964 0.35092-0.81641 0.62305-0.21921 0.27212-0.38882 0.60497-0.50977 0.99804-0.12094 0.38552-0.18164 0.81675-0.18164 1.293s0.0607 0.90967 0.18164 1.3027c0.12094 0.38551 0.29055 0.7142 0.50977 0.98633 0.22677 0.27212 0.49893 0.48358 0.81641 0.63476 0.32504 0.14362 0.68921 0.2168 1.0898 0.2168s0.75869-0.0732 1.0762-0.2168c0.31748-0.15118 0.58548-0.36264 0.80469-0.63476 0.22677-0.27213 0.40054-0.60082 0.52148-0.98633 0.12094-0.39307 0.18164-0.82652 0.18164-1.3027s-0.0607-0.90745-0.18164-1.293c-0.12094-0.39307-0.29471-0.72592-0.52148-0.99804-0.21921-0.27213-0.48721-0.47943-0.80469-0.62305-0.31748-0.15118-0.67554-0.22656-1.0762-0.22656zm5.248 1.1777h1.0547v3.084c0 0.71811 0.11502 1.233 0.3418 1.543 0.22677 0.30992 0.60784 0.46484 1.1445 0.46484 0.11339 0 0.23062-4e-3 0.35156-0.0117 0.12094-8e-3 0.23402-0.0139 0.33984-0.0215 0.10583-0.0151 0.20005-0.0276 0.2832-0.0352 0.09071-0.0151 0.15556-0.0298 0.19336-0.0449v-4.9785h1.0547v5.7266c-0.24189 0.0605-0.56421 0.12533-0.96484 0.19336-0.39307 0.068-0.84952 0.10157-1.3711 0.10157-0.45354 0-0.83656-0.0649-1.1465-0.19336-0.30992-0.13607-0.55907-0.32452-0.74805-0.56641-0.18898-0.24189-0.32505-0.52457-0.4082-0.84961-0.08315-0.3326-0.125-0.70093-0.125-1.1016z" style=""/>
    </g>
  </g>
  <g id="throughholes">
    <circle id="circle231" cx="7.46" cy="3" r="1.7"/>
    <circle id="circle233" cx="7.46" cy="125.5" r="1.7"/>
    <circle id="circle235" cx="12.54" cy="17.54" r="3.65"/>
    <circle id="circle239" cx="7.46" cy="37.86" r="3.65"/>
    <circle id="circle243" cx="4.92" cy="54.37" r="3.15"/>
    <circle id="circle247" cx="15.08" cy="54.37" r="3.15"/>
    <circle id="circle251" cx="12.54" cy="72.15" r="3.65"/>
    <circle id="circle255" cx="7.46" cy="92.47" r="3.65"/>
    <circle id="circle259" cx="4.92" cy="108.98" r="3.15"/>
    <circle id="circle263" cx="15.08" cy="108.98" r="3.15"/>
  </g>
  <g id="cosmetics">
    <g id="cosmetics_offset" transform="translate(10 15)">
      <g id="g281" transform="translate(0 10.16)">
        <circle id="circle269" cx="2.54" cy="-7.62" r="7.15" fill="url(#id1) none"/>
        <circle id="circle271" cx="2.54" cy="-7.62" r="7.15" fill="url(#id2) none"/>
        <path id="path273" d="m-0.69282-12.07a5.5 5.5 0 0 1 3.8077-1.0203l0.46279 0.32345 0.63684 0.17064 0.56252-0.048716a5.5 5.5 0 0 1 2.7874 2.7874l-0.048716 0.56252 0.17064 0.63684 0.32345 0.46279a5.5 5.5 0 0 1-1.0203 3.8077l-0.51151 0.23907-0.4662 0.4662-0.23907 0.51151a5.5 5.5 0 0 1-3.8077 1.0203l-0.46279-0.32345-0.63684-0.17064-0.56252 0.048716a5.5 5.5 0 0 1-2.7874-2.7874l0.048716-0.56252-0.17064-0.63684-0.32345-0.46279a5.5 5.5 0 0 1 1.0203-3.8077l0.51151-0.23907 0.4662-0.4662z" fill="url(#id3) none"/>
        <path id="path275" d="m-0.25198-11.463a4.75 4.75 0 0 1 3.2885-0.88115l0.39295 0.31276 0.54586 0.14626 0.49668-0.074383a4.75 4.75 0 0 1 2.4073 2.4073l-0.074383 0.49668 0.14626 0.54586 0.31276 0.39295a4.75 4.75 0 0 1-0.88115 3.2885l-0.46733 0.18392-0.3996 0.3996-0.18392 0.46733a4.75 4.75 0 0 1-3.2885 0.88115l-0.39295-0.31276-0.54586-0.14626-0.49668 0.074383a4.75 4.75 0 0 1-2.4073-2.4073l0.074383-0.49668-0.14626-0.54586-0.31276-0.39295a4.75 4.75 0 0 1 0.88115-3.2885l0.46733-0.18392 0.3996-0.3996z" fill="url(#id4) none"/>
        <circle id="circle277" cx="2.54" cy="-7.62" r="4" fill="url(#id5) none"/>
        <line id="line279" x1="2.54" x2="-.28843" y1="-7.62" y2="-10.448" stroke="#000" stroke-width=".8"/>
      </g>
      <g id="g295" transform="translate(-5.08 30.48)">
        <circle id="circle283" cx="2.54" cy="-7.62" r="7.15" fill="url(#id1) none"/>
        <circle id="circle285" cx="2.54" cy="-7.62" r="7.15" fill="url(#id2) none"/>
        <path id="path287" d="m-0.69282-12.07a5.5 5.5 0 0 1 3.8077-1.0203l0.46279 0.32345 0.63684 0.17064 0.56252-0.048716a5.5 5.5 0 0 1 2.7874 2.7874l-0.048716 0.56252 0.17064 0.63684 0.32345 0.46279a5.5 5.5 0 0 1-1.0203 3.8077l-0.51151 0.23907-0.4662 0.4662-0.23907 0.51151a5.5 5.5 0 0 1-3.8077 1.0203l-0.46279-0.32345-0.63684-0.17064-0.56252 0.048716a5.5 5.5 0 0 1-2.7874-2.7874l0.048716-0.56252-0.17064-0.63684-0.32345-0.46279a5.5 5.5 0 0 1 1.0203-3.8077l0.51151-0.23907 0.4662-0.4662z" fill="url(#id3) none"/>
        <path id="path289" d="m-0.25198-11.463a4.75 4.75 0 0 1 3.2885-0.88115l0.39295 0.31276 0.54586 0.14626 0.49668-0.074383a4.75 4.75 0 0 1 2.4073 2.4073l-0.074383 0.49668 0.14626 0.54586 0.31276 0.39295a4.75 4.75 0 0 1-0.88115 3.2885l-0.46733 0.18392-0.3996 0.3996-0.18392 0.46733a4.75 4.75 0 0 1-3.2885 0.88115l-0.39295-0.31276-0.54586-0.14626-0.49668 0.074383a4.75 4.75 0 0 1-2.4073-2.4073l0.074383-0.49668-0.14626-0.54586-0.31276-0.39295a4.75 4.75 0 0 1 0.88115-3.2885l0.46733-0.18392 0.3996-0.3996z" fill="url(#id4) none"/>
        <circle id="circle291" cx="2.54" cy="-7.62" r="4" fill="url(#id10) none"/>
        <line id="line293" x1="2.54" x2="-.28843" y1="-7.62" y2="-10.448" stroke="#000" stroke-width=".8"/>
      </g>
      <g id="g303" transform="translate(-5.08,39.37)">
        <path id="path297" d="m3.55 0-0.013509 0.3094 0.15654 0.34178-0.070807 0.31939-0.28631 0.2436-0.11852 0.28612 0.030203 0.37471-0.17578 0.27591-0.35236 0.13098-0.20923 0.22833-0.099776 0.36244-0.25954 0.19915-0.37591 0.00257-0.27471 0.143-0.21772 0.30645-0.312 0.098375-0.35412-0.12615-0.30705 0.040424-0.3094 0.21351-0.32683-0.01427-0.28962-0.23966-0.30236-0.067031-0.36377 0.094811-0.30224-0.12519-0.19018-0.32426-0.2612-0.1664-0.37426-0.035323-0.2412-0.22102-0.067807-0.36975-0.18853-0.2457-0.33961-0.1612-0.15106-0.29018 0.062745-0.37065-0.093128-0.29536-0.26399-0.26763-0.042701-0.32435 0.18573-0.32683 0.013509-0.3094-0.15654-0.34178 0.070807-0.31939 0.28631-0.2436 0.11852-0.28612-0.030203-0.37471 0.17578-0.27591 0.35236-0.13098 0.20923-0.22833 0.099776-0.36244 0.25954-0.19915 0.37591-0.00257 0.27471-0.143 0.21772-0.30645 0.312-0.098375 0.35412 0.12615 0.30705-0.040424 0.3094-0.21351 0.32683 0.01427 0.28962 0.23966 0.30236 0.067031 0.36377-0.094811 0.30224 0.12519 0.19018 0.32426 0.2612 0.1664 0.37426 0.035323 0.2412 0.22102 0.067807 0.36975 0.18853 0.2457 0.33961 0.1612 0.15106 0.29018-0.062745 0.37065 0.093128 0.29536 0.26399 0.26763 0.042701 0.32435z" fill="url(#id11) none"/>
        <circle id="circle299" r="3.15" fill="url(#id12) none"/>
        <circle id="circle301" r="2.35" fill="url(#id13) none"/>
      </g>
      <g id="g311" transform="translate(5.08,39.37)">
        <path id="path305" d="m3.55 0-0.013509 0.3094 0.15654 0.34178-0.070807 0.31939-0.28631 0.2436-0.11852 0.28612 0.030203 0.37471-0.17578 0.27591-0.35236 0.13098-0.20923 0.22833-0.099776 0.36244-0.25954 0.19915-0.37591 0.00257-0.27471 0.143-0.21772 0.30645-0.312 0.098375-0.35412-0.12615-0.30705 0.040424-0.3094 0.21351-0.32683-0.01427-0.28962-0.23966-0.30236-0.067031-0.36377 0.094811-0.30224-0.12519-0.19018-0.32426-0.2612-0.1664-0.37426-0.035323-0.2412-0.22102-0.067807-0.36975-0.18853-0.2457-0.33961-0.1612-0.15106-0.29018 0.062745-0.37065-0.093128-0.29536-0.26399-0.26763-0.042701-0.32435 0.18573-0.32683 0.013509-0.3094-0.15654-0.34178 0.070807-0.31939 0.28631-0.2436 0.11852-0.28612-0.030203-0.37471 0.17578-0.27591 0.35236-0.13098 0.20923-0.22833 0.099776-0.36244 0.25954-0.19915 0.37591-0.00257 0.27471-0.143 0.21772-0.30645 0.312-0.098375 0.35412 0.12615 0.30705-0.040424 0.3094-0.21351 0.32683 0.01427 0.28962 0.23966 0.30236 0.067031 0.36377-0.094811 0.30224 0.12519 0.19018 0.32426 0.2612 0.1664 0.37426 0.035323 0.2412 0.22102 0.067807 0.36975 0.18853 0.2457 0.33961 0.1612 0.15106 0.29018-0.062745 0.37065 0.093128 0.29536 0.26399 0.26763 0.042701 0.32435z" fill="url(#id11) none"/>
        <circle id="circle307" r="3.15" fill="url(#id12) none"/>
        <circle id="circle309" r="2.35" fill="url(#id13) none"/>
      </g>
      <g id="g317" transform="translate(7.62 30.48)">
        <circle id="circle313" cy="1.27" r="1.55" fill="url(#id17) none"/>
        <ellipse id="ellipse315" transform="rotate(20 .51667 .495)" cx=".51667" cy=".495" rx=".775" ry=".51667" fill="#fff" opacity=".8"/>
      </g>
      <g id="g331" transform="translate(0 64.77)">
        <circle id="circle319" cx="2.54" cy="-7.62" r="7.15" fill="url(#id1) none"/>
        <circle id="circle321" cx="2.54" cy="-7.62" r="7.15" fill="url(#id2) none"/>
        <path id="path323" d="m-0.69282-12.07a5.5 5.5 0 0 1 3.8077-1.0203l0.46279 0.32345 0.63684 0.17064 0.56252-0.048716a5.5 5.5 0 0 1 2.7874 2.7874l-0.048716 0.56252 0.17064 0.63684 0.32345 0.46279a5.5 5.5 0 0 1-1.0203 3.8077l-0.51151 0.23907-0.4662 0.4662-0.23907 0.51151a5.5 5.5 0 0 1-3.8077 1.0203l-0.46279-0.32345-0.63684-0.17064-0.56252 0.048716a5.5 5.5 0 0 1-2.7874-2.7874l0.048716-0.56252-0.17064-0.63684-0.32345-0.46279a5.5 5.5 0 0 1 1.0203-3.8077l0.51151-0.23907 0.4662-0.4662z" fill="url(#id3) none"/>
        <path id="path325" d="m-0.25198-11.463a4.75 4.75 0 0 1 3.2885-0.88115l0.39295 0.31276 0.54586 0.14626 0.49668-0.074383a4.75 4.75 0 0 1 2.4073 2.4073l-0.074383 0.49668 0.14626 0.54586 0.31276 0.39295a4.75 4.75 0 0 1-0.88115 3.2885l-0.46733 0.18392-0.3996 0.3996-0.18392 0.46733a4.75 4.75 0 0 1-3.2885 0.88115l-0.39295-0.31276-0.54586-0.14626-0.49668 0.074383a4.75 4.75 0 0 1-2.4073-2.4073l0.074383-0.49668-0.14626-0.54586-0.31276-0.39295a4.75 4.75 0 0 1 0.88115-3.2885l0.46733-0.18392 0.3996-0.3996z" fill="url(#id4) none"/>
        <circle id="circle327" cx="2.54" cy="-7.62" r="4" fill="url(#id5) none"/>
        <line id="line329" x1="2.54" x2="-.28843" y1="-7.62" y2="-10.448" stroke="#000" stroke-width=".8"/>
      </g>
      <g id="g345" transform="translate(-5.08 85.09)">
        <circle id="circle333" cx="2.54" cy="-7.62" r="7.15" fill="url(#id1) none"/>
        <circle id="circle335" cx="2.54" cy="-7.62" r="7.15" fill="url(#id2) none"/>
        <path id="path337" d="m-0.69282-12.07a5.5 5.5 0 0 1 3.8077-1.0203l0.46279 0.32345 0.63684 0.17064 0.56252-0.048716a5.5 5.5 0 0 1 2.7874 2.7874l-0.048716 0.56252 0.17064 0.63684 0.32345 0.46279a5.5 5.5 0 0 1-1.0203 3.8077l-0.51151 0.23907-0.4662 0.4662-0.23907 0.51151a5.5 5.5 0 0 1-3.8077 1.0203l-0.46279-0.32345-0.63684-0.17064-0.56252 0.048716a5.5 5.5 0 0 1-2.7874-2.7874l0.048716-0.56252-0.17064-0.63684-0.32345-0.46279a5.5 5.5 0 0 1 1.0203-3.8077l0.51151-0.23907 0.4662-0.4662z" fill="url(#id3) none"/>
        <path id="path339" d="m-0.25198-11.463a4.75 4.75 0 0 1 3.2885-0.88115l0.39295 0.31276 0.54586 0.14626 0.49668-0.074383a4.75 4.75 0 0 1 2.4073 2.4073l-0.074383 0.49668 0.14626 0.54586 0.31276 0.39295a4.75 4.75 0 0 1-0.88115 3.2885l-0.46733 0.18392-0.3996 0.3996-0.18392 0.46733a4.75 4.75 0 0 1-3.2885 0.88115l-0.39295-0.31276-0.54586-0.14626-0.49668 0.074383a4.75 4.75 0 0 1-2.4073-2.4073l0.074383-0.49668-0.14626-0.54586-0.31276-0.39295a4.75 4.75 0 0 1 0.88115-3.2885l0.46733-0.18392 0.3996-0.3996z" fill="url(#id4) none"/>
        <circle id="circle341" cx="2.54" cy="-7.62" r="4" fill="url(#id10) none"/>
        <line id="line343" x1="2.54" x2="-.28843" y1="-7.62" y2="-10.448" stroke="#000" stroke-width=".8"/>
      </g>
      <g id="g353" transform="translate(-5.08 93.98)">
        <path id="path347" d="m3.55 0-0.013509 0.3094 0.15654 0.34178-0.070807 0.31939-0.28631 0.2436-0.11852 0.28612 0.030203 0.37471-0.17578 0.27591-0.35236 0.13098-0.20923 0.22833-0.099776 0.36244-0.25954 0.19915-0.37591 0.00257-0.27471 0.143-0.21772 0.30645-0.312 0.098375-0.35412-0.12615-0.30705 0.040424-0.3094 0.21351-0.32683-0.01427-0.28962-0.23966-0.30236-0.067031-0.36377 0.094811-0.30224-0.12519-0.19018-0.32426-0.2612-0.1664-0.37426-0.035323-0.2412-0.22102-0.067807-0.36975-0.18853-0.2457-0.33961-0.1612-0.15106-0.29018 0.062745-0.37065-0.093128-0.29536-0.26399-0.26763-0.042701-0.32435 0.18573-0.32683 0.013509-0.3094-0.15654-0.34178 0.070807-0.31939 0.28631-0.2436 0.11852-0.28612-0.030203-0.37471 0.17578-0.27591 0.35236-0.13098 0.20923-0.22833 0.099776-0.36244 0.25954-0.19915 0.37591-0.00257 0.27471-0.143 0.21772-0.30645 0.312-0.098375 0.35412 0.12615 0.30705-0.040424 0.3094-0.21351 0.32683 0.01427 0.28962 0.23966 0.30236 0.067031 0.36377-0.094811 0.30224 0.12519 0.19018 0.32426 0.2612 0.1664 0.37426 0.035323 0.2412 0.22102 0.067807 0.36975 0.18853 0.2457 0.33961 0.1612 0.15106 0.29018-0.062745 0.37065 0.093128 0.29536 0.26399 0.26763 0.042701 0.32435z" fill="url(#id11) none"/>
        <circle id="circle349" r="3.15" fill="url(#id12) none"/>
        <circle id="circle351" r="2.35" fill="url(#id13) none"/>
      </g>
      <g id="g361" transform="translate(5.08 93.98)">
        <path id="path355" d="m3.55 0-0.013509 0.3094 0.15654 0.34178-0.070807 0.31939-0.28631 0.2436-0.11852 0.28612 0.030203 0.37471-0.17578 0.27591-0.35236 0.13098-0.20923 0.22833-0.099776 0.36244-0.25954 0.19915-0.37591 0.00257-0.27471 0.143-0.21772 0.30645-0.312 0.098375-0.35412-0.12615-0.30705 0.040424-0.3094 0.21351-0.32683-0.01427-0.28962-0.23966-0.30236-0.067031-0.36377 0.094811-0.30224-0.12519-0.19018-0.32426-0.2612-0.1664-0.37426-0.035323-0.2412-0.22102-0.067807-0.36975-0.18853-0.2457-0.33961-0.1612-0.15106-0.29018 0.062745-0.37065-0.093128-0.29536-0.26399-0.26763-0.042701-0.32435 0.18573-0.32683 0.013509-0.3094-0.15654-0.34178 0.070807-0.31939 0.28631-0.2436 0.11852-0.28612-0.030203-0.37471 0.17578-0.27591 0.35236-0.13098 0.20923-0.22833 0.099776-0.36244 0.25954-0.19915 0.37591-0.00257 0.27471-0.143 0.21772-0.30645 0.312-0.098375 0.35412 0.12615 0.30705-0.040424 0.3094-0.21351 0.32683 0.01427 0.28962 0.23966 0.30236 0.067031 0.36377-0.094811 0.30224 0.12519 0.19018 0.32426 0.2612 0.1664 0.37426 0.035323 0.2412 0.22102 0.067807 0.36975 0.18853 0.2457 0.33961 0.1612 0.15106 0.29018-0.062745 0.37065 0.093128 0.29536 0.26399 0.26763 0.042701 0.32435z" fill="url(#id11) none"/>
        <circle id="circle357" r="3.15" fill="url(#id12) none"/>
        <circle id="circle359" r="2.35" fill="url(#id13) none"/>
      </g>
      <g id="g367" transform="translate(7.62 85.09)">
        <circle id="circle363" cy="1.27" r="1.55" fill="url(#id17) none"/>
        <ellipse id="ellipse365" transform="rotate(20 .51667 .495)" cx=".51667" cy=".495" rx=".775" ry=".51667" fill="#fff" opacity=".8"/>
      </g>
    </g>
  </g>
</svg>
