<?xml version="1.0" encoding="UTF-8"?>
<svg id="svg470" width="50.5mm" height="128.5mm" version="1.1" viewBox="0 0 50.5 128.5" xmlns="http://www.w3.org/2000/svg">
  <defs id="defs223">
    <linearGradient id="id1" x1="1" x2="0" y2="1">
      <stop id="stop3" stop-color="#fff" offset="-1"/>
      <stop id="stop5" offset="2"/>
    </linearGradient>
    <radialGradient id="id2">
      <stop id="stop8" offset=".74603"/>
      <stop id="stop10" stop-color="#fff" offset=".87302"/>
      <stop id="stop12" stop-color="#444" offset="1"/>
    </radialGradient>
    <linearGradient id="id3" x1="1" x2="0" y2="1">
      <stop id="stop15" offset="0"/>
      <stop id="stop17" stop-color="#333" offset="1"/>
    </linearGradient>
    <linearGradient id="id4" x1=".70711" x2="0" y2=".70711">
      <stop id="stop20" stop-color="#666" offset="0"/>
      <stop id="stop22" stop-color="#191919" offset="1"/>
    </linearGradient>
    <radialGradient id="id5">
      <stop id="stop25" offset=".65385"/>
      <stop id="stop27" stop-opacity="0" offset=".88462"/>
    </radialGradient>
    <linearGradient id="id6" x1=".70711" x2="0" y2=".70711">
      <stop id="stop30" stop-color="#666" offset="0"/>
      <stop id="stop32" stop-color="#686868" offset=".04"/>
      <stop id="stop34" stop-color="#212121" offset="1"/>
    </linearGradient>
    <linearGradient id="id7" x1=".70711" x2="0" y2=".70711">
      <stop id="stop37" stop-color="#777" offset="0"/>
      <stop id="stop39" stop-color="#555" offset="1"/>
    </linearGradient>
    <linearGradient id="id8" x1=".70711" x2="0" y2=".70711">
      <stop id="stop42" stop-color="#61d7f8" offset="0"/>
      <stop id="stop44" stop-color="#0998c1" offset="1"/>
    </linearGradient>
    <linearGradient id="id13" x1=".70711" x2="0" y2=".70711">
      <stop id="stop69" stop-color="#92cba8" offset="0"/>
      <stop id="stop71" stop-color="#379a64" offset="1"/>
    </linearGradient>
    <linearGradient id="id14" x1=".70711" x2="0" y2=".70711">
      <stop id="stop74" stop-color="#444" offset="0"/>
      <stop id="stop76" stop-color="#212121" offset="1"/>
    </linearGradient>
    <radialGradient id="id16">
      <stop id="stop84" stop-color="#fff" offset="0"/>
      <stop id="stop86" stop-color="blue" offset="1"/>
    </radialGradient>
    <radialGradient id="id28">
      <stop id="stop150" stop-color="#fff" offset="0"/>
      <stop id="stop152" stop-color="green" offset="1"/>
    </radialGradient>
  </defs>
  <rect id="background" width="50.5" height="128.5" fill="#fff"/>
  <g id="stencil" font-family="Ubuntu" font-size="3">
    <path id="path1294" d="m17.813 6.33q-0.105 0-0.23-5e-3 -0.12-5e-3 -0.245-0.015-0.12-0.01-0.24-0.025t-0.22-0.04v-3.36q0.1-0.025 0.22-0.04t0.24-0.025q0.125-0.01 0.245-0.015t0.225-5e-3q0.3 0 0.56 0.045 0.265 0.045 0.455 0.155 0.195 0.105 0.305 0.28t0.11 0.43q0 0.285-0.135 0.47-0.135 0.18-0.36 0.27 0.305 0.09 0.485 0.285t0.18 0.55q0 0.52-0.385 0.785-0.38 0.26-1.21 0.26zm-0.455-1.645v1.22q0.055 5e-3 0.13 0.01 0.065 5e-3 0.15 0.01 0.09 0 0.205 0 0.215 0 0.405-0.025 0.195-0.03 0.34-0.1t0.23-0.195q0.09-0.125 0.09-0.315 0-0.17-0.065-0.285-0.065-0.12-0.19-0.19-0.12-0.07-0.29-0.1t-0.38-0.03zm0-0.39h0.51q0.18 0 0.34-0.025t0.275-0.09q0.12-0.065 0.185-0.17 0.07-0.105 0.07-0.265 0-0.15-0.07-0.25-0.07-0.105-0.195-0.165-0.12-0.065-0.285-0.095t-0.35-0.03-0.29 5e-3 -0.19 0.015z"/>
    <path id="path1296" d="m20.528 6.3h-0.465v-2.6h0.465zm-0.235-3.07q-0.125 0-0.215-0.08-0.085-0.085-0.085-0.225t0.085-0.22q0.09-0.085 0.215-0.085t0.21 0.085q0.09 0.08 0.09 0.22t-0.09 0.225q-0.085 0.08-0.21 0.08z"/>
    <path id="path1298" d="m23.623 5q0 0.31-0.09 0.56t-0.255 0.43q-0.16 0.18-0.385 0.28-0.225 0.095-0.49 0.095t-0.49-0.095q-0.225-0.1-0.39-0.28-0.16-0.18-0.25-0.43t-0.09-0.56q0-0.305 0.09-0.555 0.09-0.255 0.25-0.435 0.165-0.18 0.39-0.275 0.225-0.1 0.49-0.1t0.49 0.1q0.225 0.095 0.385 0.275 0.165 0.18 0.255 0.435 0.09 0.25 0.09 0.555zm-0.485 0q0-0.44-0.2-0.695-0.195-0.26-0.535-0.26t-0.54 0.26q-0.195 0.255-0.195 0.695t0.195 0.7q0.2 0.255 0.54 0.255t0.535-0.255q0.2-0.26 0.2-0.7z"/>
    <path id="path1300" d="m25.958 4.25q-0.085-0.07-0.245-0.135t-0.35-0.065q-0.2 0-0.345 0.075-0.14 0.07-0.23 0.2-0.09 0.125-0.13 0.3t-0.04 0.375q0 0.455 0.225 0.705 0.225 0.245 0.6 0.245 0.19 0 0.315-0.015 0.13-0.02 0.2-0.04zm0-1.75 0.465-0.08v3.805q-0.16 0.045-0.41 0.09t-0.575 0.045q-0.3 0-0.54-0.095t-0.41-0.27-0.265-0.425q-0.09-0.255-0.09-0.57 0-0.3 0.075-0.55 0.08-0.25 0.23-0.43t0.365-0.28q0.22-0.1 0.5-0.1 0.225 0 0.395 0.06 0.175 0.06 0.26 0.115z"/>
    <path id="path1302" d="m28.102 5.965q0.165 0 0.29-5e-3 0.13-0.01 0.215-0.03v-0.775q-0.05-0.025-0.165-0.04-0.11-0.02-0.27-0.02-0.105 0-0.225 0.015-0.115 0.015-0.215 0.065-0.095 0.045-0.16 0.13-0.065 0.08-0.065 0.215 0 0.25 0.16 0.35 0.16 0.095 0.435 0.095zm-0.04-2.33q0.28 0 0.47 0.075 0.195 0.07 0.31 0.205 0.12 0.13 0.17 0.315 0.05 0.18 0.05 0.4v1.625q-0.06 0.01-0.17 0.03-0.105 0.015-0.24 0.03t-0.295 0.025q-0.155 0.015-0.31 0.015-0.22 0-0.405-0.045t-0.32-0.14q-0.135-0.1-0.21-0.26t-0.075-0.385q0-0.215 0.085-0.37 0.09-0.155 0.24-0.25t0.35-0.14 0.42-0.045q0.07 0 0.145 0.01 0.075 5e-3 0.14 0.02 0.07 0.01 0.12 0.02t0.07 0.015v-0.13q0-0.115-0.025-0.225-0.025-0.115-0.09-0.2-0.065-0.09-0.18-0.14-0.11-0.055-0.29-0.055-0.23 0-0.405 0.035-0.17 0.03-0.255 0.065l-0.055-0.385q0.09-0.04 0.3-0.075 0.21-0.04 0.455-0.04z"/>
    <path id="path1304" d="m30.267 3.7h0.985v0.39h-0.985v1.2q0 0.195 0.03 0.325 0.03 0.125 0.09 0.2 0.06 0.07 0.15 0.1t0.21 0.03q0.21 0 0.335-0.045 0.13-0.05 0.18-0.07l0.09 0.385q-0.07 0.035-0.245 0.085-0.175 0.055-0.4 0.055-0.265 0-0.44-0.065-0.17-0.07-0.275-0.205t-0.15-0.33q-0.04-0.2-0.04-0.46v-2.32l0.465-0.08z"/>
    <path id="path1306" d="m32.722 5.965q0.165 0 0.29-5e-3 0.13-0.01 0.215-0.03v-0.775q-0.05-0.025-0.165-0.04-0.11-0.02-0.27-0.02-0.105 0-0.225 0.015-0.115 0.015-0.215 0.065-0.095 0.045-0.16 0.13-0.065 0.08-0.065 0.215 0 0.25 0.16 0.35 0.16 0.095 0.435 0.095zm-0.04-2.33q0.28 0 0.47 0.075 0.195 0.07 0.31 0.205 0.12 0.13 0.17 0.315 0.05 0.18 0.05 0.4v1.625q-0.06 0.01-0.17 0.03-0.105 0.015-0.24 0.03t-0.295 0.025q-0.155 0.015-0.31 0.015-0.22 0-0.405-0.045t-0.32-0.14q-0.135-0.1-0.21-0.26t-0.075-0.385q0-0.215 0.085-0.37 0.09-0.155 0.24-0.25t0.35-0.14 0.42-0.045q0.07 0 0.145 0.01 0.075 5e-3 0.14 0.02 0.07 0.01 0.12 0.02t0.07 0.015v-0.13q0-0.115-0.025-0.225-0.025-0.115-0.09-0.2-0.065-0.09-0.18-0.14-0.11-0.055-0.29-0.055-0.23 0-0.405 0.035-0.17 0.03-0.255 0.065l-0.055-0.385q0.09-0.04 0.3-0.075 0.21-0.04 0.455-0.04z"/>
    <path id="path229" transform="translate(17.75 119.5) scale(.15)" d="m23.274 0c-12.804 0-23.274 10.47-23.274 23.274 0 12.804 10.47 23.274 23.274 23.274 6.2817 0 11.38-2.5486 15.731-6.2455 1.5387-1.3073 3.0762-2.7877 4.6583-4.3876l-0.0086-5.8693-5.9894 0.0026c-1.4839 1.5057-2.8467 2.8283-4.0804 3.8765-3.5126 2.9845-6.0494 4.2541-10.311 4.2541-8.2813 0-14.905-6.6235-14.905-14.905 0-8.2813 6.6235-14.905 14.905-14.905 4.2612 0 6.7981 1.2697 10.311 4.2541 1.2337 1.0482 2.5965 2.3707 4.0804 3.8765l5.9894 0.0026 0.0086-5.8693c-1.5821-1.5999-3.1196-3.0803-4.6583-4.3876-4.351-3.6969-9.4489-6.2455-15.731-6.2455zm53.451 0c-6.2815 1.0197e-4 -11.379 2.5487-15.73 6.2455-1.6075 1.3659-3.2135 2.9188-4.8712 4.602h12.572c2.4765-1.7176 4.7403-2.4782 8.0292-2.4783h3.82e-4c6.2002 0 11.47 3.7129 13.728 9.0545l-6.0416-0.07531-8.5851-3.0797-28.741 3.81e-4v5.6456h-22.686v6.7186h22.686v5.6456l28.741 3.82e-4 8.5851-3.0797 6.0416-0.07531c-2.2576 5.3415-7.5279 9.0545-13.728 9.0545h-3.82e-4c-3.2889-5.9e-5 -5.5527-0.76071-8.0292-2.4783h-12.572c1.6577 1.6832 3.2637 3.2361 4.8712 4.602 4.3509 3.6968 9.4487 6.2454 15.73 6.2455h3.82e-4c12.804 0 23.274-10.47 23.274-23.274-8e-6 -12.804-10.47-23.274-23.274-23.274zm-59.712 19.295-2.8907 3.9786 2.8907 3.9786 4.6773-1.5197v-4.9178z"/>
    <g id="g232" transform="translate(10.01,22.62)">
      <path id="path1309" d="m-3.288 5.9q0.438 0 0.672 0.168 0.237 0.165 0.237 0.495 0 0.18-0.066 0.309-0.063 0.126-0.186 0.207-0.12 0.078-0.294 0.114t-0.393 0.036h-0.231v0.771h-0.291v-2.049q0.123-0.03 0.273-0.039 0.153-0.012 0.279-0.012zm0.024 0.255q-0.186 0-0.285 9e-3v0.816h0.219q0.15 0 0.27-0.018 0.12-0.021 0.201-0.066 0.084-0.048 0.129-0.129t0.045-0.207q0-0.12-0.048-0.198-0.045-0.078-0.126-0.123-0.078-0.048-0.183-0.066t-0.222-0.018z"/>
      <path id="path1311" d="m-1.458 6.407q0.036 0 0.081 6e-3 0.048 3e-3 0.093 0.012 0.045 6e-3 0.081 0.015 0.039 6e-3 0.057 0.012l-0.048 0.243q-0.033-0.012-0.111-0.027-0.075-0.018-0.195-0.018-0.078 0-0.156 0.018-0.075 0.015-0.099 0.021v1.311h-0.279v-1.494q0.099-0.036 0.246-0.066 0.147-0.033 0.33-0.033z"/>
      <path id="path1313" d="m0.50101 7.22q0 0.186-0.054 0.336t-0.153 0.258q-0.096 0.108-0.231 0.168-0.135 0.057-0.294 0.057t-0.294-0.057q-0.135-0.06-0.234-0.168-0.096-0.108-0.15-0.258t-0.054-0.336q0-0.183 0.054-0.333 0.054-0.153 0.15-0.261 0.099-0.108 0.234-0.165 0.135-0.06 0.294-0.06t0.294 0.06q0.135 0.057 0.231 0.165 0.099 0.108 0.153 0.261 0.054 0.15 0.054 0.333zm-0.291 0q0-0.264-0.12-0.417-0.117-0.156-0.321-0.156t-0.324 0.156q-0.117 0.153-0.117 0.417t0.117 0.42q0.12 0.153 0.324 0.153t0.321-0.153q0.12-0.156 0.12-0.42z"/>
      <path id="path1315" d="m1.173 6.509q0.051-0.033 0.153-0.069 0.105-0.036 0.24-0.036 0.168 0 0.297 0.06 0.132 0.06 0.222 0.168t0.135 0.258q0.048 0.15 0.048 0.33 0 0.189-0.057 0.342-0.054 0.15-0.156 0.255t-0.246 0.162-0.324 0.057q-0.195 0-0.345-0.027-0.15-0.027-0.246-0.054v-2.235l0.279-0.048zm0 1.248q0.042 0.012 0.117 0.024 0.078 9e-3 0.192 9e-3 0.225 0 0.36-0.147 0.135-0.15 0.135-0.423 0-0.12-0.024-0.225t-0.078-0.18q-0.054-0.078-0.141-0.12-0.084-0.045-0.204-0.045-0.114 0-0.21 0.039t-0.147 0.081z"/>
      <path id="path1317" d="m2.574 7.223q0-0.207 0.06-0.36 0.06-0.156 0.159-0.258t0.228-0.153 0.264-0.051q0.315 0 0.483 0.198 0.168 0.195 0.168 0.597 0 0.018 0 0.048 0 0.027-3e-3 0.051h-1.068q0.018 0.243 0.141 0.369t0.384 0.126q0.147 0 0.246-0.024 0.102-0.027 0.153-0.051l0.039 0.234q-0.051 0.027-0.18 0.057-0.126 0.03-0.288 0.03-0.204 0-0.354-0.06-0.147-0.063-0.243-0.171t-0.144-0.255q-0.045-0.15-0.045-0.327zm1.071-0.153q3e-3 -0.189-0.096-0.309-0.096-0.123-0.267-0.123-0.096 0-0.171 0.039-0.072 0.036-0.123 0.096t-0.081 0.138q-0.027 0.078-0.036 0.159z"/>
    </g>
    <g id="g236" transform="translate(35.41,30.24)">
      <path id="path1320" d="m-3.7285 3.673q0.456 0 0.456-0.312 0-0.096-0.042-0.162-0.039-0.069-0.108-0.117-0.069-0.051-0.159-0.087-0.087-0.036-0.186-0.072-0.114-0.039-0.216-0.087-0.102-0.051-0.177-0.117-0.075-0.069-0.12-0.162-0.042-0.093-0.042-0.225 0-0.273 0.186-0.426t0.513-0.153q0.189 0 0.342 0.042 0.156 0.039 0.228 0.087l-0.093 0.237q-0.063-0.039-0.189-0.075-0.123-0.039-0.288-0.039-0.084 0-0.156 0.018t-0.126 0.054-0.087 0.093q-0.03 0.054-0.03 0.129 0 0.084 0.033 0.141t0.093 0.102q0.06 0.042 0.138 0.078 0.081 0.036 0.177 0.072 0.135 0.054 0.246 0.108 0.114 0.054 0.195 0.129 0.084 0.075 0.129 0.18 0.045 0.102 0.045 0.249 0 0.273-0.201 0.42-0.198 0.147-0.561 0.147-0.123 0-0.228-0.018-0.102-0.015-0.183-0.036-0.081-0.024-0.141-0.048-0.057-0.027-0.09-0.045l0.087-0.24q0.069 0.039 0.21 0.087t0.345 0.048z"/>
      <path id="path1322" d="m-2.7205 3.103q0-0.207 0.06-0.36 0.06-0.156 0.159-0.258t0.228-0.153 0.264-0.051q0.315 0 0.483 0.198 0.168 0.195 0.168 0.597 0 0.018 0 0.048 0 0.027-3e-3 0.051h-1.068q0.018 0.243 0.141 0.369t0.384 0.126q0.147 0 0.246-0.024 0.102-0.027 0.153-0.051l0.039 0.234q-0.051 0.027-0.18 0.057-0.126 0.03-0.288 0.03-0.204 0-0.354-0.06-0.147-0.063-0.243-0.171t-0.144-0.255q-0.045-0.15-0.045-0.327zm1.071-0.153q3e-3 -0.189-0.096-0.309-0.096-0.123-0.267-0.123-0.096 0-0.171 0.039-0.072 0.036-0.123 0.096t-0.081 0.138q-0.027 0.078-0.036 0.159z"/>
      <path id="path1324" d="m-0.95649 2.365q0.096-0.024 0.255-0.051t0.366-0.027q0.186 0 0.309 0.054 0.123 0.051 0.195 0.147 0.075 0.093 0.105 0.225t0.03 0.291v0.876h-0.279v-0.816q0-0.144-0.021-0.246-0.018-0.102-0.063-0.165t-0.12-0.09q-0.075-0.03-0.186-0.03-0.045 0-0.093 3e-3t-0.093 9e-3q-0.042 3e-3 -0.078 9e-3 -0.033 6e-3 -0.048 9e-3v1.317h-0.279z"/>
      <path id="path1326" d="m1.1285 3.679q0.171 0 0.252-0.045 0.084-0.045 0.084-0.144 0-0.102-0.081-0.162t-0.267-0.135q-0.09-0.036-0.174-0.072-0.081-0.039-0.141-0.09t-0.096-0.123-0.036-0.177q0-0.207 0.153-0.327 0.153-0.123 0.417-0.123 0.066 0 0.132 9e-3 0.066 6e-3 0.123 0.018 0.057 9e-3 0.099 0.021 0.045 0.012 0.069 0.021l-0.051 0.24q-0.045-0.024-0.141-0.048-0.096-0.027-0.231-0.027-0.117 0-0.204 0.048-0.087 0.045-0.087 0.144 0 0.051 0.018 0.09 0.021 0.039 0.06 0.072 0.042 0.03 0.102 0.057t0.144 0.057q0.111 0.042 0.198 0.084 0.087 0.039 0.147 0.093 0.063 0.054 0.096 0.132 0.033 0.075 0.033 0.186 0 0.216-0.162 0.327-0.159 0.111-0.456 0.111-0.207 0-0.324-0.036-0.117-0.033-0.159-0.051l0.051-0.24q0.048 0.018 0.153 0.054t0.279 0.036z"/>
      <path id="path1328" d="m2.3825 3.88h-0.279v-1.56h0.279zm-0.141-1.842q-0.075 0-0.129-0.048-0.051-0.051-0.051-0.135t0.051-0.132q0.054-0.051 0.129-0.051t0.126 0.051q0.054 0.048 0.054 0.132t-0.054 0.135q-0.051 0.048-0.126 0.048z"/>
      <path id="path1330" d="m3.1235 2.32h0.591v0.234h-0.591v0.72q0 0.117 0.018 0.195 0.018 0.075 0.054 0.12 0.036 0.042 0.09 0.06t0.126 0.018q0.126 0 0.201-0.027 0.078-0.03 0.108-0.042l0.054 0.231q-0.042 0.021-0.147 0.051-0.105 0.033-0.24 0.033-0.159 0-0.264-0.039-0.102-0.042-0.165-0.123t-0.09-0.198q-0.024-0.12-0.024-0.276v-1.392l0.279-0.048z"/>
      <path id="path1332" d="m4.3475 3.88h-0.279v-1.56h0.279zm-0.141-1.842q-0.075 0-0.129-0.048-0.051-0.051-0.051-0.135t0.051-0.132q0.054-0.051 0.129-0.051t0.126 0.051q0.054 0.048 0.054 0.132t-0.054 0.135q-0.051 0.048-0.126 0.048z"/>
      <path id="path1334" d="m6.0455 2.32q-0.117 0.438-0.276 0.84-0.156 0.402-0.303 0.72h-0.252q-0.147-0.318-0.306-0.72-0.156-0.402-0.273-0.84h0.3q0.036 0.147 0.084 0.315 0.051 0.165 0.105 0.33 0.057 0.162 0.114 0.315t0.108 0.273q0.051-0.12 0.108-0.273t0.111-0.315q0.057-0.165 0.105-0.33 0.051-0.168 0.087-0.315z"/>
      <path id="path1336" d="m6.6125 3.88h-0.279v-1.56h0.279zm-0.141-1.842q-0.075 0-0.129-0.048-0.051-0.051-0.051-0.135t0.051-0.132q0.054-0.051 0.129-0.051t0.126 0.051q0.054 0.048 0.054 0.132t-0.054 0.135q-0.051 0.048-0.126 0.048z"/>
      <path id="path1338" d="m7.3535 2.32h0.591v0.234h-0.591v0.72q0 0.117 0.018 0.195 0.018 0.075 0.054 0.12 0.036 0.042 0.09 0.06t0.126 0.018q0.126 0 0.201-0.027 0.078-0.03 0.108-0.042l0.054 0.231q-0.042 0.021-0.147 0.051-0.105 0.033-0.24 0.033-0.159 0-0.264-0.039-0.102-0.042-0.165-0.123t-0.09-0.198q-0.024-0.12-0.024-0.276v-1.392l0.279-0.048z"/>
      <path id="path1340" d="m8.1155 4.171q0.033 0.015 0.084 0.027 0.054 0.015 0.105 0.015 0.165 0 0.258-0.075 0.093-0.072 0.168-0.237-0.189-0.36-0.354-0.762-0.162-0.405-0.27-0.819h0.3q0.033 0.135 0.078 0.291 0.048 0.156 0.105 0.321t0.123 0.33 0.138 0.318q0.114-0.315 0.198-0.624t0.159-0.636h0.288q-0.108 0.441-0.24 0.849-0.132 0.405-0.285 0.759-0.06 0.135-0.126 0.231-0.063 0.099-0.141 0.162t-0.177 0.093q-0.096 0.03-0.219 0.03-0.033 0-0.069-6e-3 -0.036-3e-3 -0.072-0.012-0.033-6e-3 -0.063-0.015-0.027-9e-3 -0.039-0.015z"/>
    </g>
    <g id="g240" transform="translate(10.01,48.02)">
      <path id="path1343" d="m-0.66099 2.839q0 0.27-0.084 0.471-0.084 0.198-0.237 0.33-0.153 0.129-0.366 0.195-0.213 0.063-0.468 0.063-0.126 0-0.279-0.012-0.15-9e-3 -0.273-0.039v-2.016q0.123-0.03 0.273-0.039 0.153-0.012 0.279-0.012 0.255 0 0.468 0.066 0.213 0.063 0.366 0.195 0.153 0.129 0.237 0.33 0.084 0.198 0.084 0.468zm-1.131 0.804q0.414 0 0.618-0.21 0.204-0.213 0.204-0.594t-0.204-0.591q-0.204-0.213-0.618-0.213-0.123 0-0.192 3e-3 -0.066 3e-3 -0.093 6e-3v1.59q0.027 3e-3 0.093 6e-3 0.069 3e-3 0.192 3e-3z"/>
      <path id="path1345" d="m-0.33399 3.103q0-0.207 0.06-0.36 0.06-0.156 0.159-0.258t0.228-0.153 0.264-0.051q0.315 0 0.483 0.198 0.168 0.195 0.168 0.597 0 0.018 0 0.048 0 0.027-3e-3 0.051h-1.068q0.018 0.243 0.141 0.369t0.384 0.126q0.147 0 0.246-0.024 0.102-0.027 0.153-0.051l0.039 0.234q-0.051 0.027-0.18 0.057-0.126 0.03-0.288 0.03-0.204 0-0.354-0.06-0.147-0.063-0.243-0.171t-0.144-0.255q-0.045-0.15-0.045-0.327zm1.071-0.153q3e-3 -0.189-0.096-0.309-0.096-0.123-0.267-0.123-0.096 0-0.171 0.039-0.072 0.036-0.123 0.096t-0.081 0.138q-0.027 0.078-0.036 0.159z"/>
      <path id="path1347" d="m1.43 2.365q0.096-0.024 0.255-0.051t0.366-0.027q0.186 0 0.309 0.054 0.123 0.051 0.195 0.147 0.075 0.093 0.105 0.225t0.03 0.291v0.876h-0.279v-0.816q0-0.144-0.021-0.246-0.018-0.102-0.063-0.165t-0.12-0.09q-0.075-0.03-0.186-0.03-0.045 0-0.093 3e-3t-0.093 9e-3q-0.042 3e-3 -0.078 9e-3 -0.033 6e-3 -0.048 9e-3v1.317h-0.279z"/>
      <path id="path1349" d="m3.515 3.679q0.171 0 0.252-0.045 0.084-0.045 0.084-0.144 0-0.102-0.081-0.162t-0.267-0.135q-0.09-0.036-0.174-0.072-0.081-0.039-0.141-0.09t-0.096-0.123-0.036-0.177q0-0.207 0.153-0.327 0.153-0.123 0.417-0.123 0.066 0 0.132 9e-3 0.066 6e-3 0.123 0.018 0.057 9e-3 0.099 0.021 0.045 0.012 0.069 0.021l-0.051 0.24q-0.045-0.024-0.141-0.048-0.096-0.027-0.231-0.027-0.117 0-0.204 0.048-0.087 0.045-0.087 0.144 0 0.051 0.018 0.09 0.021 0.039 0.06 0.072 0.042 0.03 0.102 0.057t0.144 0.057q0.111 0.042 0.198 0.084 0.087 0.039 0.147 0.093 0.063 0.054 0.096 0.132 0.033 0.075 0.033 0.186 0 0.216-0.162 0.327-0.159 0.111-0.456 0.111-0.207 0-0.324-0.036-0.117-0.033-0.159-0.051l0.051-0.24q0.048 0.018 0.153 0.054t0.279 0.036z"/>
      <path id="path1351" d="m4.769 3.88h-0.279v-1.56h0.279zm-0.141-1.842q-0.075 0-0.129-0.048-0.051-0.051-0.051-0.135t0.051-0.132q0.054-0.051 0.129-0.051t0.126 0.051q0.054 0.048 0.054 0.132t-0.054 0.135q-0.051 0.048-0.126 0.048z"/>
      <path id="path1353" d="m5.51 2.32h0.591v0.234h-0.591v0.72q0 0.117 0.018 0.195 0.018 0.075 0.054 0.12 0.036 0.042 0.09 0.06t0.126 0.018q0.126 0 0.201-0.027 0.078-0.03 0.108-0.042l0.054 0.231q-0.042 0.021-0.147 0.051-0.105 0.033-0.24 0.033-0.159 0-0.264-0.039-0.102-0.042-0.165-0.123t-0.09-0.198q-0.024-0.12-0.024-0.276v-1.392l0.279-0.048z"/>
      <path id="path1355" d="m6.272 4.171q0.033 0.015 0.084 0.027 0.054 0.015 0.105 0.015 0.165 0 0.258-0.075 0.093-0.072 0.168-0.237-0.189-0.36-0.354-0.762-0.162-0.405-0.27-0.819h0.3q0.033 0.135 0.078 0.291 0.048 0.156 0.105 0.321t0.123 0.33 0.138 0.318q0.114-0.315 0.198-0.624t0.159-0.636h0.288q-0.108 0.441-0.24 0.849-0.132 0.405-0.285 0.759-0.06 0.135-0.126 0.231-0.063 0.099-0.141 0.162t-0.177 0.093q-0.096 0.03-0.219 0.03-0.033 0-0.069-6e-3 -0.036-3e-3 -0.072-0.012-0.033-6e-3 -0.063-0.015-0.027-9e-3 -0.039-0.015z"/>
    </g>
    <g id="g244" transform="translate(15.09,65.8)">
      <path id="path1358" d="m0.069507 0.273q0.456 0 0.456-0.312 0-0.096-0.042-0.162-0.039-0.069-0.108-0.117-0.069-0.051-0.159-0.087-0.087-0.036-0.186-0.072-0.114-0.039-0.216-0.087-0.102-0.051-0.177-0.117-0.075-0.069-0.12-0.162-0.042-0.093-0.042-0.225 0-0.273 0.186-0.426t0.513-0.153q0.189 0 0.342 0.042 0.156 0.039 0.228 0.087l-0.093 0.237q-0.063-0.039-0.189-0.075-0.123-0.039-0.288-0.039-0.084 0-0.156 0.018t-0.126 0.054-0.087 0.093q-0.03 0.054-0.03 0.129 0 0.084 0.033 0.141 0.033 0.057 0.093 0.102 0.06 0.042 0.138 0.078 0.081 0.036 0.177 0.072 0.135 0.054 0.246 0.108 0.114 0.054 0.195 0.129 0.084 0.075 0.129 0.18 0.045 0.102 0.045 0.249 0 0.273-0.201 0.42-0.198 0.147-0.561 0.147-0.123 0-0.228-0.018-0.102-0.015-0.183-0.036-0.081-0.024-0.141-0.048-0.057-0.027-0.09-0.045l0.087-0.24q0.069 0.039 0.21 0.087t0.345 0.048z"/>
      <path id="path1360" d="m1.6325 0.51q-0.258-6e-3 -0.366-0.111t-0.108-0.327v-1.872l0.279-0.048v1.875q0 0.069 0.012 0.114t0.039 0.072 0.072 0.042q0.045 0.012 0.111 0.021z"/>
      <path id="path1362" d="m1.8965-0.297q0-0.207 0.06-0.36 0.06-0.156 0.159-0.258 0.099-0.102 0.228-0.153t0.264-0.051q0.315 0 0.483 0.198 0.168 0.195 0.168 0.597 0 0.018 0 0.048 0 0.027-3e-3 0.051h-1.068q0.018 0.243 0.141 0.369t0.384 0.126q0.147 0 0.246-0.024 0.102-0.027 0.153-0.051l0.039 0.234q-0.051 0.027-0.18 0.057-0.126 0.03-0.288 0.03-0.204 0-0.354-0.06-0.147-0.063-0.243-0.171t-0.144-0.255q-0.045-0.15-0.045-0.327zm1.071-0.153q3e-3 -0.189-0.096-0.309-0.096-0.123-0.267-0.123-0.096 0-0.171 0.039-0.072 0.036-0.123 0.096t-0.081 0.138q-0.027 0.078-0.036 0.159z"/>
      <path id="path1364" d="m4.9355 0.48q-0.084-0.216-0.18-0.492-0.093-0.279-0.171-0.579-0.078 0.3-0.171 0.579-0.093 0.276-0.177 0.492h-0.243q-0.138-0.309-0.27-0.705t-0.249-0.855h0.3q0.03 0.141 0.072 0.306t0.087 0.33q0.048 0.165 0.099 0.318t0.096 0.267q0.051-0.141 0.099-0.297 0.051-0.159 0.096-0.318 0.045-0.162 0.084-0.315 0.042-0.156 0.072-0.291h0.231q0.027 0.135 0.066 0.291 0.039 0.153 0.084 0.315 0.045 0.159 0.093 0.318 0.051 0.156 0.102 0.297 0.045-0.114 0.093-0.267 0.051-0.153 0.099-0.318t0.09-0.33 0.072-0.306h0.288q-0.117 0.459-0.249 0.855t-0.27 0.705z"/>
    </g>
    <g id="g248" transform="translate(8.74,83.58)">
      <path id="path1367" d="m-1.4845 0.273q0.456 0 0.456-0.312 0-0.096-0.042-0.162-0.039-0.069-0.108-0.117-0.069-0.051-0.159-0.087-0.087-0.036-0.186-0.072-0.114-0.039-0.216-0.087-0.102-0.051-0.177-0.117-0.075-0.069-0.12-0.162-0.042-0.093-0.042-0.225 0-0.273 0.186-0.426t0.513-0.153q0.189 0 0.342 0.042 0.156 0.039 0.228 0.087l-0.093 0.237q-0.063-0.039-0.189-0.075-0.123-0.039-0.288-0.039-0.084 0-0.156 0.018t-0.126 0.054-0.087 0.093q-0.03 0.054-0.03 0.129 0 0.084 0.033 0.141 0.033 0.057 0.093 0.102 0.06 0.042 0.138 0.078 0.081 0.036 0.177 0.072 0.135 0.054 0.246 0.108 0.114 0.054 0.195 0.129 0.084 0.075 0.129 0.18 0.045 0.102 0.045 0.249 0 0.273-0.201 0.42-0.198 0.147-0.561 0.147-0.123 0-0.228-0.018-0.102-0.015-0.183-0.036-0.081-0.024-0.141-0.048-0.057-0.027-0.09-0.045l0.087-0.24q0.069 0.039 0.21 0.087t0.345 0.048z"/>
      <path id="path1369" d="m0.69351-0.297q0-0.273-0.135-0.42t-0.36-0.147q-0.126 0-0.198 9e-3 -0.069 9e-3 -0.111 0.021v0.984q0.051 0.042 0.147 0.081t0.21 0.039q0.12 0 0.204-0.042 0.087-0.045 0.141-0.12 0.054-0.078 0.078-0.18 0.024-0.105 0.024-0.225zm0.291 0q0 0.177-0.048 0.327-0.045 0.15-0.135 0.258t-0.222 0.168q-0.129 0.06-0.297 0.06-0.135 0-0.24-0.036-0.102-0.036-0.153-0.069v0.624h-0.279v-2.067q0.099-0.024 0.246-0.051 0.15-0.03 0.345-0.03 0.18 0 0.324 0.057t0.246 0.162q0.102 0.105 0.156 0.258 0.057 0.15 0.057 0.339z"/>
      <path id="path1371" d="m1.9535-1.113q0.036 0 0.081 6e-3 0.048 3e-3 0.093 0.012 0.045 6e-3 0.081 0.015 0.039 6e-3 0.057 0.012l-0.048 0.243q-0.033-0.012-0.111-0.027-0.075-0.018-0.195-0.018-0.078 0-0.156 0.018-0.075 0.015-0.099 0.021v1.311h-0.279v-1.494q0.099-0.036 0.246-0.066 0.147-0.033 0.33-0.033z"/>
      <path id="path1373" d="m2.4485-0.297q0-0.207 0.06-0.36 0.06-0.156 0.159-0.258 0.099-0.102 0.228-0.153t0.264-0.051q0.315 0 0.483 0.198 0.168 0.195 0.168 0.597 0 0.018 0 0.048 0 0.027-3e-3 0.051h-1.068q0.018 0.243 0.141 0.369t0.384 0.126q0.147 0 0.246-0.024 0.102-0.027 0.153-0.051l0.039 0.234q-0.051 0.027-0.18 0.057-0.126 0.03-0.288 0.03-0.204 0-0.354-0.06-0.147-0.063-0.243-0.171t-0.144-0.255q-0.045-0.15-0.045-0.327zm1.071-0.153q3e-3 -0.189-0.096-0.309-0.096-0.123-0.267-0.123-0.096 0-0.171 0.039-0.072 0.036-0.123 0.096t-0.081 0.138q-0.027 0.078-0.036 0.159z"/>
      <path id="path1375" d="m4.7405 0.279q0.099 0 0.174-3e-3 0.078-6e-3 0.129-0.018v-0.465q-0.03-0.015-0.099-0.024-0.066-0.012-0.162-0.012-0.063 0-0.135 9e-3 -0.069 9e-3 -0.129 0.039-0.057 0.027-0.096 0.078-0.039 0.048-0.039 0.129 0 0.15 0.096 0.21 0.096 0.057 0.261 0.057zm-0.024-1.398q0.168 0 0.282 0.045 0.117 0.042 0.186 0.123 0.072 0.078 0.102 0.189 0.03 0.108 0.03 0.24v0.975q-0.036 6e-3 -0.102 0.018-0.063 9e-3 -0.144 0.018t-0.177 0.015q-0.093 9e-3 -0.186 9e-3 -0.132 0-0.243-0.027t-0.192-0.084q-0.081-0.06-0.126-0.156t-0.045-0.231q0-0.129 0.051-0.222 0.054-0.093 0.144-0.15t0.21-0.084 0.252-0.027q0.042 0 0.087 6e-3 0.045 3e-3 0.084 0.012 0.042 6e-3 0.072 0.012t0.042 9e-3v-0.078q0-0.069-0.015-0.135-0.015-0.069-0.054-0.12-0.039-0.054-0.108-0.084-0.066-0.033-0.174-0.033-0.138 0-0.243 0.021-0.102 0.018-0.153 0.039l-0.033-0.231q0.054-0.024 0.18-0.045 0.126-0.024 0.273-0.024z"/>
      <path id="path1377" d="m6.7865-0.75q-0.051-0.042-0.147-0.081t-0.21-0.039q-0.12 0-0.207 0.045-0.084 0.042-0.138 0.12-0.054 0.075-0.078 0.18t-0.024 0.225q0 0.273 0.135 0.423 0.135 0.147 0.36 0.147 0.114 0 0.189-9e-3 0.078-0.012 0.12-0.024zm0-1.05 0.279-0.048v2.283q-0.096 0.027-0.246 0.054t-0.345 0.027q-0.18 0-0.324-0.057t-0.246-0.162-0.159-0.255q-0.054-0.153-0.054-0.342 0-0.18 0.045-0.33 0.048-0.15 0.138-0.258t0.219-0.168q0.132-0.06 0.3-0.06 0.135 0 0.237 0.036 0.105 0.036 0.156 0.069z"/>
    </g>
    <g id="g253" transform="translate(18.9,93.74)">
      <path id="path1380" d="m-4.263 7.793q0.456 0 0.456-0.312 0-0.096-0.042-0.162-0.039-0.069-0.108-0.117-0.069-0.051-0.159-0.087-0.087-0.036-0.186-0.072-0.114-0.039-0.216-0.087-0.102-0.051-0.177-0.117-0.075-0.069-0.12-0.162-0.042-0.093-0.042-0.225 0-0.273 0.186-0.426t0.513-0.153q0.189 0 0.342 0.042 0.156 0.039 0.228 0.087l-0.093 0.237q-0.063-0.039-0.189-0.075-0.123-0.039-0.288-0.039-0.084 0-0.156 0.018t-0.126 0.054-0.087 0.093q-0.03 0.054-0.03 0.129 0 0.084 0.033 0.141t0.093 0.102q0.06 0.042 0.138 0.078 0.081 0.036 0.177 0.072 0.135 0.054 0.246 0.108 0.114 0.054 0.195 0.129 0.084 0.075 0.129 0.18 0.045 0.102 0.045 0.249 0 0.273-0.201 0.42-0.198 0.147-0.561 0.147-0.123 0-0.228-0.018-0.102-0.015-0.183-0.036-0.081-0.024-0.141-0.048-0.057-0.027-0.09-0.045l0.087-0.24q0.069 0.039 0.21 0.087t0.345 0.048z"/>
      <path id="path1382" d="m-2.64 7.799q0.099 0 0.174-3e-3 0.078-6e-3 0.129-0.018v-0.465q-0.03-0.015-0.099-0.024-0.066-0.012-0.162-0.012-0.063 0-0.135 9e-3 -0.069 9e-3 -0.129 0.039-0.057 0.027-0.096 0.078-0.039 0.048-0.039 0.129 0 0.15 0.096 0.21 0.096 0.057 0.261 0.057zm-0.024-1.398q0.168 0 0.282 0.045 0.117 0.042 0.186 0.123 0.072 0.078 0.102 0.189 0.03 0.108 0.03 0.24v0.975q-0.036 6e-3 -0.102 0.018-0.063 9e-3 -0.144 0.018t-0.177 0.015q-0.093 9e-3 -0.186 9e-3 -0.132 0-0.243-0.027t-0.192-0.084q-0.081-0.06-0.126-0.156t-0.045-0.231q0-0.129 0.051-0.222 0.054-0.093 0.144-0.15t0.21-0.084 0.252-0.027q0.042 0 0.087 6e-3 0.045 3e-3 0.084 0.012 0.042 6e-3 0.072 0.012t0.042 9e-3v-0.078q0-0.069-0.015-0.135-0.015-0.069-0.054-0.12-0.039-0.054-0.108-0.084-0.066-0.033-0.174-0.033-0.138 0-0.243 0.021-0.102 0.018-0.153 0.039l-0.033-0.231q0.054-0.024 0.18-0.045 0.126-0.024 0.273-0.024z"/>
      <path id="path1384" d="m-1.602 6.485q0.096-0.024 0.252-0.051 0.159-0.027 0.366-0.027 0.15 0 0.252 0.042 0.102 0.039 0.171 0.117 0.021-0.015 0.066-0.042t0.111-0.051q0.066-0.027 0.147-0.045 0.081-0.021 0.174-0.021 0.18 0 0.294 0.054 0.114 0.051 0.177 0.147 0.066 0.096 0.087 0.228 0.024 0.132 0.024 0.288v0.876h-0.279v-0.816q0-0.138-0.015-0.237-0.012-0.099-0.051-0.165-0.036-0.066-0.102-0.096-0.063-0.033-0.165-0.033-0.141 0-0.234 0.039-0.09 0.036-0.123 0.066 0.024 0.078 0.036 0.171t0.012 0.195v0.876h-0.279v-0.816q0-0.138-0.015-0.237t-0.054-0.165q-0.036-0.066-0.102-0.096-0.063-0.033-0.162-0.033-0.042 0-0.09 3e-3t-0.093 9e-3q-0.042 3e-3 -0.078 9e-3t-0.048 9e-3v1.317h-0.279z"/>
      <path id="path1386" d="m2.064 7.223q0-0.273-0.135-0.42t-0.36-0.147q-0.126 0-0.198 9e-3 -0.069 9e-3 -0.111 0.021v0.984q0.051 0.042 0.147 0.081t0.21 0.039q0.12 0 0.204-0.042 0.087-0.045 0.141-0.12 0.054-0.078 0.078-0.18 0.024-0.105 0.024-0.225zm0.291 0q0 0.177-0.048 0.327-0.045 0.15-0.135 0.258t-0.222 0.168q-0.129 0.06-0.297 0.06-0.135 0-0.24-0.036-0.102-0.036-0.153-0.069v0.624h-0.279v-2.067q0.099-0.024 0.246-0.051 0.15-0.03 0.345-0.03 0.18 0 0.324 0.057t0.246 0.162 0.156 0.258q0.057 0.15 0.057 0.339z"/>
      <path id="path1388" d="m3.216 8.03q-0.258-6e-3 -0.366-0.111t-0.108-0.327v-1.872l0.279-0.048v1.875q0 0.069 0.012 0.114t0.039 0.072 0.072 0.042q0.045 0.012 0.111 0.021z"/>
      <path id="path1390" d="m3.48 7.223q0-0.207 0.06-0.36 0.06-0.156 0.159-0.258t0.228-0.153 0.264-0.051q0.315 0 0.483 0.198 0.168 0.195 0.168 0.597 0 0.018 0 0.048 0 0.027-3e-3 0.051h-1.068q0.018 0.243 0.141 0.369t0.384 0.126q0.147 0 0.246-0.024 0.102-0.027 0.153-0.051l0.039 0.234q-0.051 0.027-0.18 0.057-0.126 0.03-0.288 0.03-0.204 0-0.354-0.06-0.147-0.063-0.243-0.171t-0.144-0.255q-0.045-0.15-0.045-0.327zm1.071-0.153q3e-3 -0.189-0.096-0.309-0.096-0.123-0.267-0.123-0.096 0-0.171 0.039-0.072 0.036-0.123 0.096t-0.081 0.138q-0.027 0.078-0.036 0.159z"/>
    </g>
    <g id="g257" transform="translate(18.9,108.98)">
      <path id="path_jqkmufjdwk" transform="matrix(.26458 0 0 .26458 -18.9 -108.98)" d="m59.527 394.32a5.6693 5.6693 0 0 0-5.6699 5.6699v45.354a5.6693 5.6693 0 0 0 5.6699 5.6699h23.811a5.6693 5.6693 0 0 0 5.6699-5.6699v-45.354a5.6693 5.6693 0 0 0-5.6699-5.6699zm11.906 4.3457a13.229 13.229 0 0 1 0 26.457 13.229 13.229 0 0 1 0-26.457zm-2.9199 35.426c0.32504 0 0.61604 0.023 0.87305 0.0684 0.26457 0.0454 0.49071 0.0977 0.67969 0.15821 0.19654 0.0605 0.35562 0.12116 0.47656 0.18164 0.12094 0.0605 0.20464 0.10648 0.25 0.13672l-0.31836 0.90625c-0.06803-0.0454-0.16642-0.0936-0.29492-0.14649-0.1285-0.0529-0.27511-0.10724-0.44141-0.16015-0.15874-0.0529-0.33667-0.0928-0.5332-0.12305-0.18898-0.0378-0.38159-0.0566-0.57812-0.0566-0.41575 0-0.79045 0.0712-1.123 0.21484-0.3326 0.14362-0.61528 0.35092-0.84961 0.62305-0.23433 0.27212-0.41642 0.60497-0.54492 0.99804-0.12094 0.38552-0.18164 0.82091-0.18164 1.3047 0 0.46866 0.05433 0.89574 0.16016 1.2812 0.11338 0.38551 0.27883 0.71836 0.49805 0.99805 0.21921 0.27213 0.49137 0.48358 0.81641 0.63477 0.3326 0.15118 0.71782 0.22656 1.1562 0.22656 0.50646 0 0.92521-0.0543 1.2578-0.16016 0.3326-0.10583 0.5837-0.20005 0.75-0.2832l0.2832 0.9082c-0.05291 0.0378-0.14714 0.086-0.2832 0.14649-0.13606 0.0529-0.30762 0.10724-0.51172 0.16015-0.2041 0.0529-0.44076 0.097-0.71289 0.13477-0.27213 0.0378-0.56728 0.0566-0.88477 0.0566-0.55181 0-1.0543-0.0901-1.5078-0.27149-0.45354-0.18141-0.84293-0.4472-1.168-0.79492-0.32504-0.34771-0.57835-0.77479-0.75977-1.2812-0.17386-0.51401-0.26172-1.0982-0.26172-1.7559s0.09839-1.2396 0.29492-1.7461c0.20409-0.51402 0.47625-0.94525 0.81641-1.293 0.34016-0.34772 0.73786-0.6135 1.1914-0.79492s0.93716-0.27149 1.4512-0.27149zm2.9258 0.18164h1.2129c0.40819 1.1943 0.8081 2.3436 1.2012 3.4473 0.39307 1.1036 0.79714 2.1399 1.2129 3.1074 0.41575-0.96 0.82177-1.9921 1.2148-3.0957 0.39307-1.1112 0.78882-2.2646 1.1895-3.459h1.1797c-0.28724 0.8315-0.56356 1.602-0.82812 2.3125-0.25701 0.703-0.51032 1.3729-0.75977 2.0078s-0.4986 1.2441-0.74805 1.8262c-0.24189 0.57449-0.49104 1.144-0.74805 1.7109h-1.0332c-0.25701-0.56693-0.50836-1.1364-0.75781-1.7109-0.24189-0.58205-0.49299-1.1912-0.75-1.8262-0.24945-0.63496-0.50496-1.3048-0.76953-2.0078-0.26457-0.71055-0.53672-1.481-0.81641-2.3125z" style=""/>
    </g>
    <g id="g261" transform="translate(6.2,108.98)">
      <path id="path_qdjlasxvpd" transform="matrix(.26458 0 0 .26458 -6.2 -108.98)" d="m11.527 394.32a5.6693 5.6693 0 0 0-5.6699 5.6699v45.354a5.6693 5.6693 0 0 0 5.6699 5.6699h23.811a5.6693 5.6693 0 0 0 5.6699-5.6699v-45.354a5.6693 5.6693 0 0 0-5.6699-5.6699zm11.906 4.3457a13.229 13.229 0 0 1 0 26.457 13.229 13.229 0 0 1 0-26.457zm-7.7285 35.426c0.35528 0 0.66928 0.023 0.94141 0.0684 0.27968 0.0454 0.51831 0.0977 0.71484 0.15821 0.19654 0.0605 0.35562 0.12116 0.47656 0.18164 0.1285 0.0605 0.21441 0.10648 0.25976 0.13672l-0.35156 0.91796c-0.21921-0.14362-0.51021-0.26085-0.87305-0.35156-0.36284-0.0983-0.73338-0.14648-1.1113-0.14648-0.40063 0-0.76701 0.0712-1.0996 0.21484-0.32504 0.14362-0.60356 0.35092-0.83789 0.62305-0.22677 0.27212-0.4047 0.60497-0.5332 0.99804-0.1285 0.38552-0.19336 0.82091-0.19336 1.3047 0 0.46866 0.05238 0.89574 0.1582 1.2812 0.11339 0.38551 0.28079 0.71836 0.5 0.99805 0.22677 0.27213 0.50309 0.48358 0.82812 0.63477 0.3326 0.15118 0.72198 0.22656 1.168 0.22656 0.31748 0 0.58548-0.0147 0.80469-0.0449 0.22677-0.0378 0.38806-0.0733 0.48633-0.10352v-2.9258h1.1016v3.6738c-0.09071 0.0302-0.22458 0.0657-0.39844 0.10351-0.1663 0.0378-0.36307 0.0755-0.58984 0.11328-0.21921 0.0378-0.46004 0.0672-0.72461 0.0899-0.26457 0.0302-0.53256 0.0449-0.80469 0.0449-0.55181 0-1.0543-0.0901-1.5078-0.27149-0.45354-0.18141-0.84293-0.44525-1.168-0.79296-0.32504-0.34772-0.57835-0.7748-0.75977-1.2812-0.17386-0.50646-0.26172-1.0885-0.26172-1.7461s0.09839-1.2396 0.29492-1.7461c0.2041-0.51402 0.47625-0.94525 0.81641-1.293 0.34016-0.34772 0.73786-0.6135 1.1914-0.79492 0.4611-0.18142 0.95108-0.27149 1.4727-0.27149zm11 0.31836v1.8242h2.2324v0.88477h-2.2324v2.7207c0 0.2948 0.02105 0.54175 0.06641 0.73828 0.04536 0.18898 0.11437 0.33974 0.20508 0.45313 0.09071 0.10582 0.20378 0.18121 0.33984 0.22656 0.13606 0.0454 0.29514 0.0684 0.47656 0.0684 0.31748 0 0.57079-0.0335 0.75976-0.10156 0.19654-0.0756 0.33261-0.12992 0.4082-0.16016l0.20312 0.87305c-0.10583 0.0529-0.29012 0.11777-0.55469 0.19336-0.26457 0.0831-0.56805 0.125-0.9082 0.125-0.40063 0-0.73153-0.0482-0.99609-0.14649-0.25701-0.10582-0.46626-0.2627-0.625-0.4668-0.15874-0.20409-0.27181-0.45324-0.33984-0.74804-0.06047-0.30236-0.08984-0.6499-0.08984-1.043v-5.2598zm-5.002 1.6777c0.42331 0 0.77916 0.0565 1.0664 0.16992 0.2948 0.10583 0.52927 0.26075 0.70312 0.46484 0.18142 0.19654 0.30918 0.43516 0.38477 0.71485 0.07559 0.27212 0.11328 0.57365 0.11328 0.90625v3.6855c-0.09071 0.0151-0.21847 0.0381-0.38476 0.0684-0.15874 0.0227-0.34083 0.0457-0.54492 0.0684-0.2041 0.0227-0.42608 0.0415-0.66797 0.0566-0.23433 0.0227-0.46879 0.0332-0.70312 0.0332-0.3326 0-0.63828-0.0335-0.91797-0.10157-0.27968-0.068-0.52247-0.17473-0.72656-0.31836-0.2041-0.15118-0.36318-0.34795-0.47656-0.58984s-0.16992-0.53289-0.16992-0.87305c0-0.32504 0.06486-0.60356 0.19336-0.83789 0.13606-0.23433 0.31815-0.42473 0.54492-0.56836 0.22677-0.14362 0.49061-0.24837 0.79297-0.3164 0.30236-0.068 0.62053-0.10157 0.95312-0.10156 0.10583 0 0.21474 6e-3 0.32812 0.0215 0.11339 8e-3 0.22009 0.0222 0.31836 0.0449 0.10583 0.0151 0.19589 0.0318 0.27148 0.0469 0.07559 0.0151 0.12797 0.0256 0.1582 0.0332v-0.29492c0-0.17386-0.01884-0.34347-0.05664-0.50977-0.0378-0.17386-0.10486-0.32462-0.20312-0.45312-0.09827-0.13607-0.23434-0.24277-0.4082-0.31836-0.1663-0.0831-0.38608-0.125-0.6582-0.125-0.34772 0-0.6534 0.0272-0.91797 0.0801-0.25701 0.0453-0.44962 0.0936-0.57812 0.14648l-0.125-0.87305c0.13606-0.0605 0.36221-0.11701 0.67969-0.16992 0.31748-0.0605 0.66086-0.0898 1.0312-0.0898zm10.818 0c0.7937 0 1.4009 0.24915 1.8242 0.74804 0.42331 0.49134 0.63477 1.243 0.63477 2.2559v0.18164c0 0.068-0.0022 0.13289-0.0098 0.19336h-4.0371c0.04535 0.61229 0.22328 1.077 0.5332 1.3945 0.30992 0.31748 0.79353 0.47656 1.4512 0.47656 0.37039 0 0.68024-0.0313 0.92969-0.0918 0.25701-0.068 0.44962-0.13093 0.57812-0.19141l0.14648 0.88282c-0.1285 0.068-0.35465 0.1412-0.67969 0.21679-0.31748 0.0756-0.6797 0.11329-1.0879 0.11328-0.51402 1e-5 -0.95994-0.0754-1.3379-0.22656-0.37039-0.15874-0.67608-0.37436-0.91797-0.64648-0.24189-0.27213-0.42398-0.59445-0.54492-0.96485-0.11339-0.37795-0.16992-0.78839-0.16992-1.2344 0-0.52158 0.07538-0.97582 0.22656-1.3613 0.15118-0.39307 0.35211-0.7176 0.60156-0.97461 0.24945-0.25701 0.53629-0.44962 0.86133-0.57812 0.32504-0.12851 0.65789-0.19336 0.99805-0.19336zm-0.01172 0.89453c-0.24189 0-0.45751 0.0502-0.64648 0.14844-0.18142 0.0907-0.33634 0.2121-0.46484 0.36328-0.1285 0.15118-0.23105 0.32495-0.30664 0.52148-0.06803 0.19654-0.11209 0.39552-0.13477 0.59961h2.9238c0.0076-0.47622-0.11188-0.86365-0.36133-1.166-0.24189-0.30993-0.5789-0.4668-1.0098-0.4668zm-10.557 2.416c-0.15874 0-0.32835 0.0105-0.50977 0.0332-0.17386 0.0227-0.3371 0.0728-0.48828 0.14843-0.14362 0.068-0.26306 0.16642-0.36133 0.29493-0.09827 0.12094-0.14844 0.28223-0.14844 0.48633 0 0.37795 0.12139 0.64374 0.36328 0.79492 0.24189 0.14362 0.57058 0.21484 0.98633 0.21484 0.24945 0 0.46923-4e-3 0.6582-0.0117 0.19654-0.0151 0.35782-0.0362 0.48633-0.0664v-1.7578c-0.07559-0.0378-0.19919-0.0691-0.37305-0.0918-0.1663-0.0302-0.37139-0.0449-0.61328-0.0449z" style=""/>
    </g>
    <g id="g265" transform="translate(30.33,65.8)">
      <path id="path1393" d="m0.069507 0.273q0.456 0 0.456-0.312 0-0.096-0.042-0.162-0.039-0.069-0.108-0.117-0.069-0.051-0.159-0.087-0.087-0.036-0.186-0.072-0.114-0.039-0.216-0.087-0.102-0.051-0.177-0.117-0.075-0.069-0.12-0.162-0.042-0.093-0.042-0.225 0-0.273 0.186-0.426t0.513-0.153q0.189 0 0.342 0.042 0.156 0.039 0.228 0.087l-0.093 0.237q-0.063-0.039-0.189-0.075-0.123-0.039-0.288-0.039-0.084 0-0.156 0.018t-0.126 0.054-0.087 0.093q-0.03 0.054-0.03 0.129 0 0.084 0.033 0.141 0.033 0.057 0.093 0.102 0.06 0.042 0.138 0.078 0.081 0.036 0.177 0.072 0.135 0.054 0.246 0.108 0.114 0.054 0.195 0.129 0.084 0.075 0.129 0.18 0.045 0.102 0.045 0.249 0 0.273-0.201 0.42-0.198 0.147-0.561 0.147-0.123 0-0.228-0.018-0.102-0.015-0.183-0.036-0.081-0.024-0.141-0.048-0.057-0.027-0.09-0.045l0.087-0.24q0.069 0.039 0.21 0.087t0.345 0.048z"/>
      <path id="path1395" d="m1.6325 0.51q-0.258-6e-3 -0.366-0.111t-0.108-0.327v-1.872l0.279-0.048v1.875q0 0.069 0.012 0.114t0.039 0.072 0.072 0.042q0.045 0.012 0.111 0.021z"/>
      <path id="path1397" d="m1.8965-0.297q0-0.207 0.06-0.36 0.06-0.156 0.159-0.258 0.099-0.102 0.228-0.153t0.264-0.051q0.315 0 0.483 0.198 0.168 0.195 0.168 0.597 0 0.018 0 0.048 0 0.027-3e-3 0.051h-1.068q0.018 0.243 0.141 0.369t0.384 0.126q0.147 0 0.246-0.024 0.102-0.027 0.153-0.051l0.039 0.234q-0.051 0.027-0.18 0.057-0.126 0.03-0.288 0.03-0.204 0-0.354-0.06-0.147-0.063-0.243-0.171t-0.144-0.255q-0.045-0.15-0.045-0.327zm1.071-0.153q3e-3 -0.189-0.096-0.309-0.096-0.123-0.267-0.123-0.096 0-0.171 0.039-0.072 0.036-0.123 0.096t-0.081 0.138q-0.027 0.078-0.036 0.159z"/>
      <path id="path1399" d="m4.9355 0.48q-0.084-0.216-0.18-0.492-0.093-0.279-0.171-0.579-0.078 0.3-0.171 0.579-0.093 0.276-0.177 0.492h-0.243q-0.138-0.309-0.27-0.705t-0.249-0.855h0.3q0.03 0.141 0.072 0.306t0.087 0.33q0.048 0.165 0.099 0.318t0.096 0.267q0.051-0.141 0.099-0.297 0.051-0.159 0.096-0.318 0.045-0.162 0.084-0.315 0.042-0.156 0.072-0.291h0.231q0.027 0.135 0.066 0.291 0.039 0.153 0.084 0.315 0.045 0.159 0.093 0.318 0.051 0.156 0.102 0.297 0.045-0.114 0.093-0.267 0.051-0.153 0.099-0.318t0.09-0.33 0.072-0.306h0.288q-0.117 0.459-0.249 0.855t-0.27 0.705z"/>
    </g>
    <g id="g269" transform="translate(36.68,83.58)">
      <path id="path1402" d="m-1.4845 0.273q0.456 0 0.456-0.312 0-0.096-0.042-0.162-0.039-0.069-0.108-0.117-0.069-0.051-0.159-0.087-0.087-0.036-0.186-0.072-0.114-0.039-0.216-0.087-0.102-0.051-0.177-0.117-0.075-0.069-0.12-0.162-0.042-0.093-0.042-0.225 0-0.273 0.186-0.426t0.513-0.153q0.189 0 0.342 0.042 0.156 0.039 0.228 0.087l-0.093 0.237q-0.063-0.039-0.189-0.075-0.123-0.039-0.288-0.039-0.084 0-0.156 0.018t-0.126 0.054-0.087 0.093q-0.03 0.054-0.03 0.129 0 0.084 0.033 0.141 0.033 0.057 0.093 0.102 0.06 0.042 0.138 0.078 0.081 0.036 0.177 0.072 0.135 0.054 0.246 0.108 0.114 0.054 0.195 0.129 0.084 0.075 0.129 0.18 0.045 0.102 0.045 0.249 0 0.273-0.201 0.42-0.198 0.147-0.561 0.147-0.123 0-0.228-0.018-0.102-0.015-0.183-0.036-0.081-0.024-0.141-0.048-0.057-0.027-0.09-0.045l0.087-0.24q0.069 0.039 0.21 0.087t0.345 0.048z"/>
      <path id="path1404" d="m0.69351-0.297q0-0.273-0.135-0.42t-0.36-0.147q-0.126 0-0.198 9e-3 -0.069 9e-3 -0.111 0.021v0.984q0.051 0.042 0.147 0.081t0.21 0.039q0.12 0 0.204-0.042 0.087-0.045 0.141-0.12 0.054-0.078 0.078-0.18 0.024-0.105 0.024-0.225zm0.291 0q0 0.177-0.048 0.327-0.045 0.15-0.135 0.258t-0.222 0.168q-0.129 0.06-0.297 0.06-0.135 0-0.24-0.036-0.102-0.036-0.153-0.069v0.624h-0.279v-2.067q0.099-0.024 0.246-0.051 0.15-0.03 0.345-0.03 0.18 0 0.324 0.057t0.246 0.162q0.102 0.105 0.156 0.258 0.057 0.15 0.057 0.339z"/>
      <path id="path1406" d="m1.9535-1.113q0.036 0 0.081 6e-3 0.048 3e-3 0.093 0.012 0.045 6e-3 0.081 0.015 0.039 6e-3 0.057 0.012l-0.048 0.243q-0.033-0.012-0.111-0.027-0.075-0.018-0.195-0.018-0.078 0-0.156 0.018-0.075 0.015-0.099 0.021v1.311h-0.279v-1.494q0.099-0.036 0.246-0.066 0.147-0.033 0.33-0.033z"/>
      <path id="path1408" d="m2.4485-0.297q0-0.207 0.06-0.36 0.06-0.156 0.159-0.258 0.099-0.102 0.228-0.153t0.264-0.051q0.315 0 0.483 0.198 0.168 0.195 0.168 0.597 0 0.018 0 0.048 0 0.027-3e-3 0.051h-1.068q0.018 0.243 0.141 0.369t0.384 0.126q0.147 0 0.246-0.024 0.102-0.027 0.153-0.051l0.039 0.234q-0.051 0.027-0.18 0.057-0.126 0.03-0.288 0.03-0.204 0-0.354-0.06-0.147-0.063-0.243-0.171t-0.144-0.255q-0.045-0.15-0.045-0.327zm1.071-0.153q3e-3 -0.189-0.096-0.309-0.096-0.123-0.267-0.123-0.096 0-0.171 0.039-0.072 0.036-0.123 0.096t-0.081 0.138q-0.027 0.078-0.036 0.159z"/>
      <path id="path1410" d="m4.7405 0.279q0.099 0 0.174-3e-3 0.078-6e-3 0.129-0.018v-0.465q-0.03-0.015-0.099-0.024-0.066-0.012-0.162-0.012-0.063 0-0.135 9e-3 -0.069 9e-3 -0.129 0.039-0.057 0.027-0.096 0.078-0.039 0.048-0.039 0.129 0 0.15 0.096 0.21 0.096 0.057 0.261 0.057zm-0.024-1.398q0.168 0 0.282 0.045 0.117 0.042 0.186 0.123 0.072 0.078 0.102 0.189 0.03 0.108 0.03 0.24v0.975q-0.036 6e-3 -0.102 0.018-0.063 9e-3 -0.144 0.018t-0.177 0.015q-0.093 9e-3 -0.186 9e-3 -0.132 0-0.243-0.027t-0.192-0.084q-0.081-0.06-0.126-0.156t-0.045-0.231q0-0.129 0.051-0.222 0.054-0.093 0.144-0.15t0.21-0.084 0.252-0.027q0.042 0 0.087 6e-3 0.045 3e-3 0.084 0.012 0.042 6e-3 0.072 0.012t0.042 9e-3v-0.078q0-0.069-0.015-0.135-0.015-0.069-0.054-0.12-0.039-0.054-0.108-0.084-0.066-0.033-0.174-0.033-0.138 0-0.243 0.021-0.102 0.018-0.153 0.039l-0.033-0.231q0.054-0.024 0.18-0.045 0.126-0.024 0.273-0.024z"/>
      <path id="path1412" d="m6.7865-0.75q-0.051-0.042-0.147-0.081t-0.21-0.039q-0.12 0-0.207 0.045-0.084 0.042-0.138 0.12-0.054 0.075-0.078 0.18t-0.024 0.225q0 0.273 0.135 0.423 0.135 0.147 0.36 0.147 0.114 0 0.189-9e-3 0.078-0.012 0.12-0.024zm0-1.05 0.279-0.048v2.283q-0.096 0.027-0.246 0.054t-0.345 0.027q-0.18 0-0.324-0.057t-0.246-0.162-0.159-0.255q-0.054-0.153-0.054-0.342 0-0.18 0.045-0.33 0.048-0.15 0.138-0.258t0.219-0.168q0.132-0.06 0.3-0.06 0.135 0 0.237 0.036 0.105 0.036 0.156 0.069z"/>
    </g>
    <g id="g274" transform="translate(31.6,93.74)">
      <path id="path1415" d="m-4.263 7.793q0.456 0 0.456-0.312 0-0.096-0.042-0.162-0.039-0.069-0.108-0.117-0.069-0.051-0.159-0.087-0.087-0.036-0.186-0.072-0.114-0.039-0.216-0.087-0.102-0.051-0.177-0.117-0.075-0.069-0.12-0.162-0.042-0.093-0.042-0.225 0-0.273 0.186-0.426t0.513-0.153q0.189 0 0.342 0.042 0.156 0.039 0.228 0.087l-0.093 0.237q-0.063-0.039-0.189-0.075-0.123-0.039-0.288-0.039-0.084 0-0.156 0.018t-0.126 0.054-0.087 0.093q-0.03 0.054-0.03 0.129 0 0.084 0.033 0.141t0.093 0.102q0.06 0.042 0.138 0.078 0.081 0.036 0.177 0.072 0.135 0.054 0.246 0.108 0.114 0.054 0.195 0.129 0.084 0.075 0.129 0.18 0.045 0.102 0.045 0.249 0 0.273-0.201 0.42-0.198 0.147-0.561 0.147-0.123 0-0.228-0.018-0.102-0.015-0.183-0.036-0.081-0.024-0.141-0.048-0.057-0.027-0.09-0.045l0.087-0.24q0.069 0.039 0.21 0.087t0.345 0.048z"/>
      <path id="path1417" d="m-2.64 7.799q0.099 0 0.174-3e-3 0.078-6e-3 0.129-0.018v-0.465q-0.03-0.015-0.099-0.024-0.066-0.012-0.162-0.012-0.063 0-0.135 9e-3 -0.069 9e-3 -0.129 0.039-0.057 0.027-0.096 0.078-0.039 0.048-0.039 0.129 0 0.15 0.096 0.21 0.096 0.057 0.261 0.057zm-0.024-1.398q0.168 0 0.282 0.045 0.117 0.042 0.186 0.123 0.072 0.078 0.102 0.189 0.03 0.108 0.03 0.24v0.975q-0.036 6e-3 -0.102 0.018-0.063 9e-3 -0.144 0.018t-0.177 0.015q-0.093 9e-3 -0.186 9e-3 -0.132 0-0.243-0.027t-0.192-0.084q-0.081-0.06-0.126-0.156t-0.045-0.231q0-0.129 0.051-0.222 0.054-0.093 0.144-0.15t0.21-0.084 0.252-0.027q0.042 0 0.087 6e-3 0.045 3e-3 0.084 0.012 0.042 6e-3 0.072 0.012t0.042 9e-3v-0.078q0-0.069-0.015-0.135-0.015-0.069-0.054-0.12-0.039-0.054-0.108-0.084-0.066-0.033-0.174-0.033-0.138 0-0.243 0.021-0.102 0.018-0.153 0.039l-0.033-0.231q0.054-0.024 0.18-0.045 0.126-0.024 0.273-0.024z"/>
      <path id="path1419" d="m-1.602 6.485q0.096-0.024 0.252-0.051 0.159-0.027 0.366-0.027 0.15 0 0.252 0.042 0.102 0.039 0.171 0.117 0.021-0.015 0.066-0.042t0.111-0.051q0.066-0.027 0.147-0.045 0.081-0.021 0.174-0.021 0.18 0 0.294 0.054 0.114 0.051 0.177 0.147 0.066 0.096 0.087 0.228 0.024 0.132 0.024 0.288v0.876h-0.279v-0.816q0-0.138-0.015-0.237-0.012-0.099-0.051-0.165-0.036-0.066-0.102-0.096-0.063-0.033-0.165-0.033-0.141 0-0.234 0.039-0.09 0.036-0.123 0.066 0.024 0.078 0.036 0.171t0.012 0.195v0.876h-0.279v-0.816q0-0.138-0.015-0.237t-0.054-0.165q-0.036-0.066-0.102-0.096-0.063-0.033-0.162-0.033-0.042 0-0.09 3e-3t-0.093 9e-3q-0.042 3e-3 -0.078 9e-3t-0.048 9e-3v1.317h-0.279z"/>
      <path id="path1421" d="m2.064 7.223q0-0.273-0.135-0.42t-0.36-0.147q-0.126 0-0.198 9e-3 -0.069 9e-3 -0.111 0.021v0.984q0.051 0.042 0.147 0.081t0.21 0.039q0.12 0 0.204-0.042 0.087-0.045 0.141-0.12 0.054-0.078 0.078-0.18 0.024-0.105 0.024-0.225zm0.291 0q0 0.177-0.048 0.327-0.045 0.15-0.135 0.258t-0.222 0.168q-0.129 0.06-0.297 0.06-0.135 0-0.24-0.036-0.102-0.036-0.153-0.069v0.624h-0.279v-2.067q0.099-0.024 0.246-0.051 0.15-0.03 0.345-0.03 0.18 0 0.324 0.057t0.246 0.162 0.156 0.258q0.057 0.15 0.057 0.339z"/>
      <path id="path1423" d="m3.216 8.03q-0.258-6e-3 -0.366-0.111t-0.108-0.327v-1.872l0.279-0.048v1.875q0 0.069 0.012 0.114t0.039 0.072 0.072 0.042q0.045 0.012 0.111 0.021z"/>
      <path id="path1425" d="m3.48 7.223q0-0.207 0.06-0.36 0.06-0.156 0.159-0.258t0.228-0.153 0.264-0.051q0.315 0 0.483 0.198 0.168 0.195 0.168 0.597 0 0.018 0 0.048 0 0.027-3e-3 0.051h-1.068q0.018 0.243 0.141 0.369t0.384 0.126q0.147 0 0.246-0.024 0.102-0.027 0.153-0.051l0.039 0.234q-0.051 0.027-0.18 0.057-0.126 0.03-0.288 0.03-0.204 0-0.354-0.06-0.147-0.063-0.243-0.171t-0.144-0.255q-0.045-0.15-0.045-0.327zm1.071-0.153q3e-3 -0.189-0.096-0.309-0.096-0.123-0.267-0.123-0.096 0-0.171 0.039-0.072 0.036-0.123 0.096t-0.081 0.138q-0.027 0.078-0.036 0.159z"/>
    </g>
    <g id="g278" transform="translate(31.6,108.98)">
      <path id="path_wugaihldvk" transform="matrix(.26458 0 0 .26458 -31.6 -108.98)" d="m107.53 394.32a5.6693 5.6693 0 0 0-5.6699 5.6699v45.354a5.6693 5.6693 0 0 0 5.6699 5.6699h23.811a5.6693 5.6693 0 0 0 5.6699-5.6699v-45.354a5.6693 5.6693 0 0 0-5.6699-5.6699zm11.906 4.3457a13.229 13.229 0 0 1 0 26.457 13.229 13.229 0 0 1 0-26.457zm-2.9199 35.426c0.32504 0 0.61604 0.023 0.87305 0.0684 0.26457 0.0454 0.49071 0.0977 0.67969 0.15821 0.19653 0.0605 0.35561 0.12116 0.47656 0.18164 0.12094 0.0605 0.20464 0.10648 0.25 0.13672l-0.31836 0.90625c-0.068-0.0454-0.16642-0.0936-0.29492-0.14649-0.12851-0.0529-0.27511-0.10724-0.44141-0.16015-0.15874-0.0529-0.33667-0.0928-0.5332-0.12305-0.18898-0.0378-0.38159-0.0566-0.57813-0.0566-0.41574 0-0.79045 0.0712-1.123 0.21484-0.3326 0.14362-0.61528 0.35092-0.84961 0.62305-0.23433 0.27212-0.41642 0.60497-0.54492 0.99804-0.12095 0.38552-0.18165 0.82091-0.18165 1.3047 0 0.46866 0.0543 0.89574 0.16016 1.2812 0.11339 0.38551 0.27883 0.71836 0.49805 0.99805 0.21921 0.27213 0.49136 0.48358 0.8164 0.63477 0.3326 0.15118 0.71783 0.22656 1.1562 0.22656 0.50646 0 0.92522-0.0543 1.2578-0.16016 0.33259-0.10583 0.5837-0.20005 0.75-0.2832l0.2832 0.9082c-0.0529 0.0378-0.14714 0.086-0.2832 0.14649-0.13607 0.0529-0.30763 0.10724-0.51172 0.16015-0.2041 0.0529-0.44077 0.097-0.71289 0.13477-0.27213 0.0378-0.56729 0.0566-0.88477 0.0566-0.55181 0-1.0543-0.0901-1.5078-0.27149-0.45354-0.18141-0.84293-0.4472-1.168-0.79492-0.32504-0.34771-0.57835-0.77479-0.75977-1.2812-0.17385-0.51401-0.26171-1.0982-0.26171-1.7559s0.0984-1.2396 0.29492-1.7461c0.20409-0.51402 0.47625-0.94525 0.8164-1.293 0.34016-0.34772 0.73787-0.6135 1.1914-0.79492s0.93716-0.27149 1.4512-0.27149zm2.9258 0.18164h1.2129c0.40819 1.1943 0.8081 2.3436 1.2012 3.4473 0.39307 1.1036 0.79714 2.1399 1.2129 3.1074 0.41574-0.96 0.82177-1.9921 1.2148-3.0957 0.39307-1.1112 0.78882-2.2646 1.1894-3.459h1.1797c-0.28724 0.8315-0.56356 1.602-0.82812 2.3125-0.25701 0.703-0.51032 1.3729-0.75977 2.0078s-0.4986 1.2441-0.74805 1.8262c-0.24189 0.57449-0.49104 1.144-0.74804 1.7109h-1.0332c-0.257-0.56693-0.50836-1.1364-0.75781-1.7109-0.24189-0.58205-0.49299-1.1912-0.75-1.8262-0.24945-0.63496-0.50496-1.3048-0.76953-2.0078-0.26457-0.71055-0.53672-1.481-0.81641-2.3125z" style=""/>
    </g>
    <g id="g282" transform="translate(44.3,108.98)">
      <path id="path_cenqnibjzs" transform="matrix(.26458 0 0 .26458 -44.3 -108.98)" d="m155.53 394.32a5.6693 5.6693 0 0 0-5.6699 5.6699v45.354a5.6693 5.6693 0 0 0 5.6699 5.6699h23.811a5.6693 5.6693 0 0 0 5.6699-5.6699v-45.354a5.6693 5.6693 0 0 0-5.6699-5.6699zm11.906 4.3457a13.229 13.229 0 0 1 0 26.457 13.229 13.229 0 0 1 0-26.457zm-7.7285 35.426c0.35527 0 0.66928 0.023 0.9414 0.0684 0.27969 0.0454 0.51831 0.0977 0.71485 0.15821 0.19653 0.0605 0.35562 0.12116 0.47656 0.18164 0.1285 0.0605 0.21441 0.10648 0.25977 0.13672l-0.35157 0.91796c-0.21921-0.14362-0.51021-0.26085-0.87304-0.35156-0.36284-0.0983-0.73338-0.14648-1.1113-0.14648-0.40063 0-0.76701 0.0712-1.0996 0.21484-0.32504 0.14362-0.60356 0.35092-0.83789 0.62305-0.22677 0.27212-0.4047 0.60497-0.5332 0.99804-0.12851 0.38552-0.19336 0.82091-0.19336 1.3047 0 0.46866 0.0524 0.89574 0.1582 1.2812 0.11339 0.38551 0.28079 0.71836 0.5 0.99805 0.22677 0.27213 0.50309 0.48358 0.82812 0.63477 0.3326 0.15118 0.72199 0.22656 1.168 0.22656 0.31748 0 0.58548-0.0147 0.80469-0.0449 0.22677-0.0378 0.38806-0.0733 0.48633-0.10352v-2.9258h1.1016v3.6738c-0.0907 0.0302-0.22458 0.0657-0.39844 0.10351-0.1663 0.0378-0.36307 0.0755-0.58984 0.11328-0.21921 0.0378-0.46004 0.0672-0.72461 0.0899-0.26457 0.0302-0.53256 0.0449-0.80469 0.0449-0.55181 0-1.0543-0.0901-1.5078-0.27149-0.45354-0.18141-0.84293-0.44525-1.168-0.79296-0.32504-0.34772-0.57835-0.7748-0.75976-1.2812-0.17386-0.50646-0.26172-1.0885-0.26172-1.7461s0.0984-1.2396 0.29492-1.7461c0.20409-0.51402 0.47625-0.94525 0.81641-1.293 0.34015-0.34772 0.73786-0.6135 1.1914-0.79492 0.4611-0.18142 0.95108-0.27149 1.4727-0.27149zm11 0.31836v1.8242h2.2324v0.88477h-2.2324v2.7207c0 0.2948 0.0211 0.54175 0.0664 0.73828 0.0454 0.18898 0.11437 0.33974 0.20508 0.45313 0.0907 0.10582 0.20378 0.18121 0.33985 0.22656 0.13606 0.0454 0.29514 0.0684 0.47656 0.0684 0.31748 0 0.57079-0.0335 0.75976-0.10156 0.19654-0.0756 0.33262-0.12992 0.40821-0.16016l0.20312 0.87305c-0.10582 0.0529-0.29012 0.11777-0.55468 0.19336-0.26457 0.0831-0.56805 0.125-0.90821 0.125-0.40063 0-0.73152-0.0482-0.99609-0.14649-0.25701-0.10582-0.46626-0.2627-0.625-0.4668-0.15874-0.20409-0.27181-0.45324-0.33985-0.74804-0.0605-0.30236-0.0898-0.6499-0.0898-1.043v-5.2598zm-5.002 1.6777c0.42331 0 0.77917 0.0565 1.0664 0.16992 0.2948 0.10583 0.52927 0.26075 0.70313 0.46484 0.18141 0.19654 0.30917 0.43516 0.38476 0.71485 0.0756 0.27212 0.11328 0.57365 0.11328 0.90625v3.6855c-0.0907 0.0151-0.21846 0.0381-0.38476 0.0684-0.15874 0.0227-0.34083 0.0457-0.54492 0.0684-0.2041 0.0227-0.42608 0.0415-0.66797 0.0566-0.23433 0.0227-0.4688 0.0332-0.70313 0.0332-0.3326 0-0.63828-0.0335-0.91797-0.10157-0.27968-0.068-0.52246-0.17473-0.72656-0.31836-0.20409-0.15118-0.36318-0.34795-0.47656-0.58984-0.11339-0.24189-0.16992-0.53289-0.16992-0.87305 0-0.32504 0.0649-0.60356 0.19336-0.83789 0.13606-0.23433 0.31815-0.42473 0.54492-0.56836 0.22677-0.14362 0.4906-0.24837 0.79297-0.3164 0.30236-0.068 0.62052-0.10157 0.95312-0.10156 0.10583 0 0.21474 6e-3 0.32813 0.0215 0.11338 8e-3 0.22009 0.0222 0.31836 0.0449 0.10582 0.0151 0.19589 0.0318 0.27148 0.0469 0.0756 0.0151 0.12797 0.0256 0.1582 0.0332v-0.29492c0-0.17386-0.0188-0.34347-0.0566-0.50977-0.0378-0.17386-0.10485-0.32462-0.20312-0.45312-0.0983-0.13607-0.23435-0.24277-0.40821-0.31836-0.16629-0.0831-0.38607-0.125-0.6582-0.125-0.34772 0-0.6534 0.0272-0.91797 0.0801-0.25701 0.0453-0.44962 0.0936-0.57812 0.14648l-0.125-0.87305c0.13606-0.0605 0.3622-0.11701 0.67969-0.16992 0.31748-0.0605 0.66085-0.0898 1.0312-0.0898zm10.818 0c0.79371 0 1.4009 0.24915 1.8242 0.74804 0.42331 0.49134 0.63477 1.243 0.63477 2.2559v0.18164c0 0.068-2e-3 0.13289-0.01 0.19336h-4.0371c0.0454 0.61229 0.22329 1.077 0.53321 1.3945 0.30992 0.31748 0.79353 0.47656 1.4512 0.47656 0.37039 0 0.68024-0.0313 0.92969-0.0918 0.257-0.068 0.44962-0.13093 0.57812-0.19141l0.14649 0.88282c-0.12851 0.068-0.35465 0.1412-0.67969 0.21679-0.31748 0.0756-0.6797 0.11329-1.0879 0.11328-0.51402 1e-5 -0.95994-0.0754-1.3379-0.22656-0.3704-0.15874-0.67608-0.37436-0.91797-0.64648-0.24189-0.27213-0.42398-0.59445-0.54492-0.96485-0.11339-0.37795-0.16993-0.78839-0.16993-1.2344 0-0.52158 0.0754-0.97582 0.22657-1.3613 0.15118-0.39307 0.35211-0.7176 0.60156-0.97461s0.53629-0.44962 0.86133-0.57812c0.32504-0.12851 0.65789-0.19336 0.99804-0.19336zm-0.0117 0.89453c-0.24189 0-0.45751 0.0502-0.64649 0.14844-0.18142 0.0907-0.33634 0.2121-0.46484 0.36328-0.12851 0.15118-0.23105 0.32495-0.30664 0.52148-0.068 0.19654-0.11209 0.39552-0.13477 0.59961h2.9238c8e-3 -0.47622-0.11188-0.86365-0.36133-1.166-0.24189-0.30993-0.5789-0.4668-1.0098-0.4668zm-10.557 2.416c-0.15874 0-0.32834 0.0105-0.50976 0.0332-0.17386 0.0227-0.3371 0.0728-0.48828 0.14843-0.14362 0.068-0.26306 0.16642-0.36133 0.29493-0.0983 0.12094-0.14844 0.28223-0.14844 0.48633 0 0.37795 0.12139 0.64374 0.36328 0.79492 0.24189 0.14362 0.57058 0.21484 0.98633 0.21484 0.24945 0 0.46923-4e-3 0.6582-0.0117 0.19654-0.0151 0.35783-0.0362 0.48633-0.0664v-1.7578c-0.0756-0.0378-0.19919-0.0691-0.37304-0.0918-0.1663-0.0302-0.3714-0.0449-0.61329-0.0449z" style=""/>
    </g>
    <g id="g286" transform="translate(25.25,75.96)">
      <path id="path_zowygyztkz" transform="matrix(.26458 0 0 .26458 -25.25 -75.96)" d="m83.527 269.52a5.6693 5.6693 0 0 0-5.6699 5.6699v45.354a5.6693 5.6693 0 0 0 5.6699 5.6699h23.811a5.6693 5.6693 0 0 0 5.6699-5.6699v-45.354a5.6693 5.6693 0 0 0-5.6699-5.6699zm11.906 4.3476a13.228 13.228 0 0 1 0 26.455 13.228 13.228 0 0 1 0-26.455zm-7.8008 35.527c1.1036 0 1.9411 0.2073 2.5156 0.62304 0.58205 0.41575 0.87305 1.0354 0.87305 1.8594 0 0.52157-0.13828 0.9675-0.41797 1.3379-0.27213 0.37039-0.67815 0.64671-1.2148 0.82813 0.12094 0.15118 0.27366 0.35211 0.45508 0.60156 0.18898 0.24189 0.38159 0.51404 0.57812 0.8164 0.19654 0.29481 0.38915 0.60465 0.57812 0.92969 0.19654 0.32504 0.36198 0.63905 0.49805 0.94141h-1.2012c-0.15118-0.28725-0.31858-0.57825-0.5-0.87305-0.17386-0.2948-0.34983-0.57528-0.53125-0.83984-0.18142-0.27213-0.3635-0.52544-0.54492-0.75977-0.17386-0.23433-0.33294-0.43942-0.47656-0.61328-0.09827 8e-3 -0.20081 0.0117-0.30664 0.0117h-1.291v3.0742h-1.1016v-7.7461c0.30992-0.0756 0.65525-0.1238 1.0332-0.14648 0.38551-0.0302 0.73721-0.0449 1.0547-0.0449zm0.08984 0.96289c-0.46866 0-0.82672 0.0125-1.0762 0.0351v2.959h0.78125c0.37795 0 0.71912-0.0188 1.0215-0.0566s0.55567-0.10902 0.75976-0.21485c0.21165-0.10582 0.37294-0.25438 0.48633-0.44335 0.11339-0.19654 0.16992-0.45401 0.16992-0.77149 0-0.2948-0.05654-0.53979-0.16992-0.73633-0.11338-0.19653-0.26831-0.35145-0.46484-0.46484-0.18898-0.11339-0.41512-0.19293-0.67969-0.23828-0.25701-0.0454-0.53332-0.0684-0.82812-0.0684zm6.793 0.92969c0.42331 0 0.77721 0.0565 1.0645 0.16992 0.2948 0.10582 0.52927 0.26075 0.70312 0.46484 0.18142 0.19654 0.31113 0.43516 0.38672 0.71485 0.07559 0.27212 0.11328 0.5756 0.11328 0.9082v3.6836c-0.09071 0.0151-0.22042 0.0381-0.38672 0.0684-0.15874 0.0227-0.33887 0.0457-0.54297 0.0684-0.2041 0.0227-0.42803 0.0415-0.66992 0.0566-0.23433 0.0227-0.4688 0.0332-0.70312 0.0332-0.3326 0-0.63828-0.0335-0.91797-0.10156-0.27968-0.068-0.52247-0.17278-0.72656-0.3164-0.2041-0.15118-0.36318-0.34796-0.47656-0.58985s-0.16992-0.53289-0.16992-0.87304c0-0.32504 0.06486-0.60552 0.19336-0.83985 0.13606-0.23433 0.31815-0.42278 0.54492-0.5664 0.22677-0.14363 0.49061-0.25033 0.79297-0.31836 0.30236-0.068 0.62053-0.10157 0.95312-0.10157 0.10583 0 0.21474 8e-3 0.32812 0.0234 0.11339 8e-3 0.22009 0.0223 0.31836 0.0449 0.10583 0.0151 0.19589 0.0298 0.27148 0.0449 0.07559 0.0151 0.12797 0.0256 0.1582 0.0332v-0.29297c0-0.17386-0.01884-0.34542-0.05664-0.51172-0.0378-0.17386-0.10486-0.32462-0.20312-0.45312-0.09827-0.13607-0.23434-0.24082-0.4082-0.31641-0.1663-0.0831-0.38608-0.125-0.6582-0.125-0.34772 0-0.6534 0.0252-0.91797 0.0781-0.25701 0.0454-0.44962 0.0955-0.57812 0.14844l-0.125-0.87304c0.13606-0.0605 0.36221-0.11701 0.67969-0.16993 0.31748-0.0605 0.66281-0.0918 1.0332-0.0918zm3.1738 0.14843h1.1348c0.07559 0.35528 0.16566 0.74051 0.27148 1.1562 0.10583 0.41575 0.21474 0.83035 0.32812 1.2461 0.12094 0.41575 0.2465 0.81761 0.375 1.2031s0.2499 0.72252 0.36329 1.0098c0.1285-0.35528 0.2521-0.72998 0.37305-1.123 0.1285-0.40063 0.24989-0.80249 0.36328-1.2031 0.11338-0.40819 0.21814-0.80395 0.3164-1.1895 0.10583-0.39307 0.19785-0.75945 0.27344-1.0996h0.87305c0.068 0.34016 0.15173 0.70654 0.25 1.0996 0.0983 0.38551 0.20302 0.78127 0.3164 1.1895 0.11339 0.40063 0.23062 0.80249 0.35157 1.2031 0.1285 0.39307 0.25626 0.76777 0.38476 1.123 0.11339-0.28725 0.23062-0.62426 0.35156-1.0098 0.12851-0.38551 0.25406-0.78737 0.375-1.2031 0.12095-0.41575 0.23402-0.83035 0.33985-1.2461 0.10583-0.41574 0.19589-0.80097 0.27148-1.1562h1.0898c-0.29481 1.1565-0.60881 2.2327-0.94141 3.2305-0.3326 0.9978-0.67377 1.8874-1.0215 2.666h-0.91797c-0.21166-0.54425-0.4378-1.1659-0.67969-1.8613-0.23433-0.70299-0.44995-1.4316-0.64648-2.1875-0.19654 0.75591-0.41216 1.4845-0.64649 2.1875-0.23433 0.69543-0.45631 1.3171-0.66797 1.8613h-0.91992c-0.34772-0.77858-0.68693-1.6682-1.0195-2.666-0.3326-0.99779-0.6466-2.0739-0.94141-3.2305zm-2.9258 3.1621c-0.15874 0-0.32835 0.0125-0.50977 0.0352-0.17386 0.0227-0.3371 0.0709-0.48828 0.14648-0.14362 0.068-0.26306 0.16642-0.36133 0.29493-0.09827 0.12094-0.14844 0.28418-0.14844 0.48828 0 0.37795 0.12139 0.64178 0.36328 0.79297 0.24189 0.14362 0.57058 0.21679 0.98633 0.21679 0.24945 0 0.46923-4e-3 0.6582-0.0117 0.19654-0.0151 0.35782-0.0381 0.48633-0.0684v-1.7578c-0.07559-0.0378-0.19919-0.0672-0.37305-0.0898-0.1663-0.0302-0.37139-0.0469-0.61328-0.0469z" style=""/>
    </g>
  </g>
  <g id="throughholes">
    <circle id="circle290" cx="7.47" cy="3" r="1.7"/>
    <circle id="circle292" cx="7.47" cy="125.5" r="1.7"/>
    <circle id="circle294" cx="43.03" cy="3" r="1.7"/>
    <circle id="circle296" cx="43.03" cy="125.5" r="1.7"/>
    <circle id="circle298" cx="10.01" cy="22.62" r="3.15"/>
    <circle id="circle302" cx="37.95" cy="22.62" r="3.65"/>
    <circle id="circle306" cx="12.55" cy="40.4" r="3.65"/>
    <circle id="circle310" cx="18.9" cy="93.74" r="3.15"/>
    <circle id="circle314" cx="18.9" cy="108.98" r="3.15"/>
    <circle id="circle318" cx="6.2" cy="108.98" r="3.15"/>
    <circle id="circle322" cx="31.6" cy="93.74" r="3.15"/>
    <circle id="circle326" cx="31.6" cy="108.98" r="3.15"/>
    <circle id="circle330" cx="44.3" cy="108.98" r="3.15"/>
    <circle id="circle334" cx="25.25" cy="75.96" r="3.15"/>
  </g>
  <g id="cosmetics">
    <g id="cosmetics_offset" transform="translate(25.25,15)">
      <g id="g346" transform="translate(-15.24 7.62)">
        <path id="path340" d="m3.5466-0.15485v0.3097l0.1713 0.33462-0.056808 0.32218-0.27541 0.25586-0.10592 0.29102 0.046518 0.37303-0.16357 0.28332-0.34631 0.14623-0.19907 0.23724-0.083871 0.36644-0.25061 0.21029-0.37544 0.018965-0.26821 0.15485-0.20414 0.31566-0.30742 0.11189-0.35929-0.11059-0.30499 0.053778-0.2998 0.2268h-0.32715l-0.2998-0.2268-0.30499-0.053778-0.35929 0.11059-0.30742-0.11189-0.20414-0.31566-0.26821-0.15485-0.37544-0.018965-0.25061-0.21029-0.083871-0.36644-0.19907-0.23724-0.34631-0.14623-0.16357-0.28332 0.046518-0.37303-0.10592-0.29102-0.27541-0.25586-0.056808-0.32218 0.1713-0.33462v-0.3097l-0.1713-0.33462 0.056808-0.32218 0.27541-0.25586 0.10592-0.29102-0.046518-0.37303 0.16357-0.28332 0.34631-0.14623 0.19907-0.23724 0.083871-0.36644 0.25061-0.21029 0.37544-0.018965 0.26821-0.15485 0.20414-0.31566 0.30742-0.11189 0.35929 0.11059 0.30499-0.053778 0.2998-0.2268h0.32715l0.2998 0.2268 0.30499 0.053778 0.35929-0.11059 0.30742 0.11189 0.20414 0.31566 0.26821 0.15485 0.37544 0.018965 0.25061 0.21029 0.083871 0.36644 0.19907 0.23724 0.34631 0.14623 0.16357 0.28332-0.046518 0.37303 0.10592 0.29102 0.27541 0.25586 0.056808 0.32218z" fill="url(#id1) none"/>
        <circle id="circle342" r="3.15" fill="url(#id2) none"/>
        <circle id="circle344" r="2.35" fill="url(#id3) none"/>
      </g>
      <g id="g360" transform="translate(10.16 15.24)">
        <circle id="circle348" cx="2.54" cy="-7.62" r="7.15" fill="url(#id4) none"/>
        <circle id="circle350" cx="2.54" cy="-7.62" r="7.15" fill="url(#id5) none"/>
        <path id="path352" d="m-0.69282-12.07a5.5 5.5 0 0 1 3.8077-1.0203l0.46279 0.32345 0.63684 0.17064 0.56252-0.048716a5.5 5.5 0 0 1 2.7874 2.7874l-0.048716 0.56252 0.17064 0.63684 0.32345 0.46279a5.5 5.5 0 0 1-1.0203 3.8077l-0.51151 0.23907-0.4662 0.4662-0.23907 0.51151a5.5 5.5 0 0 1-3.8077 1.0203l-0.46279-0.32345-0.63684-0.17064-0.56252 0.048716a5.5 5.5 0 0 1-2.7874-2.7874l0.048716-0.56252-0.17064-0.63684-0.32345-0.46279a5.5 5.5 0 0 1 1.0203-3.8077l0.51151-0.23907 0.4662-0.4662z" fill="url(#id6) none"/>
        <path id="path354" d="m-0.25198-11.463a4.75 4.75 0 0 1 3.2885-0.88115l0.39295 0.31276 0.54586 0.14626 0.49668-0.074383a4.75 4.75 0 0 1 2.4073 2.4073l-0.074383 0.49668 0.14626 0.54586 0.31276 0.39295a4.75 4.75 0 0 1-0.88115 3.2885l-0.46733 0.18392-0.3996 0.3996-0.18392 0.46733a4.75 4.75 0 0 1-3.2885 0.88115l-0.39295-0.31276-0.54586-0.14626-0.49668 0.074383a4.75 4.75 0 0 1-2.4073-2.4073l0.074383-0.49668-0.14626-0.54586-0.31276-0.39295a4.75 4.75 0 0 1 0.88115-3.2885l0.46733-0.18392 0.3996-0.3996z" fill="url(#id7) none"/>
        <circle id="circle356" cx="2.54" cy="-7.62" r="4" fill="url(#id8) none"/>
        <line id="line358" x1="2.54" x2="-.28843" y1="-7.62" y2="-10.448" stroke="#000" stroke-width=".8"/>
      </g>
      <g id="g374" transform="translate(-15.24 33.02)">
        <circle id="circle362" cx="2.54" cy="-7.62" r="7.15" fill="url(#id4) none"/>
        <circle id="circle364" cx="2.54" cy="-7.62" r="7.15" fill="url(#id5) none"/>
        <path id="path366" d="m-0.69282-12.07a5.5 5.5 0 0 1 3.8077-1.0203l0.46279 0.32345 0.63684 0.17064 0.56252-0.048716a5.5 5.5 0 0 1 2.7874 2.7874l-0.048716 0.56252 0.17064 0.63684 0.32345 0.46279a5.5 5.5 0 0 1-1.0203 3.8077l-0.51151 0.23907-0.4662 0.4662-0.23907 0.51151a5.5 5.5 0 0 1-3.8077 1.0203l-0.46279-0.32345-0.63684-0.17064-0.56252 0.048716a5.5 5.5 0 0 1-2.7874-2.7874l0.048716-0.56252-0.17064-0.63684-0.32345-0.46279a5.5 5.5 0 0 1 1.0203-3.8077l0.51151-0.23907 0.4662-0.4662z" fill="url(#id6) none"/>
        <path id="path368" d="m-0.25198-11.463a4.75 4.75 0 0 1 3.2885-0.88115l0.39295 0.31276 0.54586 0.14626 0.49668-0.074383a4.75 4.75 0 0 1 2.4073 2.4073l-0.074383 0.49668 0.14626 0.54586 0.31276 0.39295a4.75 4.75 0 0 1-0.88115 3.2885l-0.46733 0.18392-0.3996 0.3996-0.18392 0.46733a4.75 4.75 0 0 1-3.2885 0.88115l-0.39295-0.31276-0.54586-0.14626-0.49668 0.074383a4.75 4.75 0 0 1-2.4073-2.4073l0.074383-0.49668-0.14626-0.54586-0.31276-0.39295a4.75 4.75 0 0 1 0.88115-3.2885l0.46733-0.18392 0.3996-0.3996z" fill="url(#id7) none"/>
        <circle id="circle370" cx="2.54" cy="-7.62" r="4" fill="url(#id13) none"/>
        <line id="line372" x1="2.54" x2="-.28843" y1="-7.62" y2="-10.448" stroke="#fff" stroke-width=".8"/>
      </g>
      <g id="g380" transform="translate(-10.16,50.8)">
        <path id="path376" d="m5.5891-7.6949v0.1497l0.19211 0.16423-0.015635 0.15875-0.22046 0.1236-0.029205 0.14683 0.15638 0.19856-0.046306 0.15265-0.24034 0.078214-0.057288 0.13831 0.11464 0.22525-0.075196 0.14068-0.25098 0.029824-0.08317 0.12447 0.068492 0.24329-0.1012 0.12331-0.25198-0.019713-0.10585 0.10585 0.019713 0.25198-0.12331 0.1012-0.24329-0.068492-0.12447 0.08317-0.029824 0.25098-0.14068 0.075196-0.22525-0.11464-0.13831 0.057288-0.078214 0.24034-0.15265 0.046306-0.19856-0.15638-0.14683 0.029205-0.1236 0.22046-0.15875 0.015635-0.16423-0.19211h-0.1497l-0.16423 0.19211-0.15875-0.015635-0.1236-0.22046-0.14683-0.029205-0.19856 0.15638-0.15265-0.046306-0.078214-0.24034-0.13831-0.057288-0.22525 0.11464-0.14068-0.075196-0.029824-0.25098-0.12447-0.08317-0.24329 0.068492-0.12331-0.1012 0.019713-0.25198-0.10585-0.10585-0.25198 0.019713-0.1012-0.12331 0.068492-0.24329-0.08317-0.12447-0.25098-0.029824-0.075196-0.14068 0.11464-0.22525-0.057288-0.13831-0.24034-0.078214-0.046306-0.15265 0.15638-0.19856-0.029205-0.14683-0.22046-0.1236-0.015635-0.15875 0.19211-0.16423v-0.1497l-0.19211-0.16423 0.015635-0.15875 0.22046-0.1236 0.029205-0.14683-0.15638-0.19856 0.046306-0.15265 0.24034-0.078214 0.057288-0.13831-0.11464-0.22525 0.075196-0.14068 0.25098-0.029824 0.08317-0.12447-0.068492-0.24329 0.1012-0.12331 0.25198 0.019713 0.10585-0.10585-0.019713-0.25198 0.12331-0.1012 0.24329 0.068492 0.12447-0.08317 0.029824-0.25098 0.14068-0.075196 0.22525 0.11464 0.13831-0.057288 0.078214-0.24034 0.15265-0.046306 0.19856 0.15638 0.14683-0.029205 0.1236-0.22046 0.15875-0.015635 0.16423 0.19211h0.1497l0.16423-0.19211 0.15875 0.015635 0.1236 0.22046 0.14683 0.029205 0.19856-0.15638 0.15265 0.046306 0.078214 0.24034 0.13831 0.057288 0.22525-0.11464 0.14068 0.075196 0.029824 0.25098 0.12447 0.08317 0.24329-0.068492 0.12331 0.1012-0.019713 0.25198 0.10585 0.10585 0.25198-0.019713 0.1012 0.12331-0.068492 0.24329 0.08317 0.12447 0.25098 0.029824 0.075196 0.14068-0.11464 0.22525 0.057288 0.13831 0.24034 0.078214 0.046306 0.15265-0.15638 0.19856 0.029205 0.14683 0.22046 0.1236 0.015635 0.15875z" fill="url(#id14) none"/>
        <line id="line378" x1="2.54" x2=".2419" y1="-7.62" y2="-9.9181" stroke="#fff" stroke-width=".8"/>
      </g>
      <g id="g386" transform="translate(-16.51 68.58)">
        <path id="path382" d="m5.5891-7.6949v0.1497l0.19211 0.16423-0.015635 0.15875-0.22046 0.1236-0.029205 0.14683 0.15638 0.19856-0.046306 0.15265-0.24034 0.078214-0.057288 0.13831 0.11464 0.22525-0.075196 0.14068-0.25098 0.029824-0.08317 0.12447 0.068492 0.24329-0.1012 0.12331-0.25198-0.019713-0.10585 0.10585 0.019713 0.25198-0.12331 0.1012-0.24329-0.068492-0.12447 0.08317-0.029824 0.25098-0.14068 0.075196-0.22525-0.11464-0.13831 0.057288-0.078214 0.24034-0.15265 0.046306-0.19856-0.15638-0.14683 0.029205-0.1236 0.22046-0.15875 0.015635-0.16423-0.19211h-0.1497l-0.16423 0.19211-0.15875-0.015635-0.1236-0.22046-0.14683-0.029205-0.19856 0.15638-0.15265-0.046306-0.078214-0.24034-0.13831-0.057288-0.22525 0.11464-0.14068-0.075196-0.029824-0.25098-0.12447-0.08317-0.24329 0.068492-0.12331-0.1012 0.019713-0.25198-0.10585-0.10585-0.25198 0.019713-0.1012-0.12331 0.068492-0.24329-0.08317-0.12447-0.25098-0.029824-0.075196-0.14068 0.11464-0.22525-0.057288-0.13831-0.24034-0.078214-0.046306-0.15265 0.15638-0.19856-0.029205-0.14683-0.22046-0.1236-0.015635-0.15875 0.19211-0.16423v-0.1497l-0.19211-0.16423 0.015635-0.15875 0.22046-0.1236 0.029205-0.14683-0.15638-0.19856 0.046306-0.15265 0.24034-0.078214 0.057288-0.13831-0.11464-0.22525 0.075196-0.14068 0.25098-0.029824 0.08317-0.12447-0.068492-0.24329 0.1012-0.12331 0.25198 0.019713 0.10585-0.10585-0.019713-0.25198 0.12331-0.1012 0.24329 0.068492 0.12447-0.08317 0.029824-0.25098 0.14068-0.075196 0.22525 0.11464 0.13831-0.057288 0.078214-0.24034 0.15265-0.046306 0.19856 0.15638 0.14683-0.029205 0.1236-0.22046 0.15875-0.015635 0.16423 0.19211h0.1497l0.16423-0.19211 0.15875 0.015635 0.1236 0.22046 0.14683 0.029205 0.19856-0.15638 0.15265 0.046306 0.078214 0.24034 0.13831 0.057288 0.22525-0.11464 0.14068 0.075196 0.029824 0.25098 0.12447 0.08317 0.24329-0.068492 0.12331 0.1012-0.019713 0.25198 0.10585 0.10585 0.25198-0.019713 0.1012 0.12331-0.068492 0.24329 0.08317 0.12447 0.25098 0.029824 0.075196 0.14068-0.11464 0.22525 0.057288 0.13831 0.24034 0.078214 0.046306 0.15265-0.15638 0.19856 0.029205 0.14683 0.22046 0.1236 0.015635 0.15875z" fill="url(#id14) none"/>
        <line id="line384" x1="2.54" x2=".2419" y1="-7.62" y2="-9.9181" stroke="#fff" stroke-width=".8"/>
      </g>
      <g id="g392" transform="translate(-19.05 77.47)">
        <circle id="circle388" cy="1.27" r="2.55" fill="url(#id16) none"/>
        <ellipse id="ellipse390" transform="rotate(20 .85 -.005)" cx=".85" cy="-.005" rx="1.275" ry=".85" fill="#fff" opacity=".8"/>
      </g>
      <g id="g400" transform="translate(-6.35,78.74)">
        <path id="path394" d="m3.5466-0.15485v0.3097l0.1713 0.33462-0.056808 0.32218-0.27541 0.25586-0.10592 0.29102 0.046518 0.37303-0.16357 0.28332-0.34631 0.14623-0.19907 0.23724-0.083871 0.36644-0.25061 0.21029-0.37544 0.018965-0.26821 0.15485-0.20414 0.31566-0.30742 0.11189-0.35929-0.11059-0.30499 0.053778-0.2998 0.2268h-0.32715l-0.2998-0.2268-0.30499-0.053778-0.35929 0.11059-0.30742-0.11189-0.20414-0.31566-0.26821-0.15485-0.37544-0.018965-0.25061-0.21029-0.083871-0.36644-0.19907-0.23724-0.34631-0.14623-0.16357-0.28332 0.046518-0.37303-0.10592-0.29102-0.27541-0.25586-0.056808-0.32218 0.1713-0.33462v-0.3097l-0.1713-0.33462 0.056808-0.32218 0.27541-0.25586 0.10592-0.29102-0.046518-0.37303 0.16357-0.28332 0.34631-0.14623 0.19907-0.23724 0.083871-0.36644 0.25061-0.21029 0.37544-0.018965 0.26821-0.15485 0.20414-0.31566 0.30742-0.11189 0.35929 0.11059 0.30499-0.053778 0.2998-0.2268h0.32715l0.2998 0.2268 0.30499 0.053778 0.35929-0.11059 0.30742 0.11189 0.20414 0.31566 0.26821 0.15485 0.37544 0.018965 0.25061 0.21029 0.083871 0.36644 0.19907 0.23724 0.34631 0.14623 0.16357 0.28332-0.046518 0.37303 0.10592 0.29102 0.27541 0.25586 0.056808 0.32218z" fill="url(#id1) none"/>
        <circle id="circle396" r="3.15" fill="url(#id2) none"/>
        <circle id="circle398" r="2.35" fill="url(#id3) none"/>
      </g>
      <g id="g408" transform="translate(-6.35,93.98)">
        <path id="path402" d="m3.5466-0.15485v0.3097l0.1713 0.33462-0.056808 0.32218-0.27541 0.25586-0.10592 0.29102 0.046518 0.37303-0.16357 0.28332-0.34631 0.14623-0.19907 0.23724-0.083871 0.36644-0.25061 0.21029-0.37544 0.018965-0.26821 0.15485-0.20414 0.31566-0.30742 0.11189-0.35929-0.11059-0.30499 0.053778-0.2998 0.2268h-0.32715l-0.2998-0.2268-0.30499-0.053778-0.35929 0.11059-0.30742-0.11189-0.20414-0.31566-0.26821-0.15485-0.37544-0.018965-0.25061-0.21029-0.083871-0.36644-0.19907-0.23724-0.34631-0.14623-0.16357-0.28332 0.046518-0.37303-0.10592-0.29102-0.27541-0.25586-0.056808-0.32218 0.1713-0.33462v-0.3097l-0.1713-0.33462 0.056808-0.32218 0.27541-0.25586 0.10592-0.29102-0.046518-0.37303 0.16357-0.28332 0.34631-0.14623 0.19907-0.23724 0.083871-0.36644 0.25061-0.21029 0.37544-0.018965 0.26821-0.15485 0.20414-0.31566 0.30742-0.11189 0.35929 0.11059 0.30499-0.053778 0.2998-0.2268h0.32715l0.2998 0.2268 0.30499 0.053778 0.35929-0.11059 0.30742 0.11189 0.20414 0.31566 0.26821 0.15485 0.37544 0.018965 0.25061 0.21029 0.083871 0.36644 0.19907 0.23724 0.34631 0.14623 0.16357 0.28332-0.046518 0.37303 0.10592 0.29102 0.27541 0.25586 0.056808 0.32218z" fill="url(#id1) none"/>
        <circle id="circle404" r="3.15" fill="url(#id2) none"/>
        <circle id="circle406" r="2.35" fill="url(#id3) none"/>
      </g>
      <g id="g416" transform="translate(-19.05 93.98)">
        <path id="path410" d="m3.5466-0.15485v0.3097l0.1713 0.33462-0.056808 0.32218-0.27541 0.25586-0.10592 0.29102 0.046518 0.37303-0.16357 0.28332-0.34631 0.14623-0.19907 0.23724-0.083871 0.36644-0.25061 0.21029-0.37544 0.018965-0.26821 0.15485-0.20414 0.31566-0.30742 0.11189-0.35929-0.11059-0.30499 0.053778-0.2998 0.2268h-0.32715l-0.2998-0.2268-0.30499-0.053778-0.35929 0.11059-0.30742-0.11189-0.20414-0.31566-0.26821-0.15485-0.37544-0.018965-0.25061-0.21029-0.083871-0.36644-0.19907-0.23724-0.34631-0.14623-0.16357-0.28332 0.046518-0.37303-0.10592-0.29102-0.27541-0.25586-0.056808-0.32218 0.1713-0.33462v-0.3097l-0.1713-0.33462 0.056808-0.32218 0.27541-0.25586 0.10592-0.29102-0.046518-0.37303 0.16357-0.28332 0.34631-0.14623 0.19907-0.23724 0.083871-0.36644 0.25061-0.21029 0.37544-0.018965 0.26821-0.15485 0.20414-0.31566 0.30742-0.11189 0.35929 0.11059 0.30499-0.053778 0.2998-0.2268h0.32715l0.2998 0.2268 0.30499 0.053778 0.35929-0.11059 0.30742 0.11189 0.20414 0.31566 0.26821 0.15485 0.37544 0.018965 0.25061 0.21029 0.083871 0.36644 0.19907 0.23724 0.34631 0.14623 0.16357 0.28332-0.046518 0.37303 0.10592 0.29102 0.27541 0.25586 0.056808 0.32218z" fill="url(#id1) none"/>
        <circle id="circle412" r="3.15" fill="url(#id2) none"/>
        <circle id="circle414" r="2.35" fill="url(#id3) none"/>
      </g>
      <g id="g422" transform="translate(5.08,50.8)">
        <path id="path418" d="m5.5891-7.6949v0.1497l0.19211 0.16423-0.015635 0.15875-0.22046 0.1236-0.029205 0.14683 0.15638 0.19856-0.046306 0.15265-0.24034 0.078214-0.057288 0.13831 0.11464 0.22525-0.075196 0.14068-0.25098 0.029824-0.08317 0.12447 0.068492 0.24329-0.1012 0.12331-0.25198-0.019713-0.10585 0.10585 0.019713 0.25198-0.12331 0.1012-0.24329-0.068492-0.12447 0.08317-0.029824 0.25098-0.14068 0.075196-0.22525-0.11464-0.13831 0.057288-0.078214 0.24034-0.15265 0.046306-0.19856-0.15638-0.14683 0.029205-0.1236 0.22046-0.15875 0.015635-0.16423-0.19211h-0.1497l-0.16423 0.19211-0.15875-0.015635-0.1236-0.22046-0.14683-0.029205-0.19856 0.15638-0.15265-0.046306-0.078214-0.24034-0.13831-0.057288-0.22525 0.11464-0.14068-0.075196-0.029824-0.25098-0.12447-0.08317-0.24329 0.068492-0.12331-0.1012 0.019713-0.25198-0.10585-0.10585-0.25198 0.019713-0.1012-0.12331 0.068492-0.24329-0.08317-0.12447-0.25098-0.029824-0.075196-0.14068 0.11464-0.22525-0.057288-0.13831-0.24034-0.078214-0.046306-0.15265 0.15638-0.19856-0.029205-0.14683-0.22046-0.1236-0.015635-0.15875 0.19211-0.16423v-0.1497l-0.19211-0.16423 0.015635-0.15875 0.22046-0.1236 0.029205-0.14683-0.15638-0.19856 0.046306-0.15265 0.24034-0.078214 0.057288-0.13831-0.11464-0.22525 0.075196-0.14068 0.25098-0.029824 0.08317-0.12447-0.068492-0.24329 0.1012-0.12331 0.25198 0.019713 0.10585-0.10585-0.019713-0.25198 0.12331-0.1012 0.24329 0.068492 0.12447-0.08317 0.029824-0.25098 0.14068-0.075196 0.22525 0.11464 0.13831-0.057288 0.078214-0.24034 0.15265-0.046306 0.19856 0.15638 0.14683-0.029205 0.1236-0.22046 0.15875-0.015635 0.16423 0.19211h0.1497l0.16423-0.19211 0.15875 0.015635 0.1236 0.22046 0.14683 0.029205 0.19856-0.15638 0.15265 0.046306 0.078214 0.24034 0.13831 0.057288 0.22525-0.11464 0.14068 0.075196 0.029824 0.25098 0.12447 0.08317 0.24329-0.068492 0.12331 0.1012-0.019713 0.25198 0.10585 0.10585 0.25198-0.019713 0.1012 0.12331-0.068492 0.24329 0.08317 0.12447 0.25098 0.029824 0.075196 0.14068-0.11464 0.22525 0.057288 0.13831 0.24034 0.078214 0.046306 0.15265-0.15638 0.19856 0.029205 0.14683 0.22046 0.1236 0.015635 0.15875z" fill="url(#id14) none"/>
        <line id="line420" x1="2.54" x2=".2419" y1="-7.62" y2="-9.9181" stroke="#fff" stroke-width=".8"/>
      </g>
      <g id="g428" transform="translate(11.43,68.58)">
        <path id="path424" d="m5.5891-7.6949v0.1497l0.19211 0.16423-0.015635 0.15875-0.22046 0.1236-0.029205 0.14683 0.15638 0.19856-0.046306 0.15265-0.24034 0.078214-0.057288 0.13831 0.11464 0.22525-0.075196 0.14068-0.25098 0.029824-0.08317 0.12447 0.068492 0.24329-0.1012 0.12331-0.25198-0.019713-0.10585 0.10585 0.019713 0.25198-0.12331 0.1012-0.24329-0.068492-0.12447 0.08317-0.029824 0.25098-0.14068 0.075196-0.22525-0.11464-0.13831 0.057288-0.078214 0.24034-0.15265 0.046306-0.19856-0.15638-0.14683 0.029205-0.1236 0.22046-0.15875 0.015635-0.16423-0.19211h-0.1497l-0.16423 0.19211-0.15875-0.015635-0.1236-0.22046-0.14683-0.029205-0.19856 0.15638-0.15265-0.046306-0.078214-0.24034-0.13831-0.057288-0.22525 0.11464-0.14068-0.075196-0.029824-0.25098-0.12447-0.08317-0.24329 0.068492-0.12331-0.1012 0.019713-0.25198-0.10585-0.10585-0.25198 0.019713-0.1012-0.12331 0.068492-0.24329-0.08317-0.12447-0.25098-0.029824-0.075196-0.14068 0.11464-0.22525-0.057288-0.13831-0.24034-0.078214-0.046306-0.15265 0.15638-0.19856-0.029205-0.14683-0.22046-0.1236-0.015635-0.15875 0.19211-0.16423v-0.1497l-0.19211-0.16423 0.015635-0.15875 0.22046-0.1236 0.029205-0.14683-0.15638-0.19856 0.046306-0.15265 0.24034-0.078214 0.057288-0.13831-0.11464-0.22525 0.075196-0.14068 0.25098-0.029824 0.08317-0.12447-0.068492-0.24329 0.1012-0.12331 0.25198 0.019713 0.10585-0.10585-0.019713-0.25198 0.12331-0.1012 0.24329 0.068492 0.12447-0.08317 0.029824-0.25098 0.14068-0.075196 0.22525 0.11464 0.13831-0.057288 0.078214-0.24034 0.15265-0.046306 0.19856 0.15638 0.14683-0.029205 0.1236-0.22046 0.15875-0.015635 0.16423 0.19211h0.1497l0.16423-0.19211 0.15875 0.015635 0.1236 0.22046 0.14683 0.029205 0.19856-0.15638 0.15265 0.046306 0.078214 0.24034 0.13831 0.057288 0.22525-0.11464 0.14068 0.075196 0.029824 0.25098 0.12447 0.08317 0.24329-0.068492 0.12331 0.1012-0.019713 0.25198 0.10585 0.10585 0.25198-0.019713 0.1012 0.12331-0.068492 0.24329 0.08317 0.12447 0.25098 0.029824 0.075196 0.14068-0.11464 0.22525 0.057288 0.13831 0.24034 0.078214 0.046306 0.15265-0.15638 0.19856 0.029205 0.14683 0.22046 0.1236 0.015635 0.15875z" fill="url(#id14) none"/>
        <line id="line426" x1="2.54" x2=".2419" y1="-7.62" y2="-9.9181" stroke="#fff" stroke-width=".8"/>
      </g>
      <g id="g434" transform="translate(19.05 77.47)">
        <circle id="circle430" cy="1.27" r="2.55" fill="url(#id28) none"/>
        <ellipse id="ellipse432" transform="rotate(20 .85 -.005)" cx=".85" cy="-.005" rx="1.275" ry=".85" fill="#fff" opacity=".8"/>
      </g>
      <g id="g442" transform="translate(6.35,78.74)">
        <path id="path436" d="m3.5466-0.15485v0.3097l0.1713 0.33462-0.056808 0.32218-0.27541 0.25586-0.10592 0.29102 0.046518 0.37303-0.16357 0.28332-0.34631 0.14623-0.19907 0.23724-0.083871 0.36644-0.25061 0.21029-0.37544 0.018965-0.26821 0.15485-0.20414 0.31566-0.30742 0.11189-0.35929-0.11059-0.30499 0.053778-0.2998 0.2268h-0.32715l-0.2998-0.2268-0.30499-0.053778-0.35929 0.11059-0.30742-0.11189-0.20414-0.31566-0.26821-0.15485-0.37544-0.018965-0.25061-0.21029-0.083871-0.36644-0.19907-0.23724-0.34631-0.14623-0.16357-0.28332 0.046518-0.37303-0.10592-0.29102-0.27541-0.25586-0.056808-0.32218 0.1713-0.33462v-0.3097l-0.1713-0.33462 0.056808-0.32218 0.27541-0.25586 0.10592-0.29102-0.046518-0.37303 0.16357-0.28332 0.34631-0.14623 0.19907-0.23724 0.083871-0.36644 0.25061-0.21029 0.37544-0.018965 0.26821-0.15485 0.20414-0.31566 0.30742-0.11189 0.35929 0.11059 0.30499-0.053778 0.2998-0.2268h0.32715l0.2998 0.2268 0.30499 0.053778 0.35929-0.11059 0.30742 0.11189 0.20414 0.31566 0.26821 0.15485 0.37544 0.018965 0.25061 0.21029 0.083871 0.36644 0.19907 0.23724 0.34631 0.14623 0.16357 0.28332-0.046518 0.37303 0.10592 0.29102 0.27541 0.25586 0.056808 0.32218z" fill="url(#id1) none"/>
        <circle id="circle438" r="3.15" fill="url(#id2) none"/>
        <circle id="circle440" r="2.35" fill="url(#id3) none"/>
      </g>
      <g id="g450" transform="translate(6.35,93.98)">
        <path id="path444" d="m3.5466-0.15485v0.3097l0.1713 0.33462-0.056808 0.32218-0.27541 0.25586-0.10592 0.29102 0.046518 0.37303-0.16357 0.28332-0.34631 0.14623-0.19907 0.23724-0.083871 0.36644-0.25061 0.21029-0.37544 0.018965-0.26821 0.15485-0.20414 0.31566-0.30742 0.11189-0.35929-0.11059-0.30499 0.053778-0.2998 0.2268h-0.32715l-0.2998-0.2268-0.30499-0.053778-0.35929 0.11059-0.30742-0.11189-0.20414-0.31566-0.26821-0.15485-0.37544-0.018965-0.25061-0.21029-0.083871-0.36644-0.19907-0.23724-0.34631-0.14623-0.16357-0.28332 0.046518-0.37303-0.10592-0.29102-0.27541-0.25586-0.056808-0.32218 0.1713-0.33462v-0.3097l-0.1713-0.33462 0.056808-0.32218 0.27541-0.25586 0.10592-0.29102-0.046518-0.37303 0.16357-0.28332 0.34631-0.14623 0.19907-0.23724 0.083871-0.36644 0.25061-0.21029 0.37544-0.018965 0.26821-0.15485 0.20414-0.31566 0.30742-0.11189 0.35929 0.11059 0.30499-0.053778 0.2998-0.2268h0.32715l0.2998 0.2268 0.30499 0.053778 0.35929-0.11059 0.30742 0.11189 0.20414 0.31566 0.26821 0.15485 0.37544 0.018965 0.25061 0.21029 0.083871 0.36644 0.19907 0.23724 0.34631 0.14623 0.16357 0.28332-0.046518 0.37303 0.10592 0.29102 0.27541 0.25586 0.056808 0.32218z" fill="url(#id1) none"/>
        <circle id="circle446" r="3.15" fill="url(#id2) none"/>
        <circle id="circle448" r="2.35" fill="url(#id3) none"/>
      </g>
      <g id="g458" transform="translate(19.05 93.98)">
        <path id="path452" d="m3.5466-0.15485v0.3097l0.1713 0.33462-0.056808 0.32218-0.27541 0.25586-0.10592 0.29102 0.046518 0.37303-0.16357 0.28332-0.34631 0.14623-0.19907 0.23724-0.083871 0.36644-0.25061 0.21029-0.37544 0.018965-0.26821 0.15485-0.20414 0.31566-0.30742 0.11189-0.35929-0.11059-0.30499 0.053778-0.2998 0.2268h-0.32715l-0.2998-0.2268-0.30499-0.053778-0.35929 0.11059-0.30742-0.11189-0.20414-0.31566-0.26821-0.15485-0.37544-0.018965-0.25061-0.21029-0.083871-0.36644-0.19907-0.23724-0.34631-0.14623-0.16357-0.28332 0.046518-0.37303-0.10592-0.29102-0.27541-0.25586-0.056808-0.32218 0.1713-0.33462v-0.3097l-0.1713-0.33462 0.056808-0.32218 0.27541-0.25586 0.10592-0.29102-0.046518-0.37303 0.16357-0.28332 0.34631-0.14623 0.19907-0.23724 0.083871-0.36644 0.25061-0.21029 0.37544-0.018965 0.26821-0.15485 0.20414-0.31566 0.30742-0.11189 0.35929 0.11059 0.30499-0.053778 0.2998-0.2268h0.32715l0.2998 0.2268 0.30499 0.053778 0.35929-0.11059 0.30742 0.11189 0.20414 0.31566 0.26821 0.15485 0.37544 0.018965 0.25061 0.21029 0.083871 0.36644 0.19907 0.23724 0.34631 0.14623 0.16357 0.28332-0.046518 0.37303 0.10592 0.29102 0.27541 0.25586 0.056808 0.32218z" fill="url(#id1) none"/>
        <circle id="circle454" r="3.15" fill="url(#id2) none"/>
        <circle id="circle456" r="2.35" fill="url(#id3) none"/>
      </g>
      <g id="g466" transform="translate(0 60.96)">
        <path id="path460" d="m3.5466-0.15485v0.3097l0.1713 0.33462-0.056808 0.32218-0.27541 0.25586-0.10592 0.29102 0.046518 0.37303-0.16357 0.28332-0.34631 0.14623-0.19907 0.23724-0.083871 0.36644-0.25061 0.21029-0.37544 0.018965-0.26821 0.15485-0.20414 0.31566-0.30742 0.11189-0.35929-0.11059-0.30499 0.053778-0.2998 0.2268h-0.32715l-0.2998-0.2268-0.30499-0.053778-0.35929 0.11059-0.30742-0.11189-0.20414-0.31566-0.26821-0.15485-0.37544-0.018965-0.25061-0.21029-0.083871-0.36644-0.19907-0.23724-0.34631-0.14623-0.16357-0.28332 0.046518-0.37303-0.10592-0.29102-0.27541-0.25586-0.056808-0.32218 0.1713-0.33462v-0.3097l-0.1713-0.33462 0.056808-0.32218 0.27541-0.25586 0.10592-0.29102-0.046518-0.37303 0.16357-0.28332 0.34631-0.14623 0.19907-0.23724 0.083871-0.36644 0.25061-0.21029 0.37544-0.018965 0.26821-0.15485 0.20414-0.31566 0.30742-0.11189 0.35929 0.11059 0.30499-0.053778 0.2998-0.2268h0.32715l0.2998 0.2268 0.30499 0.053778 0.35929-0.11059 0.30742 0.11189 0.20414 0.31566 0.26821 0.15485 0.37544 0.018965 0.25061 0.21029 0.083871 0.36644 0.19907 0.23724 0.34631 0.14623 0.16357 0.28332-0.046518 0.37303 0.10592 0.29102 0.27541 0.25586 0.056808 0.32218z" fill="url(#id1) none"/>
        <circle id="circle462" r="3.15" fill="url(#id2) none"/>
        <circle id="circle464" r="2.35" fill="url(#id3) none"/>
      </g>
    </g>
  </g>
</svg>
