<svg xmlns:inkscape="http://www.inkscape.org/namespaces/inkscape" xmlns:sodipodi="http://sodipodi.sourceforge.net/DTD/sodipodi-0.dtd" xmlns="http://www.w3.org/2000/svg" xmlns:svg="http://www.w3.org/2000/svg" height="128.5mm" version="1.1" viewBox="0,0,50.3,128.5" width="50.3mm" id="svg206" sodipodi:docname="rng_faceplate.svg" inkscape:version="1.1.2 (0a00cf5339, 2022-02-04)">
  <sodipodi:namedview id="namedview208" pagecolor="#ffffff" bordercolor="#666666" borderopacity="1.0" inkscape:pageshadow="2" inkscape:pageopacity="0.0" inkscape:pagecheckerboard="0" inkscape:document-units="mm" showgrid="false" inkscape:zoom="1.5710279" inkscape:cx="94.842365" inkscape:cy="242.83465" inkscape:window-width="1495" inkscape:window-height="972" inkscape:window-x="0" inkscape:window-y="32" inkscape:window-maximized="0" inkscape:current-layer="svg206"/>
  <defs id="defs3">
    </defs>
  <rect fill="white" height="128.5" id="background" width="50.3" x="0" y="0"/>
  <g fill="none" id="outline" stroke="black">
    <line stroke="black" stroke-width="1" x1="0" x2="0" y1="-3" y2="3" id="line6"/>
    <line stroke="black" stroke-width="1" x1="-3" x2="3" y1="0" y2="0" id="line8"/>
    <line stroke="black" stroke-width="1" x1="53.3" x2="47.3" y1="0" y2="0" id="line10"/>
    <line stroke="black" stroke-width="1" x1="50.3" x2="50.3" y1="-3" y2="3" id="line12"/>
    <line stroke="black" stroke-width="1" x1="0" x2="0" y1="131.5" y2="125.5" id="line14"/>
    <line stroke="black" stroke-width="1" x1="-3" x2="3" y1="128.5" y2="128.5" id="line16"/>
    <line stroke="black" stroke-width="1" x1="50.3" x2="50.3" y1="131.5" y2="125.5" id="line18"/>
    <line stroke="black" stroke-width="1" x1="53.3" x2="47.3" y1="128.5" y2="128.5" id="line20"/>
  </g>
  <g font-family="Ubuntu" font-size="3" id="stencil">
    <path d="m 22.202506,3.55 q 0.08,0.1 0.2,0.265 0.125,0.16 0.255,0.36 0.13,0.195 0.255,0.41 0.13,0.215 0.22,0.415 h -0.53 q -0.1,-0.19 -0.22,-0.385 -0.115,-0.195 -0.235,-0.37 -0.12,-0.18 -0.24,-0.335 -0.115,-0.155 -0.21,-0.27 -0.065,0.005 -0.135,0.005 -0.065,0 -0.135,0 h -0.435 V 5 h -0.485 V 1.585 q 0.205,-0.05 0.455,-0.065 0.255,-0.02 0.465,-0.02 0.73,0 1.11,0.275 0.385,0.275 0.385,0.82 0,0.345 -0.185,0.59 -0.18,0.245 -0.535,0.365 z m -0.735,-1.625 q -0.31,0 -0.475,0.015 v 1.305 h 0.345 q 0.25,0 0.45,-0.025 0.2,-0.025 0.335,-0.095 0.14,-0.07 0.215,-0.195 0.075,-0.13 0.075,-0.34 0,-0.195 -0.075,-0.325 -0.075,-0.13 -0.205,-0.205 -0.125,-0.075 -0.3,-0.105 -0.17,-0.03 -0.365,-0.03 z" id="path1028" style="font-size:5px;text-anchor:middle"/>
    <path d="m 26.027505,5 q -0.11,-0.185 -0.255,-0.415 -0.14,-0.23 -0.305,-0.475 -0.165,-0.25 -0.345,-0.505 -0.175,-0.255 -0.35,-0.49 -0.175,-0.24 -0.34,-0.45 -0.165,-0.21 -0.305,-0.37 V 5 h -0.475 V 1.535 h 0.385 q 0.235,0.25 0.5,0.585 0.27,0.33 0.53,0.685 0.265,0.35 0.495,0.69 0.235,0.34 0.395,0.605 V 1.535 h 0.475 V 5 Z" id="path1030" style="font-size:5px;text-anchor:middle"/>
    <path d="m 29.407498,3.295 h 0.485 v 1.62 q -0.06,0.02 -0.175,0.045 -0.11,0.025 -0.26,0.05 -0.145,0.025 -0.32,0.04 -0.175,0.02 -0.355,0.02 -0.365,0 -0.665,-0.12 -0.3,-0.12 -0.515,-0.35 -0.215,-0.23 -0.335,-0.565 -0.115,-0.335 -0.115,-0.77 0,-0.435 0.13,-0.77 0.135,-0.34 0.36,-0.57 0.225,-0.23 0.525,-0.35 0.305,-0.12 0.65,-0.12 0.235,0 0.415,0.03 0.185,0.03 0.315,0.07 0.13,0.04 0.21,0.08 0.085,0.04 0.115,0.06 l -0.155,0.405 q -0.145,-0.095 -0.385,-0.155 -0.24,-0.065 -0.49,-0.065 -0.265,0 -0.485,0.095 -0.215,0.095 -0.37,0.275 -0.15,0.18 -0.235,0.44 -0.085,0.255 -0.085,0.575 0,0.31 0.07,0.565 0.075,0.255 0.22,0.44 0.15,0.18 0.365,0.28 0.22,0.1 0.515,0.1 0.21,0 0.355,-0.02 0.15,-0.025 0.215,-0.045 z" id="path1032" style="font-size:5px;text-anchor:middle"/>
    <path d="M 23.273995,0 C 10.46956,0 0,10.46956 0,23.273995 0,36.078431 10.46956,46.54799 23.273995,46.54799 c 6.2817,0 11.379649,-2.548635 15.730632,-6.245496 1.538657,-1.307338 3.076198,-2.787732 4.658303,-4.38762 l -0.0086,-5.869298 -5.989355,0.0026 c -1.483874,1.505733 -2.846746,2.828266 -4.080397,3.876451 -3.512556,2.984484 -6.049447,4.254142 -10.310608,4.254142 -8.281306,0 -14.9047822,-6.623476 -14.9047822,-14.904783 0,-8.281306 6.6234762,-14.9047823 14.9047822,-14.9047823 4.261161,0 6.798052,1.2696585 10.310608,4.2541413 1.233651,1.048185 2.596523,2.370718 4.080397,3.876452 l 5.989355,0.0026 0.0086,-5.869304 C 42.080825,9.0332294 40.543284,7.5528356 39.004627,6.2454977 34.653644,2.5486366 29.555695,0 23.273995,0 Z M 76.724807,0 C 70.443279,1.0197146e-4 65.345444,2.5487105 60.99455,6.2454977 59.387003,7.6113677 57.781031,9.1642634 56.123352,10.847502 H 68.695628 C 71.17209,9.1299217 73.43594,8.3692721 76.724807,8.369213 h 3.82e-4 c 6.200192,0 11.470469,3.712943 13.728089,9.054499 l -6.041554,-0.07531 -8.585089,-3.079684 -28.740996,3.81e-4 v 5.645584 H 24.399983 v 6.718636 h 22.685649 v 5.645592 l 28.740995,3.82e-4 8.58509,-3.079684 6.041553,-0.07531 c -2.25762,5.341544 -7.527894,9.054489 -13.728089,9.054489 h -3.82e-4 c -3.288867,-5.9e-5 -5.552715,-0.760709 -8.029179,-2.47829 H 56.123352 c 1.657679,1.68324 3.263651,3.236135 4.871198,4.602006 4.350894,3.696786 9.448729,6.245395 15.730257,6.245496 h 3.82e-4 C 89.52963,46.548 99.999184,36.07844 99.999184,23.274005 99.999176,10.46956 89.52962,0 76.725181,0 Z m -59.711596,19.295384 -2.890653,3.978611 2.890653,3.978612 4.677319,-1.51971 v -4.917803 z" transform="translate(17.65, 119.5) scale(0.15)" id="path25"/>
    <g transform="translate(6.1,12.54)" id="g27"/>
    <g transform="translate(12.45,12.54)" id="g29"/>
    <g transform="translate(18.8,12.54)" id="g31"/>
    <g transform="translate(25.15,12.54)" id="g33"/>
    <g transform="translate(31.5,12.54)" id="g35"/>
    <g transform="translate(37.85,12.54)" id="g37"/>
    <g transform="translate(44.2,12.54)" id="g39"/>
    <g transform="translate(9.91,35.4)" id="g43">
      <path d="m -0.43149228,4.4250001 q -0.219,0 -0.399,-0.072 -0.18000002,-0.072 -0.30900002,-0.21 -0.129,-0.138 -0.201,-0.339 -0.069,-0.204 -0.069,-0.465 0,-0.261 0.078,-0.462 0.081,-0.204 0.216,-0.342 0.13500002,-0.138 0.31500002,-0.21 0.18,-0.072 0.384,-0.072 0.129,0 0.231,0.018 0.105,0.018 0.18,0.042 0.078,0.024 0.126,0.048 0.048,0.024 0.066,0.036 l -0.084,0.24 q -0.027,-0.018 -0.078,-0.039 -0.051,-0.021 -0.117,-0.042 -0.063,-0.021 -0.141,-0.033 -0.075,-0.015 -0.153,-0.015 -0.165,0 -0.297,0.057 -0.132,0.057 -0.225,0.165 -0.093,0.108 -0.14400002,0.264 -0.048,0.153 -0.048,0.345 0,0.186 0.042,0.339 0.045,0.153 0.13200002,0.264 0.087,0.108 0.216,0.168 0.132,0.06 0.306,0.06 0.201,0 0.333,-0.042 0.132,-0.042 0.198,-0.075 l 0.075,0.24 q -0.021,0.015 -0.075,0.039 -0.054,0.021 -0.135,0.042 -0.081,0.021 -0.189,0.036 -0.108,0.015 -0.234,0.015 z" id="path1035" style="text-anchor:middle"/>
      <path d="m 0.51650452,4.3800001 v -2.28 l 0.279,-0.048 v 0.798 q 0.078,-0.03 0.165,-0.045 0.09,-0.018 0.17699998,-0.018 0.186,0 0.309,0.054 0.123,0.051 0.195,0.147 0.075,0.093 0.105,0.225 0.03,0.132 0.03,0.291 v 0.876 h -0.279 v -0.816 q 0,-0.144 -0.021,-0.246 -0.018,-0.102 -0.063,-0.165 -0.045,-0.063 -0.12,-0.09 -0.075,-0.03 -0.186,-0.03 -0.045,0 -0.093,0.006 -0.048,0.006 -0.093,0.015 -0.042,0.006 -0.078,0.015 -0.033,0.009 -0.048,0.015 v 1.296 z" id="path1037" style="text-anchor:middle"/>
      <path d="m 2.757502,4.1790001 q 0.099,0 0.174,-0.003 0.078,-0.006 0.129,-0.018 v -0.465 q -0.03,-0.015 -0.099,-0.024 -0.066,-0.012 -0.162,-0.012 -0.063,0 -0.135,0.009 -0.069,0.009 -0.129,0.039 -0.057,0.027 -0.096,0.078 -0.039,0.048 -0.039,0.129 0,0.15 0.096,0.21 0.096,0.057 0.261,0.057 z m -0.024,-1.398 q 0.168,0 0.282,0.045 0.117,0.042 0.186,0.123 0.072,0.078 0.102,0.189 0.03,0.108 0.03,0.24 v 0.975 q -0.036,0.006 -0.102,0.018 -0.063,0.009 -0.144,0.018 -0.081,0.009 -0.177,0.015 -0.093,0.009 -0.186,0.009 -0.132,0 -0.243,-0.027 -0.111,-0.027 -0.192,-0.084 -0.081,-0.06 -0.126,-0.156 -0.045,-0.096 -0.045,-0.231 0,-0.129 0.051,-0.222 0.054,-0.093 0.144,-0.15 0.09,-0.057 0.21,-0.084 0.12,-0.027 0.252,-0.027 0.042,0 0.087,0.006 0.045,0.003 0.084,0.012 0.042,0.006 0.072,0.012 0.03,0.006 0.042,0.009 v -0.078 q 0,-0.069 -0.015,-0.135 -0.015,-0.069 -0.054,-0.12 -0.039,-0.054 -0.108,-0.084 -0.066,-0.033 -0.174,-0.033 -0.138,0 -0.243,0.021 -0.102,0.018 -0.153,0.039 l -0.033,-0.231 q 0.054,-0.024 0.18,-0.045 0.126,-0.024 0.273,-0.024 z" id="path1039" style="text-anchor:middle"/>
      <path d="m 5.1725,3.6000001 q 0,0.186 -0.054,0.336 -0.054,0.15 -0.153,0.258 -0.096,0.108 -0.231,0.168 -0.135,0.057 -0.294,0.057 -0.159,0 -0.294,-0.057 -0.135,-0.06 -0.234,-0.168 -0.096,-0.108 -0.15,-0.258 -0.054,-0.15 -0.054,-0.336 0,-0.183 0.054,-0.333 0.054,-0.153 0.15,-0.261 0.099,-0.108 0.234,-0.165 0.135,-0.06 0.294,-0.06 0.159,0 0.294,0.06 0.135,0.057 0.231,0.165 0.099,0.108 0.153,0.261 0.054,0.15 0.054,0.333 z m -0.291,0 q 0,-0.264 -0.12,-0.417 -0.117,-0.156 -0.321,-0.156 -0.204,0 -0.324,0.156 -0.117,0.153 -0.117,0.417 0,0.264 0.117,0.42 0.12,0.153 0.324,0.153 0.204,0 0.321,-0.153 0.12,-0.156 0.12,-0.42 z" id="path1041" style="text-anchor:middle"/>
      <path d="m 5.9284948,4.1790001 q 0.171,0 0.252,-0.045 0.084,-0.045 0.084,-0.144 0,-0.102 -0.081,-0.162 -0.081,-0.06 -0.267,-0.135 -0.09,-0.036 -0.174,-0.072 -0.081,-0.039 -0.141,-0.09 -0.06,-0.051 -0.096,-0.123 -0.036,-0.072 -0.036,-0.177 0,-0.207 0.153,-0.327 0.153,-0.123 0.417,-0.123 0.066,0 0.132,0.009 0.066,0.006 0.123,0.018 0.057,0.009 0.099,0.021 0.045,0.012 0.069,0.021 l -0.051,0.24 q -0.045,-0.024 -0.141,-0.048 -0.096,-0.027 -0.231,-0.027 -0.117,0 -0.204,0.048 -0.087,0.045 -0.087,0.144 0,0.051 0.018,0.09 0.021,0.039 0.06,0.072 0.042,0.03 0.102,0.057 0.06,0.027 0.144,0.057 0.111,0.042 0.198,0.084 0.087,0.039 0.147,0.093 0.063,0.054 0.096,0.132 0.033,0.075 0.033,0.186 0,0.216 -0.162,0.327 -0.159,0.111 -0.456,0.111 -0.207,0 -0.324,-0.036 -0.117,-0.033 -0.159,-0.051 l 0.051,-0.24 q 0.048,0.018 0.153,0.054 0.105,0.036 0.279,0.036 z" id="path1043" style="text-anchor:middle"/>
    </g>
    <g transform="translate(35.31,35.4)" id="g47">
      <path d="m 0.8300101,2.3010001 v 0.252 h -0.654 v 1.827 h -0.291 v -1.827 h -0.654 v -0.252 z" id="path1046" style="text-anchor:middle"/>
      <path d="m 1.397006,4.3800001 h -0.279 v -1.56 h 0.279 z m -0.141,-1.842 q -0.075,0 -0.129,-0.048 -0.051,-0.051 -0.051,-0.135 0,-0.084 0.051,-0.132 0.054,-0.051 0.129,-0.051 0.075,0 0.126,0.051 0.054,0.048 0.054,0.132 0,0.084 -0.054,0.135 -0.051,0.048 -0.126,0.048 z" id="path1048" style="text-anchor:middle"/>
      <path d="m 1.877001,2.8650001 q 0.096,-0.024 0.252,-0.051 0.159,-0.027 0.366,-0.027 0.15,0 0.252,0.042 0.102,0.039 0.171,0.117 0.021,-0.015 0.066,-0.042 0.045,-0.027 0.111,-0.051 0.066,-0.027 0.147,-0.045 0.081,-0.021 0.174,-0.021 0.18,0 0.294,0.054 0.114,0.051 0.177,0.147 0.066,0.096 0.087,0.228 0.024,0.132 0.024,0.288 v 0.876 h -0.279 v -0.816 q 0,-0.138 -0.015,-0.237 -0.012,-0.099 -0.051,-0.165 -0.036,-0.066 -0.102,-0.096 -0.063,-0.033 -0.165,-0.033 -0.141,0 -0.234,0.039 -0.09,0.036 -0.123,0.066 0.024,0.078 0.036,0.171 0.012,0.093 0.012,0.195 v 0.876 h -0.279 v -0.816 q 0,-0.138 -0.015,-0.237 -0.015,-0.099 -0.054,-0.165 -0.036,-0.066 -0.102,-0.096 -0.063,-0.033 -0.162,-0.033 -0.042,0 -0.09,0.003 -0.048,0.003 -0.093,0.009 -0.042,0.003 -0.078,0.009 -0.036,0.006 -0.048,0.009 v 1.317 h -0.279 z" id="path1050" style="text-anchor:middle"/>
      <path d="m 4.3729955,3.6030001 q 0,-0.207 0.06,-0.36 0.06,-0.156 0.159,-0.258 0.099,-0.102 0.228,-0.153 0.129,-0.051 0.264,-0.051 0.315,0 0.483,0.198 0.168,0.195 0.168,0.597 0,0.018 0,0.048 0,0.027 -0.003,0.051 h -1.068 q 0.018,0.243 0.141,0.369 0.123,0.126 0.384,0.126 0.147,0 0.246,-0.024 0.102,-0.027 0.153,-0.051 l 0.039,0.234 q -0.051,0.027 -0.18,0.057 -0.126,0.03 -0.288,0.03 -0.204,0 -0.354,-0.06 -0.147,-0.063 -0.243,-0.171 -0.096,-0.108 -0.144,-0.255 -0.045,-0.15 -0.045,-0.327 z m 1.071,-0.153 q 0.003,-0.189 -0.096,-0.309 -0.096,-0.123 -0.267,-0.123 -0.096,0 -0.171,0.039 -0.072,0.036 -0.123,0.096 -0.051,0.06 -0.081,0.138 -0.027,0.078 -0.036,0.159 z" id="path1052" style="text-anchor:middle"/>
    </g>
    <g transform="translate(9.91,60.8)" id="g51">
      <path d="m -1.4844915,4.1730001 q 0.456,0 0.456,-0.312 0,-0.096 -0.042,-0.162 -0.039,-0.069 -0.108,-0.117 -0.069,-0.051 -0.159,-0.087 -0.087,-0.036 -0.186,-0.072 -0.114,-0.039 -0.216,-0.087 -0.102,-0.051 -0.177,-0.117 -0.075,-0.069 -0.12,-0.162 -0.042,-0.093 -0.042,-0.225 0,-0.273 0.186,-0.426 0.186,-0.153 0.513,-0.153 0.189,0 0.342,0.042 0.15599998,0.039 0.22799998,0.087 l -0.093,0.237 q -0.063,-0.039 -0.18899998,-0.075 -0.123,-0.039 -0.288,-0.039 -0.084,0 -0.156,0.018 -0.072,0.018 -0.126,0.054 -0.054,0.036 -0.087,0.093 -0.03,0.054 -0.03,0.129 0,0.084 0.033,0.141 0.033,0.057 0.093,0.102 0.06,0.042 0.138,0.078 0.081,0.036 0.177,0.072 0.135,0.054 0.246,0.108 0.11399998,0.054 0.19499998,0.129 0.084,0.075 0.129,0.18 0.045,0.102 0.045,0.249 0,0.273 -0.201,0.42 -0.19799998,0.147 -0.56099998,0.147 -0.123,0 -0.228,-0.018 -0.102,-0.015 -0.183,-0.036 -0.081,-0.024 -0.141,-0.048 -0.057,-0.027 -0.09,-0.045 l 0.087,-0.24 q 0.069,0.039 0.21,0.087 0.141,0.048 0.345,0.048 z" id="path1055" style="text-anchor:middle"/>
      <path d="m 0.69350724,3.6030001 q 0,-0.273 -0.135,-0.42 -0.135,-0.147 -0.36,-0.147 -0.126,0 -0.1979999997,0.009 -0.0690000003,0.009 -0.1110000003,0.021 v 0.984 q 0.051,0.042 0.147,0.081 0.096,0.039 0.21,0.039 0.12,0 0.204,-0.042 0.087,-0.045 0.141,-0.12 0.054,-0.078 0.078,-0.18 0.024,-0.105 0.024,-0.225 z m 0.291,0 q 0,0.177 -0.048,0.327 -0.045,0.15 -0.135,0.258 -0.09,0.108 -0.222,0.168 -0.129,0.06 -0.297,0.06 -0.135,0 -0.24,-0.036 -0.102,-0.036 -0.153,-0.069 v 0.624 h -0.279 v -2.067 q 0.099,-0.024 0.246,-0.051 0.15,-0.03 0.345,-0.03 0.18,0 0.324,0.057 0.144,0.057 0.246,0.162 0.102,0.105 0.156,0.258 0.057,0.15 0.057,0.339 z" id="path1057" style="text-anchor:middle"/>
      <path d="m 1.9535036,2.7870001 q 0.036,0 0.081,0.006 0.048,0.003 0.093,0.012 0.045,0.006 0.081,0.015 0.039,0.006 0.057,0.012 l -0.048,0.243 q -0.033,-0.012 -0.111,-0.027 -0.075,-0.018 -0.195,-0.018 -0.078,0 -0.156,0.018 -0.075,0.015 -0.099,0.021 v 1.311 h -0.279 v -1.494 q 0.099,-0.036 0.246,-0.066 0.147,-0.033 0.33,-0.033 z" id="path1059" style="text-anchor:middle"/>
      <path d="m 2.4485027,3.6030001 q 0,-0.207 0.06,-0.36 0.06,-0.156 0.159,-0.258 0.099,-0.102 0.228,-0.153 0.129,-0.051 0.264,-0.051 0.315,0 0.483,0.198 0.168,0.195 0.168,0.597 0,0.018 0,0.048 0,0.027 -0.003,0.051 h -1.068 q 0.018,0.243 0.141,0.369 0.123,0.126 0.384,0.126 0.147,0 0.246,-0.024 0.102,-0.027 0.153,-0.051 l 0.039,0.234 q -0.051,0.027 -0.18,0.057 -0.126,0.03 -0.288,0.03 -0.204,0 -0.354,-0.06 -0.147,-0.063 -0.243,-0.171 -0.096,-0.108 -0.144,-0.255 -0.045,-0.15 -0.045,-0.327 z m 1.071,-0.153 q 0.003,-0.189 -0.096,-0.309 -0.096,-0.123 -0.267,-0.123 -0.096,0 -0.171,0.039 -0.072,0.036 -0.123,0.096 -0.051,0.06 -0.081,0.138 -0.027,0.078 -0.036,0.159 z" id="path1061" style="text-anchor:middle"/>
      <path d="m 4.740497,4.1790001 q 0.099,0 0.174,-0.003 0.078,-0.006 0.129,-0.018 v -0.465 q -0.03,-0.015 -0.099,-0.024 -0.066,-0.012 -0.162,-0.012 -0.063,0 -0.135,0.009 -0.069,0.009 -0.129,0.039 -0.057,0.027 -0.096,0.078 -0.039,0.048 -0.039,0.129 0,0.15 0.096,0.21 0.096,0.057 0.261,0.057 z m -0.024,-1.398 q 0.168,0 0.282,0.045 0.117,0.042 0.186,0.123 0.072,0.078 0.102,0.189 0.03,0.108 0.03,0.24 v 0.975 q -0.036,0.006 -0.102,0.018 -0.063,0.009 -0.144,0.018 -0.081,0.009 -0.177,0.015 -0.093,0.009 -0.186,0.009 -0.132,0 -0.243,-0.027 -0.111,-0.027 -0.192,-0.084 -0.081,-0.06 -0.126,-0.156 -0.045,-0.096 -0.045,-0.231 0,-0.129 0.051,-0.222 0.054,-0.093 0.144,-0.15 0.09,-0.057 0.21,-0.084 0.12,-0.027 0.252,-0.027 0.042,0 0.087,0.006 0.045,0.003 0.084,0.012 0.042,0.006 0.072,0.012 0.03,0.006 0.042,0.009 v -0.078 q 0,-0.069 -0.015,-0.135 -0.015,-0.069 -0.054,-0.12 -0.039,-0.054 -0.108,-0.084 -0.066,-0.033 -0.174,-0.033 -0.138,0 -0.243,0.021 -0.102,0.018 -0.153,0.039 l -0.033,-0.231 q 0.054,-0.024 0.18,-0.045 0.126,-0.024 0.273,-0.024 z" id="path1063" style="text-anchor:middle"/>
      <path d="m 6.7864951,3.1500001 q -0.051,-0.042 -0.147,-0.081 -0.096,-0.039 -0.21,-0.039 -0.12,0 -0.207,0.045 -0.084,0.042 -0.138,0.12 -0.054,0.075 -0.078,0.18 -0.024,0.105 -0.024,0.225 0,0.273 0.135,0.423 0.135,0.147 0.36,0.147 0.114,0 0.189,-0.009 0.078,-0.012 0.12,-0.024 z m 0,-1.05 0.279,-0.048 v 2.283 q -0.096,0.027 -0.246,0.054 -0.15,0.027 -0.345,0.027 -0.18,0 -0.324,-0.057 -0.144,-0.057 -0.246,-0.162 -0.102,-0.105 -0.159,-0.255 -0.054,-0.153 -0.054,-0.342 0,-0.18 0.045,-0.33 0.048,-0.15 0.138,-0.258 0.09,-0.108 0.219,-0.168 0.132,-0.06 0.3,-0.06 0.135,0 0.237,0.036 0.105,0.036 0.156,0.069 z" id="path1065" style="text-anchor:middle"/>
    </g>
    <g transform="translate(35.31,60.8)" id="g55">
      <path d="m 0.5630052,4.3980001 q -0.063,0 -0.138,-0.003 -0.072,-0.003 -0.147,-0.009 -0.072,-0.006 -0.144,-0.015 -0.072,-0.009 -0.132,-0.024 v -2.016 q 0.06,-0.015 0.132,-0.024 0.072,-0.009 0.144,-0.015 0.075,-0.006 0.147,-0.009 0.072,-0.003 0.135,-0.003 0.18,0 0.336,0.027 0.159,0.027 0.273,0.093 0.117,0.063 0.183,0.168 0.066,0.105 0.066,0.258 0,0.171 -0.081,0.282 -0.081,0.108 -0.216,0.162 0.183,0.054 0.291,0.171 0.108,0.117 0.108,0.33 0,0.312 -0.231,0.471 -0.228,0.156 -0.726,0.156 z m -0.273,-0.987 v 0.732 q 0.033,0.003 0.078,0.006 0.039,0.003 0.09,0.006 0.054,0 0.123,0 0.129,0 0.243,-0.015 0.117,-0.018 0.204,-0.06 0.087,-0.042 0.138,-0.117 0.054,-0.075 0.054,-0.189 0,-0.102 -0.039,-0.171 -0.039,-0.072 -0.114,-0.114 -0.072,-0.042 -0.174,-0.06 -0.102,-0.018 -0.228,-0.018 z m 0,-0.234 h 0.306 q 0.108,0 0.204,-0.015 0.096,-0.015 0.165,-0.054 0.072,-0.039 0.111,-0.102 0.042,-0.063 0.042,-0.159 0,-0.09 -0.042,-0.15 -0.042,-0.063 -0.117,-0.099 -0.072,-0.039 -0.171,-0.057 -0.099,-0.018 -0.21,-0.018 -0.111,0 -0.174,0.003 -0.063,0.003 -0.114,0.009 z" id="path1068" style="text-anchor:middle"/>
      <path d="m 2.1920042,4.3800001 h -0.279 v -1.56 h 0.279 z m -0.141,-1.842 q -0.075,0 -0.129,-0.048 -0.051,-0.051 -0.051,-0.135 0,-0.084 0.051,-0.132 0.054,-0.051 0.129,-0.051 0.075,0 0.126,0.051 0.054,0.048 0.054,0.132 0,0.084 -0.054,0.135 -0.051,0.048 -0.126,0.048 z" id="path1070" style="text-anchor:middle"/>
      <path d="m 3.1999992,4.1790001 q 0.099,0 0.174,-0.003 0.078,-0.006 0.129,-0.018 v -0.465 q -0.03,-0.015 -0.099,-0.024 -0.066,-0.012 -0.162,-0.012 -0.063,0 -0.135,0.009 -0.069,0.009 -0.129,0.039 -0.057,0.027 -0.096,0.078 -0.039,0.048 -0.039,0.129 0,0.15 0.096,0.21 0.096,0.057 0.261,0.057 z m -0.024,-1.398 q 0.168,0 0.282,0.045 0.117,0.042 0.186,0.123 0.072,0.078 0.102,0.189 0.03,0.108 0.03,0.24 v 0.975 q -0.036,0.006 -0.102,0.018 -0.063,0.009 -0.144,0.018 -0.081,0.009 -0.177,0.015 -0.093,0.009 -0.186,0.009 -0.132,0 -0.243,-0.027 -0.111,-0.027 -0.192,-0.084 -0.081,-0.06 -0.126,-0.156 -0.045,-0.096 -0.045,-0.231 0,-0.129 0.051,-0.222 0.054,-0.093 0.144,-0.15 0.09,-0.057 0.21,-0.084 0.12,-0.027 0.252,-0.027 0.042,0 0.087,0.006 0.045,0.003 0.084,0.012 0.042,0.006 0.072,0.012 0.03,0.006 0.042,0.009 v -0.078 q 0,-0.069 -0.015,-0.135 -0.015,-0.069 -0.054,-0.12 -0.039,-0.054 -0.108,-0.084 -0.066,-0.033 -0.174,-0.033 -0.138,0 -0.243,0.021 -0.102,0.018 -0.153,0.039 l -0.033,-0.231 q 0.054,-0.024 0.18,-0.045 0.126,-0.024 0.273,-0.024 z" id="path1072" style="text-anchor:middle"/>
      <path d="m 4.6009973,4.1790001 q 0.171,0 0.252,-0.045 0.084,-0.045 0.084,-0.144 0,-0.102 -0.081,-0.162 -0.081,-0.06 -0.267,-0.135 -0.09,-0.036 -0.174,-0.072 -0.081,-0.039 -0.141,-0.09 -0.06,-0.051 -0.096,-0.123 -0.036,-0.072 -0.036,-0.177 0,-0.207 0.153,-0.327 0.153,-0.123 0.417,-0.123 0.066,0 0.132,0.009 0.066,0.006 0.123,0.018 0.057,0.009 0.099,0.021 0.045,0.012 0.069,0.021 l -0.051,0.24 q -0.045,-0.024 -0.141,-0.048 -0.096,-0.027 -0.231,-0.027 -0.117,0 -0.204,0.048 -0.087,0.045 -0.087,0.144 0,0.051 0.018,0.09 0.021,0.039 0.06,0.072 0.042,0.03 0.102,0.057 0.06,0.027 0.144,0.057 0.111,0.042 0.198,0.084 0.087,0.039 0.147,0.093 0.063,0.054 0.096,0.132 0.033,0.075 0.033,0.186 0,0.216 -0.162,0.327 -0.159,0.111 -0.456,0.111 -0.207,0 -0.324,-0.036 -0.117,-0.033 -0.159,-0.051 l 0.051,-0.24 q 0.048,0.018 0.153,0.054 0.105,0.036 0.279,0.036 z" id="path1074" style="text-anchor:middle"/>
    </g>
    <g transform="translate(12.45,73.5)" id="g61">
      <path d="m -9.2404962,1.545 q -0.204,0 -0.354,-0.063 -0.15,-0.063 -0.246,-0.171 -0.096,-0.111 -0.144,-0.261 -0.045,-0.15 -0.045,-0.324 v -1.305 h 0.290999 v 1.272 q 0,0.312 0.138,0.453 0.138,0.141 0.36,0.141 0.111,0 0.201,-0.033 0.093,-0.036 0.159,-0.108 0.066,-0.072 0.102,-0.183 0.036,-0.114 0.036,-0.27 v -1.272 h 0.291 v 1.305 q 0,0.174 -0.048,0.324 -0.045,0.15 -0.144,0.261 -0.096,0.108 -0.246,0.171 -0.147,0.063 -0.3509992,0.063 z" id="path1077" style="text-anchor:middle"/>
      <path d="m -7.968497,-0.015 q 0.096,-0.024 0.255,-0.051 0.159,-0.027 0.366,-0.027 0.186,0 0.309,0.054 0.123,0.051 0.195,0.147 0.075,0.093 0.105,0.225 0.03,0.132 0.03,0.291 V 1.5 h -0.279 V 0.684 q 0,-0.144 -0.021,-0.246 -0.018,-0.102 -0.063,-0.165 -0.045,-0.063 -0.12,-0.09 -0.075,-0.03 -0.186,-0.03 -0.045,0 -0.093,0.003 -0.048,0.003 -0.093,0.009 -0.042,0.003 -0.078,0.009 -0.033,0.006 -0.048,0.009 V 1.5 h -0.279 z" id="path1079" style="text-anchor:middle"/>
      <path d="m -5.9674988,1.5 h -0.279 v -1.56 h 0.279 z m -0.141,-1.842 q -0.075,0 -0.129,-0.048 -0.051,-0.051 -0.051,-0.135 0,-0.084 0.051,-0.132 0.054,-0.051 0.129,-0.051 0.075,0 0.126,0.051 0.054,0.048 0.054,0.132 0,0.084 -0.054,0.135 -0.051,0.048 -0.126,0.048 z" id="path1081" style="text-anchor:middle"/>
      <path d="m 7.475003,1.518 q -0.063,0 -0.138,-0.003 -0.072,-0.003 -0.147,-0.009 -0.072,-0.006 -0.144,-0.015 -0.072,-0.009 -0.132,-0.024 v -2.016 q 0.06,-0.015 0.132,-0.024 0.072,-0.009 0.144,-0.015 0.075,-0.006 0.147,-0.009 0.072,-0.003 0.135,-0.003 0.18,0 0.336,0.027 0.159,0.027 0.273,0.093 0.117,0.063 0.183,0.168 0.066,0.105 0.066,0.258 0,0.171 -0.081,0.282 -0.081,0.108 -0.216,0.162 0.183,0.054 0.291,0.171 0.108,0.117 0.108,0.33 0,0.312 -0.231,0.471 -0.228,0.156 -0.726,0.156 z m -0.273,-0.987 v 0.732 q 0.033,0.003 0.078,0.006 0.039,0.003 0.09,0.006 0.054,0 0.123,0 0.129,0 0.243,-0.015 0.117,-0.018 0.204,-0.06 0.087,-0.042 0.138,-0.117 0.054,-0.075 0.054,-0.189 0,-0.102 -0.039,-0.171 -0.039,-0.072 -0.114,-0.114 -0.072,-0.042 -0.174,-0.06 -0.102,-0.018 -0.228,-0.018 z m 0,-0.234 h 0.306 q 0.108,0 0.204,-0.015 0.096,-0.015 0.165,-0.054 0.072,-0.039 0.111,-0.102 0.042,-0.063 0.042,-0.159 0,-0.09 -0.042,-0.15 -0.042,-0.063 -0.117,-0.099 -0.072,-0.039 -0.171,-0.057 -0.099,-0.018 -0.21,-0.018 -0.111,0 -0.174,0.003 -0.063,0.003 -0.114,0.009 z" id="path1084" style="text-anchor:middle"/>
      <path d="m 9.1040019,1.5 h -0.279 v -1.56 h 0.279 z m -0.141,-1.842 q -0.075,0 -0.129,-0.048 -0.051,-0.051 -0.051,-0.135 0,-0.084 0.051,-0.132 0.054,-0.051 0.129,-0.051 0.075,0 0.126,0.051 0.054,0.048 0.054,0.132 0,0.084 -0.054,0.135 -0.051,0.048 -0.126,0.048 z" id="path1086" style="text-anchor:middle"/>
    </g>
    <g transform="translate(37.85,73.5)" id="g67">
      <path d="m -8.9659923,-0.579 v 0.252 h -0.654 V 1.5 h -0.291 v -1.827 h -0.6539997 v -0.252 z" id="path1089" style="text-anchor:middle"/>
      <path d="m -8.2219992,-0.093 q 0.036,0 0.081,0.006 0.048,0.003 0.093,0.012 0.045,0.006 0.081,0.015 0.039,0.006 0.057,0.012 l -0.048,0.243 q -0.033,-0.012 -0.111,-0.027 -0.075,-0.018 -0.195,-0.018 -0.078,0 -0.156,0.018 -0.075,0.015 -0.099,0.021 V 1.5 h -0.279 V 0.006 q 0.099,-0.036 0.246,-0.066 0.147,-0.033 0.33,-0.033 z" id="path1091" style="text-anchor:middle"/>
      <path d="m -7.3610001,1.5 h -0.279 v -1.56 h 0.279 z m -0.141,-1.842 q -0.075,0 -0.129,-0.048 -0.051,-0.051 -0.051,-0.135 0,-0.084 0.051,-0.132 0.054,-0.051 0.129,-0.051 0.075,0 0.126,0.051 0.054,0.048 0.054,0.132 0,0.084 -0.054,0.135 -0.051,0.048 -0.126,0.048 z" id="path1093" style="text-anchor:middle"/>
      <path d="m -5.9030051,1.344 q -0.036,0.024 -0.141,0.063 -0.102,0.036 -0.24,0.036 -0.141,0 -0.267,-0.045 -0.123,-0.045 -0.216,-0.138 -0.093,-0.096 -0.147,-0.237 -0.054,-0.141 -0.054,-0.336 0,-0.171 0.051,-0.312 0.051,-0.144 0.147,-0.246 0.099,-0.105 0.24,-0.162 0.141,-0.06 0.318,-0.06 0.195,0 0.339,0.03 0.147,0.027 0.246,0.051 V 1.38 q 0,0.36 -0.186,0.522 -0.186,0.162 -0.564,0.162 -0.147,0 -0.279,-0.024 -0.129,-0.024 -0.225,-0.057 l 0.051,-0.243 q 0.084,0.033 0.204,0.057 0.123,0.027 0.255,0.027 0.249,0 0.357,-0.099 0.111,-0.099 0.111,-0.315 z m -0.003,-1.158 q -0.042,-0.012 -0.114,-0.021 -0.069,-0.012 -0.189,-0.012 -0.225,0 -0.348,0.147 -0.12,0.147 -0.12,0.39 0,0.135 0.033,0.231 0.036,0.096 0.093,0.159 0.06,0.063 0.135,0.093 0.078,0.03 0.159,0.03 0.111,0 0.204,-0.03 0.093,-0.033 0.147,-0.075 z" id="path1095" style="text-anchor:middle"/>
      <path d="m 6.3095079,0.477 h 0.291 v 0.972 q -0.036,0.012 -0.105,0.027 -0.066,0.015 -0.156,0.03 -0.087,0.015 -0.192,0.024 -0.105,0.012 -0.213,0.012 -0.219,0 -0.399,-0.072 -0.18,-0.072 -0.309,-0.21 -0.129,-0.138 -0.201,-0.339 -0.069,-0.201 -0.069,-0.462 0,-0.261 0.078,-0.462 0.081,-0.204 0.216,-0.342 0.135,-0.138 0.315,-0.21 0.183,-0.072 0.39,-0.072 0.141,0 0.249,0.018 0.111,0.018 0.189,0.042 0.078,0.024 0.126,0.048 0.051,0.024 0.069,0.036 l -0.093,0.243 q -0.087,-0.057 -0.231,-0.093 -0.144,-0.039 -0.294,-0.039 -0.159,0 -0.291,0.057 -0.129,0.057 -0.222,0.165 -0.09,0.108 -0.141,0.264 -0.051,0.153 -0.051,0.345 0,0.186 0.042,0.339 0.045,0.153 0.132,0.264 0.09,0.108 0.219,0.168 0.132,0.06 0.309,0.06 0.126,0 0.213,-0.012 0.09,-0.015 0.129,-0.027 z" id="path1098" style="text-anchor:middle"/>
      <path d="m 7.5665048,1.299 q 0.099,0 0.174,-0.003 0.078,-0.006 0.129,-0.018 V 0.813 q -0.03,-0.015 -0.099,-0.024 -0.066,-0.012 -0.162,-0.012 -0.063,0 -0.135,0.009 -0.069,0.009 -0.129,0.039 -0.057,0.027 -0.096,0.078 -0.039,0.048 -0.039,0.129 0,0.15 0.096,0.21 0.096,0.057 0.261,0.057 z m -0.024,-1.398 q 0.168,0 0.282,0.045 0.117,0.042 0.186,0.123 0.072,0.078 0.102,0.189 0.03,0.108 0.03,0.24 v 0.975 q -0.036,0.006 -0.102,0.018 -0.063,0.009 -0.144,0.018 -0.081,0.009 -0.177,0.015 -0.093,0.009 -0.186,0.009 -0.132,0 -0.243,-0.027 -0.111,-0.027 -0.192,-0.084 -0.081,-0.06 -0.126,-0.156 -0.045,-0.096 -0.045,-0.231 0,-0.129 0.051,-0.222 0.054,-0.093 0.144,-0.15 0.09,-0.057 0.21,-0.084 0.12,-0.027 0.252,-0.027 0.042,0 0.087,0.006 0.045,0.003 0.084,0.012 0.042,0.006 0.072,0.012 0.03,0.006 0.042,0.009 V 0.513 q 0,-0.069 -0.015,-0.135 -0.015,-0.069 -0.054,-0.12 -0.039,-0.054 -0.108,-0.084 -0.066,-0.033 -0.174,-0.033 -0.138,0 -0.243,0.021 -0.102,0.018 -0.153,0.039 l -0.033,-0.231 q 0.054,-0.024 0.18,-0.045 0.126,-0.024 0.273,-0.024 z" id="path1100" style="text-anchor:middle"/>
      <path d="m 8.8655029,-0.06 h 0.591 v 0.234 h -0.591 v 0.72 q 0,0.117 0.018,0.195 0.018,0.075 0.054,0.12 0.036,0.042 0.09,0.06 0.054,0.018 0.126,0.018 0.126,0 0.201,-0.027 0.078,-0.03 0.108,-0.042 l 0.054,0.231 q -0.042,0.021 -0.147,0.051 -0.105,0.033 -0.24,0.033 -0.159,0 -0.264,-0.039 -0.102,-0.042 -0.165,-0.123 -0.063,-0.081 -0.09,-0.198 -0.024,-0.12 -0.024,-0.276 v -1.392 l 0.279,-0.048 z" id="path1102" style="text-anchor:middle"/>
      <path d="m 9.6934978,0.723 q 0,-0.207 0.06,-0.36 0.06,-0.156 0.159,-0.258 0.099,-0.102 0.2280002,-0.153 0.129,-0.051 0.264,-0.051 0.315,0 0.483,0.198 0.168,0.195 0.168,0.597 0,0.018 0,0.048 0,0.027 -0.003,0.051 H 9.9844978 q 0.018,0.243 0.1410002,0.369 0.123,0.126 0.384,0.126 0.147,0 0.246,-0.024 0.102,-0.027 0.153,-0.051 l 0.039,0.234 q -0.051,0.027 -0.18,0.057 -0.126,0.03 -0.288,0.03 -0.204,0 -0.354,-0.06 -0.1470002,-0.063 -0.2430002,-0.171 -0.096,-0.108 -0.144,-0.255 -0.045,-0.15 -0.045,-0.327 z M 10.764498,0.57 q 0.003,-0.189 -0.096,-0.309 -0.096,-0.123 -0.267,-0.123 -0.096,0 -0.171,0.039 -0.072,0.036 -0.123,0.096 -0.051,0.06 -0.081,0.138 -0.027,0.078 -0.036,0.159 z" id="path1104" style="text-anchor:middle"/>
    </g>
    <g transform="translate(7.37,83.66)" id="g70">
      <path d="m -2.5529904,-0.93808432 q -0.219,0 -0.399,-0.072 -0.18,-0.072 -0.309,-0.21 -0.129,-0.138 -0.201,-0.339 -0.069,-0.204 -0.069,-0.465 0,-0.261 0.078,-0.462 0.081,-0.204 0.216,-0.342 0.135,-0.138 0.315,-0.21 0.18,-0.072 0.384,-0.072 0.129,0 0.231,0.018 0.105,0.018 0.18,0.042 0.078,0.024 0.126,0.048 0.048,0.024 0.066,0.036 l -0.084,0.24 q -0.027,-0.018 -0.078,-0.039 -0.051,-0.021 -0.117,-0.042 -0.063,-0.021 -0.141,-0.033 -0.075,-0.015 -0.153,-0.015 -0.165,0 -0.297,0.057 -0.132,0.057 -0.225,0.165 -0.093,0.108 -0.144,0.264 -0.048,0.153 -0.048,0.345 0,0.186 0.042,0.339 0.045,0.153 0.132,0.264 0.087,0.108 0.216,0.168 0.132,0.06 0.306,0.06 0.201,0 0.333,-0.042 0.132,-0.042 0.198,-0.075 l 0.075,0.24 q -0.021,0.015 -0.075,0.039 -0.054,0.021 -0.135,0.042 -0.081,0.021 -0.189,0.036 -0.108,0.015 -0.234,0.015 z" id="path1107" style="text-anchor:middle"/>
      <path d="m -1.1369936,-0.95308432 q -0.258,-0.006 -0.366,-0.11099998 -0.108,-0.105 -0.108,-0.327 v -1.872 l 0.279,-0.048 v 1.875 q 0,0.069 0.012,0.114 0.012,0.045 0.039,0.072 0.027,0.027 0.072,0.042 0.045,0.012 0.111,0.021 z" id="path1109" style="text-anchor:middle"/>
      <path d="m 0.59100284,-1.7630843 q 0,0.186 -0.054,0.336 -0.054,0.15 -0.153,0.258 -0.096,0.108 -0.231,0.168 -0.135,0.057 -0.294,0.057 -0.159,0 -0.294,-0.057 -0.135,-0.06 -0.234,-0.168 -0.096,-0.108 -0.15,-0.258 -0.054,-0.15 -0.054,-0.336 0,-0.183 0.054,-0.333 0.054,-0.153 0.15,-0.261 0.099,-0.108 0.234,-0.165 0.135,-0.06 0.294,-0.06 0.159,0 0.294,0.06 0.135,0.057 0.231,0.165 0.099,0.108 0.153,0.261 0.054,0.15 0.054,0.333 z m -0.291,0 q 0,-0.264 -0.12,-0.417 -0.117,-0.156 -0.321,-0.156 -0.204,0 -0.324,0.156 -0.117,0.153 -0.117,0.417 0,0.264 0.117,0.42 0.12,0.153 0.324,0.153 0.204,0 0.321,-0.153 0.12,-0.156 0.12,-0.42 z" id="path1111" style="text-anchor:middle"/>
      <path d="m 1.6619976,-0.94708432 q -0.189,0 -0.333,-0.06 -0.141,-0.06 -0.24,-0.168 -0.096,-0.108 -0.14400003,-0.255 -0.048,-0.15 -0.048,-0.33 0,-0.18 0.051,-0.33 0.054,-0.15 0.15000003,-0.258 0.096,-0.111 0.234,-0.171 0.141,-0.063 0.312,-0.063 0.105,0 0.21,0.018 0.105,0.018 0.201,0.057 l -0.063,0.237 q -0.063,-0.03 -0.147,-0.048 -0.081,-0.018 -0.174,-0.018 -0.234,0 -0.36,0.147 -0.123,0.147 -0.123,0.429 0,0.126 0.027,0.231 0.03,0.105 0.09,0.18 0.063,0.075 0.159,0.117 0.096,0.039 0.234,0.039 0.111,0 0.201,-0.021 0.09,-0.021 0.141,-0.045 l 0.039,0.234 q -0.024,0.015 -0.069,0.03 -0.045,0.012 -0.102,0.021 -0.057,0.012 -0.123,0.018 -0.063,0.009 -0.123,0.009 z" id="path1113" style="text-anchor:middle"/>
      <path d="m 2.9429923,-1.8410843 q 0.09,0.069 0.189,0.171 0.102,0.102 0.198,0.222 0.099,0.117 0.186,0.24 0.087,0.12 0.147,0.22499998 h -0.327 q -0.063,-0.10499998 -0.147,-0.21299998 -0.081,-0.111 -0.171,-0.21 -0.09,-0.102 -0.183,-0.186 -0.093,-0.084 -0.177,-0.141 v 0.74999998 h -0.279 V -3.2630843 l 0.279,-0.048 v 1.422 q 0.072,-0.072 0.159,-0.159 0.087,-0.087 0.171,-0.177 0.084,-0.09 0.159,-0.171 0.075,-0.084 0.129,-0.147 h 0.327 q -0.069,0.075 -0.15,0.165 -0.081,0.09 -0.168,0.183 -0.087,0.09 -0.177,0.183 -0.087,0.09 -0.165,0.171 z" id="path1115" style="text-anchor:middle"/>
    </g>
    <g transform="translate(17.53,83.66)" id="g73">
      <path d="M -4.3739904,-0.98308432 V -3.0620843 h 1.269 v 0.249 h -0.978 v 0.618 h 0.87 v 0.243 h -0.87 v 0.72 h 1.053 v 0.24899998 z" id="path1118" style="text-anchor:middle"/>
      <path d="m -2.678993,-2.4980843 q 0.096,-0.024 0.255,-0.051 0.159,-0.027 0.366,-0.027 0.186,0 0.309,0.054 0.123,0.051 0.195,0.147 0.075,0.093 0.105,0.225 0.03,0.132 0.03,0.291 v 0.87599998 h -0.279 V -1.7990843 q 0,-0.144 -0.021,-0.246 -0.018,-0.102 -0.063,-0.165 -0.045,-0.063 -0.12,-0.09 -0.075,-0.03 -0.186,-0.03 -0.045,0 -0.093,0.003 -0.048,0.003 -0.093,0.009 -0.042,0.003 -0.078,0.009 -0.033,0.006 -0.048,0.009 v 1.31699998 h -0.279 z" id="path1120" style="text-anchor:middle"/>
      <path d="m -0.42899478,-1.1840843 q 0.099,0 0.174,-0.003 0.078,-0.006 0.129,-0.018 v -0.465 q -0.03,-0.015 -0.099,-0.024 -0.066,-0.012 -0.162,-0.012 -0.063,0 -0.135,0.009 -0.069,0.009 -0.129,0.039 -0.057,0.027 -0.096,0.078 -0.039,0.048 -0.039,0.129 0,0.15 0.096,0.21 0.096,0.057 0.261,0.057 z m -0.024,-1.398 q 0.168,0 0.282,0.045 0.117,0.042 0.186,0.123 0.072,0.078 0.102,0.189 0.03,0.108 0.03,0.24 v 0.975 q -0.036,0.006 -0.102,0.018 -0.063,0.009 -0.144,0.018 -0.081,0.009 -0.177,0.015 -0.093,0.009 -0.186,0.009 -0.132,0 -0.243,-0.027 -0.111,-0.027 -0.192,-0.084 -0.081,-0.06 -0.12600002,-0.156 -0.045,-0.096 -0.045,-0.231 0,-0.129 0.051,-0.222 0.054,-0.093 0.14400002,-0.15 0.09,-0.057 0.21,-0.084 0.12,-0.027 0.252,-0.027 0.042,0 0.087,0.006 0.045,0.003 0.084,0.012 0.042,0.006 0.072,0.012 0.03,0.006 0.042,0.009 v -0.078 q 0,-0.069 -0.015,-0.135 -0.015,-0.069 -0.054,-0.12 -0.039,-0.054 -0.108,-0.084 -0.066,-0.033 -0.174,-0.033 -0.138,0 -0.243,0.021 -0.102,0.018 -0.153,0.039 l -0.033,-0.231 q 0.054,-0.024 0.18,-0.045 0.126,-0.024 0.273,-0.024 z" id="path1122" style="text-anchor:middle"/>
      <path d="m 0.8880033,-2.4740843 q 0.051,-0.033 0.153,-0.069 0.105,-0.036 0.24,-0.036 0.168,0 0.297,0.06 0.132,0.06 0.222,0.168 0.09,0.108 0.135,0.258 0.048,0.15 0.048,0.33 0,0.189 -0.057,0.342 -0.054,0.15 -0.156,0.255 -0.102,0.105 -0.246,0.162 -0.144,0.057 -0.324,0.057 -0.195,0 -0.345,-0.027 -0.15,-0.027 -0.246,-0.054 v -2.235 l 0.279,-0.048 z m 0,1.248 q 0.042,0.012 0.117,0.024 0.078,0.009 0.192,0.009 0.225,0 0.36,-0.147 0.135,-0.15 0.135,-0.423 0,-0.12 -0.024,-0.225 -0.024,-0.105 -0.078,-0.18 -0.054,-0.078 -0.141,-0.12 -0.084,-0.045 -0.204,-0.045 -0.114,0 -0.21,0.039 -0.096,0.039 -0.147,0.081 z" id="path1124" style="text-anchor:middle"/>
      <path d="m 2.8439997,-0.95308432 q -0.258,-0.006 -0.366,-0.11099998 -0.108,-0.105 -0.108,-0.327 v -1.872 l 0.279,-0.048 v 1.875 q 0,0.069 0.012,0.114 0.012,0.045 0.039,0.072 0.027,0.027 0.072,0.042 0.045,0.012 0.111,0.021 z" id="path1126" style="text-anchor:middle"/>
      <path d="m 3.1079961,-1.7600843 q 0,-0.207 0.06,-0.36 0.06,-0.156 0.159,-0.258 0.099,-0.102 0.228,-0.153 0.129,-0.051 0.264,-0.051 0.315,0 0.483,0.198 0.168,0.195 0.168,0.597 0,0.018 0,0.048 0,0.027 -0.003,0.051 h -1.068 q 0.018,0.243 0.141,0.369 0.123,0.126 0.384,0.126 0.147,0 0.246,-0.024 0.102,-0.027 0.153,-0.051 l 0.039,0.234 q -0.051,0.027 -0.18,0.057 -0.126,0.03 -0.288,0.03 -0.204,0 -0.354,-0.06 -0.147,-0.063 -0.243,-0.171 -0.096,-0.108 -0.144,-0.255 -0.045,-0.15 -0.045,-0.327 z m 1.071,-0.153 q 0.003,-0.189 -0.096,-0.309 -0.096,-0.123 -0.267,-0.123 -0.096,0 -0.171,0.039 -0.072,0.036 -0.123,0.096 -0.051,0.06 -0.081,0.138 -0.027,0.078 -0.036,0.159 z" id="path1128" style="text-anchor:middle"/>
    </g>
    <g transform="translate(12.45,106.52)" id="g77">
      <path id="path_ddoptlubyx" style="" d="m 36.09375,368.89258 a 5.6692913,5.6692913 0 0 0 -5.667969,5.66992 v 45.35547 a 5.6692913,5.6692913 0 0 0 5.667969,5.66797 h 21.921875 a 5.6692913,5.6692913 0 0 0 5.669922,-5.66797 V 374.5625 a 5.6692913,5.6692913 0 0 0 -5.669922,-5.66992 z m 10.960938,2.64648 a 13.984375,13.984375 0 1 1 0,27.96875 13.984375,13.984375 0 0 1 0,-27.96875 z m -5.509766,36.18164 c 0.506457,0 0.98175,0.0859 1.427734,0.25977 0.453544,0.17386 0.851249,0.43549 1.191406,0.7832 0.340158,0.34016 0.608153,0.76724 0.804688,1.28125 0.204094,0.51402 0.306641,1.1085 0.306641,1.78125 0,0.67276 -0.102547,1.26528 -0.306641,1.7793 -0.196535,0.51401 -0.46453,0.94525 -0.804688,1.29297 -0.340157,0.34015 -0.737862,0.59762 -1.191406,0.77148 -0.445984,0.17386 -0.921277,0.25977 -1.427734,0.25977 -0.514016,0 -1.001788,-0.0859 -1.462891,-0.25977 -0.453543,-0.17386 -0.853455,-0.43133 -1.201172,-0.77148 -0.340157,-0.34772 -0.612311,-0.77896 -0.816406,-1.29297 -0.196535,-0.51402 -0.294922,-1.10654 -0.294922,-1.7793 0,-0.67275 0.09839,-1.26723 0.294922,-1.78125 0.204095,-0.51401 0.476249,-0.94109 0.816406,-1.28125 0.347717,-0.34771 0.747629,-0.60934 1.201172,-0.7832 0.461103,-0.17386 0.948875,-0.25977 1.462891,-0.25977 z m 12.789062,0.31836 v 1.82422 h 2.234375 v 0.88477 h -2.234375 v 2.7207 c 0,0.2948 0.023,0.54175 0.06836,0.73828 0.04535,0.18898 0.114369,0.33974 0.205078,0.45313 0.09071,0.10582 0.203781,0.1812 0.339844,0.22656 0.136063,0.0453 0.295145,0.0684 0.476562,0.0684 0.31748,0 0.570789,-0.0335 0.759766,-0.10156 0.196535,-0.0756 0.332612,-0.12992 0.408203,-0.16016 l 0.203125,0.87305 c -0.105827,0.0529 -0.290121,0.11777 -0.554688,0.19336 -0.264567,0.0831 -0.568045,0.125 -0.908203,0.125 -0.40063,0 -0.73348,-0.0502 -0.998047,-0.14844 -0.257007,-0.10583 -0.464306,-0.26075 -0.623046,-0.46485 -0.158741,-0.20409 -0.271813,-0.45324 -0.339844,-0.74804 -0.06047,-0.30236 -0.0918,-0.6499 -0.0918,-1.04297 v -5.26172 z m -12.8125,0.64453 c -0.40063,0 -0.762851,0.0773 -1.08789,0.22852 -0.317481,0.14362 -0.589635,0.35092 -0.816406,0.62305 -0.219213,0.27212 -0.388821,0.60497 -0.509766,0.99804 -0.120945,0.38551 -0.181641,0.81675 -0.181641,1.29297 0,0.47622 0.0607,0.90967 0.181641,1.30274 0.120945,0.38551 0.290553,0.7142 0.509766,0.98632 0.226771,0.27213 0.498925,0.48359 0.816406,0.63477 0.325039,0.14362 0.68726,0.2168 1.08789,0.2168 0.40063,0 0.760645,-0.0732 1.078125,-0.2168 0.317481,-0.15118 0.585475,-0.36264 0.804688,-0.63477 0.226772,-0.27212 0.400539,-0.60081 0.521484,-0.98632 0.120945,-0.39307 0.181641,-0.82652 0.181641,-1.30274 0,-0.47622 -0.0607,-0.90746 -0.181641,-1.29297 -0.120945,-0.39307 -0.294712,-0.72592 -0.521484,-0.99804 -0.219213,-0.27213 -0.487207,-0.47943 -0.804688,-0.62305 -0.31748,-0.15118 -0.677495,-0.22852 -1.078125,-0.22852 z m 5.25,1.17969 h 1.054688 v 3.08399 c 0,0.71811 0.113072,1.23304 0.339844,1.54296 0.226771,0.30993 0.607838,0.46485 1.144531,0.46485 0.113386,0 0.230617,-0.004 0.351562,-0.0117 0.120945,-0.008 0.23597,-0.0159 0.341797,-0.0234 0.105827,-0.0151 0.200054,-0.0256 0.283203,-0.0332 0.09071,-0.0151 0.153611,-0.0298 0.191407,-0.0449 v -4.97852 h 1.054687 v 5.72656 c -0.24189,0.0605 -0.562261,0.12533 -0.962891,0.19336 -0.39307,0.068 -0.851472,0.10157 -1.373046,0.10157 -0.453544,0 -0.83461,-0.0649 -1.144532,-0.19336 -0.309921,-0.13607 -0.55907,-0.32452 -0.748046,-0.56641 -0.188977,-0.24189 -0.325054,-0.52652 -0.408204,-0.85156 -0.08315,-0.3326 -0.125,-0.69898 -0.125,-1.09961 z" transform="matrix(0.26458333,0,0,0.26458333,-12.45,-106.52)"/>
    </g>
    <g transform="translate(3.56,93.82)" id="g79"/>
    <g transform="translate(21.34,93.82)" id="g81"/>
    <g transform="translate(37.85,83.66)" id="g84">
      <path d="m -1.9769948,-0.96508432 q -0.063,0 -0.138,-0.003 -0.072,-0.003 -0.147,-0.009 -0.072,-0.006 -0.144,-0.015 -0.072,-0.009 -0.132,-0.024 v -2.016 q 0.06,-0.015 0.132,-0.024 0.072,-0.009 0.144,-0.015 0.075,-0.006 0.147,-0.009 0.072,-0.003 0.135,-0.003 0.18,0 0.336,0.027 0.159,0.027 0.273,0.093 0.117,0.063 0.183,0.168 0.066,0.105 0.066,0.258 0,0.171 -0.081,0.282 -0.081,0.108 -0.216,0.162 0.183,0.054 0.291,0.171 0.108,0.117 0.108,0.33 0,0.312 -0.231,0.471 -0.228,0.1559999 -0.726,0.15599998 z m -0.273,-0.98699998 v 0.732 q 0.033,0.003 0.078,0.006 0.039,0.003 0.09,0.006 0.054,0 0.123,0 0.129,0 0.243,-0.015 0.117,-0.018 0.204,-0.06 0.087,-0.042 0.138,-0.117 0.054,-0.075 0.054,-0.189 0,-0.102 -0.039,-0.171 -0.039,-0.072 -0.114,-0.114 -0.072,-0.042 -0.174,-0.06 -0.102,-0.018 -0.228,-0.018 z m 0,-0.234 h 0.306 q 0.108,0 0.204,-0.015 0.096,-0.015 0.165,-0.054 0.072,-0.039 0.111,-0.102 0.042,-0.063 0.042,-0.159 0,-0.09 -0.042,-0.15 -0.042,-0.063 -0.117,-0.099 -0.072,-0.039 -0.171,-0.057 -0.099,-0.018 -0.21,-0.018 -0.111,0 -0.174,0.003 -0.063,0.003 -0.114,0.009 z" id="path1131" style="text-anchor:middle"/>
      <path d="m -0.34799581,-0.98308432 h -0.279 V -2.5430843 h 0.279 z m -0.141,-1.84199998 q -0.075,0 -0.129,-0.048 -0.051,-0.051 -0.051,-0.135 0,-0.084 0.051,-0.132 0.054,-0.051 0.129,-0.051 0.075,0 0.126,0.051 0.054,0.048 0.054,0.132 0,0.084 -0.054,0.135 -0.051,0.048 -0.126,0.048 z" id="path1133" style="text-anchor:middle"/>
      <path d="m 0.65999924,-1.1840843 q 0.099,0 0.174,-0.003 0.078,-0.006 0.129,-0.018 v -0.465 q -0.03,-0.015 -0.099,-0.024 -0.066,-0.012 -0.162,-0.012 -0.063,0 -0.135,0.009 -0.069,0.009 -0.129,0.039 -0.057,0.027 -0.096,0.078 -0.039,0.048 -0.039,0.129 0,0.15 0.096,0.21 0.096,0.057 0.261,0.057 z m -0.024,-1.398 q 0.168,0 0.282,0.045 0.11699996,0.042 0.18599996,0.123 0.072,0.078 0.102,0.189 0.03,0.108 0.03,0.24 v 0.975 q -0.036,0.006 -0.102,0.018 -0.063,0.009 -0.14399996,0.018 -0.081,0.009 -0.177,0.015 -0.093,0.009 -0.186,0.009 -0.132,0 -0.243,-0.027 -0.111,-0.027 -0.192,-0.084 -0.081,-0.06 -0.126,-0.156 -0.045,-0.096 -0.045,-0.231 0,-0.129 0.051,-0.222 0.054,-0.093 0.144,-0.15 0.09,-0.057 0.21,-0.084 0.12,-0.027 0.252,-0.027 0.042,0 0.087,0.006 0.045,0.003 0.084,0.012 0.042,0.006 0.072,0.012 0.03,0.006 0.042,0.009 v -0.078 q 0,-0.069 -0.015,-0.135 -0.015,-0.069 -0.054,-0.12 -0.039,-0.054 -0.108,-0.084 -0.066,-0.033 -0.174,-0.033 -0.138,0 -0.243,0.021 -0.102,0.018 -0.153,0.039 l -0.033,-0.231 q 0.054,-0.024 0.18,-0.045 0.126,-0.024 0.273,-0.024 z" id="path1135" style="text-anchor:middle"/>
      <path d="m 2.0609973,-1.1840843 q 0.171,0 0.252,-0.045 0.084,-0.045 0.084,-0.144 0,-0.102 -0.081,-0.162 -0.081,-0.06 -0.267,-0.135 -0.09,-0.036 -0.174,-0.072 -0.081,-0.039 -0.141,-0.09 -0.06,-0.051 -0.096,-0.123 -0.036,-0.072 -0.036,-0.177 0,-0.207 0.153,-0.327 0.153,-0.123 0.417,-0.123 0.066,0 0.132,0.009 0.066,0.006 0.123,0.018 0.057,0.009 0.099,0.021 0.045,0.012 0.069,0.021 l -0.051,0.24 q -0.045,-0.024 -0.141,-0.048 -0.096,-0.027 -0.231,-0.027 -0.117,0 -0.204,0.048 -0.087,0.045 -0.087,0.144 0,0.051 0.018,0.09 0.021,0.039 0.06,0.072 0.042,0.03 0.102,0.057 0.06,0.027 0.144,0.057 0.111,0.042 0.198,0.084 0.087,0.039 0.147,0.093 0.063,0.054 0.096,0.132 0.033,0.075 0.033,0.186 0,0.216 -0.162,0.327 -0.159,0.11099998 -0.456,0.11099998 -0.207,0 -0.324,-0.036 -0.117,-0.033 -0.159,-0.051 l 0.051,-0.24 q 0.048,0.018 0.153,0.054 0.105,0.036 0.279,0.036 z" id="path1137" style="text-anchor:middle"/>
    </g>
    <g transform="translate(32.77,106.52)" id="g88">
      <path id="path_uqymwmbbdr" style="" d="m 112.89453,368.89258 a 5.6692913,5.6692913 0 0 0 -5.66992,5.66992 v 45.35547 a 5.6692913,5.6692913 0 0 0 5.66992,5.66797 h 21.92188 a 5.6692913,5.6692913 0 0 0 5.66797,-5.66797 V 374.5625 a 5.6692913,5.6692913 0 0 0 -5.66797,-5.66992 z m 10.96094,2.64648 a 13.984375,13.984375 0 1 1 0,27.96875 13.984375,13.984375 0 0 1 0,-27.96875 z m -0.50586,36.36328 h 1.00977 c 0.27212,0.56693 0.53375,1.14061 0.7832,1.72266 0.24945,0.57449 0.4986,1.17949 0.74804,1.81445 0.25701,0.63496 0.51669,1.30703 0.78126,2.01758 0.26456,0.70299 0.5492,1.47124 0.85156,2.30274 h -1.20313 c -0.1285,-0.34016 -0.24794,-0.67301 -0.36133,-0.99805 -0.11338,-0.3326 -0.23061,-0.66961 -0.35156,-1.00977 h -3.56054 l -0.71485,2.00782 h -1.14453 c 0.30236,-0.8315 0.58504,-1.59975 0.84961,-2.30274 0.26457,-0.71055 0.52203,-1.38262 0.77148,-2.01758 0.25701,-0.63496 0.51032,-1.23996 0.75977,-1.81445 0.24945,-0.58205 0.50912,-1.15573 0.78125,-1.72266 z m 0.47656,1.25782 c -0.26457,0.56693 -0.51787,1.1614 -0.75976,1.78125 -0.23433,0.61228 -0.4688,1.24666 -0.70313,1.90429 h 2.92578 c -0.24189,-0.65763 -0.48272,-1.29201 -0.72461,-1.90429 -0.23433,-0.61985 -0.48127,-1.21432 -0.73828,-1.78125 z" transform="matrix(0.26458333,0,0,0.26458333,-32.77,-106.52)"/>
    </g>
    <g transform="translate(42.93,106.52)" id="g92">
      <path id="path_xwafbpiuzp" style="" d="m 151.29492,368.89258 a 5.6692913,5.6692913 0 0 0 -5.66992,5.66992 v 45.35547 a 5.6692913,5.6692913 0 0 0 5.66992,5.66797 h 21.91992 a 5.6692913,5.6692913 0 0 0 5.66993,-5.66797 V 374.5625 a 5.6692913,5.6692913 0 0 0 -5.66993,-5.66992 z m 10.96094,2.64648 a 13.984375,13.984375 0 1 1 0,27.96875 13.984375,13.984375 0 0 1 0,-27.96875 z m -0.5625,36.28321 c 0.45354,0 0.87646,0.0335 1.26953,0.10156 0.40063,0.068 0.74596,0.18526 1.0332,0.35156 0.29481,0.15874 0.52511,0.37215 0.69141,0.63672 0.1663,0.26457 0.25,0.5891 0.25,0.97461 0,0.43086 -0.10255,0.78477 -0.30664,1.06445 -0.2041,0.27213 -0.47625,0.47722 -0.81641,0.61328 0.46111,0.13607 0.82749,0.35168 1.09961,0.64649 0.27213,0.2948 0.40821,0.7094 0.40821,1.24609 0,0.78614 -0.291,1.38062 -0.87305,1.78125 -0.57449,0.39307 -1.48934,0.58985 -2.74414,0.58984 -0.15874,0 -0.33251,-0.004 -0.52149,-0.0117 -0.18141,-0.008 -0.36571,-0.0181 -0.55468,-0.0332 -0.18142,-0.0151 -0.36351,-0.034 -0.54493,-0.0566 -0.18141,-0.0227 -0.34881,-0.054 -0.5,-0.0918 v -7.61915 c 0.15119,-0.0378 0.31859,-0.0691 0.5,-0.0918 0.18142,-0.0227 0.36351,-0.0415 0.54493,-0.0566 0.18897,-0.0151 0.37327,-0.0256 0.55468,-0.0332 0.18142,-0.008 0.35103,-0.0117 0.50977,-0.0117 z m 0.0684,0.91796 c -0.27969,0 -0.49946,0.004 -0.6582,0.0117 -0.15874,0.008 -0.30119,0.02 -0.42969,0.0352 v 2.42578 h 1.15625 c 0.27212,0 0.52959,-0.0188 0.77148,-0.0566 0.24189,-0.0378 0.44919,-0.10681 0.62305,-0.20508 0.18142,-0.0983 0.32165,-0.22602 0.41992,-0.38476 0.10583,-0.15874 0.1582,-0.35968 0.1582,-0.60157 0,-0.22677 -0.0524,-0.41522 -0.1582,-0.5664 -0.10583,-0.15874 -0.25438,-0.28234 -0.44336,-0.37305 -0.18142,-0.0983 -0.39703,-0.17144 -0.64648,-0.2168 -0.24945,-0.0453 -0.51329,-0.0684 -0.79297,-0.0684 z m -1.08789,3.35743 v 2.76562 c 0.0831,0.008 0.18153,0.0159 0.29492,0.0234 0.0983,0.008 0.21134,0.0159 0.33984,0.0234 h 0.46485 c 0.32504,0 0.63072,-0.0189 0.91797,-0.0566 0.2948,-0.0454 0.55227,-0.12269 0.77148,-0.22852 0.21921,-0.10583 0.39298,-0.25243 0.52149,-0.44141 0.13606,-0.18897 0.20312,-0.4276 0.20312,-0.71484 0,-0.25701 -0.0482,-0.47263 -0.14648,-0.64648 -0.0983,-0.18142 -0.24267,-0.32387 -0.43164,-0.42969 -0.18142,-0.10583 -0.39925,-0.18121 -0.65626,-0.22656 -0.257,-0.0454 -0.5458,-0.0684 -0.86328,-0.0684 z" transform="matrix(0.26458333,0,0,0.26458333,-42.93,-106.52)"/>
    </g>
    <g transform="translate(46.74,93.82)" id="g94"/>
    <g transform="translate(28.96,93.82)" id="g96"/>
    <path d="m 25.15,51 v 59" fill="none" stroke="#000000" stroke-width="0.8" id="path98"/>
    <path d="M 25.15,12 23.4,9 h 3.5 z" fill="#000000" id="path100"/>
  </g>
  <g fill="black" id="throughholes" stroke="none">
    <circle cx="7.62" cy="3" r="1.7" stroke="none" id="circle104"/>
    <circle cx="7.62" cy="125.5" r="1.7" stroke="none" id="circle106"/>
    <circle cx="42.68" cy="3" r="1.7" stroke="none" id="circle108"/>
    <circle cx="42.68" cy="125.5" r="1.7" stroke="none" id="circle110"/>
    <circle cx="6.0999999" cy="13.81" r="1.5" id="circle112"/>
    <circle cx="12.45" cy="13.81" r="1.5" id="circle116"/>
    <circle cx="18.799999" cy="13.81" r="1.5" id="circle120"/>
    <circle cx="25.15" cy="13.81" r="1.5" id="circle124"/>
    <circle cx="31.5" cy="13.81" r="1.5" id="circle128"/>
    <circle cx="37.849998" cy="13.81" r="1.5" id="circle132"/>
    <circle cx="44.200001" cy="13.81" r="1.5" id="circle136"/>
    <circle cx="12.45" cy="27.780001" r="3.9000001" id="circle140"/>
    <circle cx="37.849998" cy="27.780001" r="3.9000001" id="circle144"/>
    <circle cx="12.45" cy="53.18" r="3.9000001" id="circle148"/>
    <circle cx="37.849998" cy="53.18" r="3.9000001" id="circle152"/>
    <circle cx="12.45" cy="73.5" r="3.575" id="circle156"/>
    <circle cx="37.849998" cy="73.5" r="3.575" id="circle160"/>
    <circle cx="7.3699999" cy="88.176918" r="3.4000001" id="circle164"/>
    <circle cx="17.530001" cy="88.176918" r="3.4000001" id="circle168"/>
    <circle cx="12.45" cy="102.00308" r="3.4000001" id="circle172"/>
    <circle cx="3.5599999" cy="95.089996" r="1.5" id="circle176"/>
    <circle cx="21.34" cy="95.089996" r="1.5" id="circle180"/>
    <circle cx="37.849998" cy="88.176918" r="3.4000001" id="circle184"/>
    <circle cx="32.77" cy="102.00308" r="3.4000001" id="circle188"/>
    <circle cx="42.93" cy="102.00308" r="3.4000001" id="circle192"/>
    <circle cx="46.740002" cy="95.089996" r="1.5" id="circle196"/>
    <circle cx="28.959999" cy="95.089996" r="1.5" id="circle200"/>
  </g>
</svg>