<svg viewBox="0 0 400 200">
<path stroke="#e14646ff" fill="none" d="M 0 100 h 1 v 1 h 1 v -1 h 1 v 1 h 1 v 1 h 1 v -1 h 1 v 1 h 1 h 1 v 1 h 1 v -1 h 1 v 1 h 1 h 1 h 1 v 1 h 1 v -1 h 1 v -1 h 1 v 1 h 1 v 1 h 1 v 1 h 1 v -1 h 1 h 1 h 1 v -1 h 1 v 1 h 1 v 1 h 1 v 1 h 1 v 1 h 1 v -1 h 1 v 1 h 1 v 1 h 1 v 1 h 1 h 1 v 1 h 1 v 1 h 1 v -1 h 1 v -1 h 1 v -1 h 1 h 1 h 1 v 1 h 1 h 1 v 1 h 1 v -1 h 1 v 1 h 1 v 1 h 1 v -1 h 1 v -1 h 1 v 1 h 1 v -1 h 1 v 1 h 1 v 1 h 1 v 1 h 1 v -1 h 1 h 1 h 1 v -1 h 1 v 1 h 1 h 1 v 1 h 1 h 1 v -1 h 1 v -1 h 1 v -1 h 1 v -1 h 1 v 1 h 1 h 1 v -1 h 1 v 1 h 1 v -1 h 1 h 1 h 1 v -1 h 1 v -1 h 1 h 1 v 1 h 1 v -1 h 1 v -1 h 1 h 1 h 1 h 1 v -1 h 1 v -1 h 1 v -1 h 1 h 1 v 1 h 1 v -1 h 1 v 1 h 1 v 1 h 1 v -1 h 1 h 1 v -1 h 1 h 1 h 1 v 1 h 1 v 1 h 1 h 1 h 1 h 1 h 1 v -1 h 1 v -1 h 1 v 1 h 1 v -1 h 1 v -1 h 1 v -1 h 1 v 1 h 1 h 1 v -1 h 1 v -1 h 1 h 1 v -1 h 1 v -1 h 1 h 1 v 1 h 1 h 1 v 1 h 1 h 1 h 1 h 1 v -1 h 1 v 1 h 1 h 1 h 1 h 1 h 1 v -1 h 1 v 1 h 1 v -1 h 1 h 1 v 1 h 1 v -1 h 1 v 1 h 1 v -1 h 1 v 1 h 1 v -1 h 1 v -1 h 1 v -1 h 1 h 1 v 1 h 1 v 1 h 1 v 1 h 1 v -1 h 1 v 1 h 1 v 1 h 1 v 1 h 1 v -1 h 1 h 1 v 1 h 1 v 1 h 1 v -1 h 1 h 1 v -1 h 1 v -1 h 1 v 1 h 1 v 1 h 1 v 1 h 1 v 1 h 1 v -1 h 1 v 1 h 1 v 1 h 1 v -1 h 1 v 1 h 1 v 1 h 1 v -1 h 1 v -1 h 1 h 1 v 1 h 1 h 1 v -1 h 1 v -1 h 1 h 1 v 1 h 1 v -1 h 1 v -1 h 1 h 1 h 1 h 1 h 1 h 1 v 1 h 1 v 1 h 1 v 1 h 1 h 1 v -1 h 1 v -1 h 1 h 1 h 1 v 1 h 1 v 1 h 1 v -1 h 1 v -1 h 1 h 1 h 1 v -1 h 1 v -1 h 1 h 1 v -1 h 1 h 1 h 1 h 1 v 1 h 1 h 1 v 1 h 1 v -1 h 1 v -1 h 1 v 1 h 1 v 1 h 1 v 1 h 1 v -1 h 1 v 1 h 1 h 1 v 1 h 1 v 1 h 1 v -1 h 1 v -1 h 1 v -1 h 1 v -1 h 1 h 1 v -1 h 1 h 1 h 1 v -1 h 1 v 1 h 1 h 1 v 1 h 1 v -1 h 1 v 1 h 1 h 1 h 1 v -1 h 1 v 1 h 1 v -1 h 1 h 1 v -1 h 1 h 1 h 1 h 1 v 1 h 1 v -1 h 1 v -1 h 1 h 1 v 1 h 1 h 1 v 1 h 1 h 1 h 1 v 1 h 1 v 1 h 1 v 1 h 1 v -1 h 1 v 1 h 1 v -1 h 1 h 1 v 1 h 1 v 1 h 1 v 1 h 1 v 1 h 1 h 1 v -1 h 1 h 1 h 1 h 1 v 1 h 1 h 1 v -1 h 1 v -1 h 1 h 1 h 1 h 1 v 1 h 1 h 1 v -1 h 1 h 1 v 1 h 1 h 1 v 1 h 1 h 1 v 1 h 1 v -1 h 1 v -1 h 1 v -1 h 1 h 1 v -1 h 1 h 1 v -1 h 1 v -1 h 1 h 1 v 1 h 1 h 1 v 1 h 1 h 1 h 1 v 1 h 1 h 1 v 1 h 1 h 1 v 1 h 1 v 1 h 1 h 1 v -1 h 1 v 1 h 1 v -1 h 1 h 1 v 1 h 1 v -1 h 1 h 1 h 1 h 1 v 1 h 1 v 1 h 1 h 1 v -1 h 1 h 1 v 1 h 1 h 1 v -1 h 1 v 1 h 1 h 1 v 1 h 1 v 1 h 1 h 1 h 1 h 1 v 1 h 1 v 1 h 1 v -1 h 1 v 1 h 1 h 1 v -1 h 1 v -1 h 1 v 1 h 1 h 1 h 1 v -1 h 1 v -1 h 1 v -1 h 1 v 1 h 1 v -1 h 1 v 1 h 1 v 1 h 1 h 1 v 1 h 1 v 1 h 1 v -1 h 1 v 1 h 1 h 1 h 1 h 1 v 1 h 1 v 1 h 1 v 1 h 1 v -1 h 1 h 1 h 1 v 1 h 1 v 1 h 1 v 1 h 1 v 1 h 1 v -1 h 1 h 1 v -1 h 1 h 1 v 1 h 1 h 1 v -1 h 1 v 1 h 1 v 1 h 1 v -1 h 1 h 1 v -1 h 1 v 1 h 1 v 1 h 1 h 1 h 1 v 1 h 1 h 1 v -1 h 1 v 1 h 1 h 1 v -1 h 1 v -1 h 1 v 1 h 1 h 1 h 1 v -1 h 1 v -1 h 1 h 1 h 1 v -1 h 1 v 1 h 1 v 1 h 1 v 1 h 1 v 1 h 1 h 1 v -1 h 1 v 1 h 1 v -1 h 1 v -1 h 1 v -1 h 1 h 1" />
<path stroke="yellow" fill="none" d="M 0 100 L 1 100.05 L 2 100.0475 L 3 100.095125 L 4 100.19036874999999 L 5 100.2308503125 L 6 100.319307796875 L 7 100.40334240703125 L 8 100.53317528667968 L 9 100.6065165223457 L 10 100.72619069622841 L 11 100.839881161417 L 12 100.94788710334615 L 13 101.10049274817884 L 14 101.1954681107699 L 15 101.2356947052314 L 16 101.32390996996983 L 17 101.45771447147135 L 18 101.63482874789779 L 19 101.75308731050289 L 20 101.86543294497774 L 21 101.97216129772886 L 22 102.02355323284242 L 23 102.1223755712003 L 24 102.26625679264028 L 25 102.45294395300826 L 26 102.68029675535784 L 27 102.84628191758995 L 28 103.05396782171044 L 29 103.30126943062493 L 30 103.58620595909368 L 31 103.85689566113899 L 32 104.16405087808204 L 33 104.50584833417794 L 34 104.78055591746904 L 35 104.99152812159559 L 36 105.14195171551582 L 37 105.28485412974003 L 38 105.42061142325302 L 39 105.59958085209037 L 40 105.76960180948585 L 41 105.98112171901155 L 42 106.13206563306098 L 43 106.32546235140792 L 44 106.55918923383753 L 45 106.73122977214565 L 46 106.84466828353837 L 47 107.00243486936145 L 48 107.10231312589337 L 49 107.2471974695987 L 50 107.43483759611877 L 51 107.66309571631282 L 52 107.82994093049719 L 53 107.98844388397232 L 54 108.13902168977371 L 55 108.23207060528503 L 56 108.37046707502078 L 57 108.50194372126974 L 58 108.67684653520625 L 59 108.84300420844593 L 60 108.95085399802363 L 61 109.00331129812245 L 62 109.00314573321633 L 63 108.95298844655551 L 64 108.95533902422773 L 65 108.95757207301634 L 66 108.90969346936552 L 67 108.91420879589725 L 68 108.86849835610239 L 69 108.82507343829727 L 70 108.78381976638241 L 71 108.69462877806329 L 72 108.55989733916013 L 73 108.43190247220213 L 74 108.36030734859202 L 75 108.24229198116241 L 76 108.0801773821043 L 77 107.92616851299908 L 78 107.77986008734914 L 79 107.64086708298169 L 80 107.4588237288326 L 81 107.23588254239097 L 82 106.97408841527142 L 83 106.72538399450785 L 84 106.53911479478246 L 85 106.31215905504334 L 86 106.14655110229117 L 87 106.03922354717662 L 88 105.88726236981779 L 89 105.7428992513269 L 90 105.55575428876055 L 91 105.37796657432253 L 92 105.2090682456064 L 93 105.09861483332608 L 94 105.04368409165977 L 95 104.99149988707678 L 96 104.94192489272295 L 97 104.8948286480868 L 98 104.85008721568246 L 99 104.75758285489835 L 100 104.61970371215342 L 101 104.53871852654575 L 102 104.41178260021846 L 103 104.24119347020753 L 104 104.02913379669715 L 105 103.8776771068623 L 106 103.73379325151917 L 107 103.54710358894322 L 108 103.31974840949606 L 109 103.10376098902125 L 110 102.84857293957019 L 111 102.55614429259168 L 112 102.27833707796209 L 113 102.064420224064 L 114 101.8611992128608 L 115 101.71813925221775 L 116 101.58223228960686 L 117 101.45312067512653 L 118 101.3304646413702 L 119 101.16394140930169 L 120 101.0557443388366 L 121 100.95295712189477 L 122 100.85530926580003 L 123 100.76254380251002 L 124 100.67441661238452 L 125 100.5406957817653 L 126 100.46366099267703 L 127 100.34047794304318 L 128 100.22345404589102 L 129 100.16228134359646 L 130 100.05416727641663 L 131 100.00145891259581 L 132 99.90138596696602 L 133 99.85631666861772 L 134 99.76350083518683 L 135 99.62532579342749 L 136 99.44405950375612 L 137 99.27185652856832 L 138 99.1582637021399 L 139 99.10035051703291 L 140 99.09533299118127 L 141 99.0405663416222 L 142 99.03853802454108 L 143 99.08661112331403 L 144 99.18228056714833 L 145 99.2231665387909 L 146 99.26200821185137 L 147 99.3489078012588 L 148 99.48146241119586 L 149 99.55738929063607 L 150 99.62951982610426 L 151 99.64804383479904 L 152 99.61564164305909 L 153 99.63485956090614 L 154 99.70311658286083 L 155 99.81796075371778 L 156 99.9770627160319 L 157 100.0782095802303 L 158 100.22429910121878 L 159 100.41308414615784 L 160 100.54242993884995 L 161 100.71530844190745 L 162 100.92954301981209 L 163 101.08306586882148 L 164 101.17891257538041 L 165 101.26996694661139 L 166 101.40646859928083 L 167 101.53614516931678 L 168 101.60933791085094 L 169 101.62887101530839 L 170 101.64742746454297 L 171 101.71505609131583 L 172 101.72930328675004 L 173 101.69283812241254 L 174 101.65819621629191 L 175 101.62528640547731 L 176 101.59402208520345 L 177 101.56432098094328 L 178 101.53610493189612 L 179 101.55929968530131 L 180 101.63133470103625 L 181 101.74976796598443 L 182 101.8622795676852 L 183 101.91916558930095 L 184 101.9232073098359 L 185 101.92704694434411 L 186 101.9306945971269 L 187 101.98415986727056 L 188 102.08495187390703 L 189 102.13070428021167 L 190 102.12416906620109 L 191 102.11796061289104 L 192 102.1120625822465 L 193 102.05645945313417 L 194 101.95363648047746 L 195 101.85595465645358 L 196 101.71315692363089 L 197 101.57749907744935 L 198 101.44862412357688 L 199 101.32619291739803 L 200 101.25988327152812 L 201 101.19688910795172 L 202 101.18704465255414 L 203 101.12769241992643 L 204 101.02130779893011 L 205 100.97024240898361 L 206 100.97173028853443 L 207 101.02314377410771 L 208 101.02198658540232 L 209 101.0708872561322 L 210 101.11734289332558 L 211 101.21147574865931 L 212 101.35090196122634 L 213 101.43335686316503 L 214 101.46168902000677 L 215 101.43860456900643 L 216 101.3666743405561 L 217 101.2983406235283 L 218 101.18342359235189 L 219 101.0742524127343 L 220 100.97053979209758 L 221 100.82201280249271 L 222 100.73091216236807 L 223 100.64436655424967 L 224 100.61214822653719 L 225 100.53154081521032 L 226 100.5049637744498 L 227 100.47971558572732 L 228 100.45572980644096 L 229 100.38294331611891 L 230 100.36379615031296 L 231 100.29560634279731 L 232 100.23082602565745 L 233 100.11928472437458 L 234 100.01332048815586 L 235 99.91265446374807 L 236 99.81702174056066 L 237 99.77617065353263 L 238 99.687362120856 L 239 99.5529940148132 L 240 99.42534431407253 L 241 99.3540770983689 L 242 99.28637324345046 L 243 99.27205458127793 L 244 99.25845185221404 L 245 99.24552925960333 L 246 99.28325279662316 L 247 99.369090156792 L 248 99.5006356489524 L 249 99.57560386650478 L 250 99.69682367317954 L 251 99.76198248952056 L 252 99.82388336504454 L 253 99.93268919679231 L 254 100.08605473695269 L 255 100.28175200010506 L 256 100.5176644000998 L 257 100.74178118009482 L 258 100.90469212109008 L 259 101.05945751503558 L 260 101.2064846392838 L 261 101.34616040731962 L 262 101.52885238695363 L 263 101.70240976760594 L 264 101.81728927922565 L 265 101.87642481526437 L 266 101.93260357450116 L 267 101.9859733957761 L 268 102.0366747259873 L 269 102.13484098968793 L 270 102.22809894020354 L 271 102.26669399319336 L 272 102.30335929353369 L 273 102.388191328857 L 274 102.46878176241415 L 275 102.59534267429345 L 276 102.71557554057878 L 277 102.87979676354985 L 278 102.98580692537236 L 279 103.03651657910375 L 280 103.03469075014856 L 281 103.03295621264112 L 282 102.98130840200906 L 283 102.93224298190862 L 284 102.83563083281318 L 285 102.69384929117253 L 286 102.5591568266139 L 287 102.4811989852832 L 288 102.40713903601905 L 289 102.3867820842181 L 290 102.3674429800072 L 291 102.34907083100684 L 292 102.3816172894565 L 293 102.41253642498367 L 294 102.49190960373448 L 295 102.56731412354776 L 296 102.68894841737037 L 297 102.85450099650186 L 298 103.01177594667676 L 299 103.11118714934292 L 300 103.25562779187578 L 301 103.34284640228199 L 302 103.4257040821679 L 303 103.55441887805951 L 304 103.62669793415654 L 305 103.69536303744871 L 306 103.76059488557628 L 307 103.82256514129747 L 308 103.9314368842326 L 309 104.08486504002097 L 310 104.23062178801992 L 311 104.31909069861892 L 312 104.40313616368798 L 313 104.53297935550357 L 314 104.65633038772839 L 315 104.72351386834197 L 316 104.83733817492487 L 317 104.94547126617863 L 318 105.0981977028697 L 319 105.29328781772621 L 320 105.4786234268399 L 321 105.6546922554979 L 322 105.821957642723 L 323 106.03085976058685 L 324 106.27931677255751 L 325 106.46535093392963 L 326 106.69208338723314 L 327 106.90747921787148 L 328 107.06210525697792 L 329 107.15899999412902 L 330 107.30104999442257 L 331 107.43599749470144 L 332 107.56419761996636 L 333 107.63598773896804 L 334 107.65418835201964 L 335 107.62147893441866 L 336 107.64040498769774 L 337 107.60838473831285 L 338 107.62796550139721 L 339 107.69656722632735 L 340 107.76173886501098 L 341 107.87365192176043 L 342 108.02996932567241 L 343 108.12847085938878 L 344 108.27204731641935 L 345 108.40844495059838 L 346 108.53802270306846 L 347 108.66112156791505 L 348 108.82806548951929 L 349 109.03666221504332 L 350 109.28482910429116 L 351 109.4705876490766 L 352 109.64705826662278 L 353 109.81470535329164 L 354 110.02397008562706 L 355 110.27277158134571 L 356 110.55913300227843 L 357 110.8811763521645 L 358 111.13711753455628 L 359 111.38026165782847 L 360 111.56124857493705 L 361 111.7331861461902 L 362 111.9465268388807 L 363 112.14920049693667 L 364 112.29174047208984 L 365 112.47715344848535 L 366 112.70329577606108 L 367 112.86813098725803 L 368 113.02472443789513 L 369 113.12348821600037 L 370 113.26731380520035 L 371 113.45394811494033 L 372 113.63125070919331 L 373 113.79968817373364 L 374 114.00970376504696 L 375 114.20921857679461 L 376 114.34875764795488 L 377 114.53131976555714 L 378 114.70475377727928 L 379 114.81951608841531 L 380 114.87854028399455 L 381 114.98461326979482 L 382 115.08538260630507 L 383 115.18111347598982 L 384 115.22205780219032 L 385 115.21095491208081 L 386 115.20040716647677 L 387 115.19038680815292 L 388 115.13086746774528 L 389 115.12432409435802 L 390 115.16810788964011 L 391 115.25970249515811 L 392 115.39671737040021 L 393 115.5268815018802 L 394 115.60053742678619 L 395 115.72051055544688 L 396 115.78448502767453 L 397 115.7952607762908 L 398 115.75549773747626 L 399 115.71772285060244 L 400 115.68183670807232" />
</svg>
