<?xml version="1.0" encoding="UTF-8"?>
<svg id="svg939" width="50.5mm" height="128.5mm" version="1.1" viewBox="0 0 50.5 128.5" xmlns="http://www.w3.org/2000/svg">
  <defs id="defs407">
    <linearGradient id="id1" x1="1" x2="0" y2="1">
      <stop id="stop3" stop-color="#aaa" offset="0"/>
      <stop id="stop5" offset="1"/>
    </linearGradient>
    <linearGradient id="id2" x1="1" x2="0" y2="1">
      <stop id="stop8" stop-color="#111" offset="0"/>
      <stop id="stop10" stop-color="#888" offset="1"/>
    </linearGradient>
    <radialGradient id="id3">
      <stop id="stop13" stop-color="#fff" offset="0"/>
      <stop id="stop15" stop-color="#fca002" offset="1"/>
    </radialGradient>
    <linearGradient id="id43" x1="1" x2="0" y2="1">
      <stop id="stop213" stop-color="#fff" offset="-1"/>
      <stop id="stop215" offset="2"/>
    </linearGradient>
    <radialGradient id="id44">
      <stop id="stop218" offset=".74603"/>
      <stop id="stop220" stop-color="#fff" offset=".87302"/>
      <stop id="stop222" stop-color="#444" offset="1"/>
    </radialGradient>
    <linearGradient id="id45" x1="1" x2="0" y2="1">
      <stop id="stop225" offset="0"/>
      <stop id="stop227" stop-color="#333" offset="1"/>
    </linearGradient>
    <radialGradient id="id55">
      <stop id="stop281" stop-color="#fff" offset="0"/>
      <stop id="stop283" stop-color="#08c914" offset="1"/>
    </radialGradient>
    <radialGradient id="id69">
      <stop id="stop359" stop-color="#fff" offset="0"/>
      <stop id="stop361" stop-color="red" offset="1"/>
    </radialGradient>
    <radialGradient id="id72">
      <stop id="stop374" stop-color="#666" offset="0"/>
      <stop id="stop376" stop-color="#666" offset=".75"/>
      <stop id="stop378" stop-color="#666" stop-opacity="0" offset=".85"/>
      <stop id="stop380" stop-color="#666" stop-opacity="0" offset="1"/>
    </radialGradient>
    <linearGradient id="id73" x1="1" x2="0" y2="1">
      <stop id="stop383" stop-color="#111" offset="0"/>
      <stop id="stop385" stop-color="#444" offset="1"/>
    </linearGradient>
  </defs>
  <rect id="background" width="50.5" height="128.5" fill="#fff"/>
  <g id="stencil" font-family="Ubuntu" font-size="3">
    <path id="path1762" d="m14.29 4.565q0-0.445 0.13-0.785 0.135-0.34 0.36-0.565 0.23-0.23 0.53-0.345 0.305-0.115 0.645-0.115 0.335 0 0.63 0.115 0.3 0.115 0.525 0.345 0.225 0.225 0.355 0.565 0.135 0.34 0.135 0.785 0 0.39-0.1 0.695t-0.28 0.53q-0.175 0.22-0.415 0.36-0.235 0.135-0.505 0.185 5e-3 0.115 0.1 0.2 0.1 0.09 0.25 0.15t0.335 0.1 0.37 0.06l-0.115 0.38q-0.26-0.035-0.5-0.095-0.235-0.055-0.43-0.15-0.19-0.095-0.32-0.245-0.13-0.145-0.175-0.365-0.315-0.02-0.595-0.145-0.28-0.13-0.485-0.355-0.205-0.23-0.325-0.555t-0.12-0.75zm0.51 0q0 0.315 0.08 0.575 0.08 0.255 0.225 0.435 0.15 0.18 0.36 0.28 0.215 0.095 0.48 0.095t0.475-0.095q0.21-0.1 0.355-0.28 0.15-0.18 0.23-0.435 0.08-0.26 0.08-0.575t-0.08-0.57q-0.08-0.26-0.23-0.44-0.145-0.18-0.355-0.275-0.21-0.1-0.475-0.1t-0.48 0.1q-0.21 0.095-0.36 0.275-0.145 0.18-0.225 0.44-0.08 0.255-0.08 0.57z"/>
    <path id="path1764" d="m20.36 6.225q-0.16 0.04-0.425 0.085-0.26 0.045-0.605 0.045-0.3 0-0.505-0.085-0.205-0.09-0.33-0.25t-0.18-0.375q-0.055-0.22-0.055-0.485v-1.46h0.465v1.36q0 0.475 0.15 0.68t0.505 0.205q0.075 0 0.155-5e-3t0.15-0.01q0.07-0.01 0.125-0.015 0.06-0.01 0.085-0.02v-2.195h0.465z"/>
    <path id="path1766" d="m22.04 5.965q0.165 0 0.29-5e-3 0.13-0.01 0.215-0.03v-0.775q-0.05-0.025-0.165-0.04-0.11-0.02-0.27-0.02-0.105 0-0.225 0.015-0.115 0.015-0.215 0.065-0.095 0.045-0.16 0.13-0.065 0.08-0.065 0.215 0 0.25 0.16 0.35 0.16 0.095 0.435 0.095zm-0.04-2.33q0.28 0 0.47 0.075 0.195 0.07 0.31 0.205 0.12 0.13 0.17 0.315 0.05 0.18 0.05 0.4v1.625q-0.06 0.01-0.17 0.03-0.105 0.015-0.24 0.03t-0.295 0.025q-0.155 0.015-0.31 0.015-0.22 0-0.405-0.045t-0.32-0.14q-0.135-0.1-0.21-0.26t-0.075-0.385q0-0.215 0.085-0.37 0.09-0.155 0.24-0.25t0.35-0.14 0.42-0.045q0.07 0 0.145 0.01 0.075 5e-3 0.14 0.02 0.07 0.01 0.12 0.02t0.07 0.015v-0.13q0-0.115-0.025-0.225-0.025-0.115-0.09-0.2-0.065-0.09-0.18-0.14-0.11-0.055-0.29-0.055-0.23 0-0.405 0.035-0.17 0.03-0.255 0.065l-0.055-0.385q0.09-0.04 0.3-0.075 0.21-0.04 0.455-0.04z"/>
    <path id="path1768" d="m23.77 3.775q0.16-0.04 0.425-0.085t0.61-0.045q0.31 0 0.515 0.09 0.205 0.085 0.325 0.245 0.125 0.155 0.175 0.375t0.05 0.485v1.46h-0.465v-1.36q0-0.24-0.035-0.41-0.03-0.17-0.105-0.275t-0.2-0.15q-0.125-0.05-0.31-0.05-0.075 0-0.155 5e-3t-0.155 0.015q-0.07 5e-3 -0.13 0.015-0.055 0.01-0.08 0.015v2.195h-0.465z"/>
    <path id="path1770" d="m27.075 3.7h0.985v0.39h-0.985v1.2q0 0.195 0.03 0.325 0.03 0.125 0.09 0.2 0.06 0.07 0.15 0.1t0.21 0.03q0.21 0 0.335-0.045 0.13-0.05 0.18-0.07l0.09 0.385q-0.07 0.035-0.245 0.085-0.175 0.055-0.4 0.055-0.265 0-0.44-0.065-0.17-0.07-0.275-0.205t-0.15-0.33q-0.04-0.2-0.04-0.46v-2.32l0.465-0.08z"/>
    <path id="path1772" d="m29.115 6.3h-0.465v-2.6h0.465zm-0.235-3.07q-0.125 0-0.215-0.08-0.085-0.085-0.085-0.225t0.085-0.22q0.09-0.085 0.215-0.085t0.21 0.085q0.09 0.08 0.09 0.22t-0.09 0.225q-0.085 0.08-0.21 0.08z"/>
    <path id="path1774" d="m31.64 4.05q-0.105 0.115-0.28 0.325-0.17 0.21-0.37 0.465-0.195 0.255-0.395 0.535-0.195 0.28-0.345 0.535h1.43v0.39h-1.985v-0.31q0.12-0.22 0.295-0.485t0.365-0.525q0.195-0.265 0.375-0.495 0.185-0.235 0.32-0.395h-1.285v-0.39h1.875z"/>
    <path id="path1776" d="m32.03 5.005q0-0.345 0.1-0.6 0.1-0.26 0.265-0.43t0.38-0.255 0.44-0.085q0.525 0 0.805 0.33 0.28 0.325 0.28 0.995 0 0.03 0 0.08 0 0.045-5e-3 0.085h-1.78q0.03 0.405 0.235 0.615t0.64 0.21q0.245 0 0.41-0.04 0.17-0.045 0.255-0.085l0.065 0.39q-0.085 0.045-0.3 0.095-0.21 0.05-0.48 0.05-0.34 0-0.59-0.1-0.245-0.105-0.405-0.285t-0.24-0.425q-0.075-0.25-0.075-0.545zm1.785-0.255q5e-3 -0.315-0.16-0.515-0.16-0.205-0.445-0.205-0.16 0-0.285 0.065-0.12 0.06-0.205 0.16t-0.135 0.23q-0.045 0.13-0.06 0.265z"/>
    <path id="path1778" d="m35.93 3.645q0.06 0 0.135 0.01 0.08 5e-3 0.155 0.02 0.075 0.01 0.135 0.025 0.065 0.01 0.095 0.02l-0.08 0.405q-0.055-0.02-0.185-0.045-0.125-0.03-0.325-0.03-0.13 0-0.26 0.03-0.125 0.025-0.165 0.035v2.185h-0.465v-2.49q0.165-0.06 0.41-0.11 0.245-0.055 0.55-0.055z"/>
    <path id="path413" transform="translate(17.75 119.5) scale(.15)" d="m23.274 0c-12.804 0-23.274 10.47-23.274 23.274 0 12.804 10.47 23.274 23.274 23.274 6.2817 0 11.38-2.5486 15.731-6.2455 1.5387-1.3073 3.0762-2.7877 4.6583-4.3876l-0.0086-5.8693-5.9894 0.0026c-1.4839 1.5057-2.8467 2.8283-4.0804 3.8765-3.5126 2.9845-6.0494 4.2541-10.311 4.2541-8.2813 0-14.905-6.6235-14.905-14.905 0-8.2813 6.6235-14.905 14.905-14.905 4.2612 0 6.7981 1.2697 10.311 4.2541 1.2337 1.0482 2.5965 2.3707 4.0804 3.8765l5.9894 0.0026 0.0086-5.8693c-1.5821-1.5999-3.1196-3.0803-4.6583-4.3876-4.351-3.6969-9.4489-6.2455-15.731-6.2455zm53.451 0c-6.2815 1.0197e-4 -11.379 2.5487-15.73 6.2455-1.6075 1.3659-3.2135 2.9188-4.8712 4.602h12.572c2.4765-1.7176 4.7403-2.4782 8.0292-2.4783h3.82e-4c6.2002 0 11.47 3.7129 13.728 9.0545l-6.0416-0.07531-8.5851-3.0797-28.741 3.81e-4v5.6456h-22.686v6.7186h22.686v5.6456l28.741 3.82e-4 8.5851-3.0797 6.0416-0.07531c-2.2576 5.3415-7.5279 9.0545-13.728 9.0545h-3.82e-4c-3.2889-5.9e-5 -5.5527-0.76071-8.0292-2.4783h-12.572c1.6577 1.6832 3.2637 3.2361 4.8712 4.602 4.3509 3.6968 9.4487 6.2454 15.73 6.2455h3.82e-4c12.804 0 23.274-10.47 23.274-23.274-8e-6 -12.804-10.47-23.274-23.274-23.274zm-59.712 19.295-2.8907 3.9786 2.8907 3.9786 4.6773-1.5197v-4.9178z"/>
    <g id="g421" transform="translate(32.64,33.36)">
      <path id="path419" d="m0.10335 0.16381v2.6722h0.50023v-1.0862h0.76946v0.63252l0.64079-0.44132 0.43925-0.30231v1.1973h0.50023v-2.6722h-0.50023v1.1973l-0.43925-0.30231-0.64079-0.44132v0.63252h-0.76946v-1.0862z"/>
    </g>
    <circle id="circle423" cx="44.3" cy="34.86" r="3.81" stroke="#000" stroke-width=".4"/>
    <path id="path425" d="m40.49 34.86h-2.54" fill="none" stroke="#000" stroke-width=".5"/>
    <g id="g433" transform="translate(31.449 37.805)">
      <path id="path431" d="m-0.42501 0.054309v0.45951h0.7223v1.7556l-0.37899 0.57475 0.002411 0.00145h0.66733l1.839-2.7913h-0.66974l-0.19866 0.30136v-0.30136zm2.868 0.41515c-0.036388 0-0.071672 0.001381-0.10608 0.003857l-0.68903 1.0463c0.034591 0.056031 0.076159 0.10616 0.12488 0.14947 0.062212 0.052996 0.13237 0.097661 0.21071 0.13453 0.078341 0.034562 0.15648 0.065892 0.23482 0.093542 0.17972 0.059908 0.3067 0.11625 0.38044 0.16924 0.073733 0.050691 0.11042 0.11501 0.11042 0.19335 0 0.036867-0.00584 0.070339-0.017358 0.10029-0.011521 0.029954-0.032247 0.056517-0.062201 0.079559-0.029954 0.020738-0.069852 0.03825-0.12054 0.052075-0.048388 0.011522-0.11105 0.016877-0.18708 0.016877-0.15207-1e-7 -0.28071-0.014888-0.38671-0.044842-0.10369-0.032258-0.19136-0.067872-0.26279-0.10704l-0.15189 0.42865c0.032258 0.018433 0.071086 0.038088 0.11717 0.058826 0.048387 0.020738 0.10473 0.040392 0.16924 0.058825 0.066821 0.018433 0.1433 0.033321 0.22855 0.044842 0.085254 0.013825 0.18042 0.020734 0.28641 0.020734 0.31567 0 0.55212-0.061106 0.7088-0.18323 0.15668-0.12442 0.23482-0.29869 0.23482-0.5222 0-0.11521-0.014888-0.213-0.044842-0.29365-0.029954-0.080646-0.076173-0.1508-0.13838-0.21071-0.059908-0.059908-0.1359-0.11196-0.22807-0.15574-0.092167-0.046084-0.20008-0.091819-0.3245-0.1379-0.059908-0.020738-0.11518-0.040392-0.16587-0.058826-0.048387-0.020737-0.092463-0.042534-0.13163-0.065576-0.036866-0.025346-0.065572-0.05298-0.08631-0.082934s-0.031341-0.067122-0.031341-0.1109c0-0.073733 0.027635-0.12793 0.082934-0.16249 0.057604-0.036867 0.15111-0.054968 0.28014-0.054968 0.11521 0 0.213 0.013817 0.29365 0.041467 0.08295 0.025345 0.15787 0.055122 0.22469 0.089685l0.15574-0.42528c-0.076037-0.041475-0.17276-0.079231-0.29027-0.11379-0.11751-0.034562-0.25724-0.052075-0.41853-0.052075zm-1.6066 0.04436h0.61815l-0.61815 0.93783z"/>
    </g>
    <circle id="circle435" cx="41.748" cy="44.385" r="3.81" fill="none" stroke="#000" stroke-width=".4"/>
    <path id="path437" d="m38.448 42.48-2.1997-1.27" fill="none" stroke="#000" stroke-width=".5"/>
    <g id="g445" transform="translate(28.195 41.059)">
      <path id="path443" d="m2.5775 0.088716-0.63252 1.095h0.40049v0.632h-0.40049l0.63252 1.0955 0.632-1.0955h-0.39946v-0.632h0.39946zm-1.4066 0.03101a0.31675 0.31675 0 0 0-0.30489 0.23254 0.31675 0.31675 0 0 0-0.38551-0.05426 0.31675 0.31675 0 0 0-0.13798 0.38396 0.31675 0.31675 0 0 0-0.3669 0.14366 0.31675 0.31675 0 0 0 0.04031 0.37155 0.31675 0.31675 0 0 0-0.22531 0.30282 0.31675 0.31675 0 0 0 0.23151 0.30489 0.31675 0.31675 0 0 0-0.04651 0.37879 0.31675 0.31675 0 0 0 0.3669 0.14366 0.31675 0.31675 0 0 0 0.13798 0.38396 0.31675 0.31675 0 0 0 0.38757-0.05633 0.31675 0.31675 0 0 0 0.30282 0.22531 0.31675 0.31675 0 0 0 0.30748-0.24288 0.31675 0.31675 0 0 0 0.3824 0.05168 0.31675 0.31675 0 0 0 0.11627-0.43305 0.31675 0.31675 0 0 0-0.43305-0.11576 0.31675 0.31675 0 0 0-0.14883 0.20102 0.31675 0.31675 0 0 0-0.22428-0.09457 0.31675 0.31675 0 0 0-0.22893 0.0987 0.31675 0.31675 0 0 0-0.14469-0.18294 0.31675 0.31675 0 0 0-0.25063-0.02791 0.31675 0.31675 0 0 0-0.02274-0.26768 0.31675 0.31675 0 0 0-0.19069-0.14624 0.31675 0.31675 0 0 0 0.09095-0.22066 0.31675 0.31675 0 0 0-0.08268-0.21342 0.31675 0.31675 0 0 0 0.18242-0.14418 0.31675 0.31675 0 0 0 0.02326-0.26717 0.31675 0.31675 0 0 0 0.25011-0.02842 0.31675 0.31675 0 0 0 0.14728-0.19017 0.31675 0.31675 0 0 0 0.22634 0.09663 0.31675 0.31675 0 0 0 0.22221-0.09147 0.31675 0.31675 0 0 0 0.1509 0.20722 0.31675 0.31675 0 0 0 0.43305-0.11576 0.31675 0.31675 0 0 0-0.11627-0.43253 0.31675 0.31675 0 0 0-0.38086 0.04961 0.31675 0.31675 0 0 0-0.30902-0.25063z"/>
    </g>
    <circle id="circle447" cx="34.775" cy="51.358" r="3.81" fill="none" stroke="#000" stroke-width=".4"/>
    <path id="path449" d="m32.87 48.058-1.27-2.1997" fill="none" stroke="#000" stroke-width=".5"/>
    <g id="g457" transform="translate(23.75,42.25)">
      <path id="path455" d="m1.5003 0.088716-0.63252 1.095h0.40049v0.632h-0.40049l0.63252 1.0955 0.632-1.0955h-0.39946v-0.632h0.39946zm0.98754 0.5519a0.31675 0.31675 0 0 0-0.17363 0.04186 0.31675 0.31675 0 0 0-0.11576 0.43305 0.31675 0.31675 0 0 0 0.2005 0.14883 0.31675 0.31675 0 0 0-0.10025 0.23048 0.31675 0.31675 0 0 0 0.10749 0.23823 0.31675 0.31675 0 0 0-0.20774 0.15141 0.31675 0.31675 0 0 0 0.11576 0.43253 0.31675 0.31675 0 0 0 0.43305-0.11576 0.31675 0.31675 0 0 0-0.06615-0.39739 0.31675 0.31675 0 0 0 0.25063-0.30902 0.31675 0.31675 0 0 0-0.24184-0.30748 0.31675 0.31675 0 0 0 0.05736-0.38861 0.31675 0.31675 0 0 0-0.25942-0.15813zm-1.9751 0.02222a0.31675 0.31675 0 0 0-0.25942 0.15813 0.31675 0.31675 0 0 0 0.04031 0.37104 0.31675 0.31675 0 0 0-0.22531 0.30282 0.31675 0.31675 0 0 0 0.23203 0.30541 0.31675 0.31675 0 0 0-0.04702 0.37879 0.31675 0.31675 0 0 0 0.43305 0.11576 0.31675 0.31675 0 0 0 0.11576-0.43253 0.31675 0.31675 0 0 0-0.19069-0.14624 0.31675 0.31675 0 0 0 0.09043-0.22118 0.31675 0.31675 0 0 0-0.08216-0.21291 0.31675 0.31675 0 0 0 0.18242-0.14418 0.31675 0.31675 0 0 0-0.11576-0.43305 0.31675 0.31675 0 0 0-0.17363-0.04186z"/>
    </g>
    <circle id="circle459" cx="25.25" cy="53.91" r="3.81" stroke="#000" stroke-width=".4"/>
    <path id="path461" d="m25.25 50.1v-2.54" fill="none" stroke="#000" stroke-width=".5"/>
    <g id="g469" transform="translate(19.305 41.059)">
      <path id="path467" d="m0.42255 0.088716 0.63252 1.095h-0.40049v0.632h0.40049l-0.63252 1.0955-0.632-1.0955h0.39946v-0.632h-0.39946zm1.4066 0.03101a0.31675 0.31675 0 0 1 0.30489 0.23254 0.31675 0.31675 0 0 1 0.38551-0.05426 0.31675 0.31675 0 0 1 0.13798 0.38396 0.31675 0.31675 0 0 1 0.3669 0.14366 0.31675 0.31675 0 0 1-0.04031 0.37155 0.31675 0.31675 0 0 1 0.22531 0.30282 0.31675 0.31675 0 0 1-0.23151 0.30489 0.31675 0.31675 0 0 1 0.04651 0.37879 0.31675 0.31675 0 0 1-0.3669 0.14366 0.31675 0.31675 0 0 1-0.13798 0.38396 0.31675 0.31675 0 0 1-0.38757-0.05633 0.31675 0.31675 0 0 1-0.30282 0.22531 0.31675 0.31675 0 0 1-0.30748-0.24288 0.31675 0.31675 0 0 1-0.3824 0.05168 0.31675 0.31675 0 0 1-0.11627-0.43305 0.31675 0.31675 0 0 1 0.43305-0.11576 0.31675 0.31675 0 0 1 0.14883 0.20102 0.31675 0.31675 0 0 1 0.22428-0.09457 0.31675 0.31675 0 0 1 0.22893 0.0987 0.31675 0.31675 0 0 1 0.14469-0.18294 0.31675 0.31675 0 0 1 0.25063-0.02791 0.31675 0.31675 0 0 1 0.02274-0.26768 0.31675 0.31675 0 0 1 0.19069-0.14624 0.31675 0.31675 0 0 1-0.09095-0.22066 0.31675 0.31675 0 0 1 0.08268-0.21342 0.31675 0.31675 0 0 1-0.18242-0.14418 0.31675 0.31675 0 0 1-0.02325-0.26717 0.31675 0.31675 0 0 1-0.25011-0.02842 0.31675 0.31675 0 0 1-0.14728-0.19017 0.31675 0.31675 0 0 1-0.22634 0.09663 0.31675 0.31675 0 0 1-0.22221-0.09147 0.31675 0.31675 0 0 1-0.1509 0.20722 0.31675 0.31675 0 0 1-0.43305-0.11576 0.31675 0.31675 0 0 1 0.11627-0.43253 0.31675 0.31675 0 0 1 0.38086 0.04961 0.31675 0.31675 0 0 1 0.30902-0.25063z"/>
    </g>
    <circle id="circle471" cx="15.725" cy="51.358" r="3.81" fill="none" stroke="#000" stroke-width=".4"/>
    <path id="path473" d="m17.63 48.058 1.27-2.1997" fill="none" stroke="#000" stroke-width=".5"/>
    <g id="g481" transform="translate(16.051 37.805)">
      <path id="path479" d="m1.705 0.28446v0.71176h0.89917v0.40652h-0.89917v0.71243h-0.40997v-0.71243h-0.89917v-0.40652h0.89917v-0.71176zm-1.3091 2.0211h2.2083v0.40997h-2.2083z"/>
    </g>
    <circle id="circle483" cx="8.7522" cy="44.385" r="3.81" stroke="#000" stroke-width=".4"/>
    <path id="path485" d="m12.052 42.48 2.1997-1.27" fill="none" stroke="#000" stroke-width=".5"/>
    <g id="g493" transform="translate(14.86,33.36)">
      <path id="path491" d="m1.7041 0.23264c-0.35669 0-0.66906 0.2003-0.82992 0.49403h0.42168c0.06718 0 0.13293 0.0062 0.19689 0.01809 0.06348-0.0303 0.13485-0.04754 0.21136-0.04754h0.84181c0.27022 0 0.48059 0.21037 0.48059 0.48059s-0.21037 0.48059-0.48059 0.48059h-0.84181c-0.14731 0-0.27648-0.06319-0.3638-0.16381-0.01448-0.0018-0.02925-0.0026-0.04444-0.0026h-0.48266c0.13037 0.3665 0.48122 0.63097 0.8909 0.63097h0.84181c0.51978 0 0.94516-0.42538 0.94516-0.94516 0-0.51978-0.42538-0.94516-0.94516-0.94516zm-1.2501 0.6444c-0.51978 0-0.94516 0.42538-0.94516 0.94516 0 0.51978 0.42538 0.94516 0.94516 0.94516h0.84181c0.3567 0 0.66906-0.2003 0.82992-0.49403h-0.39378c-0.0741 0-0.14637-0.0079-0.21652-0.02222-0.06552 0.03287-0.13974 0.05168-0.21962 0.05168h-0.84181c-0.27022 0-0.48059-0.21037-0.48059-0.48059 0-0.27022 0.21037-0.48059 0.48059-0.48059h0.84181c0.1443 0 0.27091 0.06059 0.35812 0.15761 0.0249 0.0056 0.05078 0.0088 0.07803 0.0088h0.45475c-0.13037-0.3665-0.48122-0.63097-0.8909-0.63097z"/>
    </g>
    <circle id="circle495" cx="6.2" cy="34.86" r="3.81" fill="none" stroke="#000" stroke-width=".4"/>
    <path id="path497" d="m10.01 34.86h2.54" fill="none" stroke="#000" stroke-width=".5"/>
    <g id="g505" transform="translate(16.051 28.915)">
      <path id="path503" d="m2.0193 2.3173h-1.037l-0.16364 0.46853h-0.66663l0.95257-2.5718h0.79065l0.95257 2.5718h-0.66663zm-0.87161-0.47715h0.70452l-0.3514-1.0232z"/>
    </g>
    <circle id="circle507" cx="8.7522" cy="25.335" r="3.81" stroke="#000" stroke-width=".4"/>
    <path id="path509" d="m12.052 27.24 2.1997 1.27" fill="none" stroke="#000" stroke-width=".5"/>
    <g id="g517" transform="translate(19.305 25.661)">
      <path id="path515" d="m1.4716 1.2098q0.15675 0 0.23771-0.068902 0.08096-0.068902 0.08096-0.20326 0-0.13264-0.08096-0.20154-0.08096-0.070624-0.23771-0.070624h-0.3669v0.54433zm0.022393 1.1248q0.19982 0 0.29972-0.084405 0.10163-0.084405 0.10163-0.25494 0-0.16709-0.099908-0.24977-0.099908-0.084405-0.30145-0.084405h-0.3893v0.67352zm0.61667-0.92501q0.2136 0.062012 0.33073 0.2291 0.11713 0.16709 0.11713 0.40997 0 0.37207-0.25149 0.55466-0.25149 0.18259-0.76481 0.18259h-1.1007v-2.5718h0.99563q0.53571 0 0.77515 0.16192 0.24116 0.16192 0.24116 0.51849 0 0.18776-0.08785 0.32039-0.08785 0.13091-0.25494 0.19465z"/>
    </g>
    <circle id="circle519" cx="15.725" cy="18.362" r="3.81" fill="none" stroke="#000" stroke-width=".4"/>
    <path id="path521" d="m17.63 21.662 1.27 2.1997" fill="none" stroke="#000" stroke-width=".5"/>
    <g id="g529" transform="translate(23.75,24.47)">
      <path id="path527" d="m1.5945 0.22705c0.41014 0.0063 0.80322 0.21133 1.0402 0.56586 0.31604 0.47269 0.27916 1.0997-0.0894 1.5327-0.36857 0.43299-0.98307 0.56878-1.5002 0.33228l0.19327-0.42168c0.32991 0.15088 0.71776 0.06489 0.95291-0.21136 0.23515-0.27625 0.25848-0.67304 0.05684-0.97462-0.20163-0.30158-0.57676-0.43161-0.92191-0.31988-0.23012 0.0745-0.40678 0.24389-0.49558 0.45579h0.57878l-0.82166 1.4232-0.82166-1.4232h0.57516c0.1062-0.41558 0.41916-0.76063 0.84233-0.89762 0.13524-0.04378 0.27411-0.0636 0.41083-0.0615z"/>
    </g>
    <circle id="circle531" cx="25.25" cy="15.81" r="3.81" fill="none" stroke="#000" stroke-width=".4"/>
    <path id="path533" d="m25.25 19.62v2.54" fill="none" stroke="#000" stroke-width=".5"/>
    <g id="g541" transform="translate(28.195 25.661)">
      <path id="path539" d="m1.4058 0.22705c-0.41014 0.0063-0.80322 0.21133-1.0402 0.56586-0.31604 0.47269-0.27916 1.0997 0.0894 1.5327 0.36857 0.43299 0.98307 0.56878 1.5002 0.33228l-0.19327-0.42168c-0.32991 0.15088-0.71776 0.06489-0.95291-0.21136-0.23515-0.27625-0.25848-0.67304-0.05684-0.97462 0.20163-0.30158 0.57676-0.43161 0.92191-0.31988 0.23012 0.0745 0.40678 0.24389 0.49558 0.45579h-0.57878l0.82166 1.4232 0.82166-1.4232h-0.57516c-0.1062-0.41558-0.41916-0.76063-0.84233-0.89762-0.13524-0.04378-0.27411-0.0636-0.41083-0.0615z"/>
    </g>
    <circle id="circle543" cx="34.775" cy="18.362" r="3.81" stroke="#000" stroke-width=".4"/>
    <path id="path545" d="m32.87 21.662-1.27 2.1997" fill="none" stroke="#000" stroke-width=".5"/>
    <g id="g553" transform="translate(31.449 28.915)">
      <path id="path551" d="m2.793 0.37891c-0.5029 0-0.84964 0.12823-1.0742 0.3418-0.22458 0.21357-0.31226 0.47708-0.39453 0.69727-0.08227 0.22019-0.15619 0.39739-0.29492 0.51953-0.13873 0.12214-0.36308 0.21875-0.82227 0.21875v0.46484c0.5289 0 0.89102-0.12478 1.1309-0.33594 0.23984-0.21116 0.3381-0.47891 0.42188-0.70313 0.083775-0.22422 0.15535-0.40566 0.28125-0.52539 0.1259-0.11973 0.32297-0.21289 0.75195-0.21289z"/>
    </g>
    <circle id="circle555" cx="41.748" cy="25.335" r="3.81" fill="none" stroke="#000" stroke-width=".4"/>
    <path id="path557" d="m38.448 27.24-2.1997 1.27" fill="none" stroke="#000" stroke-width=".5"/>
    <path id="path559" d="m25.25 78.04v34.29"/>
    <path id="path1781" d="m4.995 70.213q0.456 0 0.456-0.312 0-0.096-0.042-0.162-0.039-0.069-0.108-0.117-0.069-0.051-0.159-0.087-0.087-0.036-0.186-0.072-0.114-0.039-0.216-0.087-0.102-0.051-0.177-0.117-0.075-0.069-0.12-0.162-0.042-0.093-0.042-0.225 0-0.273 0.186-0.426t0.513-0.153q0.189 0 0.342 0.042 0.156 0.039 0.228 0.087l-0.093 0.237q-0.063-0.039-0.189-0.075-0.123-0.039-0.288-0.039-0.084 0-0.156 0.018t-0.126 0.054-0.087 0.093q-0.03 0.054-0.03 0.129 0 0.084 0.033 0.141t0.093 0.102q0.06 0.042 0.138 0.078 0.081 0.036 0.177 0.072 0.135 0.054 0.246 0.108 0.114 0.054 0.195 0.129 0.084 0.075 0.129 0.18 0.045 0.102 0.045 0.249 0 0.273-0.201 0.42-0.198 0.147-0.561 0.147-0.123 0-0.228-0.018-0.102-0.015-0.183-0.036-0.081-0.024-0.141-0.048-0.057-0.027-0.09-0.045l0.087-0.24q0.069 0.039 0.21 0.087t0.345 0.048z"/>
    <path id="path1783" d="m6.09 70.42v-2.28l0.279-0.048v0.798q0.078-0.03 0.165-0.045 0.09-0.018 0.177-0.018 0.186 0 0.309 0.054 0.123 0.051 0.195 0.147 0.075 0.093 0.105 0.225t0.03 0.291v0.876h-0.279v-0.816q0-0.144-0.021-0.246-0.018-0.102-0.063-0.165t-0.12-0.09q-0.075-0.03-0.186-0.03-0.045 0-0.093 6e-3t-0.093 0.015q-0.042 6e-3 -0.078 0.015-0.033 9e-3 -0.048 0.015v1.296z"/>
    <path id="path1785" d="m8.082 70.42h-0.279v-1.56h0.279zm-0.141-1.842q-0.075 0-0.129-0.048-0.051-0.051-0.051-0.135t0.051-0.132q0.054-0.051 0.129-0.051t0.126 0.051q0.054 0.048 0.054 0.132t-0.054 0.135q-0.051 0.048-0.126 0.048z"/>
    <path id="path1787" d="m9.171 68.092q0.123 0 0.21 0.018 0.09 0.018 0.126 0.033l-0.051 0.24q-0.036-0.018-0.102-0.033-0.066-0.018-0.162-0.018-0.195 0-0.273 0.108-0.078 0.105-0.078 0.285v0.135h0.6v0.234h-0.6v1.326h-0.279v-1.701q0-0.3 0.147-0.462 0.147-0.165 0.462-0.165z"/>
    <path id="path1789" d="m9.981 68.86h0.591v0.234h-0.591v0.72q0 0.117 0.018 0.195 0.018 0.075 0.054 0.12 0.036 0.042 0.09 0.06t0.126 0.018q0.126 0 0.201-0.027 0.078-0.03 0.108-0.042l0.054 0.231q-0.042 0.021-0.147 0.051-0.105 0.033-0.24 0.033-0.159 0-0.264-0.039-0.102-0.042-0.165-0.123t-0.09-0.198q-0.024-0.12-0.024-0.276v-1.392l0.279-0.048z"/>
    <path id="path1792" d="m30.432 70.168v0.252h-1.251v-2.079h0.291v1.827z"/>
    <path id="path1794" d="m32.061 69.64q0 0.186-0.054 0.336t-0.153 0.258q-0.096 0.108-0.231 0.168-0.135 0.057-0.294 0.057t-0.294-0.057q-0.135-0.06-0.234-0.168-0.096-0.108-0.15-0.258t-0.054-0.336q0-0.183 0.054-0.333 0.054-0.153 0.15-0.261 0.099-0.108 0.234-0.165 0.135-0.06 0.294-0.06t0.294 0.06q0.135 0.057 0.231 0.165 0.099 0.108 0.153 0.261 0.054 0.15 0.054 0.333zm-0.291 0q0-0.264-0.12-0.417-0.117-0.156-0.321-0.156t-0.324 0.156q-0.117 0.153-0.117 0.417t0.117 0.42q0.12 0.153 0.324 0.153t0.321-0.153q0.12-0.156 0.12-0.42z"/>
    <path id="path1796" d="m32.982 70.219q0.099 0 0.174-3e-3 0.078-6e-3 0.129-0.018v-0.465q-0.03-0.015-0.099-0.024-0.066-0.012-0.162-0.012-0.063 0-0.135 9e-3 -0.069 9e-3 -0.129 0.039-0.057 0.027-0.096 0.078-0.039 0.048-0.039 0.129 0 0.15 0.096 0.21 0.096 0.057 0.261 0.057zm-0.024-1.398q0.168 0 0.282 0.045 0.117 0.042 0.186 0.123 0.072 0.078 0.102 0.189 0.03 0.108 0.03 0.24v0.975q-0.036 6e-3 -0.102 0.018-0.063 9e-3 -0.144 0.018t-0.177 0.015q-0.093 9e-3 -0.186 9e-3 -0.132 0-0.243-0.027t-0.192-0.084q-0.081-0.06-0.126-0.156t-0.045-0.231q0-0.129 0.051-0.222 0.054-0.093 0.144-0.15t0.21-0.084 0.252-0.027q0.042 0 0.087 6e-3 0.045 3e-3 0.084 0.012 0.042 6e-3 0.072 0.012t0.042 9e-3v-0.078q0-0.069-0.015-0.135-0.015-0.069-0.054-0.12-0.039-0.054-0.108-0.084-0.066-0.033-0.174-0.033-0.138 0-0.243 0.021-0.102 0.018-0.153 0.039l-0.033-0.231q0.054-0.024 0.18-0.045 0.126-0.024 0.273-0.024z"/>
    <path id="path1798" d="m35.028 69.19q-0.051-0.042-0.147-0.081t-0.21-0.039q-0.12 0-0.207 0.045-0.084 0.042-0.138 0.12-0.054 0.075-0.078 0.18t-0.024 0.225q0 0.273 0.135 0.423 0.135 0.147 0.36 0.147 0.114 0 0.189-9e-3 0.078-0.012 0.12-0.024zm0-1.05 0.279-0.048v2.283q-0.096 0.027-0.246 0.054t-0.345 0.027q-0.18 0-0.324-0.057t-0.246-0.162-0.159-0.255q-0.054-0.153-0.054-0.342 0-0.18 0.045-0.33 0.048-0.15 0.138-0.258t0.219-0.168q0.132-0.06 0.3-0.06 0.135 0 0.237 0.036 0.105 0.036 0.156 0.069z"/>
    <path id="path1801" d="m40.642 70.213q0.456 0 0.456-0.312 0-0.096-0.042-0.162-0.039-0.069-0.108-0.117-0.069-0.051-0.159-0.087-0.087-0.036-0.186-0.072-0.114-0.039-0.216-0.087-0.102-0.051-0.177-0.117-0.075-0.069-0.12-0.162-0.042-0.093-0.042-0.225 0-0.273 0.186-0.426t0.513-0.153q0.189 0 0.342 0.042 0.156 0.039 0.228 0.087l-0.093 0.237q-0.063-0.039-0.189-0.075-0.123-0.039-0.288-0.039-0.084 0-0.156 0.018t-0.126 0.054-0.087 0.093q-0.03 0.054-0.03 0.129 0 0.084 0.033 0.141t0.093 0.102q0.06 0.042 0.138 0.078 0.081 0.036 0.177 0.072 0.135 0.054 0.246 0.108 0.114 0.054 0.195 0.129 0.084 0.075 0.129 0.18 0.045 0.102 0.045 0.249 0 0.273-0.201 0.42-0.198 0.147-0.561 0.147-0.123 0-0.228-0.018-0.102-0.015-0.183-0.036-0.081-0.024-0.141-0.048-0.057-0.027-0.09-0.045l0.087-0.24q0.069 0.039 0.21 0.087t0.345 0.048z"/>
    <path id="path1803" d="m42.265 70.219q0.099 0 0.174-3e-3 0.078-6e-3 0.129-0.018v-0.465q-0.03-0.015-0.099-0.024-0.066-0.012-0.162-0.012-0.063 0-0.135 9e-3 -0.069 9e-3 -0.129 0.039-0.057 0.027-0.096 0.078-0.039 0.048-0.039 0.129 0 0.15 0.096 0.21 0.096 0.057 0.261 0.057zm-0.024-1.398q0.168 0 0.282 0.045 0.117 0.042 0.186 0.123 0.072 0.078 0.102 0.189 0.03 0.108 0.03 0.24v0.975q-0.036 6e-3 -0.102 0.018-0.063 9e-3 -0.144 0.018t-0.177 0.015q-0.093 9e-3 -0.186 9e-3 -0.132 0-0.243-0.027t-0.192-0.084q-0.081-0.06-0.126-0.156t-0.045-0.231q0-0.129 0.051-0.222 0.054-0.093 0.144-0.15t0.21-0.084 0.252-0.027q0.042 0 0.087 6e-3 0.045 3e-3 0.084 0.012 0.042 6e-3 0.072 0.012t0.042 9e-3v-0.078q0-0.069-0.015-0.135-0.015-0.069-0.054-0.12-0.039-0.054-0.108-0.084-0.066-0.033-0.174-0.033-0.138 0-0.243 0.021-0.102 0.018-0.153 0.039l-0.033-0.231q0.054-0.024 0.18-0.045 0.126-0.024 0.273-0.024z"/>
    <path id="path1805" d="m44.476 68.86q-0.117 0.438-0.276 0.84-0.156 0.402-0.303 0.72h-0.252q-0.147-0.318-0.306-0.72-0.156-0.402-0.273-0.84h0.3q0.036 0.147 0.084 0.315 0.051 0.165 0.105 0.33 0.057 0.162 0.114 0.315t0.108 0.273q0.051-0.12 0.108-0.273t0.111-0.315q0.057-0.165 0.105-0.33 0.051-0.168 0.087-0.315z"/>
    <path id="path1807" d="m44.635 69.643q0-0.207 0.06-0.36 0.06-0.156 0.159-0.258t0.228-0.153 0.264-0.051q0.315 0 0.483 0.198 0.168 0.195 0.168 0.597 0 0.018 0 0.048 0 0.027-3e-3 0.051h-1.068q0.018 0.243 0.141 0.369t0.384 0.126q0.147 0 0.246-0.024 0.102-0.027 0.153-0.051l0.039 0.234q-0.051 0.027-0.18 0.057-0.126 0.03-0.288 0.03-0.204 0-0.354-0.06-0.147-0.063-0.243-0.171t-0.144-0.255q-0.045-0.15-0.045-0.327zm1.071-0.153q3e-3 -0.189-0.096-0.309-0.096-0.123-0.267-0.123-0.096 0-0.171 0.039-0.072 0.036-0.123 0.096t-0.081 0.138q-0.027 0.078-0.036 0.159z"/>
    <path id="path1810" d="m4.912 77.465q-0.292 0-0.532-0.096t-0.412-0.28-0.268-0.452q-0.092-0.272-0.092-0.62t0.104-0.616q0.108-0.272 0.288-0.456t0.42-0.28 0.512-0.096q0.172 0 0.308 0.024 0.14 0.024 0.24 0.056 0.104 0.032 0.168 0.064t0.088 0.048l-0.112 0.32q-0.036-0.024-0.104-0.052t-0.156-0.056q-0.084-0.028-0.188-0.044-0.1-0.02-0.204-0.02-0.22 0-0.396 0.076t-0.3 0.22-0.192 0.352q-0.064 0.204-0.064 0.46 0 0.248 0.056 0.452 0.06 0.204 0.176 0.352 0.116 0.144 0.288 0.224 0.176 0.08 0.408 0.08 0.268 0 0.444-0.056t0.264-0.1l0.1 0.32q-0.028 0.02-0.1 0.052-0.072 0.028-0.18 0.056t-0.252 0.048-0.312 0.02z"/>
    <path id="path1812" d="m6.176 77.405v-3.04l0.372-0.064v1.064q0.104-0.04 0.22-0.06 0.12-0.024 0.236-0.024 0.248 0 0.412 0.072 0.164 0.068 0.26 0.196 0.1 0.124 0.14 0.3t0.04 0.388v1.168h-0.372v-1.088q0-0.192-0.028-0.328-0.024-0.136-0.084-0.22t-0.16-0.12q-0.1-0.04-0.248-0.04-0.06 0-0.124 8e-3t-0.124 0.02q-0.056 8e-3 -0.104 0.02-0.044 0.012-0.064 0.02v1.728z"/>
    <path id="path1814" d="m9.164 77.137q0.132 0 0.232-4e-3 0.104-8e-3 0.172-0.024v-0.62q-0.04-0.02-0.132-0.032-0.088-0.016-0.216-0.016-0.084 0-0.18 0.012-0.092 0.012-0.172 0.052-0.076 0.036-0.128 0.104-0.052 0.064-0.052 0.172 0 0.2 0.128 0.28 0.128 0.076 0.348 0.076zm-0.032-1.864q0.224 0 0.376 0.06 0.156 0.056 0.248 0.164 0.096 0.104 0.136 0.252 0.04 0.144 0.04 0.32v1.3q-0.048 8e-3 -0.136 0.024-0.084 0.012-0.192 0.024t-0.236 0.02q-0.124 0.012-0.248 0.012-0.176 0-0.324-0.036t-0.256-0.112q-0.108-0.08-0.168-0.208t-0.06-0.308q0-0.172 0.068-0.296 0.072-0.124 0.192-0.2t0.28-0.112 0.336-0.036q0.056 0 0.116 8e-3 0.06 4e-3 0.112 0.016 0.056 8e-3 0.096 0.016t0.056 0.012v-0.104q0-0.092-0.02-0.18-0.02-0.092-0.072-0.16-0.052-0.072-0.144-0.112-0.088-0.044-0.232-0.044-0.184 0-0.324 0.028-0.136 0.024-0.204 0.052l-0.044-0.308q0.072-0.032 0.24-0.06 0.168-0.032 0.364-0.032z"/>
    <path id="path1816" d="m10.548 75.385q0.128-0.032 0.34-0.068t0.488-0.036q0.248 0 0.412 0.072 0.164 0.068 0.26 0.196 0.1 0.124 0.14 0.3t0.04 0.388v1.168h-0.372v-1.088q0-0.192-0.028-0.328-0.024-0.136-0.084-0.22t-0.16-0.12q-0.1-0.04-0.248-0.04-0.06 0-0.124 4e-3t-0.124 0.012q-0.056 4e-3 -0.104 0.012-0.044 8e-3 -0.064 0.012v1.756h-0.372z"/>
    <path id="path1818" d="m12.844 75.385q0.128-0.032 0.34-0.068t0.488-0.036q0.248 0 0.412 0.072 0.164 0.068 0.26 0.196 0.1 0.124 0.14 0.3t0.04 0.388v1.168h-0.372v-1.088q0-0.192-0.028-0.328-0.024-0.136-0.084-0.22t-0.16-0.12q-0.1-0.04-0.248-0.04-0.06 0-0.124 4e-3t-0.124 0.012q-0.056 4e-3 -0.104 0.012-0.044 8e-3 -0.064 0.012v1.756h-0.372z"/>
    <path id="path1820" d="m15.024 76.369q0-0.276 0.08-0.48 0.08-0.208 0.212-0.344 0.132-0.136 0.304-0.204t0.352-0.068q0.42 0 0.644 0.264 0.224 0.26 0.224 0.796 0 0.024 0 0.064 0 0.036-4e-3 0.068h-1.424q0.024 0.324 0.188 0.492t0.512 0.168q0.196 0 0.328-0.032 0.136-0.036 0.204-0.068l0.052 0.312q-0.068 0.036-0.24 0.076-0.168 0.04-0.384 0.04-0.272 0-0.472-0.08-0.196-0.084-0.324-0.228-0.128-0.144-0.192-0.34-0.06-0.2-0.06-0.436zm1.428-0.204q4e-3 -0.252-0.128-0.412-0.128-0.164-0.356-0.164-0.128 0-0.228 0.052-0.096 0.048-0.164 0.128t-0.108 0.184q-0.036 0.104-0.048 0.212z"/>
    <path id="path1822" d="m18 77.445q-0.344-8e-3 -0.488-0.148t-0.144-0.436v-2.496l0.372-0.064v2.5q0 0.092 0.016 0.152t0.052 0.096 0.096 0.056q0.06 0.016 0.148 0.028z"/>
    <path id="path1824" d="m21.268 77.405q-0.068-0.18-0.128-0.352-0.06-0.176-0.124-0.356h-1.256l-0.252 0.708h-0.404q0.16-0.44 0.3-0.812 0.14-0.376 0.272-0.712 0.136-0.336 0.268-0.64 0.132-0.308 0.276-0.608h0.356q0.144 0.3 0.276 0.608 0.132 0.304 0.264 0.64 0.136 0.336 0.276 0.712 0.14 0.372 0.3 0.812zm-0.364-1.028q-0.128-0.348-0.256-0.672-0.124-0.328-0.26-0.628-0.14 0.3-0.268 0.628-0.124 0.324-0.248 0.672z"/>
    <path id="path1827" d="m30.352 77.465q-0.292 0-0.532-0.096t-0.412-0.28-0.268-0.452q-0.092-0.272-0.092-0.62t0.104-0.616q0.108-0.272 0.288-0.456t0.42-0.28 0.512-0.096q0.172 0 0.308 0.024 0.14 0.024 0.24 0.056 0.104 0.032 0.168 0.064t0.088 0.048l-0.112 0.32q-0.036-0.024-0.104-0.052t-0.156-0.056q-0.084-0.028-0.188-0.044-0.1-0.02-0.204-0.02-0.22 0-0.396 0.076t-0.3 0.22-0.192 0.352q-0.064 0.204-0.064 0.46 0 0.248 0.056 0.452 0.06 0.204 0.176 0.352 0.116 0.144 0.288 0.224 0.176 0.08 0.408 0.08 0.268 0 0.444-0.056t0.264-0.1l0.1 0.32q-0.028 0.02-0.1 0.052-0.072 0.028-0.18 0.056t-0.252 0.048-0.312 0.02z"/>
    <path id="path1829" d="m31.616 77.405v-3.04l0.372-0.064v1.064q0.104-0.04 0.22-0.06 0.12-0.024 0.236-0.024 0.248 0 0.412 0.072 0.164 0.068 0.26 0.196 0.1 0.124 0.14 0.3t0.04 0.388v1.168h-0.372v-1.088q0-0.192-0.028-0.328-0.024-0.136-0.084-0.22t-0.16-0.12q-0.1-0.04-0.248-0.04-0.06 0-0.124 8e-3t-0.124 0.02q-0.056 8e-3 -0.104 0.02-0.044 0.012-0.064 0.02v1.728z"/>
    <path id="path1831" d="m34.604 77.137q0.132 0 0.232-4e-3 0.104-8e-3 0.172-0.024v-0.62q-0.04-0.02-0.132-0.032-0.088-0.016-0.216-0.016-0.084 0-0.18 0.012-0.092 0.012-0.172 0.052-0.076 0.036-0.128 0.104-0.052 0.064-0.052 0.172 0 0.2 0.128 0.28 0.128 0.076 0.348 0.076zm-0.032-1.864q0.224 0 0.376 0.06 0.156 0.056 0.248 0.164 0.096 0.104 0.136 0.252 0.04 0.144 0.04 0.32v1.3q-0.048 8e-3 -0.136 0.024-0.084 0.012-0.192 0.024t-0.236 0.02q-0.124 0.012-0.248 0.012-0.176 0-0.324-0.036t-0.256-0.112q-0.108-0.08-0.168-0.208t-0.06-0.308q0-0.172 0.068-0.296 0.072-0.124 0.192-0.2t0.28-0.112 0.336-0.036q0.056 0 0.116 8e-3 0.06 4e-3 0.112 0.016 0.056 8e-3 0.096 0.016t0.056 0.012v-0.104q0-0.092-0.02-0.18-0.02-0.092-0.072-0.16-0.052-0.072-0.144-0.112-0.088-0.044-0.232-0.044-0.184 0-0.324 0.028-0.136 0.024-0.204 0.052l-0.044-0.308q0.072-0.032 0.24-0.06 0.168-0.032 0.364-0.032z"/>
    <path id="path1833" d="m35.988 75.385q0.128-0.032 0.34-0.068t0.488-0.036q0.248 0 0.412 0.072 0.164 0.068 0.26 0.196 0.1 0.124 0.14 0.3t0.04 0.388v1.168h-0.372v-1.088q0-0.192-0.028-0.328-0.024-0.136-0.084-0.22t-0.16-0.12q-0.1-0.04-0.248-0.04-0.06 0-0.124 4e-3t-0.124 0.012q-0.056 4e-3 -0.104 0.012-0.044 8e-3 -0.064 0.012v1.756h-0.372z"/>
    <path id="path1835" d="m38.284 75.385q0.128-0.032 0.34-0.068t0.488-0.036q0.248 0 0.412 0.072 0.164 0.068 0.26 0.196 0.1 0.124 0.14 0.3t0.04 0.388v1.168h-0.372v-1.088q0-0.192-0.028-0.328-0.024-0.136-0.084-0.22t-0.16-0.12q-0.1-0.04-0.248-0.04-0.06 0-0.124 4e-3t-0.124 0.012q-0.056 4e-3 -0.104 0.012-0.044 8e-3 -0.064 0.012v1.756h-0.372z"/>
    <path id="path1837" d="m40.464 76.369q0-0.276 0.08-0.48 0.08-0.208 0.212-0.344t0.304-0.204 0.352-0.068q0.42 0 0.644 0.264 0.224 0.26 0.224 0.796 0 0.024 0 0.064 0 0.036-4e-3 0.068h-1.424q0.024 0.324 0.188 0.492t0.512 0.168q0.196 0 0.328-0.032 0.136-0.036 0.204-0.068l0.052 0.312q-0.068 0.036-0.24 0.076-0.168 0.04-0.384 0.04-0.272 0-0.472-0.08-0.196-0.084-0.324-0.228t-0.192-0.34q-0.06-0.2-0.06-0.436zm1.428-0.204q4e-3 -0.252-0.128-0.412-0.128-0.164-0.356-0.164-0.128 0-0.228 0.052-0.096 0.048-0.164 0.128t-0.108 0.184q-0.036 0.104-0.048 0.212z"/>
    <path id="path1839" d="m43.44 77.445q-0.344-8e-3 -0.488-0.148t-0.144-0.436v-2.496l0.372-0.064v2.5q0 0.092 0.016 0.152t0.052 0.096 0.096 0.056q0.06 0.016 0.148 0.028z"/>
    <path id="path1841" d="m45.604 77.429q-0.084 0-0.184-4e-3 -0.096-4e-3 -0.196-0.012-0.096-8e-3 -0.192-0.02t-0.176-0.032v-2.688q0.08-0.02 0.176-0.032t0.192-0.02q0.1-8e-3 0.196-0.012t0.18-4e-3q0.24 0 0.448 0.036 0.212 0.036 0.364 0.124 0.156 0.084 0.244 0.224t0.088 0.344q0 0.228-0.108 0.376-0.108 0.144-0.288 0.216 0.244 0.072 0.388 0.228t0.144 0.44q0 0.416-0.308 0.628-0.304 0.208-0.968 0.208zm-0.364-1.316v0.976q0.044 4e-3 0.104 8e-3 0.052 4e-3 0.12 8e-3 0.072 0 0.164 0 0.172 0 0.324-0.02 0.156-0.024 0.272-0.08t0.184-0.156q0.072-0.1 0.072-0.252 0-0.136-0.052-0.228-0.052-0.096-0.152-0.152-0.096-0.056-0.232-0.08t-0.304-0.024zm0-0.312h0.408q0.144 0 0.272-0.02t0.22-0.072q0.096-0.052 0.148-0.136 0.056-0.084 0.056-0.212 0-0.12-0.056-0.2-0.056-0.084-0.156-0.132-0.096-0.052-0.228-0.076t-0.28-0.024-0.232 4e-3 -0.152 0.012z"/>
    <g id="g578" transform="translate(7.47,86.93)">
      <path id="path1844" d="m-2.2605 5.921q-0.114 0.33-0.219 0.612-0.102 0.279-0.201 0.531t-0.198 0.483q-0.096 0.228-0.198 0.453h-0.273q-0.102-0.225-0.201-0.453-0.096-0.231-0.198-0.483-0.099-0.252-0.204-0.531-0.105-0.282-0.216-0.612h0.321q0.162 0.474 0.318 0.912t0.321 0.822q0.165-0.381 0.321-0.819 0.156-0.441 0.315-0.915z"/>
      <path id="path1846" d="m-2.2185 8.555h-0.285l1.017-2.904h0.279z"/>
      <path id="path1848" d="m-1.1835 6.959q0-0.267 0.078-0.471 0.081-0.204 0.216-0.339 0.138-0.138 0.318-0.207 0.183-0.069 0.387-0.069 0.201 0 0.378 0.069 0.18 0.069 0.315 0.207 0.135 0.135 0.213 0.339 0.081 0.204 0.081 0.471t-0.081 0.471q-0.078 0.204-0.213 0.342-0.135 0.135-0.315 0.204-0.177 0.069-0.378 0.069-0.204 0-0.387-0.069-0.18-0.069-0.318-0.204-0.135-0.138-0.216-0.342-0.078-0.204-0.078-0.471zm0.306 0q0 0.189 0.048 0.345 0.048 0.153 0.135 0.261 0.09 0.108 0.216 0.168 0.129 0.057 0.288 0.057t0.285-0.057q0.126-0.06 0.213-0.168 0.09-0.108 0.138-0.261 0.048-0.156 0.048-0.345t-0.048-0.342q-0.048-0.156-0.138-0.264-0.087-0.108-0.213-0.165-0.126-0.06-0.285-0.06t-0.288 0.06q-0.126 0.057-0.216 0.165-0.087 0.108-0.135 0.264-0.048 0.153-0.048 0.342z"/>
      <path id="path1850" d="m1.9275 5.921h0.291v2.079h-0.291z"/>
      <path id="path1852" d="m2.7165 6.485q0.096-0.024 0.255-0.051t0.366-0.027q0.186 0 0.309 0.054 0.123 0.051 0.195 0.147 0.075 0.093 0.105 0.225t0.03 0.291v0.876h-0.279v-0.816q0-0.144-0.021-0.246-0.018-0.102-0.063-0.165t-0.12-0.09q-0.075-0.03-0.186-0.03-0.045 0-0.093 3e-3t-0.093 9e-3q-0.042 3e-3 -0.078 9e-3 -0.033 6e-3 -0.048 9e-3v1.317h-0.279z"/>
    </g>
    <g id="g581" transform="translate(18.265,86.93)">
      <path id="path1855" d="m-4.263 7.793q0.456 0 0.456-0.312 0-0.096-0.042-0.162-0.039-0.069-0.108-0.117-0.069-0.051-0.159-0.087-0.087-0.036-0.186-0.072-0.114-0.039-0.216-0.087-0.102-0.051-0.177-0.117-0.075-0.069-0.12-0.162-0.042-0.093-0.042-0.225 0-0.273 0.186-0.426t0.513-0.153q0.189 0 0.342 0.042 0.156 0.039 0.228 0.087l-0.093 0.237q-0.063-0.039-0.189-0.075-0.123-0.039-0.288-0.039-0.084 0-0.156 0.018t-0.126 0.054-0.087 0.093q-0.03 0.054-0.03 0.129 0 0.084 0.033 0.141t0.093 0.102q0.06 0.042 0.138 0.078 0.081 0.036 0.177 0.072 0.135 0.054 0.246 0.108 0.114 0.054 0.195 0.129 0.084 0.075 0.129 0.18 0.045 0.102 0.045 0.249 0 0.273-0.201 0.42-0.198 0.147-0.561 0.147-0.123 0-0.228-0.018-0.102-0.015-0.183-0.036-0.081-0.024-0.141-0.048-0.057-0.027-0.09-0.045l0.087-0.24q0.069 0.039 0.21 0.087t0.345 0.048z"/>
      <path id="path1857" d="m-2.64 7.799q0.099 0 0.174-3e-3 0.078-6e-3 0.129-0.018v-0.465q-0.03-0.015-0.099-0.024-0.066-0.012-0.162-0.012-0.063 0-0.135 9e-3 -0.069 9e-3 -0.129 0.039-0.057 0.027-0.096 0.078-0.039 0.048-0.039 0.129 0 0.15 0.096 0.21 0.096 0.057 0.261 0.057zm-0.024-1.398q0.168 0 0.282 0.045 0.117 0.042 0.186 0.123 0.072 0.078 0.102 0.189 0.03 0.108 0.03 0.24v0.975q-0.036 6e-3 -0.102 0.018-0.063 9e-3 -0.144 0.018t-0.177 0.015q-0.093 9e-3 -0.186 9e-3 -0.132 0-0.243-0.027t-0.192-0.084q-0.081-0.06-0.126-0.156t-0.045-0.231q0-0.129 0.051-0.222 0.054-0.093 0.144-0.15t0.21-0.084 0.252-0.027q0.042 0 0.087 6e-3 0.045 3e-3 0.084 0.012 0.042 6e-3 0.072 0.012t0.042 9e-3v-0.078q0-0.069-0.015-0.135-0.015-0.069-0.054-0.12-0.039-0.054-0.108-0.084-0.066-0.033-0.174-0.033-0.138 0-0.243 0.021-0.102 0.018-0.153 0.039l-0.033-0.231q0.054-0.024 0.18-0.045 0.126-0.024 0.273-0.024z"/>
      <path id="path1859" d="m-1.602 6.485q0.096-0.024 0.252-0.051 0.159-0.027 0.366-0.027 0.15 0 0.252 0.042 0.102 0.039 0.171 0.117 0.021-0.015 0.066-0.042t0.111-0.051q0.066-0.027 0.147-0.045 0.081-0.021 0.174-0.021 0.18 0 0.294 0.054 0.114 0.051 0.177 0.147 0.066 0.096 0.087 0.228 0.024 0.132 0.024 0.288v0.876h-0.279v-0.816q0-0.138-0.015-0.237-0.012-0.099-0.051-0.165-0.036-0.066-0.102-0.096-0.063-0.033-0.165-0.033-0.141 0-0.234 0.039-0.09 0.036-0.123 0.066 0.024 0.078 0.036 0.171t0.012 0.195v0.876h-0.279v-0.816q0-0.138-0.015-0.237t-0.054-0.165q-0.036-0.066-0.102-0.096-0.063-0.033-0.162-0.033-0.042 0-0.09 3e-3t-0.093 9e-3q-0.042 3e-3 -0.078 9e-3t-0.048 9e-3v1.317h-0.279z"/>
      <path id="path1861" d="m2.064 7.223q0-0.273-0.135-0.42t-0.36-0.147q-0.126 0-0.198 9e-3 -0.069 9e-3 -0.111 0.021v0.984q0.051 0.042 0.147 0.081t0.21 0.039q0.12 0 0.204-0.042 0.087-0.045 0.141-0.12 0.054-0.078 0.078-0.18 0.024-0.105 0.024-0.225zm0.291 0q0 0.177-0.048 0.327-0.045 0.15-0.135 0.258t-0.222 0.168q-0.129 0.06-0.297 0.06-0.135 0-0.24-0.036-0.102-0.036-0.153-0.069v0.624h-0.279v-2.067q0.099-0.024 0.246-0.051 0.15-0.03 0.345-0.03 0.18 0 0.324 0.057t0.246 0.162 0.156 0.258q0.057 0.15 0.057 0.339z"/>
      <path id="path1863" d="m3.216 8.03q-0.258-6e-3 -0.366-0.111t-0.108-0.327v-1.872l0.279-0.048v1.875q0 0.069 0.012 0.114t0.039 0.072 0.072 0.042q0.045 0.012 0.111 0.021z"/>
      <path id="path1865" d="m3.48 7.223q0-0.207 0.06-0.36 0.06-0.156 0.159-0.258t0.228-0.153 0.264-0.051q0.315 0 0.483 0.198 0.168 0.195 0.168 0.597 0 0.018 0 0.048 0 0.027-3e-3 0.051h-1.068q0.018 0.243 0.141 0.369t0.384 0.126q0.147 0 0.246-0.024 0.102-0.027 0.153-0.051l0.039 0.234q-0.051 0.027-0.18 0.057-0.126 0.03-0.288 0.03-0.204 0-0.354-0.06-0.147-0.063-0.243-0.171t-0.144-0.255q-0.045-0.15-0.045-0.327zm1.071-0.153q3e-3 -0.189-0.096-0.309-0.096-0.123-0.267-0.123-0.096 0-0.171 0.039-0.072 0.036-0.123 0.096t-0.081 0.138q-0.027 0.078-0.036 0.159z"/>
    </g>
    <g id="g585" transform="translate(7.47,104.71)">
      <path id="path_wvbyftjbmv" transform="matrix(.26458 0 0 .26458 -7.47 -104.71)" d="m16.328 378.18a5.6693 5.6693 0 0 0-5.6699 5.6699v45.354a5.6693 5.6693 0 0 0 5.6699 5.6699h23.811a5.6693 5.6693 0 0 0 5.6699-5.6699v-45.354a5.6693 5.6693 0 0 0-5.6699-5.6699zm11.904 4.3457a13.229 13.229 0 0 1 0 26.457 13.229 13.229 0 0 1 0-26.457zm1.8828 35.119c0.18898 0 0.34806 0.0649 0.47656 0.19336 0.13606 0.12095 0.20312 0.28835 0.20312 0.5s-0.06706 0.38126-0.20312 0.50977c-0.1285 0.12094-0.28759 0.18164-0.47656 0.18164-0.18898 0-0.35222-0.0607-0.48828-0.18164-0.1285-0.12851-0.19141-0.29812-0.19141-0.50977s0.0629-0.37905 0.19141-0.5c0.13606-0.1285 0.2993-0.19336 0.48828-0.19336zm-11.576 0.48828h6.043v0.95313h-2.4727v6.9043h-1.0996v-6.9043h-2.4707zm8.8555 1.8379c0.09071 0 0.1913 6e-3 0.30469 0.0215 0.12094 8e-3 0.23818 0.0222 0.35156 0.0449 0.11339 0.0151 0.21593 0.034 0.30664 0.0566 0.09827 0.0151 0.16949 0.0318 0.21484 0.0469l-0.17969 0.91797c-0.08315-0.0302-0.22339-0.0638-0.41992-0.10156-0.18898-0.0453-0.43592-0.0684-0.73828-0.0684-0.19654 0-0.39136 0.023-0.58789 0.0684-0.18898 0.0378-0.31453 0.063-0.375 0.0781v4.9551h-1.0547v-5.6465c0.24945-0.0907 0.55929-0.17441 0.92969-0.25 0.37039-0.0831 0.78694-0.12305 1.248-0.12305zm7.5957 0c0.49134 0 0.91842 0.0377 1.2812 0.11328 0.37039 0.068 0.68024 0.13094 0.92969 0.19141v5.2617c0 0.90709-0.23446 1.5645-0.70312 1.9727-0.46866 0.40818-1.1784 0.61328-2.1309 0.61328-0.37039 0-0.72209-0.0313-1.0547-0.0918-0.32504-0.0605-0.60772-0.13169-0.84961-0.21484l0.19141-0.91797c0.21165 0.0831 0.46912 0.15437 0.77148 0.21484 0.30992 0.068 0.63225 0.10156 0.96484 0.10156 0.6274 0 1.0755-0.12359 1.3477-0.37304 0.27968-0.24945 0.41992-0.64716 0.41992-1.1914v-0.25c-0.09071 0.0605-0.26864 0.14001-0.5332 0.23828-0.25701 0.0907-0.55853 0.13672-0.90625 0.13672-0.35528 0-0.69228-0.0565-1.0098-0.16992-0.30992-0.11339-0.58208-0.28715-0.81641-0.52149-0.23433-0.24189-0.41862-0.5412-0.55469-0.89648s-0.20508-0.77819-0.20508-1.2695c0-0.43087 0.06486-0.82441 0.19336-1.1797 0.1285-0.36283 0.31475-0.67268 0.55664-0.92969 0.24945-0.26456 0.55098-0.4677 0.90625-0.61132 0.35528-0.15119 0.75519-0.22657 1.2012-0.22657zm-5.3965 0.12305h1.0547v5.8965h-1.0547zm5.4082 0.80664c-0.56693 0-1.0045 0.18429-1.3145 0.55469-0.30236 0.37039-0.45508 0.86232-0.45508 1.4746 0 0.34015 0.04185 0.63115 0.125 0.87304 0.09071 0.24189 0.20794 0.44087 0.35156 0.59961 0.15118 0.15874 0.32274 0.27598 0.51172 0.35157 0.19654 0.0756 0.39552 0.11328 0.59961 0.11328 0.27969 0 0.53715-0.0377 0.77148-0.11328 0.23433-0.0832 0.41862-0.17738 0.55469-0.28321v-3.4473c-0.10583-0.0302-0.24827-0.0555-0.42969-0.0781-0.17386-0.0302-0.41248-0.0449-0.71484-0.0449z" style=""/>
    </g>
    <g id="g589" transform="translate(18.265,104.71)">
      <path id="path_dffdvyhhps" transform="matrix(.26458 0 0 .26458 -18.265 -104.71)" d="m57.127 378.18a5.6693 5.6693 0 0 0-5.668 5.6699v45.354a5.6693 5.6693 0 0 0 5.668 5.6699h23.812a5.6693 5.6693 0 0 0 5.668-5.6699v-45.354a5.6693 5.6693 0 0 0-5.668-5.6699zm11.906 4.3457a13.229 13.229 0 0 1 0 26.457 13.229 13.229 0 0 1 0-26.457zm-5.5098 35.426c0.50646 0 0.98175 0.0879 1.4277 0.26172 0.45354 0.17386 0.85125 0.43353 1.1914 0.78125 0.34016 0.34016 0.60815 0.76723 0.80469 1.2812 0.20409 0.51402 0.30469 1.1085 0.30469 1.7812s-0.10059 1.2653-0.30469 1.7793c-0.19654 0.51401-0.46453 0.94525-0.80469 1.293-0.34016 0.34015-0.73786 0.59762-1.1914 0.77148-0.44598 0.17386-0.92128 0.25977-1.4277 0.25977-0.51402 0-1.0018-0.0859-1.4629-0.25977-0.45354-0.17386-0.85541-0.43133-1.2031-0.77148-0.34016-0.34772-0.61231-0.77896-0.81641-1.293-0.19654-0.51402-0.29492-1.1065-0.29492-1.7793s0.09839-1.2672 0.29492-1.7812c0.20409-0.51402 0.47625-0.94109 0.81641-1.2812 0.34772-0.34772 0.74958-0.60739 1.2031-0.78125 0.4611-0.17386 0.94888-0.26172 1.4629-0.26172zm12.789 0.31836v1.8242h2.2344v0.88477h-2.2344v2.7207c0 0.2948 0.023 0.54174 0.06836 0.73828 0.04536 0.18898 0.11242 0.33974 0.20312 0.45312 0.09071 0.10583 0.20378 0.18121 0.33984 0.22657 0.13606 0.0453 0.29514 0.0684 0.47656 0.0684 0.31748 0 0.57079-0.0335 0.75976-0.10157 0.19654-0.0756 0.33261-0.12992 0.4082-0.16015l0.20508 0.87305c-0.10583 0.0529-0.29207 0.11776-0.55664 0.19335-0.26457 0.0831-0.56609 0.125-0.90625 0.125-0.40063 0-0.73348-0.0482-0.99805-0.14648-0.25701-0.10583-0.46431-0.26075-0.62305-0.46484-0.15874-0.2041-0.27181-0.4552-0.33984-0.75-0.06047-0.30237-0.0918-0.6499-0.0918-1.043v-5.2598zm-12.812 0.64649c-0.40063 0-0.76285 0.0754-1.0879 0.22656-0.31748 0.14362-0.58963 0.35092-0.81641 0.62304-0.21921 0.27213-0.39077 0.60498-0.51172 0.99805-0.12094 0.38551-0.18164 0.81675-0.18164 1.293s0.0607 0.90966 0.18164 1.3027c0.12094 0.38551 0.29251 0.7142 0.51172 0.98632 0.22677 0.27213 0.49893 0.48359 0.81641 0.63477 0.32504 0.14362 0.68726 0.2168 1.0879 0.2168s0.75869-0.0732 1.0762-0.2168c0.31748-0.15118 0.58743-0.36264 0.80664-0.63477 0.22677-0.27212 0.40054-0.60081 0.52148-0.98632 0.12094-0.39308 0.18164-0.82652 0.18164-1.3027s-0.0607-0.90746-0.18164-1.293c-0.12094-0.39307-0.29471-0.72592-0.52148-0.99805-0.21921-0.27212-0.48916-0.47942-0.80664-0.62304-0.31748-0.15118-0.67554-0.22656-1.0762-0.22656zm5.25 1.1777h1.0547v3.084c0 0.71811 0.11307 1.233 0.33984 1.543 0.22677 0.30992 0.60784 0.46485 1.1445 0.46485 0.11339 0 0.23062-4e-3 0.35156-0.0117 0.12094-8e-3 0.23402-0.0139 0.33984-0.0215 0.10583-0.0151 0.20005-0.0276 0.2832-0.0351 0.09071-0.0151 0.15556-0.0298 0.19336-0.0449v-4.9785h1.0547v5.7266c-0.24189 0.0605-0.56226 0.12533-0.96289 0.19336-0.39307 0.068-0.85147 0.10156-1.373 0.10156-0.45354 0-0.83461-0.0648-1.1445-0.19335-0.30992-0.13607-0.55907-0.32452-0.74805-0.56641-0.18898-0.24189-0.32505-0.52457-0.4082-0.84961-0.08315-0.3326-0.125-0.69898-0.125-1.0996z" style=""/>
    </g>
    <path id="path593" d="m12.868 81.532 5.3975 5.3975" fill="none" stroke="#000" stroke-width=".5"/>
    <path id="path597" d="m12.868 99.312-5.3975 5.3975" fill="none" stroke="#000" stroke-width=".5"/>
    <g id="g600" transform="translate(32.235,86.93)">
      <path id="path1868" d="m-2.2605 5.921q-0.114 0.33-0.219 0.612-0.102 0.279-0.201 0.531t-0.198 0.483q-0.096 0.228-0.198 0.453h-0.273q-0.102-0.225-0.201-0.453-0.096-0.231-0.198-0.483-0.099-0.252-0.204-0.531-0.105-0.282-0.216-0.612h0.321q0.162 0.474 0.318 0.912t0.321 0.822q0.165-0.381 0.321-0.819 0.156-0.441 0.315-0.915z"/>
      <path id="path1870" d="m-2.2185 8.555h-0.285l1.017-2.904h0.279z"/>
      <path id="path1872" d="m-1.1835 6.959q0-0.267 0.078-0.471 0.081-0.204 0.216-0.339 0.138-0.138 0.318-0.207 0.183-0.069 0.387-0.069 0.201 0 0.378 0.069 0.18 0.069 0.315 0.207 0.135 0.135 0.213 0.339 0.081 0.204 0.081 0.471t-0.081 0.471q-0.078 0.204-0.213 0.342-0.135 0.135-0.315 0.204-0.177 0.069-0.378 0.069-0.204 0-0.387-0.069-0.18-0.069-0.318-0.204-0.135-0.138-0.216-0.342-0.078-0.204-0.078-0.471zm0.306 0q0 0.189 0.048 0.345 0.048 0.153 0.135 0.261 0.09 0.108 0.216 0.168 0.129 0.057 0.288 0.057t0.285-0.057q0.126-0.06 0.213-0.168 0.09-0.108 0.138-0.261 0.048-0.156 0.048-0.345t-0.048-0.342q-0.048-0.156-0.138-0.264-0.087-0.108-0.213-0.165-0.126-0.06-0.285-0.06t-0.288 0.06q-0.126 0.057-0.216 0.165-0.087 0.108-0.135 0.264-0.048 0.153-0.048 0.342z"/>
      <path id="path1874" d="m1.9275 5.921h0.291v2.079h-0.291z"/>
      <path id="path1876" d="m2.7165 6.485q0.096-0.024 0.255-0.051t0.366-0.027q0.186 0 0.309 0.054 0.123 0.051 0.195 0.147 0.075 0.093 0.105 0.225t0.03 0.291v0.876h-0.279v-0.816q0-0.144-0.021-0.246-0.018-0.102-0.063-0.165t-0.12-0.09q-0.075-0.03-0.186-0.03-0.045 0-0.093 3e-3t-0.093 9e-3q-0.042 3e-3 -0.078 9e-3 -0.033 6e-3 -0.048 9e-3v1.317h-0.279z"/>
    </g>
    <g id="g603" transform="translate(43.03,86.93)">
      <path id="path1879" d="m-4.263 7.793q0.456 0 0.456-0.312 0-0.096-0.042-0.162-0.039-0.069-0.108-0.117-0.069-0.051-0.159-0.087-0.087-0.036-0.186-0.072-0.114-0.039-0.216-0.087-0.102-0.051-0.177-0.117-0.075-0.069-0.12-0.162-0.042-0.093-0.042-0.225 0-0.273 0.186-0.426t0.513-0.153q0.189 0 0.342 0.042 0.156 0.039 0.228 0.087l-0.093 0.237q-0.063-0.039-0.189-0.075-0.123-0.039-0.288-0.039-0.084 0-0.156 0.018t-0.126 0.054-0.087 0.093q-0.03 0.054-0.03 0.129 0 0.084 0.033 0.141t0.093 0.102q0.06 0.042 0.138 0.078 0.081 0.036 0.177 0.072 0.135 0.054 0.246 0.108 0.114 0.054 0.195 0.129 0.084 0.075 0.129 0.18 0.045 0.102 0.045 0.249 0 0.273-0.201 0.42-0.198 0.147-0.561 0.147-0.123 0-0.228-0.018-0.102-0.015-0.183-0.036-0.081-0.024-0.141-0.048-0.057-0.027-0.09-0.045l0.087-0.24q0.069 0.039 0.21 0.087t0.345 0.048z"/>
      <path id="path1881" d="m-2.64 7.799q0.099 0 0.174-3e-3 0.078-6e-3 0.129-0.018v-0.465q-0.03-0.015-0.099-0.024-0.066-0.012-0.162-0.012-0.063 0-0.135 9e-3 -0.069 9e-3 -0.129 0.039-0.057 0.027-0.096 0.078-0.039 0.048-0.039 0.129 0 0.15 0.096 0.21 0.096 0.057 0.261 0.057zm-0.024-1.398q0.168 0 0.282 0.045 0.117 0.042 0.186 0.123 0.072 0.078 0.102 0.189 0.03 0.108 0.03 0.24v0.975q-0.036 6e-3 -0.102 0.018-0.063 9e-3 -0.144 0.018t-0.177 0.015q-0.093 9e-3 -0.186 9e-3 -0.132 0-0.243-0.027t-0.192-0.084q-0.081-0.06-0.126-0.156t-0.045-0.231q0-0.129 0.051-0.222 0.054-0.093 0.144-0.15t0.21-0.084 0.252-0.027q0.042 0 0.087 6e-3 0.045 3e-3 0.084 0.012 0.042 6e-3 0.072 0.012t0.042 9e-3v-0.078q0-0.069-0.015-0.135-0.015-0.069-0.054-0.12-0.039-0.054-0.108-0.084-0.066-0.033-0.174-0.033-0.138 0-0.243 0.021-0.102 0.018-0.153 0.039l-0.033-0.231q0.054-0.024 0.18-0.045 0.126-0.024 0.273-0.024z"/>
      <path id="path1883" d="m-1.602 6.485q0.096-0.024 0.252-0.051 0.159-0.027 0.366-0.027 0.15 0 0.252 0.042 0.102 0.039 0.171 0.117 0.021-0.015 0.066-0.042t0.111-0.051q0.066-0.027 0.147-0.045 0.081-0.021 0.174-0.021 0.18 0 0.294 0.054 0.114 0.051 0.177 0.147 0.066 0.096 0.087 0.228 0.024 0.132 0.024 0.288v0.876h-0.279v-0.816q0-0.138-0.015-0.237-0.012-0.099-0.051-0.165-0.036-0.066-0.102-0.096-0.063-0.033-0.165-0.033-0.141 0-0.234 0.039-0.09 0.036-0.123 0.066 0.024 0.078 0.036 0.171t0.012 0.195v0.876h-0.279v-0.816q0-0.138-0.015-0.237t-0.054-0.165q-0.036-0.066-0.102-0.096-0.063-0.033-0.162-0.033-0.042 0-0.09 3e-3t-0.093 9e-3q-0.042 3e-3 -0.078 9e-3t-0.048 9e-3v1.317h-0.279z"/>
      <path id="path1885" d="m2.064 7.223q0-0.273-0.135-0.42t-0.36-0.147q-0.126 0-0.198 9e-3 -0.069 9e-3 -0.111 0.021v0.984q0.051 0.042 0.147 0.081t0.21 0.039q0.12 0 0.204-0.042 0.087-0.045 0.141-0.12 0.054-0.078 0.078-0.18 0.024-0.105 0.024-0.225zm0.291 0q0 0.177-0.048 0.327-0.045 0.15-0.135 0.258t-0.222 0.168q-0.129 0.06-0.297 0.06-0.135 0-0.24-0.036-0.102-0.036-0.153-0.069v0.624h-0.279v-2.067q0.099-0.024 0.246-0.051 0.15-0.03 0.345-0.03 0.18 0 0.324 0.057t0.246 0.162 0.156 0.258q0.057 0.15 0.057 0.339z"/>
      <path id="path1887" d="m3.216 8.03q-0.258-6e-3 -0.366-0.111t-0.108-0.327v-1.872l0.279-0.048v1.875q0 0.069 0.012 0.114t0.039 0.072 0.072 0.042q0.045 0.012 0.111 0.021z"/>
      <path id="path1889" d="m3.48 7.223q0-0.207 0.06-0.36 0.06-0.156 0.159-0.258t0.228-0.153 0.264-0.051q0.315 0 0.483 0.198 0.168 0.195 0.168 0.597 0 0.018 0 0.048 0 0.027-3e-3 0.051h-1.068q0.018 0.243 0.141 0.369t0.384 0.126q0.147 0 0.246-0.024 0.102-0.027 0.153-0.051l0.039 0.234q-0.051 0.027-0.18 0.057-0.126 0.03-0.288 0.03-0.204 0-0.354-0.06-0.147-0.063-0.243-0.171t-0.144-0.255q-0.045-0.15-0.045-0.327zm1.071-0.153q3e-3 -0.189-0.096-0.309-0.096-0.123-0.267-0.123-0.096 0-0.171 0.039-0.072 0.036-0.123 0.096t-0.081 0.138q-0.027 0.078-0.036 0.159z"/>
    </g>
    <g id="g607" transform="translate(32.235,104.71)">
      <path id="path_eqezkytlvl" transform="matrix(.26458 0 0 .26458 -32.235 -104.71)" d="m109.93 378.18a5.6693 5.6693 0 0 0-5.6699 5.6699v45.354a5.6693 5.6693 0 0 0 5.6699 5.6699h23.811a5.6693 5.6693 0 0 0 5.6699-5.6699v-45.354a5.6693 5.6693 0 0 0-5.6699-5.6699zm11.906 4.3457a13.229 13.229 0 0 1 0 26.457 13.229 13.229 0 0 1 0-26.457zm1.8809 35.119c0.18898 0 0.34806 0.0649 0.47657 0.19336 0.13606 0.12095 0.20507 0.28835 0.20507 0.5s-0.069 0.38126-0.20507 0.50977c-0.12851 0.12094-0.28759 0.18164-0.47657 0.18164-0.18897 0-0.35026-0.0607-0.48632-0.18164-0.12851-0.12851-0.19336-0.29812-0.19336-0.50977s0.0648-0.37905 0.19336-0.5c0.13606-0.1285 0.29735-0.19336 0.48632-0.19336zm-11.576 0.48828h6.043v0.95313h-2.4707v6.9043h-1.0996v-6.9043h-2.4727zm8.8555 1.8379c0.0907 0 0.19326 6e-3 0.30664 0.0215 0.12095 8e-3 0.23818 0.0222 0.35156 0.0449 0.11339 0.0151 0.21398 0.034 0.30469 0.0566 0.0983 0.0151 0.17144 0.0318 0.2168 0.0469l-0.18164 0.91797c-0.0831-0.0302-0.22339-0.0638-0.41992-0.10156-0.18898-0.0453-0.43397-0.0684-0.73633-0.0684-0.19654 0-0.39331 0.023-0.58985 0.0684-0.18897 0.0378-0.31452 0.063-0.375 0.0781v4.9551h-1.0547v-5.6465c0.24945-0.0907 0.55929-0.17441 0.92968-0.25 0.3704-0.0831 0.78695-0.12305 1.248-0.12305zm7.5977 0c0.49134 0 0.91841 0.0377 1.2812 0.11328 0.37039 0.068 0.68024 0.13094 0.92968 0.19141v5.2617c0 0.90709-0.23446 1.5645-0.70312 1.9727-0.46866 0.40818-1.1804 0.61328-2.1328 0.61328-0.3704 0-0.72209-0.0313-1.0547-0.0918-0.32504-0.0605-0.60772-0.13169-0.84961-0.21484l0.19336-0.91797c0.21165 0.0831 0.46717 0.15437 0.76953 0.21484 0.30992 0.068 0.63225 0.10156 0.96484 0.10156 0.62741 0 1.0775-0.12359 1.3496-0.37304 0.27969-0.24945 0.41797-0.64716 0.41797-1.1914v-0.25c-0.0907 0.0605-0.26668 0.14001-0.53125 0.23828-0.25701 0.0907-0.56048 0.13672-0.9082 0.13672-0.35528 0-0.69033-0.0565-1.0078-0.16992-0.30992-0.11339-0.58208-0.28715-0.81641-0.52149-0.23433-0.24189-0.42058-0.5412-0.55664-0.89648s-0.20312-0.77819-0.20312-1.2695c-1e-5 -0.43087 0.0629-0.82441 0.1914-1.1797 0.12851-0.36283 0.31475-0.67268 0.55664-0.92969 0.24945-0.26456 0.55098-0.4677 0.90625-0.61132 0.35528-0.15119 0.75714-0.22657 1.2031-0.22657zm-5.3984 0.12305h1.0547v5.8965h-1.0547zm5.4082 0.80664c-0.56693 0-1.0045 0.18429-1.3144 0.55469-0.30236 0.37039-0.45313 0.86232-0.45313 1.4746 0 0.34015 0.0418 0.63115 0.125 0.87304 0.0907 0.24189 0.20794 0.44087 0.35157 0.59961 0.15118 0.15874 0.32079 0.27598 0.50976 0.35157 0.19654 0.0756 0.39552 0.11328 0.59961 0.11328 0.27969 0 0.53716-0.0377 0.77149-0.11328 0.23433-0.0832 0.42057-0.17738 0.55664-0.28321v-3.4473c-0.10583-0.0302-0.25023-0.0555-0.43164-0.0781-0.17386-0.0302-0.41249-0.0449-0.71485-0.0449z" style=""/>
    </g>
    <g id="g611" transform="translate(43.03,104.71)">
      <path id="path_rlsnfhbsao" transform="matrix(.26458 0 0 .26458 -43.03 -104.71)" d="m150.73 378.18a5.6693 5.6693 0 0 0-5.6699 5.6699v45.354a5.6693 5.6693 0 0 0 5.6699 5.6699h23.811a5.6693 5.6693 0 0 0 5.668-5.6699v-45.354a5.6693 5.6693 0 0 0-5.668-5.6699zm11.904 4.3457a13.229 13.229 0 0 1 0 26.457 13.229 13.229 0 0 1 0-26.457zm-5.5098 35.426c0.50645 0 0.98175 0.0879 1.4277 0.26172 0.45354 0.17386 0.85125 0.43353 1.1914 0.78125 0.34015 0.34016 0.60815 0.76723 0.80469 1.2812 0.20409 0.51402 0.30664 1.1085 0.30664 1.7812s-0.10255 1.2653-0.30664 1.7793c-0.19654 0.51401-0.46454 0.94525-0.80469 1.293-0.34016 0.34015-0.73787 0.59762-1.1914 0.77148-0.44598 0.17386-0.92128 0.25977-1.4277 0.25977-0.51402 0-1.0018-0.0859-1.4629-0.25977-0.45355-0.17386-0.85541-0.43133-1.2031-0.77148-0.34016-0.34772-0.61231-0.77896-0.81641-1.293-0.19653-0.51402-0.29296-1.1065-0.29296-1.7793s0.0964-1.2672 0.29296-1.7812c0.2041-0.51402 0.47625-0.94109 0.81641-1.2812 0.34772-0.34772 0.74958-0.60739 1.2031-0.78125 0.4611-0.17386 0.94887-0.26172 1.4629-0.26172zm12.789 0.31836v1.8242h2.2344v0.88477h-2.2344v2.7207c0 0.2948 0.023 0.54174 0.0684 0.73828 0.0454 0.18898 0.11437 0.33974 0.20508 0.45312 0.0907 0.10583 0.20378 0.18121 0.33984 0.22657 0.13606 0.0453 0.29319 0.0684 0.47461 0.0684 0.31748 0 0.57079-0.0335 0.75977-0.10157 0.19653-0.0756 0.33261-0.12992 0.4082-0.16015l0.20508 0.87305c-0.10583 0.0529-0.29208 0.11776-0.55664 0.19335-0.26457 0.0831-0.5661 0.125-0.90625 0.125-0.40063 0-0.73348-0.0482-0.99805-0.14648-0.25701-0.10583-0.46431-0.26075-0.62305-0.46484-0.15874-0.2041-0.27181-0.4552-0.33984-0.75-0.0605-0.30237-0.0918-0.6499-0.0918-1.043v-5.2598zm-12.812 0.64649c-0.40063 0-0.76285 0.0754-1.0879 0.22656-0.31748 0.14362-0.58964 0.35092-0.81641 0.62304-0.21921 0.27213-0.38882 0.60498-0.50976 0.99805-0.12095 0.38551-0.18164 0.81675-0.18164 1.293s0.0607 0.90966 0.18164 1.3027c0.12094 0.38551 0.29055 0.7142 0.50976 0.98632 0.22677 0.27213 0.49893 0.48359 0.81641 0.63477 0.32504 0.14362 0.68726 0.2168 1.0879 0.2168s0.76064-0.0732 1.0781-0.2168c0.31748-0.15118 0.58548-0.36264 0.80469-0.63477 0.22677-0.27212 0.40054-0.60081 0.52149-0.98632 0.12094-0.39308 0.18164-0.82652 0.18164-1.3027s-0.0607-0.90746-0.18164-1.293c-0.12095-0.39307-0.29472-0.72592-0.52149-0.99805-0.21921-0.27212-0.48721-0.47942-0.80469-0.62304-0.31748-0.15118-0.67749-0.22656-1.0781-0.22656zm5.25 1.1777h1.0547v3.084c0 0.71811 0.11307 1.233 0.33984 1.543s0.60784 0.46485 1.1445 0.46485c0.11339 0 0.23062-4e-3 0.35156-0.0117 0.12095-8e-3 0.23597-0.0139 0.3418-0.0215 0.10583-0.0151 0.20005-0.0276 0.2832-0.0351 0.0907-0.0151 0.15362-0.0298 0.19141-0.0449v-4.9785h1.0547v5.7266c-0.24189 0.0605-0.56226 0.12533-0.96289 0.19336-0.39307 0.068-0.85147 0.10156-1.373 0.10156-0.45354 0-0.83461-0.0648-1.1445-0.19335-0.30992-0.13607-0.55907-0.32452-0.74805-0.56641-0.18897-0.24189-0.32505-0.52457-0.4082-0.84961-0.0832-0.3326-0.125-0.69898-0.125-1.0996z" style=""/>
    </g>
    <path id="path615" d="m37.632 81.532 5.3975 5.3975" fill="none" stroke="#000" stroke-width=".5"/>
    <path id="path619" d="m37.632 99.312-5.3975 5.3975" fill="none" stroke="#000" stroke-width=".5"/>
    <path id="path621" d="m25.25 78.04v34.29" fill="none" stroke="#000" stroke-width=".5"/>
  </g>
  <g id="throughholes">
    <circle id="circle629" cx="7.47" cy="3" r="1.7"/>
    <circle id="circle631" cx="7.47" cy="125.5" r="1.7"/>
    <circle id="circle633" cx="43.03" cy="3" r="1.7"/>
    <circle id="circle635" cx="43.03" cy="125.5" r="1.7"/>
    <circle id="circle637" cx="7.47" cy="86.93" r="3.15"/>
    <circle id="circle641" cx="18.265" cy="86.93" r="3.15"/>
    <circle id="circle645" cx="7.47" cy="104.71" r="3.15"/>
    <circle id="circle649" cx="18.265" cy="104.71" r="3.15"/>
    <circle id="circle653" cx="32.235" cy="86.93" r="3.15"/>
    <circle id="circle657" cx="43.03" cy="86.93" r="3.15"/>
    <circle id="circle661" cx="32.235" cy="104.71" r="3.15"/>
    <circle id="circle665" cx="43.03" cy="104.71" r="3.15"/>
  </g>
  <g id="cosmetics">
    <g id="cosmetics_offset" transform="translate(25.25,12)">
      <g id="g675" transform="translate(19.05 22.86)">
        <circle id="circle671" r="2.55" fill="url(#id1) none"/>
        <circle id="circle673" r="2.04" fill="url(#id2) none"/>
      </g>
      <g id="g681" transform="translate(12.7,21.59)">
        <circle id="circle677" cy="1.27" r="1.55" fill="url(#id3) none"/>
        <ellipse id="ellipse679" transform="rotate(20 .51667 .495)" cx=".51667" cy=".495" rx=".775" ry=".51667" fill="#fff" opacity=".8"/>
      </g>
      <g id="g687" transform="translate(16.498 32.385)">
        <circle id="circle683" r="2.55" fill="url(#id1) none"/>
        <circle id="circle685" r="2.04" fill="url(#id2) none"/>
      </g>
      <g id="g693" transform="translate(10.999 27.94)">
        <circle id="circle689" cy="1.27" r="1.55" fill="url(#id3) none"/>
        <ellipse id="ellipse691" transform="rotate(20 .51667 .495)" cx=".51667" cy=".495" rx=".775" ry=".51667" fill="#fff" opacity=".8"/>
      </g>
      <g id="g699" transform="translate(9.525 39.358)">
        <circle id="circle695" r="2.55" fill="url(#id1) none"/>
        <circle id="circle697" r="2.04" fill="url(#id2) none"/>
      </g>
      <g id="g705" transform="translate(6.35 32.589)">
        <circle id="circle701" cy="1.27" r="1.55" fill="url(#id3) none"/>
        <ellipse id="ellipse703" transform="rotate(20 .51667 .495)" cx=".51667" cy=".495" rx=".775" ry=".51667" fill="#fff" opacity=".8"/>
      </g>
      <g id="g711" transform="translate(1.1665e-15 41.91)">
        <circle id="circle707" r="2.55" fill="url(#id1) none"/>
        <circle id="circle709" r="2.04" fill="url(#id2) none"/>
      </g>
      <g id="g717" transform="translate(7.7765e-16 34.29)">
        <circle id="circle713" cy="1.27" r="1.55" fill="url(#id3) none"/>
        <ellipse id="ellipse715" transform="rotate(20 .51667 .495)" cx=".51667" cy=".495" rx=".775" ry=".51667" fill="#fff" opacity=".8"/>
      </g>
      <g id="g723" transform="translate(-9.525 39.358)">
        <circle id="circle719" r="2.55" fill="url(#id1) none"/>
        <circle id="circle721" r="2.04" fill="url(#id2) none"/>
      </g>
      <g id="g729" transform="translate(-6.35 32.589)">
        <circle id="circle725" cy="1.27" r="1.55" fill="url(#id3) none"/>
        <ellipse id="ellipse727" transform="rotate(20 .51667 .495)" cx=".51667" cy=".495" rx=".775" ry=".51667" fill="#fff" opacity=".8"/>
      </g>
      <g id="g735" transform="translate(-16.498 32.385)">
        <circle id="circle731" r="2.55" fill="url(#id1) none"/>
        <circle id="circle733" r="2.04" fill="url(#id2) none"/>
      </g>
      <g id="g741" transform="translate(-10.999 27.94)">
        <circle id="circle737" cy="1.27" r="1.55" fill="url(#id3) none"/>
        <ellipse id="ellipse739" transform="rotate(20 .51667 .495)" cx=".51667" cy=".495" rx=".775" ry=".51667" fill="#fff" opacity=".8"/>
      </g>
      <g id="g747" transform="translate(-19.05 22.86)">
        <circle id="circle743" r="2.55" fill="url(#id1) none"/>
        <circle id="circle745" r="2.04" fill="url(#id2) none"/>
      </g>
      <g id="g753" transform="translate(-12.7,21.59)">
        <circle id="circle749" cy="1.27" r="1.55" fill="url(#id3) none"/>
        <ellipse id="ellipse751" transform="rotate(20 .51667 .495)" cx=".51667" cy=".495" rx=".775" ry=".51667" fill="#fff" opacity=".8"/>
      </g>
      <g id="g759" transform="translate(-16.498 13.335)">
        <circle id="circle755" r="2.55" fill="url(#id1) none"/>
        <circle id="circle757" r="2.04" fill="url(#id2) none"/>
      </g>
      <g id="g765" transform="translate(-10.999 15.24)">
        <circle id="circle761" cy="1.27" r="1.55" fill="url(#id3) none"/>
        <ellipse id="ellipse763" transform="rotate(20 .51667 .495)" cx=".51667" cy=".495" rx=".775" ry=".51667" fill="#fff" opacity=".8"/>
      </g>
      <g id="g771" transform="translate(-9.525 6.3622)">
        <circle id="circle767" r="2.55" fill="url(#id1) none"/>
        <circle id="circle769" r="2.04" fill="url(#id2) none"/>
      </g>
      <g id="g777" transform="translate(-6.35 10.591)">
        <circle id="circle773" cy="1.27" r="1.55" fill="url(#id3) none"/>
        <ellipse id="ellipse775" transform="rotate(20 .51667 .495)" cx=".51667" cy=".495" rx=".775" ry=".51667" fill="#fff" opacity=".8"/>
      </g>
      <g id="g783" transform="translate(-3.4994e-15 3.81)">
        <circle id="circle779" r="2.55" fill="url(#id1) none"/>
        <circle id="circle781" r="2.04" fill="url(#id2) none"/>
      </g>
      <g id="g789" transform="translate(-2.333e-15 8.89)">
        <circle id="circle785" cy="1.27" r="1.55" fill="url(#id3) none"/>
        <ellipse id="ellipse787" transform="rotate(20 .51667 .495)" cx=".51667" cy=".495" rx=".775" ry=".51667" fill="#fff" opacity=".8"/>
      </g>
      <g id="g795" transform="translate(9.525 6.3622)">
        <circle id="circle791" r="2.55" fill="url(#id1) none"/>
        <circle id="circle793" r="2.04" fill="url(#id2) none"/>
      </g>
      <g id="g801" transform="translate(6.35 10.591)">
        <circle id="circle797" cy="1.27" r="1.55" fill="url(#id3) none"/>
        <ellipse id="ellipse799" transform="rotate(20 .51667 .495)" cx=".51667" cy=".495" rx=".775" ry=".51667" fill="#fff" opacity=".8"/>
      </g>
      <g id="g807" transform="translate(16.498 13.335)">
        <circle id="circle803" r="2.55" fill="url(#id1) none"/>
        <circle id="circle805" r="2.04" fill="url(#id2) none"/>
      </g>
      <g id="g813" transform="translate(10.999 15.24)">
        <circle id="circle809" cy="1.27" r="1.55" fill="url(#id3) none"/>
        <ellipse id="ellipse811" transform="rotate(20 .51667 .495)" cx=".51667" cy=".495" rx=".775" ry=".51667" fill="#fff" opacity=".8"/>
      </g>
      <g id="g819" transform="translate(-17.78 52.07)">
        <circle id="circle815" r="2.55" fill="url(#id1) none"/>
        <circle id="circle817" r="2.04" fill="url(#id2) none"/>
      </g>
      <g id="g825" transform="translate(6.985 52.07)">
        <circle id="circle821" r="2.55" fill="url(#id1) none"/>
        <circle id="circle823" r="2.04" fill="url(#id2) none"/>
      </g>
      <g id="g831" transform="translate(17.78 52.07)">
        <circle id="circle827" r="2.55" fill="url(#id1) none"/>
        <circle id="circle829" r="2.04" fill="url(#id2) none"/>
      </g>
      <g id="g839" transform="translate(-17.78,74.93)">
        <path id="path833" d="m3.55 0-0.013509 0.3094 0.15654 0.34178-0.070807 0.31939-0.28631 0.2436-0.11852 0.28612 0.030203 0.37471-0.17578 0.27591-0.35236 0.13098-0.20923 0.22833-0.099776 0.36244-0.25954 0.19915-0.37591 0.00257-0.27471 0.143-0.21772 0.30645-0.312 0.098375-0.35412-0.12615-0.30705 0.040424-0.3094 0.21351-0.32683-0.01427-0.28962-0.23966-0.30236-0.067031-0.36377 0.094811-0.30224-0.12519-0.19018-0.32426-0.2612-0.1664-0.37426-0.035323-0.2412-0.22102-0.067807-0.36975-0.18853-0.2457-0.33961-0.1612-0.15106-0.29018 0.062745-0.37065-0.093128-0.29536-0.26399-0.26763-0.042701-0.32435 0.18573-0.32683 0.013509-0.3094-0.15654-0.34178 0.070807-0.31939 0.28631-0.2436 0.11852-0.28612-0.030203-0.37471 0.17578-0.27591 0.35236-0.13098 0.20923-0.22833 0.099776-0.36244 0.25954-0.19915 0.37591-0.00257 0.27471-0.143 0.21772-0.30645 0.312-0.098375 0.35412 0.12615 0.30705-0.040424 0.3094-0.21351 0.32683 0.01427 0.28962 0.23966 0.30236 0.067031 0.36377-0.094811 0.30224 0.12519 0.19018 0.32426 0.2612 0.1664 0.37426 0.035323 0.2412 0.22102 0.067807 0.36975 0.18853 0.2457 0.33961 0.1612 0.15106 0.29018-0.062745 0.37065 0.093128 0.29536 0.26399 0.26763 0.042701 0.32435z" fill="url(#id43) none"/>
        <circle id="circle835" r="3.15" fill="url(#id44) none"/>
        <circle id="circle837" r="2.35" fill="url(#id45) none"/>
      </g>
      <g id="g847" transform="translate(-6.985,74.93)">
        <path id="path841" d="m3.55 0-0.013509 0.3094 0.15654 0.34178-0.070807 0.31939-0.28631 0.2436-0.11852 0.28612 0.030203 0.37471-0.17578 0.27591-0.35236 0.13098-0.20923 0.22833-0.099776 0.36244-0.25954 0.19915-0.37591 0.00257-0.27471 0.143-0.21772 0.30645-0.312 0.098375-0.35412-0.12615-0.30705 0.040424-0.3094 0.21351-0.32683-0.01427-0.28962-0.23966-0.30236-0.067031-0.36377 0.094811-0.30224-0.12519-0.19018-0.32426-0.2612-0.1664-0.37426-0.035323-0.2412-0.22102-0.067807-0.36975-0.18853-0.2457-0.33961-0.1612-0.15106-0.29018 0.062745-0.37065-0.093128-0.29536-0.26399-0.26763-0.042701-0.32435 0.18573-0.32683 0.013509-0.3094-0.15654-0.34178 0.070807-0.31939 0.28631-0.2436 0.11852-0.28612-0.030203-0.37471 0.17578-0.27591 0.35236-0.13098 0.20923-0.22833 0.099776-0.36244 0.25954-0.19915 0.37591-0.00257 0.27471-0.143 0.21772-0.30645 0.312-0.098375 0.35412 0.12615 0.30705-0.040424 0.3094-0.21351 0.32683 0.01427 0.28962 0.23966 0.30236 0.067031 0.36377-0.094811 0.30224 0.12519 0.19018 0.32426 0.2612 0.1664 0.37426 0.035323 0.2412 0.22102 0.067807 0.36975 0.18853 0.2457 0.33961 0.1612 0.15106 0.29018-0.062745 0.37065 0.093128 0.29536 0.26399 0.26763 0.042701 0.32435z" fill="url(#id43) none"/>
        <circle id="circle843" r="3.15" fill="url(#id44) none"/>
        <circle id="circle845" r="2.35" fill="url(#id45) none"/>
      </g>
      <g id="g855" transform="translate(-17.78 92.71)">
        <path id="path849" d="m3.55 0-0.013509 0.3094 0.15654 0.34178-0.070807 0.31939-0.28631 0.2436-0.11852 0.28612 0.030203 0.37471-0.17578 0.27591-0.35236 0.13098-0.20923 0.22833-0.099776 0.36244-0.25954 0.19915-0.37591 0.00257-0.27471 0.143-0.21772 0.30645-0.312 0.098375-0.35412-0.12615-0.30705 0.040424-0.3094 0.21351-0.32683-0.01427-0.28962-0.23966-0.30236-0.067031-0.36377 0.094811-0.30224-0.12519-0.19018-0.32426-0.2612-0.1664-0.37426-0.035323-0.2412-0.22102-0.067807-0.36975-0.18853-0.2457-0.33961-0.1612-0.15106-0.29018 0.062745-0.37065-0.093128-0.29536-0.26399-0.26763-0.042701-0.32435 0.18573-0.32683 0.013509-0.3094-0.15654-0.34178 0.070807-0.31939 0.28631-0.2436 0.11852-0.28612-0.030203-0.37471 0.17578-0.27591 0.35236-0.13098 0.20923-0.22833 0.099776-0.36244 0.25954-0.19915 0.37591-0.00257 0.27471-0.143 0.21772-0.30645 0.312-0.098375 0.35412 0.12615 0.30705-0.040424 0.3094-0.21351 0.32683 0.01427 0.28962 0.23966 0.30236 0.067031 0.36377-0.094811 0.30224 0.12519 0.19018 0.32426 0.2612 0.1664 0.37426 0.035323 0.2412 0.22102 0.067807 0.36975 0.18853 0.2457 0.33961 0.1612 0.15106 0.29018-0.062745 0.37065 0.093128 0.29536 0.26399 0.26763 0.042701 0.32435z" fill="url(#id43) none"/>
        <circle id="circle851" r="3.15" fill="url(#id44) none"/>
        <circle id="circle853" r="2.35" fill="url(#id45) none"/>
      </g>
      <g id="g863" transform="translate(-6.985 92.71)">
        <path id="path857" d="m3.55 0-0.013509 0.3094 0.15654 0.34178-0.070807 0.31939-0.28631 0.2436-0.11852 0.28612 0.030203 0.37471-0.17578 0.27591-0.35236 0.13098-0.20923 0.22833-0.099776 0.36244-0.25954 0.19915-0.37591 0.00257-0.27471 0.143-0.21772 0.30645-0.312 0.098375-0.35412-0.12615-0.30705 0.040424-0.3094 0.21351-0.32683-0.01427-0.28962-0.23966-0.30236-0.067031-0.36377 0.094811-0.30224-0.12519-0.19018-0.32426-0.2612-0.1664-0.37426-0.035323-0.2412-0.22102-0.067807-0.36975-0.18853-0.2457-0.33961-0.1612-0.15106-0.29018 0.062745-0.37065-0.093128-0.29536-0.26399-0.26763-0.042701-0.32435 0.18573-0.32683 0.013509-0.3094-0.15654-0.34178 0.070807-0.31939 0.28631-0.2436 0.11852-0.28612-0.030203-0.37471 0.17578-0.27591 0.35236-0.13098 0.20923-0.22833 0.099776-0.36244 0.25954-0.19915 0.37591-0.00257 0.27471-0.143 0.21772-0.30645 0.312-0.098375 0.35412 0.12615 0.30705-0.040424 0.3094-0.21351 0.32683 0.01427 0.28962 0.23966 0.30236 0.067031 0.36377-0.094811 0.30224 0.12519 0.19018 0.32426 0.2612 0.1664 0.37426 0.035323 0.2412 0.22102 0.067807 0.36975 0.18853 0.2457 0.33961 0.1612 0.15106 0.29018-0.062745 0.37065 0.093128 0.29536 0.26399 0.26763 0.042701 0.32435z" fill="url(#id43) none"/>
        <circle id="circle859" r="3.15" fill="url(#id44) none"/>
        <circle id="circle861" r="2.35" fill="url(#id45) none"/>
      </g>
      <g id="g869" transform="translate(-12.382 68.263)">
        <circle id="circle865" cy="1.27" r="1.55" fill="url(#id55) none"/>
        <ellipse id="ellipse867" transform="rotate(20 .51667 .495)" cx=".51667" cy=".495" rx=".775" ry=".51667" fill="#fff" opacity=".8"/>
      </g>
      <g id="g875" transform="translate(-12.382 86.043)">
        <circle id="circle871" cy="1.27" r="1.55" fill="url(#id55) none"/>
        <ellipse id="ellipse873" transform="rotate(20 .51667 .495)" cx=".51667" cy=".495" rx=".775" ry=".51667" fill="#fff" opacity=".8"/>
      </g>
      <g id="g883" transform="translate(6.985,74.93)">
        <path id="path877" d="m3.55 0-0.013509 0.3094 0.15654 0.34178-0.070807 0.31939-0.28631 0.2436-0.11852 0.28612 0.030203 0.37471-0.17578 0.27591-0.35236 0.13098-0.20923 0.22833-0.099776 0.36244-0.25954 0.19915-0.37591 0.00257-0.27471 0.143-0.21772 0.30645-0.312 0.098375-0.35412-0.12615-0.30705 0.040424-0.3094 0.21351-0.32683-0.01427-0.28962-0.23966-0.30236-0.067031-0.36377 0.094811-0.30224-0.12519-0.19018-0.32426-0.2612-0.1664-0.37426-0.035323-0.2412-0.22102-0.067807-0.36975-0.18853-0.2457-0.33961-0.1612-0.15106-0.29018 0.062745-0.37065-0.093128-0.29536-0.26399-0.26763-0.042701-0.32435 0.18573-0.32683 0.013509-0.3094-0.15654-0.34178 0.070807-0.31939 0.28631-0.2436 0.11852-0.28612-0.030203-0.37471 0.17578-0.27591 0.35236-0.13098 0.20923-0.22833 0.099776-0.36244 0.25954-0.19915 0.37591-0.00257 0.27471-0.143 0.21772-0.30645 0.312-0.098375 0.35412 0.12615 0.30705-0.040424 0.3094-0.21351 0.32683 0.01427 0.28962 0.23966 0.30236 0.067031 0.36377-0.094811 0.30224 0.12519 0.19018 0.32426 0.2612 0.1664 0.37426 0.035323 0.2412 0.22102 0.067807 0.36975 0.18853 0.2457 0.33961 0.1612 0.15106 0.29018-0.062745 0.37065 0.093128 0.29536 0.26399 0.26763 0.042701 0.32435z" fill="url(#id43) none"/>
        <circle id="circle879" r="3.15" fill="url(#id44) none"/>
        <circle id="circle881" r="2.35" fill="url(#id45) none"/>
      </g>
      <g id="g891" transform="translate(17.78,74.93)">
        <path id="path885" d="m3.55 0-0.013509 0.3094 0.15654 0.34178-0.070807 0.31939-0.28631 0.2436-0.11852 0.28612 0.030203 0.37471-0.17578 0.27591-0.35236 0.13098-0.20923 0.22833-0.099776 0.36244-0.25954 0.19915-0.37591 0.00257-0.27471 0.143-0.21772 0.30645-0.312 0.098375-0.35412-0.12615-0.30705 0.040424-0.3094 0.21351-0.32683-0.01427-0.28962-0.23966-0.30236-0.067031-0.36377 0.094811-0.30224-0.12519-0.19018-0.32426-0.2612-0.1664-0.37426-0.035323-0.2412-0.22102-0.067807-0.36975-0.18853-0.2457-0.33961-0.1612-0.15106-0.29018 0.062745-0.37065-0.093128-0.29536-0.26399-0.26763-0.042701-0.32435 0.18573-0.32683 0.013509-0.3094-0.15654-0.34178 0.070807-0.31939 0.28631-0.2436 0.11852-0.28612-0.030203-0.37471 0.17578-0.27591 0.35236-0.13098 0.20923-0.22833 0.099776-0.36244 0.25954-0.19915 0.37591-0.00257 0.27471-0.143 0.21772-0.30645 0.312-0.098375 0.35412 0.12615 0.30705-0.040424 0.3094-0.21351 0.32683 0.01427 0.28962 0.23966 0.30236 0.067031 0.36377-0.094811 0.30224 0.12519 0.19018 0.32426 0.2612 0.1664 0.37426 0.035323 0.2412 0.22102 0.067807 0.36975 0.18853 0.2457 0.33961 0.1612 0.15106 0.29018-0.062745 0.37065 0.093128 0.29536 0.26399 0.26763 0.042701 0.32435z" fill="url(#id43) none"/>
        <circle id="circle887" r="3.15" fill="url(#id44) none"/>
        <circle id="circle889" r="2.35" fill="url(#id45) none"/>
      </g>
      <g id="g899" transform="translate(6.985 92.71)">
        <path id="path893" d="m3.55 0-0.013509 0.3094 0.15654 0.34178-0.070807 0.31939-0.28631 0.2436-0.11852 0.28612 0.030203 0.37471-0.17578 0.27591-0.35236 0.13098-0.20923 0.22833-0.099776 0.36244-0.25954 0.19915-0.37591 0.00257-0.27471 0.143-0.21772 0.30645-0.312 0.098375-0.35412-0.12615-0.30705 0.040424-0.3094 0.21351-0.32683-0.01427-0.28962-0.23966-0.30236-0.067031-0.36377 0.094811-0.30224-0.12519-0.19018-0.32426-0.2612-0.1664-0.37426-0.035323-0.2412-0.22102-0.067807-0.36975-0.18853-0.2457-0.33961-0.1612-0.15106-0.29018 0.062745-0.37065-0.093128-0.29536-0.26399-0.26763-0.042701-0.32435 0.18573-0.32683 0.013509-0.3094-0.15654-0.34178 0.070807-0.31939 0.28631-0.2436 0.11852-0.28612-0.030203-0.37471 0.17578-0.27591 0.35236-0.13098 0.20923-0.22833 0.099776-0.36244 0.25954-0.19915 0.37591-0.00257 0.27471-0.143 0.21772-0.30645 0.312-0.098375 0.35412 0.12615 0.30705-0.040424 0.3094-0.21351 0.32683 0.01427 0.28962 0.23966 0.30236 0.067031 0.36377-0.094811 0.30224 0.12519 0.19018 0.32426 0.2612 0.1664 0.37426 0.035323 0.2412 0.22102 0.067807 0.36975 0.18853 0.2457 0.33961 0.1612 0.15106 0.29018-0.062745 0.37065 0.093128 0.29536 0.26399 0.26763 0.042701 0.32435z" fill="url(#id43) none"/>
        <circle id="circle895" r="3.15" fill="url(#id44) none"/>
        <circle id="circle897" r="2.35" fill="url(#id45) none"/>
      </g>
      <g id="g907" transform="translate(17.78 92.71)">
        <path id="path901" d="m3.55 0-0.013509 0.3094 0.15654 0.34178-0.070807 0.31939-0.28631 0.2436-0.11852 0.28612 0.030203 0.37471-0.17578 0.27591-0.35236 0.13098-0.20923 0.22833-0.099776 0.36244-0.25954 0.19915-0.37591 0.00257-0.27471 0.143-0.21772 0.30645-0.312 0.098375-0.35412-0.12615-0.30705 0.040424-0.3094 0.21351-0.32683-0.01427-0.28962-0.23966-0.30236-0.067031-0.36377 0.094811-0.30224-0.12519-0.19018-0.32426-0.2612-0.1664-0.37426-0.035323-0.2412-0.22102-0.067807-0.36975-0.18853-0.2457-0.33961-0.1612-0.15106-0.29018 0.062745-0.37065-0.093128-0.29536-0.26399-0.26763-0.042701-0.32435 0.18573-0.32683 0.013509-0.3094-0.15654-0.34178 0.070807-0.31939 0.28631-0.2436 0.11852-0.28612-0.030203-0.37471 0.17578-0.27591 0.35236-0.13098 0.20923-0.22833 0.099776-0.36244 0.25954-0.19915 0.37591-0.00257 0.27471-0.143 0.21772-0.30645 0.312-0.098375 0.35412 0.12615 0.30705-0.040424 0.3094-0.21351 0.32683 0.01427 0.28962 0.23966 0.30236 0.067031 0.36377-0.094811 0.30224 0.12519 0.19018 0.32426 0.2612 0.1664 0.37426 0.035323 0.2412 0.22102 0.067807 0.36975 0.18853 0.2457 0.33961 0.1612 0.15106 0.29018-0.062745 0.37065 0.093128 0.29536 0.26399 0.26763 0.042701 0.32435z" fill="url(#id43) none"/>
        <circle id="circle903" r="3.15" fill="url(#id44) none"/>
        <circle id="circle905" r="2.35" fill="url(#id45) none"/>
      </g>
      <g id="g913" transform="translate(12.382 68.263)">
        <circle id="circle909" cy="1.27" r="1.55" fill="url(#id69) none"/>
        <ellipse id="ellipse911" transform="rotate(20 .51667 .495)" cx=".51667" cy=".495" rx=".775" ry=".51667" fill="#fff" opacity=".8"/>
      </g>
      <g id="g919" transform="translate(12.382 86.043)">
        <circle id="circle915" cy="1.27" r="1.55" fill="url(#id69) none"/>
        <ellipse id="ellipse917" transform="rotate(20 .51667 .495)" cx=".51667" cy=".495" rx=".775" ry=".51667" fill="#fff" opacity=".8"/>
      </g>
      <g id="g927" transform="translate(-20.32,5.08)">
        <circle id="circle921" r="2.75" fill="url(#id43) none"/>
        <circle id="circle923" r="2.75" fill="url(#id72) none"/>
        <path id="path925" d="m1.4435 0-0.72175 1.2501-1.4435 3e-16 -0.72175-1.2501 0.72175-1.2501 1.4435-1e-16z" fill="url(#id73) none"/>
      </g>
      <g id="g935" transform="translate(20.32,5.08)">
        <circle id="circle929" r="2.75" fill="url(#id43) none"/>
        <circle id="circle931" r="2.75" fill="url(#id72) none"/>
        <path id="path933" d="m1.4435 0-0.72175 1.2501-1.4435 3e-16 -0.72175-1.2501 0.72175-1.2501 1.4435-1e-16z" fill="url(#id73) none"/>
      </g>
    </g>
  </g>
</svg>
