%TF.GenerationSoftware,KiCad,Pcbnew,7.0.2*%
%TF.CreationDate,2023-04-23T21:02:48-07:00*%
%TF.ProjectId,rng_pcb_front,726e675f-7063-4625-9f66-726f6e742e6b,v2.0*%
%TF.SameCoordinates,Original*%
%TF.FileFunction,Legend,Top*%
%TF.FilePolarity,Positive*%
%FSLAX46Y46*%
G04 Gerber Fmt 4.6, Leading zero omitted, Abs format (unit mm)*
G04 Created by KiCad (PCBNEW 7.0.2) date 2023-04-23 21:02:48*
%MOMM*%
%LPD*%
G01*
G04 APERTURE LIST*
G04 Aperture macros list*
%AMRoundRect*
0 Rectangle with rounded corners*
0 $1 Rounding radius*
0 $2 $3 $4 $5 $6 $7 $8 $9 X,Y pos of 4 corners*
0 Add a 4 corners polygon primitive as box body*
4,1,4,$2,$3,$4,$5,$6,$7,$8,$9,$2,$3,0*
0 Add four circle primitives for the rounded corners*
1,1,$1+$1,$2,$3*
1,1,$1+$1,$4,$5*
1,1,$1+$1,$6,$7*
1,1,$1+$1,$8,$9*
0 Add four rect primitives between the rounded corners*
20,1,$1+$1,$2,$3,$4,$5,0*
20,1,$1+$1,$4,$5,$6,$7,0*
20,1,$1+$1,$6,$7,$8,$9,0*
20,1,$1+$1,$8,$9,$2,$3,0*%
G04 Aperture macros list end*
%ADD10C,0.150000*%
%ADD11C,0.120000*%
%ADD12C,0.200000*%
%ADD13R,1.800000X1.800000*%
%ADD14C,1.800000*%
%ADD15O,3.100000X2.100000*%
%ADD16RoundRect,0.650000X0.650000X0.650000X-0.650000X0.650000X-0.650000X-0.650000X0.650000X-0.650000X0*%
%ADD17O,2.720000X3.240000*%
%ADD18R,2.000000X2.000000*%
%ADD19C,2.000000*%
%ADD20R,2.500000X3.000000*%
%ADD21C,1.600000*%
%ADD22O,1.600000X1.600000*%
%ADD23RoundRect,0.650000X-0.650000X-0.650000X0.650000X-0.650000X0.650000X0.650000X-0.650000X0.650000X0*%
%ADD24C,1.700000*%
%ADD25O,1.700000X1.700000*%
%ADD26R,1.700000X1.700000*%
G04 APERTURE END LIST*
D10*
%TO.C,D1*%
X54033574Y-133068066D02*
X54033574Y-132068066D01*
X54033574Y-132068066D02*
X54271669Y-132068066D01*
X54271669Y-132068066D02*
X54414526Y-132115685D01*
X54414526Y-132115685D02*
X54509764Y-132210923D01*
X54509764Y-132210923D02*
X54557383Y-132306161D01*
X54557383Y-132306161D02*
X54605002Y-132496637D01*
X54605002Y-132496637D02*
X54605002Y-132639494D01*
X54605002Y-132639494D02*
X54557383Y-132829970D01*
X54557383Y-132829970D02*
X54509764Y-132925208D01*
X54509764Y-132925208D02*
X54414526Y-133020447D01*
X54414526Y-133020447D02*
X54271669Y-133068066D01*
X54271669Y-133068066D02*
X54033574Y-133068066D01*
X55557383Y-133068066D02*
X54985955Y-133068066D01*
X55271669Y-133068066D02*
X55271669Y-132068066D01*
X55271669Y-132068066D02*
X55176431Y-132210923D01*
X55176431Y-132210923D02*
X55081193Y-132306161D01*
X55081193Y-132306161D02*
X54985955Y-132353780D01*
%TO.C,J4*%
X40266666Y-148662619D02*
X40266666Y-149376904D01*
X40266666Y-149376904D02*
X40219047Y-149519761D01*
X40219047Y-149519761D02*
X40123809Y-149615000D01*
X40123809Y-149615000D02*
X39980952Y-149662619D01*
X39980952Y-149662619D02*
X39885714Y-149662619D01*
X41171428Y-148995952D02*
X41171428Y-149662619D01*
X40933333Y-148615000D02*
X40695238Y-149329285D01*
X40695238Y-149329285D02*
X41314285Y-149329285D01*
%TO.C,RV3*%
X56822619Y-95485238D02*
X56346428Y-95818571D01*
X56822619Y-96056666D02*
X55822619Y-96056666D01*
X55822619Y-96056666D02*
X55822619Y-95675714D01*
X55822619Y-95675714D02*
X55870238Y-95580476D01*
X55870238Y-95580476D02*
X55917857Y-95532857D01*
X55917857Y-95532857D02*
X56013095Y-95485238D01*
X56013095Y-95485238D02*
X56155952Y-95485238D01*
X56155952Y-95485238D02*
X56251190Y-95532857D01*
X56251190Y-95532857D02*
X56298809Y-95580476D01*
X56298809Y-95580476D02*
X56346428Y-95675714D01*
X56346428Y-95675714D02*
X56346428Y-96056666D01*
X55822619Y-95199523D02*
X56822619Y-94866190D01*
X56822619Y-94866190D02*
X55822619Y-94532857D01*
X55822619Y-94294761D02*
X55822619Y-93675714D01*
X55822619Y-93675714D02*
X56203571Y-94009047D01*
X56203571Y-94009047D02*
X56203571Y-93866190D01*
X56203571Y-93866190D02*
X56251190Y-93770952D01*
X56251190Y-93770952D02*
X56298809Y-93723333D01*
X56298809Y-93723333D02*
X56394047Y-93675714D01*
X56394047Y-93675714D02*
X56632142Y-93675714D01*
X56632142Y-93675714D02*
X56727380Y-93723333D01*
X56727380Y-93723333D02*
X56775000Y-93770952D01*
X56775000Y-93770952D02*
X56822619Y-93866190D01*
X56822619Y-93866190D02*
X56822619Y-94151904D01*
X56822619Y-94151904D02*
X56775000Y-94247142D01*
X56775000Y-94247142D02*
X56727380Y-94294761D01*
%TO.C,D4*%
X47249242Y-133293350D02*
X47249242Y-132293350D01*
X47249242Y-132293350D02*
X47487337Y-132293350D01*
X47487337Y-132293350D02*
X47630194Y-132340969D01*
X47630194Y-132340969D02*
X47725432Y-132436207D01*
X47725432Y-132436207D02*
X47773051Y-132531445D01*
X47773051Y-132531445D02*
X47820670Y-132721921D01*
X47820670Y-132721921D02*
X47820670Y-132864778D01*
X47820670Y-132864778D02*
X47773051Y-133055254D01*
X47773051Y-133055254D02*
X47725432Y-133150492D01*
X47725432Y-133150492D02*
X47630194Y-133245731D01*
X47630194Y-133245731D02*
X47487337Y-133293350D01*
X47487337Y-133293350D02*
X47249242Y-133293350D01*
X48677813Y-132626683D02*
X48677813Y-133293350D01*
X48439718Y-132245731D02*
X48201623Y-132960016D01*
X48201623Y-132960016D02*
X48820670Y-132960016D01*
%TO.C,J6*%
X70746666Y-148662619D02*
X70746666Y-149376904D01*
X70746666Y-149376904D02*
X70699047Y-149519761D01*
X70699047Y-149519761D02*
X70603809Y-149615000D01*
X70603809Y-149615000D02*
X70460952Y-149662619D01*
X70460952Y-149662619D02*
X70365714Y-149662619D01*
X71651428Y-148662619D02*
X71460952Y-148662619D01*
X71460952Y-148662619D02*
X71365714Y-148710238D01*
X71365714Y-148710238D02*
X71318095Y-148757857D01*
X71318095Y-148757857D02*
X71222857Y-148900714D01*
X71222857Y-148900714D02*
X71175238Y-149091190D01*
X71175238Y-149091190D02*
X71175238Y-149472142D01*
X71175238Y-149472142D02*
X71222857Y-149567380D01*
X71222857Y-149567380D02*
X71270476Y-149615000D01*
X71270476Y-149615000D02*
X71365714Y-149662619D01*
X71365714Y-149662619D02*
X71556190Y-149662619D01*
X71556190Y-149662619D02*
X71651428Y-149615000D01*
X71651428Y-149615000D02*
X71699047Y-149567380D01*
X71699047Y-149567380D02*
X71746666Y-149472142D01*
X71746666Y-149472142D02*
X71746666Y-149234047D01*
X71746666Y-149234047D02*
X71699047Y-149138809D01*
X71699047Y-149138809D02*
X71651428Y-149091190D01*
X71651428Y-149091190D02*
X71556190Y-149043571D01*
X71556190Y-149043571D02*
X71365714Y-149043571D01*
X71365714Y-149043571D02*
X71270476Y-149091190D01*
X71270476Y-149091190D02*
X71222857Y-149138809D01*
X71222857Y-149138809D02*
X71175238Y-149234047D01*
%TO.C,SW1*%
X56715000Y-74733332D02*
X56762619Y-74590475D01*
X56762619Y-74590475D02*
X56762619Y-74352380D01*
X56762619Y-74352380D02*
X56715000Y-74257142D01*
X56715000Y-74257142D02*
X56667380Y-74209523D01*
X56667380Y-74209523D02*
X56572142Y-74161904D01*
X56572142Y-74161904D02*
X56476904Y-74161904D01*
X56476904Y-74161904D02*
X56381666Y-74209523D01*
X56381666Y-74209523D02*
X56334047Y-74257142D01*
X56334047Y-74257142D02*
X56286428Y-74352380D01*
X56286428Y-74352380D02*
X56238809Y-74542856D01*
X56238809Y-74542856D02*
X56191190Y-74638094D01*
X56191190Y-74638094D02*
X56143571Y-74685713D01*
X56143571Y-74685713D02*
X56048333Y-74733332D01*
X56048333Y-74733332D02*
X55953095Y-74733332D01*
X55953095Y-74733332D02*
X55857857Y-74685713D01*
X55857857Y-74685713D02*
X55810238Y-74638094D01*
X55810238Y-74638094D02*
X55762619Y-74542856D01*
X55762619Y-74542856D02*
X55762619Y-74304761D01*
X55762619Y-74304761D02*
X55810238Y-74161904D01*
X55762619Y-73828570D02*
X56762619Y-73590475D01*
X56762619Y-73590475D02*
X56048333Y-73399999D01*
X56048333Y-73399999D02*
X56762619Y-73209523D01*
X56762619Y-73209523D02*
X55762619Y-72971428D01*
X56762619Y-72066666D02*
X56762619Y-72638094D01*
X56762619Y-72352380D02*
X55762619Y-72352380D01*
X55762619Y-72352380D02*
X55905476Y-72447618D01*
X55905476Y-72447618D02*
X56000714Y-72542856D01*
X56000714Y-72542856D02*
X56048333Y-72638094D01*
%TO.C,R1*%
X63333333Y-109682619D02*
X63000000Y-109206428D01*
X62761905Y-109682619D02*
X62761905Y-108682619D01*
X62761905Y-108682619D02*
X63142857Y-108682619D01*
X63142857Y-108682619D02*
X63238095Y-108730238D01*
X63238095Y-108730238D02*
X63285714Y-108777857D01*
X63285714Y-108777857D02*
X63333333Y-108873095D01*
X63333333Y-108873095D02*
X63333333Y-109015952D01*
X63333333Y-109015952D02*
X63285714Y-109111190D01*
X63285714Y-109111190D02*
X63238095Y-109158809D01*
X63238095Y-109158809D02*
X63142857Y-109206428D01*
X63142857Y-109206428D02*
X62761905Y-109206428D01*
X64285714Y-109682619D02*
X63714286Y-109682619D01*
X64000000Y-109682619D02*
X64000000Y-108682619D01*
X64000000Y-108682619D02*
X63904762Y-108825476D01*
X63904762Y-108825476D02*
X63809524Y-108920714D01*
X63809524Y-108920714D02*
X63714286Y-108968333D01*
%TO.C,RV1*%
X31422619Y-70085238D02*
X30946428Y-70418571D01*
X31422619Y-70656666D02*
X30422619Y-70656666D01*
X30422619Y-70656666D02*
X30422619Y-70275714D01*
X30422619Y-70275714D02*
X30470238Y-70180476D01*
X30470238Y-70180476D02*
X30517857Y-70132857D01*
X30517857Y-70132857D02*
X30613095Y-70085238D01*
X30613095Y-70085238D02*
X30755952Y-70085238D01*
X30755952Y-70085238D02*
X30851190Y-70132857D01*
X30851190Y-70132857D02*
X30898809Y-70180476D01*
X30898809Y-70180476D02*
X30946428Y-70275714D01*
X30946428Y-70275714D02*
X30946428Y-70656666D01*
X30422619Y-69799523D02*
X31422619Y-69466190D01*
X31422619Y-69466190D02*
X30422619Y-69132857D01*
X31422619Y-68275714D02*
X31422619Y-68847142D01*
X31422619Y-68561428D02*
X30422619Y-68561428D01*
X30422619Y-68561428D02*
X30565476Y-68656666D01*
X30565476Y-68656666D02*
X30660714Y-68751904D01*
X30660714Y-68751904D02*
X30708333Y-68847142D01*
%TO.C,D3*%
X27488027Y-133211360D02*
X27488027Y-132211360D01*
X27488027Y-132211360D02*
X27726122Y-132211360D01*
X27726122Y-132211360D02*
X27868979Y-132258979D01*
X27868979Y-132258979D02*
X27964217Y-132354217D01*
X27964217Y-132354217D02*
X28011836Y-132449455D01*
X28011836Y-132449455D02*
X28059455Y-132639931D01*
X28059455Y-132639931D02*
X28059455Y-132782788D01*
X28059455Y-132782788D02*
X28011836Y-132973264D01*
X28011836Y-132973264D02*
X27964217Y-133068502D01*
X27964217Y-133068502D02*
X27868979Y-133163741D01*
X27868979Y-133163741D02*
X27726122Y-133211360D01*
X27726122Y-133211360D02*
X27488027Y-133211360D01*
X28392789Y-132211360D02*
X29011836Y-132211360D01*
X29011836Y-132211360D02*
X28678503Y-132592312D01*
X28678503Y-132592312D02*
X28821360Y-132592312D01*
X28821360Y-132592312D02*
X28916598Y-132639931D01*
X28916598Y-132639931D02*
X28964217Y-132687550D01*
X28964217Y-132687550D02*
X29011836Y-132782788D01*
X29011836Y-132782788D02*
X29011836Y-133020883D01*
X29011836Y-133020883D02*
X28964217Y-133116121D01*
X28964217Y-133116121D02*
X28916598Y-133163741D01*
X28916598Y-133163741D02*
X28821360Y-133211360D01*
X28821360Y-133211360D02*
X28535646Y-133211360D01*
X28535646Y-133211360D02*
X28440408Y-133163741D01*
X28440408Y-133163741D02*
X28392789Y-133116121D01*
%TO.C,D10*%
X61002619Y-55824285D02*
X60002619Y-55824285D01*
X60002619Y-55824285D02*
X60002619Y-55586190D01*
X60002619Y-55586190D02*
X60050238Y-55443333D01*
X60050238Y-55443333D02*
X60145476Y-55348095D01*
X60145476Y-55348095D02*
X60240714Y-55300476D01*
X60240714Y-55300476D02*
X60431190Y-55252857D01*
X60431190Y-55252857D02*
X60574047Y-55252857D01*
X60574047Y-55252857D02*
X60764523Y-55300476D01*
X60764523Y-55300476D02*
X60859761Y-55348095D01*
X60859761Y-55348095D02*
X60955000Y-55443333D01*
X60955000Y-55443333D02*
X61002619Y-55586190D01*
X61002619Y-55586190D02*
X61002619Y-55824285D01*
X61002619Y-54300476D02*
X61002619Y-54871904D01*
X61002619Y-54586190D02*
X60002619Y-54586190D01*
X60002619Y-54586190D02*
X60145476Y-54681428D01*
X60145476Y-54681428D02*
X60240714Y-54776666D01*
X60240714Y-54776666D02*
X60288333Y-54871904D01*
X60002619Y-53681428D02*
X60002619Y-53586190D01*
X60002619Y-53586190D02*
X60050238Y-53490952D01*
X60050238Y-53490952D02*
X60097857Y-53443333D01*
X60097857Y-53443333D02*
X60193095Y-53395714D01*
X60193095Y-53395714D02*
X60383571Y-53348095D01*
X60383571Y-53348095D02*
X60621666Y-53348095D01*
X60621666Y-53348095D02*
X60812142Y-53395714D01*
X60812142Y-53395714D02*
X60907380Y-53443333D01*
X60907380Y-53443333D02*
X60955000Y-53490952D01*
X60955000Y-53490952D02*
X61002619Y-53586190D01*
X61002619Y-53586190D02*
X61002619Y-53681428D01*
X61002619Y-53681428D02*
X60955000Y-53776666D01*
X60955000Y-53776666D02*
X60907380Y-53824285D01*
X60907380Y-53824285D02*
X60812142Y-53871904D01*
X60812142Y-53871904D02*
X60621666Y-53919523D01*
X60621666Y-53919523D02*
X60383571Y-53919523D01*
X60383571Y-53919523D02*
X60193095Y-53871904D01*
X60193095Y-53871904D02*
X60097857Y-53824285D01*
X60097857Y-53824285D02*
X60050238Y-53776666D01*
X60050238Y-53776666D02*
X60002619Y-53681428D01*
%TO.C,R6*%
X73117619Y-127166666D02*
X72641428Y-127499999D01*
X73117619Y-127738094D02*
X72117619Y-127738094D01*
X72117619Y-127738094D02*
X72117619Y-127357142D01*
X72117619Y-127357142D02*
X72165238Y-127261904D01*
X72165238Y-127261904D02*
X72212857Y-127214285D01*
X72212857Y-127214285D02*
X72308095Y-127166666D01*
X72308095Y-127166666D02*
X72450952Y-127166666D01*
X72450952Y-127166666D02*
X72546190Y-127214285D01*
X72546190Y-127214285D02*
X72593809Y-127261904D01*
X72593809Y-127261904D02*
X72641428Y-127357142D01*
X72641428Y-127357142D02*
X72641428Y-127738094D01*
X72117619Y-126309523D02*
X72117619Y-126499999D01*
X72117619Y-126499999D02*
X72165238Y-126595237D01*
X72165238Y-126595237D02*
X72212857Y-126642856D01*
X72212857Y-126642856D02*
X72355714Y-126738094D01*
X72355714Y-126738094D02*
X72546190Y-126785713D01*
X72546190Y-126785713D02*
X72927142Y-126785713D01*
X72927142Y-126785713D02*
X73022380Y-126738094D01*
X73022380Y-126738094D02*
X73070000Y-126690475D01*
X73070000Y-126690475D02*
X73117619Y-126595237D01*
X73117619Y-126595237D02*
X73117619Y-126404761D01*
X73117619Y-126404761D02*
X73070000Y-126309523D01*
X73070000Y-126309523D02*
X73022380Y-126261904D01*
X73022380Y-126261904D02*
X72927142Y-126214285D01*
X72927142Y-126214285D02*
X72689047Y-126214285D01*
X72689047Y-126214285D02*
X72593809Y-126261904D01*
X72593809Y-126261904D02*
X72546190Y-126309523D01*
X72546190Y-126309523D02*
X72498571Y-126404761D01*
X72498571Y-126404761D02*
X72498571Y-126595237D01*
X72498571Y-126595237D02*
X72546190Y-126690475D01*
X72546190Y-126690475D02*
X72593809Y-126738094D01*
X72593809Y-126738094D02*
X72689047Y-126785713D01*
%TO.C,R8*%
X51372619Y-127166666D02*
X50896428Y-127499999D01*
X51372619Y-127738094D02*
X50372619Y-127738094D01*
X50372619Y-127738094D02*
X50372619Y-127357142D01*
X50372619Y-127357142D02*
X50420238Y-127261904D01*
X50420238Y-127261904D02*
X50467857Y-127214285D01*
X50467857Y-127214285D02*
X50563095Y-127166666D01*
X50563095Y-127166666D02*
X50705952Y-127166666D01*
X50705952Y-127166666D02*
X50801190Y-127214285D01*
X50801190Y-127214285D02*
X50848809Y-127261904D01*
X50848809Y-127261904D02*
X50896428Y-127357142D01*
X50896428Y-127357142D02*
X50896428Y-127738094D01*
X50801190Y-126595237D02*
X50753571Y-126690475D01*
X50753571Y-126690475D02*
X50705952Y-126738094D01*
X50705952Y-126738094D02*
X50610714Y-126785713D01*
X50610714Y-126785713D02*
X50563095Y-126785713D01*
X50563095Y-126785713D02*
X50467857Y-126738094D01*
X50467857Y-126738094D02*
X50420238Y-126690475D01*
X50420238Y-126690475D02*
X50372619Y-126595237D01*
X50372619Y-126595237D02*
X50372619Y-126404761D01*
X50372619Y-126404761D02*
X50420238Y-126309523D01*
X50420238Y-126309523D02*
X50467857Y-126261904D01*
X50467857Y-126261904D02*
X50563095Y-126214285D01*
X50563095Y-126214285D02*
X50610714Y-126214285D01*
X50610714Y-126214285D02*
X50705952Y-126261904D01*
X50705952Y-126261904D02*
X50753571Y-126309523D01*
X50753571Y-126309523D02*
X50801190Y-126404761D01*
X50801190Y-126404761D02*
X50801190Y-126595237D01*
X50801190Y-126595237D02*
X50848809Y-126690475D01*
X50848809Y-126690475D02*
X50896428Y-126738094D01*
X50896428Y-126738094D02*
X50991666Y-126785713D01*
X50991666Y-126785713D02*
X51182142Y-126785713D01*
X51182142Y-126785713D02*
X51277380Y-126738094D01*
X51277380Y-126738094D02*
X51325000Y-126690475D01*
X51325000Y-126690475D02*
X51372619Y-126595237D01*
X51372619Y-126595237D02*
X51372619Y-126404761D01*
X51372619Y-126404761D02*
X51325000Y-126309523D01*
X51325000Y-126309523D02*
X51277380Y-126261904D01*
X51277380Y-126261904D02*
X51182142Y-126214285D01*
X51182142Y-126214285D02*
X50991666Y-126214285D01*
X50991666Y-126214285D02*
X50896428Y-126261904D01*
X50896428Y-126261904D02*
X50848809Y-126309523D01*
X50848809Y-126309523D02*
X50801190Y-126404761D01*
%TO.C,R2*%
X37933333Y-109622619D02*
X37600000Y-109146428D01*
X37361905Y-109622619D02*
X37361905Y-108622619D01*
X37361905Y-108622619D02*
X37742857Y-108622619D01*
X37742857Y-108622619D02*
X37838095Y-108670238D01*
X37838095Y-108670238D02*
X37885714Y-108717857D01*
X37885714Y-108717857D02*
X37933333Y-108813095D01*
X37933333Y-108813095D02*
X37933333Y-108955952D01*
X37933333Y-108955952D02*
X37885714Y-109051190D01*
X37885714Y-109051190D02*
X37838095Y-109098809D01*
X37838095Y-109098809D02*
X37742857Y-109146428D01*
X37742857Y-109146428D02*
X37361905Y-109146428D01*
X38314286Y-108717857D02*
X38361905Y-108670238D01*
X38361905Y-108670238D02*
X38457143Y-108622619D01*
X38457143Y-108622619D02*
X38695238Y-108622619D01*
X38695238Y-108622619D02*
X38790476Y-108670238D01*
X38790476Y-108670238D02*
X38838095Y-108717857D01*
X38838095Y-108717857D02*
X38885714Y-108813095D01*
X38885714Y-108813095D02*
X38885714Y-108908333D01*
X38885714Y-108908333D02*
X38838095Y-109051190D01*
X38838095Y-109051190D02*
X38266667Y-109622619D01*
X38266667Y-109622619D02*
X38885714Y-109622619D01*
%TO.C,D6*%
X35602619Y-55348094D02*
X34602619Y-55348094D01*
X34602619Y-55348094D02*
X34602619Y-55109999D01*
X34602619Y-55109999D02*
X34650238Y-54967142D01*
X34650238Y-54967142D02*
X34745476Y-54871904D01*
X34745476Y-54871904D02*
X34840714Y-54824285D01*
X34840714Y-54824285D02*
X35031190Y-54776666D01*
X35031190Y-54776666D02*
X35174047Y-54776666D01*
X35174047Y-54776666D02*
X35364523Y-54824285D01*
X35364523Y-54824285D02*
X35459761Y-54871904D01*
X35459761Y-54871904D02*
X35555000Y-54967142D01*
X35555000Y-54967142D02*
X35602619Y-55109999D01*
X35602619Y-55109999D02*
X35602619Y-55348094D01*
X34602619Y-53919523D02*
X34602619Y-54109999D01*
X34602619Y-54109999D02*
X34650238Y-54205237D01*
X34650238Y-54205237D02*
X34697857Y-54252856D01*
X34697857Y-54252856D02*
X34840714Y-54348094D01*
X34840714Y-54348094D02*
X35031190Y-54395713D01*
X35031190Y-54395713D02*
X35412142Y-54395713D01*
X35412142Y-54395713D02*
X35507380Y-54348094D01*
X35507380Y-54348094D02*
X35555000Y-54300475D01*
X35555000Y-54300475D02*
X35602619Y-54205237D01*
X35602619Y-54205237D02*
X35602619Y-54014761D01*
X35602619Y-54014761D02*
X35555000Y-53919523D01*
X35555000Y-53919523D02*
X35507380Y-53871904D01*
X35507380Y-53871904D02*
X35412142Y-53824285D01*
X35412142Y-53824285D02*
X35174047Y-53824285D01*
X35174047Y-53824285D02*
X35078809Y-53871904D01*
X35078809Y-53871904D02*
X35031190Y-53919523D01*
X35031190Y-53919523D02*
X34983571Y-54014761D01*
X34983571Y-54014761D02*
X34983571Y-54205237D01*
X34983571Y-54205237D02*
X35031190Y-54300475D01*
X35031190Y-54300475D02*
X35078809Y-54348094D01*
X35078809Y-54348094D02*
X35174047Y-54395713D01*
%TO.C,J1*%
X30186666Y-122042619D02*
X30186666Y-122756904D01*
X30186666Y-122756904D02*
X30139047Y-122899761D01*
X30139047Y-122899761D02*
X30043809Y-122995000D01*
X30043809Y-122995000D02*
X29900952Y-123042619D01*
X29900952Y-123042619D02*
X29805714Y-123042619D01*
X31186666Y-123042619D02*
X30615238Y-123042619D01*
X30900952Y-123042619D02*
X30900952Y-122042619D01*
X30900952Y-122042619D02*
X30805714Y-122185476D01*
X30805714Y-122185476D02*
X30710476Y-122280714D01*
X30710476Y-122280714D02*
X30615238Y-122328333D01*
%TO.C,RV2*%
X31422619Y-95485238D02*
X30946428Y-95818571D01*
X31422619Y-96056666D02*
X30422619Y-96056666D01*
X30422619Y-96056666D02*
X30422619Y-95675714D01*
X30422619Y-95675714D02*
X30470238Y-95580476D01*
X30470238Y-95580476D02*
X30517857Y-95532857D01*
X30517857Y-95532857D02*
X30613095Y-95485238D01*
X30613095Y-95485238D02*
X30755952Y-95485238D01*
X30755952Y-95485238D02*
X30851190Y-95532857D01*
X30851190Y-95532857D02*
X30898809Y-95580476D01*
X30898809Y-95580476D02*
X30946428Y-95675714D01*
X30946428Y-95675714D02*
X30946428Y-96056666D01*
X30422619Y-95199523D02*
X31422619Y-94866190D01*
X31422619Y-94866190D02*
X30422619Y-94532857D01*
X30517857Y-94247142D02*
X30470238Y-94199523D01*
X30470238Y-94199523D02*
X30422619Y-94104285D01*
X30422619Y-94104285D02*
X30422619Y-93866190D01*
X30422619Y-93866190D02*
X30470238Y-93770952D01*
X30470238Y-93770952D02*
X30517857Y-93723333D01*
X30517857Y-93723333D02*
X30613095Y-93675714D01*
X30613095Y-93675714D02*
X30708333Y-93675714D01*
X30708333Y-93675714D02*
X30851190Y-93723333D01*
X30851190Y-93723333D02*
X31422619Y-94294761D01*
X31422619Y-94294761D02*
X31422619Y-93675714D01*
%TO.C,D5*%
X29252619Y-55348094D02*
X28252619Y-55348094D01*
X28252619Y-55348094D02*
X28252619Y-55109999D01*
X28252619Y-55109999D02*
X28300238Y-54967142D01*
X28300238Y-54967142D02*
X28395476Y-54871904D01*
X28395476Y-54871904D02*
X28490714Y-54824285D01*
X28490714Y-54824285D02*
X28681190Y-54776666D01*
X28681190Y-54776666D02*
X28824047Y-54776666D01*
X28824047Y-54776666D02*
X29014523Y-54824285D01*
X29014523Y-54824285D02*
X29109761Y-54871904D01*
X29109761Y-54871904D02*
X29205000Y-54967142D01*
X29205000Y-54967142D02*
X29252619Y-55109999D01*
X29252619Y-55109999D02*
X29252619Y-55348094D01*
X28252619Y-53871904D02*
X28252619Y-54348094D01*
X28252619Y-54348094D02*
X28728809Y-54395713D01*
X28728809Y-54395713D02*
X28681190Y-54348094D01*
X28681190Y-54348094D02*
X28633571Y-54252856D01*
X28633571Y-54252856D02*
X28633571Y-54014761D01*
X28633571Y-54014761D02*
X28681190Y-53919523D01*
X28681190Y-53919523D02*
X28728809Y-53871904D01*
X28728809Y-53871904D02*
X28824047Y-53824285D01*
X28824047Y-53824285D02*
X29062142Y-53824285D01*
X29062142Y-53824285D02*
X29157380Y-53871904D01*
X29157380Y-53871904D02*
X29205000Y-53919523D01*
X29205000Y-53919523D02*
X29252619Y-54014761D01*
X29252619Y-54014761D02*
X29252619Y-54252856D01*
X29252619Y-54252856D02*
X29205000Y-54348094D01*
X29205000Y-54348094D02*
X29157380Y-54395713D01*
%TO.C,D2*%
X71600202Y-133129370D02*
X71600202Y-132129370D01*
X71600202Y-132129370D02*
X71838297Y-132129370D01*
X71838297Y-132129370D02*
X71981154Y-132176989D01*
X71981154Y-132176989D02*
X72076392Y-132272227D01*
X72076392Y-132272227D02*
X72124011Y-132367465D01*
X72124011Y-132367465D02*
X72171630Y-132557941D01*
X72171630Y-132557941D02*
X72171630Y-132700798D01*
X72171630Y-132700798D02*
X72124011Y-132891274D01*
X72124011Y-132891274D02*
X72076392Y-132986512D01*
X72076392Y-132986512D02*
X71981154Y-133081751D01*
X71981154Y-133081751D02*
X71838297Y-133129370D01*
X71838297Y-133129370D02*
X71600202Y-133129370D01*
X72552583Y-132224608D02*
X72600202Y-132176989D01*
X72600202Y-132176989D02*
X72695440Y-132129370D01*
X72695440Y-132129370D02*
X72933535Y-132129370D01*
X72933535Y-132129370D02*
X73028773Y-132176989D01*
X73028773Y-132176989D02*
X73076392Y-132224608D01*
X73076392Y-132224608D02*
X73124011Y-132319846D01*
X73124011Y-132319846D02*
X73124011Y-132415084D01*
X73124011Y-132415084D02*
X73076392Y-132557941D01*
X73076392Y-132557941D02*
X72504964Y-133129370D01*
X72504964Y-133129370D02*
X73124011Y-133129370D01*
%TO.C,R4*%
X48093333Y-140377619D02*
X47760000Y-139901428D01*
X47521905Y-140377619D02*
X47521905Y-139377619D01*
X47521905Y-139377619D02*
X47902857Y-139377619D01*
X47902857Y-139377619D02*
X47998095Y-139425238D01*
X47998095Y-139425238D02*
X48045714Y-139472857D01*
X48045714Y-139472857D02*
X48093333Y-139568095D01*
X48093333Y-139568095D02*
X48093333Y-139710952D01*
X48093333Y-139710952D02*
X48045714Y-139806190D01*
X48045714Y-139806190D02*
X47998095Y-139853809D01*
X47998095Y-139853809D02*
X47902857Y-139901428D01*
X47902857Y-139901428D02*
X47521905Y-139901428D01*
X48950476Y-139710952D02*
X48950476Y-140377619D01*
X48712381Y-139330000D02*
X48474286Y-140044285D01*
X48474286Y-140044285D02*
X49093333Y-140044285D01*
%TO.C,D11*%
X67352619Y-55824285D02*
X66352619Y-55824285D01*
X66352619Y-55824285D02*
X66352619Y-55586190D01*
X66352619Y-55586190D02*
X66400238Y-55443333D01*
X66400238Y-55443333D02*
X66495476Y-55348095D01*
X66495476Y-55348095D02*
X66590714Y-55300476D01*
X66590714Y-55300476D02*
X66781190Y-55252857D01*
X66781190Y-55252857D02*
X66924047Y-55252857D01*
X66924047Y-55252857D02*
X67114523Y-55300476D01*
X67114523Y-55300476D02*
X67209761Y-55348095D01*
X67209761Y-55348095D02*
X67305000Y-55443333D01*
X67305000Y-55443333D02*
X67352619Y-55586190D01*
X67352619Y-55586190D02*
X67352619Y-55824285D01*
X67352619Y-54300476D02*
X67352619Y-54871904D01*
X67352619Y-54586190D02*
X66352619Y-54586190D01*
X66352619Y-54586190D02*
X66495476Y-54681428D01*
X66495476Y-54681428D02*
X66590714Y-54776666D01*
X66590714Y-54776666D02*
X66638333Y-54871904D01*
X67352619Y-53348095D02*
X67352619Y-53919523D01*
X67352619Y-53633809D02*
X66352619Y-53633809D01*
X66352619Y-53633809D02*
X66495476Y-53729047D01*
X66495476Y-53729047D02*
X66590714Y-53824285D01*
X66590714Y-53824285D02*
X66638333Y-53919523D01*
%TO.C,R3*%
X48093333Y-143337619D02*
X47760000Y-142861428D01*
X47521905Y-143337619D02*
X47521905Y-142337619D01*
X47521905Y-142337619D02*
X47902857Y-142337619D01*
X47902857Y-142337619D02*
X47998095Y-142385238D01*
X47998095Y-142385238D02*
X48045714Y-142432857D01*
X48045714Y-142432857D02*
X48093333Y-142528095D01*
X48093333Y-142528095D02*
X48093333Y-142670952D01*
X48093333Y-142670952D02*
X48045714Y-142766190D01*
X48045714Y-142766190D02*
X47998095Y-142813809D01*
X47998095Y-142813809D02*
X47902857Y-142861428D01*
X47902857Y-142861428D02*
X47521905Y-142861428D01*
X48426667Y-142337619D02*
X49045714Y-142337619D01*
X49045714Y-142337619D02*
X48712381Y-142718571D01*
X48712381Y-142718571D02*
X48855238Y-142718571D01*
X48855238Y-142718571D02*
X48950476Y-142766190D01*
X48950476Y-142766190D02*
X48998095Y-142813809D01*
X48998095Y-142813809D02*
X49045714Y-142909047D01*
X49045714Y-142909047D02*
X49045714Y-143147142D01*
X49045714Y-143147142D02*
X48998095Y-143242380D01*
X48998095Y-143242380D02*
X48950476Y-143290000D01*
X48950476Y-143290000D02*
X48855238Y-143337619D01*
X48855238Y-143337619D02*
X48569524Y-143337619D01*
X48569524Y-143337619D02*
X48474286Y-143290000D01*
X48474286Y-143290000D02*
X48426667Y-143242380D01*
%TO.C,J5*%
X60586666Y-148662619D02*
X60586666Y-149376904D01*
X60586666Y-149376904D02*
X60539047Y-149519761D01*
X60539047Y-149519761D02*
X60443809Y-149615000D01*
X60443809Y-149615000D02*
X60300952Y-149662619D01*
X60300952Y-149662619D02*
X60205714Y-149662619D01*
X61539047Y-148662619D02*
X61062857Y-148662619D01*
X61062857Y-148662619D02*
X61015238Y-149138809D01*
X61015238Y-149138809D02*
X61062857Y-149091190D01*
X61062857Y-149091190D02*
X61158095Y-149043571D01*
X61158095Y-149043571D02*
X61396190Y-149043571D01*
X61396190Y-149043571D02*
X61491428Y-149091190D01*
X61491428Y-149091190D02*
X61539047Y-149138809D01*
X61539047Y-149138809D02*
X61586666Y-149234047D01*
X61586666Y-149234047D02*
X61586666Y-149472142D01*
X61586666Y-149472142D02*
X61539047Y-149567380D01*
X61539047Y-149567380D02*
X61491428Y-149615000D01*
X61491428Y-149615000D02*
X61396190Y-149662619D01*
X61396190Y-149662619D02*
X61158095Y-149662619D01*
X61158095Y-149662619D02*
X61062857Y-149615000D01*
X61062857Y-149615000D02*
X61015238Y-149567380D01*
%TO.C,D8*%
X48302619Y-55348094D02*
X47302619Y-55348094D01*
X47302619Y-55348094D02*
X47302619Y-55109999D01*
X47302619Y-55109999D02*
X47350238Y-54967142D01*
X47350238Y-54967142D02*
X47445476Y-54871904D01*
X47445476Y-54871904D02*
X47540714Y-54824285D01*
X47540714Y-54824285D02*
X47731190Y-54776666D01*
X47731190Y-54776666D02*
X47874047Y-54776666D01*
X47874047Y-54776666D02*
X48064523Y-54824285D01*
X48064523Y-54824285D02*
X48159761Y-54871904D01*
X48159761Y-54871904D02*
X48255000Y-54967142D01*
X48255000Y-54967142D02*
X48302619Y-55109999D01*
X48302619Y-55109999D02*
X48302619Y-55348094D01*
X47731190Y-54205237D02*
X47683571Y-54300475D01*
X47683571Y-54300475D02*
X47635952Y-54348094D01*
X47635952Y-54348094D02*
X47540714Y-54395713D01*
X47540714Y-54395713D02*
X47493095Y-54395713D01*
X47493095Y-54395713D02*
X47397857Y-54348094D01*
X47397857Y-54348094D02*
X47350238Y-54300475D01*
X47350238Y-54300475D02*
X47302619Y-54205237D01*
X47302619Y-54205237D02*
X47302619Y-54014761D01*
X47302619Y-54014761D02*
X47350238Y-53919523D01*
X47350238Y-53919523D02*
X47397857Y-53871904D01*
X47397857Y-53871904D02*
X47493095Y-53824285D01*
X47493095Y-53824285D02*
X47540714Y-53824285D01*
X47540714Y-53824285D02*
X47635952Y-53871904D01*
X47635952Y-53871904D02*
X47683571Y-53919523D01*
X47683571Y-53919523D02*
X47731190Y-54014761D01*
X47731190Y-54014761D02*
X47731190Y-54205237D01*
X47731190Y-54205237D02*
X47778809Y-54300475D01*
X47778809Y-54300475D02*
X47826428Y-54348094D01*
X47826428Y-54348094D02*
X47921666Y-54395713D01*
X47921666Y-54395713D02*
X48112142Y-54395713D01*
X48112142Y-54395713D02*
X48207380Y-54348094D01*
X48207380Y-54348094D02*
X48255000Y-54300475D01*
X48255000Y-54300475D02*
X48302619Y-54205237D01*
X48302619Y-54205237D02*
X48302619Y-54014761D01*
X48302619Y-54014761D02*
X48255000Y-53919523D01*
X48255000Y-53919523D02*
X48207380Y-53871904D01*
X48207380Y-53871904D02*
X48112142Y-53824285D01*
X48112142Y-53824285D02*
X47921666Y-53824285D01*
X47921666Y-53824285D02*
X47826428Y-53871904D01*
X47826428Y-53871904D02*
X47778809Y-53919523D01*
X47778809Y-53919523D02*
X47731190Y-54014761D01*
%TO.C,R5*%
X55097619Y-127166666D02*
X54621428Y-127499999D01*
X55097619Y-127738094D02*
X54097619Y-127738094D01*
X54097619Y-127738094D02*
X54097619Y-127357142D01*
X54097619Y-127357142D02*
X54145238Y-127261904D01*
X54145238Y-127261904D02*
X54192857Y-127214285D01*
X54192857Y-127214285D02*
X54288095Y-127166666D01*
X54288095Y-127166666D02*
X54430952Y-127166666D01*
X54430952Y-127166666D02*
X54526190Y-127214285D01*
X54526190Y-127214285D02*
X54573809Y-127261904D01*
X54573809Y-127261904D02*
X54621428Y-127357142D01*
X54621428Y-127357142D02*
X54621428Y-127738094D01*
X54097619Y-126261904D02*
X54097619Y-126738094D01*
X54097619Y-126738094D02*
X54573809Y-126785713D01*
X54573809Y-126785713D02*
X54526190Y-126738094D01*
X54526190Y-126738094D02*
X54478571Y-126642856D01*
X54478571Y-126642856D02*
X54478571Y-126404761D01*
X54478571Y-126404761D02*
X54526190Y-126309523D01*
X54526190Y-126309523D02*
X54573809Y-126261904D01*
X54573809Y-126261904D02*
X54669047Y-126214285D01*
X54669047Y-126214285D02*
X54907142Y-126214285D01*
X54907142Y-126214285D02*
X55002380Y-126261904D01*
X55002380Y-126261904D02*
X55050000Y-126309523D01*
X55050000Y-126309523D02*
X55097619Y-126404761D01*
X55097619Y-126404761D02*
X55097619Y-126642856D01*
X55097619Y-126642856D02*
X55050000Y-126738094D01*
X55050000Y-126738094D02*
X55002380Y-126785713D01*
%TO.C,J3*%
X60666666Y-122042619D02*
X60666666Y-122756904D01*
X60666666Y-122756904D02*
X60619047Y-122899761D01*
X60619047Y-122899761D02*
X60523809Y-122995000D01*
X60523809Y-122995000D02*
X60380952Y-123042619D01*
X60380952Y-123042619D02*
X60285714Y-123042619D01*
X61047619Y-122042619D02*
X61666666Y-122042619D01*
X61666666Y-122042619D02*
X61333333Y-122423571D01*
X61333333Y-122423571D02*
X61476190Y-122423571D01*
X61476190Y-122423571D02*
X61571428Y-122471190D01*
X61571428Y-122471190D02*
X61619047Y-122518809D01*
X61619047Y-122518809D02*
X61666666Y-122614047D01*
X61666666Y-122614047D02*
X61666666Y-122852142D01*
X61666666Y-122852142D02*
X61619047Y-122947380D01*
X61619047Y-122947380D02*
X61571428Y-122995000D01*
X61571428Y-122995000D02*
X61476190Y-123042619D01*
X61476190Y-123042619D02*
X61190476Y-123042619D01*
X61190476Y-123042619D02*
X61095238Y-122995000D01*
X61095238Y-122995000D02*
X61047619Y-122947380D01*
%TO.C,D9*%
X54652619Y-55348094D02*
X53652619Y-55348094D01*
X53652619Y-55348094D02*
X53652619Y-55109999D01*
X53652619Y-55109999D02*
X53700238Y-54967142D01*
X53700238Y-54967142D02*
X53795476Y-54871904D01*
X53795476Y-54871904D02*
X53890714Y-54824285D01*
X53890714Y-54824285D02*
X54081190Y-54776666D01*
X54081190Y-54776666D02*
X54224047Y-54776666D01*
X54224047Y-54776666D02*
X54414523Y-54824285D01*
X54414523Y-54824285D02*
X54509761Y-54871904D01*
X54509761Y-54871904D02*
X54605000Y-54967142D01*
X54605000Y-54967142D02*
X54652619Y-55109999D01*
X54652619Y-55109999D02*
X54652619Y-55348094D01*
X54652619Y-54300475D02*
X54652619Y-54109999D01*
X54652619Y-54109999D02*
X54605000Y-54014761D01*
X54605000Y-54014761D02*
X54557380Y-53967142D01*
X54557380Y-53967142D02*
X54414523Y-53871904D01*
X54414523Y-53871904D02*
X54224047Y-53824285D01*
X54224047Y-53824285D02*
X53843095Y-53824285D01*
X53843095Y-53824285D02*
X53747857Y-53871904D01*
X53747857Y-53871904D02*
X53700238Y-53919523D01*
X53700238Y-53919523D02*
X53652619Y-54014761D01*
X53652619Y-54014761D02*
X53652619Y-54205237D01*
X53652619Y-54205237D02*
X53700238Y-54300475D01*
X53700238Y-54300475D02*
X53747857Y-54348094D01*
X53747857Y-54348094D02*
X53843095Y-54395713D01*
X53843095Y-54395713D02*
X54081190Y-54395713D01*
X54081190Y-54395713D02*
X54176428Y-54348094D01*
X54176428Y-54348094D02*
X54224047Y-54300475D01*
X54224047Y-54300475D02*
X54271666Y-54205237D01*
X54271666Y-54205237D02*
X54271666Y-54014761D01*
X54271666Y-54014761D02*
X54224047Y-53919523D01*
X54224047Y-53919523D02*
X54176428Y-53871904D01*
X54176428Y-53871904D02*
X54081190Y-53824285D01*
%TO.C,SW2*%
X33645000Y-115633332D02*
X33692619Y-115490475D01*
X33692619Y-115490475D02*
X33692619Y-115252380D01*
X33692619Y-115252380D02*
X33645000Y-115157142D01*
X33645000Y-115157142D02*
X33597380Y-115109523D01*
X33597380Y-115109523D02*
X33502142Y-115061904D01*
X33502142Y-115061904D02*
X33406904Y-115061904D01*
X33406904Y-115061904D02*
X33311666Y-115109523D01*
X33311666Y-115109523D02*
X33264047Y-115157142D01*
X33264047Y-115157142D02*
X33216428Y-115252380D01*
X33216428Y-115252380D02*
X33168809Y-115442856D01*
X33168809Y-115442856D02*
X33121190Y-115538094D01*
X33121190Y-115538094D02*
X33073571Y-115585713D01*
X33073571Y-115585713D02*
X32978333Y-115633332D01*
X32978333Y-115633332D02*
X32883095Y-115633332D01*
X32883095Y-115633332D02*
X32787857Y-115585713D01*
X32787857Y-115585713D02*
X32740238Y-115538094D01*
X32740238Y-115538094D02*
X32692619Y-115442856D01*
X32692619Y-115442856D02*
X32692619Y-115204761D01*
X32692619Y-115204761D02*
X32740238Y-115061904D01*
X32692619Y-114728570D02*
X33692619Y-114490475D01*
X33692619Y-114490475D02*
X32978333Y-114299999D01*
X32978333Y-114299999D02*
X33692619Y-114109523D01*
X33692619Y-114109523D02*
X32692619Y-113871428D01*
X32787857Y-113538094D02*
X32740238Y-113490475D01*
X32740238Y-113490475D02*
X32692619Y-113395237D01*
X32692619Y-113395237D02*
X32692619Y-113157142D01*
X32692619Y-113157142D02*
X32740238Y-113061904D01*
X32740238Y-113061904D02*
X32787857Y-113014285D01*
X32787857Y-113014285D02*
X32883095Y-112966666D01*
X32883095Y-112966666D02*
X32978333Y-112966666D01*
X32978333Y-112966666D02*
X33121190Y-113014285D01*
X33121190Y-113014285D02*
X33692619Y-113585713D01*
X33692619Y-113585713D02*
X33692619Y-112966666D01*
%TO.C,D7*%
X41952619Y-55348094D02*
X40952619Y-55348094D01*
X40952619Y-55348094D02*
X40952619Y-55109999D01*
X40952619Y-55109999D02*
X41000238Y-54967142D01*
X41000238Y-54967142D02*
X41095476Y-54871904D01*
X41095476Y-54871904D02*
X41190714Y-54824285D01*
X41190714Y-54824285D02*
X41381190Y-54776666D01*
X41381190Y-54776666D02*
X41524047Y-54776666D01*
X41524047Y-54776666D02*
X41714523Y-54824285D01*
X41714523Y-54824285D02*
X41809761Y-54871904D01*
X41809761Y-54871904D02*
X41905000Y-54967142D01*
X41905000Y-54967142D02*
X41952619Y-55109999D01*
X41952619Y-55109999D02*
X41952619Y-55348094D01*
X40952619Y-54443332D02*
X40952619Y-53776666D01*
X40952619Y-53776666D02*
X41952619Y-54205237D01*
%TO.C,R7*%
X29802619Y-143676666D02*
X29326428Y-144009999D01*
X29802619Y-144248094D02*
X28802619Y-144248094D01*
X28802619Y-144248094D02*
X28802619Y-143867142D01*
X28802619Y-143867142D02*
X28850238Y-143771904D01*
X28850238Y-143771904D02*
X28897857Y-143724285D01*
X28897857Y-143724285D02*
X28993095Y-143676666D01*
X28993095Y-143676666D02*
X29135952Y-143676666D01*
X29135952Y-143676666D02*
X29231190Y-143724285D01*
X29231190Y-143724285D02*
X29278809Y-143771904D01*
X29278809Y-143771904D02*
X29326428Y-143867142D01*
X29326428Y-143867142D02*
X29326428Y-144248094D01*
X28802619Y-143343332D02*
X28802619Y-142676666D01*
X28802619Y-142676666D02*
X29802619Y-143105237D01*
%TO.C,J2*%
X40346666Y-122042619D02*
X40346666Y-122756904D01*
X40346666Y-122756904D02*
X40299047Y-122899761D01*
X40299047Y-122899761D02*
X40203809Y-122995000D01*
X40203809Y-122995000D02*
X40060952Y-123042619D01*
X40060952Y-123042619D02*
X39965714Y-123042619D01*
X40775238Y-122137857D02*
X40822857Y-122090238D01*
X40822857Y-122090238D02*
X40918095Y-122042619D01*
X40918095Y-122042619D02*
X41156190Y-122042619D01*
X41156190Y-122042619D02*
X41251428Y-122090238D01*
X41251428Y-122090238D02*
X41299047Y-122137857D01*
X41299047Y-122137857D02*
X41346666Y-122233095D01*
X41346666Y-122233095D02*
X41346666Y-122328333D01*
X41346666Y-122328333D02*
X41299047Y-122471190D01*
X41299047Y-122471190D02*
X40727619Y-123042619D01*
X40727619Y-123042619D02*
X41346666Y-123042619D01*
%TO.C,SW3*%
X59045000Y-115633332D02*
X59092619Y-115490475D01*
X59092619Y-115490475D02*
X59092619Y-115252380D01*
X59092619Y-115252380D02*
X59045000Y-115157142D01*
X59045000Y-115157142D02*
X58997380Y-115109523D01*
X58997380Y-115109523D02*
X58902142Y-115061904D01*
X58902142Y-115061904D02*
X58806904Y-115061904D01*
X58806904Y-115061904D02*
X58711666Y-115109523D01*
X58711666Y-115109523D02*
X58664047Y-115157142D01*
X58664047Y-115157142D02*
X58616428Y-115252380D01*
X58616428Y-115252380D02*
X58568809Y-115442856D01*
X58568809Y-115442856D02*
X58521190Y-115538094D01*
X58521190Y-115538094D02*
X58473571Y-115585713D01*
X58473571Y-115585713D02*
X58378333Y-115633332D01*
X58378333Y-115633332D02*
X58283095Y-115633332D01*
X58283095Y-115633332D02*
X58187857Y-115585713D01*
X58187857Y-115585713D02*
X58140238Y-115538094D01*
X58140238Y-115538094D02*
X58092619Y-115442856D01*
X58092619Y-115442856D02*
X58092619Y-115204761D01*
X58092619Y-115204761D02*
X58140238Y-115061904D01*
X58092619Y-114728570D02*
X59092619Y-114490475D01*
X59092619Y-114490475D02*
X58378333Y-114299999D01*
X58378333Y-114299999D02*
X59092619Y-114109523D01*
X59092619Y-114109523D02*
X58092619Y-113871428D01*
X58092619Y-113585713D02*
X58092619Y-112966666D01*
X58092619Y-112966666D02*
X58473571Y-113299999D01*
X58473571Y-113299999D02*
X58473571Y-113157142D01*
X58473571Y-113157142D02*
X58521190Y-113061904D01*
X58521190Y-113061904D02*
X58568809Y-113014285D01*
X58568809Y-113014285D02*
X58664047Y-112966666D01*
X58664047Y-112966666D02*
X58902142Y-112966666D01*
X58902142Y-112966666D02*
X58997380Y-113014285D01*
X58997380Y-113014285D02*
X59045000Y-113061904D01*
X59045000Y-113061904D02*
X59092619Y-113157142D01*
X59092619Y-113157142D02*
X59092619Y-113442856D01*
X59092619Y-113442856D02*
X59045000Y-113538094D01*
X59045000Y-113538094D02*
X58997380Y-113585713D01*
D11*
%TO.C,D1*%
X53374000Y-137450000D02*
X53530000Y-137450000D01*
X55690000Y-137450000D02*
X55846000Y-137450000D01*
X53531392Y-134217666D02*
G75*
G03*
X53374485Y-137449999I1078608J-1672334D01*
G01*
X53530164Y-134848871D02*
G75*
G03*
X53530001Y-136930960I1079836J-1041129D01*
G01*
X55689999Y-136930960D02*
G75*
G03*
X55689836Y-134848871I-1079999J1040960D01*
G01*
X55845515Y-137449999D02*
G75*
G03*
X55688608Y-134217666I-1235515J1559999D01*
G01*
D12*
%TO.C,J4*%
X42600000Y-148400000D02*
X39700000Y-148400000D01*
X42600000Y-137900000D02*
X42600000Y-148400000D01*
X42600000Y-137900000D02*
X39600000Y-137900000D01*
X36600000Y-137900000D02*
X33600000Y-137900000D01*
X36500000Y-148400000D02*
X33600000Y-148400000D01*
X33600000Y-137900000D02*
X33600000Y-148400000D01*
D11*
X38100000Y-145295000D02*
G75*
G03*
X39396263Y-139811424I0J2895000D01*
G01*
X36803737Y-139811424D02*
G75*
G03*
X38100000Y-145295000I1296263J-2588576D01*
G01*
X39900000Y-142400000D02*
G75*
G03*
X39900000Y-142400000I-1800000J0D01*
G01*
%TO.C,RV3*%
X59730000Y-102870000D02*
X67350000Y-102870000D01*
X58620000Y-100720000D02*
X59730000Y-100720000D01*
X58620000Y-100720000D02*
X58620000Y-96000000D01*
X59730000Y-100720000D02*
X59730000Y-102870000D01*
X67350000Y-100720000D02*
X67350000Y-102870000D01*
X68370000Y-100720000D02*
X67350000Y-100720000D01*
X68370000Y-100720000D02*
X68370000Y-96000000D01*
X58630000Y-92190000D02*
X58630000Y-89130000D01*
X68370000Y-92190000D02*
X68370000Y-89130000D01*
X68370000Y-89130000D02*
X58630000Y-89130000D01*
%TO.C,D4*%
X45754000Y-137450000D02*
X45910000Y-137450000D01*
X48070000Y-137450000D02*
X48226000Y-137450000D01*
X45911392Y-134217666D02*
G75*
G03*
X45754485Y-137449999I1078608J-1672334D01*
G01*
X45910164Y-134848871D02*
G75*
G03*
X45910001Y-136930960I1079836J-1041129D01*
G01*
X48069999Y-136930960D02*
G75*
G03*
X48069836Y-134848871I-1079999J1040960D01*
G01*
X48225515Y-137449999D02*
G75*
G03*
X48068608Y-134217666I-1235515J1559999D01*
G01*
D12*
%TO.C,J6*%
X73080000Y-148400000D02*
X70180000Y-148400000D01*
X73080000Y-137900000D02*
X73080000Y-148400000D01*
X73080000Y-137900000D02*
X70080000Y-137900000D01*
X67080000Y-137900000D02*
X64080000Y-137900000D01*
X66980000Y-148400000D02*
X64080000Y-148400000D01*
X64080000Y-137900000D02*
X64080000Y-148400000D01*
D11*
X68580000Y-145295000D02*
G75*
G03*
X69876263Y-139811424I0J2895000D01*
G01*
X67283737Y-139811424D02*
G75*
G03*
X68580000Y-145295000I1296263J-2588576D01*
G01*
X70380000Y-142400000D02*
G75*
G03*
X70380000Y-142400000I-1800000J0D01*
G01*
%TO.C,SW1*%
X59400000Y-76500000D02*
X59400000Y-75900000D01*
X59700000Y-76200000D02*
X59400000Y-76500000D01*
X59400000Y-75900000D02*
X59700000Y-76200000D01*
X57200000Y-75400000D02*
X59700000Y-75400000D01*
X69800000Y-75400000D02*
X67000000Y-75400000D01*
X57200000Y-70600000D02*
X57200000Y-75400000D01*
X69800000Y-70500000D02*
X69800000Y-75400000D01*
X63500000Y-69200000D02*
X63500000Y-68200000D01*
X63000000Y-68700000D02*
X64000000Y-68700000D01*
X57200000Y-66900000D02*
X57200000Y-62000000D01*
X57200000Y-62000000D02*
X59800000Y-62000000D01*
X62200000Y-62000000D02*
X64800000Y-62000000D01*
X67200000Y-62000000D02*
X69800000Y-62000000D01*
X69800000Y-62000000D02*
X69800000Y-66900000D01*
X66500000Y-68700000D02*
G75*
G03*
X66500000Y-68700000I-3000000J0D01*
G01*
%TO.C,R1*%
X60230000Y-107850000D02*
X66770000Y-107850000D01*
X60230000Y-108180000D02*
X60230000Y-107850000D01*
X60230000Y-110260000D02*
X60230000Y-110590000D01*
X60230000Y-110590000D02*
X66770000Y-110590000D01*
X66770000Y-107850000D02*
X66770000Y-108180000D01*
X66770000Y-110590000D02*
X66770000Y-110260000D01*
%TO.C,RV1*%
X34330000Y-77470000D02*
X41950000Y-77470000D01*
X33220000Y-75320000D02*
X34330000Y-75320000D01*
X33220000Y-75320000D02*
X33220000Y-70600000D01*
X34330000Y-75320000D02*
X34330000Y-77470000D01*
X41950000Y-75320000D02*
X41950000Y-77470000D01*
X42970000Y-75320000D02*
X41950000Y-75320000D01*
X42970000Y-75320000D02*
X42970000Y-70600000D01*
X33230000Y-66790000D02*
X33230000Y-63730000D01*
X42970000Y-66790000D02*
X42970000Y-63730000D01*
X42970000Y-63730000D02*
X33230000Y-63730000D01*
%TO.C,D3*%
X27974000Y-137450000D02*
X28130000Y-137450000D01*
X30290000Y-137450000D02*
X30446000Y-137450000D01*
X28131392Y-134217666D02*
G75*
G03*
X27974485Y-137449999I1078608J-1672334D01*
G01*
X28130164Y-134848871D02*
G75*
G03*
X28130001Y-136930960I1079836J-1041129D01*
G01*
X30289999Y-136930960D02*
G75*
G03*
X30289836Y-134848871I-1079999J1040960D01*
G01*
X30445515Y-137449999D02*
G75*
G03*
X30288608Y-134217666I-1235515J1559999D01*
G01*
%TO.C,D10*%
X62264000Y-56170000D02*
X62420000Y-56170000D01*
X64580000Y-56170000D02*
X64736000Y-56170000D01*
X62421392Y-52937666D02*
G75*
G03*
X62264485Y-56169999I1078608J-1672334D01*
G01*
X62420164Y-53568871D02*
G75*
G03*
X62420001Y-55650960I1079836J-1041129D01*
G01*
X64579999Y-55650960D02*
G75*
G03*
X64579836Y-53568871I-1079999J1040960D01*
G01*
X64735515Y-56169999D02*
G75*
G03*
X64578608Y-52937666I-1235515J1559999D01*
G01*
%TO.C,R6*%
X73760000Y-123730000D02*
X73760000Y-130270000D01*
X73430000Y-123730000D02*
X73760000Y-123730000D01*
X71350000Y-123730000D02*
X71020000Y-123730000D01*
X71020000Y-123730000D02*
X71020000Y-130270000D01*
X73760000Y-130270000D02*
X73430000Y-130270000D01*
X71020000Y-130270000D02*
X71350000Y-130270000D01*
%TO.C,R8*%
X52170000Y-123730000D02*
X52170000Y-130270000D01*
X51840000Y-123730000D02*
X52170000Y-123730000D01*
X49760000Y-123730000D02*
X49430000Y-123730000D01*
X49430000Y-123730000D02*
X49430000Y-130270000D01*
X52170000Y-130270000D02*
X51840000Y-130270000D01*
X49430000Y-130270000D02*
X49760000Y-130270000D01*
%TO.C,R2*%
X41370000Y-110590000D02*
X34830000Y-110590000D01*
X41370000Y-110260000D02*
X41370000Y-110590000D01*
X41370000Y-108180000D02*
X41370000Y-107850000D01*
X41370000Y-107850000D02*
X34830000Y-107850000D01*
X34830000Y-110590000D02*
X34830000Y-110260000D01*
X34830000Y-107850000D02*
X34830000Y-108180000D01*
%TO.C,D6*%
X36864000Y-56170000D02*
X37020000Y-56170000D01*
X39180000Y-56170000D02*
X39336000Y-56170000D01*
X37021392Y-52937666D02*
G75*
G03*
X36864485Y-56169999I1078608J-1672334D01*
G01*
X37020164Y-53568871D02*
G75*
G03*
X37020001Y-55650960I1079836J-1041129D01*
G01*
X39179999Y-55650960D02*
G75*
G03*
X39179836Y-53568871I-1079999J1040960D01*
G01*
X39335515Y-56169999D02*
G75*
G03*
X39178608Y-52937666I-1235515J1559999D01*
G01*
D12*
%TO.C,J1*%
X28520000Y-123380000D02*
X31420000Y-123380000D01*
X28520000Y-133880000D02*
X28520000Y-123380000D01*
X28520000Y-133880000D02*
X31520000Y-133880000D01*
X34520000Y-133880000D02*
X37520000Y-133880000D01*
X34620000Y-123380000D02*
X37520000Y-123380000D01*
X37520000Y-133880000D02*
X37520000Y-123380000D01*
D11*
X33020000Y-126485000D02*
G75*
G03*
X31723737Y-131968576I0J-2895000D01*
G01*
X34316263Y-131968576D02*
G75*
G03*
X33020000Y-126485000I-1296263J2588576D01*
G01*
X34820000Y-129380000D02*
G75*
G03*
X34820000Y-129380000I-1800000J0D01*
G01*
%TO.C,RV2*%
X34330000Y-102870000D02*
X41950000Y-102870000D01*
X33220000Y-100720000D02*
X34330000Y-100720000D01*
X33220000Y-100720000D02*
X33220000Y-96000000D01*
X34330000Y-100720000D02*
X34330000Y-102870000D01*
X41950000Y-100720000D02*
X41950000Y-102870000D01*
X42970000Y-100720000D02*
X41950000Y-100720000D01*
X42970000Y-100720000D02*
X42970000Y-96000000D01*
X33230000Y-92190000D02*
X33230000Y-89130000D01*
X42970000Y-92190000D02*
X42970000Y-89130000D01*
X42970000Y-89130000D02*
X33230000Y-89130000D01*
%TO.C,D5*%
X30514000Y-56170000D02*
X30670000Y-56170000D01*
X32830000Y-56170000D02*
X32986000Y-56170000D01*
X30671392Y-52937666D02*
G75*
G03*
X30514485Y-56169999I1078608J-1672334D01*
G01*
X30670164Y-53568871D02*
G75*
G03*
X30670001Y-55650960I1079836J-1041129D01*
G01*
X32829999Y-55650960D02*
G75*
G03*
X32829836Y-53568871I-1079999J1040960D01*
G01*
X32985515Y-56169999D02*
G75*
G03*
X32828608Y-52937666I-1235515J1559999D01*
G01*
%TO.C,D2*%
X71154000Y-137450000D02*
X71310000Y-137450000D01*
X73470000Y-137450000D02*
X73626000Y-137450000D01*
X71311392Y-134217666D02*
G75*
G03*
X71154485Y-137449999I1078608J-1672334D01*
G01*
X71310164Y-134848871D02*
G75*
G03*
X71310001Y-136930960I1079836J-1041129D01*
G01*
X73469999Y-136930960D02*
G75*
G03*
X73469836Y-134848871I-1079999J1040960D01*
G01*
X73625515Y-137449999D02*
G75*
G03*
X73468608Y-134217666I-1235515J1559999D01*
G01*
%TO.C,R4*%
X44990000Y-138330000D02*
X51530000Y-138330000D01*
X44990000Y-138660000D02*
X44990000Y-138330000D01*
X44990000Y-140740000D02*
X44990000Y-141070000D01*
X44990000Y-141070000D02*
X51530000Y-141070000D01*
X51530000Y-138330000D02*
X51530000Y-138660000D01*
X51530000Y-141070000D02*
X51530000Y-140740000D01*
%TO.C,D11*%
X68614000Y-56170000D02*
X68770000Y-56170000D01*
X70930000Y-56170000D02*
X71086000Y-56170000D01*
X68771392Y-52937666D02*
G75*
G03*
X68614485Y-56169999I1078608J-1672334D01*
G01*
X68770164Y-53568871D02*
G75*
G03*
X68770001Y-55650960I1079836J-1041129D01*
G01*
X70929999Y-55650960D02*
G75*
G03*
X70929836Y-53568871I-1079999J1040960D01*
G01*
X71085515Y-56169999D02*
G75*
G03*
X70928608Y-52937666I-1235515J1559999D01*
G01*
%TO.C,R3*%
X44990000Y-141505000D02*
X51530000Y-141505000D01*
X44990000Y-141835000D02*
X44990000Y-141505000D01*
X44990000Y-143915000D02*
X44990000Y-144245000D01*
X44990000Y-144245000D02*
X51530000Y-144245000D01*
X51530000Y-141505000D02*
X51530000Y-141835000D01*
X51530000Y-144245000D02*
X51530000Y-143915000D01*
D12*
%TO.C,J5*%
X62920000Y-148400000D02*
X60020000Y-148400000D01*
X62920000Y-137900000D02*
X62920000Y-148400000D01*
X62920000Y-137900000D02*
X59920000Y-137900000D01*
X56920000Y-137900000D02*
X53920000Y-137900000D01*
X56820000Y-148400000D02*
X53920000Y-148400000D01*
X53920000Y-137900000D02*
X53920000Y-148400000D01*
D11*
X58420000Y-145295000D02*
G75*
G03*
X59716263Y-139811424I0J2895000D01*
G01*
X57123737Y-139811424D02*
G75*
G03*
X58420000Y-145295000I1296263J-2588576D01*
G01*
X60220000Y-142400000D02*
G75*
G03*
X60220000Y-142400000I-1800000J0D01*
G01*
%TO.C,D8*%
X49564000Y-56170000D02*
X49720000Y-56170000D01*
X51880000Y-56170000D02*
X52036000Y-56170000D01*
X49721392Y-52937666D02*
G75*
G03*
X49564485Y-56169999I1078608J-1672334D01*
G01*
X49720164Y-53568871D02*
G75*
G03*
X49720001Y-55650960I1079836J-1041129D01*
G01*
X51879999Y-55650960D02*
G75*
G03*
X51879836Y-53568871I-1079999J1040960D01*
G01*
X52035515Y-56169999D02*
G75*
G03*
X51878608Y-52937666I-1235515J1559999D01*
G01*
%TO.C,R5*%
X55980000Y-123730000D02*
X55980000Y-130270000D01*
X55650000Y-123730000D02*
X55980000Y-123730000D01*
X53570000Y-123730000D02*
X53240000Y-123730000D01*
X53240000Y-123730000D02*
X53240000Y-130270000D01*
X55980000Y-130270000D02*
X55650000Y-130270000D01*
X53240000Y-130270000D02*
X53570000Y-130270000D01*
D12*
%TO.C,J3*%
X59000000Y-123380000D02*
X61900000Y-123380000D01*
X59000000Y-133880000D02*
X59000000Y-123380000D01*
X59000000Y-133880000D02*
X62000000Y-133880000D01*
X65000000Y-133880000D02*
X68000000Y-133880000D01*
X65100000Y-123380000D02*
X68000000Y-123380000D01*
X68000000Y-133880000D02*
X68000000Y-123380000D01*
D11*
X63500000Y-126485000D02*
G75*
G03*
X62203737Y-131968576I0J-2895000D01*
G01*
X64796263Y-131968576D02*
G75*
G03*
X63500000Y-126485000I-1296263J2588576D01*
G01*
X65300000Y-129380000D02*
G75*
G03*
X65300000Y-129380000I-1800000J0D01*
G01*
%TO.C,D9*%
X55914000Y-56170000D02*
X56070000Y-56170000D01*
X58230000Y-56170000D02*
X58386000Y-56170000D01*
X56071392Y-52937666D02*
G75*
G03*
X55914485Y-56169999I1078608J-1672334D01*
G01*
X56070164Y-53568871D02*
G75*
G03*
X56070001Y-55650960I1079836J-1041129D01*
G01*
X58229999Y-55650960D02*
G75*
G03*
X58229836Y-53568871I-1079999J1040960D01*
G01*
X58385515Y-56169999D02*
G75*
G03*
X58228608Y-52937666I-1235515J1559999D01*
G01*
%TO.C,SW2*%
X34230000Y-115630000D02*
X34230000Y-112970000D01*
X36830000Y-115630000D02*
X34230000Y-115630000D01*
X36830000Y-115630000D02*
X41970000Y-115630000D01*
X41970000Y-115630000D02*
X41970000Y-112970000D01*
X34230000Y-112970000D02*
X36830000Y-112970000D01*
X36830000Y-112970000D02*
X41970000Y-112970000D01*
%TO.C,D7*%
X43214000Y-56170000D02*
X43370000Y-56170000D01*
X45530000Y-56170000D02*
X45686000Y-56170000D01*
X43371392Y-52937666D02*
G75*
G03*
X43214485Y-56169999I1078608J-1672334D01*
G01*
X43370164Y-53568871D02*
G75*
G03*
X43370001Y-55650960I1079836J-1041129D01*
G01*
X45529999Y-55650960D02*
G75*
G03*
X45529836Y-53568871I-1079999J1040960D01*
G01*
X45685515Y-56169999D02*
G75*
G03*
X45528608Y-52937666I-1235515J1559999D01*
G01*
%TO.C,R7*%
X27840000Y-146780000D02*
X27840000Y-140240000D01*
X28170000Y-146780000D02*
X27840000Y-146780000D01*
X30250000Y-146780000D02*
X30580000Y-146780000D01*
X30580000Y-146780000D02*
X30580000Y-140240000D01*
X27840000Y-140240000D02*
X28170000Y-140240000D01*
X30580000Y-140240000D02*
X30250000Y-140240000D01*
D12*
%TO.C,J2*%
X38680000Y-123380000D02*
X41580000Y-123380000D01*
X38680000Y-133880000D02*
X38680000Y-123380000D01*
X38680000Y-133880000D02*
X41680000Y-133880000D01*
X44680000Y-133880000D02*
X47680000Y-133880000D01*
X44780000Y-123380000D02*
X47680000Y-123380000D01*
X47680000Y-133880000D02*
X47680000Y-123380000D01*
D11*
X43180000Y-126485000D02*
G75*
G03*
X41883737Y-131968576I0J-2895000D01*
G01*
X44476263Y-131968576D02*
G75*
G03*
X43180000Y-126485000I-1296263J2588576D01*
G01*
X44980000Y-129380000D02*
G75*
G03*
X44980000Y-129380000I-1800000J0D01*
G01*
%TO.C,SW3*%
X59630000Y-115630000D02*
X59630000Y-112970000D01*
X62230000Y-115630000D02*
X59630000Y-115630000D01*
X62230000Y-115630000D02*
X67370000Y-115630000D01*
X67370000Y-115630000D02*
X67370000Y-112970000D01*
X59630000Y-112970000D02*
X62230000Y-112970000D01*
X62230000Y-112970000D02*
X67370000Y-112970000D01*
%TD*%
%LPC*%
D13*
%TO.C,D1*%
X54610000Y-137160000D03*
D14*
X54610000Y-134620000D03*
%TD*%
D15*
%TO.C,J4*%
X38100000Y-135920000D03*
D16*
X38100000Y-139020000D03*
X38100000Y-147320000D03*
%TD*%
D14*
%TO.C,RV3*%
X61000000Y-101600000D03*
X63500000Y-101600000D03*
X66000000Y-101600000D03*
D17*
X58700000Y-94100000D03*
X68300000Y-94100000D03*
%TD*%
D13*
%TO.C,D4*%
X46990000Y-137160000D03*
D14*
X46990000Y-134620000D03*
%TD*%
D15*
%TO.C,J6*%
X68580000Y-135920000D03*
D16*
X68580000Y-139020000D03*
X68580000Y-147320000D03*
%TD*%
D18*
%TO.C,SW1*%
X61000000Y-76200000D03*
D19*
X66000000Y-76200000D03*
X63500000Y-76200000D03*
D20*
X57900000Y-68700000D03*
X69100000Y-68700000D03*
D19*
X61000000Y-61700000D03*
X66000000Y-61700000D03*
%TD*%
D21*
%TO.C,R1*%
X59690000Y-109220000D03*
D22*
X67310000Y-109220000D03*
%TD*%
D14*
%TO.C,RV1*%
X35600000Y-76200000D03*
X38100000Y-76200000D03*
X40600000Y-76200000D03*
D17*
X33300000Y-68700000D03*
X42900000Y-68700000D03*
%TD*%
D13*
%TO.C,D3*%
X29210000Y-137160000D03*
D14*
X29210000Y-134620000D03*
%TD*%
D13*
%TO.C,D10*%
X63500000Y-55880000D03*
D14*
X63500000Y-53340000D03*
%TD*%
D21*
%TO.C,R6*%
X72390000Y-123190000D03*
D22*
X72390000Y-130810000D03*
%TD*%
D21*
%TO.C,R8*%
X50800000Y-123190000D03*
D22*
X50800000Y-130810000D03*
%TD*%
D21*
%TO.C,R2*%
X41910000Y-109220000D03*
D22*
X34290000Y-109220000D03*
%TD*%
D13*
%TO.C,D6*%
X38100000Y-55880000D03*
D14*
X38100000Y-53340000D03*
%TD*%
D15*
%TO.C,J1*%
X33020000Y-135860000D03*
D23*
X33020000Y-132760000D03*
X33020000Y-124460000D03*
%TD*%
D14*
%TO.C,RV2*%
X35600000Y-101600000D03*
X38100000Y-101600000D03*
X40600000Y-101600000D03*
D17*
X33300000Y-94100000D03*
X42900000Y-94100000D03*
%TD*%
D13*
%TO.C,D5*%
X31750000Y-55880000D03*
D14*
X31750000Y-53340000D03*
%TD*%
D13*
%TO.C,D2*%
X72390000Y-137160000D03*
D14*
X72390000Y-134620000D03*
%TD*%
D21*
%TO.C,R4*%
X44450000Y-139700000D03*
D22*
X52070000Y-139700000D03*
%TD*%
D13*
%TO.C,D11*%
X69850000Y-55880000D03*
D14*
X69850000Y-53340000D03*
%TD*%
D21*
%TO.C,R3*%
X44450000Y-142875000D03*
D22*
X52070000Y-142875000D03*
%TD*%
D15*
%TO.C,J5*%
X58420000Y-135920000D03*
D16*
X58420000Y-139020000D03*
X58420000Y-147320000D03*
%TD*%
D13*
%TO.C,D8*%
X50800000Y-55880000D03*
D14*
X50800000Y-53340000D03*
%TD*%
D21*
%TO.C,R5*%
X54610000Y-123190000D03*
D22*
X54610000Y-130810000D03*
%TD*%
D15*
%TO.C,J3*%
X63500000Y-135860000D03*
D23*
X63500000Y-132760000D03*
X63500000Y-124460000D03*
%TD*%
D13*
%TO.C,D9*%
X57150000Y-55880000D03*
D14*
X57150000Y-53340000D03*
%TD*%
D24*
%TO.C,SW2*%
X35560000Y-114300000D03*
D25*
X38100000Y-114300000D03*
X40640000Y-114300000D03*
%TD*%
D13*
%TO.C,D7*%
X44450000Y-55880000D03*
D14*
X44450000Y-53340000D03*
%TD*%
D21*
%TO.C,R7*%
X29210000Y-147320000D03*
D22*
X29210000Y-139700000D03*
%TD*%
D15*
%TO.C,J2*%
X43180000Y-135860000D03*
D23*
X43180000Y-132760000D03*
X43180000Y-124460000D03*
%TD*%
D24*
%TO.C,SW3*%
X60960000Y-114300000D03*
D25*
X63500000Y-114300000D03*
X66040000Y-114300000D03*
%TD*%
D26*
%TO.C,J8*%
X50800000Y-146050000D03*
D25*
X50800000Y-148590000D03*
X48260000Y-146050000D03*
X48260000Y-148590000D03*
X45720000Y-146050000D03*
X45720000Y-148590000D03*
%TD*%
D26*
%TO.C,J7*%
X43180000Y-58420000D03*
D25*
X45720000Y-58420000D03*
X48260000Y-58420000D03*
X50800000Y-58420000D03*
X53340000Y-58420000D03*
X55880000Y-58420000D03*
X58420000Y-58420000D03*
%TD*%
D26*
%TO.C,J9*%
X27940000Y-83820000D03*
D25*
X27940000Y-86360000D03*
X27940000Y-88900000D03*
X27940000Y-91440000D03*
X27940000Y-93980000D03*
X27940000Y-96520000D03*
%TD*%
D26*
%TO.C,J10*%
X73660000Y-99060000D03*
D25*
X73660000Y-96520000D03*
X73660000Y-93980000D03*
X73660000Y-91440000D03*
X73660000Y-88900000D03*
X73660000Y-86360000D03*
X73660000Y-83820000D03*
X73660000Y-81280000D03*
%TD*%
%LPD*%
M02*
