%TF.GenerationSoftware,KiCad,Pcbnew,7.0.2*%
%TF.CreationDate,2023-04-23T21:02:48-07:00*%
%TF.ProjectId,rng_pcb_front,726e675f-7063-4625-9f66-726f6e742e6b,v2.0*%
%TF.SameCoordinates,Original*%
%TF.FileFunction,Copper,L1,Top*%
%TF.FilePolarity,Positive*%
%FSLAX46Y46*%
G04 Gerber Fmt 4.6, Leading zero omitted, Abs format (unit mm)*
G04 Created by KiCad (PCBNEW 7.0.2) date 2023-04-23 21:02:48*
%MOMM*%
%LPD*%
G01*
G04 APERTURE LIST*
G04 Aperture macros list*
%AMRoundRect*
0 Rectangle with rounded corners*
0 $1 Rounding radius*
0 $2 $3 $4 $5 $6 $7 $8 $9 X,Y pos of 4 corners*
0 Add a 4 corners polygon primitive as box body*
4,1,4,$2,$3,$4,$5,$6,$7,$8,$9,$2,$3,0*
0 Add four circle primitives for the rounded corners*
1,1,$1+$1,$2,$3*
1,1,$1+$1,$4,$5*
1,1,$1+$1,$6,$7*
1,1,$1+$1,$8,$9*
0 Add four rect primitives between the rounded corners*
20,1,$1+$1,$2,$3,$4,$5,0*
20,1,$1+$1,$4,$5,$6,$7,0*
20,1,$1+$1,$6,$7,$8,$9,0*
20,1,$1+$1,$8,$9,$2,$3,0*%
G04 Aperture macros list end*
%TA.AperFunction,ComponentPad*%
%ADD10R,1.800000X1.800000*%
%TD*%
%TA.AperFunction,ComponentPad*%
%ADD11C,1.800000*%
%TD*%
%TA.AperFunction,ComponentPad*%
%ADD12O,3.100000X2.100000*%
%TD*%
%TA.AperFunction,ComponentPad*%
%ADD13RoundRect,0.650000X0.650000X0.650000X-0.650000X0.650000X-0.650000X-0.650000X0.650000X-0.650000X0*%
%TD*%
%TA.AperFunction,ComponentPad*%
%ADD14O,2.720000X3.240000*%
%TD*%
%TA.AperFunction,ComponentPad*%
%ADD15R,2.000000X2.000000*%
%TD*%
%TA.AperFunction,ComponentPad*%
%ADD16C,2.000000*%
%TD*%
%TA.AperFunction,ComponentPad*%
%ADD17R,2.500000X3.000000*%
%TD*%
%TA.AperFunction,ComponentPad*%
%ADD18C,1.600000*%
%TD*%
%TA.AperFunction,ComponentPad*%
%ADD19O,1.600000X1.600000*%
%TD*%
%TA.AperFunction,ComponentPad*%
%ADD20RoundRect,0.650000X-0.650000X-0.650000X0.650000X-0.650000X0.650000X0.650000X-0.650000X0.650000X0*%
%TD*%
%TA.AperFunction,ComponentPad*%
%ADD21C,1.700000*%
%TD*%
%TA.AperFunction,ComponentPad*%
%ADD22O,1.700000X1.700000*%
%TD*%
%TA.AperFunction,ComponentPad*%
%ADD23R,1.700000X1.700000*%
%TD*%
%TA.AperFunction,Conductor*%
%ADD24C,0.508000*%
%TD*%
%TA.AperFunction,Conductor*%
%ADD25C,0.254000*%
%TD*%
G04 APERTURE END LIST*
D10*
%TO.P,D1,1,K*%
%TO.N,GND*%
X54610000Y-137160000D03*
D11*
%TO.P,D1,2,A*%
%TO.N,Net-(D1-A)*%
X54610000Y-134620000D03*
%TD*%
D12*
%TO.P,J4,1*%
%TO.N,GND*%
X38100000Y-135920000D03*
D13*
%TO.P,J4,2*%
%TO.N,unconnected-(J4-Pad2)*%
X38100000Y-139020000D03*
%TO.P,J4,3*%
%TO.N,RANDOM_OUT*%
X38100000Y-147320000D03*
%TD*%
D11*
%TO.P,RV3,1,1*%
%TO.N,VREF_-5*%
X61000000Y-101600000D03*
%TO.P,RV3,2,2*%
%TO.N,POT_BIAS*%
X63500000Y-101600000D03*
%TO.P,RV3,3,3*%
%TO.N,GND*%
X66000000Y-101600000D03*
D14*
%TO.P,RV3,MP*%
X58700000Y-94100000D03*
X68300000Y-94100000D03*
%TD*%
D10*
%TO.P,D4,1,K*%
%TO.N,GND*%
X46990000Y-137160000D03*
D11*
%TO.P,D4,2,A*%
%TO.N,Net-(D4-A)*%
X46990000Y-134620000D03*
%TD*%
D12*
%TO.P,J6,1*%
%TO.N,GND*%
X68580000Y-135920000D03*
D13*
%TO.P,J6,2*%
%TO.N,unconnected-(J6-Pad2)*%
X68580000Y-139020000D03*
%TO.P,J6,3*%
%TO.N,Net-(J6-Pad3)*%
X68580000Y-147320000D03*
%TD*%
D15*
%TO.P,SW1,A,A*%
%TO.N,RE_A*%
X61000000Y-76200000D03*
D16*
%TO.P,SW1,B,B*%
%TO.N,RE_B*%
X66000000Y-76200000D03*
%TO.P,SW1,C,C*%
%TO.N,GND*%
X63500000Y-76200000D03*
D17*
%TO.P,SW1,MP*%
X57900000Y-68700000D03*
X69100000Y-68700000D03*
D16*
%TO.P,SW1,S1,S1*%
%TO.N,RE_SWITCH*%
X61000000Y-61700000D03*
%TO.P,SW1,S2,S2*%
%TO.N,GND*%
X66000000Y-61700000D03*
%TD*%
D18*
%TO.P,R1,1*%
%TO.N,INPUT_CV_ENABLE*%
X59690000Y-109220000D03*
D19*
%TO.P,R1,2*%
%TO.N,GND*%
X67310000Y-109220000D03*
%TD*%
D11*
%TO.P,RV1,1,1*%
%TO.N,GND*%
X35600000Y-76200000D03*
%TO.P,RV1,2,2*%
%TO.N,POT_RANDOM*%
X38100000Y-76200000D03*
%TO.P,RV1,3,3*%
%TO.N,+5V*%
X40600000Y-76200000D03*
D14*
%TO.P,RV1,MP*%
%TO.N,GND*%
X33300000Y-68700000D03*
X42900000Y-68700000D03*
%TD*%
D10*
%TO.P,D3,1,K*%
%TO.N,GND*%
X29210000Y-137160000D03*
D11*
%TO.P,D3,2,A*%
%TO.N,Net-(D3-A)*%
X29210000Y-134620000D03*
%TD*%
D10*
%TO.P,D10,1,K*%
%TO.N,Net-(D10-K)*%
X63500000Y-55880000D03*
D11*
%TO.P,D10,2,A*%
%TO.N,+5V*%
X63500000Y-53340000D03*
%TD*%
D18*
%TO.P,R6,1*%
%TO.N,GATE_B_OUT*%
X72390000Y-123190000D03*
D19*
%TO.P,R6,2*%
%TO.N,Net-(D2-A)*%
X72390000Y-130810000D03*
%TD*%
D18*
%TO.P,R8,1*%
%TO.N,ENABLED_LED*%
X50800000Y-123190000D03*
D19*
%TO.P,R8,2*%
%TO.N,Net-(D4-A)*%
X50800000Y-130810000D03*
%TD*%
D18*
%TO.P,R2,1*%
%TO.N,VREF_-5*%
X41910000Y-109220000D03*
D19*
%TO.P,R2,2*%
%TO.N,Net-(SW2-A)*%
X34290000Y-109220000D03*
%TD*%
D10*
%TO.P,D6,1,K*%
%TO.N,Net-(D6-K)*%
X38100000Y-55880000D03*
D11*
%TO.P,D6,2,A*%
%TO.N,+5V*%
X38100000Y-53340000D03*
%TD*%
D12*
%TO.P,J1,1*%
%TO.N,GND*%
X33020000Y-135860000D03*
D20*
%TO.P,J1,2*%
X33020000Y-132760000D03*
%TO.P,J1,3*%
%TO.N,INPUT_CV_CLOCK*%
X33020000Y-124460000D03*
%TD*%
D11*
%TO.P,RV2,1,1*%
%TO.N,GAIN_A*%
X35600000Y-101600000D03*
%TO.P,RV2,2,2*%
%TO.N,GAIN_B*%
X38100000Y-101600000D03*
%TO.P,RV2,3,3*%
%TO.N,unconnected-(RV2-Pad3)*%
X40600000Y-101600000D03*
D14*
%TO.P,RV2,MP*%
%TO.N,GND*%
X33300000Y-94100000D03*
X42900000Y-94100000D03*
%TD*%
D10*
%TO.P,D5,1,K*%
%TO.N,Net-(D5-K)*%
X31750000Y-55880000D03*
D11*
%TO.P,D5,2,A*%
%TO.N,+5V*%
X31750000Y-53340000D03*
%TD*%
D10*
%TO.P,D2,1,K*%
%TO.N,GND*%
X72390000Y-137160000D03*
D11*
%TO.P,D2,2,A*%
%TO.N,Net-(D2-A)*%
X72390000Y-134620000D03*
%TD*%
D18*
%TO.P,R4,1*%
%TO.N,GATE_B_OUT*%
X44450000Y-139700000D03*
D19*
%TO.P,R4,2*%
%TO.N,Net-(J6-Pad3)*%
X52070000Y-139700000D03*
%TD*%
D10*
%TO.P,D11,1,K*%
%TO.N,Net-(D11-K)*%
X69850000Y-55880000D03*
D11*
%TO.P,D11,2,A*%
%TO.N,+5V*%
X69850000Y-53340000D03*
%TD*%
D18*
%TO.P,R3,1*%
%TO.N,GATE_A_OUT*%
X44450000Y-142875000D03*
D19*
%TO.P,R3,2*%
%TO.N,Net-(J5-Pad3)*%
X52070000Y-142875000D03*
%TD*%
D12*
%TO.P,J5,1*%
%TO.N,GND*%
X58420000Y-135920000D03*
D13*
%TO.P,J5,2*%
%TO.N,unconnected-(J5-Pad2)*%
X58420000Y-139020000D03*
%TO.P,J5,3*%
%TO.N,Net-(J5-Pad3)*%
X58420000Y-147320000D03*
%TD*%
D10*
%TO.P,D8,1,K*%
%TO.N,Net-(D8-K)*%
X50800000Y-55880000D03*
D11*
%TO.P,D8,2,A*%
%TO.N,+5V*%
X50800000Y-53340000D03*
%TD*%
D18*
%TO.P,R5,1*%
%TO.N,GATE_A_OUT*%
X54610000Y-123190000D03*
D19*
%TO.P,R5,2*%
%TO.N,Net-(D1-A)*%
X54610000Y-130810000D03*
%TD*%
D12*
%TO.P,J3,1*%
%TO.N,GND*%
X63500000Y-135860000D03*
D20*
%TO.P,J3,2*%
X63500000Y-132760000D03*
%TO.P,J3,3*%
%TO.N,INPUT_CV_BIAS*%
X63500000Y-124460000D03*
%TD*%
D10*
%TO.P,D9,1,K*%
%TO.N,Net-(D9-K)*%
X57150000Y-55880000D03*
D11*
%TO.P,D9,2,A*%
%TO.N,+5V*%
X57150000Y-53340000D03*
%TD*%
D21*
%TO.P,SW2,1,A*%
%TO.N,Net-(SW2-A)*%
X35560000Y-114300000D03*
D22*
%TO.P,SW2,2,B*%
%TO.N,GAIN_A*%
X38100000Y-114300000D03*
%TO.P,SW2,3*%
%TO.N,N/C*%
X40640000Y-114300000D03*
%TD*%
D10*
%TO.P,D7,1,K*%
%TO.N,Net-(D7-K)*%
X44450000Y-55880000D03*
D11*
%TO.P,D7,2,A*%
%TO.N,+5V*%
X44450000Y-53340000D03*
%TD*%
D18*
%TO.P,R7,1*%
%TO.N,TRIG_IN_LED*%
X29210000Y-147320000D03*
D19*
%TO.P,R7,2*%
%TO.N,Net-(D3-A)*%
X29210000Y-139700000D03*
%TD*%
D12*
%TO.P,J2,1*%
%TO.N,GND*%
X43180000Y-135860000D03*
D20*
%TO.P,J2,2*%
%TO.N,+5V*%
X43180000Y-132760000D03*
%TO.P,J2,3*%
%TO.N,INPUT_CV_ENABLE*%
X43180000Y-124460000D03*
%TD*%
D21*
%TO.P,SW3,1,A*%
%TO.N,GND*%
X60960000Y-114300000D03*
D22*
%TO.P,SW3,2,B*%
%TO.N,TRIG_SWTICH*%
X63500000Y-114300000D03*
%TO.P,SW3,3,C*%
%TO.N,+5V*%
X66040000Y-114300000D03*
%TD*%
D23*
%TO.P,J8,1,Pin_1*%
%TO.N,GND*%
X50800000Y-146050000D03*
D22*
%TO.P,J8,2,Pin_2*%
%TO.N,GATE_A_OUT*%
X50800000Y-148590000D03*
%TO.P,J8,3,Pin_3*%
%TO.N,GATE_B_OUT*%
X48260000Y-146050000D03*
%TO.P,J8,4,Pin_4*%
%TO.N,RANDOM_OUT*%
X48260000Y-148590000D03*
%TO.P,J8,5,Pin_5*%
%TO.N,TRIG_IN_LED*%
X45720000Y-146050000D03*
%TO.P,J8,6,Pin_6*%
%TO.N,ENABLED_LED*%
X45720000Y-148590000D03*
%TD*%
D23*
%TO.P,J7,1,Pin_1*%
%TO.N,Net-(D5-K)*%
X43180000Y-58420000D03*
D22*
%TO.P,J7,2,Pin_2*%
%TO.N,Net-(D6-K)*%
X45720000Y-58420000D03*
%TO.P,J7,3,Pin_3*%
%TO.N,Net-(D7-K)*%
X48260000Y-58420000D03*
%TO.P,J7,4,Pin_4*%
%TO.N,Net-(D8-K)*%
X50800000Y-58420000D03*
%TO.P,J7,5,Pin_5*%
%TO.N,Net-(D9-K)*%
X53340000Y-58420000D03*
%TO.P,J7,6,Pin_6*%
%TO.N,Net-(D10-K)*%
X55880000Y-58420000D03*
%TO.P,J7,7,Pin_7*%
%TO.N,Net-(D11-K)*%
X58420000Y-58420000D03*
%TD*%
D23*
%TO.P,J9,1,Pin_1*%
%TO.N,GND*%
X27940000Y-83820000D03*
D22*
%TO.P,J9,2,Pin_2*%
%TO.N,+5V*%
X27940000Y-86360000D03*
%TO.P,J9,3,Pin_3*%
%TO.N,GAIN_B*%
X27940000Y-88900000D03*
%TO.P,J9,4,Pin_4*%
%TO.N,GAIN_A*%
X27940000Y-91440000D03*
%TO.P,J9,5,Pin_5*%
%TO.N,POT_RANDOM*%
X27940000Y-93980000D03*
%TO.P,J9,6,Pin_6*%
%TO.N,TRIG_SWTICH*%
X27940000Y-96520000D03*
%TD*%
D23*
%TO.P,J10,1,Pin_1*%
%TO.N,VREF_-5*%
X73660000Y-99060000D03*
D22*
%TO.P,J10,2,Pin_2*%
%TO.N,POT_BIAS*%
X73660000Y-96520000D03*
%TO.P,J10,3,Pin_3*%
%TO.N,INPUT_CV_BIAS*%
X73660000Y-93980000D03*
%TO.P,J10,4,Pin_4*%
%TO.N,INPUT_CV_ENABLE*%
X73660000Y-91440000D03*
%TO.P,J10,5,Pin_5*%
%TO.N,INPUT_CV_CLOCK*%
X73660000Y-88900000D03*
%TO.P,J10,6,Pin_6*%
%TO.N,RE_B*%
X73660000Y-86360000D03*
%TO.P,J10,7,Pin_7*%
%TO.N,RE_A*%
X73660000Y-83820000D03*
%TO.P,J10,8,Pin_8*%
%TO.N,RE_SWITCH*%
X73660000Y-81280000D03*
%TD*%
D24*
%TO.N,+5V*%
X63500000Y-116840000D02*
X66040000Y-114300000D01*
X67945000Y-59055000D02*
X60325000Y-59055000D01*
X71120000Y-109220000D02*
X71120000Y-62230000D01*
X66040000Y-114300000D02*
X71120000Y-109220000D01*
X46990000Y-123190000D02*
X53340000Y-116840000D01*
X43770000Y-132760000D02*
X46990000Y-129540000D01*
X60325000Y-59055000D02*
X43180000Y-76200000D01*
X53340000Y-116840000D02*
X63500000Y-116840000D01*
X46990000Y-129540000D02*
X46990000Y-123190000D01*
X71120000Y-62230000D02*
X67945000Y-59055000D01*
X43180000Y-76200000D02*
X40600000Y-76200000D01*
%TO.N,GND*%
X33020000Y-132760000D02*
X33020000Y-135860000D01*
X33020000Y-76200000D02*
X35560000Y-76200000D01*
X66000000Y-73700000D02*
X66000000Y-61700000D01*
X38100000Y-78740000D02*
X63500000Y-78740000D01*
X63500000Y-76200000D02*
X63500000Y-78740000D01*
X33020000Y-135860000D02*
X38040000Y-135860000D01*
X63500000Y-76200000D02*
X66000000Y-73700000D01*
X38040000Y-135860000D02*
X38100000Y-135920000D01*
X63440000Y-135920000D02*
X63500000Y-135860000D01*
X33020000Y-135860000D02*
X30510000Y-135860000D01*
X67310000Y-109220000D02*
X66040000Y-109220000D01*
X67310000Y-102910000D02*
X66000000Y-101600000D01*
X27940000Y-83820000D02*
X27940000Y-81280000D01*
X63500000Y-132760000D02*
X63500000Y-135860000D01*
X38160000Y-135860000D02*
X38100000Y-135920000D01*
X35600000Y-76200000D02*
X38100000Y-78700000D01*
X68580000Y-135920000D02*
X71150000Y-135920000D01*
X43180000Y-135860000D02*
X45690000Y-135860000D01*
X46990000Y-137160000D02*
X54610000Y-137160000D01*
X50800000Y-146050000D02*
X50800000Y-144780000D01*
X43180000Y-135860000D02*
X38160000Y-135860000D01*
X63500000Y-78740000D02*
X63500000Y-99100000D01*
X58420000Y-135920000D02*
X63440000Y-135920000D01*
X38100000Y-78700000D02*
X38100000Y-78740000D01*
X55850000Y-135920000D02*
X54610000Y-137160000D01*
X46990000Y-140970000D02*
X46990000Y-137160000D01*
X50800000Y-144780000D02*
X46990000Y-140970000D01*
X66040000Y-109220000D02*
X60960000Y-114300000D01*
X63560000Y-135920000D02*
X63500000Y-135860000D01*
X27940000Y-81280000D02*
X33020000Y-76200000D01*
X58420000Y-135920000D02*
X55850000Y-135920000D01*
X71150000Y-135920000D02*
X72390000Y-137160000D01*
X30510000Y-135860000D02*
X29210000Y-137160000D01*
X45690000Y-135860000D02*
X46990000Y-137160000D01*
X67310000Y-109220000D02*
X67310000Y-102910000D01*
X68580000Y-135920000D02*
X63560000Y-135920000D01*
X63500000Y-99100000D02*
X66000000Y-101600000D01*
D25*
%TO.N,VREF_-5*%
X41910000Y-109220000D02*
X53380000Y-109220000D01*
X53380000Y-109220000D02*
X61000000Y-101600000D01*
%TO.N,TRIG_SWTICH*%
X54610000Y-115570000D02*
X62230000Y-115570000D01*
X27940000Y-106680000D02*
X33020000Y-111760000D01*
X62230000Y-115570000D02*
X63500000Y-114300000D01*
X27940000Y-96520000D02*
X27940000Y-106680000D01*
X50800000Y-111760000D02*
X54610000Y-115570000D01*
X33020000Y-111760000D02*
X50800000Y-111760000D01*
%TO.N,Net-(D4-A)*%
X46990000Y-134620000D02*
X50800000Y-130810000D01*
%TO.N,GATE_A_OUT*%
X49530000Y-147320000D02*
X50800000Y-148590000D01*
X44450000Y-142875000D02*
X46990000Y-145415000D01*
X46990000Y-145415000D02*
X46990000Y-146520897D01*
X47789103Y-147320000D02*
X49530000Y-147320000D01*
X46990000Y-146520897D02*
X47789103Y-147320000D01*
%TO.N,GATE_B_OUT*%
X48260000Y-146050000D02*
X48260000Y-144780000D01*
X44450000Y-140970000D02*
X44450000Y-139700000D01*
X48260000Y-144780000D02*
X44450000Y-140970000D01*
%TD*%
%TA.AperFunction,Conductor*%
%TO.N,GND*%
G36*
X33270000Y-135560000D02*
G01*
X32769999Y-135560000D01*
X32770000Y-133060000D01*
X33270000Y-133060000D01*
X33270000Y-135560000D01*
G37*
%TD.AperFunction*%
%TA.AperFunction,Conductor*%
G36*
X63750000Y-135560000D02*
G01*
X63250000Y-135560000D01*
X63250000Y-133060000D01*
X63750000Y-133060000D01*
X63750000Y-135560000D01*
G37*
%TD.AperFunction*%
%TA.AperFunction,Conductor*%
G36*
X75742539Y-50820185D02*
G01*
X75788294Y-50872989D01*
X75799500Y-50924500D01*
X75799500Y-150675500D01*
X75779815Y-150742539D01*
X75727011Y-150788294D01*
X75675500Y-150799500D01*
X25924500Y-150799500D01*
X25857461Y-150779815D01*
X25811706Y-150727011D01*
X25800500Y-150675500D01*
X25800500Y-147320000D01*
X27904531Y-147320000D01*
X27924364Y-147546689D01*
X27983261Y-147766497D01*
X28079432Y-147972735D01*
X28209953Y-148159140D01*
X28370859Y-148320046D01*
X28557264Y-148450567D01*
X28557265Y-148450567D01*
X28557266Y-148450568D01*
X28763504Y-148546739D01*
X28983308Y-148605635D01*
X29210000Y-148625468D01*
X29436692Y-148605635D01*
X29656496Y-148546739D01*
X29862734Y-148450568D01*
X30049139Y-148320047D01*
X30210047Y-148159139D01*
X30292760Y-148041012D01*
X36299500Y-148041012D01*
X36299647Y-148043134D01*
X36299648Y-148043154D01*
X36305650Y-148129629D01*
X36354467Y-148337186D01*
X36429743Y-148507669D01*
X36440591Y-148532237D01*
X36561089Y-148708142D01*
X36711858Y-148858911D01*
X36887763Y-148979409D01*
X36978376Y-149019418D01*
X37082813Y-149065532D01*
X37290369Y-149114349D01*
X37290370Y-149114349D01*
X37378988Y-149120500D01*
X37381128Y-149120500D01*
X38818872Y-149120500D01*
X38821012Y-149120500D01*
X38909630Y-149114349D01*
X39013407Y-149089940D01*
X39117186Y-149065532D01*
X39169404Y-149042475D01*
X39312237Y-148979409D01*
X39488142Y-148858911D01*
X39638911Y-148708142D01*
X39759409Y-148532237D01*
X39845532Y-148337185D01*
X39894349Y-148129630D01*
X39900500Y-148041012D01*
X39900500Y-146598988D01*
X39894349Y-146510370D01*
X39894348Y-146510369D01*
X39845532Y-146302813D01*
X39765646Y-146121889D01*
X39759409Y-146107763D01*
X39638911Y-145931858D01*
X39488142Y-145781089D01*
X39312237Y-145660591D01*
X39287669Y-145649743D01*
X39117186Y-145574467D01*
X38909629Y-145525650D01*
X38823154Y-145519648D01*
X38823134Y-145519647D01*
X38821012Y-145519500D01*
X37378988Y-145519500D01*
X37376866Y-145519647D01*
X37376845Y-145519648D01*
X37290370Y-145525650D01*
X37082813Y-145574467D01*
X36887767Y-145660589D01*
X36887766Y-145660589D01*
X36887763Y-145660591D01*
X36802202Y-145719202D01*
X36711855Y-145781091D01*
X36561091Y-145931855D01*
X36561088Y-145931858D01*
X36561089Y-145931858D01*
X36440591Y-146107763D01*
X36440589Y-146107766D01*
X36440589Y-146107767D01*
X36354467Y-146302813D01*
X36305650Y-146510370D01*
X36299648Y-146596845D01*
X36299647Y-146596866D01*
X36299500Y-146598988D01*
X36299500Y-148041012D01*
X30292760Y-148041012D01*
X30340568Y-147972734D01*
X30436739Y-147766496D01*
X30495635Y-147546692D01*
X30515468Y-147320000D01*
X30495635Y-147093308D01*
X30436739Y-146873504D01*
X30340568Y-146667266D01*
X30291260Y-146596845D01*
X30210046Y-146480859D01*
X30049140Y-146319953D01*
X29862735Y-146189432D01*
X29656497Y-146093261D01*
X29436689Y-146034364D01*
X29210000Y-146014531D01*
X28983310Y-146034364D01*
X28763502Y-146093261D01*
X28557264Y-146189432D01*
X28370859Y-146319953D01*
X28209953Y-146480859D01*
X28079432Y-146667264D01*
X27983261Y-146873502D01*
X27924364Y-147093310D01*
X27904531Y-147320000D01*
X25800500Y-147320000D01*
X25800500Y-134619999D01*
X27804699Y-134619999D01*
X27823865Y-134851299D01*
X27823865Y-134851301D01*
X27823866Y-134851305D01*
X27880843Y-135076300D01*
X27974076Y-135288849D01*
X28101021Y-135483153D01*
X28196167Y-135586509D01*
X28227089Y-135649164D01*
X28219229Y-135718590D01*
X28175082Y-135772745D01*
X28148272Y-135786673D01*
X28067913Y-135816646D01*
X27952811Y-135902811D01*
X27866647Y-136017910D01*
X27816400Y-136152628D01*
X27810354Y-136208867D01*
X27810000Y-136215481D01*
X27810000Y-136910000D01*
X28834722Y-136910000D01*
X28786375Y-136993740D01*
X28756190Y-137125992D01*
X28766327Y-137261265D01*
X28815887Y-137387541D01*
X28833797Y-137410000D01*
X27810000Y-137410000D01*
X27810000Y-138104518D01*
X27810354Y-138111132D01*
X27816400Y-138167371D01*
X27866647Y-138302089D01*
X27952811Y-138417188D01*
X28067910Y-138503352D01*
X28202624Y-138553597D01*
X28228982Y-138556431D01*
X28293533Y-138583168D01*
X28333383Y-138640560D01*
X28335878Y-138710385D01*
X28303411Y-138767402D01*
X28209950Y-138860862D01*
X28079432Y-139047264D01*
X27983261Y-139253502D01*
X27924364Y-139473310D01*
X27904531Y-139699999D01*
X27924364Y-139926689D01*
X27983261Y-140146497D01*
X28079432Y-140352735D01*
X28209953Y-140539140D01*
X28370859Y-140700046D01*
X28557264Y-140830567D01*
X28557265Y-140830567D01*
X28557266Y-140830568D01*
X28763504Y-140926739D01*
X28983308Y-140985635D01*
X29210000Y-141005468D01*
X29436692Y-140985635D01*
X29656496Y-140926739D01*
X29862734Y-140830568D01*
X30049139Y-140700047D01*
X30210047Y-140539139D01*
X30340568Y-140352734D01*
X30436739Y-140146496D01*
X30495635Y-139926692D01*
X30515468Y-139700000D01*
X30495635Y-139473308D01*
X30436739Y-139253504D01*
X30340568Y-139047266D01*
X30210047Y-138860861D01*
X30210046Y-138860859D01*
X30116589Y-138767402D01*
X30083104Y-138706079D01*
X30088088Y-138636387D01*
X30129960Y-138580454D01*
X30191018Y-138556431D01*
X30217375Y-138553597D01*
X30352089Y-138503352D01*
X30467188Y-138417188D01*
X30553352Y-138302089D01*
X30603599Y-138167371D01*
X30609645Y-138111132D01*
X30610000Y-138104518D01*
X30610000Y-137410000D01*
X29585278Y-137410000D01*
X29633625Y-137326260D01*
X29663810Y-137194008D01*
X29653673Y-137058735D01*
X29604113Y-136932459D01*
X29586203Y-136910000D01*
X30610000Y-136910000D01*
X30610000Y-136215481D01*
X30609645Y-136208867D01*
X30603599Y-136152628D01*
X30587700Y-136110000D01*
X30988970Y-136110000D01*
X30996383Y-136171050D01*
X31066010Y-136411426D01*
X31173291Y-136637520D01*
X31315456Y-136843479D01*
X31488815Y-137023965D01*
X31688884Y-137174308D01*
X31910472Y-137290607D01*
X32147856Y-137369857D01*
X32394870Y-137410000D01*
X32770000Y-137410000D01*
X32770000Y-136160000D01*
X33270000Y-136160000D01*
X33270000Y-137410000D01*
X33579985Y-137410000D01*
X33584945Y-137409800D01*
X33769445Y-137394905D01*
X34012435Y-137335013D01*
X34242664Y-137236922D01*
X34454179Y-137103167D01*
X34641500Y-136937216D01*
X34799774Y-136743365D01*
X34924903Y-136526635D01*
X35013647Y-136292639D01*
X35038684Y-136170000D01*
X36068970Y-136170000D01*
X36076383Y-136231050D01*
X36146010Y-136471426D01*
X36253291Y-136697520D01*
X36395456Y-136903479D01*
X36568815Y-137083965D01*
X36775366Y-137239178D01*
X36817135Y-137295188D01*
X36821992Y-137364889D01*
X36788395Y-137426151D01*
X36770952Y-137440608D01*
X36711857Y-137481089D01*
X36561091Y-137631855D01*
X36561088Y-137631858D01*
X36561089Y-137631858D01*
X36440591Y-137807763D01*
X36440589Y-137807766D01*
X36440589Y-137807767D01*
X36354467Y-138002813D01*
X36305650Y-138210370D01*
X36299648Y-138296845D01*
X36299647Y-138296866D01*
X36299500Y-138298988D01*
X36299500Y-139741012D01*
X36299647Y-139743134D01*
X36299648Y-139743154D01*
X36305650Y-139829629D01*
X36354467Y-140037186D01*
X36402733Y-140146496D01*
X36440591Y-140232237D01*
X36561089Y-140408142D01*
X36711858Y-140558911D01*
X36887763Y-140679409D01*
X36949289Y-140706575D01*
X37082813Y-140765532D01*
X37290369Y-140814349D01*
X37290370Y-140814349D01*
X37378988Y-140820500D01*
X37380825Y-140820500D01*
X37447104Y-140842481D01*
X37491004Y-140896837D01*
X37498547Y-140966298D01*
X37467340Y-141028811D01*
X37435512Y-141053467D01*
X37276490Y-141139526D01*
X37080259Y-141292259D01*
X37080256Y-141292261D01*
X37080256Y-141292262D01*
X36911836Y-141475215D01*
X36866499Y-141544607D01*
X36775825Y-141683395D01*
X36691801Y-141874953D01*
X36675937Y-141911119D01*
X36644348Y-142035861D01*
X36614891Y-142152183D01*
X36594356Y-142400000D01*
X36614891Y-142647816D01*
X36614891Y-142647819D01*
X36614892Y-142647821D01*
X36675937Y-142888881D01*
X36720960Y-142991523D01*
X36775825Y-143116604D01*
X36775827Y-143116607D01*
X36911836Y-143324785D01*
X37080256Y-143507738D01*
X37080259Y-143507740D01*
X37276485Y-143660470D01*
X37276487Y-143660471D01*
X37276491Y-143660474D01*
X37495190Y-143778828D01*
X37730386Y-143859571D01*
X37975665Y-143900500D01*
X38224335Y-143900500D01*
X38469614Y-143859571D01*
X38704810Y-143778828D01*
X38923509Y-143660474D01*
X39119744Y-143507738D01*
X39288164Y-143324785D01*
X39424173Y-143116607D01*
X39524063Y-142888881D01*
X39527578Y-142874999D01*
X43144531Y-142874999D01*
X43164364Y-143101689D01*
X43223261Y-143321497D01*
X43319432Y-143527735D01*
X43449953Y-143714140D01*
X43610859Y-143875046D01*
X43797264Y-144005567D01*
X43797265Y-144005567D01*
X43797266Y-144005568D01*
X44003504Y-144101739D01*
X44223308Y-144160635D01*
X44374436Y-144173857D01*
X44449999Y-144180468D01*
X44449999Y-144180467D01*
X44450000Y-144180468D01*
X44676692Y-144160635D01*
X44742815Y-144142917D01*
X44812664Y-144144578D01*
X44862591Y-144175010D01*
X45272518Y-144584937D01*
X45306003Y-144646260D01*
X45301019Y-144715952D01*
X45259147Y-144771885D01*
X45237243Y-144785000D01*
X45042168Y-144875966D01*
X44848598Y-145011505D01*
X44681505Y-145178598D01*
X44545965Y-145372170D01*
X44446097Y-145586336D01*
X44384936Y-145814592D01*
X44364340Y-146050000D01*
X44384936Y-146285407D01*
X44394193Y-146319953D01*
X44446097Y-146513663D01*
X44545965Y-146727830D01*
X44681505Y-146921401D01*
X44848599Y-147088495D01*
X45034160Y-147218426D01*
X45077783Y-147273002D01*
X45084976Y-147342501D01*
X45053454Y-147404855D01*
X45034159Y-147421575D01*
X44848595Y-147551508D01*
X44681505Y-147718598D01*
X44545965Y-147912170D01*
X44446097Y-148126336D01*
X44384936Y-148354592D01*
X44364340Y-148590000D01*
X44384936Y-148825407D01*
X44426201Y-148979409D01*
X44446097Y-149053663D01*
X44545965Y-149267830D01*
X44681505Y-149461401D01*
X44848599Y-149628495D01*
X45042170Y-149764035D01*
X45256337Y-149863903D01*
X45484592Y-149925063D01*
X45720000Y-149945659D01*
X45955408Y-149925063D01*
X46183663Y-149863903D01*
X46397830Y-149764035D01*
X46591401Y-149628495D01*
X46758495Y-149461401D01*
X46888426Y-149275839D01*
X46943002Y-149232216D01*
X47012500Y-149225022D01*
X47074855Y-149256545D01*
X47091571Y-149275837D01*
X47221505Y-149461401D01*
X47388599Y-149628495D01*
X47582170Y-149764035D01*
X47796337Y-149863903D01*
X48024591Y-149925063D01*
X48024592Y-149925063D01*
X48259999Y-149945659D01*
X48259999Y-149945658D01*
X48260000Y-149945659D01*
X48495408Y-149925063D01*
X48723663Y-149863903D01*
X48937830Y-149764035D01*
X49131401Y-149628495D01*
X49298495Y-149461401D01*
X49428426Y-149275839D01*
X49483002Y-149232216D01*
X49552500Y-149225022D01*
X49614855Y-149256545D01*
X49631571Y-149275837D01*
X49761505Y-149461401D01*
X49928599Y-149628495D01*
X50122170Y-149764035D01*
X50336337Y-149863903D01*
X50564591Y-149925063D01*
X50564592Y-149925063D01*
X50799999Y-149945659D01*
X50799999Y-149945658D01*
X50800000Y-149945659D01*
X51035408Y-149925063D01*
X51263663Y-149863903D01*
X51477830Y-149764035D01*
X51671401Y-149628495D01*
X51838495Y-149461401D01*
X51974035Y-149267830D01*
X52073903Y-149053663D01*
X52135063Y-148825408D01*
X52155659Y-148590000D01*
X52135063Y-148354592D01*
X52073903Y-148126337D01*
X52034115Y-148041012D01*
X56619500Y-148041012D01*
X56619647Y-148043134D01*
X56619648Y-148043154D01*
X56625650Y-148129629D01*
X56674467Y-148337186D01*
X56749743Y-148507669D01*
X56760591Y-148532237D01*
X56881089Y-148708142D01*
X57031858Y-148858911D01*
X57207763Y-148979409D01*
X57298376Y-149019418D01*
X57402813Y-149065532D01*
X57610370Y-149114349D01*
X57698988Y-149120500D01*
X57701128Y-149120500D01*
X59138872Y-149120500D01*
X59141012Y-149120500D01*
X59229630Y-149114349D01*
X59333407Y-149089940D01*
X59437186Y-149065532D01*
X59489404Y-149042475D01*
X59632237Y-148979409D01*
X59808142Y-148858911D01*
X59958911Y-148708142D01*
X60079409Y-148532237D01*
X60165532Y-148337185D01*
X60214349Y-148129630D01*
X60220500Y-148041012D01*
X66779500Y-148041012D01*
X66779647Y-148043134D01*
X66779648Y-148043154D01*
X66785650Y-148129629D01*
X66834467Y-148337186D01*
X66909743Y-148507669D01*
X66920591Y-148532237D01*
X67041089Y-148708142D01*
X67191858Y-148858911D01*
X67367763Y-148979409D01*
X67458376Y-149019418D01*
X67562813Y-149065532D01*
X67770369Y-149114348D01*
X67770370Y-149114349D01*
X67858988Y-149120500D01*
X67861128Y-149120500D01*
X69298872Y-149120500D01*
X69301012Y-149120500D01*
X69389630Y-149114349D01*
X69493407Y-149089940D01*
X69597186Y-149065532D01*
X69649404Y-149042475D01*
X69792237Y-148979409D01*
X69968142Y-148858911D01*
X70118911Y-148708142D01*
X70239409Y-148532237D01*
X70325532Y-148337185D01*
X70374349Y-148129630D01*
X70380500Y-148041012D01*
X70380500Y-146598988D01*
X70374349Y-146510370D01*
X70374349Y-146510369D01*
X70325532Y-146302813D01*
X70245646Y-146121889D01*
X70239409Y-146107763D01*
X70118911Y-145931858D01*
X69968142Y-145781089D01*
X69792237Y-145660591D01*
X69767669Y-145649743D01*
X69597186Y-145574467D01*
X69389629Y-145525650D01*
X69303154Y-145519648D01*
X69303134Y-145519647D01*
X69301012Y-145519500D01*
X67858988Y-145519500D01*
X67856866Y-145519647D01*
X67856845Y-145519648D01*
X67770370Y-145525650D01*
X67562813Y-145574467D01*
X67367767Y-145660589D01*
X67367766Y-145660589D01*
X67367763Y-145660591D01*
X67282202Y-145719202D01*
X67191855Y-145781091D01*
X67041091Y-145931855D01*
X67041088Y-145931858D01*
X67041089Y-145931858D01*
X66920591Y-146107763D01*
X66920589Y-146107766D01*
X66920589Y-146107767D01*
X66834467Y-146302813D01*
X66785650Y-146510370D01*
X66779648Y-146596845D01*
X66779647Y-146596866D01*
X66779500Y-146598988D01*
X66779500Y-148041012D01*
X60220500Y-148041012D01*
X60220500Y-146598988D01*
X60214349Y-146510370D01*
X60214348Y-146510369D01*
X60165532Y-146302813D01*
X60085646Y-146121889D01*
X60079409Y-146107763D01*
X59958911Y-145931858D01*
X59808142Y-145781089D01*
X59632237Y-145660591D01*
X59607669Y-145649743D01*
X59437186Y-145574467D01*
X59229629Y-145525650D01*
X59143154Y-145519648D01*
X59143134Y-145519647D01*
X59141012Y-145519500D01*
X57698988Y-145519500D01*
X57696866Y-145519647D01*
X57696845Y-145519648D01*
X57610370Y-145525650D01*
X57402813Y-145574467D01*
X57207767Y-145660589D01*
X57207766Y-145660589D01*
X57207763Y-145660591D01*
X57122202Y-145719202D01*
X57031855Y-145781091D01*
X56881091Y-145931855D01*
X56881088Y-145931858D01*
X56881089Y-145931858D01*
X56760591Y-146107763D01*
X56760589Y-146107766D01*
X56760589Y-146107767D01*
X56674467Y-146302813D01*
X56625650Y-146510370D01*
X56619648Y-146596845D01*
X56619647Y-146596866D01*
X56619500Y-146598988D01*
X56619500Y-148041012D01*
X52034115Y-148041012D01*
X51974035Y-147912171D01*
X51838495Y-147718599D01*
X51716181Y-147596285D01*
X51682696Y-147534962D01*
X51687680Y-147465270D01*
X51729552Y-147409337D01*
X51760528Y-147392422D01*
X51892089Y-147343352D01*
X52007188Y-147257188D01*
X52093352Y-147142089D01*
X52143599Y-147007371D01*
X52149645Y-146951132D01*
X52150000Y-146944518D01*
X52150000Y-146300000D01*
X51233686Y-146300000D01*
X51259493Y-146259844D01*
X51300000Y-146121889D01*
X51300000Y-145978111D01*
X51259493Y-145840156D01*
X51233686Y-145800000D01*
X52149999Y-145800000D01*
X52150000Y-145155481D01*
X52149645Y-145148867D01*
X52143599Y-145092628D01*
X52093352Y-144957910D01*
X52007188Y-144842811D01*
X51892089Y-144756647D01*
X51757371Y-144706400D01*
X51701132Y-144700354D01*
X51694518Y-144700000D01*
X51050000Y-144700000D01*
X51050000Y-145614498D01*
X50942315Y-145565320D01*
X50835763Y-145550000D01*
X50764237Y-145550000D01*
X50657685Y-145565320D01*
X50550000Y-145614498D01*
X50550000Y-144700000D01*
X49905482Y-144700000D01*
X49898867Y-144700354D01*
X49842628Y-144706400D01*
X49707910Y-144756647D01*
X49592811Y-144842811D01*
X49506646Y-144957913D01*
X49457576Y-145089472D01*
X49415705Y-145145405D01*
X49350240Y-145169821D01*
X49281967Y-145154969D01*
X49253714Y-145133818D01*
X49131401Y-145011505D01*
X49044091Y-144950370D01*
X48940632Y-144877927D01*
X48897008Y-144823351D01*
X48887817Y-144780238D01*
X48887561Y-144772072D01*
X48887500Y-144768187D01*
X48887500Y-144744414D01*
X48887500Y-144740524D01*
X48886995Y-144736526D01*
X48886077Y-144724868D01*
X48885307Y-144700354D01*
X48884701Y-144681058D01*
X48879082Y-144661718D01*
X48875139Y-144642680D01*
X48872616Y-144622707D01*
X48856483Y-144581960D01*
X48852699Y-144570907D01*
X48840468Y-144528809D01*
X48830220Y-144511480D01*
X48821659Y-144494004D01*
X48814253Y-144475297D01*
X48788490Y-144439837D01*
X48782077Y-144430074D01*
X48759763Y-144392343D01*
X48745526Y-144378106D01*
X48732887Y-144363308D01*
X48721061Y-144347030D01*
X48687294Y-144319096D01*
X48678653Y-144311233D01*
X47242420Y-142875000D01*
X50764531Y-142875000D01*
X50784364Y-143101689D01*
X50843261Y-143321497D01*
X50939432Y-143527735D01*
X51069953Y-143714140D01*
X51230859Y-143875046D01*
X51417264Y-144005567D01*
X51417265Y-144005567D01*
X51417266Y-144005568D01*
X51623504Y-144101739D01*
X51843308Y-144160635D01*
X51994436Y-144173857D01*
X52069999Y-144180468D01*
X52069999Y-144180467D01*
X52070000Y-144180468D01*
X52296692Y-144160635D01*
X52516496Y-144101739D01*
X52722734Y-144005568D01*
X52909139Y-143875047D01*
X53070047Y-143714139D01*
X53200568Y-143527734D01*
X53296739Y-143321496D01*
X53355635Y-143101692D01*
X53375468Y-142875000D01*
X53355635Y-142648308D01*
X53296739Y-142428504D01*
X53200568Y-142222266D01*
X53070047Y-142035861D01*
X53070046Y-142035859D01*
X52909140Y-141874953D01*
X52722735Y-141744432D01*
X52516497Y-141648261D01*
X52296689Y-141589364D01*
X52069999Y-141569531D01*
X51843310Y-141589364D01*
X51623502Y-141648261D01*
X51417264Y-141744432D01*
X51230859Y-141874953D01*
X51069953Y-142035859D01*
X50939432Y-142222264D01*
X50843261Y-142428502D01*
X50784364Y-142648310D01*
X50764531Y-142875000D01*
X47242420Y-142875000D01*
X45263253Y-140895834D01*
X45229768Y-140834511D01*
X45234752Y-140764819D01*
X45276624Y-140708886D01*
X45279789Y-140706593D01*
X45289139Y-140700047D01*
X45450047Y-140539139D01*
X45580568Y-140352734D01*
X45676739Y-140146496D01*
X45735635Y-139926692D01*
X45755468Y-139700000D01*
X45755468Y-139699999D01*
X50764531Y-139699999D01*
X50784364Y-139926689D01*
X50843261Y-140146497D01*
X50939432Y-140352735D01*
X51069953Y-140539140D01*
X51230859Y-140700046D01*
X51417264Y-140830567D01*
X51417265Y-140830567D01*
X51417266Y-140830568D01*
X51623504Y-140926739D01*
X51843308Y-140985635D01*
X51994435Y-140998856D01*
X52069999Y-141005468D01*
X52069999Y-141005467D01*
X52070000Y-141005468D01*
X52296692Y-140985635D01*
X52516496Y-140926739D01*
X52722734Y-140830568D01*
X52909139Y-140700047D01*
X53070047Y-140539139D01*
X53200568Y-140352734D01*
X53296739Y-140146496D01*
X53355635Y-139926692D01*
X53375468Y-139700000D01*
X53355635Y-139473308D01*
X53296739Y-139253504D01*
X53200568Y-139047266D01*
X53070047Y-138860861D01*
X53070046Y-138860859D01*
X52909140Y-138699953D01*
X52722735Y-138569432D01*
X52516497Y-138473261D01*
X52296689Y-138414364D01*
X52069999Y-138394531D01*
X51843310Y-138414364D01*
X51623502Y-138473261D01*
X51417264Y-138569432D01*
X51230859Y-138699953D01*
X51069953Y-138860859D01*
X50939432Y-139047264D01*
X50843261Y-139253502D01*
X50784364Y-139473310D01*
X50764531Y-139699999D01*
X45755468Y-139699999D01*
X45735635Y-139473308D01*
X45676739Y-139253504D01*
X45580568Y-139047266D01*
X45450047Y-138860861D01*
X45450046Y-138860859D01*
X45289140Y-138699953D01*
X45102735Y-138569432D01*
X44896497Y-138473261D01*
X44676689Y-138414364D01*
X44449999Y-138394531D01*
X44223310Y-138414364D01*
X44003502Y-138473261D01*
X43797264Y-138569432D01*
X43610859Y-138699953D01*
X43449953Y-138860859D01*
X43319432Y-139047264D01*
X43223261Y-139253502D01*
X43164364Y-139473310D01*
X43144531Y-139700000D01*
X43164364Y-139926689D01*
X43223261Y-140146497D01*
X43319432Y-140352735D01*
X43449953Y-140539140D01*
X43610859Y-140700046D01*
X43767405Y-140809659D01*
X43811030Y-140864235D01*
X43820221Y-140907339D01*
X43822439Y-140977916D01*
X43822500Y-140981811D01*
X43822500Y-141009476D01*
X43822988Y-141013343D01*
X43822989Y-141013354D01*
X43823007Y-141013494D01*
X43823921Y-141025118D01*
X43825298Y-141068943D01*
X43830916Y-141088278D01*
X43834861Y-141107328D01*
X43837383Y-141127293D01*
X43853519Y-141168049D01*
X43857302Y-141179098D01*
X43869530Y-141221187D01*
X43869531Y-141221189D01*
X43869532Y-141221191D01*
X43879779Y-141238517D01*
X43888338Y-141255989D01*
X43895747Y-141274705D01*
X43921511Y-141310165D01*
X43927925Y-141319929D01*
X43950237Y-141357656D01*
X43964475Y-141371894D01*
X43977108Y-141386686D01*
X43988936Y-141402966D01*
X44022705Y-141430902D01*
X44031346Y-141438765D01*
X44040143Y-141447562D01*
X44073628Y-141508885D01*
X44068644Y-141578577D01*
X44026772Y-141634510D01*
X44004867Y-141647625D01*
X43797264Y-141744432D01*
X43610859Y-141874953D01*
X43449953Y-142035859D01*
X43319432Y-142222264D01*
X43223261Y-142428502D01*
X43164364Y-142648310D01*
X43144531Y-142874999D01*
X39527578Y-142874999D01*
X39585108Y-142647821D01*
X39605643Y-142400000D01*
X39585108Y-142152179D01*
X39524063Y-141911119D01*
X39424173Y-141683393D01*
X39288164Y-141475215D01*
X39119744Y-141292262D01*
X39050685Y-141238511D01*
X38923514Y-141139529D01*
X38923510Y-141139526D01*
X38923509Y-141139526D01*
X38764486Y-141053467D01*
X38714897Y-141004248D01*
X38699789Y-140936031D01*
X38723960Y-140870476D01*
X38779735Y-140828395D01*
X38819148Y-140820500D01*
X38821012Y-140820500D01*
X38909630Y-140814349D01*
X39013407Y-140789940D01*
X39117186Y-140765532D01*
X39169404Y-140742475D01*
X39312237Y-140679409D01*
X39488142Y-140558911D01*
X39638911Y-140408142D01*
X39759409Y-140232237D01*
X39845532Y-140037185D01*
X39894349Y-139829630D01*
X39900500Y-139741012D01*
X39900500Y-138298988D01*
X39894349Y-138210370D01*
X39845532Y-138002815D01*
X39845532Y-138002813D01*
X39799418Y-137898376D01*
X39759409Y-137807763D01*
X39638911Y-137631858D01*
X39488142Y-137481089D01*
X39488141Y-137481088D01*
X39488140Y-137481087D01*
X39424295Y-137437352D01*
X39380112Y-137383226D01*
X39372206Y-137313805D01*
X39403087Y-137251130D01*
X39428098Y-137230249D01*
X39534183Y-137163164D01*
X39721500Y-136997216D01*
X39879774Y-136803365D01*
X40004903Y-136586635D01*
X40093647Y-136352639D01*
X40130933Y-136170000D01*
X38766111Y-136170000D01*
X38805610Y-136145543D01*
X38873201Y-136056038D01*
X38903895Y-135948160D01*
X38893546Y-135836479D01*
X38843552Y-135736078D01*
X38771069Y-135670000D01*
X40131030Y-135670000D01*
X40123616Y-135608949D01*
X40053989Y-135368573D01*
X39946708Y-135142479D01*
X39804543Y-134936520D01*
X39631184Y-134756034D01*
X39431115Y-134605691D01*
X39209527Y-134489392D01*
X38972143Y-134410142D01*
X38725130Y-134370000D01*
X38350000Y-134370000D01*
X38350000Y-135620000D01*
X37850000Y-135620000D01*
X37850000Y-134370000D01*
X37540015Y-134370000D01*
X37535054Y-134370199D01*
X37350554Y-134385094D01*
X37107564Y-134444986D01*
X36877335Y-134543077D01*
X36665820Y-134676832D01*
X36478499Y-134842783D01*
X36320225Y-135036634D01*
X36195096Y-135253364D01*
X36106352Y-135487360D01*
X36069067Y-135670000D01*
X37433889Y-135670000D01*
X37394390Y-135694457D01*
X37326799Y-135783962D01*
X37296105Y-135891840D01*
X37306454Y-136003521D01*
X37356448Y-136103922D01*
X37428931Y-136170000D01*
X36068970Y-136170000D01*
X35038684Y-136170000D01*
X35050933Y-136110000D01*
X33686111Y-136110000D01*
X33725610Y-136085543D01*
X33793201Y-135996038D01*
X33823895Y-135888160D01*
X33813546Y-135776479D01*
X33763552Y-135676078D01*
X33691069Y-135610000D01*
X35051030Y-135610000D01*
X35043616Y-135548949D01*
X34973989Y-135308573D01*
X34866708Y-135082479D01*
X34724543Y-134876520D01*
X34551184Y-134696034D01*
X34344212Y-134540504D01*
X34302443Y-134484494D01*
X34297586Y-134414793D01*
X34331184Y-134353531D01*
X34348627Y-134339073D01*
X34407823Y-134298522D01*
X34558522Y-134147823D01*
X34678971Y-133971988D01*
X34765056Y-133777026D01*
X34813852Y-133569560D01*
X34819851Y-133483127D01*
X34820000Y-133478844D01*
X34820000Y-133010000D01*
X33686111Y-133010000D01*
X33725610Y-132985543D01*
X33793201Y-132896038D01*
X33823895Y-132788160D01*
X33813546Y-132676479D01*
X33763552Y-132576078D01*
X33691069Y-132510000D01*
X34819999Y-132510000D01*
X34819999Y-132041157D01*
X34819851Y-132036899D01*
X34813851Y-131950433D01*
X34765056Y-131742973D01*
X34678971Y-131548011D01*
X34558522Y-131372176D01*
X34407823Y-131221477D01*
X34231988Y-131101028D01*
X34037026Y-131014943D01*
X33829560Y-130966147D01*
X33743130Y-130960148D01*
X33738329Y-130959982D01*
X33672014Y-130937982D01*
X33628120Y-130883621D01*
X33620584Y-130814158D01*
X33651798Y-130751649D01*
X33683617Y-130727003D01*
X33843509Y-130640474D01*
X34039744Y-130487738D01*
X34208164Y-130304785D01*
X34344173Y-130096607D01*
X34444063Y-129868881D01*
X34505108Y-129627821D01*
X34525643Y-129380000D01*
X34505108Y-129132179D01*
X34444063Y-128891119D01*
X34344173Y-128663393D01*
X34208164Y-128455215D01*
X34039744Y-128272262D01*
X34017612Y-128255036D01*
X33843514Y-128119529D01*
X33843510Y-128119526D01*
X33843509Y-128119526D01*
X33624810Y-128001172D01*
X33624806Y-128001170D01*
X33624805Y-128001170D01*
X33389615Y-127920429D01*
X33144335Y-127879500D01*
X32895665Y-127879500D01*
X32650384Y-127920429D01*
X32415194Y-128001170D01*
X32196485Y-128119529D01*
X32000259Y-128272259D01*
X31831837Y-128455214D01*
X31695825Y-128663395D01*
X31605780Y-128868678D01*
X31595937Y-128891119D01*
X31534892Y-129132179D01*
X31534891Y-129132183D01*
X31514356Y-129380000D01*
X31534891Y-129627816D01*
X31534891Y-129627819D01*
X31534892Y-129627821D01*
X31595937Y-129868881D01*
X31627091Y-129939904D01*
X31695825Y-130096604D01*
X31695827Y-130096607D01*
X31831836Y-130304785D01*
X32000256Y-130487738D01*
X32000259Y-130487740D01*
X32196485Y-130640470D01*
X32196487Y-130640471D01*
X32196491Y-130640474D01*
X32356385Y-130727004D01*
X32405974Y-130776223D01*
X32421082Y-130844439D01*
X32396912Y-130909995D01*
X32341136Y-130952076D01*
X32301673Y-130959983D01*
X32296896Y-130960148D01*
X32210433Y-130966148D01*
X32002973Y-131014943D01*
X31808011Y-131101028D01*
X31632176Y-131221477D01*
X31481477Y-131372176D01*
X31361028Y-131548011D01*
X31274943Y-131742973D01*
X31226147Y-131950439D01*
X31220148Y-132036872D01*
X31220000Y-132041155D01*
X31220000Y-132510000D01*
X32353889Y-132510000D01*
X32314390Y-132534457D01*
X32246799Y-132623962D01*
X32216105Y-132731840D01*
X32226454Y-132843521D01*
X32276448Y-132943922D01*
X32348931Y-133010000D01*
X31220001Y-133010000D01*
X31220001Y-133478842D01*
X31220148Y-133483100D01*
X31226148Y-133569566D01*
X31274943Y-133777026D01*
X31361028Y-133971988D01*
X31481477Y-134147823D01*
X31632176Y-134298522D01*
X31696164Y-134342355D01*
X31740347Y-134396481D01*
X31748253Y-134465902D01*
X31717372Y-134528577D01*
X31692362Y-134549458D01*
X31585817Y-134616834D01*
X31398499Y-134782783D01*
X31240225Y-134976634D01*
X31115096Y-135193364D01*
X31026352Y-135427360D01*
X30989067Y-135610000D01*
X32353889Y-135610000D01*
X32314390Y-135634457D01*
X32246799Y-135723962D01*
X32216105Y-135831840D01*
X32226454Y-135943521D01*
X32276448Y-136043922D01*
X32348931Y-136110000D01*
X30988970Y-136110000D01*
X30587700Y-136110000D01*
X30553352Y-136017910D01*
X30467188Y-135902811D01*
X30352088Y-135816647D01*
X30271728Y-135786674D01*
X30215794Y-135744802D01*
X30191378Y-135679337D01*
X30206230Y-135611065D01*
X30223826Y-135586516D01*
X30318979Y-135483153D01*
X30445924Y-135288849D01*
X30539157Y-135076300D01*
X30596134Y-134851305D01*
X30615300Y-134620000D01*
X30596134Y-134388695D01*
X30539157Y-134163700D01*
X30445924Y-133951151D01*
X30318979Y-133756847D01*
X30161784Y-133586087D01*
X29978626Y-133443530D01*
X29774503Y-133333064D01*
X29774499Y-133333062D01*
X29774498Y-133333062D01*
X29554984Y-133257702D01*
X29383282Y-133229050D01*
X29326049Y-133219500D01*
X29093951Y-133219500D01*
X29048164Y-133227140D01*
X28865015Y-133257702D01*
X28645501Y-133333062D01*
X28441372Y-133443531D01*
X28258215Y-133586087D01*
X28101020Y-133756848D01*
X27974076Y-133951150D01*
X27880844Y-134163696D01*
X27880842Y-134163700D01*
X27880843Y-134163700D01*
X27828601Y-134370000D01*
X27823865Y-134388700D01*
X27804699Y-134619999D01*
X25800500Y-134619999D01*
X25800500Y-125181012D01*
X31219500Y-125181012D01*
X31219647Y-125183134D01*
X31219648Y-125183154D01*
X31225650Y-125269629D01*
X31274467Y-125477186D01*
X31349743Y-125647669D01*
X31360591Y-125672237D01*
X31481089Y-125848142D01*
X31631858Y-125998911D01*
X31807763Y-126119409D01*
X31898376Y-126159418D01*
X32002813Y-126205532D01*
X32210370Y-126254349D01*
X32298988Y-126260500D01*
X32301128Y-126260500D01*
X33738872Y-126260500D01*
X33741012Y-126260500D01*
X33829630Y-126254349D01*
X33933407Y-126229940D01*
X34037186Y-126205532D01*
X34089404Y-126182475D01*
X34232237Y-126119409D01*
X34408142Y-125998911D01*
X34558911Y-125848142D01*
X34679409Y-125672237D01*
X34765532Y-125477185D01*
X34814349Y-125269630D01*
X34820500Y-125181012D01*
X41379500Y-125181012D01*
X41379647Y-125183134D01*
X41379648Y-125183154D01*
X41385650Y-125269629D01*
X41434467Y-125477186D01*
X41509743Y-125647669D01*
X41520591Y-125672237D01*
X41641089Y-125848142D01*
X41791858Y-125998911D01*
X41967763Y-126119409D01*
X42058376Y-126159418D01*
X42162813Y-126205532D01*
X42370369Y-126254349D01*
X42370370Y-126254349D01*
X42458988Y-126260500D01*
X42461128Y-126260500D01*
X43898872Y-126260500D01*
X43901012Y-126260500D01*
X43989630Y-126254349D01*
X44093407Y-126229940D01*
X44197186Y-126205532D01*
X44249404Y-126182475D01*
X44392237Y-126119409D01*
X44568142Y-125998911D01*
X44718911Y-125848142D01*
X44839409Y-125672237D01*
X44925532Y-125477185D01*
X44974349Y-125269630D01*
X44980500Y-125181012D01*
X44980500Y-123738988D01*
X44974349Y-123650370D01*
X44939576Y-123502524D01*
X44925532Y-123442813D01*
X44879418Y-123338376D01*
X44839409Y-123247763D01*
X44718911Y-123071858D01*
X44568142Y-122921089D01*
X44392237Y-122800591D01*
X44351260Y-122782498D01*
X44197186Y-122714467D01*
X43989629Y-122665650D01*
X43903154Y-122659648D01*
X43903134Y-122659647D01*
X43901012Y-122659500D01*
X42458988Y-122659500D01*
X42456866Y-122659647D01*
X42456845Y-122659648D01*
X42370370Y-122665650D01*
X42162813Y-122714467D01*
X41967767Y-122800589D01*
X41967766Y-122800589D01*
X41967763Y-122800591D01*
X41804034Y-122912747D01*
X41791855Y-122921091D01*
X41641091Y-123071855D01*
X41641088Y-123071858D01*
X41641089Y-123071858D01*
X41520591Y-123247763D01*
X41520589Y-123247766D01*
X41520589Y-123247767D01*
X41434467Y-123442813D01*
X41385650Y-123650370D01*
X41379648Y-123736845D01*
X41379647Y-123736866D01*
X41379500Y-123738988D01*
X41379500Y-125181012D01*
X34820500Y-125181012D01*
X34820500Y-123738988D01*
X34814349Y-123650370D01*
X34779576Y-123502524D01*
X34765532Y-123442813D01*
X34719418Y-123338376D01*
X34679409Y-123247763D01*
X34558911Y-123071858D01*
X34408142Y-122921089D01*
X34232237Y-122800591D01*
X34191260Y-122782498D01*
X34037186Y-122714467D01*
X33829629Y-122665650D01*
X33743154Y-122659648D01*
X33743134Y-122659647D01*
X33741012Y-122659500D01*
X32298988Y-122659500D01*
X32296866Y-122659647D01*
X32296845Y-122659648D01*
X32210370Y-122665650D01*
X32002813Y-122714467D01*
X31807767Y-122800589D01*
X31807766Y-122800589D01*
X31807763Y-122800591D01*
X31644034Y-122912747D01*
X31631855Y-122921091D01*
X31481091Y-123071855D01*
X31481088Y-123071858D01*
X31481089Y-123071858D01*
X31360591Y-123247763D01*
X31360589Y-123247766D01*
X31360589Y-123247767D01*
X31274467Y-123442813D01*
X31225650Y-123650370D01*
X31219648Y-123736845D01*
X31219647Y-123736866D01*
X31219500Y-123738988D01*
X31219500Y-125181012D01*
X25800500Y-125181012D01*
X25800500Y-114300000D01*
X34204340Y-114300000D01*
X34224936Y-114535407D01*
X34250496Y-114630798D01*
X34286097Y-114763663D01*
X34385965Y-114977830D01*
X34521505Y-115171401D01*
X34688599Y-115338495D01*
X34882170Y-115474035D01*
X35096337Y-115573903D01*
X35324592Y-115635063D01*
X35559999Y-115655659D01*
X35559999Y-115655658D01*
X35560000Y-115655659D01*
X35795408Y-115635063D01*
X36023663Y-115573903D01*
X36237830Y-115474035D01*
X36431401Y-115338495D01*
X36598495Y-115171401D01*
X36728426Y-114985839D01*
X36783002Y-114942216D01*
X36852500Y-114935022D01*
X36914855Y-114966545D01*
X36931571Y-114985837D01*
X37061505Y-115171401D01*
X37228599Y-115338495D01*
X37422170Y-115474035D01*
X37636337Y-115573903D01*
X37864592Y-115635063D01*
X38099999Y-115655659D01*
X38099999Y-115655658D01*
X38100000Y-115655659D01*
X38335408Y-115635063D01*
X38563663Y-115573903D01*
X38777830Y-115474035D01*
X38971401Y-115338495D01*
X39138495Y-115171401D01*
X39268426Y-114985839D01*
X39323002Y-114942216D01*
X39392500Y-114935022D01*
X39454855Y-114966545D01*
X39471571Y-114985837D01*
X39601505Y-115171401D01*
X39768599Y-115338495D01*
X39962170Y-115474035D01*
X40176337Y-115573903D01*
X40404592Y-115635063D01*
X40640000Y-115655659D01*
X40875408Y-115635063D01*
X41103663Y-115573903D01*
X41317830Y-115474035D01*
X41511401Y-115338495D01*
X41678495Y-115171401D01*
X41814035Y-114977830D01*
X41913903Y-114763663D01*
X41975063Y-114535408D01*
X41995659Y-114300000D01*
X41975063Y-114064592D01*
X41913903Y-113836337D01*
X41814035Y-113622171D01*
X41678495Y-113428599D01*
X41511401Y-113261505D01*
X41317830Y-113125965D01*
X41103663Y-113026097D01*
X41042502Y-113009709D01*
X40875407Y-112964936D01*
X40640000Y-112944340D01*
X40404592Y-112964936D01*
X40176336Y-113026097D01*
X39962170Y-113125965D01*
X39768598Y-113261505D01*
X39601505Y-113428598D01*
X39471575Y-113614159D01*
X39416998Y-113657784D01*
X39347500Y-113664978D01*
X39285145Y-113633455D01*
X39268425Y-113614159D01*
X39138494Y-113428598D01*
X38971404Y-113261508D01*
X38971401Y-113261505D01*
X38777830Y-113125965D01*
X38563663Y-113026097D01*
X38502501Y-113009709D01*
X38335407Y-112964936D01*
X38099999Y-112944340D01*
X37864592Y-112964936D01*
X37636336Y-113026097D01*
X37422170Y-113125965D01*
X37228598Y-113261505D01*
X37061505Y-113428598D01*
X36931575Y-113614159D01*
X36876998Y-113657784D01*
X36807500Y-113664978D01*
X36745145Y-113633455D01*
X36728425Y-113614159D01*
X36598494Y-113428598D01*
X36431404Y-113261508D01*
X36431401Y-113261505D01*
X36237830Y-113125965D01*
X36023663Y-113026097D01*
X35962502Y-113009709D01*
X35795407Y-112964936D01*
X35559999Y-112944340D01*
X35324592Y-112964936D01*
X35096336Y-113026097D01*
X34882170Y-113125965D01*
X34688598Y-113261505D01*
X34521505Y-113428598D01*
X34385965Y-113622170D01*
X34286097Y-113836336D01*
X34224936Y-114064592D01*
X34204340Y-114300000D01*
X25800500Y-114300000D01*
X25800500Y-96520000D01*
X26584340Y-96520000D01*
X26604936Y-96755407D01*
X26649709Y-96922501D01*
X26666097Y-96983663D01*
X26765965Y-97197830D01*
X26901505Y-97391401D01*
X27068599Y-97558495D01*
X27259624Y-97692252D01*
X27303248Y-97746828D01*
X27312500Y-97793826D01*
X27312500Y-106597033D01*
X27310229Y-106617599D01*
X27312439Y-106687917D01*
X27312500Y-106691811D01*
X27312500Y-106719476D01*
X27312988Y-106723343D01*
X27312989Y-106723354D01*
X27313007Y-106723494D01*
X27313921Y-106735118D01*
X27315298Y-106778943D01*
X27320916Y-106798278D01*
X27324861Y-106817328D01*
X27327383Y-106837293D01*
X27343519Y-106878049D01*
X27347302Y-106889098D01*
X27359530Y-106931187D01*
X27359531Y-106931189D01*
X27359532Y-106931191D01*
X27369779Y-106948517D01*
X27378338Y-106965989D01*
X27385747Y-106984705D01*
X27411511Y-107020165D01*
X27417925Y-107029929D01*
X27440237Y-107067656D01*
X27454475Y-107081894D01*
X27467108Y-107096686D01*
X27478936Y-107112966D01*
X27512705Y-107140902D01*
X27521346Y-107148765D01*
X32517624Y-112145043D01*
X32530562Y-112161192D01*
X32581846Y-112209351D01*
X32584643Y-112212062D01*
X32604204Y-112231623D01*
X32607395Y-112234098D01*
X32616280Y-112241686D01*
X32648230Y-112271691D01*
X32648232Y-112271692D01*
X32648233Y-112271693D01*
X32665878Y-112281393D01*
X32682135Y-112292072D01*
X32698038Y-112304408D01*
X32738262Y-112321814D01*
X32748743Y-112326948D01*
X32787166Y-112348072D01*
X32806217Y-112352963D01*
X32806660Y-112353077D01*
X32825069Y-112359380D01*
X32837214Y-112364635D01*
X32843542Y-112367374D01*
X32886851Y-112374233D01*
X32898258Y-112376595D01*
X32940728Y-112387500D01*
X32960859Y-112387500D01*
X32980256Y-112389026D01*
X33000133Y-112392175D01*
X33040208Y-112388386D01*
X33043770Y-112388050D01*
X33055439Y-112387500D01*
X50488719Y-112387500D01*
X50555758Y-112407185D01*
X50576400Y-112423819D01*
X54026400Y-115873819D01*
X54059885Y-115935142D01*
X54054901Y-116004834D01*
X54013029Y-116060767D01*
X53947565Y-116085184D01*
X53938719Y-116085500D01*
X53403999Y-116085500D01*
X53386029Y-116084191D01*
X53368974Y-116081693D01*
X53362093Y-116080685D01*
X53362092Y-116080685D01*
X53312452Y-116085028D01*
X53301645Y-116085500D01*
X53296059Y-116085500D01*
X53292485Y-116085917D01*
X53292479Y-116085918D01*
X53265111Y-116089116D01*
X53261529Y-116089482D01*
X53185176Y-116096162D01*
X53165962Y-116100422D01*
X53093926Y-116126640D01*
X53090524Y-116127822D01*
X53017814Y-116151917D01*
X53000088Y-116160498D01*
X52936067Y-116202604D01*
X52933030Y-116204539D01*
X52867816Y-116244765D01*
X52852543Y-116257206D01*
X52799944Y-116312956D01*
X52797433Y-116315541D01*
X46501741Y-122611233D01*
X46488112Y-122623012D01*
X46468707Y-122637459D01*
X46436675Y-122675632D01*
X46429391Y-122683582D01*
X46427985Y-122684988D01*
X46427963Y-122685012D01*
X46425417Y-122687559D01*
X46423181Y-122690386D01*
X46423179Y-122690389D01*
X46406089Y-122712002D01*
X46403814Y-122714794D01*
X46354554Y-122773500D01*
X46343972Y-122790112D01*
X46311581Y-122859571D01*
X46310011Y-122862813D01*
X46275632Y-122931269D01*
X46269164Y-122949878D01*
X46253671Y-123024911D01*
X46252891Y-123028430D01*
X46235218Y-123102998D01*
X46233218Y-123122576D01*
X46235448Y-123199194D01*
X46235500Y-123202800D01*
X46235500Y-129176113D01*
X46215815Y-129243152D01*
X46199181Y-129263794D01*
X44431591Y-131031383D01*
X44370268Y-131064868D01*
X44300576Y-131059884D01*
X44293825Y-131057137D01*
X44197184Y-131014467D01*
X43989629Y-130965650D01*
X43903160Y-130959649D01*
X43903157Y-130959648D01*
X43901012Y-130959500D01*
X43899160Y-130959500D01*
X43832879Y-130937507D01*
X43788988Y-130883144D01*
X43781455Y-130813682D01*
X43812672Y-130751174D01*
X43844484Y-130726533D01*
X44003509Y-130640474D01*
X44199744Y-130487738D01*
X44368164Y-130304785D01*
X44504173Y-130096607D01*
X44604063Y-129868881D01*
X44665108Y-129627821D01*
X44685643Y-129380000D01*
X44665108Y-129132179D01*
X44604063Y-128891119D01*
X44504173Y-128663393D01*
X44368164Y-128455215D01*
X44199744Y-128272262D01*
X44177612Y-128255036D01*
X44003514Y-128119529D01*
X44003510Y-128119526D01*
X44003509Y-128119526D01*
X43784810Y-128001172D01*
X43784806Y-128001170D01*
X43784805Y-128001170D01*
X43549615Y-127920429D01*
X43304335Y-127879500D01*
X43055665Y-127879500D01*
X42810384Y-127920429D01*
X42575194Y-128001170D01*
X42356485Y-128119529D01*
X42160259Y-128272259D01*
X41991837Y-128455214D01*
X41855825Y-128663395D01*
X41765780Y-128868678D01*
X41755937Y-128891119D01*
X41694892Y-129132179D01*
X41694891Y-129132183D01*
X41674356Y-129380000D01*
X41694891Y-129627816D01*
X41694891Y-129627819D01*
X41694892Y-129627821D01*
X41755937Y-129868881D01*
X41787091Y-129939904D01*
X41855825Y-130096604D01*
X41855827Y-130096607D01*
X41991836Y-130304785D01*
X42160256Y-130487738D01*
X42160259Y-130487740D01*
X42356485Y-130640470D01*
X42356487Y-130640471D01*
X42356491Y-130640474D01*
X42515513Y-130726532D01*
X42565102Y-130775751D01*
X42580210Y-130843967D01*
X42556040Y-130909523D01*
X42500264Y-130951604D01*
X42460862Y-130959500D01*
X42458988Y-130959500D01*
X42456844Y-130959648D01*
X42456838Y-130959649D01*
X42370370Y-130965650D01*
X42162813Y-131014467D01*
X41967767Y-131100589D01*
X41967766Y-131100589D01*
X41967763Y-131100591D01*
X41863566Y-131171968D01*
X41791855Y-131221091D01*
X41641091Y-131371855D01*
X41641088Y-131371858D01*
X41641089Y-131371858D01*
X41520591Y-131547763D01*
X41520589Y-131547766D01*
X41520589Y-131547767D01*
X41434467Y-131742813D01*
X41385650Y-131950370D01*
X41379648Y-132036845D01*
X41379647Y-132036866D01*
X41379500Y-132038988D01*
X41379500Y-133481012D01*
X41379647Y-133483127D01*
X41379648Y-133483154D01*
X41385650Y-133569629D01*
X41434467Y-133777186D01*
X41509743Y-133947669D01*
X41520591Y-133972237D01*
X41641089Y-134148142D01*
X41791858Y-134298911D01*
X41855705Y-134342647D01*
X41899888Y-134396772D01*
X41907794Y-134466193D01*
X41876914Y-134528868D01*
X41851902Y-134549749D01*
X41745820Y-134616831D01*
X41558499Y-134782783D01*
X41400225Y-134976634D01*
X41275096Y-135193364D01*
X41186352Y-135427360D01*
X41149067Y-135610000D01*
X42513889Y-135610000D01*
X42474390Y-135634457D01*
X42406799Y-135723962D01*
X42376105Y-135831840D01*
X42386454Y-135943521D01*
X42436448Y-136043922D01*
X42508931Y-136110000D01*
X41148970Y-136110000D01*
X41156383Y-136171050D01*
X41226010Y-136411426D01*
X41333291Y-136637520D01*
X41475456Y-136843479D01*
X41648815Y-137023965D01*
X41848884Y-137174308D01*
X42070472Y-137290607D01*
X42307856Y-137369857D01*
X42554870Y-137410000D01*
X42930000Y-137410000D01*
X42930000Y-136160000D01*
X43430000Y-136160000D01*
X43430000Y-137410000D01*
X43739985Y-137410000D01*
X43744945Y-137409800D01*
X43929445Y-137394905D01*
X44172435Y-137335013D01*
X44402664Y-137236922D01*
X44614179Y-137103167D01*
X44801500Y-136937216D01*
X44959774Y-136743365D01*
X45084903Y-136526635D01*
X45173647Y-136292639D01*
X45210933Y-136110000D01*
X43846111Y-136110000D01*
X43885610Y-136085543D01*
X43953201Y-135996038D01*
X43983895Y-135888160D01*
X43973546Y-135776479D01*
X43923552Y-135676078D01*
X43851069Y-135610000D01*
X45211030Y-135610000D01*
X45203616Y-135548949D01*
X45133989Y-135308573D01*
X45026708Y-135082479D01*
X44884543Y-134876520D01*
X44711184Y-134696034D01*
X44610001Y-134620000D01*
X45584699Y-134620000D01*
X45603865Y-134851299D01*
X45603865Y-134851301D01*
X45603866Y-134851305D01*
X45660843Y-135076300D01*
X45754076Y-135288849D01*
X45881021Y-135483153D01*
X45976167Y-135586509D01*
X46007089Y-135649164D01*
X45999229Y-135718590D01*
X45955082Y-135772745D01*
X45928272Y-135786673D01*
X45847913Y-135816646D01*
X45732811Y-135902811D01*
X45646647Y-136017910D01*
X45596400Y-136152628D01*
X45590354Y-136208867D01*
X45590000Y-136215481D01*
X45590000Y-136910000D01*
X46614722Y-136910000D01*
X46566375Y-136993740D01*
X46536190Y-137125992D01*
X46546327Y-137261265D01*
X46595887Y-137387541D01*
X46613797Y-137410000D01*
X45590000Y-137410000D01*
X45590000Y-138104518D01*
X45590354Y-138111132D01*
X45596400Y-138167371D01*
X45646647Y-138302089D01*
X45732811Y-138417188D01*
X45847910Y-138503352D01*
X45982628Y-138553599D01*
X46038867Y-138559645D01*
X46045482Y-138560000D01*
X46740000Y-138560000D01*
X46740000Y-137534189D01*
X46792547Y-137570016D01*
X46922173Y-137610000D01*
X47023724Y-137610000D01*
X47124138Y-137594865D01*
X47240000Y-137539068D01*
X47240000Y-138560000D01*
X47934518Y-138560000D01*
X47941132Y-138559645D01*
X47997371Y-138553599D01*
X48132089Y-138503352D01*
X48247188Y-138417188D01*
X48333352Y-138302089D01*
X48383599Y-138167371D01*
X48389645Y-138111132D01*
X48390000Y-138104518D01*
X48390000Y-137410000D01*
X47365278Y-137410000D01*
X47413625Y-137326260D01*
X47443810Y-137194008D01*
X47433673Y-137058735D01*
X47384113Y-136932459D01*
X47366203Y-136910000D01*
X48390000Y-136910000D01*
X48390000Y-136215481D01*
X48389645Y-136208867D01*
X48383599Y-136152628D01*
X48333352Y-136017910D01*
X48247188Y-135902811D01*
X48132088Y-135816647D01*
X48051728Y-135786674D01*
X47995794Y-135744802D01*
X47971378Y-135679337D01*
X47986230Y-135611065D01*
X48003826Y-135586516D01*
X48098979Y-135483153D01*
X48225924Y-135288849D01*
X48319157Y-135076300D01*
X48376134Y-134851305D01*
X48395300Y-134620000D01*
X53204699Y-134620000D01*
X53223865Y-134851299D01*
X53223865Y-134851301D01*
X53223866Y-134851305D01*
X53280843Y-135076300D01*
X53374076Y-135288849D01*
X53501021Y-135483153D01*
X53596167Y-135586509D01*
X53627089Y-135649164D01*
X53619229Y-135718590D01*
X53575082Y-135772745D01*
X53548272Y-135786673D01*
X53467913Y-135816646D01*
X53352811Y-135902811D01*
X53266647Y-136017910D01*
X53216400Y-136152628D01*
X53210354Y-136208867D01*
X53210000Y-136215481D01*
X53210000Y-136910000D01*
X54234722Y-136910000D01*
X54186375Y-136993740D01*
X54156190Y-137125992D01*
X54166327Y-137261265D01*
X54215887Y-137387541D01*
X54233797Y-137410000D01*
X53210000Y-137410000D01*
X53210000Y-138104518D01*
X53210354Y-138111132D01*
X53216400Y-138167371D01*
X53266647Y-138302089D01*
X53352811Y-138417188D01*
X53467910Y-138503352D01*
X53602628Y-138553599D01*
X53658867Y-138559645D01*
X53665482Y-138560000D01*
X54359999Y-138560000D01*
X54359999Y-137534189D01*
X54412547Y-137570016D01*
X54542173Y-137610000D01*
X54643724Y-137610000D01*
X54744138Y-137594865D01*
X54860000Y-137539068D01*
X54860000Y-138560000D01*
X55554518Y-138560000D01*
X55561132Y-138559645D01*
X55617371Y-138553599D01*
X55752089Y-138503352D01*
X55867188Y-138417188D01*
X55953352Y-138302089D01*
X56003599Y-138167371D01*
X56009645Y-138111132D01*
X56010000Y-138104518D01*
X56010000Y-137410000D01*
X54985278Y-137410000D01*
X55033625Y-137326260D01*
X55063810Y-137194008D01*
X55053673Y-137058735D01*
X55004113Y-136932459D01*
X54986203Y-136910000D01*
X56010000Y-136910000D01*
X56010000Y-136215481D01*
X56009645Y-136208867D01*
X56005467Y-136170000D01*
X56388970Y-136170000D01*
X56396383Y-136231050D01*
X56466010Y-136471426D01*
X56573291Y-136697520D01*
X56715456Y-136903479D01*
X56888815Y-137083965D01*
X57095366Y-137239178D01*
X57137135Y-137295188D01*
X57141992Y-137364889D01*
X57108395Y-137426151D01*
X57090952Y-137440608D01*
X57031857Y-137481089D01*
X56881091Y-137631855D01*
X56881088Y-137631858D01*
X56881089Y-137631858D01*
X56760591Y-137807763D01*
X56760589Y-137807766D01*
X56760589Y-137807767D01*
X56674467Y-138002813D01*
X56625650Y-138210370D01*
X56619648Y-138296845D01*
X56619647Y-138296866D01*
X56619500Y-138298988D01*
X56619500Y-139741012D01*
X56619647Y-139743134D01*
X56619648Y-139743154D01*
X56625650Y-139829629D01*
X56674467Y-140037186D01*
X56722733Y-140146496D01*
X56760591Y-140232237D01*
X56881089Y-140408142D01*
X57031858Y-140558911D01*
X57207763Y-140679409D01*
X57269289Y-140706575D01*
X57402813Y-140765532D01*
X57610370Y-140814349D01*
X57698988Y-140820500D01*
X57700825Y-140820500D01*
X57767104Y-140842481D01*
X57811004Y-140896837D01*
X57818547Y-140966298D01*
X57787340Y-141028811D01*
X57755512Y-141053467D01*
X57596490Y-141139526D01*
X57400259Y-141292259D01*
X57400256Y-141292261D01*
X57400256Y-141292262D01*
X57231836Y-141475215D01*
X57186499Y-141544607D01*
X57095825Y-141683395D01*
X57011801Y-141874953D01*
X56995937Y-141911119D01*
X56964348Y-142035861D01*
X56934891Y-142152183D01*
X56914356Y-142400000D01*
X56934891Y-142647816D01*
X56934891Y-142647819D01*
X56934892Y-142647821D01*
X56995937Y-142888881D01*
X57040960Y-142991523D01*
X57095825Y-143116604D01*
X57095827Y-143116607D01*
X57231836Y-143324785D01*
X57400256Y-143507738D01*
X57400259Y-143507740D01*
X57596485Y-143660470D01*
X57596487Y-143660471D01*
X57596491Y-143660474D01*
X57815190Y-143778828D01*
X58050386Y-143859571D01*
X58295665Y-143900500D01*
X58544335Y-143900500D01*
X58789614Y-143859571D01*
X59024810Y-143778828D01*
X59243509Y-143660474D01*
X59439744Y-143507738D01*
X59608164Y-143324785D01*
X59744173Y-143116607D01*
X59844063Y-142888881D01*
X59905108Y-142647821D01*
X59925643Y-142400000D01*
X59905108Y-142152179D01*
X59844063Y-141911119D01*
X59744173Y-141683393D01*
X59608164Y-141475215D01*
X59439744Y-141292262D01*
X59370685Y-141238511D01*
X59243514Y-141139529D01*
X59243510Y-141139526D01*
X59243509Y-141139526D01*
X59084486Y-141053467D01*
X59034897Y-141004248D01*
X59019789Y-140936031D01*
X59043960Y-140870476D01*
X59099735Y-140828395D01*
X59139148Y-140820500D01*
X59141012Y-140820500D01*
X59229630Y-140814349D01*
X59333407Y-140789940D01*
X59437186Y-140765532D01*
X59489404Y-140742475D01*
X59632237Y-140679409D01*
X59808142Y-140558911D01*
X59958911Y-140408142D01*
X60079409Y-140232237D01*
X60165532Y-140037185D01*
X60214349Y-139829630D01*
X60220500Y-139741012D01*
X60220500Y-138298988D01*
X60214349Y-138210370D01*
X60165532Y-138002815D01*
X60165532Y-138002813D01*
X60119418Y-137898376D01*
X60079409Y-137807763D01*
X59958911Y-137631858D01*
X59808142Y-137481089D01*
X59808141Y-137481088D01*
X59808140Y-137481087D01*
X59744295Y-137437352D01*
X59700112Y-137383226D01*
X59692206Y-137313805D01*
X59723087Y-137251130D01*
X59748098Y-137230249D01*
X59854183Y-137163164D01*
X60041500Y-136997216D01*
X60199774Y-136803365D01*
X60324903Y-136586635D01*
X60413647Y-136352639D01*
X60450933Y-136170000D01*
X59086111Y-136170000D01*
X59125610Y-136145543D01*
X59152451Y-136110000D01*
X61468970Y-136110000D01*
X61476383Y-136171050D01*
X61546010Y-136411426D01*
X61653291Y-136637520D01*
X61795456Y-136843479D01*
X61968815Y-137023965D01*
X62168884Y-137174308D01*
X62390472Y-137290607D01*
X62627856Y-137369857D01*
X62874870Y-137410000D01*
X63249999Y-137410000D01*
X63250000Y-136160000D01*
X63750000Y-136160000D01*
X63750000Y-137410000D01*
X64059985Y-137410000D01*
X64064945Y-137409800D01*
X64249445Y-137394905D01*
X64492435Y-137335013D01*
X64722664Y-137236922D01*
X64934179Y-137103167D01*
X65121500Y-136937216D01*
X65279774Y-136743365D01*
X65404903Y-136526635D01*
X65493647Y-136292639D01*
X65518684Y-136170000D01*
X66548970Y-136170000D01*
X66556383Y-136231050D01*
X66626010Y-136471426D01*
X66733291Y-136697520D01*
X66875456Y-136903479D01*
X67048815Y-137083965D01*
X67255366Y-137239178D01*
X67297135Y-137295188D01*
X67301992Y-137364889D01*
X67268395Y-137426151D01*
X67250952Y-137440608D01*
X67191857Y-137481089D01*
X67041091Y-137631855D01*
X67041088Y-137631858D01*
X67041089Y-137631858D01*
X66920591Y-137807763D01*
X66920589Y-137807766D01*
X66920589Y-137807767D01*
X66834467Y-138002813D01*
X66785650Y-138210370D01*
X66779648Y-138296845D01*
X66779647Y-138296866D01*
X66779500Y-138298988D01*
X66779500Y-139741012D01*
X66779647Y-139743134D01*
X66779648Y-139743154D01*
X66785650Y-139829629D01*
X66834467Y-140037186D01*
X66882733Y-140146496D01*
X66920591Y-140232237D01*
X67041089Y-140408142D01*
X67191858Y-140558911D01*
X67367763Y-140679409D01*
X67429289Y-140706575D01*
X67562813Y-140765532D01*
X67770369Y-140814349D01*
X67770370Y-140814349D01*
X67858988Y-140820500D01*
X67860825Y-140820500D01*
X67927104Y-140842481D01*
X67971004Y-140896837D01*
X67978547Y-140966298D01*
X67947340Y-141028811D01*
X67915512Y-141053467D01*
X67756490Y-141139526D01*
X67560259Y-141292259D01*
X67560256Y-141292261D01*
X67560256Y-141292262D01*
X67391836Y-141475215D01*
X67346499Y-141544607D01*
X67255825Y-141683395D01*
X67171801Y-141874953D01*
X67155937Y-141911119D01*
X67124348Y-142035861D01*
X67094891Y-142152183D01*
X67074356Y-142400000D01*
X67094891Y-142647816D01*
X67094891Y-142647819D01*
X67094892Y-142647821D01*
X67155937Y-142888881D01*
X67200960Y-142991523D01*
X67255825Y-143116604D01*
X67255827Y-143116607D01*
X67391836Y-143324785D01*
X67560256Y-143507738D01*
X67560259Y-143507740D01*
X67756485Y-143660470D01*
X67756487Y-143660471D01*
X67756491Y-143660474D01*
X67975190Y-143778828D01*
X68210386Y-143859571D01*
X68455665Y-143900500D01*
X68704335Y-143900500D01*
X68949614Y-143859571D01*
X69184810Y-143778828D01*
X69403509Y-143660474D01*
X69599744Y-143507738D01*
X69768164Y-143324785D01*
X69904173Y-143116607D01*
X70004063Y-142888881D01*
X70065108Y-142647821D01*
X70085643Y-142400000D01*
X70065108Y-142152179D01*
X70004063Y-141911119D01*
X69904173Y-141683393D01*
X69768164Y-141475215D01*
X69599744Y-141292262D01*
X69530685Y-141238511D01*
X69403514Y-141139529D01*
X69403510Y-141139526D01*
X69403509Y-141139526D01*
X69244486Y-141053467D01*
X69194897Y-141004248D01*
X69179789Y-140936031D01*
X69203960Y-140870476D01*
X69259735Y-140828395D01*
X69299148Y-140820500D01*
X69301012Y-140820500D01*
X69389630Y-140814349D01*
X69493407Y-140789940D01*
X69597186Y-140765532D01*
X69649404Y-140742475D01*
X69792237Y-140679409D01*
X69968142Y-140558911D01*
X70118911Y-140408142D01*
X70239409Y-140232237D01*
X70325532Y-140037185D01*
X70374349Y-139829630D01*
X70380500Y-139741012D01*
X70380500Y-138298988D01*
X70374349Y-138210370D01*
X70325532Y-138002815D01*
X70325532Y-138002813D01*
X70279418Y-137898376D01*
X70239409Y-137807763D01*
X70118911Y-137631858D01*
X69968142Y-137481089D01*
X69968141Y-137481088D01*
X69968140Y-137481087D01*
X69904295Y-137437352D01*
X69860112Y-137383226D01*
X69852206Y-137313805D01*
X69883087Y-137251130D01*
X69908098Y-137230249D01*
X70014183Y-137163164D01*
X70201500Y-136997216D01*
X70359774Y-136803365D01*
X70484903Y-136586635D01*
X70573647Y-136352639D01*
X70610933Y-136170000D01*
X69246111Y-136170000D01*
X69285610Y-136145543D01*
X69353201Y-136056038D01*
X69383895Y-135948160D01*
X69373546Y-135836479D01*
X69323552Y-135736078D01*
X69251069Y-135670000D01*
X70611030Y-135670000D01*
X70603616Y-135608949D01*
X70533989Y-135368573D01*
X70426708Y-135142479D01*
X70284543Y-134936520D01*
X70111184Y-134756034D01*
X69930155Y-134619999D01*
X70984699Y-134619999D01*
X71003865Y-134851299D01*
X71003865Y-134851301D01*
X71003866Y-134851305D01*
X71060843Y-135076300D01*
X71154076Y-135288849D01*
X71281021Y-135483153D01*
X71376167Y-135586509D01*
X71407089Y-135649164D01*
X71399229Y-135718590D01*
X71355082Y-135772745D01*
X71328272Y-135786673D01*
X71247913Y-135816646D01*
X71132811Y-135902811D01*
X71046647Y-136017910D01*
X70996400Y-136152628D01*
X70990354Y-136208867D01*
X70990000Y-136215481D01*
X70990000Y-136910000D01*
X72014722Y-136910000D01*
X71966375Y-136993740D01*
X71936190Y-137125992D01*
X71946327Y-137261265D01*
X71995887Y-137387541D01*
X72013797Y-137410000D01*
X70990000Y-137410000D01*
X70990000Y-138104518D01*
X70990354Y-138111132D01*
X70996400Y-138167371D01*
X71046647Y-138302089D01*
X71132811Y-138417188D01*
X71247910Y-138503352D01*
X71382628Y-138553599D01*
X71438867Y-138559645D01*
X71445482Y-138560000D01*
X72140000Y-138560000D01*
X72139999Y-137534189D01*
X72192547Y-137570016D01*
X72322173Y-137610000D01*
X72423724Y-137610000D01*
X72524138Y-137594865D01*
X72640000Y-137539068D01*
X72640000Y-138560000D01*
X73334518Y-138560000D01*
X73341132Y-138559645D01*
X73397371Y-138553599D01*
X73532089Y-138503352D01*
X73647188Y-138417188D01*
X73733352Y-138302089D01*
X73783599Y-138167371D01*
X73789645Y-138111132D01*
X73790000Y-138104518D01*
X73790000Y-137410000D01*
X72765278Y-137410000D01*
X72813625Y-137326260D01*
X72843810Y-137194008D01*
X72833673Y-137058735D01*
X72784113Y-136932459D01*
X72766203Y-136910000D01*
X73790000Y-136910000D01*
X73790000Y-136215481D01*
X73789645Y-136208867D01*
X73783599Y-136152628D01*
X73733352Y-136017910D01*
X73647188Y-135902811D01*
X73532088Y-135816647D01*
X73451728Y-135786674D01*
X73395794Y-135744802D01*
X73371378Y-135679337D01*
X73386230Y-135611065D01*
X73403826Y-135586516D01*
X73498979Y-135483153D01*
X73625924Y-135288849D01*
X73719157Y-135076300D01*
X73776134Y-134851305D01*
X73795300Y-134620000D01*
X73776134Y-134388695D01*
X73719157Y-134163700D01*
X73625924Y-133951151D01*
X73498979Y-133756847D01*
X73341784Y-133586087D01*
X73158626Y-133443530D01*
X72954503Y-133333064D01*
X72954499Y-133333062D01*
X72954498Y-133333062D01*
X72734984Y-133257702D01*
X72563282Y-133229050D01*
X72506049Y-133219500D01*
X72273951Y-133219500D01*
X72228164Y-133227140D01*
X72045015Y-133257702D01*
X71825501Y-133333062D01*
X71621372Y-133443531D01*
X71438215Y-133586087D01*
X71281020Y-133756848D01*
X71154076Y-133951150D01*
X71060844Y-134163696D01*
X71060842Y-134163700D01*
X71060843Y-134163700D01*
X71008601Y-134370000D01*
X71003865Y-134388700D01*
X70984699Y-134619999D01*
X69930155Y-134619999D01*
X69911115Y-134605691D01*
X69689527Y-134489392D01*
X69452143Y-134410142D01*
X69205130Y-134370000D01*
X68830000Y-134370000D01*
X68830000Y-135620000D01*
X68330000Y-135620000D01*
X68330000Y-134370000D01*
X68020015Y-134370000D01*
X68015054Y-134370199D01*
X67830554Y-134385094D01*
X67587564Y-134444986D01*
X67357335Y-134543077D01*
X67145820Y-134676832D01*
X66958499Y-134842783D01*
X66800225Y-135036634D01*
X66675096Y-135253364D01*
X66586352Y-135487360D01*
X66549067Y-135670000D01*
X67913889Y-135670000D01*
X67874390Y-135694457D01*
X67806799Y-135783962D01*
X67776105Y-135891840D01*
X67786454Y-136003521D01*
X67836448Y-136103922D01*
X67908931Y-136170000D01*
X66548970Y-136170000D01*
X65518684Y-136170000D01*
X65530933Y-136110000D01*
X64166111Y-136110000D01*
X64205610Y-136085543D01*
X64273201Y-135996038D01*
X64303895Y-135888160D01*
X64293546Y-135776479D01*
X64243552Y-135676078D01*
X64171069Y-135610000D01*
X65531030Y-135610000D01*
X65523616Y-135548949D01*
X65453989Y-135308573D01*
X65346708Y-135082479D01*
X65204543Y-134876520D01*
X65031184Y-134696034D01*
X64824212Y-134540504D01*
X64782443Y-134484494D01*
X64777586Y-134414793D01*
X64811184Y-134353531D01*
X64828627Y-134339073D01*
X64887823Y-134298522D01*
X65038522Y-134147823D01*
X65158971Y-133971988D01*
X65245056Y-133777026D01*
X65293852Y-133569560D01*
X65299851Y-133483127D01*
X65300000Y-133478844D01*
X65300000Y-133010000D01*
X64166111Y-133010000D01*
X64205610Y-132985543D01*
X64273201Y-132896038D01*
X64303895Y-132788160D01*
X64293546Y-132676479D01*
X64243552Y-132576078D01*
X64171069Y-132510000D01*
X65299998Y-132510000D01*
X65299999Y-132041157D01*
X65299851Y-132036899D01*
X65293851Y-131950433D01*
X65245056Y-131742973D01*
X65158971Y-131548011D01*
X65038522Y-131372176D01*
X64887823Y-131221477D01*
X64711988Y-131101028D01*
X64517026Y-131014943D01*
X64309560Y-130966147D01*
X64223130Y-130960148D01*
X64218329Y-130959982D01*
X64152014Y-130937982D01*
X64108120Y-130883621D01*
X64100584Y-130814158D01*
X64102660Y-130810000D01*
X71084531Y-130810000D01*
X71104364Y-131036689D01*
X71163261Y-131256497D01*
X71259432Y-131462735D01*
X71389953Y-131649140D01*
X71550859Y-131810046D01*
X71737264Y-131940567D01*
X71737265Y-131940567D01*
X71737266Y-131940568D01*
X71943504Y-132036739D01*
X72163308Y-132095635D01*
X72314436Y-132108856D01*
X72389999Y-132115468D01*
X72389999Y-132115467D01*
X72390000Y-132115468D01*
X72616692Y-132095635D01*
X72836496Y-132036739D01*
X73042734Y-131940568D01*
X73229139Y-131810047D01*
X73390047Y-131649139D01*
X73520568Y-131462734D01*
X73616739Y-131256496D01*
X73675635Y-131036692D01*
X73695468Y-130810000D01*
X73675635Y-130583308D01*
X73616739Y-130363504D01*
X73520568Y-130157266D01*
X73478095Y-130096607D01*
X73390046Y-129970859D01*
X73229140Y-129809953D01*
X73042735Y-129679432D01*
X72836497Y-129583261D01*
X72616689Y-129524364D01*
X72389999Y-129504531D01*
X72163310Y-129524364D01*
X71943502Y-129583261D01*
X71737264Y-129679432D01*
X71550859Y-129809953D01*
X71389953Y-129970859D01*
X71259432Y-130157264D01*
X71163261Y-130363502D01*
X71104364Y-130583310D01*
X71084531Y-130810000D01*
X64102660Y-130810000D01*
X64131798Y-130751649D01*
X64163617Y-130727003D01*
X64323509Y-130640474D01*
X64519744Y-130487738D01*
X64688164Y-130304785D01*
X64824173Y-130096607D01*
X64924063Y-129868881D01*
X64985108Y-129627821D01*
X65005643Y-129380000D01*
X64985108Y-129132179D01*
X64924063Y-128891119D01*
X64824173Y-128663393D01*
X64688164Y-128455215D01*
X64519744Y-128272262D01*
X64497612Y-128255036D01*
X64323514Y-128119529D01*
X64323510Y-128119526D01*
X64323509Y-128119526D01*
X64104810Y-128001172D01*
X64104806Y-128001170D01*
X64104805Y-128001170D01*
X63869615Y-127920429D01*
X63624335Y-127879500D01*
X63375665Y-127879500D01*
X63130384Y-127920429D01*
X62895194Y-128001170D01*
X62676485Y-128119529D01*
X62480259Y-128272259D01*
X62311837Y-128455214D01*
X62175825Y-128663395D01*
X62085780Y-128868678D01*
X62075937Y-128891119D01*
X62014892Y-129132179D01*
X62014891Y-129132183D01*
X61994356Y-129380000D01*
X62014891Y-129627816D01*
X62014891Y-129627819D01*
X62014892Y-129627821D01*
X62075937Y-129868881D01*
X62107091Y-129939904D01*
X62175825Y-130096604D01*
X62175827Y-130096607D01*
X62311836Y-130304785D01*
X62480256Y-130487738D01*
X62480259Y-130487740D01*
X62676485Y-130640470D01*
X62676487Y-130640471D01*
X62676491Y-130640474D01*
X62836385Y-130727004D01*
X62885974Y-130776223D01*
X62901082Y-130844439D01*
X62876912Y-130909995D01*
X62821136Y-130952076D01*
X62781673Y-130959983D01*
X62776896Y-130960148D01*
X62690433Y-130966148D01*
X62482973Y-131014943D01*
X62288011Y-131101028D01*
X62112176Y-131221477D01*
X61961477Y-131372176D01*
X61841028Y-131548011D01*
X61754943Y-131742973D01*
X61706147Y-131950439D01*
X61700148Y-132036872D01*
X61700000Y-132041155D01*
X61700000Y-132510000D01*
X62833889Y-132510000D01*
X62794390Y-132534457D01*
X62726799Y-132623962D01*
X62696105Y-132731840D01*
X62706454Y-132843521D01*
X62756448Y-132943922D01*
X62828931Y-133010000D01*
X61700001Y-133010000D01*
X61700001Y-133478842D01*
X61700148Y-133483100D01*
X61706148Y-133569566D01*
X61754943Y-133777026D01*
X61841028Y-133971988D01*
X61961477Y-134147823D01*
X62112176Y-134298522D01*
X62176164Y-134342355D01*
X62220347Y-134396481D01*
X62228253Y-134465902D01*
X62197372Y-134528577D01*
X62172362Y-134549458D01*
X62065817Y-134616834D01*
X61878499Y-134782783D01*
X61720225Y-134976634D01*
X61595096Y-135193364D01*
X61506352Y-135427360D01*
X61469067Y-135610000D01*
X62833889Y-135610000D01*
X62794390Y-135634457D01*
X62726799Y-135723962D01*
X62696105Y-135831840D01*
X62706454Y-135943521D01*
X62756448Y-136043922D01*
X62828931Y-136110000D01*
X61468970Y-136110000D01*
X59152451Y-136110000D01*
X59193201Y-136056038D01*
X59223895Y-135948160D01*
X59213546Y-135836479D01*
X59163552Y-135736078D01*
X59091069Y-135670000D01*
X60451030Y-135670000D01*
X60443616Y-135608949D01*
X60373989Y-135368573D01*
X60266708Y-135142479D01*
X60124543Y-134936520D01*
X59951184Y-134756034D01*
X59751115Y-134605691D01*
X59529527Y-134489392D01*
X59292143Y-134410142D01*
X59045130Y-134370000D01*
X58670000Y-134370000D01*
X58670000Y-135620000D01*
X58170000Y-135620000D01*
X58170000Y-134370000D01*
X57860015Y-134370000D01*
X57855054Y-134370199D01*
X57670554Y-134385094D01*
X57427564Y-134444986D01*
X57197335Y-134543077D01*
X56985820Y-134676832D01*
X56798499Y-134842783D01*
X56640225Y-135036634D01*
X56515096Y-135253364D01*
X56426352Y-135487360D01*
X56389067Y-135670000D01*
X57753889Y-135670000D01*
X57714390Y-135694457D01*
X57646799Y-135783962D01*
X57616105Y-135891840D01*
X57626454Y-136003521D01*
X57676448Y-136103922D01*
X57748931Y-136170000D01*
X56388970Y-136170000D01*
X56005467Y-136170000D01*
X56003599Y-136152628D01*
X55953352Y-136017910D01*
X55867188Y-135902811D01*
X55752088Y-135816647D01*
X55671728Y-135786674D01*
X55615794Y-135744802D01*
X55591378Y-135679337D01*
X55606230Y-135611065D01*
X55623826Y-135586516D01*
X55718979Y-135483153D01*
X55845924Y-135288849D01*
X55939157Y-135076300D01*
X55996134Y-134851305D01*
X56015300Y-134620000D01*
X55996134Y-134388695D01*
X55939157Y-134163700D01*
X55845924Y-133951151D01*
X55718979Y-133756847D01*
X55561784Y-133586087D01*
X55378626Y-133443530D01*
X55174503Y-133333064D01*
X55174499Y-133333062D01*
X55174498Y-133333062D01*
X54954984Y-133257702D01*
X54783281Y-133229050D01*
X54726049Y-133219500D01*
X54493951Y-133219500D01*
X54448164Y-133227140D01*
X54265015Y-133257702D01*
X54045501Y-133333062D01*
X53841372Y-133443531D01*
X53658215Y-133586087D01*
X53501020Y-133756848D01*
X53374076Y-133951150D01*
X53280844Y-134163696D01*
X53280842Y-134163700D01*
X53280843Y-134163700D01*
X53228601Y-134370000D01*
X53223865Y-134388700D01*
X53204699Y-134620000D01*
X48395300Y-134620000D01*
X48376134Y-134388695D01*
X48339394Y-134243618D01*
X48342020Y-134173798D01*
X48371918Y-134125499D01*
X50387409Y-132110008D01*
X50448730Y-132076525D01*
X50507180Y-132077915D01*
X50573308Y-132095635D01*
X50800000Y-132115468D01*
X51026692Y-132095635D01*
X51246496Y-132036739D01*
X51452734Y-131940568D01*
X51639139Y-131810047D01*
X51800047Y-131649139D01*
X51930568Y-131462734D01*
X52026739Y-131256496D01*
X52085635Y-131036692D01*
X52105468Y-130810000D01*
X52105468Y-130809999D01*
X53304531Y-130809999D01*
X53324364Y-131036689D01*
X53383261Y-131256497D01*
X53479432Y-131462735D01*
X53609953Y-131649140D01*
X53770859Y-131810046D01*
X53957264Y-131940567D01*
X53957265Y-131940567D01*
X53957266Y-131940568D01*
X54163504Y-132036739D01*
X54383308Y-132095635D01*
X54534435Y-132108857D01*
X54609999Y-132115468D01*
X54609999Y-132115467D01*
X54610000Y-132115468D01*
X54836692Y-132095635D01*
X55056496Y-132036739D01*
X55262734Y-131940568D01*
X55449139Y-131810047D01*
X55610047Y-131649139D01*
X55740568Y-131462734D01*
X55836739Y-131256496D01*
X55895635Y-131036692D01*
X55915468Y-130810000D01*
X55895635Y-130583308D01*
X55836739Y-130363504D01*
X55740568Y-130157266D01*
X55698095Y-130096607D01*
X55610046Y-129970859D01*
X55449140Y-129809953D01*
X55262735Y-129679432D01*
X55056497Y-129583261D01*
X54836689Y-129524364D01*
X54609999Y-129504531D01*
X54383310Y-129524364D01*
X54163502Y-129583261D01*
X53957264Y-129679432D01*
X53770859Y-129809953D01*
X53609953Y-129970859D01*
X53479432Y-130157264D01*
X53383261Y-130363502D01*
X53324364Y-130583310D01*
X53304531Y-130809999D01*
X52105468Y-130809999D01*
X52085635Y-130583308D01*
X52026739Y-130363504D01*
X51930568Y-130157266D01*
X51888095Y-130096607D01*
X51800046Y-129970859D01*
X51639140Y-129809953D01*
X51452735Y-129679432D01*
X51246497Y-129583261D01*
X51026689Y-129524364D01*
X50800000Y-129504531D01*
X50573310Y-129524364D01*
X50353502Y-129583261D01*
X50147264Y-129679432D01*
X49960859Y-129809953D01*
X49799953Y-129970859D01*
X49669432Y-130157264D01*
X49573261Y-130363502D01*
X49514364Y-130583310D01*
X49494531Y-130809999D01*
X49514364Y-131036690D01*
X49532082Y-131102816D01*
X49530419Y-131172666D01*
X49499988Y-131222590D01*
X47486414Y-133236165D01*
X47425091Y-133269650D01*
X47358471Y-133265766D01*
X47334980Y-133257701D01*
X47144250Y-133225874D01*
X47106049Y-133219500D01*
X46873951Y-133219500D01*
X46828164Y-133227140D01*
X46645015Y-133257702D01*
X46425501Y-133333062D01*
X46221372Y-133443531D01*
X46038215Y-133586087D01*
X45881020Y-133756848D01*
X45754076Y-133951150D01*
X45660844Y-134163696D01*
X45660842Y-134163700D01*
X45660843Y-134163700D01*
X45608601Y-134370000D01*
X45603865Y-134388700D01*
X45584699Y-134620000D01*
X44610001Y-134620000D01*
X44504633Y-134540821D01*
X44462864Y-134484811D01*
X44458007Y-134415110D01*
X44491604Y-134353848D01*
X44509043Y-134339394D01*
X44568142Y-134298911D01*
X44718911Y-134148142D01*
X44839409Y-133972237D01*
X44925532Y-133777185D01*
X44925570Y-133777026D01*
X44974349Y-133569629D01*
X44980351Y-133483154D01*
X44980500Y-133481012D01*
X44980500Y-132667885D01*
X45000185Y-132600846D01*
X45016814Y-132580209D01*
X47478264Y-130118758D01*
X47491883Y-130106988D01*
X47511294Y-130092539D01*
X47543324Y-130054366D01*
X47550638Y-130046386D01*
X47551234Y-130045789D01*
X47554583Y-130042441D01*
X47573927Y-130017974D01*
X47576161Y-130015232D01*
X47624667Y-129957427D01*
X47624668Y-129957424D01*
X47625449Y-129956494D01*
X47636018Y-129939904D01*
X47636534Y-129938797D01*
X47636539Y-129938791D01*
X47668445Y-129870366D01*
X47669958Y-129867241D01*
X47703824Y-129799811D01*
X47703824Y-129799809D01*
X47704374Y-129798715D01*
X47710830Y-129780142D01*
X47711077Y-129778943D01*
X47711079Y-129778940D01*
X47726345Y-129705001D01*
X47727101Y-129701596D01*
X47744500Y-129628188D01*
X47744500Y-129628185D01*
X47744780Y-129627004D01*
X47746781Y-129607425D01*
X47744552Y-129530804D01*
X47744500Y-129527198D01*
X47744500Y-125181012D01*
X61699500Y-125181012D01*
X61699647Y-125183134D01*
X61699648Y-125183154D01*
X61705650Y-125269629D01*
X61754467Y-125477186D01*
X61829743Y-125647669D01*
X61840591Y-125672237D01*
X61961089Y-125848142D01*
X62111858Y-125998911D01*
X62287763Y-126119409D01*
X62378376Y-126159418D01*
X62482813Y-126205532D01*
X62690370Y-126254349D01*
X62778988Y-126260500D01*
X62781128Y-126260500D01*
X64218872Y-126260500D01*
X64221012Y-126260500D01*
X64309630Y-126254349D01*
X64413407Y-126229940D01*
X64517186Y-126205532D01*
X64569404Y-126182475D01*
X64712237Y-126119409D01*
X64888142Y-125998911D01*
X65038911Y-125848142D01*
X65159409Y-125672237D01*
X65245532Y-125477185D01*
X65294349Y-125269630D01*
X65300500Y-125181012D01*
X65300500Y-123738988D01*
X65294349Y-123650370D01*
X65259576Y-123502524D01*
X65245532Y-123442813D01*
X65199418Y-123338376D01*
X65159409Y-123247763D01*
X65119840Y-123189999D01*
X71084531Y-123189999D01*
X71104364Y-123416689D01*
X71163261Y-123636497D01*
X71259432Y-123842735D01*
X71389953Y-124029140D01*
X71550859Y-124190046D01*
X71737264Y-124320567D01*
X71737265Y-124320567D01*
X71737266Y-124320568D01*
X71943504Y-124416739D01*
X72163308Y-124475635D01*
X72314435Y-124488857D01*
X72389999Y-124495468D01*
X72389999Y-124495467D01*
X72390000Y-124495468D01*
X72616692Y-124475635D01*
X72836496Y-124416739D01*
X73042734Y-124320568D01*
X73229139Y-124190047D01*
X73390047Y-124029139D01*
X73520568Y-123842734D01*
X73616739Y-123636496D01*
X73675635Y-123416692D01*
X73695468Y-123190000D01*
X73675635Y-122963308D01*
X73616739Y-122743504D01*
X73520568Y-122537266D01*
X73390047Y-122350861D01*
X73390046Y-122350859D01*
X73229140Y-122189953D01*
X73042735Y-122059432D01*
X72836497Y-121963261D01*
X72616689Y-121904364D01*
X72389999Y-121884531D01*
X72163310Y-121904364D01*
X71943502Y-121963261D01*
X71737264Y-122059432D01*
X71550859Y-122189953D01*
X71389953Y-122350859D01*
X71259432Y-122537264D01*
X71163261Y-122743502D01*
X71104364Y-122963310D01*
X71084531Y-123189999D01*
X65119840Y-123189999D01*
X65038911Y-123071858D01*
X64888142Y-122921089D01*
X64712237Y-122800591D01*
X64671260Y-122782498D01*
X64517186Y-122714467D01*
X64309629Y-122665650D01*
X64223154Y-122659648D01*
X64223134Y-122659647D01*
X64221012Y-122659500D01*
X62778988Y-122659500D01*
X62776866Y-122659647D01*
X62776845Y-122659648D01*
X62690370Y-122665650D01*
X62482813Y-122714467D01*
X62287767Y-122800589D01*
X62287766Y-122800589D01*
X62287763Y-122800591D01*
X62124034Y-122912747D01*
X62111855Y-122921091D01*
X61961091Y-123071855D01*
X61961088Y-123071858D01*
X61961089Y-123071858D01*
X61840591Y-123247763D01*
X61840589Y-123247766D01*
X61840589Y-123247767D01*
X61754467Y-123442813D01*
X61705650Y-123650370D01*
X61699648Y-123736845D01*
X61699647Y-123736866D01*
X61699500Y-123738988D01*
X61699500Y-125181012D01*
X47744500Y-125181012D01*
X47744500Y-123553886D01*
X47764185Y-123486847D01*
X47780819Y-123466205D01*
X48057024Y-123190000D01*
X49494531Y-123190000D01*
X49514364Y-123416689D01*
X49573261Y-123636497D01*
X49669432Y-123842735D01*
X49799953Y-124029140D01*
X49960859Y-124190046D01*
X50147264Y-124320567D01*
X50147265Y-124320567D01*
X50147266Y-124320568D01*
X50353504Y-124416739D01*
X50573308Y-124475635D01*
X50800000Y-124495468D01*
X51026692Y-124475635D01*
X51246496Y-124416739D01*
X51452734Y-124320568D01*
X51639139Y-124190047D01*
X51800047Y-124029139D01*
X51930568Y-123842734D01*
X52026739Y-123636496D01*
X52085635Y-123416692D01*
X52105468Y-123190000D01*
X53304531Y-123190000D01*
X53324364Y-123416689D01*
X53383261Y-123636497D01*
X53479432Y-123842735D01*
X53609953Y-124029140D01*
X53770859Y-124190046D01*
X53957264Y-124320567D01*
X53957265Y-124320567D01*
X53957266Y-124320568D01*
X54163504Y-124416739D01*
X54383308Y-124475635D01*
X54534435Y-124488857D01*
X54609999Y-124495468D01*
X54609999Y-124495467D01*
X54610000Y-124495468D01*
X54836692Y-124475635D01*
X55056496Y-124416739D01*
X55262734Y-124320568D01*
X55449139Y-124190047D01*
X55610047Y-124029139D01*
X55740568Y-123842734D01*
X55836739Y-123636496D01*
X55895635Y-123416692D01*
X55915468Y-123190000D01*
X55895635Y-122963308D01*
X55836739Y-122743504D01*
X55740568Y-122537266D01*
X55610047Y-122350861D01*
X55610046Y-122350859D01*
X55449140Y-122189953D01*
X55262735Y-122059432D01*
X55056497Y-121963261D01*
X54836689Y-121904364D01*
X54609999Y-121884531D01*
X54383310Y-121904364D01*
X54163502Y-121963261D01*
X53957264Y-122059432D01*
X53770859Y-122189953D01*
X53609953Y-122350859D01*
X53479432Y-122537264D01*
X53383261Y-122743502D01*
X53324364Y-122963310D01*
X53304531Y-123190000D01*
X52105468Y-123190000D01*
X52085635Y-122963308D01*
X52026739Y-122743504D01*
X51930568Y-122537266D01*
X51800047Y-122350861D01*
X51800046Y-122350859D01*
X51639140Y-122189953D01*
X51452735Y-122059432D01*
X51246497Y-121963261D01*
X51026689Y-121904364D01*
X50800000Y-121884531D01*
X50573310Y-121904364D01*
X50353502Y-121963261D01*
X50147264Y-122059432D01*
X49960859Y-122189953D01*
X49799953Y-122350859D01*
X49669432Y-122537264D01*
X49573261Y-122743502D01*
X49514364Y-122963310D01*
X49494531Y-123190000D01*
X48057024Y-123190000D01*
X53616205Y-117630819D01*
X53677528Y-117597334D01*
X53703886Y-117594500D01*
X63436000Y-117594500D01*
X63453970Y-117595809D01*
X63457723Y-117596358D01*
X63477906Y-117599315D01*
X63527547Y-117594972D01*
X63538355Y-117594500D01*
X63540343Y-117594500D01*
X63543941Y-117594500D01*
X63547514Y-117594082D01*
X63547520Y-117594082D01*
X63567611Y-117591733D01*
X63574910Y-117590880D01*
X63578448Y-117590518D01*
X63653612Y-117583943D01*
X63653617Y-117583941D01*
X63654832Y-117583835D01*
X63674027Y-117579580D01*
X63675179Y-117579160D01*
X63675184Y-117579160D01*
X63746074Y-117553357D01*
X63749434Y-117552190D01*
X63821036Y-117528464D01*
X63821041Y-117528460D01*
X63822202Y-117528076D01*
X63839902Y-117519507D01*
X63840919Y-117518837D01*
X63840924Y-117518836D01*
X63903967Y-117477371D01*
X63906959Y-117475465D01*
X63971154Y-117435870D01*
X63971154Y-117435869D01*
X63972193Y-117435229D01*
X63987444Y-117422805D01*
X63988281Y-117421917D01*
X63988285Y-117421915D01*
X64040071Y-117367023D01*
X64042516Y-117364506D01*
X65733700Y-115673322D01*
X65795021Y-115639839D01*
X65832184Y-115637477D01*
X66040000Y-115655659D01*
X66275408Y-115635063D01*
X66503663Y-115573903D01*
X66717830Y-115474035D01*
X66911401Y-115338495D01*
X67078495Y-115171401D01*
X67214035Y-114977830D01*
X67313903Y-114763663D01*
X67375063Y-114535408D01*
X67395659Y-114300000D01*
X67377477Y-114092185D01*
X67391243Y-114023687D01*
X67413321Y-113993701D01*
X71608264Y-109798758D01*
X71621883Y-109786988D01*
X71641294Y-109772539D01*
X71673324Y-109734366D01*
X71680638Y-109726386D01*
X71681234Y-109725789D01*
X71684583Y-109722441D01*
X71703927Y-109697974D01*
X71706161Y-109695232D01*
X71754667Y-109637427D01*
X71754668Y-109637424D01*
X71755449Y-109636494D01*
X71766018Y-109619904D01*
X71766534Y-109618797D01*
X71766539Y-109618791D01*
X71798445Y-109550366D01*
X71799958Y-109547241D01*
X71833824Y-109479811D01*
X71833824Y-109479809D01*
X71834374Y-109478715D01*
X71840830Y-109460142D01*
X71841077Y-109458943D01*
X71841079Y-109458940D01*
X71856345Y-109385001D01*
X71857101Y-109381596D01*
X71874500Y-109308188D01*
X71874500Y-109308185D01*
X71874780Y-109307004D01*
X71876781Y-109287425D01*
X71874819Y-109219999D01*
X71874552Y-109210804D01*
X71874500Y-109207198D01*
X71874500Y-96520000D01*
X72304340Y-96520000D01*
X72324936Y-96755407D01*
X72369709Y-96922501D01*
X72386097Y-96983663D01*
X72485965Y-97197830D01*
X72621505Y-97391401D01*
X72621508Y-97391404D01*
X72743430Y-97513326D01*
X72776915Y-97574649D01*
X72771931Y-97644341D01*
X72730059Y-97700274D01*
X72699083Y-97717189D01*
X72567669Y-97766204D01*
X72452454Y-97852454D01*
X72366204Y-97967668D01*
X72315910Y-98102515D01*
X72315909Y-98102517D01*
X72309500Y-98162127D01*
X72309500Y-98165448D01*
X72309500Y-98165449D01*
X72309500Y-99954560D01*
X72309500Y-99954578D01*
X72309501Y-99957872D01*
X72315909Y-100017483D01*
X72366204Y-100152331D01*
X72452454Y-100267546D01*
X72567669Y-100353796D01*
X72702517Y-100404091D01*
X72762127Y-100410500D01*
X74557872Y-100410499D01*
X74617483Y-100404091D01*
X74752331Y-100353796D01*
X74867546Y-100267546D01*
X74953796Y-100152331D01*
X75004091Y-100017483D01*
X75010500Y-99957873D01*
X75010499Y-98162128D01*
X75004091Y-98102517D01*
X74953796Y-97967669D01*
X74867546Y-97852454D01*
X74752331Y-97766204D01*
X74690898Y-97743291D01*
X74620916Y-97717189D01*
X74564983Y-97675317D01*
X74540566Y-97609853D01*
X74555418Y-97541580D01*
X74576563Y-97513332D01*
X74698495Y-97391401D01*
X74834035Y-97197830D01*
X74933903Y-96983663D01*
X74995063Y-96755408D01*
X75015659Y-96520000D01*
X74995063Y-96284592D01*
X74933903Y-96056337D01*
X74834035Y-95842171D01*
X74698495Y-95648599D01*
X74531401Y-95481505D01*
X74345839Y-95351573D01*
X74302216Y-95296998D01*
X74295022Y-95227500D01*
X74326545Y-95165145D01*
X74345837Y-95148428D01*
X74531401Y-95018495D01*
X74698495Y-94851401D01*
X74834035Y-94657830D01*
X74933903Y-94443663D01*
X74995063Y-94215408D01*
X75015659Y-93980000D01*
X74995063Y-93744592D01*
X74933903Y-93516337D01*
X74834035Y-93302171D01*
X74698495Y-93108599D01*
X74531401Y-92941505D01*
X74345839Y-92811573D01*
X74302216Y-92756998D01*
X74295022Y-92687500D01*
X74326545Y-92625145D01*
X74345837Y-92608428D01*
X74531401Y-92478495D01*
X74698495Y-92311401D01*
X74834035Y-92117830D01*
X74933903Y-91903663D01*
X74995063Y-91675408D01*
X75015659Y-91440000D01*
X74995063Y-91204592D01*
X74933903Y-90976337D01*
X74834035Y-90762171D01*
X74698495Y-90568599D01*
X74531401Y-90401505D01*
X74345839Y-90271573D01*
X74302216Y-90216998D01*
X74295022Y-90147500D01*
X74326545Y-90085145D01*
X74345837Y-90068428D01*
X74531401Y-89938495D01*
X74698495Y-89771401D01*
X74834035Y-89577830D01*
X74933903Y-89363663D01*
X74995063Y-89135408D01*
X75015659Y-88900000D01*
X74995063Y-88664592D01*
X74933903Y-88436337D01*
X74834035Y-88222171D01*
X74698495Y-88028599D01*
X74531401Y-87861505D01*
X74345839Y-87731573D01*
X74302216Y-87676998D01*
X74295022Y-87607500D01*
X74326545Y-87545145D01*
X74345837Y-87528428D01*
X74531401Y-87398495D01*
X74698495Y-87231401D01*
X74834035Y-87037830D01*
X74933903Y-86823663D01*
X74995063Y-86595408D01*
X75015659Y-86360000D01*
X74995063Y-86124592D01*
X74933903Y-85896337D01*
X74834035Y-85682171D01*
X74698495Y-85488599D01*
X74531401Y-85321505D01*
X74345839Y-85191573D01*
X74302216Y-85136998D01*
X74295022Y-85067500D01*
X74326545Y-85005145D01*
X74345837Y-84988428D01*
X74531401Y-84858495D01*
X74698495Y-84691401D01*
X74834035Y-84497830D01*
X74933903Y-84283663D01*
X74995063Y-84055408D01*
X75015659Y-83820000D01*
X74995063Y-83584592D01*
X74933903Y-83356337D01*
X74834035Y-83142171D01*
X74698495Y-82948599D01*
X74531401Y-82781505D01*
X74345839Y-82651573D01*
X74302216Y-82596998D01*
X74295022Y-82527500D01*
X74326545Y-82465145D01*
X74345837Y-82448428D01*
X74531401Y-82318495D01*
X74698495Y-82151401D01*
X74834035Y-81957830D01*
X74933903Y-81743663D01*
X74995063Y-81515408D01*
X75015659Y-81280000D01*
X74995063Y-81044592D01*
X74933903Y-80816337D01*
X74834035Y-80602171D01*
X74698495Y-80408599D01*
X74531401Y-80241505D01*
X74337830Y-80105965D01*
X74123663Y-80006097D01*
X74062502Y-79989709D01*
X73895407Y-79944936D01*
X73659999Y-79924340D01*
X73424592Y-79944936D01*
X73196336Y-80006097D01*
X72982170Y-80105965D01*
X72788598Y-80241505D01*
X72621505Y-80408598D01*
X72485965Y-80602170D01*
X72386097Y-80816336D01*
X72324936Y-81044592D01*
X72304340Y-81280000D01*
X72324936Y-81515407D01*
X72369709Y-81682501D01*
X72386097Y-81743663D01*
X72485965Y-81957830D01*
X72621505Y-82151401D01*
X72788599Y-82318495D01*
X72974160Y-82448426D01*
X73017783Y-82503002D01*
X73024976Y-82572501D01*
X72993454Y-82634855D01*
X72974159Y-82651575D01*
X72788595Y-82781508D01*
X72621505Y-82948598D01*
X72485965Y-83142170D01*
X72386097Y-83356336D01*
X72324936Y-83584592D01*
X72304340Y-83820000D01*
X72324936Y-84055407D01*
X72350496Y-84150798D01*
X72386097Y-84283663D01*
X72485965Y-84497830D01*
X72621505Y-84691401D01*
X72788599Y-84858495D01*
X72974160Y-84988426D01*
X73017783Y-85043002D01*
X73024976Y-85112501D01*
X72993454Y-85174855D01*
X72974159Y-85191575D01*
X72788595Y-85321508D01*
X72621505Y-85488598D01*
X72485965Y-85682170D01*
X72386097Y-85896336D01*
X72324936Y-86124592D01*
X72304340Y-86360000D01*
X72324936Y-86595407D01*
X72369709Y-86762502D01*
X72386097Y-86823663D01*
X72485965Y-87037830D01*
X72621505Y-87231401D01*
X72788599Y-87398495D01*
X72974160Y-87528426D01*
X73017783Y-87583002D01*
X73024976Y-87652501D01*
X72993454Y-87714855D01*
X72974159Y-87731575D01*
X72788595Y-87861508D01*
X72621505Y-88028598D01*
X72485965Y-88222170D01*
X72386097Y-88436336D01*
X72324936Y-88664592D01*
X72304340Y-88899999D01*
X72324936Y-89135407D01*
X72369709Y-89302502D01*
X72386097Y-89363663D01*
X72485965Y-89577830D01*
X72621505Y-89771401D01*
X72788599Y-89938495D01*
X72974160Y-90068426D01*
X73017783Y-90123002D01*
X73024976Y-90192501D01*
X72993454Y-90254855D01*
X72974159Y-90271575D01*
X72788595Y-90401508D01*
X72621505Y-90568598D01*
X72485965Y-90762170D01*
X72386097Y-90976336D01*
X72324936Y-91204592D01*
X72304340Y-91439999D01*
X72324936Y-91675407D01*
X72369709Y-91842502D01*
X72386097Y-91903663D01*
X72485965Y-92117830D01*
X72621505Y-92311401D01*
X72788599Y-92478495D01*
X72974160Y-92608426D01*
X73017783Y-92663002D01*
X73024976Y-92732501D01*
X72993454Y-92794855D01*
X72974159Y-92811575D01*
X72788595Y-92941508D01*
X72621505Y-93108598D01*
X72485965Y-93302170D01*
X72386097Y-93516336D01*
X72324936Y-93744592D01*
X72304340Y-93980000D01*
X72324936Y-94215407D01*
X72361000Y-94350000D01*
X72386097Y-94443663D01*
X72485965Y-94657830D01*
X72621505Y-94851401D01*
X72788599Y-95018495D01*
X72974160Y-95148426D01*
X73017783Y-95203002D01*
X73024976Y-95272501D01*
X72993454Y-95334855D01*
X72974159Y-95351575D01*
X72788595Y-95481508D01*
X72621505Y-95648598D01*
X72485965Y-95842170D01*
X72386097Y-96056336D01*
X72324936Y-96284592D01*
X72304340Y-96520000D01*
X71874500Y-96520000D01*
X71874500Y-62293999D01*
X71875809Y-62276028D01*
X71879315Y-62252094D01*
X71874972Y-62202452D01*
X71874500Y-62191645D01*
X71874500Y-62189657D01*
X71874500Y-62186059D01*
X71870879Y-62155082D01*
X71870515Y-62151508D01*
X71863837Y-62075174D01*
X71859580Y-62055972D01*
X71859160Y-62054819D01*
X71859160Y-62054816D01*
X71833347Y-61983896D01*
X71832199Y-61980593D01*
X71808464Y-61908964D01*
X71808462Y-61908961D01*
X71808078Y-61907801D01*
X71799504Y-61890091D01*
X71757376Y-61826038D01*
X71755461Y-61823033D01*
X71715870Y-61758846D01*
X71715229Y-61757806D01*
X71702802Y-61742551D01*
X71647061Y-61689963D01*
X71644473Y-61687449D01*
X68523766Y-58566742D01*
X68511983Y-58553108D01*
X68497538Y-58533705D01*
X68459365Y-58501674D01*
X68451389Y-58494365D01*
X68449993Y-58492969D01*
X68447441Y-58490417D01*
X68444613Y-58488181D01*
X68444603Y-58488172D01*
X68422988Y-58471081D01*
X68420191Y-58468803D01*
X68361497Y-58419552D01*
X68344898Y-58408976D01*
X68275442Y-58376589D01*
X68272197Y-58375018D01*
X68203722Y-58340629D01*
X68185125Y-58334165D01*
X68110086Y-58318670D01*
X68106569Y-58317890D01*
X68032005Y-58300219D01*
X68012425Y-58298218D01*
X67935804Y-58300448D01*
X67932198Y-58300500D01*
X60389000Y-58300500D01*
X60371030Y-58299191D01*
X60357638Y-58297229D01*
X60347094Y-58295685D01*
X60347093Y-58295685D01*
X60297452Y-58300028D01*
X60286645Y-58300500D01*
X60281059Y-58300500D01*
X60277484Y-58300917D01*
X60277479Y-58300918D01*
X60250112Y-58304116D01*
X60246530Y-58304482D01*
X60170176Y-58311162D01*
X60150959Y-58315423D01*
X60078960Y-58341628D01*
X60075557Y-58342811D01*
X60002814Y-58366916D01*
X59985081Y-58375502D01*
X59956931Y-58394016D01*
X59890103Y-58414407D01*
X59822860Y-58395431D01*
X59776550Y-58343113D01*
X59765267Y-58301221D01*
X59755063Y-58184592D01*
X59693903Y-57956337D01*
X59594035Y-57742171D01*
X59458495Y-57548599D01*
X59291401Y-57381505D01*
X59097830Y-57245965D01*
X58883663Y-57146097D01*
X58822501Y-57129709D01*
X58655407Y-57084936D01*
X58638603Y-57083466D01*
X58573534Y-57058013D01*
X58532556Y-57001422D01*
X58528679Y-56931660D01*
X58533230Y-56916603D01*
X58544090Y-56887485D01*
X58544089Y-56887485D01*
X58544091Y-56887483D01*
X58550500Y-56827873D01*
X58550499Y-54932128D01*
X58544091Y-54872517D01*
X58493796Y-54737669D01*
X58407546Y-54622454D01*
X58292331Y-54536204D01*
X58239357Y-54516446D01*
X58212093Y-54506277D01*
X58156160Y-54464405D01*
X58131743Y-54398940D01*
X58146595Y-54330668D01*
X58164194Y-54306116D01*
X58258979Y-54203153D01*
X58385924Y-54008849D01*
X58479157Y-53796300D01*
X58536134Y-53571305D01*
X58555300Y-53340000D01*
X62094699Y-53340000D01*
X62113865Y-53571299D01*
X62113865Y-53571301D01*
X62113866Y-53571305D01*
X62170843Y-53796300D01*
X62264076Y-54008849D01*
X62391021Y-54203153D01*
X62485803Y-54306114D01*
X62516724Y-54368767D01*
X62508864Y-54438193D01*
X62464717Y-54492348D01*
X62437906Y-54506276D01*
X62357671Y-54536202D01*
X62242454Y-54622454D01*
X62156204Y-54737668D01*
X62105910Y-54872515D01*
X62105909Y-54872517D01*
X62099500Y-54932127D01*
X62099500Y-54935448D01*
X62099500Y-54935449D01*
X62099500Y-56824560D01*
X62099500Y-56824578D01*
X62099501Y-56827872D01*
X62099853Y-56831152D01*
X62099854Y-56831159D01*
X62105909Y-56887484D01*
X62116770Y-56916603D01*
X62156204Y-57022331D01*
X62242454Y-57137546D01*
X62357669Y-57223796D01*
X62492517Y-57274091D01*
X62552127Y-57280500D01*
X64447872Y-57280499D01*
X64507483Y-57274091D01*
X64642331Y-57223796D01*
X64757546Y-57137546D01*
X64843796Y-57022331D01*
X64894091Y-56887483D01*
X64900500Y-56827873D01*
X64900499Y-54932128D01*
X64894091Y-54872517D01*
X64843796Y-54737669D01*
X64757546Y-54622454D01*
X64642331Y-54536204D01*
X64589357Y-54516446D01*
X64562093Y-54506277D01*
X64506160Y-54464405D01*
X64481743Y-54398940D01*
X64496595Y-54330668D01*
X64514194Y-54306116D01*
X64608979Y-54203153D01*
X64735924Y-54008849D01*
X64829157Y-53796300D01*
X64886134Y-53571305D01*
X64905300Y-53340000D01*
X64905300Y-53339999D01*
X68444699Y-53339999D01*
X68463865Y-53571299D01*
X68463865Y-53571301D01*
X68463866Y-53571305D01*
X68520843Y-53796300D01*
X68614076Y-54008849D01*
X68741021Y-54203153D01*
X68835803Y-54306114D01*
X68866724Y-54368767D01*
X68858864Y-54438193D01*
X68814717Y-54492348D01*
X68787906Y-54506276D01*
X68707671Y-54536202D01*
X68592454Y-54622454D01*
X68506204Y-54737668D01*
X68455910Y-54872515D01*
X68455909Y-54872517D01*
X68449500Y-54932127D01*
X68449500Y-54935448D01*
X68449500Y-54935449D01*
X68449500Y-56824560D01*
X68449500Y-56824578D01*
X68449501Y-56827872D01*
X68449853Y-56831152D01*
X68449854Y-56831159D01*
X68455909Y-56887484D01*
X68466770Y-56916603D01*
X68506204Y-57022331D01*
X68592454Y-57137546D01*
X68707669Y-57223796D01*
X68842517Y-57274091D01*
X68902127Y-57280500D01*
X70797872Y-57280499D01*
X70857483Y-57274091D01*
X70992331Y-57223796D01*
X71107546Y-57137546D01*
X71193796Y-57022331D01*
X71244091Y-56887483D01*
X71250500Y-56827873D01*
X71250499Y-54932128D01*
X71244091Y-54872517D01*
X71193796Y-54737669D01*
X71107546Y-54622454D01*
X70992331Y-54536204D01*
X70939357Y-54516446D01*
X70912093Y-54506277D01*
X70856160Y-54464405D01*
X70831743Y-54398940D01*
X70846595Y-54330668D01*
X70864194Y-54306116D01*
X70958979Y-54203153D01*
X71085924Y-54008849D01*
X71179157Y-53796300D01*
X71236134Y-53571305D01*
X71255300Y-53340000D01*
X71236134Y-53108695D01*
X71179157Y-52883700D01*
X71085924Y-52671151D01*
X70958979Y-52476847D01*
X70801784Y-52306087D01*
X70618626Y-52163530D01*
X70414503Y-52053064D01*
X70414499Y-52053062D01*
X70414498Y-52053062D01*
X70194984Y-51977702D01*
X70023281Y-51949050D01*
X69966049Y-51939500D01*
X69733951Y-51939500D01*
X69688164Y-51947140D01*
X69505015Y-51977702D01*
X69285501Y-52053062D01*
X69081372Y-52163531D01*
X68898215Y-52306087D01*
X68741020Y-52476848D01*
X68614076Y-52671150D01*
X68520844Y-52883696D01*
X68463865Y-53108700D01*
X68444699Y-53339999D01*
X64905300Y-53339999D01*
X64886134Y-53108695D01*
X64829157Y-52883700D01*
X64735924Y-52671151D01*
X64608979Y-52476847D01*
X64451784Y-52306087D01*
X64268626Y-52163530D01*
X64064503Y-52053064D01*
X64064499Y-52053062D01*
X64064498Y-52053062D01*
X63844984Y-51977702D01*
X63673282Y-51949050D01*
X63616049Y-51939500D01*
X63383951Y-51939500D01*
X63338164Y-51947140D01*
X63155015Y-51977702D01*
X62935501Y-52053062D01*
X62731372Y-52163531D01*
X62548215Y-52306087D01*
X62391020Y-52476848D01*
X62264076Y-52671150D01*
X62170844Y-52883696D01*
X62113865Y-53108700D01*
X62094699Y-53340000D01*
X58555300Y-53340000D01*
X58536134Y-53108695D01*
X58479157Y-52883700D01*
X58385924Y-52671151D01*
X58258979Y-52476847D01*
X58101784Y-52306087D01*
X57918626Y-52163530D01*
X57714503Y-52053064D01*
X57714499Y-52053062D01*
X57714498Y-52053062D01*
X57494984Y-51977702D01*
X57323282Y-51949050D01*
X57266049Y-51939500D01*
X57033951Y-51939500D01*
X56988164Y-51947140D01*
X56805015Y-51977702D01*
X56585501Y-52053062D01*
X56381372Y-52163531D01*
X56198215Y-52306087D01*
X56041020Y-52476848D01*
X55914076Y-52671150D01*
X55820844Y-52883696D01*
X55763865Y-53108700D01*
X55744699Y-53340000D01*
X55763865Y-53571299D01*
X55763865Y-53571301D01*
X55763866Y-53571305D01*
X55820843Y-53796300D01*
X55914076Y-54008849D01*
X56041021Y-54203153D01*
X56135803Y-54306114D01*
X56166724Y-54368767D01*
X56158864Y-54438193D01*
X56114717Y-54492348D01*
X56087906Y-54506276D01*
X56007671Y-54536202D01*
X55892454Y-54622454D01*
X55806204Y-54737668D01*
X55755910Y-54872515D01*
X55755909Y-54872517D01*
X55749500Y-54932127D01*
X55749500Y-54935448D01*
X55749500Y-54935449D01*
X55749500Y-56824560D01*
X55749500Y-56824578D01*
X55749501Y-56827872D01*
X55749853Y-56831152D01*
X55749854Y-56831159D01*
X55755909Y-56887483D01*
X55766771Y-56916606D01*
X55771754Y-56986298D01*
X55738268Y-57047621D01*
X55676944Y-57081105D01*
X55661397Y-57083466D01*
X55644592Y-57084936D01*
X55416336Y-57146097D01*
X55202170Y-57245965D01*
X55008598Y-57381505D01*
X54841505Y-57548598D01*
X54711575Y-57734159D01*
X54656998Y-57777784D01*
X54587500Y-57784978D01*
X54525145Y-57753455D01*
X54508425Y-57734159D01*
X54378494Y-57548598D01*
X54211404Y-57381508D01*
X54211401Y-57381505D01*
X54017830Y-57245965D01*
X53803663Y-57146097D01*
X53742501Y-57129709D01*
X53575407Y-57084936D01*
X53340000Y-57064340D01*
X53104592Y-57084936D01*
X52876336Y-57146097D01*
X52662170Y-57245965D01*
X52468598Y-57381505D01*
X52301505Y-57548598D01*
X52171575Y-57734159D01*
X52116998Y-57777784D01*
X52047500Y-57784978D01*
X51985145Y-57753455D01*
X51968425Y-57734159D01*
X51838494Y-57548598D01*
X51766569Y-57476673D01*
X51733084Y-57415350D01*
X51738068Y-57345658D01*
X51779940Y-57289725D01*
X51810915Y-57272810D01*
X51942331Y-57223796D01*
X52057546Y-57137546D01*
X52143796Y-57022331D01*
X52194091Y-56887483D01*
X52200500Y-56827873D01*
X52200499Y-54932128D01*
X52194091Y-54872517D01*
X52143796Y-54737669D01*
X52057546Y-54622454D01*
X51942331Y-54536204D01*
X51889357Y-54516446D01*
X51862093Y-54506277D01*
X51806160Y-54464405D01*
X51781743Y-54398940D01*
X51796595Y-54330668D01*
X51814194Y-54306116D01*
X51908979Y-54203153D01*
X52035924Y-54008849D01*
X52129157Y-53796300D01*
X52186134Y-53571305D01*
X52205300Y-53340000D01*
X52186134Y-53108695D01*
X52129157Y-52883700D01*
X52035924Y-52671151D01*
X51908979Y-52476847D01*
X51751784Y-52306087D01*
X51568626Y-52163530D01*
X51364503Y-52053064D01*
X51364499Y-52053062D01*
X51364498Y-52053062D01*
X51144984Y-51977702D01*
X50973282Y-51949050D01*
X50916049Y-51939500D01*
X50683951Y-51939500D01*
X50638164Y-51947140D01*
X50455015Y-51977702D01*
X50235501Y-52053062D01*
X50031372Y-52163531D01*
X49848215Y-52306087D01*
X49691020Y-52476848D01*
X49564076Y-52671150D01*
X49470844Y-52883696D01*
X49413865Y-53108700D01*
X49394699Y-53340000D01*
X49413865Y-53571299D01*
X49413865Y-53571301D01*
X49413866Y-53571305D01*
X49470843Y-53796300D01*
X49564076Y-54008849D01*
X49691021Y-54203153D01*
X49785803Y-54306114D01*
X49816724Y-54368767D01*
X49808864Y-54438193D01*
X49764717Y-54492348D01*
X49737906Y-54506276D01*
X49657671Y-54536202D01*
X49542454Y-54622454D01*
X49456204Y-54737668D01*
X49405910Y-54872515D01*
X49405909Y-54872517D01*
X49399500Y-54932127D01*
X49399500Y-54935448D01*
X49399500Y-54935449D01*
X49399500Y-56824560D01*
X49399500Y-56824578D01*
X49399501Y-56827872D01*
X49399853Y-56831152D01*
X49399854Y-56831159D01*
X49405909Y-56887484D01*
X49416770Y-56916603D01*
X49456204Y-57022331D01*
X49542454Y-57137546D01*
X49657669Y-57223796D01*
X49769907Y-57265658D01*
X49789082Y-57272810D01*
X49845016Y-57314681D01*
X49869433Y-57380146D01*
X49854581Y-57448419D01*
X49833431Y-57476673D01*
X49761503Y-57548601D01*
X49631575Y-57734159D01*
X49576998Y-57777784D01*
X49507500Y-57784978D01*
X49445145Y-57753455D01*
X49428425Y-57734159D01*
X49298494Y-57548598D01*
X49131404Y-57381508D01*
X49131401Y-57381505D01*
X48937830Y-57245965D01*
X48723663Y-57146097D01*
X48662502Y-57129709D01*
X48495407Y-57084936D01*
X48260000Y-57064340D01*
X48024592Y-57084936D01*
X47796336Y-57146097D01*
X47582170Y-57245965D01*
X47388598Y-57381505D01*
X47221505Y-57548598D01*
X47091575Y-57734159D01*
X47036998Y-57777784D01*
X46967500Y-57784978D01*
X46905145Y-57753455D01*
X46888425Y-57734159D01*
X46758494Y-57548598D01*
X46591404Y-57381508D01*
X46591401Y-57381505D01*
X46397830Y-57245965D01*
X46183663Y-57146097D01*
X46122502Y-57129709D01*
X45955407Y-57084936D01*
X45938603Y-57083466D01*
X45873534Y-57058013D01*
X45832556Y-57001422D01*
X45828679Y-56931660D01*
X45833230Y-56916603D01*
X45844090Y-56887485D01*
X45844089Y-56887485D01*
X45844091Y-56887483D01*
X45850500Y-56827873D01*
X45850499Y-54932128D01*
X45844091Y-54872517D01*
X45793796Y-54737669D01*
X45707546Y-54622454D01*
X45592331Y-54536204D01*
X45539357Y-54516446D01*
X45512093Y-54506277D01*
X45456160Y-54464405D01*
X45431743Y-54398940D01*
X45446595Y-54330668D01*
X45464194Y-54306116D01*
X45558979Y-54203153D01*
X45685924Y-54008849D01*
X45779157Y-53796300D01*
X45836134Y-53571305D01*
X45855300Y-53340000D01*
X45836134Y-53108695D01*
X45779157Y-52883700D01*
X45685924Y-52671151D01*
X45558979Y-52476847D01*
X45401784Y-52306087D01*
X45218626Y-52163530D01*
X45014503Y-52053064D01*
X45014499Y-52053062D01*
X45014498Y-52053062D01*
X44794984Y-51977702D01*
X44623281Y-51949050D01*
X44566049Y-51939500D01*
X44333951Y-51939500D01*
X44288164Y-51947140D01*
X44105015Y-51977702D01*
X43885501Y-52053062D01*
X43681372Y-52163531D01*
X43498215Y-52306087D01*
X43341020Y-52476848D01*
X43214076Y-52671150D01*
X43120844Y-52883696D01*
X43063865Y-53108700D01*
X43044699Y-53340000D01*
X43063865Y-53571299D01*
X43063865Y-53571301D01*
X43063866Y-53571305D01*
X43120843Y-53796300D01*
X43214076Y-54008849D01*
X43341021Y-54203153D01*
X43435803Y-54306114D01*
X43466724Y-54368767D01*
X43458864Y-54438193D01*
X43414717Y-54492348D01*
X43387906Y-54506276D01*
X43307671Y-54536202D01*
X43192454Y-54622454D01*
X43106204Y-54737668D01*
X43055910Y-54872515D01*
X43055909Y-54872517D01*
X43049500Y-54932127D01*
X43049500Y-54935448D01*
X43049500Y-54935449D01*
X43049500Y-56824560D01*
X43049500Y-56824578D01*
X43049501Y-56827872D01*
X43049853Y-56831152D01*
X43049854Y-56831159D01*
X43055909Y-56887484D01*
X43061386Y-56902169D01*
X43066369Y-56971861D01*
X43032882Y-57033183D01*
X42971558Y-57066667D01*
X42945203Y-57069500D01*
X42285439Y-57069500D01*
X42285420Y-57069500D01*
X42282128Y-57069501D01*
X42278848Y-57069853D01*
X42278840Y-57069854D01*
X42222515Y-57075909D01*
X42087669Y-57126204D01*
X41972454Y-57212454D01*
X41886204Y-57327668D01*
X41873711Y-57361165D01*
X41835909Y-57462517D01*
X41829500Y-57522127D01*
X41829500Y-57525448D01*
X41829500Y-57525449D01*
X41829500Y-59314560D01*
X41829500Y-59314578D01*
X41829501Y-59317872D01*
X41829853Y-59321152D01*
X41829854Y-59321159D01*
X41835909Y-59377484D01*
X41861056Y-59444907D01*
X41886204Y-59512331D01*
X41972454Y-59627546D01*
X42087669Y-59713796D01*
X42222517Y-59764091D01*
X42282127Y-59770500D01*
X44077872Y-59770499D01*
X44137483Y-59764091D01*
X44272331Y-59713796D01*
X44387546Y-59627546D01*
X44473796Y-59512331D01*
X44522810Y-59380916D01*
X44564681Y-59324983D01*
X44630146Y-59300566D01*
X44698419Y-59315418D01*
X44726673Y-59336569D01*
X44848599Y-59458495D01*
X45042170Y-59594035D01*
X45256337Y-59693903D01*
X45484592Y-59755063D01*
X45720000Y-59775659D01*
X45955408Y-59755063D01*
X46183663Y-59693903D01*
X46397830Y-59594035D01*
X46591401Y-59458495D01*
X46758495Y-59291401D01*
X46888426Y-59105839D01*
X46943002Y-59062216D01*
X47012500Y-59055022D01*
X47074855Y-59086545D01*
X47091571Y-59105837D01*
X47221505Y-59291401D01*
X47388599Y-59458495D01*
X47582170Y-59594035D01*
X47796337Y-59693903D01*
X48024592Y-59755063D01*
X48260000Y-59775659D01*
X48495408Y-59755063D01*
X48723663Y-59693903D01*
X48937830Y-59594035D01*
X49131401Y-59458495D01*
X49298495Y-59291401D01*
X49428426Y-59105839D01*
X49483002Y-59062216D01*
X49552500Y-59055022D01*
X49614855Y-59086545D01*
X49631571Y-59105837D01*
X49761505Y-59291401D01*
X49928599Y-59458495D01*
X50122170Y-59594035D01*
X50336337Y-59693903D01*
X50564591Y-59755063D01*
X50564592Y-59755063D01*
X50799999Y-59775659D01*
X50799999Y-59775658D01*
X50800000Y-59775659D01*
X51035408Y-59755063D01*
X51263663Y-59693903D01*
X51477830Y-59594035D01*
X51671401Y-59458495D01*
X51838495Y-59291401D01*
X51968426Y-59105839D01*
X52023002Y-59062216D01*
X52092500Y-59055022D01*
X52154855Y-59086545D01*
X52171571Y-59105837D01*
X52301505Y-59291401D01*
X52468599Y-59458495D01*
X52662170Y-59594035D01*
X52876337Y-59693903D01*
X53104591Y-59755063D01*
X53104592Y-59755063D01*
X53339999Y-59775659D01*
X53339999Y-59775658D01*
X53340000Y-59775659D01*
X53575408Y-59755063D01*
X53803663Y-59693903D01*
X54017830Y-59594035D01*
X54211401Y-59458495D01*
X54378495Y-59291401D01*
X54508426Y-59105839D01*
X54563002Y-59062216D01*
X54632500Y-59055022D01*
X54694855Y-59086545D01*
X54711571Y-59105837D01*
X54841505Y-59291401D01*
X55008599Y-59458495D01*
X55202170Y-59594035D01*
X55416337Y-59693903D01*
X55644591Y-59755063D01*
X55644592Y-59755063D01*
X55879999Y-59775659D01*
X55879999Y-59775658D01*
X55880000Y-59775659D01*
X56115408Y-59755063D01*
X56343663Y-59693903D01*
X56557830Y-59594035D01*
X56751401Y-59458495D01*
X56918495Y-59291401D01*
X57048426Y-59105839D01*
X57103002Y-59062216D01*
X57172500Y-59055022D01*
X57234855Y-59086545D01*
X57251571Y-59105837D01*
X57381505Y-59291401D01*
X57548599Y-59458495D01*
X57742170Y-59594035D01*
X57956337Y-59693903D01*
X58184592Y-59755063D01*
X58262971Y-59761920D01*
X58328039Y-59787372D01*
X58369018Y-59843962D01*
X58372897Y-59913724D01*
X58339845Y-59973129D01*
X42903795Y-75409181D01*
X42842472Y-75442666D01*
X42816114Y-75445500D01*
X41847071Y-75445500D01*
X41780032Y-75425815D01*
X41743262Y-75389322D01*
X41708979Y-75336847D01*
X41551784Y-75166087D01*
X41368626Y-75023530D01*
X41164503Y-74913064D01*
X41164499Y-74913062D01*
X41164498Y-74913062D01*
X40944984Y-74837702D01*
X40773282Y-74809050D01*
X40716049Y-74799500D01*
X40483951Y-74799500D01*
X40438164Y-74807140D01*
X40255015Y-74837702D01*
X40035501Y-74913062D01*
X40035497Y-74913063D01*
X40035497Y-74913064D01*
X39985822Y-74939947D01*
X39831372Y-75023531D01*
X39648215Y-75166087D01*
X39547758Y-75275214D01*
X39491021Y-75336847D01*
X39456738Y-75389322D01*
X39453809Y-75393805D01*
X39400662Y-75439161D01*
X39331431Y-75448585D01*
X39268095Y-75419083D01*
X39246191Y-75393805D01*
X39208979Y-75336847D01*
X39051784Y-75166087D01*
X38868626Y-75023530D01*
X38664503Y-74913064D01*
X38664499Y-74913062D01*
X38664498Y-74913062D01*
X38444984Y-74837702D01*
X38273282Y-74809050D01*
X38216049Y-74799500D01*
X37983951Y-74799500D01*
X37938164Y-74807140D01*
X37755015Y-74837702D01*
X37535501Y-74913062D01*
X37535497Y-74913063D01*
X37535497Y-74913064D01*
X37485822Y-74939947D01*
X37331372Y-75023531D01*
X37148215Y-75166087D01*
X36991018Y-75336850D01*
X36953509Y-75394262D01*
X36900363Y-75439619D01*
X36831131Y-75449042D01*
X36767796Y-75419539D01*
X36753085Y-75402561D01*
X36751186Y-75402364D01*
X36083076Y-76070474D01*
X36059493Y-75990156D01*
X35981761Y-75869202D01*
X35873100Y-75775048D01*
X35742315Y-75715320D01*
X35732532Y-75713913D01*
X36398799Y-75047647D01*
X36368349Y-75023948D01*
X36164299Y-74913522D01*
X35944859Y-74838188D01*
X35716007Y-74800000D01*
X35483993Y-74800000D01*
X35255140Y-74838188D01*
X35035703Y-74913521D01*
X34831645Y-75023952D01*
X34801200Y-75047646D01*
X34801200Y-75047647D01*
X35467465Y-75713913D01*
X35457685Y-75715320D01*
X35326900Y-75775048D01*
X35218239Y-75869202D01*
X35140507Y-75990156D01*
X35116923Y-76070476D01*
X34448812Y-75402365D01*
X34364516Y-75531390D01*
X34271319Y-75743860D01*
X34214361Y-75968782D01*
X34195201Y-76200000D01*
X34214361Y-76431217D01*
X34271319Y-76656139D01*
X34364516Y-76868609D01*
X34448811Y-76997633D01*
X35116922Y-76329522D01*
X35140507Y-76409844D01*
X35218239Y-76530798D01*
X35326900Y-76624952D01*
X35457685Y-76684680D01*
X35467466Y-76686086D01*
X34801199Y-77352351D01*
X34831650Y-77376051D01*
X35035700Y-77486477D01*
X35255140Y-77561811D01*
X35483993Y-77600000D01*
X35716007Y-77600000D01*
X35944859Y-77561811D01*
X36164296Y-77486478D01*
X36368353Y-77376048D01*
X36398798Y-77352351D01*
X35732533Y-76686086D01*
X35742315Y-76684680D01*
X35873100Y-76624952D01*
X35981761Y-76530798D01*
X36059493Y-76409844D01*
X36083076Y-76329524D01*
X36751186Y-76997634D01*
X36755969Y-76997138D01*
X36799037Y-76960381D01*
X36868269Y-76950957D01*
X36931605Y-76980458D01*
X36953507Y-77005733D01*
X36991021Y-77063153D01*
X37148216Y-77233913D01*
X37331374Y-77376470D01*
X37535497Y-77486936D01*
X37645258Y-77524616D01*
X37755015Y-77562297D01*
X37755017Y-77562297D01*
X37755019Y-77562298D01*
X37983951Y-77600500D01*
X37983952Y-77600500D01*
X38216048Y-77600500D01*
X38216049Y-77600500D01*
X38444981Y-77562298D01*
X38664503Y-77486936D01*
X38868626Y-77376470D01*
X39051784Y-77233913D01*
X39208979Y-77063153D01*
X39246193Y-77006192D01*
X39299335Y-76960838D01*
X39368566Y-76951414D01*
X39431902Y-76980915D01*
X39453807Y-77006194D01*
X39456737Y-77010678D01*
X39491021Y-77063153D01*
X39648216Y-77233913D01*
X39831374Y-77376470D01*
X40035497Y-77486936D01*
X40145258Y-77524616D01*
X40255015Y-77562297D01*
X40255017Y-77562297D01*
X40255019Y-77562298D01*
X40483951Y-77600500D01*
X40483952Y-77600500D01*
X40716048Y-77600500D01*
X40716049Y-77600500D01*
X40944981Y-77562298D01*
X41164503Y-77486936D01*
X41368626Y-77376470D01*
X41538082Y-77244578D01*
X59499500Y-77244578D01*
X59499501Y-77247872D01*
X59499853Y-77251152D01*
X59499854Y-77251159D01*
X59505909Y-77307484D01*
X59522644Y-77352351D01*
X59556204Y-77442331D01*
X59642454Y-77557546D01*
X59757669Y-77643796D01*
X59892517Y-77694091D01*
X59952127Y-77700500D01*
X62047872Y-77700499D01*
X62107483Y-77694091D01*
X62242331Y-77643796D01*
X62357546Y-77557546D01*
X62443796Y-77442331D01*
X62443796Y-77442328D01*
X62445460Y-77440107D01*
X62501393Y-77398235D01*
X62571085Y-77393251D01*
X62620889Y-77416563D01*
X62676766Y-77460054D01*
X62895393Y-77578368D01*
X63130506Y-77659083D01*
X63375707Y-77700000D01*
X63624293Y-77700000D01*
X63869493Y-77659083D01*
X64104606Y-77578368D01*
X64323233Y-77460053D01*
X64370056Y-77423609D01*
X63632533Y-76686086D01*
X63642315Y-76684680D01*
X63773100Y-76624952D01*
X63881761Y-76530798D01*
X63959493Y-76409844D01*
X63983076Y-76329524D01*
X64732625Y-77079073D01*
X64766111Y-77085244D01*
X64803385Y-77118598D01*
X64804877Y-77117225D01*
X64811834Y-77124783D01*
X64811836Y-77124785D01*
X64980256Y-77307738D01*
X64980259Y-77307740D01*
X65176485Y-77460470D01*
X65176487Y-77460471D01*
X65176491Y-77460474D01*
X65395190Y-77578828D01*
X65630386Y-77659571D01*
X65875665Y-77700500D01*
X66124335Y-77700500D01*
X66369614Y-77659571D01*
X66604810Y-77578828D01*
X66823509Y-77460474D01*
X67019744Y-77307738D01*
X67188164Y-77124785D01*
X67324173Y-76916607D01*
X67424063Y-76688881D01*
X67485108Y-76447821D01*
X67505643Y-76200000D01*
X67485108Y-75952179D01*
X67424063Y-75711119D01*
X67324173Y-75483393D01*
X67188164Y-75275215D01*
X67019744Y-75092262D01*
X66962423Y-75047647D01*
X66823514Y-74939529D01*
X66823510Y-74939526D01*
X66823509Y-74939526D01*
X66604810Y-74821172D01*
X66604806Y-74821170D01*
X66604805Y-74821170D01*
X66369615Y-74740429D01*
X66124335Y-74699500D01*
X65875665Y-74699500D01*
X65630384Y-74740429D01*
X65395194Y-74821170D01*
X65176485Y-74939529D01*
X64980259Y-75092259D01*
X64980256Y-75092261D01*
X64980256Y-75092262D01*
X64922088Y-75155449D01*
X64804877Y-75282774D01*
X64803137Y-75281173D01*
X64760842Y-75317262D01*
X64731609Y-75321941D01*
X63983076Y-76070475D01*
X63959493Y-75990156D01*
X63881761Y-75869202D01*
X63773100Y-75775048D01*
X63642315Y-75715320D01*
X63632533Y-75713913D01*
X64370057Y-74976389D01*
X64370056Y-74976388D01*
X64323235Y-74939947D01*
X64104606Y-74821631D01*
X63869493Y-74740916D01*
X63624293Y-74700000D01*
X63375707Y-74700000D01*
X63130506Y-74740916D01*
X62895393Y-74821631D01*
X62676767Y-74939945D01*
X62620888Y-74983437D01*
X62555893Y-75009078D01*
X62487354Y-74995511D01*
X62445460Y-74959893D01*
X62443796Y-74957671D01*
X62443796Y-74957669D01*
X62357546Y-74842454D01*
X62351847Y-74838188D01*
X62242331Y-74756204D01*
X62107483Y-74705909D01*
X62051166Y-74699854D01*
X62051165Y-74699853D01*
X62047873Y-74699500D01*
X62044550Y-74699500D01*
X59955439Y-74699500D01*
X59955420Y-74699500D01*
X59952128Y-74699501D01*
X59948848Y-74699853D01*
X59948840Y-74699854D01*
X59892515Y-74705909D01*
X59757669Y-74756204D01*
X59642454Y-74842454D01*
X59556204Y-74957668D01*
X59522645Y-75047646D01*
X59505909Y-75092517D01*
X59499500Y-75152127D01*
X59499500Y-75155448D01*
X59499500Y-75155449D01*
X59499500Y-77244560D01*
X59499500Y-77244578D01*
X41538082Y-77244578D01*
X41551784Y-77233913D01*
X41708979Y-77063153D01*
X41743262Y-77010677D01*
X41796409Y-76965322D01*
X41847071Y-76954500D01*
X43116000Y-76954500D01*
X43133970Y-76955809D01*
X43137723Y-76956358D01*
X43157906Y-76959315D01*
X43207547Y-76954972D01*
X43218355Y-76954500D01*
X43220343Y-76954500D01*
X43223941Y-76954500D01*
X43227514Y-76954082D01*
X43227520Y-76954082D01*
X43250343Y-76951414D01*
X43254910Y-76950880D01*
X43258448Y-76950518D01*
X43333612Y-76943943D01*
X43333617Y-76943941D01*
X43334832Y-76943835D01*
X43354027Y-76939580D01*
X43355179Y-76939160D01*
X43355184Y-76939160D01*
X43426074Y-76913357D01*
X43429434Y-76912190D01*
X43501036Y-76888464D01*
X43501041Y-76888460D01*
X43502202Y-76888076D01*
X43519902Y-76879507D01*
X43520919Y-76878837D01*
X43520924Y-76878836D01*
X43583967Y-76837371D01*
X43586959Y-76835465D01*
X43651154Y-76795870D01*
X43651154Y-76795869D01*
X43652193Y-76795229D01*
X43667444Y-76782805D01*
X43668281Y-76781917D01*
X43668285Y-76781915D01*
X43720071Y-76727023D01*
X43722516Y-76724506D01*
X50202504Y-70244518D01*
X56150000Y-70244518D01*
X56150354Y-70251132D01*
X56156400Y-70307371D01*
X56206647Y-70442089D01*
X56292811Y-70557188D01*
X56407910Y-70643352D01*
X56542628Y-70693599D01*
X56598867Y-70699645D01*
X56605482Y-70700000D01*
X57650000Y-70700000D01*
X57650000Y-69918245D01*
X57747791Y-69943566D01*
X57950910Y-69953867D01*
X58150000Y-69923366D01*
X58150000Y-70700000D01*
X59194518Y-70700000D01*
X59201132Y-70699645D01*
X59257371Y-70693599D01*
X59392089Y-70643352D01*
X59507188Y-70557188D01*
X59593352Y-70442089D01*
X59643599Y-70307371D01*
X59649645Y-70251132D01*
X59650000Y-70244518D01*
X59650000Y-68950000D01*
X58900000Y-68950000D01*
X58900000Y-68450000D01*
X59650000Y-68450000D01*
X59650000Y-67155481D01*
X59649645Y-67148867D01*
X59643599Y-67092628D01*
X59593352Y-66957910D01*
X59507188Y-66842811D01*
X59392089Y-66756647D01*
X59257371Y-66706400D01*
X59201132Y-66700354D01*
X59194518Y-66700000D01*
X58150000Y-66700000D01*
X58150000Y-67481754D01*
X58052209Y-67456434D01*
X57849090Y-67446133D01*
X57650000Y-67476633D01*
X57650000Y-66700000D01*
X56605482Y-66700000D01*
X56598867Y-66700354D01*
X56542628Y-66706400D01*
X56407910Y-66756647D01*
X56292811Y-66842811D01*
X56206647Y-66957910D01*
X56156400Y-67092628D01*
X56150354Y-67148867D01*
X56150000Y-67155481D01*
X56150000Y-68450000D01*
X56900000Y-68450000D01*
X56900000Y-68950000D01*
X56150000Y-68950000D01*
X56150000Y-70244518D01*
X50202504Y-70244518D01*
X59375721Y-61071302D01*
X59437042Y-61037819D01*
X59506734Y-61042803D01*
X59562667Y-61084675D01*
X59587084Y-61150139D01*
X59578283Y-61201113D01*
X59578460Y-61201158D01*
X59577881Y-61203443D01*
X59576958Y-61208791D01*
X59575938Y-61211116D01*
X59514891Y-61452183D01*
X59494356Y-61700000D01*
X59514891Y-61947816D01*
X59514891Y-61947819D01*
X59514892Y-61947821D01*
X59575937Y-62188881D01*
X59581890Y-62202452D01*
X59675825Y-62416604D01*
X59675827Y-62416607D01*
X59811836Y-62624785D01*
X59980256Y-62807738D01*
X59980259Y-62807740D01*
X60176485Y-62960470D01*
X60176487Y-62960471D01*
X60176491Y-62960474D01*
X60395190Y-63078828D01*
X60630386Y-63159571D01*
X60875665Y-63200500D01*
X61124335Y-63200500D01*
X61369614Y-63159571D01*
X61604810Y-63078828D01*
X61823509Y-62960474D01*
X62019744Y-62807738D01*
X62188164Y-62624785D01*
X62324173Y-62416607D01*
X62424063Y-62188881D01*
X62485108Y-61947821D01*
X62505643Y-61700000D01*
X64494858Y-61700000D01*
X64515386Y-61947732D01*
X64576413Y-62188721D01*
X64676268Y-62416370D01*
X64776563Y-62569882D01*
X64776564Y-62569882D01*
X65516922Y-61829523D01*
X65540507Y-61909844D01*
X65618239Y-62030798D01*
X65726900Y-62124952D01*
X65857685Y-62184680D01*
X65867466Y-62186086D01*
X65129942Y-62923609D01*
X65129942Y-62923610D01*
X65176766Y-62960055D01*
X65395393Y-63078368D01*
X65630506Y-63159083D01*
X65875707Y-63200000D01*
X66124293Y-63200000D01*
X66369493Y-63159083D01*
X66604606Y-63078368D01*
X66823233Y-62960053D01*
X66870056Y-62923609D01*
X66132533Y-62186086D01*
X66142315Y-62184680D01*
X66273100Y-62124952D01*
X66381761Y-62030798D01*
X66459493Y-61909844D01*
X66483076Y-61829524D01*
X67223434Y-62569882D01*
X67323730Y-62416369D01*
X67423586Y-62188721D01*
X67484613Y-61947732D01*
X67505141Y-61700000D01*
X67484613Y-61452267D01*
X67423586Y-61211278D01*
X67323730Y-60983630D01*
X67223434Y-60830116D01*
X66483076Y-61570473D01*
X66459493Y-61490156D01*
X66381761Y-61369202D01*
X66273100Y-61275048D01*
X66142315Y-61215320D01*
X66132531Y-61213913D01*
X66870056Y-60476389D01*
X66870056Y-60476387D01*
X66823235Y-60439947D01*
X66604606Y-60321631D01*
X66369493Y-60240916D01*
X66124293Y-60200000D01*
X65875707Y-60200000D01*
X65630506Y-60240916D01*
X65395393Y-60321631D01*
X65176764Y-60439946D01*
X65129942Y-60476388D01*
X65129941Y-60476389D01*
X65867466Y-61213913D01*
X65857685Y-61215320D01*
X65726900Y-61275048D01*
X65618239Y-61369202D01*
X65540507Y-61490156D01*
X65516923Y-61570475D01*
X64776564Y-60830116D01*
X64676266Y-60983634D01*
X64576413Y-61211278D01*
X64515386Y-61452267D01*
X64494858Y-61700000D01*
X62505643Y-61700000D01*
X62485108Y-61452179D01*
X62424063Y-61211119D01*
X62324173Y-60983393D01*
X62188164Y-60775215D01*
X62019744Y-60592262D01*
X61870871Y-60476389D01*
X61823514Y-60439529D01*
X61823510Y-60439526D01*
X61823509Y-60439526D01*
X61604810Y-60321172D01*
X61604806Y-60321170D01*
X61604805Y-60321170D01*
X61369615Y-60240429D01*
X61124335Y-60199500D01*
X60875665Y-60199500D01*
X60630384Y-60240429D01*
X60491989Y-60287940D01*
X60422190Y-60291090D01*
X60361769Y-60256004D01*
X60329908Y-60193821D01*
X60336724Y-60124284D01*
X60364043Y-60082980D01*
X60601204Y-59845819D01*
X60662528Y-59812334D01*
X60688886Y-59809500D01*
X67581114Y-59809500D01*
X67648153Y-59829185D01*
X67668795Y-59845819D01*
X70329181Y-62506205D01*
X70362666Y-62567528D01*
X70365500Y-62593886D01*
X70365500Y-66576000D01*
X70345815Y-66643039D01*
X70293011Y-66688794D01*
X70241500Y-66700000D01*
X69350000Y-66700000D01*
X69350000Y-67481754D01*
X69252209Y-67456434D01*
X69049090Y-67446133D01*
X68850000Y-67476633D01*
X68850000Y-66700000D01*
X67805482Y-66700000D01*
X67798867Y-66700354D01*
X67742628Y-66706400D01*
X67607910Y-66756647D01*
X67492811Y-66842811D01*
X67406647Y-66957910D01*
X67356400Y-67092628D01*
X67350354Y-67148867D01*
X67350000Y-67155481D01*
X67350000Y-68450000D01*
X68100000Y-68450000D01*
X68100000Y-68950000D01*
X67350000Y-68950000D01*
X67350000Y-70244518D01*
X67350354Y-70251132D01*
X67356400Y-70307371D01*
X67406647Y-70442089D01*
X67492811Y-70557188D01*
X67607910Y-70643352D01*
X67742628Y-70693599D01*
X67798867Y-70699645D01*
X67805482Y-70700000D01*
X68850000Y-70700000D01*
X68850000Y-69918245D01*
X68947791Y-69943566D01*
X69150910Y-69953867D01*
X69350000Y-69923366D01*
X69350000Y-70700000D01*
X70241500Y-70700000D01*
X70308539Y-70719685D01*
X70354294Y-70772489D01*
X70365500Y-70824000D01*
X70365500Y-93430908D01*
X70345815Y-93497947D01*
X70293011Y-93543702D01*
X70223853Y-93553646D01*
X70160297Y-93524621D01*
X70122523Y-93465843D01*
X70120467Y-93457870D01*
X70085901Y-93302704D01*
X69988637Y-93048398D01*
X69855384Y-92810967D01*
X69688981Y-92595465D01*
X69492977Y-92406494D01*
X69271536Y-92248066D01*
X69029406Y-92123579D01*
X68771709Y-92035665D01*
X68550000Y-91994713D01*
X68550000Y-93255147D01*
X68412953Y-93206441D01*
X68262114Y-93196123D01*
X68114085Y-93226884D01*
X68050000Y-93260090D01*
X68050000Y-91996281D01*
X67961250Y-92006048D01*
X67697837Y-92074911D01*
X67447257Y-92181397D01*
X67214845Y-92323236D01*
X67005571Y-92497396D01*
X66823877Y-92700178D01*
X66673648Y-92927251D01*
X66558084Y-93173768D01*
X66479643Y-93434498D01*
X66440000Y-93703869D01*
X66440000Y-93850000D01*
X67750000Y-93850000D01*
X67750000Y-94350000D01*
X66440000Y-94350000D01*
X66440000Y-94425712D01*
X66440165Y-94430234D01*
X66454898Y-94631543D01*
X66514098Y-94897295D01*
X66611362Y-95151601D01*
X66744615Y-95389032D01*
X66911018Y-95604534D01*
X67107022Y-95793505D01*
X67328463Y-95951933D01*
X67570593Y-96076420D01*
X67828291Y-96164334D01*
X68050000Y-96205285D01*
X68050000Y-94944852D01*
X68187047Y-94993559D01*
X68337886Y-95003877D01*
X68485915Y-94973116D01*
X68550000Y-94939909D01*
X68550000Y-96203716D01*
X68550001Y-96203717D01*
X68638748Y-96193952D01*
X68902162Y-96125088D01*
X69152742Y-96018602D01*
X69385154Y-95876763D01*
X69594428Y-95702603D01*
X69776122Y-95499821D01*
X69926351Y-95272748D01*
X70041915Y-95026231D01*
X70122757Y-94757522D01*
X70160921Y-94698996D01*
X70224668Y-94670394D01*
X70293759Y-94680796D01*
X70346258Y-94726901D01*
X70365500Y-94793246D01*
X70365500Y-108856113D01*
X70345815Y-108923152D01*
X70329181Y-108943794D01*
X66346299Y-112926675D01*
X66284976Y-112960160D01*
X66247810Y-112962522D01*
X66039999Y-112944340D01*
X65804592Y-112964936D01*
X65576336Y-113026097D01*
X65362170Y-113125965D01*
X65168598Y-113261505D01*
X65001505Y-113428598D01*
X64871575Y-113614159D01*
X64816998Y-113657784D01*
X64747500Y-113664978D01*
X64685145Y-113633455D01*
X64668425Y-113614159D01*
X64538494Y-113428598D01*
X64371404Y-113261508D01*
X64371403Y-113261507D01*
X64371401Y-113261505D01*
X64177830Y-113125965D01*
X63963663Y-113026097D01*
X63902501Y-113009709D01*
X63735407Y-112964936D01*
X63499999Y-112944340D01*
X63264592Y-112964936D01*
X63036336Y-113026097D01*
X62822170Y-113125965D01*
X62628598Y-113261505D01*
X62461508Y-113428595D01*
X62461505Y-113428598D01*
X62461505Y-113428599D01*
X62384465Y-113538625D01*
X62331270Y-113614595D01*
X62276693Y-113658219D01*
X62207194Y-113665412D01*
X62144840Y-113633890D01*
X62128120Y-113614595D01*
X62074925Y-113538626D01*
X62074925Y-113538625D01*
X61443076Y-114170474D01*
X61419493Y-114090156D01*
X61341761Y-113969202D01*
X61233100Y-113875048D01*
X61102315Y-113815320D01*
X61092533Y-113813913D01*
X61721373Y-113185073D01*
X61721373Y-113185072D01*
X61637580Y-113126400D01*
X61423492Y-113026569D01*
X61195318Y-112965430D01*
X60960000Y-112944842D01*
X60724681Y-112965430D01*
X60496507Y-113026569D01*
X60282422Y-113126399D01*
X60198625Y-113185072D01*
X60827466Y-113813913D01*
X60817685Y-113815320D01*
X60686900Y-113875048D01*
X60578239Y-113969202D01*
X60500507Y-114090156D01*
X60476923Y-114170476D01*
X59845072Y-113538625D01*
X59786399Y-113622422D01*
X59686569Y-113836507D01*
X59625430Y-114064681D01*
X59604842Y-114300000D01*
X59625430Y-114535318D01*
X59686569Y-114763493D01*
X59687785Y-114766099D01*
X59688460Y-114770549D01*
X59689377Y-114773969D01*
X59688995Y-114774071D01*
X59698274Y-114835177D01*
X59669753Y-114898960D01*
X59611275Y-114937197D01*
X59575401Y-114942500D01*
X54921282Y-114942500D01*
X54854243Y-114922815D01*
X54833601Y-114906181D01*
X51302375Y-111374956D01*
X51289439Y-111358809D01*
X51238153Y-111310648D01*
X51235356Y-111307937D01*
X51218558Y-111291139D01*
X51215796Y-111288377D01*
X51212714Y-111285987D01*
X51212710Y-111285983D01*
X51212604Y-111285901D01*
X51203716Y-111278310D01*
X51171767Y-111248307D01*
X51169465Y-111247041D01*
X51154120Y-111238605D01*
X51137858Y-111227922D01*
X51121963Y-111215592D01*
X51081736Y-111198184D01*
X51071248Y-111193046D01*
X51032831Y-111171926D01*
X51013337Y-111166921D01*
X50994933Y-111160620D01*
X50976458Y-111152625D01*
X50933171Y-111145769D01*
X50921736Y-111143401D01*
X50879274Y-111132500D01*
X50879272Y-111132500D01*
X50859142Y-111132500D01*
X50839743Y-111130973D01*
X50819868Y-111127825D01*
X50819867Y-111127825D01*
X50799261Y-111129772D01*
X50776230Y-111131950D01*
X50764561Y-111132500D01*
X33331281Y-111132500D01*
X33264242Y-111112815D01*
X33243600Y-111096181D01*
X31367419Y-109220000D01*
X32984531Y-109220000D01*
X33004364Y-109446689D01*
X33063261Y-109666497D01*
X33159432Y-109872735D01*
X33289953Y-110059140D01*
X33450859Y-110220046D01*
X33637264Y-110350567D01*
X33637265Y-110350567D01*
X33637266Y-110350568D01*
X33843504Y-110446739D01*
X34063308Y-110505635D01*
X34214435Y-110518856D01*
X34289999Y-110525468D01*
X34289999Y-110525467D01*
X34290000Y-110525468D01*
X34516692Y-110505635D01*
X34736496Y-110446739D01*
X34942734Y-110350568D01*
X35129139Y-110220047D01*
X35290047Y-110059139D01*
X35420568Y-109872734D01*
X35516739Y-109666496D01*
X35575635Y-109446692D01*
X35595468Y-109220000D01*
X40604531Y-109220000D01*
X40624364Y-109446689D01*
X40683261Y-109666497D01*
X40779432Y-109872735D01*
X40909953Y-110059140D01*
X41070859Y-110220046D01*
X41257264Y-110350567D01*
X41257265Y-110350567D01*
X41257266Y-110350568D01*
X41463504Y-110446739D01*
X41683308Y-110505635D01*
X41834436Y-110518856D01*
X41909999Y-110525468D01*
X41909999Y-110525467D01*
X41910000Y-110525468D01*
X42136692Y-110505635D01*
X42356496Y-110446739D01*
X42562734Y-110350568D01*
X42749139Y-110220047D01*
X42910047Y-110059139D01*
X43021212Y-109900376D01*
X43075788Y-109856752D01*
X43122787Y-109847500D01*
X53297034Y-109847500D01*
X53317601Y-109849770D01*
X53320475Y-109849679D01*
X53320477Y-109849680D01*
X53387918Y-109847561D01*
X53391813Y-109847500D01*
X53415574Y-109847500D01*
X53419476Y-109847500D01*
X53423482Y-109846993D01*
X53435113Y-109846077D01*
X53478943Y-109844701D01*
X53498280Y-109839082D01*
X53517321Y-109835138D01*
X53537293Y-109832616D01*
X53578055Y-109816476D01*
X53589092Y-109812698D01*
X53631191Y-109800468D01*
X53648510Y-109790224D01*
X53665994Y-109781659D01*
X53684703Y-109774253D01*
X53720168Y-109748485D01*
X53729915Y-109742081D01*
X53767656Y-109719763D01*
X53781892Y-109705526D01*
X53796679Y-109692896D01*
X53812967Y-109681063D01*
X53840904Y-109647290D01*
X53848756Y-109638661D01*
X54267417Y-109220000D01*
X58384531Y-109220000D01*
X58404364Y-109446689D01*
X58463261Y-109666497D01*
X58559432Y-109872735D01*
X58689953Y-110059140D01*
X58850859Y-110220046D01*
X59037264Y-110350567D01*
X59037265Y-110350567D01*
X59037266Y-110350568D01*
X59243504Y-110446739D01*
X59463308Y-110505635D01*
X59690000Y-110525468D01*
X59916692Y-110505635D01*
X60136496Y-110446739D01*
X60342734Y-110350568D01*
X60529139Y-110220047D01*
X60690047Y-110059139D01*
X60820568Y-109872734D01*
X60916739Y-109666496D01*
X60969390Y-109470000D01*
X66031128Y-109470000D01*
X66083733Y-109666326D01*
X66179865Y-109872480D01*
X66310341Y-110058819D01*
X66471180Y-110219658D01*
X66657519Y-110350134D01*
X66863673Y-110446266D01*
X67059999Y-110498871D01*
X67060000Y-110498871D01*
X67060000Y-109535686D01*
X67071955Y-109547641D01*
X67184852Y-109605165D01*
X67278519Y-109620000D01*
X67341481Y-109620000D01*
X67435148Y-109605165D01*
X67548045Y-109547641D01*
X67560000Y-109535686D01*
X67560000Y-110498871D01*
X67756326Y-110446266D01*
X67962480Y-110350134D01*
X68148819Y-110219658D01*
X68309658Y-110058819D01*
X68440134Y-109872480D01*
X68536266Y-109666326D01*
X68588872Y-109470000D01*
X67625686Y-109470000D01*
X67637641Y-109458045D01*
X67695165Y-109345148D01*
X67714986Y-109220000D01*
X67695165Y-109094852D01*
X67637641Y-108981955D01*
X67625686Y-108970000D01*
X68588872Y-108970000D01*
X68588871Y-108969999D01*
X68536266Y-108773673D01*
X68440134Y-108567519D01*
X68309658Y-108381180D01*
X68148819Y-108220341D01*
X67962480Y-108089865D01*
X67756326Y-107993733D01*
X67560000Y-107941126D01*
X67560000Y-108904314D01*
X67548045Y-108892359D01*
X67435148Y-108834835D01*
X67341481Y-108820000D01*
X67278519Y-108820000D01*
X67184852Y-108834835D01*
X67071955Y-108892359D01*
X67060000Y-108904314D01*
X67060000Y-107941127D01*
X67059999Y-107941126D01*
X66863673Y-107993733D01*
X66657519Y-108089865D01*
X66471180Y-108220341D01*
X66310341Y-108381180D01*
X66179865Y-108567519D01*
X66083733Y-108773673D01*
X66031128Y-108969999D01*
X66031128Y-108970000D01*
X66994314Y-108970000D01*
X66982359Y-108981955D01*
X66924835Y-109094852D01*
X66905014Y-109220000D01*
X66924835Y-109345148D01*
X66982359Y-109458045D01*
X66994314Y-109470000D01*
X66031128Y-109470000D01*
X60969390Y-109470000D01*
X60975635Y-109446692D01*
X60995468Y-109220000D01*
X60994663Y-109210804D01*
X60975635Y-108993310D01*
X60975635Y-108993308D01*
X60916739Y-108773504D01*
X60820568Y-108567266D01*
X60812807Y-108556181D01*
X60690046Y-108380859D01*
X60529140Y-108219953D01*
X60342735Y-108089432D01*
X60136497Y-107993261D01*
X59916689Y-107934364D01*
X59690000Y-107914531D01*
X59463310Y-107934364D01*
X59243502Y-107993261D01*
X59037264Y-108089432D01*
X58850859Y-108219953D01*
X58689953Y-108380859D01*
X58559432Y-108567264D01*
X58463261Y-108773502D01*
X58404364Y-108993310D01*
X58384531Y-109220000D01*
X54267417Y-109220000D01*
X60503586Y-102983831D01*
X60564907Y-102950348D01*
X60631529Y-102954233D01*
X60655019Y-102962298D01*
X60883951Y-103000500D01*
X60883952Y-103000500D01*
X61116048Y-103000500D01*
X61116049Y-103000500D01*
X61344981Y-102962298D01*
X61564503Y-102886936D01*
X61768626Y-102776470D01*
X61951784Y-102633913D01*
X62108979Y-102463153D01*
X62146193Y-102406192D01*
X62199335Y-102360838D01*
X62268566Y-102351414D01*
X62331902Y-102380915D01*
X62353807Y-102406194D01*
X62391018Y-102463149D01*
X62391021Y-102463153D01*
X62548216Y-102633913D01*
X62731374Y-102776470D01*
X62935497Y-102886936D01*
X63045257Y-102924616D01*
X63155015Y-102962297D01*
X63155017Y-102962297D01*
X63155019Y-102962298D01*
X63383951Y-103000500D01*
X63383952Y-103000500D01*
X63616048Y-103000500D01*
X63616049Y-103000500D01*
X63844981Y-102962298D01*
X64064503Y-102886936D01*
X64268626Y-102776470D01*
X64451784Y-102633913D01*
X64608979Y-102463153D01*
X64646489Y-102405738D01*
X64699635Y-102360382D01*
X64768866Y-102350958D01*
X64832202Y-102380460D01*
X64846914Y-102397437D01*
X64848811Y-102397634D01*
X65516922Y-101729523D01*
X65540507Y-101809844D01*
X65618239Y-101930798D01*
X65726900Y-102024952D01*
X65857685Y-102084680D01*
X65867466Y-102086086D01*
X65201199Y-102752351D01*
X65231650Y-102776051D01*
X65435700Y-102886477D01*
X65655140Y-102961811D01*
X65883993Y-103000000D01*
X66116007Y-103000000D01*
X66344859Y-102961811D01*
X66564296Y-102886478D01*
X66768353Y-102776048D01*
X66798798Y-102752351D01*
X66132533Y-102086086D01*
X66142315Y-102084680D01*
X66273100Y-102024952D01*
X66381761Y-101930798D01*
X66459493Y-101809844D01*
X66483076Y-101729524D01*
X67151186Y-102397634D01*
X67235483Y-102268607D01*
X67328680Y-102056138D01*
X67385638Y-101831217D01*
X67404798Y-101599999D01*
X67385638Y-101368782D01*
X67328680Y-101143860D01*
X67235484Y-100931392D01*
X67151186Y-100802364D01*
X66483076Y-101470474D01*
X66459493Y-101390156D01*
X66381761Y-101269202D01*
X66273100Y-101175048D01*
X66142315Y-101115320D01*
X66132534Y-101113913D01*
X66798799Y-100447648D01*
X66798799Y-100447647D01*
X66768349Y-100423948D01*
X66564299Y-100313522D01*
X66344859Y-100238188D01*
X66116007Y-100200000D01*
X65883993Y-100200000D01*
X65655140Y-100238188D01*
X65435703Y-100313521D01*
X65231645Y-100423952D01*
X65201200Y-100447646D01*
X65201200Y-100447647D01*
X65867466Y-101113913D01*
X65857685Y-101115320D01*
X65726900Y-101175048D01*
X65618239Y-101269202D01*
X65540507Y-101390156D01*
X65516923Y-101470476D01*
X64848811Y-100802364D01*
X64844029Y-100802860D01*
X64800957Y-100839618D01*
X64731726Y-100849040D01*
X64668391Y-100819538D01*
X64646491Y-100794263D01*
X64608979Y-100736847D01*
X64451784Y-100566087D01*
X64268626Y-100423530D01*
X64064503Y-100313064D01*
X64064499Y-100313062D01*
X64064498Y-100313062D01*
X63844984Y-100237702D01*
X63673281Y-100209050D01*
X63616049Y-100199500D01*
X63383951Y-100199500D01*
X63338164Y-100207140D01*
X63155015Y-100237702D01*
X62935501Y-100313062D01*
X62731372Y-100423531D01*
X62548215Y-100566087D01*
X62402590Y-100724279D01*
X62391021Y-100736847D01*
X62353810Y-100793804D01*
X62353809Y-100793805D01*
X62300662Y-100839161D01*
X62231431Y-100848585D01*
X62168095Y-100819083D01*
X62146191Y-100793805D01*
X62108979Y-100736847D01*
X61951784Y-100566087D01*
X61768626Y-100423530D01*
X61564503Y-100313064D01*
X61564499Y-100313062D01*
X61564498Y-100313062D01*
X61344984Y-100237702D01*
X61173282Y-100209050D01*
X61116049Y-100199500D01*
X60883951Y-100199500D01*
X60838164Y-100207140D01*
X60655015Y-100237702D01*
X60435501Y-100313062D01*
X60231372Y-100423531D01*
X60048215Y-100566087D01*
X59891020Y-100736848D01*
X59764076Y-100931150D01*
X59670844Y-101143696D01*
X59613865Y-101368700D01*
X59594699Y-101600000D01*
X59613865Y-101831300D01*
X59613865Y-101831303D01*
X59613866Y-101831305D01*
X59650604Y-101976379D01*
X59647979Y-102046199D01*
X59618079Y-102094500D01*
X53156400Y-108556181D01*
X53095077Y-108589666D01*
X53068719Y-108592500D01*
X43122787Y-108592500D01*
X43055748Y-108572815D01*
X43021212Y-108539623D01*
X42910046Y-108380859D01*
X42749140Y-108219953D01*
X42562735Y-108089432D01*
X42356497Y-107993261D01*
X42136689Y-107934364D01*
X41909999Y-107914531D01*
X41683310Y-107934364D01*
X41463502Y-107993261D01*
X41257264Y-108089432D01*
X41070859Y-108219953D01*
X40909953Y-108380859D01*
X40779432Y-108567264D01*
X40683261Y-108773502D01*
X40624364Y-108993310D01*
X40604531Y-109220000D01*
X35595468Y-109220000D01*
X35575635Y-108993308D01*
X35516739Y-108773504D01*
X35420568Y-108567266D01*
X35412807Y-108556181D01*
X35290046Y-108380859D01*
X35129140Y-108219953D01*
X34942735Y-108089432D01*
X34736497Y-107993261D01*
X34516689Y-107934364D01*
X34289999Y-107914531D01*
X34063310Y-107934364D01*
X33843502Y-107993261D01*
X33637264Y-108089432D01*
X33450859Y-108219953D01*
X33289953Y-108380859D01*
X33159432Y-108567264D01*
X33063261Y-108773502D01*
X33004364Y-108993310D01*
X32984531Y-109220000D01*
X31367419Y-109220000D01*
X28603819Y-106456400D01*
X28570334Y-106395077D01*
X28567500Y-106368719D01*
X28567500Y-101600000D01*
X34194699Y-101600000D01*
X34213865Y-101831299D01*
X34213865Y-101831301D01*
X34213866Y-101831305D01*
X34268285Y-102046199D01*
X34270844Y-102056303D01*
X34350000Y-102236759D01*
X34364076Y-102268849D01*
X34491021Y-102463153D01*
X34648216Y-102633913D01*
X34831374Y-102776470D01*
X35035497Y-102886936D01*
X35145258Y-102924616D01*
X35255015Y-102962297D01*
X35255017Y-102962297D01*
X35255019Y-102962298D01*
X35483951Y-103000500D01*
X35483952Y-103000500D01*
X35716048Y-103000500D01*
X35716049Y-103000500D01*
X35944981Y-102962298D01*
X36164503Y-102886936D01*
X36368626Y-102776470D01*
X36551784Y-102633913D01*
X36708979Y-102463153D01*
X36746192Y-102406194D01*
X36799337Y-102360838D01*
X36868568Y-102351414D01*
X36931904Y-102380916D01*
X36953807Y-102406192D01*
X36991021Y-102463153D01*
X37148216Y-102633913D01*
X37331374Y-102776470D01*
X37535497Y-102886936D01*
X37645257Y-102924616D01*
X37755015Y-102962297D01*
X37755017Y-102962297D01*
X37755019Y-102962298D01*
X37983951Y-103000500D01*
X37983952Y-103000500D01*
X38216048Y-103000500D01*
X38216049Y-103000500D01*
X38444981Y-102962298D01*
X38664503Y-102886936D01*
X38868626Y-102776470D01*
X39051784Y-102633913D01*
X39208979Y-102463153D01*
X39246193Y-102406192D01*
X39299335Y-102360838D01*
X39368566Y-102351414D01*
X39431902Y-102380915D01*
X39453807Y-102406194D01*
X39491018Y-102463149D01*
X39491021Y-102463153D01*
X39648216Y-102633913D01*
X39831374Y-102776470D01*
X40035497Y-102886936D01*
X40145257Y-102924616D01*
X40255015Y-102962297D01*
X40255017Y-102962297D01*
X40255019Y-102962298D01*
X40483951Y-103000500D01*
X40483952Y-103000500D01*
X40716048Y-103000500D01*
X40716049Y-103000500D01*
X40944981Y-102962298D01*
X41164503Y-102886936D01*
X41368626Y-102776470D01*
X41551784Y-102633913D01*
X41708979Y-102463153D01*
X41835924Y-102268849D01*
X41929157Y-102056300D01*
X41986134Y-101831305D01*
X42005300Y-101600000D01*
X41986134Y-101368695D01*
X41929157Y-101143700D01*
X41835924Y-100931151D01*
X41708979Y-100736847D01*
X41551784Y-100566087D01*
X41368626Y-100423530D01*
X41164503Y-100313064D01*
X41164499Y-100313062D01*
X41164498Y-100313062D01*
X40944984Y-100237702D01*
X40773282Y-100209050D01*
X40716049Y-100199500D01*
X40483951Y-100199500D01*
X40438164Y-100207140D01*
X40255015Y-100237702D01*
X40035501Y-100313062D01*
X39831372Y-100423531D01*
X39648215Y-100566087D01*
X39502590Y-100724279D01*
X39491021Y-100736847D01*
X39453810Y-100793804D01*
X39453809Y-100793805D01*
X39400662Y-100839161D01*
X39331431Y-100848585D01*
X39268095Y-100819083D01*
X39246191Y-100793805D01*
X39208979Y-100736847D01*
X39051784Y-100566087D01*
X38868626Y-100423530D01*
X38664503Y-100313064D01*
X38664499Y-100313062D01*
X38664498Y-100313062D01*
X38444984Y-100237702D01*
X38273281Y-100209050D01*
X38216049Y-100199500D01*
X37983951Y-100199500D01*
X37938164Y-100207140D01*
X37755015Y-100237702D01*
X37535501Y-100313062D01*
X37331372Y-100423531D01*
X37148215Y-100566087D01*
X36991020Y-100736847D01*
X36953807Y-100793806D01*
X36900660Y-100839162D01*
X36831428Y-100848585D01*
X36768093Y-100819082D01*
X36746191Y-100793805D01*
X36708979Y-100736847D01*
X36551784Y-100566087D01*
X36368626Y-100423530D01*
X36164503Y-100313064D01*
X36164499Y-100313062D01*
X36164498Y-100313062D01*
X35944984Y-100237702D01*
X35773281Y-100209050D01*
X35716049Y-100199500D01*
X35483951Y-100199500D01*
X35438164Y-100207140D01*
X35255015Y-100237702D01*
X35035501Y-100313062D01*
X34831372Y-100423531D01*
X34648215Y-100566087D01*
X34491020Y-100736848D01*
X34364076Y-100931150D01*
X34270844Y-101143696D01*
X34213865Y-101368700D01*
X34194699Y-101600000D01*
X28567500Y-101600000D01*
X28567500Y-97793826D01*
X28587185Y-97726787D01*
X28620375Y-97692252D01*
X28811401Y-97558495D01*
X28978495Y-97391401D01*
X29114035Y-97197830D01*
X29213903Y-96983663D01*
X29275063Y-96755408D01*
X29295659Y-96520000D01*
X29275063Y-96284592D01*
X29213903Y-96056337D01*
X29114035Y-95842171D01*
X28978495Y-95648599D01*
X28811401Y-95481505D01*
X28625839Y-95351573D01*
X28582215Y-95296997D01*
X28575023Y-95227498D01*
X28606545Y-95165144D01*
X28625831Y-95148432D01*
X28811401Y-95018495D01*
X28978495Y-94851401D01*
X29114035Y-94657830D01*
X29213903Y-94443663D01*
X29218713Y-94425712D01*
X31440000Y-94425712D01*
X31440165Y-94430234D01*
X31454898Y-94631543D01*
X31514098Y-94897295D01*
X31611362Y-95151601D01*
X31744615Y-95389032D01*
X31911018Y-95604534D01*
X32107022Y-95793505D01*
X32328463Y-95951933D01*
X32570593Y-96076420D01*
X32828291Y-96164334D01*
X33049999Y-96205285D01*
X33050000Y-96205285D01*
X33050000Y-94944852D01*
X33187047Y-94993559D01*
X33337886Y-95003877D01*
X33485915Y-94973116D01*
X33550000Y-94939909D01*
X33550000Y-96203716D01*
X33550001Y-96203717D01*
X33638748Y-96193952D01*
X33902162Y-96125088D01*
X34152742Y-96018602D01*
X34385154Y-95876763D01*
X34594428Y-95702603D01*
X34776122Y-95499821D01*
X34926351Y-95272748D01*
X35041915Y-95026231D01*
X35120356Y-94765501D01*
X35160000Y-94496130D01*
X35160000Y-94425712D01*
X41040000Y-94425712D01*
X41040165Y-94430234D01*
X41054898Y-94631543D01*
X41114098Y-94897295D01*
X41211362Y-95151601D01*
X41344615Y-95389032D01*
X41511018Y-95604534D01*
X41707022Y-95793505D01*
X41928463Y-95951933D01*
X42170593Y-96076420D01*
X42428291Y-96164334D01*
X42649999Y-96205285D01*
X42650000Y-96205285D01*
X42650000Y-94944852D01*
X42787047Y-94993559D01*
X42937886Y-95003877D01*
X43085915Y-94973116D01*
X43150000Y-94939909D01*
X43150000Y-96203716D01*
X43150001Y-96203717D01*
X43238748Y-96193952D01*
X43502162Y-96125088D01*
X43752742Y-96018602D01*
X43985154Y-95876763D01*
X44194428Y-95702603D01*
X44376122Y-95499821D01*
X44526351Y-95272748D01*
X44641915Y-95026231D01*
X44720356Y-94765501D01*
X44760000Y-94496130D01*
X44760000Y-94425712D01*
X56840000Y-94425712D01*
X56840165Y-94430234D01*
X56854898Y-94631543D01*
X56914098Y-94897295D01*
X57011362Y-95151601D01*
X57144615Y-95389032D01*
X57311018Y-95604534D01*
X57507022Y-95793505D01*
X57728463Y-95951933D01*
X57970593Y-96076420D01*
X58228291Y-96164334D01*
X58449999Y-96205285D01*
X58450000Y-96205285D01*
X58450000Y-94944852D01*
X58587047Y-94993559D01*
X58737886Y-95003877D01*
X58885915Y-94973116D01*
X58949999Y-94939910D01*
X58949999Y-96203716D01*
X58950001Y-96203717D01*
X59038748Y-96193952D01*
X59302162Y-96125088D01*
X59552742Y-96018602D01*
X59785154Y-95876763D01*
X59994428Y-95702603D01*
X60176122Y-95499821D01*
X60326351Y-95272748D01*
X60441915Y-95026231D01*
X60520356Y-94765501D01*
X60560000Y-94496130D01*
X60560000Y-94350000D01*
X59250000Y-94350000D01*
X59250000Y-93850000D01*
X60560000Y-93850000D01*
X60560000Y-93774287D01*
X60559834Y-93769765D01*
X60545101Y-93568456D01*
X60485901Y-93302704D01*
X60388637Y-93048398D01*
X60255384Y-92810967D01*
X60088981Y-92595465D01*
X59892977Y-92406494D01*
X59671536Y-92248066D01*
X59429406Y-92123579D01*
X59171709Y-92035665D01*
X58949999Y-91994713D01*
X58949999Y-93255147D01*
X58812953Y-93206441D01*
X58662114Y-93196123D01*
X58514085Y-93226884D01*
X58450000Y-93260090D01*
X58450000Y-91996281D01*
X58361250Y-92006048D01*
X58097837Y-92074911D01*
X57847257Y-92181397D01*
X57614845Y-92323236D01*
X57405571Y-92497396D01*
X57223877Y-92700178D01*
X57073648Y-92927251D01*
X56958084Y-93173768D01*
X56879643Y-93434498D01*
X56840000Y-93703869D01*
X56840000Y-93850000D01*
X58150000Y-93850000D01*
X58150000Y-94350000D01*
X56840000Y-94350000D01*
X56840000Y-94425712D01*
X44760000Y-94425712D01*
X44760000Y-94350000D01*
X43450000Y-94350000D01*
X43450000Y-93850000D01*
X44760000Y-93850000D01*
X44760000Y-93774287D01*
X44759834Y-93769765D01*
X44745101Y-93568456D01*
X44685901Y-93302704D01*
X44588637Y-93048398D01*
X44455384Y-92810967D01*
X44288981Y-92595465D01*
X44092977Y-92406494D01*
X43871536Y-92248066D01*
X43629406Y-92123579D01*
X43371709Y-92035665D01*
X43150000Y-91994713D01*
X43150000Y-93255147D01*
X43012953Y-93206441D01*
X42862114Y-93196123D01*
X42714085Y-93226884D01*
X42650000Y-93260090D01*
X42650000Y-91996281D01*
X42561250Y-92006048D01*
X42297837Y-92074911D01*
X42047257Y-92181397D01*
X41814845Y-92323236D01*
X41605571Y-92497396D01*
X41423877Y-92700178D01*
X41273648Y-92927251D01*
X41158084Y-93173768D01*
X41079643Y-93434498D01*
X41040000Y-93703869D01*
X41040000Y-93850000D01*
X42350000Y-93850000D01*
X42350000Y-94350000D01*
X41040000Y-94350000D01*
X41040000Y-94425712D01*
X35160000Y-94425712D01*
X35160000Y-94350000D01*
X33850000Y-94350000D01*
X33850000Y-93850000D01*
X35160000Y-93850000D01*
X35160000Y-93774287D01*
X35159834Y-93769765D01*
X35145101Y-93568456D01*
X35085901Y-93302704D01*
X34988637Y-93048398D01*
X34855384Y-92810967D01*
X34688981Y-92595465D01*
X34492977Y-92406494D01*
X34271536Y-92248066D01*
X34029406Y-92123579D01*
X33771709Y-92035665D01*
X33550000Y-91994713D01*
X33550000Y-93255147D01*
X33412953Y-93206441D01*
X33262114Y-93196123D01*
X33114085Y-93226884D01*
X33049999Y-93260090D01*
X33050000Y-91996281D01*
X32961250Y-92006048D01*
X32697837Y-92074911D01*
X32447257Y-92181397D01*
X32214845Y-92323236D01*
X32005571Y-92497396D01*
X31823877Y-92700178D01*
X31673648Y-92927251D01*
X31558084Y-93173768D01*
X31479643Y-93434498D01*
X31440000Y-93703869D01*
X31440000Y-93850000D01*
X32750000Y-93850000D01*
X32750000Y-94350000D01*
X31440000Y-94350000D01*
X31440000Y-94425712D01*
X29218713Y-94425712D01*
X29275063Y-94215408D01*
X29295659Y-93980000D01*
X29275063Y-93744592D01*
X29213903Y-93516337D01*
X29114035Y-93302171D01*
X28978495Y-93108599D01*
X28811401Y-92941505D01*
X28625839Y-92811573D01*
X28582216Y-92756998D01*
X28575022Y-92687500D01*
X28606545Y-92625145D01*
X28625837Y-92608428D01*
X28811401Y-92478495D01*
X28978495Y-92311401D01*
X29114035Y-92117830D01*
X29213903Y-91903663D01*
X29275063Y-91675408D01*
X29295659Y-91440000D01*
X29275063Y-91204592D01*
X29213903Y-90976337D01*
X29114035Y-90762171D01*
X28978495Y-90568599D01*
X28811401Y-90401505D01*
X28625839Y-90271573D01*
X28582216Y-90216998D01*
X28575022Y-90147500D01*
X28606545Y-90085145D01*
X28625837Y-90068428D01*
X28811401Y-89938495D01*
X28978495Y-89771401D01*
X29114035Y-89577830D01*
X29213903Y-89363663D01*
X29275063Y-89135408D01*
X29295659Y-88900000D01*
X29275063Y-88664592D01*
X29213903Y-88436337D01*
X29114035Y-88222171D01*
X28978495Y-88028599D01*
X28811401Y-87861505D01*
X28625839Y-87731573D01*
X28582217Y-87676998D01*
X28575024Y-87607499D01*
X28606546Y-87545145D01*
X28625837Y-87528428D01*
X28811401Y-87398495D01*
X28978495Y-87231401D01*
X29114035Y-87037830D01*
X29213903Y-86823663D01*
X29275063Y-86595408D01*
X29295659Y-86360000D01*
X29275063Y-86124592D01*
X29213903Y-85896337D01*
X29114035Y-85682171D01*
X28978495Y-85488599D01*
X28856181Y-85366285D01*
X28822696Y-85304962D01*
X28827680Y-85235270D01*
X28869552Y-85179337D01*
X28900528Y-85162422D01*
X29032089Y-85113352D01*
X29147188Y-85027188D01*
X29233352Y-84912089D01*
X29283599Y-84777371D01*
X29289645Y-84721132D01*
X29290000Y-84714518D01*
X29290000Y-84070000D01*
X28373686Y-84070000D01*
X28399493Y-84029844D01*
X28440000Y-83891889D01*
X28440000Y-83748111D01*
X28399493Y-83610156D01*
X28373686Y-83570000D01*
X29290000Y-83570000D01*
X29290000Y-82925481D01*
X29289645Y-82918867D01*
X29283599Y-82862628D01*
X29233352Y-82727910D01*
X29147188Y-82612811D01*
X29032089Y-82526647D01*
X28897371Y-82476400D01*
X28841132Y-82470354D01*
X28834518Y-82470000D01*
X28190000Y-82470000D01*
X28190000Y-83384498D01*
X28082315Y-83335320D01*
X27975763Y-83320000D01*
X27904237Y-83320000D01*
X27797685Y-83335320D01*
X27690000Y-83384498D01*
X27690000Y-82470000D01*
X27045482Y-82470000D01*
X27038867Y-82470354D01*
X26982628Y-82476400D01*
X26847910Y-82526647D01*
X26732811Y-82612811D01*
X26646647Y-82727910D01*
X26596400Y-82862628D01*
X26590354Y-82918867D01*
X26590000Y-82925481D01*
X26590000Y-83570000D01*
X27506314Y-83570000D01*
X27480507Y-83610156D01*
X27440000Y-83748111D01*
X27440000Y-83891889D01*
X27480507Y-84029844D01*
X27506314Y-84070000D01*
X26590000Y-84070000D01*
X26590000Y-84714518D01*
X26590354Y-84721132D01*
X26596400Y-84777371D01*
X26646647Y-84912089D01*
X26732811Y-85027188D01*
X26847911Y-85113352D01*
X26979471Y-85162422D01*
X27035404Y-85204294D01*
X27059821Y-85269758D01*
X27044969Y-85338031D01*
X27023819Y-85366285D01*
X26901503Y-85488601D01*
X26765965Y-85682170D01*
X26666097Y-85896336D01*
X26604936Y-86124592D01*
X26584340Y-86359999D01*
X26604936Y-86595407D01*
X26649709Y-86762502D01*
X26666097Y-86823663D01*
X26765965Y-87037830D01*
X26901505Y-87231401D01*
X27068599Y-87398495D01*
X27254160Y-87528426D01*
X27297783Y-87583002D01*
X27304976Y-87652501D01*
X27273454Y-87714855D01*
X27254159Y-87731575D01*
X27068595Y-87861508D01*
X26901505Y-88028598D01*
X26765965Y-88222170D01*
X26666097Y-88436336D01*
X26604936Y-88664592D01*
X26584340Y-88900000D01*
X26604936Y-89135407D01*
X26649709Y-89302502D01*
X26666097Y-89363663D01*
X26765965Y-89577830D01*
X26901505Y-89771401D01*
X27068599Y-89938495D01*
X27254160Y-90068426D01*
X27297783Y-90123002D01*
X27304976Y-90192501D01*
X27273454Y-90254855D01*
X27254159Y-90271575D01*
X27068595Y-90401508D01*
X26901505Y-90568598D01*
X26765965Y-90762170D01*
X26666097Y-90976336D01*
X26604936Y-91204592D01*
X26584340Y-91440000D01*
X26604936Y-91675407D01*
X26649709Y-91842502D01*
X26666097Y-91903663D01*
X26765965Y-92117830D01*
X26901505Y-92311401D01*
X27068599Y-92478495D01*
X27254160Y-92608426D01*
X27297783Y-92663002D01*
X27304976Y-92732501D01*
X27273454Y-92794855D01*
X27254159Y-92811575D01*
X27068595Y-92941508D01*
X26901505Y-93108598D01*
X26765965Y-93302170D01*
X26666097Y-93516336D01*
X26604936Y-93744592D01*
X26584340Y-93980000D01*
X26604936Y-94215407D01*
X26641000Y-94350000D01*
X26666097Y-94443663D01*
X26765965Y-94657830D01*
X26901505Y-94851401D01*
X27068599Y-95018495D01*
X27254160Y-95148426D01*
X27297783Y-95203002D01*
X27304976Y-95272501D01*
X27273454Y-95334855D01*
X27254159Y-95351575D01*
X27068595Y-95481508D01*
X26901505Y-95648598D01*
X26765965Y-95842170D01*
X26666097Y-96056336D01*
X26604936Y-96284592D01*
X26584340Y-96520000D01*
X25800500Y-96520000D01*
X25800500Y-69025712D01*
X31440000Y-69025712D01*
X31440165Y-69030234D01*
X31454898Y-69231543D01*
X31514098Y-69497295D01*
X31611362Y-69751601D01*
X31744615Y-69989032D01*
X31911018Y-70204534D01*
X32107022Y-70393505D01*
X32328463Y-70551933D01*
X32570593Y-70676420D01*
X32828291Y-70764334D01*
X33049999Y-70805285D01*
X33050000Y-70805285D01*
X33050000Y-69544852D01*
X33187047Y-69593559D01*
X33337886Y-69603877D01*
X33485915Y-69573116D01*
X33550000Y-69539909D01*
X33550000Y-70803716D01*
X33550001Y-70803717D01*
X33638748Y-70793952D01*
X33902162Y-70725088D01*
X34152742Y-70618602D01*
X34385154Y-70476763D01*
X34594428Y-70302603D01*
X34776122Y-70099821D01*
X34926351Y-69872748D01*
X35041915Y-69626231D01*
X35120356Y-69365501D01*
X35160000Y-69096130D01*
X35160000Y-69025712D01*
X41040000Y-69025712D01*
X41040165Y-69030234D01*
X41054898Y-69231543D01*
X41114098Y-69497295D01*
X41211362Y-69751601D01*
X41344615Y-69989032D01*
X41511018Y-70204534D01*
X41707022Y-70393505D01*
X41928463Y-70551933D01*
X42170593Y-70676420D01*
X42428291Y-70764334D01*
X42649999Y-70805285D01*
X42650000Y-70805285D01*
X42650000Y-69544852D01*
X42787047Y-69593559D01*
X42937886Y-69603877D01*
X43085915Y-69573116D01*
X43150000Y-69539909D01*
X43150000Y-70803716D01*
X43150001Y-70803717D01*
X43238748Y-70793952D01*
X43502162Y-70725088D01*
X43752742Y-70618602D01*
X43985154Y-70476763D01*
X44194428Y-70302603D01*
X44376122Y-70099821D01*
X44526351Y-69872748D01*
X44641915Y-69626231D01*
X44720356Y-69365501D01*
X44760000Y-69096130D01*
X44760000Y-68950000D01*
X43450000Y-68950000D01*
X43450000Y-68450000D01*
X44760000Y-68450000D01*
X44760000Y-68374287D01*
X44759834Y-68369765D01*
X44745101Y-68168456D01*
X44685901Y-67902704D01*
X44588637Y-67648398D01*
X44455384Y-67410967D01*
X44288981Y-67195465D01*
X44092977Y-67006494D01*
X43871536Y-66848066D01*
X43629406Y-66723579D01*
X43371709Y-66635665D01*
X43150000Y-66594713D01*
X43150000Y-67855147D01*
X43012953Y-67806441D01*
X42862114Y-67796123D01*
X42714085Y-67826884D01*
X42650000Y-67860090D01*
X42650000Y-66596281D01*
X42561250Y-66606048D01*
X42297837Y-66674911D01*
X42047257Y-66781397D01*
X41814845Y-66923236D01*
X41605571Y-67097396D01*
X41423877Y-67300178D01*
X41273648Y-67527251D01*
X41158084Y-67773768D01*
X41079643Y-68034498D01*
X41040000Y-68303869D01*
X41040000Y-68450000D01*
X42350000Y-68450000D01*
X42350000Y-68950000D01*
X41040000Y-68950000D01*
X41040000Y-69025712D01*
X35160000Y-69025712D01*
X35160000Y-68950000D01*
X33850000Y-68950000D01*
X33850000Y-68450000D01*
X35160000Y-68450000D01*
X35160000Y-68374287D01*
X35159834Y-68369765D01*
X35145101Y-68168456D01*
X35085901Y-67902704D01*
X34988637Y-67648398D01*
X34855384Y-67410967D01*
X34688981Y-67195465D01*
X34492977Y-67006494D01*
X34271536Y-66848066D01*
X34029406Y-66723579D01*
X33771709Y-66635665D01*
X33550000Y-66594713D01*
X33550000Y-67855147D01*
X33412953Y-67806441D01*
X33262114Y-67796123D01*
X33114085Y-67826884D01*
X33049999Y-67860090D01*
X33050000Y-66596281D01*
X32961250Y-66606048D01*
X32697837Y-66674911D01*
X32447257Y-66781397D01*
X32214845Y-66923236D01*
X32005571Y-67097396D01*
X31823877Y-67300178D01*
X31673648Y-67527251D01*
X31558084Y-67773768D01*
X31479643Y-68034498D01*
X31440000Y-68303869D01*
X31440000Y-68450000D01*
X32750000Y-68450000D01*
X32750000Y-68950000D01*
X31440000Y-68950000D01*
X31440000Y-69025712D01*
X25800500Y-69025712D01*
X25800500Y-53340000D01*
X30344699Y-53340000D01*
X30363865Y-53571299D01*
X30363865Y-53571301D01*
X30363866Y-53571305D01*
X30420843Y-53796300D01*
X30514076Y-54008849D01*
X30641021Y-54203153D01*
X30735803Y-54306114D01*
X30766724Y-54368767D01*
X30758864Y-54438193D01*
X30714717Y-54492348D01*
X30687906Y-54506276D01*
X30607671Y-54536202D01*
X30492454Y-54622454D01*
X30406204Y-54737668D01*
X30355910Y-54872515D01*
X30355909Y-54872517D01*
X30349500Y-54932127D01*
X30349500Y-54935448D01*
X30349500Y-54935449D01*
X30349500Y-56824560D01*
X30349500Y-56824578D01*
X30349501Y-56827872D01*
X30349853Y-56831152D01*
X30349854Y-56831159D01*
X30355909Y-56887484D01*
X30366770Y-56916603D01*
X30406204Y-57022331D01*
X30492454Y-57137546D01*
X30607669Y-57223796D01*
X30742517Y-57274091D01*
X30802127Y-57280500D01*
X32697872Y-57280499D01*
X32757483Y-57274091D01*
X32892331Y-57223796D01*
X33007546Y-57137546D01*
X33093796Y-57022331D01*
X33144091Y-56887483D01*
X33150500Y-56827873D01*
X33150499Y-54932128D01*
X33144091Y-54872517D01*
X33093796Y-54737669D01*
X33007546Y-54622454D01*
X32892331Y-54536204D01*
X32839357Y-54516446D01*
X32812093Y-54506277D01*
X32756160Y-54464405D01*
X32731743Y-54398940D01*
X32746595Y-54330668D01*
X32764194Y-54306116D01*
X32858979Y-54203153D01*
X32985924Y-54008849D01*
X33079157Y-53796300D01*
X33136134Y-53571305D01*
X33155300Y-53340000D01*
X33155300Y-53339999D01*
X36694699Y-53339999D01*
X36713865Y-53571299D01*
X36713865Y-53571301D01*
X36713866Y-53571305D01*
X36770843Y-53796300D01*
X36864076Y-54008849D01*
X36991021Y-54203153D01*
X37085803Y-54306114D01*
X37116724Y-54368767D01*
X37108864Y-54438193D01*
X37064717Y-54492348D01*
X37037906Y-54506276D01*
X36957671Y-54536202D01*
X36842454Y-54622454D01*
X36756204Y-54737668D01*
X36705910Y-54872515D01*
X36705909Y-54872517D01*
X36699500Y-54932127D01*
X36699500Y-54935448D01*
X36699500Y-54935449D01*
X36699500Y-56824560D01*
X36699500Y-56824578D01*
X36699501Y-56827872D01*
X36699853Y-56831152D01*
X36699854Y-56831159D01*
X36705909Y-56887484D01*
X36716770Y-56916603D01*
X36756204Y-57022331D01*
X36842454Y-57137546D01*
X36957669Y-57223796D01*
X37092517Y-57274091D01*
X37152127Y-57280500D01*
X39047872Y-57280499D01*
X39107483Y-57274091D01*
X39242331Y-57223796D01*
X39357546Y-57137546D01*
X39443796Y-57022331D01*
X39494091Y-56887483D01*
X39500500Y-56827873D01*
X39500499Y-54932128D01*
X39494091Y-54872517D01*
X39443796Y-54737669D01*
X39357546Y-54622454D01*
X39242331Y-54536204D01*
X39189357Y-54516446D01*
X39162093Y-54506277D01*
X39106160Y-54464405D01*
X39081743Y-54398940D01*
X39096595Y-54330668D01*
X39114194Y-54306116D01*
X39208979Y-54203153D01*
X39335924Y-54008849D01*
X39429157Y-53796300D01*
X39486134Y-53571305D01*
X39505300Y-53340000D01*
X39486134Y-53108695D01*
X39429157Y-52883700D01*
X39335924Y-52671151D01*
X39208979Y-52476847D01*
X39051784Y-52306087D01*
X38868626Y-52163530D01*
X38664503Y-52053064D01*
X38664499Y-52053062D01*
X38664498Y-52053062D01*
X38444984Y-51977702D01*
X38273282Y-51949050D01*
X38216049Y-51939500D01*
X37983951Y-51939500D01*
X37938164Y-51947140D01*
X37755015Y-51977702D01*
X37535501Y-52053062D01*
X37331372Y-52163531D01*
X37148215Y-52306087D01*
X36991020Y-52476848D01*
X36864076Y-52671150D01*
X36770844Y-52883696D01*
X36713865Y-53108700D01*
X36694699Y-53339999D01*
X33155300Y-53339999D01*
X33136134Y-53108695D01*
X33079157Y-52883700D01*
X32985924Y-52671151D01*
X32858979Y-52476847D01*
X32701784Y-52306087D01*
X32518626Y-52163530D01*
X32314503Y-52053064D01*
X32314499Y-52053062D01*
X32314498Y-52053062D01*
X32094984Y-51977702D01*
X31923281Y-51949050D01*
X31866049Y-51939500D01*
X31633951Y-51939500D01*
X31588164Y-51947140D01*
X31405015Y-51977702D01*
X31185501Y-52053062D01*
X30981372Y-52163531D01*
X30798215Y-52306087D01*
X30641020Y-52476848D01*
X30514076Y-52671150D01*
X30420844Y-52883696D01*
X30363865Y-53108700D01*
X30344699Y-53340000D01*
X25800500Y-53340000D01*
X25800500Y-50924500D01*
X25820185Y-50857461D01*
X25872989Y-50811706D01*
X25924500Y-50800500D01*
X50799901Y-50800500D01*
X75675500Y-50800500D01*
X75742539Y-50820185D01*
G37*
%TD.AperFunction*%
%TD*%
M02*
