<?xml version="1.0" encoding="UTF-8"?>
<svg id="svg549" width="40.3mm" height="128.5mm" version="1.1" viewBox="0 0 40.3 128.5" xmlns="http://www.w3.org/2000/svg">
  <defs id="defs277">
    <linearGradient id="id1" x1="1" x2="0" y2="1">
      <stop id="stop3" stop-color="#aaa" offset="0"/>
      <stop id="stop5" offset="1"/>
    </linearGradient>
    <linearGradient id="id2" x1="1" x2="0" y2="1">
      <stop id="stop8" stop-color="#111" offset="0"/>
      <stop id="stop10" stop-color="#888" offset="1"/>
    </linearGradient>
    <radialGradient id="id3">
      <stop id="stop13" stop-color="#fff" offset="0"/>
      <stop id="stop15" stop-color="gold" offset="1"/>
    </radialGradient>
    <radialGradient id="id4">
      <stop id="stop18" stop-color="#fff" offset="0"/>
      <stop id="stop20" stop-color="blue" offset="1"/>
    </radialGradient>
    <radialGradient id="id5">
      <stop id="stop23" stop-color="#fff" offset="0"/>
      <stop id="stop25" stop-color="red" offset="1"/>
    </radialGradient>
    <radialGradient id="id6">
      <stop id="stop28" stop-color="#fff" offset="0"/>
      <stop id="stop30" stop-color="green" offset="1"/>
    </radialGradient>
    <linearGradient id="id7" x1="1" x2="0" y2="1">
      <stop id="stop33" stop-color="#fff" offset="-1"/>
      <stop id="stop35" offset="2"/>
    </linearGradient>
    <radialGradient id="id8">
      <stop id="stop38" offset=".74603"/>
      <stop id="stop40" stop-color="#fff" offset=".87302"/>
      <stop id="stop42" stop-color="#444" offset="1"/>
    </radialGradient>
    <linearGradient id="id9" x1="1" x2="0" y2="1">
      <stop id="stop45" offset="0"/>
      <stop id="stop47" stop-color="#333" offset="1"/>
    </linearGradient>
    <linearGradient id="id10" x1=".70711" x2="0" y2=".70711">
      <stop id="stop50" stop-color="#666" offset="0"/>
      <stop id="stop52" stop-color="#191919" offset="1"/>
    </linearGradient>
    <radialGradient id="id11">
      <stop id="stop55" offset=".65385"/>
      <stop id="stop57" stop-opacity="0" offset=".88462"/>
    </radialGradient>
    <linearGradient id="id12" x1=".70711" x2="0" y2=".70711">
      <stop id="stop60" stop-color="#666" offset="0"/>
      <stop id="stop62" stop-color="#686868" offset=".04"/>
      <stop id="stop64" stop-color="#212121" offset="1"/>
    </linearGradient>
    <linearGradient id="id13" x1=".70711" x2="0" y2=".70711">
      <stop id="stop67" stop-color="#777" offset="0"/>
      <stop id="stop69" stop-color="#555" offset="1"/>
    </linearGradient>
    <linearGradient id="id14" x1=".70711" x2="0" y2=".70711">
      <stop id="stop72" stop-color="#fefe69" offset="0"/>
      <stop id="stop74" stop-color="#fef139" offset="1"/>
    </linearGradient>
    <linearGradient id="id22" x1=".70711" x2="0" y2=".70711">
      <stop id="stop116" stop-color="#61d7f8" offset="0"/>
      <stop id="stop118" stop-color="#0998c1" offset="1"/>
    </linearGradient>
    <linearGradient id="id30" x1=".70711" x2="0" y2=".70711">
      <stop id="stop160" stop-color="#e25f62" offset="0"/>
      <stop id="stop162" stop-color="#d23e3e" offset="1"/>
    </linearGradient>
    <linearGradient id="id38" x1=".70711" x2="0" y2=".70711">
      <stop id="stop204" stop-color="#92cba8" offset="0"/>
      <stop id="stop206" stop-color="#379a64" offset="1"/>
    </linearGradient>
  </defs>
  <rect id="background" width="40.3" height="128.5" fill="#fff"/>
  <g id="stencil" font-family="Ubuntu" font-size="3">
    <path id="path1370" d="m10.916 6.3v-3.1878h1.9458v0.3818h-1.4996v0.9476h1.334v0.3726h-1.334v1.104h1.6146v0.3818z"/>
    <path id="path1372" d="m13.515 3.977q0.1472-0.0368 0.391-0.0782t0.5612-0.0414q0.2852 0 0.4738 0.0828 0.1886 0.0782 0.299 0.2254 0.115 0.1426 0.161 0.345t0.046 0.4462v1.3432h-0.4278v-1.2512q0-0.2208-0.0322-0.3772-0.0276-0.1564-0.0966-0.253t-0.184-0.138q-0.115-0.046-0.2852-0.046-0.069 0-0.1426 0.0046t-0.1426 0.0138q-0.0644 0.0046-0.1196 0.0138-0.0506 0.0092-0.0736 0.0138v2.0194h-0.4278z"/>
    <path id="path1374" d="m17.949 3.908q-0.1794 0.6716-0.4232 1.288-0.2392 0.6164-0.4646 1.104h-0.3864q-0.2254-0.4876-0.4692-1.104-0.2392-0.6164-0.4186-1.288h0.46q0.0552 0.2254 0.1288 0.483 0.0782 0.253 0.161 0.506 0.0874 0.2484 0.1748 0.483t0.1656 0.4186q0.0782-0.184 0.1656-0.4186t0.1702-0.483q0.0874-0.253 0.161-0.506 0.0782-0.2576 0.1334-0.483z"/>
    <path id="path1376" d="m18.193 5.1086q0-0.3174 0.092-0.552 0.092-0.2392 0.2438-0.3956t0.3496-0.2346 0.4048-0.0782q0.483 0 0.7406 0.3036 0.2576 0.299 0.2576 0.9154 0 0.0276 0 0.0736 0 0.0414-0.0046 0.0782h-1.6376q0.0276 0.3726 0.2162 0.5658t0.5888 0.1932q0.2254 0 0.3772-0.0368 0.1564-0.0414 0.2346-0.0782l0.0598 0.3588q-0.0782 0.0414-0.276 0.0874-0.1932 0.046-0.4416 0.046-0.3128 0-0.5428-0.092-0.2254-0.0966-0.3726-0.2622t-0.2208-0.391q-0.069-0.23-0.069-0.5014zm1.6422-0.2346q0.0046-0.2898-0.1472-0.4738-0.1472-0.1886-0.4094-0.1886-0.1472 0-0.2622 0.0598-0.1104 0.0552-0.1886 0.1472t-0.1242 0.2116q-0.0414 0.1196-0.0552 0.2438z"/>
    <path id="path1378" d="m21.615 6.346q-0.3956-0.0092-0.5612-0.1702t-0.1656-0.5014v-2.8704l0.4278-0.0736v2.875q0 0.1058 0.0184 0.1748t0.0598 0.1104 0.1104 0.0644q0.069 0.0184 0.1702 0.0322z"/>
    <path id="path1380" d="m24.265 5.104q0 0.2852-0.0828 0.5152t-0.2346 0.3956q-0.1472 0.1656-0.3542 0.2576-0.207 0.0874-0.4508 0.0874t-0.4508-0.0874q-0.207-0.092-0.3588-0.2576-0.1472-0.1656-0.23-0.3956t-0.0828-0.5152q0-0.2806 0.0828-0.5106 0.0828-0.2346 0.23-0.4002 0.1518-0.1656 0.3588-0.253 0.207-0.092 0.4508-0.092t0.4508 0.092q0.207 0.0874 0.3542 0.253 0.1518 0.1656 0.2346 0.4002 0.0828 0.23 0.0828 0.5106zm-0.4462 0q0-0.4048-0.184-0.6394-0.1794-0.2392-0.4922-0.2392t-0.4968 0.2392q-0.1794 0.2346-0.1794 0.6394t0.1794 0.644q0.184 0.2346 0.4968 0.2346t0.4922-0.2346q0.184-0.2392 0.184-0.644z"/>
    <path id="path1382" d="m26.528 5.1086q0-0.4186-0.207-0.644t-0.552-0.2254q-0.1932 0-0.3036 0.0138-0.1058 0.0138-0.1702 0.0322v1.5088q0.0782 0.0644 0.2254 0.1242t0.322 0.0598q0.184 0 0.3128-0.0644 0.1334-0.069 0.2162-0.184 0.0828-0.1196 0.1196-0.276 0.0368-0.161 0.0368-0.345zm0.4462 0q0 0.2714-0.0736 0.5014-0.069 0.23-0.207 0.3956t-0.3404 0.2576q-0.1978 0.092-0.4554 0.092-0.207 0-0.368-0.0552-0.1564-0.0552-0.2346-0.1058v0.9568h-0.4278v-3.1694q0.1518-0.0368 0.3772-0.0782 0.23-0.046 0.529-0.046 0.276 0 0.4968 0.0874t0.3772 0.2484 0.2392 0.3956q0.0874 0.23 0.0874 0.5198z"/>
    <path id="path1384" d="m27.443 5.1086q0-0.3174 0.092-0.552 0.092-0.2392 0.2438-0.3956t0.3496-0.2346 0.4048-0.0782q0.483 0 0.7406 0.3036 0.2576 0.299 0.2576 0.9154 0 0.0276 0 0.0736 0 0.0414-0.0046 0.0782h-1.6376q0.0276 0.3726 0.2162 0.5658t0.5888 0.1932q0.2254 0 0.3772-0.0368 0.1564-0.0414 0.2346-0.0782l0.0598 0.3588q-0.0782 0.0414-0.276 0.0874-0.1932 0.046-0.4416 0.046-0.3128 0-0.5428-0.092-0.2254-0.0966-0.3726-0.2622t-0.2208-0.391q-0.069-0.23-0.069-0.5014zm1.6422-0.2346q0.0046-0.2898-0.1472-0.4738-0.1472-0.1886-0.4094-0.1886-0.1472 0-0.2622 0.0598-0.1104 0.0552-0.1886 0.1472t-0.1242 0.2116q-0.0414 0.1196-0.0552 0.2438z"/>
    <path id="path283" transform="translate(12.65 119.5) scale(.15)" d="m23.274 0c-12.804 0-23.274 10.47-23.274 23.274 0 12.804 10.47 23.274 23.274 23.274 6.2817 0 11.38-2.5486 15.731-6.2455 1.5387-1.3073 3.0762-2.7877 4.6583-4.3876l-0.0086-5.8693-5.9894 0.0026c-1.4839 1.5057-2.8467 2.8283-4.0804 3.8765-3.5126 2.9845-6.0494 4.2541-10.311 4.2541-8.2813 0-14.905-6.6235-14.905-14.905 0-8.2813 6.6235-14.905 14.905-14.905 4.2612 0 6.7981 1.2697 10.311 4.2541 1.2337 1.0482 2.5965 2.3707 4.0804 3.8765l5.9894 0.0026 0.0086-5.8693c-1.5821-1.5999-3.1196-3.0803-4.6583-4.3876-4.351-3.6969-9.4489-6.2455-15.731-6.2455zm53.451 0c-6.2815 1.0197e-4 -11.379 2.5487-15.73 6.2455-1.6075 1.3659-3.2135 2.9188-4.8712 4.602h12.572c2.4765-1.7176 4.7403-2.4782 8.0292-2.4783h3.82e-4c6.2002 0 11.47 3.7129 13.728 9.0545l-6.0416-0.07531-8.5851-3.0797-28.741 3.81e-4v5.6456h-22.686v6.7186h22.686v5.6456l28.741 3.82e-4 8.5851-3.0797 6.0416-0.07531c-2.2576 5.3415-7.5279 9.0545-13.728 9.0545h-3.82e-4c-3.2889-5.9e-5 -5.5527-0.76071-8.0292-2.4783h-12.572c1.6577 1.6832 3.2637 3.2361 4.8712 4.602 4.3509 3.6968 9.4487 6.2454 15.73 6.2455h3.82e-4c12.804 0 23.274-10.47 23.274-23.274-8e-6 -12.804-10.47-23.274-23.274-23.274zm-59.712 19.295-2.8907 3.9786 2.8907 3.9786 4.6773-1.5197v-4.9178z"/>
    <g id="g296" transform="translate(7.45,28.51)">
      <path id="path1387" d="m-3.9105 8q-0.051-0.135-0.096-0.264-0.045-0.132-0.093-0.267h-0.942l-0.189 0.531h-0.303q0.12-0.33 0.225-0.609 0.105-0.282 0.204-0.534 0.102-0.252 0.201-0.48 0.099-0.231 0.207-0.456h0.267q0.108 0.225 0.207 0.456 0.099 0.228 0.198 0.48 0.102 0.252 0.207 0.534 0.105 0.279 0.225 0.609zm-0.273-0.771q-0.096-0.261-0.192-0.504-0.093-0.246-0.195-0.471-0.105 0.225-0.201 0.471-0.093 0.243-0.186 0.504z"/>
      <path id="path1389" d="m-3.3045 8.555h-0.285l1.017-2.904h0.279z"/>
      <path id="path1391" d="m-0.86849 8q-0.051-0.135-0.096-0.264-0.045-0.132-0.093-0.267h-0.942l-0.189 0.531h-0.303q0.12-0.33 0.225-0.609 0.105-0.282 0.204-0.534 0.102-0.252 0.201-0.48 0.099-0.231 0.207-0.456h0.267q0.108 0.225 0.207 0.456 0.099 0.228 0.198 0.48 0.102 0.252 0.207 0.534 0.105 0.279 0.225 0.609zm-0.273-0.771q-0.096-0.261-0.192-0.504-0.093-0.246-0.195-0.471-0.105 0.225-0.201 0.471-0.093 0.243-0.186 0.504z"/>
      <path id="path1393" d="m-0.2625 8.555h-0.285l1.017-2.904h0.279z"/>
      <path id="path1395" d="m2.1735 8q-0.051-0.135-0.096-0.264-0.045-0.132-0.093-0.267h-0.942l-0.189 0.531h-0.303q0.12-0.33 0.225-0.609 0.105-0.282 0.204-0.534 0.102-0.252 0.201-0.48 0.099-0.231 0.207-0.456h0.267q0.108 0.225 0.207 0.456 0.099 0.228 0.198 0.48 0.102 0.252 0.207 0.534 0.105 0.279 0.225 0.609zm-0.273-0.771q-0.096-0.261-0.192-0.504-0.093-0.246-0.195-0.471-0.105 0.225-0.201 0.471-0.093 0.243-0.186 0.504z"/>
      <path id="path1397" d="m2.7795 8.555h-0.285l1.017-2.904h0.279z"/>
      <path id="path1399" d="m5.2155 8q-0.051-0.135-0.096-0.264-0.045-0.132-0.093-0.267h-0.942l-0.189 0.531h-0.303q0.12-0.33 0.225-0.609 0.105-0.282 0.204-0.534 0.102-0.252 0.201-0.48 0.099-0.231 0.207-0.456h0.267q0.108 0.225 0.207 0.456 0.099 0.228 0.198 0.48 0.102 0.252 0.207 0.534 0.105 0.279 0.225 0.609zm-0.273-0.771q-0.096-0.261-0.192-0.504-0.093-0.246-0.195-0.471-0.105 0.225-0.201 0.471-0.093 0.243-0.186 0.504z"/>
    </g>
    <path id="path298" d="m7.45 28.51h22.86" fill="none" stroke="#000" stroke-width=".6"/>
    <g id="g303" transform="translate(7.45,48.83)">
      <path id="path1402" d="m-3.6045 6.959q0 0.27-0.084 0.471-0.084 0.198-0.237 0.33-0.153 0.129-0.366 0.195-0.213 0.063-0.468 0.063-0.126 0-0.279-0.012-0.15-9e-3 -0.273-0.039v-2.016q0.123-0.03 0.273-0.039 0.153-0.012 0.279-0.012 0.255 0 0.468 0.066 0.213 0.063 0.366 0.195 0.153 0.129 0.237 0.33 0.084 0.198 0.084 0.468zm-1.131 0.804q0.414 0 0.618-0.21 0.204-0.213 0.204-0.594t-0.204-0.591q-0.204-0.213-0.618-0.213-0.123 0-0.192 3e-3 -0.066 3e-3 -0.093 6e-3v1.59q0.027 3e-3 0.093 6e-3 0.069 3e-3 0.192 3e-3z"/>
      <path id="path1404" d="m-3.3465 8.555h-0.285l1.017-2.904h0.279z"/>
      <path id="path1406" d="m-1.3365 8.045q-0.219 0-0.399-0.072t-0.309-0.21-0.201-0.339q-0.069-0.204-0.069-0.465t0.078-0.462q0.081-0.204 0.216-0.342t0.315-0.21 0.384-0.072q0.129 0 0.231 0.018 0.105 0.018 0.18 0.042 0.078 0.024 0.126 0.048t0.066 0.036l-0.084 0.24q-0.027-0.018-0.078-0.039t-0.117-0.042q-0.063-0.021-0.141-0.033-0.075-0.015-0.153-0.015-0.165 0-0.297 0.057t-0.225 0.165-0.144 0.264q-0.048 0.153-0.048 0.345 0 0.186 0.042 0.339 0.045 0.153 0.132 0.264 0.087 0.108 0.216 0.168 0.132 0.06 0.306 0.06 0.201 0 0.333-0.042 0.132-0.042 0.198-0.075l0.075 0.24q-0.021 0.015-0.075 0.039-0.054 0.021-0.135 0.042t-0.189 0.036q-0.108 0.015-0.234 0.015z"/>
      <path id="path1408" d="m-0.4155 8.555h-0.285l1.017-2.904h0.279z"/>
      <path id="path1410" d="m1.5945 8.045q-0.219 0-0.399-0.072t-0.309-0.21q-0.129-0.138-0.201-0.339-0.069-0.204-0.069-0.465t0.078-0.462q0.081-0.204 0.216-0.342 0.135-0.138 0.315-0.21t0.384-0.072q0.129 0 0.231 0.018 0.105 0.018 0.18 0.042 0.078 0.024 0.126 0.048t0.066 0.036l-0.084 0.24q-0.027-0.018-0.078-0.039t-0.117-0.042q-0.063-0.021-0.141-0.033-0.075-0.015-0.153-0.015-0.165 0-0.297 0.057t-0.225 0.165-0.144 0.264q-0.048 0.153-0.048 0.345 0 0.186 0.042 0.339 0.045 0.153 0.132 0.264 0.087 0.108 0.216 0.168 0.132 0.06 0.306 0.06 0.201 0 0.333-0.042t0.198-0.075l0.075 0.24q-0.021 0.015-0.075 0.039-0.054 0.021-0.135 0.042t-0.189 0.036-0.234 0.015z"/>
      <path id="path1412" d="m2.5155 8.555h-0.285l1.017-2.904h0.279z"/>
      <path id="path1414" d="m5.0205 5.921h0.291v2.079h-0.291v-0.96h-1.017v0.96h-0.291v-2.079h0.291v0.867h1.017z"/>
    </g>
    <path id="path305" d="m7.45 48.83h22.86" fill="none" stroke="#000" stroke-width=".6"/>
    <g id="g310" transform="translate(7.45,69.15)">
      <path id="path1417" d="m-4.6515 7.793q0.456 0 0.456-0.312 0-0.096-0.042-0.162-0.039-0.069-0.108-0.117-0.069-0.051-0.159-0.087-0.087-0.036-0.186-0.072-0.114-0.039-0.216-0.087-0.102-0.051-0.177-0.117-0.075-0.069-0.12-0.162-0.042-0.093-0.042-0.225 0-0.273 0.186-0.426t0.513-0.153q0.189 0 0.342 0.042 0.156 0.039 0.228 0.087l-0.093 0.237q-0.063-0.039-0.189-0.075-0.123-0.039-0.288-0.039-0.084 0-0.156 0.018t-0.126 0.054-0.087 0.093q-0.03 0.054-0.03 0.129 0 0.084 0.033 0.141t0.093 0.102q0.06 0.042 0.138 0.078 0.081 0.036 0.177 0.072 0.135 0.054 0.246 0.108 0.114 0.054 0.195 0.129 0.084 0.075 0.129 0.18 0.045 0.102 0.045 0.249 0 0.273-0.201 0.42-0.198 0.147-0.561 0.147-0.123 0-0.228-0.018-0.102-0.015-0.183-0.036-0.081-0.024-0.141-0.048-0.057-0.027-0.09-0.045l0.087-0.24q0.069 0.039 0.21 0.087t0.345 0.048z"/>
      <path id="path1419" d="m-3.5835 8.555h-0.285l1.017-2.904h0.279z"/>
      <path id="path1421" d="m-1.3695 7.13q0.048 0.06 0.12 0.159 0.075 0.096 0.153 0.216 0.078 0.117 0.153 0.246 0.078 0.129 0.132 0.249h-0.318q-0.06-0.114-0.132-0.231-0.069-0.117-0.141-0.222-0.072-0.108-0.144-0.201-0.069-0.093-0.126-0.162-0.039 3e-3 -0.081 3e-3 -0.039 0-0.081 0h-0.261v0.813h-0.291v-2.049q0.123-0.03 0.273-0.039 0.153-0.012 0.279-0.012 0.438 0 0.666 0.165 0.231 0.165 0.231 0.492 0 0.207-0.111 0.354-0.108 0.147-0.321 0.219zm-0.441-0.975q-0.186 0-0.285 9e-3v0.783h0.207q0.15 0 0.27-0.015t0.201-0.057q0.084-0.042 0.129-0.117 0.045-0.078 0.045-0.204 0-0.117-0.045-0.195t-0.123-0.123q-0.075-0.045-0.18-0.063-0.102-0.018-0.219-0.018z"/>
      <path id="path1423" d="m-0.5085 8.555h-0.285l1.017-2.904h0.279z"/>
      <path id="path1425" d="m1.7055 7.13q0.048 0.06 0.12 0.159 0.075 0.096 0.153 0.216 0.078 0.117 0.153 0.246 0.078 0.129 0.132 0.249h-0.318q-0.06-0.114-0.132-0.231-0.069-0.117-0.141-0.222-0.072-0.108-0.144-0.201-0.069-0.093-0.126-0.162-0.039 3e-3 -0.081 3e-3 -0.039 0-0.081 0h-0.261v0.813h-0.291v-2.049q0.123-0.03 0.273-0.039 0.153-0.012 0.279-0.012 0.438 0 0.666 0.165 0.231 0.165 0.231 0.492 0 0.207-0.111 0.354-0.108 0.147-0.321 0.219zm-0.441-0.975q-0.186 0-0.285 9e-3v0.783h0.207q0.15 0 0.27-0.015t0.201-0.057q0.084-0.042 0.129-0.117 0.045-0.078 0.045-0.204 0-0.117-0.045-0.195t-0.123-0.123q-0.075-0.045-0.18-0.063-0.102-0.018-0.219-0.018z"/>
      <path id="path1427" d="m2.5665 8.555h-0.285l1.017-2.904h0.279z"/>
      <path id="path1429" d="m4.7805 7.13q0.048 0.06 0.12 0.159 0.075 0.096 0.153 0.216 0.078 0.117 0.153 0.246 0.078 0.129 0.132 0.249h-0.318q-0.06-0.114-0.132-0.231-0.069-0.117-0.141-0.222-0.072-0.108-0.144-0.201-0.069-0.093-0.126-0.162-0.039 3e-3 -0.081 3e-3 -0.039 0-0.081 0h-0.261v0.813h-0.291v-2.049q0.123-0.03 0.273-0.039 0.153-0.012 0.279-0.012 0.438 0 0.666 0.165 0.231 0.165 0.231 0.492 0 0.207-0.111 0.354-0.108 0.147-0.321 0.219zm-0.441-0.975q-0.186 0-0.285 9e-3v0.783h0.207q0.15 0 0.27-0.015t0.201-0.057q0.084-0.042 0.129-0.117 0.045-0.078 0.045-0.204 0-0.117-0.045-0.195t-0.123-0.123q-0.075-0.045-0.18-0.063-0.102-0.018-0.219-0.018z"/>
    </g>
    <path id="path312" d="m7.45 69.15h22.86" fill="none" stroke="#000" stroke-width=".6"/>
    <g id="g317" transform="translate(7.45,89.47)">
      <path id="path1432" d="m-4.263 7.13q0.048 0.06 0.12 0.159 0.075 0.096 0.153 0.216 0.078 0.117 0.153 0.246 0.078 0.129 0.132 0.249h-0.318q-0.06-0.114-0.132-0.231-0.069-0.117-0.141-0.222-0.072-0.108-0.144-0.201-0.069-0.093-0.126-0.162-0.039 3e-3 -0.081 3e-3 -0.039 0-0.081 0h-0.261v0.813h-0.291v-2.049q0.123-0.03 0.273-0.039 0.153-0.012 0.279-0.012 0.438 0 0.666 0.165 0.231 0.165 0.231 0.492 0 0.207-0.111 0.354-0.108 0.147-0.321 0.219zm-0.441-0.975q-0.186 0-0.285 9e-3v0.783h0.207q0.15 0 0.27-0.015t0.201-0.057q0.084-0.042 0.129-0.117 0.045-0.078 0.045-0.204 0-0.117-0.045-0.195t-0.123-0.123q-0.075-0.045-0.18-0.063-0.102-0.018-0.219-0.018z"/>
      <path id="path1434" d="m-3.402 8.555h-0.285l1.017-2.904h0.279z"/>
      <path id="path1436" d="m-1.392 8.045q-0.219 0-0.399-0.072t-0.309-0.21-0.201-0.339q-0.069-0.204-0.069-0.465t0.078-0.462q0.081-0.204 0.216-0.342t0.315-0.21 0.384-0.072q0.129 0 0.231 0.018 0.105 0.018 0.18 0.042 0.078 0.024 0.126 0.048t0.066 0.036l-0.084 0.24q-0.027-0.018-0.078-0.039t-0.117-0.042q-0.063-0.021-0.141-0.033-0.075-0.015-0.153-0.015-0.165 0-0.297 0.057t-0.225 0.165-0.144 0.264q-0.048 0.153-0.048 0.345 0 0.186 0.042 0.339 0.045 0.153 0.132 0.264 0.087 0.108 0.216 0.168 0.132 0.06 0.306 0.06 0.201 0 0.333-0.042 0.132-0.042 0.198-0.075l0.075 0.24q-0.021 0.015-0.075 0.039-0.054 0.021-0.135 0.042t-0.189 0.036q-0.108 0.015-0.234 0.015z"/>
      <path id="path1438" d="m-0.471 8.555h-0.285l1.017-2.904h0.279z"/>
      <path id="path1440" d="m1.539 8.045q-0.219 0-0.399-0.072-0.18-0.072-0.309-0.21t-0.201-0.339q-0.069-0.204-0.069-0.465t0.078-0.462q0.081-0.204 0.216-0.342t0.315-0.21q0.18-0.072 0.384-0.072 0.129 0 0.231 0.018 0.105 0.018 0.18 0.042 0.078 0.024 0.126 0.048t0.066 0.036l-0.084 0.24q-0.027-0.018-0.078-0.039t-0.117-0.042q-0.063-0.021-0.141-0.033-0.075-0.015-0.153-0.015-0.165 0-0.297 0.057t-0.225 0.165-0.144 0.264q-0.048 0.153-0.048 0.345 0 0.186 0.042 0.339 0.045 0.153 0.132 0.264 0.087 0.108 0.216 0.168 0.132 0.06 0.306 0.06 0.201 0 0.333-0.042t0.198-0.075l0.075 0.24q-0.021 0.015-0.075 0.039-0.054 0.021-0.135 0.042t-0.189 0.036-0.234 0.015z"/>
      <path id="path1442" d="m2.46 8.555h-0.285l1.017-2.904h0.279z"/>
      <path id="path1444" d="m5.364 6.959q0 0.27-0.084 0.471-0.084 0.198-0.237 0.33-0.153 0.129-0.366 0.195-0.213 0.063-0.468 0.063-0.126 0-0.279-0.012-0.15-9e-3 -0.273-0.039v-2.016q0.123-0.03 0.273-0.039 0.153-0.012 0.279-0.012 0.255 0 0.468 0.066 0.213 0.063 0.366 0.195 0.153 0.129 0.237 0.33 0.084 0.198 0.084 0.468zm-1.131 0.804q0.414 0 0.618-0.21 0.204-0.213 0.204-0.594t-0.204-0.591q-0.204-0.213-0.618-0.213-0.123 0-0.192 3e-3 -0.066 3e-3 -0.093 6e-3v1.59q0.027 3e-3 0.093 6e-3 0.069 3e-3 0.192 3e-3z"/>
    </g>
    <path id="path319" d="m7.45 89.47h22.86" fill="none" stroke="#000" stroke-width=".6"/>
    <g id="g324" transform="translate(4.91 106.62)">
      <path id="path1447" d="m-1.6905 6.977h0.291v0.972q-0.036 0.012-0.105 0.027-0.066 0.015-0.156 0.03-0.087 0.015-0.192 0.024-0.105 0.012-0.213 0.012-0.219 0-0.399-0.072t-0.309-0.21-0.201-0.339q-0.069-0.201-0.069-0.462t0.078-0.462q0.081-0.204 0.216-0.342t0.315-0.21q0.183-0.072 0.39-0.072 0.141 0 0.249 0.018 0.111 0.018 0.189 0.042t0.126 0.048q0.051 0.024 0.069 0.036l-0.093 0.243q-0.087-0.057-0.231-0.093-0.144-0.039-0.294-0.039-0.159 0-0.291 0.057-0.129 0.057-0.222 0.165-0.09 0.108-0.141 0.264-0.051 0.153-0.051 0.345 0 0.186 0.042 0.339 0.045 0.153 0.132 0.264 0.09 0.108 0.219 0.168 0.132 0.06 0.309 0.06 0.126 0 0.213-0.012 0.09-0.015 0.129-0.027z"/>
      <path id="path1449" d="m-0.4335 7.799q0.099 0 0.174-3e-3 0.078-6e-3 0.129-0.018v-0.465q-0.03-0.015-0.099-0.024-0.066-0.012-0.162-0.012-0.063 0-0.135 9e-3 -0.069 9e-3 -0.129 0.039-0.057 0.027-0.096 0.078-0.039 0.048-0.039 0.129 0 0.15 0.096 0.21 0.096 0.057 0.261 0.057zm-0.024-1.398q0.168 0 0.282 0.045 0.117 0.042 0.186 0.123 0.072 0.078 0.102 0.189 0.03 0.108 0.03 0.24v0.975q-0.036 6e-3 -0.102 0.018-0.063 9e-3 -0.144 0.018t-0.177 0.015q-0.093 9e-3 -0.186 9e-3 -0.132 0-0.243-0.027t-0.192-0.084q-0.081-0.06-0.126-0.156-0.045-0.096-0.045-0.231 0-0.129 0.051-0.222 0.054-0.093 0.144-0.15 0.09-0.057 0.21-0.084t0.252-0.027q0.042 0 0.087 6e-3 0.045 3e-3 0.084 0.012 0.042 6e-3 0.072 0.012t0.042 9e-3v-0.078q0-0.069-0.015-0.135-0.015-0.069-0.054-0.12-0.039-0.054-0.108-0.084-0.066-0.033-0.174-0.033-0.138 0-0.243 0.021-0.102 0.018-0.153 0.039l-0.033-0.231q0.054-0.024 0.18-0.045 0.126-0.024 0.273-0.024z"/>
      <path id="path1451" d="m0.8655 6.44h0.591v0.234h-0.591v0.72q0 0.117 0.018 0.195 0.018 0.075 0.054 0.12 0.036 0.042 0.09 0.06t0.126 0.018q0.126 0 0.201-0.027 0.078-0.03 0.108-0.042l0.054 0.231q-0.042 0.021-0.147 0.051-0.105 0.033-0.24 0.033-0.159 0-0.264-0.039-0.102-0.042-0.165-0.123t-0.09-0.198q-0.024-0.12-0.024-0.276v-1.392l0.279-0.048z"/>
      <path id="path1453" d="m1.6935 7.223q0-0.207 0.06-0.36 0.06-0.156 0.159-0.258t0.228-0.153 0.264-0.051q0.315 0 0.483 0.198 0.168 0.195 0.168 0.597 0 0.018 0 0.048 0 0.027-3e-3 0.051h-1.068q0.018 0.243 0.141 0.369t0.384 0.126q0.147 0 0.246-0.024 0.102-0.027 0.153-0.051l0.039 0.234q-0.051 0.027-0.18 0.057-0.126 0.03-0.288 0.03-0.204 0-0.354-0.06-0.147-0.063-0.243-0.171t-0.144-0.255q-0.045-0.15-0.045-0.327zm1.071-0.153q3e-3 -0.189-0.096-0.309-0.096-0.123-0.267-0.123-0.096 0-0.171 0.039-0.072 0.036-0.123 0.096t-0.081 0.138q-0.027 0.078-0.036 0.159z"/>
    </g>
    <g id="g327" transform="translate(15.07 106.62)">
      <path id="path1456" d="m-0.96599 5.921v0.252h-0.654v1.827h-0.291v-1.827h-0.654v-0.252z"/>
      <path id="path1458" d="m-0.222 6.407q0.036 0 0.081 6e-3 0.048 3e-3 0.093 0.012 0.045 6e-3 0.081 0.015 0.039 6e-3 0.057 0.012l-0.048 0.243q-0.033-0.012-0.111-0.027-0.075-0.018-0.195-0.018-0.078 0-0.156 0.018-0.075 0.015-0.099 0.021v1.311h-0.279v-1.494q0.099-0.036 0.246-0.066 0.147-0.033 0.33-0.033z"/>
      <path id="path1460" d="m0.639 8h-0.279v-1.56h0.279zm-0.141-1.842q-0.075 0-0.129-0.048-0.051-0.051-0.051-0.135t0.051-0.132q0.054-0.051 0.129-0.051t0.126 0.051q0.054 0.048 0.054 0.132t-0.054 0.135q-0.051 0.048-0.126 0.048z"/>
      <path id="path1462" d="m2.097 7.844q-0.036 0.024-0.141 0.063-0.102 0.036-0.24 0.036-0.141 0-0.267-0.045-0.123-0.045-0.216-0.138-0.093-0.096-0.147-0.237t-0.054-0.336q0-0.171 0.051-0.312 0.051-0.144 0.147-0.246 0.099-0.105 0.24-0.162 0.141-0.06 0.318-0.06 0.195 0 0.339 0.03 0.147 0.027 0.246 0.051v1.392q0 0.36-0.186 0.522t-0.564 0.162q-0.147 0-0.279-0.024-0.129-0.024-0.225-0.057l0.051-0.243q0.084 0.033 0.204 0.057 0.123 0.027 0.255 0.027 0.249 0 0.357-0.099 0.111-0.099 0.111-0.315zm-3e-3 -1.158q-0.042-0.012-0.114-0.021-0.069-0.012-0.189-0.012-0.225 0-0.348 0.147-0.12 0.147-0.12 0.39 0 0.135 0.033 0.231 0.036 0.096 0.093 0.159 0.06 0.063 0.135 0.093 0.078 0.03 0.159 0.03 0.111 0 0.204-0.03 0.093-0.033 0.147-0.075z"/>
    </g>
    <g id="g331" transform="translate(25.23 106.62)">
      <path id="path_tysbhpsrxt" transform="matrix(.26458 0 0 .26458 -25.23 -106.62)" d="m83.451 385.38a5.6693 5.6693 0 0 0-5.668 5.6699v45.354a5.6693 5.6693 0 0 0 5.668 5.6699h23.812a5.6693 5.6693 0 0 0 5.668-5.6699v-45.354a5.6693 5.6693 0 0 0-5.668-5.6699zm11.906 4.3476a13.229 13.229 0 0 1 0 26.457 13.229 13.229 0 0 1 0-26.457zm-5.5098 35.426c0.50646 0 0.98175 0.0859 1.4277 0.25977 0.45354 0.17386 0.85125 0.43549 1.1914 0.7832 0.34016 0.34016 0.60815 0.76724 0.80469 1.2812 0.2041 0.51402 0.30664 1.1065 0.30664 1.7793s-0.10255 1.2672-0.30664 1.7812c-0.19654 0.51402-0.46453 0.9433-0.80469 1.291-0.34016 0.34016-0.73786 0.59763-1.1914 0.77149-0.44598 0.17386-0.92128 0.26172-1.4277 0.26172-0.51402 0-1.0018-0.0879-1.4629-0.26172-0.45354-0.17386-0.85541-0.43133-1.2031-0.77149-0.34016-0.34771-0.61231-0.77699-0.81641-1.291-0.19654-0.51402-0.29492-1.1085-0.29492-1.7812 0-0.67276 0.09839-1.2653 0.29492-1.7793 0.2041-0.51401 0.47625-0.94109 0.81641-1.2812 0.34772-0.34771 0.74958-0.60934 1.2031-0.7832 0.4611-0.17386 0.94888-0.25977 1.4629-0.25977zm12.789 0.31641v1.8262h2.2344v0.88477h-2.2344v2.7207c0 0.2948 0.023 0.53979 0.0684 0.73633 0.0453 0.18898 0.11241 0.33974 0.20312 0.45312 0.0907 0.10583 0.20574 0.18317 0.3418 0.22852 0.13606 0.0454 0.29319 0.0664 0.47461 0.0664 0.31748 0 0.57079-0.0335 0.75977-0.10157 0.19653-0.0756 0.33261-0.12796 0.4082-0.1582l0.20508 0.87305c-0.10583 0.0529-0.29208 0.11777-0.55664 0.19336-0.26457 0.0831-0.5661 0.12304-0.90625 0.12304-0.40063 0-0.73348-0.0482-0.99805-0.14648-0.25701-0.10583-0.46431-0.26075-0.62305-0.46485-0.15874-0.20409-0.27181-0.45324-0.33984-0.74804-0.0605-0.30236-0.0918-0.6499-0.0918-1.043v-5.2617zm-12.813 0.64648c-0.40063 0-0.76285 0.0754-1.0879 0.22657-0.31748 0.14362-0.58963 0.35092-0.81641 0.62304-0.21921 0.27213-0.39077 0.60498-0.51172 0.99805-0.12094 0.38551-0.17969 0.81675-0.17969 1.293s0.05874 0.91162 0.17969 1.3047c0.12094 0.38551 0.29251 0.7142 0.51172 0.98633 0.22677 0.27212 0.49893 0.48358 0.81641 0.63476 0.32504 0.14362 0.68726 0.21484 1.0879 0.21484s0.76064-0.0712 1.0781-0.21484c0.31748-0.15118 0.58548-0.36264 0.80469-0.63476 0.22677-0.27213 0.40054-0.60082 0.52148-0.98633 0.12094-0.39307 0.18164-0.82847 0.18164-1.3047s-0.06069-0.90746-0.18164-1.293c-0.12094-0.39307-0.29471-0.72592-0.52148-0.99805-0.21921-0.27212-0.48721-0.47942-0.80469-0.62304-0.31748-0.15118-0.6775-0.22657-1.0781-0.22657zm5.25 1.1797h1.0547v3.084c0 0.71811 0.11307 1.2311 0.33984 1.541s0.60784 0.46485 1.1445 0.46485c0.11339 0 0.23062-2e-3 0.35156-0.01s0.23402-0.0159 0.33984-0.0234c0.10583-0.0151 0.20201-0.0256 0.28516-0.0332 0.09071-0.0151 0.15361-0.0318 0.19141-0.0469v-4.9766h1.0547v5.7246c-0.24189 0.0605-0.56226 0.12533-0.96289 0.19336-0.39307 0.068-0.85147 0.10156-1.373 0.10156-0.45354 0-0.83461-0.0629-1.1445-0.1914-0.30992-0.13607-0.55907-0.32647-0.74805-0.56836-0.18898-0.24189-0.32505-0.52457-0.4082-0.84961-0.08315-0.3326-0.125-0.69898-0.125-1.0996z" style=""/>
    </g>
    <g id="g335" transform="translate(35.39 106.62)">
      <path id="path_jnwazpymjk" transform="matrix(.26458 0 0 .26458 -35.39 -106.62)" d="m121.85 385.38a5.6693 5.6693 0 0 0-5.668 5.6699v45.354a5.6693 5.6693 0 0 0 5.668 5.6699h23.811a5.6693 5.6693 0 0 0 5.6699-5.6699v-45.354a5.6693 5.6693 0 0 0-5.6699-5.6699zm11.906 4.3476a13.229 13.229 0 0 1 0 26.457 13.229 13.229 0 0 1 0-26.457zm-6.5703 35.605h1.0078c0.27213 0.56693 0.53376 1.1426 0.78321 1.7246 0.24944 0.57449 0.49859 1.1795 0.74804 1.8144 0.25701 0.63496 0.51864 1.307 0.78321 2.0176 0.26456 0.70299 0.54724 1.4712 0.84961 2.3027h-1.2012c-0.1285-0.34016-0.24989-0.67301-0.36328-0.99805-0.11338-0.3326-0.23062-0.66961-0.35156-1.0098h-3.5606l-0.71484 2.0078h-1.1445c0.30236-0.8315 0.58504-1.5998 0.84961-2.3027 0.26456-0.71055 0.52203-1.3826 0.77148-2.0176 0.25701-0.63496 0.51032-1.24 0.75977-1.8144 0.24945-0.58205 0.51107-1.1577 0.7832-1.7246zm0.47461 1.2598c-0.26457 0.56693-0.51592 1.1594-0.75781 1.7793-0.23433 0.61229-0.4688 1.2486-0.70313 1.9062h2.9238c-0.24189-0.65763-0.48272-1.294-0.72461-1.9062-0.23433-0.61984-0.48127-1.2124-0.73828-1.7793zm4.457 0.70312h1.0547v3.084c0 0.71811 0.11307 1.2311 0.33984 1.541s0.60784 0.46485 1.1445 0.46485c0.11339 0 0.23062-2e-3 0.35157-0.01 0.12094-8e-3 0.23401-0.0159 0.33984-0.0234 0.10583-0.0151 0.20201-0.0256 0.28516-0.0332 0.0907-0.0151 0.15361-0.0318 0.1914-0.0469v-4.9766h1.0547v5.7246c-0.24189 0.0605-0.56226 0.12533-0.96289 0.19336-0.39307 0.068-0.85147 0.10156-1.373 0.10156-0.45354 0-0.83461-0.0629-1.1445-0.1914-0.30992-0.13607-0.55907-0.32647-0.74805-0.56836-0.18897-0.24189-0.32505-0.52457-0.4082-0.84961-0.0831-0.3326-0.125-0.69898-0.125-1.0996zm5.9414 0h1.1914l1.4043 2.0625 1.418-2.0625h1.123l-1.9062 2.7324c0.36283 0.49134 0.73337 1.0126 1.1113 1.5645 0.38552 0.54425 0.712 1.078 0.97657 1.5996h-1.1562c-0.0831-0.1663-0.1857-0.35255-0.30664-0.55664-0.12095-0.2041-0.25287-0.4114-0.39649-0.62305-0.14362-0.21921-0.29218-0.43483-0.44336-0.64649-0.15118-0.21165-0.29778-0.41258-0.4414-0.60156-0.14363 0.18898-0.29218 0.39407-0.44336 0.61328-0.15118 0.21166-0.29779 0.42727-0.44141 0.64649-0.13606 0.21165-0.26382 0.41895-0.38477 0.62304-0.12094 0.2041-0.22349 0.38619-0.30664 0.54493h-1.0879c0.26457-0.51402 0.57662-1.0373 0.93946-1.5664 0.37039-0.53669 0.73677-1.0455 1.0996-1.5293z" style=""/>
    </g>
  </g>
  <g id="throughholes">
    <circle id="circle339" cx="7.45" cy="3" r="1.7"/>
    <circle id="circle341" cx="7.45" cy="125.5" r="1.7"/>
    <circle id="circle343" cx="32.85" cy="3" r="1.7"/>
    <circle id="circle345" cx="32.85" cy="125.5" r="1.7"/>
    <circle id="circle347" cx="7.45" cy="28.51" r="3.15"/>
    <circle id="circle351" cx="30.31" cy="28.51" r="3.65"/>
    <circle id="circle355" cx="7.45" cy="48.83" r="3.15"/>
    <circle id="circle359" cx="30.31" cy="48.83" r="3.65"/>
    <circle id="circle363" cx="7.45" cy="69.15" r="3.15"/>
    <circle id="circle367" cx="30.31" cy="69.15" r="3.65"/>
    <circle id="circle371" cx="7.45" cy="89.47" r="3.15"/>
    <circle id="circle375" cx="30.31" cy="89.47" r="3.65"/>
    <circle id="circle379" cx="4.91" cy="106.62" r="3.15"/>
    <circle id="circle383" cx="15.07" cy="106.62" r="3.15"/>
    <circle id="circle387" cx="25.23" cy="106.62" r="3.15"/>
    <circle id="circle391" cx="35.39" cy="106.62" r="3.15"/>
  </g>
  <g id="cosmetics">
    <g id="cosmetics_offset" transform="translate(20.15,12)">
      <g id="g401" transform="translate(-12.7,3.81)">
        <circle id="circle397" r="2.55" fill="url(#id1) none"/>
        <circle id="circle399" r="2.04" fill="url(#id2) none"/>
      </g>
      <g id="g407" transform="translate(-4.445 2.54)">
        <circle id="circle403" cy="1.27" r="1.55" fill="url(#id3) none"/>
        <ellipse id="ellipse405" transform="rotate(20 .51667 .495)" cx=".51667" cy=".495" rx=".775" ry=".51667" fill="#fff" opacity=".8"/>
      </g>
      <g id="g413" transform="translate(1.27 2.54)">
        <circle id="circle409" cy="1.27" r="1.55" fill="url(#id4) none"/>
        <ellipse id="ellipse411" transform="rotate(20 .51667 .495)" cx=".51667" cy=".495" rx=".775" ry=".51667" fill="#fff" opacity=".8"/>
      </g>
      <g id="g419" transform="translate(6.985,2.54)">
        <circle id="circle415" cy="1.27" r="1.55" fill="url(#id5) none"/>
        <ellipse id="ellipse417" transform="rotate(20 .51667 .495)" cx=".51667" cy=".495" rx=".775" ry=".51667" fill="#fff" opacity=".8"/>
      </g>
      <g id="g425" transform="translate(12.7,2.54)">
        <circle id="circle421" cy="1.27" r="1.55" fill="url(#id6) none"/>
        <ellipse id="ellipse423" transform="rotate(20 .51667 .495)" cx=".51667" cy=".495" rx=".775" ry=".51667" fill="#fff" opacity=".8"/>
      </g>
      <g id="g433" transform="translate(-12.7 16.51)">
        <path id="path427" d="m3.55 0-0.013509 0.3094 0.15654 0.34178-0.070807 0.31939-0.28631 0.2436-0.11852 0.28612 0.030203 0.37471-0.17578 0.27591-0.35236 0.13098-0.20923 0.22833-0.099776 0.36244-0.25954 0.19915-0.37591 0.00257-0.27471 0.143-0.21772 0.30645-0.312 0.098375-0.35412-0.12615-0.30705 0.040424-0.3094 0.21351-0.32683-0.01427-0.28962-0.23966-0.30236-0.067031-0.36377 0.094811-0.30224-0.12519-0.19018-0.32426-0.2612-0.1664-0.37426-0.035323-0.2412-0.22102-0.067807-0.36975-0.18853-0.2457-0.33961-0.1612-0.15106-0.29018 0.062745-0.37065-0.093128-0.29536-0.26399-0.26763-0.042701-0.32435 0.18573-0.32683 0.013509-0.3094-0.15654-0.34178 0.070807-0.31939 0.28631-0.2436 0.11852-0.28612-0.030203-0.37471 0.17578-0.27591 0.35236-0.13098 0.20923-0.22833 0.099776-0.36244 0.25954-0.19915 0.37591-0.00257 0.27471-0.143 0.21772-0.30645 0.312-0.098375 0.35412 0.12615 0.30705-0.040424 0.3094-0.21351 0.32683 0.01427 0.28962 0.23966 0.30236 0.067031 0.36377-0.094811 0.30224 0.12519 0.19018 0.32426 0.2612 0.1664 0.37426 0.035323 0.2412 0.22102 0.067807 0.36975 0.18853 0.2457 0.33961 0.1612 0.15106 0.29018-0.062745 0.37065 0.093128 0.29536 0.26399 0.26763 0.042701 0.32435z" fill="url(#id7) none"/>
        <circle id="circle429" r="3.15" fill="url(#id8) none"/>
        <circle id="circle431" r="2.35" fill="url(#id9) none"/>
      </g>
      <g id="g447" transform="translate(7.62 24.13)">
        <circle id="circle435" cx="2.54" cy="-7.62" r="7.15" fill="url(#id10) none"/>
        <circle id="circle437" cx="2.54" cy="-7.62" r="7.15" fill="url(#id11) none"/>
        <path id="path439" d="m-0.69282-12.07a5.5 5.5 0 0 1 3.8077-1.0203l0.46279 0.32345 0.63684 0.17064 0.56252-0.048716a5.5 5.5 0 0 1 2.7874 2.7874l-0.048716 0.56252 0.17064 0.63684 0.32345 0.46279a5.5 5.5 0 0 1-1.0203 3.8077l-0.51151 0.23907-0.4662 0.4662-0.23907 0.51151a5.5 5.5 0 0 1-3.8077 1.0203l-0.46279-0.32345-0.63684-0.17064-0.56252 0.048716a5.5 5.5 0 0 1-2.7874-2.7874l0.048716-0.56252-0.17064-0.63684-0.32345-0.46279a5.5 5.5 0 0 1 1.0203-3.8077l0.51151-0.23907 0.4662-0.4662z" fill="url(#id12) none"/>
        <path id="path441" d="m-0.25198-11.463a4.75 4.75 0 0 1 3.2885-0.88115l0.39295 0.31276 0.54586 0.14626 0.49668-0.074383a4.75 4.75 0 0 1 2.4073 2.4073l-0.074383 0.49668 0.14626 0.54586 0.31276 0.39295a4.75 4.75 0 0 1-0.88115 3.2885l-0.46733 0.18392-0.3996 0.3996-0.18392 0.46733a4.75 4.75 0 0 1-3.2885 0.88115l-0.39295-0.31276-0.54586-0.14626-0.49668 0.074383a4.75 4.75 0 0 1-2.4073-2.4073l0.074383-0.49668-0.14626-0.54586-0.31276-0.39295a4.75 4.75 0 0 1 0.88115-3.2885l0.46733-0.18392 0.3996-0.3996z" fill="url(#id13) none"/>
        <circle id="circle443" cx="2.54" cy="-7.62" r="4" fill="url(#id14) none"/>
        <line id="line445" x1="2.54" x2="-.28843" y1="-7.62" y2="-10.448" stroke="#000" stroke-width=".8"/>
      </g>
      <g id="g455" transform="translate(-12.7,36.83)">
        <path id="path449" d="m3.55 0-0.013509 0.3094 0.15654 0.34178-0.070807 0.31939-0.28631 0.2436-0.11852 0.28612 0.030203 0.37471-0.17578 0.27591-0.35236 0.13098-0.20923 0.22833-0.099776 0.36244-0.25954 0.19915-0.37591 0.00257-0.27471 0.143-0.21772 0.30645-0.312 0.098375-0.35412-0.12615-0.30705 0.040424-0.3094 0.21351-0.32683-0.01427-0.28962-0.23966-0.30236-0.067031-0.36377 0.094811-0.30224-0.12519-0.19018-0.32426-0.2612-0.1664-0.37426-0.035323-0.2412-0.22102-0.067807-0.36975-0.18853-0.2457-0.33961-0.1612-0.15106-0.29018 0.062745-0.37065-0.093128-0.29536-0.26399-0.26763-0.042701-0.32435 0.18573-0.32683 0.013509-0.3094-0.15654-0.34178 0.070807-0.31939 0.28631-0.2436 0.11852-0.28612-0.030203-0.37471 0.17578-0.27591 0.35236-0.13098 0.20923-0.22833 0.099776-0.36244 0.25954-0.19915 0.37591-0.00257 0.27471-0.143 0.21772-0.30645 0.312-0.098375 0.35412 0.12615 0.30705-0.040424 0.3094-0.21351 0.32683 0.01427 0.28962 0.23966 0.30236 0.067031 0.36377-0.094811 0.30224 0.12519 0.19018 0.32426 0.2612 0.1664 0.37426 0.035323 0.2412 0.22102 0.067807 0.36975 0.18853 0.2457 0.33961 0.1612 0.15106 0.29018-0.062745 0.37065 0.093128 0.29536 0.26399 0.26763 0.042701 0.32435z" fill="url(#id7) none"/>
        <circle id="circle451" r="3.15" fill="url(#id8) none"/>
        <circle id="circle453" r="2.35" fill="url(#id9) none"/>
      </g>
      <g id="g469" transform="translate(7.62 44.45)">
        <circle id="circle457" cx="2.54" cy="-7.62" r="7.15" fill="url(#id10) none"/>
        <circle id="circle459" cx="2.54" cy="-7.62" r="7.15" fill="url(#id11) none"/>
        <path id="path461" d="m-0.69282-12.07a5.5 5.5 0 0 1 3.8077-1.0203l0.46279 0.32345 0.63684 0.17064 0.56252-0.048716a5.5 5.5 0 0 1 2.7874 2.7874l-0.048716 0.56252 0.17064 0.63684 0.32345 0.46279a5.5 5.5 0 0 1-1.0203 3.8077l-0.51151 0.23907-0.4662 0.4662-0.23907 0.51151a5.5 5.5 0 0 1-3.8077 1.0203l-0.46279-0.32345-0.63684-0.17064-0.56252 0.048716a5.5 5.5 0 0 1-2.7874-2.7874l0.048716-0.56252-0.17064-0.63684-0.32345-0.46279a5.5 5.5 0 0 1 1.0203-3.8077l0.51151-0.23907 0.4662-0.4662z" fill="url(#id12) none"/>
        <path id="path463" d="m-0.25198-11.463a4.75 4.75 0 0 1 3.2885-0.88115l0.39295 0.31276 0.54586 0.14626 0.49668-0.074383a4.75 4.75 0 0 1 2.4073 2.4073l-0.074383 0.49668 0.14626 0.54586 0.31276 0.39295a4.75 4.75 0 0 1-0.88115 3.2885l-0.46733 0.18392-0.3996 0.3996-0.18392 0.46733a4.75 4.75 0 0 1-3.2885 0.88115l-0.39295-0.31276-0.54586-0.14626-0.49668 0.074383a4.75 4.75 0 0 1-2.4073-2.4073l0.074383-0.49668-0.14626-0.54586-0.31276-0.39295a4.75 4.75 0 0 1 0.88115-3.2885l0.46733-0.18392 0.3996-0.3996z" fill="url(#id13) none"/>
        <circle id="circle465" cx="2.54" cy="-7.62" r="4" fill="url(#id22) none"/>
        <line id="line467" x1="2.54" x2="-.28843" y1="-7.62" y2="-10.448" stroke="#000" stroke-width=".8"/>
      </g>
      <g id="g477" transform="translate(-12.7 57.15)">
        <path id="path471" d="m3.55 0-0.013509 0.3094 0.15654 0.34178-0.070807 0.31939-0.28631 0.2436-0.11852 0.28612 0.030203 0.37471-0.17578 0.27591-0.35236 0.13098-0.20923 0.22833-0.099776 0.36244-0.25954 0.19915-0.37591 0.00257-0.27471 0.143-0.21772 0.30645-0.312 0.098375-0.35412-0.12615-0.30705 0.040424-0.3094 0.21351-0.32683-0.01427-0.28962-0.23966-0.30236-0.067031-0.36377 0.094811-0.30224-0.12519-0.19018-0.32426-0.2612-0.1664-0.37426-0.035323-0.2412-0.22102-0.067807-0.36975-0.18853-0.2457-0.33961-0.1612-0.15106-0.29018 0.062745-0.37065-0.093128-0.29536-0.26399-0.26763-0.042701-0.32435 0.18573-0.32683 0.013509-0.3094-0.15654-0.34178 0.070807-0.31939 0.28631-0.2436 0.11852-0.28612-0.030203-0.37471 0.17578-0.27591 0.35236-0.13098 0.20923-0.22833 0.099776-0.36244 0.25954-0.19915 0.37591-0.00257 0.27471-0.143 0.21772-0.30645 0.312-0.098375 0.35412 0.12615 0.30705-0.040424 0.3094-0.21351 0.32683 0.01427 0.28962 0.23966 0.30236 0.067031 0.36377-0.094811 0.30224 0.12519 0.19018 0.32426 0.2612 0.1664 0.37426 0.035323 0.2412 0.22102 0.067807 0.36975 0.18853 0.2457 0.33961 0.1612 0.15106 0.29018-0.062745 0.37065 0.093128 0.29536 0.26399 0.26763 0.042701 0.32435z" fill="url(#id7) none"/>
        <circle id="circle473" r="3.15" fill="url(#id8) none"/>
        <circle id="circle475" r="2.35" fill="url(#id9) none"/>
      </g>
      <g id="g491" transform="translate(7.62 64.77)">
        <circle id="circle479" cx="2.54" cy="-7.62" r="7.15" fill="url(#id10) none"/>
        <circle id="circle481" cx="2.54" cy="-7.62" r="7.15" fill="url(#id11) none"/>
        <path id="path483" d="m-0.69282-12.07a5.5 5.5 0 0 1 3.8077-1.0203l0.46279 0.32345 0.63684 0.17064 0.56252-0.048716a5.5 5.5 0 0 1 2.7874 2.7874l-0.048716 0.56252 0.17064 0.63684 0.32345 0.46279a5.5 5.5 0 0 1-1.0203 3.8077l-0.51151 0.23907-0.4662 0.4662-0.23907 0.51151a5.5 5.5 0 0 1-3.8077 1.0203l-0.46279-0.32345-0.63684-0.17064-0.56252 0.048716a5.5 5.5 0 0 1-2.7874-2.7874l0.048716-0.56252-0.17064-0.63684-0.32345-0.46279a5.5 5.5 0 0 1 1.0203-3.8077l0.51151-0.23907 0.4662-0.4662z" fill="url(#id12) none"/>
        <path id="path485" d="m-0.25198-11.463a4.75 4.75 0 0 1 3.2885-0.88115l0.39295 0.31276 0.54586 0.14626 0.49668-0.074383a4.75 4.75 0 0 1 2.4073 2.4073l-0.074383 0.49668 0.14626 0.54586 0.31276 0.39295a4.75 4.75 0 0 1-0.88115 3.2885l-0.46733 0.18392-0.3996 0.3996-0.18392 0.46733a4.75 4.75 0 0 1-3.2885 0.88115l-0.39295-0.31276-0.54586-0.14626-0.49668 0.074383a4.75 4.75 0 0 1-2.4073-2.4073l0.074383-0.49668-0.14626-0.54586-0.31276-0.39295a4.75 4.75 0 0 1 0.88115-3.2885l0.46733-0.18392 0.3996-0.3996z" fill="url(#id13) none"/>
        <circle id="circle487" cx="2.54" cy="-7.62" r="4" fill="url(#id30) none"/>
        <line id="line489" x1="2.54" x2="-.28843" y1="-7.62" y2="-10.448" stroke="#fff" stroke-width=".8"/>
      </g>
      <g id="g499" transform="translate(-12.7,77.47)">
        <path id="path493" d="m3.55 0-0.013509 0.3094 0.15654 0.34178-0.070807 0.31939-0.28631 0.2436-0.11852 0.28612 0.030203 0.37471-0.17578 0.27591-0.35236 0.13098-0.20923 0.22833-0.099776 0.36244-0.25954 0.19915-0.37591 0.00257-0.27471 0.143-0.21772 0.30645-0.312 0.098375-0.35412-0.12615-0.30705 0.040424-0.3094 0.21351-0.32683-0.01427-0.28962-0.23966-0.30236-0.067031-0.36377 0.094811-0.30224-0.12519-0.19018-0.32426-0.2612-0.1664-0.37426-0.035323-0.2412-0.22102-0.067807-0.36975-0.18853-0.2457-0.33961-0.1612-0.15106-0.29018 0.062745-0.37065-0.093128-0.29536-0.26399-0.26763-0.042701-0.32435 0.18573-0.32683 0.013509-0.3094-0.15654-0.34178 0.070807-0.31939 0.28631-0.2436 0.11852-0.28612-0.030203-0.37471 0.17578-0.27591 0.35236-0.13098 0.20923-0.22833 0.099776-0.36244 0.25954-0.19915 0.37591-0.00257 0.27471-0.143 0.21772-0.30645 0.312-0.098375 0.35412 0.12615 0.30705-0.040424 0.3094-0.21351 0.32683 0.01427 0.28962 0.23966 0.30236 0.067031 0.36377-0.094811 0.30224 0.12519 0.19018 0.32426 0.2612 0.1664 0.37426 0.035323 0.2412 0.22102 0.067807 0.36975 0.18853 0.2457 0.33961 0.1612 0.15106 0.29018-0.062745 0.37065 0.093128 0.29536 0.26399 0.26763 0.042701 0.32435z" fill="url(#id7) none"/>
        <circle id="circle495" r="3.15" fill="url(#id8) none"/>
        <circle id="circle497" r="2.35" fill="url(#id9) none"/>
      </g>
      <g id="g513" transform="translate(7.62 85.09)">
        <circle id="circle501" cx="2.54" cy="-7.62" r="7.15" fill="url(#id10) none"/>
        <circle id="circle503" cx="2.54" cy="-7.62" r="7.15" fill="url(#id11) none"/>
        <path id="path505" d="m-0.69282-12.07a5.5 5.5 0 0 1 3.8077-1.0203l0.46279 0.32345 0.63684 0.17064 0.56252-0.048716a5.5 5.5 0 0 1 2.7874 2.7874l-0.048716 0.56252 0.17064 0.63684 0.32345 0.46279a5.5 5.5 0 0 1-1.0203 3.8077l-0.51151 0.23907-0.4662 0.4662-0.23907 0.51151a5.5 5.5 0 0 1-3.8077 1.0203l-0.46279-0.32345-0.63684-0.17064-0.56252 0.048716a5.5 5.5 0 0 1-2.7874-2.7874l0.048716-0.56252-0.17064-0.63684-0.32345-0.46279a5.5 5.5 0 0 1 1.0203-3.8077l0.51151-0.23907 0.4662-0.4662z" fill="url(#id12) none"/>
        <path id="path507" d="m-0.25198-11.463a4.75 4.75 0 0 1 3.2885-0.88115l0.39295 0.31276 0.54586 0.14626 0.49668-0.074383a4.75 4.75 0 0 1 2.4073 2.4073l-0.074383 0.49668 0.14626 0.54586 0.31276 0.39295a4.75 4.75 0 0 1-0.88115 3.2885l-0.46733 0.18392-0.3996 0.3996-0.18392 0.46733a4.75 4.75 0 0 1-3.2885 0.88115l-0.39295-0.31276-0.54586-0.14626-0.49668 0.074383a4.75 4.75 0 0 1-2.4073-2.4073l0.074383-0.49668-0.14626-0.54586-0.31276-0.39295a4.75 4.75 0 0 1 0.88115-3.2885l0.46733-0.18392 0.3996-0.3996z" fill="url(#id13) none"/>
        <circle id="circle509" cx="2.54" cy="-7.62" r="4" fill="url(#id38) none"/>
        <line id="line511" x1="2.54" x2="-.28843" y1="-7.62" y2="-10.448" stroke="#fff" stroke-width=".8"/>
      </g>
      <g id="g521" transform="translate(-15.24 94.615)">
        <path id="path515" d="m3.55 0-0.013509 0.3094 0.15654 0.34178-0.070807 0.31939-0.28631 0.2436-0.11852 0.28612 0.030203 0.37471-0.17578 0.27591-0.35236 0.13098-0.20923 0.22833-0.099776 0.36244-0.25954 0.19915-0.37591 0.00257-0.27471 0.143-0.21772 0.30645-0.312 0.098375-0.35412-0.12615-0.30705 0.040424-0.3094 0.21351-0.32683-0.01427-0.28962-0.23966-0.30236-0.067031-0.36377 0.094811-0.30224-0.12519-0.19018-0.32426-0.2612-0.1664-0.37426-0.035323-0.2412-0.22102-0.067807-0.36975-0.18853-0.2457-0.33961-0.1612-0.15106-0.29018 0.062745-0.37065-0.093128-0.29536-0.26399-0.26763-0.042701-0.32435 0.18573-0.32683 0.013509-0.3094-0.15654-0.34178 0.070807-0.31939 0.28631-0.2436 0.11852-0.28612-0.030203-0.37471 0.17578-0.27591 0.35236-0.13098 0.20923-0.22833 0.099776-0.36244 0.25954-0.19915 0.37591-0.00257 0.27471-0.143 0.21772-0.30645 0.312-0.098375 0.35412 0.12615 0.30705-0.040424 0.3094-0.21351 0.32683 0.01427 0.28962 0.23966 0.30236 0.067031 0.36377-0.094811 0.30224 0.12519 0.19018 0.32426 0.2612 0.1664 0.37426 0.035323 0.2412 0.22102 0.067807 0.36975 0.18853 0.2457 0.33961 0.1612 0.15106 0.29018-0.062745 0.37065 0.093128 0.29536 0.26399 0.26763 0.042701 0.32435z" fill="url(#id7) none"/>
        <circle id="circle517" r="3.15" fill="url(#id8) none"/>
        <circle id="circle519" r="2.35" fill="url(#id9) none"/>
      </g>
      <g id="g529" transform="translate(-5.08 94.615)">
        <path id="path523" d="m3.55 0-0.013509 0.3094 0.15654 0.34178-0.070807 0.31939-0.28631 0.2436-0.11852 0.28612 0.030203 0.37471-0.17578 0.27591-0.35236 0.13098-0.20923 0.22833-0.099776 0.36244-0.25954 0.19915-0.37591 0.00257-0.27471 0.143-0.21772 0.30645-0.312 0.098375-0.35412-0.12615-0.30705 0.040424-0.3094 0.21351-0.32683-0.01427-0.28962-0.23966-0.30236-0.067031-0.36377 0.094811-0.30224-0.12519-0.19018-0.32426-0.2612-0.1664-0.37426-0.035323-0.2412-0.22102-0.067807-0.36975-0.18853-0.2457-0.33961-0.1612-0.15106-0.29018 0.062745-0.37065-0.093128-0.29536-0.26399-0.26763-0.042701-0.32435 0.18573-0.32683 0.013509-0.3094-0.15654-0.34178 0.070807-0.31939 0.28631-0.2436 0.11852-0.28612-0.030203-0.37471 0.17578-0.27591 0.35236-0.13098 0.20923-0.22833 0.099776-0.36244 0.25954-0.19915 0.37591-0.00257 0.27471-0.143 0.21772-0.30645 0.312-0.098375 0.35412 0.12615 0.30705-0.040424 0.3094-0.21351 0.32683 0.01427 0.28962 0.23966 0.30236 0.067031 0.36377-0.094811 0.30224 0.12519 0.19018 0.32426 0.2612 0.1664 0.37426 0.035323 0.2412 0.22102 0.067807 0.36975 0.18853 0.2457 0.33961 0.1612 0.15106 0.29018-0.062745 0.37065 0.093128 0.29536 0.26399 0.26763 0.042701 0.32435z" fill="url(#id7) none"/>
        <circle id="circle525" r="3.15" fill="url(#id8) none"/>
        <circle id="circle527" r="2.35" fill="url(#id9) none"/>
      </g>
      <g id="g537" transform="translate(5.08 94.615)">
        <path id="path531" d="m3.55 0-0.013509 0.3094 0.15654 0.34178-0.070807 0.31939-0.28631 0.2436-0.11852 0.28612 0.030203 0.37471-0.17578 0.27591-0.35236 0.13098-0.20923 0.22833-0.099776 0.36244-0.25954 0.19915-0.37591 0.00257-0.27471 0.143-0.21772 0.30645-0.312 0.098375-0.35412-0.12615-0.30705 0.040424-0.3094 0.21351-0.32683-0.01427-0.28962-0.23966-0.30236-0.067031-0.36377 0.094811-0.30224-0.12519-0.19018-0.32426-0.2612-0.1664-0.37426-0.035323-0.2412-0.22102-0.067807-0.36975-0.18853-0.2457-0.33961-0.1612-0.15106-0.29018 0.062745-0.37065-0.093128-0.29536-0.26399-0.26763-0.042701-0.32435 0.18573-0.32683 0.013509-0.3094-0.15654-0.34178 0.070807-0.31939 0.28631-0.2436 0.11852-0.28612-0.030203-0.37471 0.17578-0.27591 0.35236-0.13098 0.20923-0.22833 0.099776-0.36244 0.25954-0.19915 0.37591-0.00257 0.27471-0.143 0.21772-0.30645 0.312-0.098375 0.35412 0.12615 0.30705-0.040424 0.3094-0.21351 0.32683 0.01427 0.28962 0.23966 0.30236 0.067031 0.36377-0.094811 0.30224 0.12519 0.19018 0.32426 0.2612 0.1664 0.37426 0.035323 0.2412 0.22102 0.067807 0.36975 0.18853 0.2457 0.33961 0.1612 0.15106 0.29018-0.062745 0.37065 0.093128 0.29536 0.26399 0.26763 0.042701 0.32435z" fill="url(#id7) none"/>
        <circle id="circle533" r="3.15" fill="url(#id8) none"/>
        <circle id="circle535" r="2.35" fill="url(#id9) none"/>
      </g>
      <g id="g545" transform="translate(15.24 94.615)">
        <path id="path539" d="m3.55 0-0.013509 0.3094 0.15654 0.34178-0.070807 0.31939-0.28631 0.2436-0.11852 0.28612 0.030203 0.37471-0.17578 0.27591-0.35236 0.13098-0.20923 0.22833-0.099776 0.36244-0.25954 0.19915-0.37591 0.00257-0.27471 0.143-0.21772 0.30645-0.312 0.098375-0.35412-0.12615-0.30705 0.040424-0.3094 0.21351-0.32683-0.01427-0.28962-0.23966-0.30236-0.067031-0.36377 0.094811-0.30224-0.12519-0.19018-0.32426-0.2612-0.1664-0.37426-0.035323-0.2412-0.22102-0.067807-0.36975-0.18853-0.2457-0.33961-0.1612-0.15106-0.29018 0.062745-0.37065-0.093128-0.29536-0.26399-0.26763-0.042701-0.32435 0.18573-0.32683 0.013509-0.3094-0.15654-0.34178 0.070807-0.31939 0.28631-0.2436 0.11852-0.28612-0.030203-0.37471 0.17578-0.27591 0.35236-0.13098 0.20923-0.22833 0.099776-0.36244 0.25954-0.19915 0.37591-0.00257 0.27471-0.143 0.21772-0.30645 0.312-0.098375 0.35412 0.12615 0.30705-0.040424 0.3094-0.21351 0.32683 0.01427 0.28962 0.23966 0.30236 0.067031 0.36377-0.094811 0.30224 0.12519 0.19018 0.32426 0.2612 0.1664 0.37426 0.035323 0.2412 0.22102 0.067807 0.36975 0.18853 0.2457 0.33961 0.1612 0.15106 0.29018-0.062745 0.37065 0.093128 0.29536 0.26399 0.26763 0.042701 0.32435z" fill="url(#id7) none"/>
        <circle id="circle541" r="3.15" fill="url(#id8) none"/>
        <circle id="circle543" r="2.35" fill="url(#id9) none"/>
      </g>
    </g>
  </g>
</svg>
