<?xml version="1.0" encoding="UTF-8"?>
<svg id="svg311" width="30.1mm" height="128.5mm" version="1.1" viewBox="0 0 30.1 128.5" xmlns="http://www.w3.org/2000/svg">
  <defs id="defs147">
    <linearGradient id="id1" x1="1" x2="0" y2="1">
      <stop id="stop3" stop-color="#fff" offset="-1"/>
      <stop id="stop5" offset="2"/>
    </linearGradient>
    <radialGradient id="id2">
      <stop id="stop8" offset=".74603"/>
      <stop id="stop10" stop-color="#fff" offset=".87302"/>
      <stop id="stop12" stop-color="#444" offset="1"/>
    </radialGradient>
    <linearGradient id="id3" x1="1" x2="0" y2="1">
      <stop id="stop15" offset="0"/>
      <stop id="stop17" stop-color="#333" offset="1"/>
    </linearGradient>
    <linearGradient id="id4" x1=".70711" x2="0" y2=".70711">
      <stop id="stop20" stop-color="#666" offset="0"/>
      <stop id="stop22" stop-color="#191919" offset="1"/>
    </linearGradient>
    <radialGradient id="id5">
      <stop id="stop25" offset=".70297"/>
      <stop id="stop27" stop-opacity="0" offset=".95108"/>
    </radialGradient>
    <linearGradient id="id6" x1=".70711" x2="0" y2=".70711">
      <stop id="stop30" stop-color="#666" offset="0"/>
      <stop id="stop32" stop-color="#686868" offset=".04"/>
      <stop id="stop34" stop-color="#212121" offset="1"/>
    </linearGradient>
    <linearGradient id="id7" x1=".70711" x2="0" y2=".70711">
      <stop id="stop37" stop-color="#777" offset="0"/>
      <stop id="stop39" stop-color="#555" offset="1"/>
    </linearGradient>
    <linearGradient id="id8" x1=".70711" x2="0" y2=".70711">
      <stop id="stop42" stop-color="#92cba8" offset="0"/>
      <stop id="stop44" stop-color="#379a64" offset="1"/>
    </linearGradient>
    <linearGradient id="id9" x1=".70711" x2="0" y2=".70711">
      <stop id="stop47" stop-color="#444" offset="0"/>
      <stop id="stop49" stop-color="#212121" offset="1"/>
    </linearGradient>
    <radialGradient id="id17">
      <stop id="stop91" stop-color="#fff" offset="0"/>
      <stop id="stop93" stop-color="green" offset="1"/>
    </radialGradient>
  </defs>
  <rect id="background" width="30.1" height="128.5" fill="#fff"/>
  <g id="stencil" font-family="Ubuntu" font-size="3">
    <path id="path1134" d="m7.6125 10.03q-0.105 0-0.23-5e-3 -0.12-5e-3 -0.245-0.015-0.12-0.01-0.24-0.025t-0.22-0.04v-3.36q0.1-0.025 0.22-0.04t0.24-0.025q0.125-0.01 0.245-0.015t0.225-5e-3q0.3 0 0.56 0.045 0.265 0.045 0.455 0.155 0.195 0.105 0.305 0.28t0.11 0.43q0 0.285-0.135 0.47-0.135 0.18-0.36 0.27 0.305 0.09 0.485 0.285t0.18 0.55q0 0.52-0.385 0.785-0.38 0.26-1.21 0.26zm-0.455-1.645v1.22q0.055 5e-3 0.13 0.01 0.065 5e-3 0.15 0.01 0.09 0 0.205 0 0.215 0 0.405-0.025 0.195-0.03 0.34-0.1t0.23-0.195q0.09-0.125 0.09-0.315 0-0.17-0.065-0.285-0.065-0.12-0.19-0.19-0.12-0.07-0.29-0.1t-0.38-0.03zm0-0.39h0.51q0.18 0 0.34-0.025t0.275-0.09q0.12-0.065 0.185-0.17 0.07-0.105 0.07-0.265 0-0.15-0.07-0.25-0.07-0.105-0.195-0.165-0.12-0.065-0.285-0.095t-0.35-0.03-0.29 5e-3 -0.19 0.015z"/>
    <path id="path1136" d="m10.328 10h-0.465v-2.6h0.465zm-0.235-3.07q-0.125 0-0.215-0.08-0.085-0.085-0.085-0.225t0.085-0.22q0.09-0.085 0.215-0.085 0.125 0 0.21 0.085 0.09 0.08 0.09 0.22t-0.09 0.225q-0.085 0.08-0.21 0.08z"/>
    <path id="path1138" d="m13.423 8.7q0 0.31-0.09 0.56t-0.255 0.43q-0.16 0.18-0.385 0.28-0.225 0.095-0.49 0.095t-0.49-0.095q-0.225-0.1-0.39-0.28-0.16-0.18-0.25-0.43t-0.09-0.56q0-0.305 0.09-0.555 0.09-0.255 0.25-0.435 0.165-0.18 0.39-0.275 0.225-0.1 0.49-0.1t0.49 0.1q0.225 0.095 0.385 0.275 0.165 0.18 0.255 0.435 0.09 0.25 0.09 0.555zm-0.485 0q0-0.44-0.2-0.695-0.195-0.26-0.535-0.26t-0.54 0.26q-0.195 0.255-0.195 0.695t0.195 0.7q0.2 0.255 0.54 0.255t0.535-0.255q0.2-0.26 0.2-0.7z"/>
    <path id="path1140" d="m15.758 7.95q-0.085-0.07-0.245-0.135t-0.35-0.065q-0.2 0-0.345 0.075-0.14 0.07-0.23 0.2-0.09 0.125-0.13 0.3t-0.04 0.375q0 0.455 0.225 0.705 0.225 0.245 0.6 0.245 0.19 0 0.315-0.015 0.13-0.02 0.2-0.04zm0-1.75 0.465-0.08v3.805q-0.16 0.045-0.41 0.09t-0.575 0.045q-0.3 0-0.54-0.095t-0.41-0.27-0.265-0.425q-0.09-0.255-0.09-0.57 0-0.3 0.075-0.55 0.08-0.25 0.23-0.43t0.365-0.28q0.22-0.1 0.5-0.1 0.225 0 0.395 0.06 0.175 0.06 0.26 0.115z"/>
    <path id="path1142" d="m17.902 9.665q0.165 0 0.29-5e-3 0.13-0.01 0.215-0.03v-0.775q-0.05-0.025-0.165-0.04-0.11-0.02-0.27-0.02-0.105 0-0.225 0.015-0.115 0.015-0.215 0.065-0.095 0.045-0.16 0.13-0.065 0.08-0.065 0.215 0 0.25 0.16 0.35 0.16 0.095 0.435 0.095zm-0.04-2.33q0.28 0 0.47 0.075 0.195 0.07 0.31 0.205 0.12 0.13 0.17 0.315 0.05 0.18 0.05 0.4v1.625q-0.06 0.01-0.17 0.03-0.105 0.015-0.24 0.03t-0.295 0.025q-0.155 0.015-0.31 0.015-0.22 0-0.405-0.045t-0.32-0.14q-0.135-0.1-0.21-0.26t-0.075-0.385q0-0.215 0.085-0.37 0.09-0.155 0.24-0.25t0.35-0.14 0.42-0.045q0.07 0 0.145 0.01 0.075 5e-3 0.14 0.02 0.07 0.01 0.12 0.02t0.07 0.015v-0.13q0-0.115-0.025-0.225-0.025-0.115-0.09-0.2-0.065-0.09-0.18-0.14-0.11-0.055-0.29-0.055-0.23 0-0.405 0.035-0.17 0.03-0.255 0.065l-0.055-0.385q0.09-0.04 0.3-0.075 0.21-0.04 0.455-0.04z"/>
    <path id="path1144" d="m20.067 7.4h0.985v0.39h-0.985v1.2q0 0.195 0.03 0.325 0.03 0.125 0.09 0.2 0.06 0.07 0.15 0.1t0.21 0.03q0.21 0 0.335-0.045 0.13-0.05 0.18-0.07l0.09 0.385q-0.07 0.035-0.245 0.085-0.175 0.055-0.4 0.055-0.265 0-0.44-0.065-0.17-0.07-0.275-0.205t-0.15-0.33q-0.04-0.2-0.04-0.46v-2.32l0.465-0.08z"/>
    <path id="path1146" d="m22.522 9.665q0.165 0 0.29-5e-3 0.13-0.01 0.215-0.03v-0.775q-0.05-0.025-0.165-0.04-0.11-0.02-0.27-0.02-0.105 0-0.225 0.015-0.115 0.015-0.215 0.065-0.095 0.045-0.16 0.13-0.065 0.08-0.065 0.215 0 0.25 0.16 0.35 0.16 0.095 0.435 0.095zm-0.04-2.33q0.28 0 0.47 0.075 0.195 0.07 0.31 0.205 0.12 0.13 0.17 0.315 0.05 0.18 0.05 0.4v1.625q-0.06 0.01-0.17 0.03-0.105 0.015-0.24 0.03t-0.295 0.025q-0.155 0.015-0.31 0.015-0.22 0-0.405-0.045t-0.32-0.14q-0.135-0.1-0.21-0.26t-0.075-0.385q0-0.215 0.085-0.37 0.09-0.155 0.24-0.25t0.35-0.14 0.42-0.045q0.07 0 0.145 0.01 0.075 5e-3 0.14 0.02 0.07 0.01 0.12 0.02t0.07 0.015v-0.13q0-0.115-0.025-0.225-0.025-0.115-0.09-0.2-0.065-0.09-0.18-0.14-0.11-0.055-0.29-0.055-0.23 0-0.405 0.035-0.17 0.03-0.255 0.065l-0.055-0.385q0.09-0.04 0.3-0.075 0.21-0.04 0.455-0.04z"/>
    <path id="path153" transform="translate(7.55 116.5) scale(.15)" d="m23.274 0c-12.804 0-23.274 10.47-23.274 23.274 0 12.804 10.47 23.274 23.274 23.274 6.2817 0 11.38-2.5486 15.731-6.2455 1.5387-1.3073 3.0762-2.7877 4.6583-4.3876l-0.0086-5.8693-5.9894 0.0026c-1.4839 1.5057-2.8467 2.8283-4.0804 3.8765-3.5126 2.9845-6.0494 4.2541-10.311 4.2541-8.2813 0-14.905-6.6235-14.905-14.905 0-8.2813 6.6235-14.905 14.905-14.905 4.2612 0 6.7981 1.2697 10.311 4.2541 1.2337 1.0482 2.5965 2.3707 4.0804 3.8765l5.9894 0.0026 0.0086-5.8693c-1.5821-1.5999-3.1196-3.0803-4.6583-4.3876-4.351-3.6969-9.4489-6.2455-15.731-6.2455zm53.451 0c-6.2815 1.0197e-4 -11.379 2.5487-15.73 6.2455-1.6075 1.3659-3.2135 2.9188-4.8712 4.602h12.572c2.4765-1.7176 4.7403-2.4782 8.0292-2.4783h3.82e-4c6.2002 0 11.47 3.7129 13.728 9.0545l-6.0416-0.07531-8.5851-3.0797-28.741 3.81e-4v5.6456h-22.686v6.7186h22.686v5.6456l28.741 3.82e-4 8.5851-3.0797 6.0416-0.07531c-2.2576 5.3415-7.5279 9.0545-13.728 9.0545h-3.82e-4c-3.2889-5.9e-5 -5.5527-0.76071-8.0292-2.4783h-12.572c1.6577 1.6832 3.2637 3.2361 4.8712 4.602 4.3509 3.6968 9.4487 6.2454 15.73 6.2455h3.82e-4c12.804 0 23.274-10.47 23.274-23.274-8e-6 -12.804-10.47-23.274-23.274-23.274zm-59.712 19.295-2.8907 3.9786 2.8907 3.9786 4.6773-1.5197v-4.9178z"/>
    <g id="g156" transform="translate(7.43,19.54)">
      <path id="path1149" d="m-3.288 5.9q0.438 0 0.672 0.168 0.237 0.165 0.237 0.495 0 0.18-0.066 0.309-0.063 0.126-0.186 0.207-0.12 0.078-0.294 0.114t-0.393 0.036h-0.231v0.771h-0.291v-2.049q0.123-0.03 0.273-0.039 0.153-0.012 0.279-0.012zm0.024 0.255q-0.186 0-0.285 9e-3v0.816h0.219q0.15 0 0.27-0.018 0.12-0.021 0.201-0.066 0.084-0.048 0.129-0.129t0.045-0.207q0-0.12-0.048-0.198-0.045-0.078-0.126-0.123-0.078-0.048-0.183-0.066t-0.222-0.018z"/>
      <path id="path1151" d="m-1.458 6.407q0.036 0 0.081 6e-3 0.048 3e-3 0.093 0.012 0.045 6e-3 0.081 0.015 0.039 6e-3 0.057 0.012l-0.048 0.243q-0.033-0.012-0.111-0.027-0.075-0.018-0.195-0.018-0.078 0-0.156 0.018-0.075 0.015-0.099 0.021v1.311h-0.279v-1.494q0.099-0.036 0.246-0.066 0.147-0.033 0.33-0.033z"/>
      <path id="path1153" d="m0.50101 7.22q0 0.186-0.054 0.336t-0.153 0.258q-0.096 0.108-0.231 0.168-0.135 0.057-0.294 0.057t-0.294-0.057q-0.135-0.06-0.234-0.168-0.096-0.108-0.15-0.258t-0.054-0.336q0-0.183 0.054-0.333 0.054-0.153 0.15-0.261 0.099-0.108 0.234-0.165 0.135-0.06 0.294-0.06t0.294 0.06q0.135 0.057 0.231 0.165 0.099 0.108 0.153 0.261 0.054 0.15 0.054 0.333zm-0.291 0q0-0.264-0.12-0.417-0.117-0.156-0.321-0.156t-0.324 0.156q-0.117 0.153-0.117 0.417t0.117 0.42q0.12 0.153 0.324 0.153t0.321-0.153q0.12-0.156 0.12-0.42z"/>
      <path id="path1155" d="m1.173 6.509q0.051-0.033 0.153-0.069 0.105-0.036 0.24-0.036 0.168 0 0.297 0.06 0.132 0.06 0.222 0.168t0.135 0.258q0.048 0.15 0.048 0.33 0 0.189-0.057 0.342-0.054 0.15-0.156 0.255t-0.246 0.162-0.324 0.057q-0.195 0-0.345-0.027-0.15-0.027-0.246-0.054v-2.235l0.279-0.048zm0 1.248q0.042 0.012 0.117 0.024 0.078 9e-3 0.192 9e-3 0.225 0 0.36-0.147 0.135-0.15 0.135-0.423 0-0.12-0.024-0.225t-0.078-0.18q-0.054-0.078-0.141-0.12-0.084-0.045-0.204-0.045-0.114 0-0.21 0.039t-0.147 0.081z"/>
      <path id="path1157" d="m2.574 7.223q0-0.207 0.06-0.36 0.06-0.156 0.159-0.258t0.228-0.153 0.264-0.051q0.315 0 0.483 0.198 0.168 0.195 0.168 0.597 0 0.018 0 0.048 0 0.027-3e-3 0.051h-1.068q0.018 0.243 0.141 0.369t0.384 0.126q0.147 0 0.246-0.024 0.102-0.027 0.153-0.051l0.039 0.234q-0.051 0.027-0.18 0.057-0.126 0.03-0.288 0.03-0.204 0-0.354-0.06-0.147-0.063-0.243-0.171t-0.144-0.255q-0.045-0.15-0.045-0.327zm1.071-0.153q3e-3 -0.189-0.096-0.309-0.096-0.123-0.267-0.123-0.096 0-0.171 0.039-0.072 0.036-0.123 0.096t-0.081 0.138q-0.027 0.078-0.036 0.159z"/>
    </g>
    <path id="path158" d="m12.43 19.54a5 5 0 1 0-10 0 5 5 0 1 0 10 0" fill="none" stroke="#000" stroke-width=".8"/>
    <g id="g162" transform="translate(12.51,50.02)">
      <path id="path1160" d="m-3.7285 4.923q0.456 0 0.456-0.312 0-0.096-0.042-0.162-0.039-0.069-0.108-0.117-0.069-0.051-0.159-0.087-0.087-0.036-0.186-0.072-0.114-0.039-0.216-0.087-0.102-0.051-0.177-0.117-0.075-0.069-0.12-0.162-0.042-0.093-0.042-0.225 0-0.273 0.186-0.426t0.513-0.153q0.189 0 0.342 0.042 0.156 0.039 0.228 0.087l-0.093 0.237q-0.063-0.039-0.189-0.075-0.123-0.039-0.288-0.039-0.084 0-0.156 0.018t-0.126 0.054-0.087 0.093q-0.03 0.054-0.03 0.129 0 0.084 0.033 0.141t0.093 0.102q0.06 0.042 0.138 0.078 0.081 0.036 0.177 0.072 0.135 0.054 0.246 0.108 0.114 0.054 0.195 0.129 0.084 0.075 0.129 0.18 0.045 0.102 0.045 0.249 0 0.273-0.201 0.42-0.198 0.147-0.561 0.147-0.123 0-0.228-0.018-0.102-0.015-0.183-0.036-0.081-0.024-0.141-0.048-0.057-0.027-0.09-0.045l0.087-0.24q0.069 0.039 0.21 0.087t0.345 0.048z"/>
      <path id="path1162" d="m-2.7205 4.353q0-0.207 0.06-0.36 0.06-0.156 0.159-0.258t0.228-0.153 0.264-0.051q0.315 0 0.483 0.198 0.168 0.195 0.168 0.597 0 0.018 0 0.048 0 0.027-3e-3 0.051h-1.068q0.018 0.243 0.141 0.369t0.384 0.126q0.147 0 0.246-0.024 0.102-0.027 0.153-0.051l0.039 0.234q-0.051 0.027-0.18 0.057-0.126 0.03-0.288 0.03-0.204 0-0.354-0.06-0.147-0.063-0.243-0.171t-0.144-0.255q-0.045-0.15-0.045-0.327zm1.071-0.153q3e-3 -0.189-0.096-0.309-0.096-0.123-0.267-0.123-0.096 0-0.171 0.039-0.072 0.036-0.123 0.096t-0.081 0.138q-0.027 0.078-0.036 0.159z"/>
      <path id="path1164" d="m-0.95649 3.615q0.096-0.024 0.255-0.051t0.366-0.027q0.186 0 0.309 0.054 0.123 0.051 0.195 0.147 0.075 0.093 0.105 0.225t0.03 0.291v0.876h-0.279v-0.816q0-0.144-0.021-0.246-0.018-0.102-0.063-0.165t-0.12-0.09q-0.075-0.03-0.186-0.03-0.045 0-0.093 3e-3t-0.093 9e-3q-0.042 3e-3 -0.078 9e-3 -0.033 6e-3 -0.048 9e-3v1.317h-0.279z"/>
      <path id="path1166" d="m1.1285 4.929q0.171 0 0.252-0.045 0.084-0.045 0.084-0.144 0-0.102-0.081-0.162t-0.267-0.135q-0.09-0.036-0.174-0.072-0.081-0.039-0.141-0.09t-0.096-0.123-0.036-0.177q0-0.207 0.153-0.327 0.153-0.123 0.417-0.123 0.066 0 0.132 9e-3 0.066 6e-3 0.123 0.018 0.057 9e-3 0.099 0.021 0.045 0.012 0.069 0.021l-0.051 0.24q-0.045-0.024-0.141-0.048-0.096-0.027-0.231-0.027-0.117 0-0.204 0.048-0.087 0.045-0.087 0.144 0 0.051 0.018 0.09 0.021 0.039 0.06 0.072 0.042 0.03 0.102 0.057t0.144 0.057q0.111 0.042 0.198 0.084 0.087 0.039 0.147 0.093 0.063 0.054 0.096 0.132 0.033 0.075 0.033 0.186 0 0.216-0.162 0.327-0.159 0.111-0.456 0.111-0.207 0-0.324-0.036-0.117-0.033-0.159-0.051l0.051-0.24q0.048 0.018 0.153 0.054t0.279 0.036z"/>
      <path id="path1168" d="m2.3825 5.13h-0.279v-1.56h0.279zm-0.141-1.842q-0.075 0-0.129-0.048-0.051-0.051-0.051-0.135t0.051-0.132q0.054-0.051 0.129-0.051t0.126 0.051q0.054 0.048 0.054 0.132t-0.054 0.135q-0.051 0.048-0.126 0.048z"/>
      <path id="path1170" d="m3.1235 3.57h0.591v0.234h-0.591v0.72q0 0.117 0.018 0.195 0.018 0.075 0.054 0.12 0.036 0.042 0.09 0.06t0.126 0.018q0.126 0 0.201-0.027 0.078-0.03 0.108-0.042l0.054 0.231q-0.042 0.021-0.147 0.051-0.105 0.033-0.24 0.033-0.159 0-0.264-0.039-0.102-0.042-0.165-0.123t-0.09-0.198q-0.024-0.12-0.024-0.276v-1.392l0.279-0.048z"/>
      <path id="path1172" d="m4.3475 5.13h-0.279v-1.56h0.279zm-0.141-1.842q-0.075 0-0.129-0.048-0.051-0.051-0.051-0.135t0.051-0.132q0.054-0.051 0.129-0.051t0.126 0.051q0.054 0.048 0.054 0.132t-0.054 0.135q-0.051 0.048-0.126 0.048z"/>
      <path id="path1174" d="m6.0455 3.57q-0.117 0.438-0.276 0.84-0.156 0.402-0.303 0.72h-0.252q-0.147-0.318-0.306-0.72-0.156-0.402-0.273-0.84h0.3q0.036 0.147 0.084 0.315 0.051 0.165 0.105 0.33 0.057 0.162 0.114 0.315t0.108 0.273q0.051-0.12 0.108-0.273t0.111-0.315q0.057-0.165 0.105-0.33 0.051-0.168 0.087-0.315z"/>
      <path id="path1176" d="m6.6125 5.13h-0.279v-1.56h0.279zm-0.141-1.842q-0.075 0-0.129-0.048-0.051-0.051-0.051-0.135t0.051-0.132q0.054-0.051 0.129-0.051t0.126 0.051q0.054 0.048 0.054 0.132t-0.054 0.135q-0.051 0.048-0.126 0.048z"/>
      <path id="path1178" d="m7.3535 3.57h0.591v0.234h-0.591v0.72q0 0.117 0.018 0.195 0.018 0.075 0.054 0.12 0.036 0.042 0.09 0.06t0.126 0.018q0.126 0 0.201-0.027 0.078-0.03 0.108-0.042l0.054 0.231q-0.042 0.021-0.147 0.051-0.105 0.033-0.24 0.033-0.159 0-0.264-0.039-0.102-0.042-0.165-0.123t-0.09-0.198q-0.024-0.12-0.024-0.276v-1.392l0.279-0.048z"/>
      <path id="path1180" d="m8.1155 5.421q0.033 0.015 0.084 0.027 0.054 0.015 0.105 0.015 0.165 0 0.258-0.075 0.093-0.072 0.168-0.237-0.189-0.36-0.354-0.762-0.162-0.405-0.27-0.819h0.3q0.033 0.135 0.078 0.291 0.048 0.156 0.105 0.321t0.123 0.33 0.138 0.318q0.114-0.315 0.198-0.624t0.159-0.636h0.288q-0.108 0.441-0.24 0.849-0.132 0.405-0.285 0.759-0.06 0.135-0.126 0.231-0.063 0.099-0.141 0.162t-0.177 0.093q-0.096 0.03-0.219 0.03-0.033 0-0.069-6e-3 -0.036-3e-3 -0.072-0.012-0.033-6e-3 -0.063-0.015-0.027-9e-3 -0.039-0.015z"/>
    </g>
    <g id="g166" transform="translate(4.89,75.42)">
      <path id="path1183" d="m-0.66099-0.561q0 0.27-0.084 0.471-0.084 0.198-0.237 0.33-0.153 0.129-0.366 0.195-0.213 0.063-0.468 0.063-0.126 0-0.279-0.012-0.15-9e-3 -0.273-0.039v-2.016q0.123-0.03 0.273-0.039 0.153-0.012 0.279-0.012 0.255 0 0.468 0.066 0.213 0.063 0.366 0.195 0.153 0.129 0.237 0.33 0.084 0.198 0.084 0.468zm-1.131 0.804q0.414 0 0.618-0.21 0.204-0.213 0.204-0.594t-0.204-0.591q-0.204-0.213-0.618-0.213-0.123 0-0.192 3e-3 -0.066 3e-3 -0.093 6e-3v1.59q0.027 3e-3 0.093 6e-3 0.069 3e-3 0.192 3e-3z"/>
      <path id="path1185" d="m-0.33399-0.297q0-0.207 0.06-0.36 0.06-0.156 0.159-0.258 0.099-0.102 0.228-0.153t0.264-0.051q0.315 0 0.483 0.198 0.168 0.195 0.168 0.597 0 0.018 0 0.048 0 0.027-3e-3 0.051h-1.068q0.018 0.243 0.141 0.369t0.384 0.126q0.147 0 0.246-0.024 0.102-0.027 0.153-0.051l0.039 0.234q-0.051 0.027-0.18 0.057-0.126 0.03-0.288 0.03-0.204 0-0.354-0.06-0.147-0.063-0.243-0.171t-0.144-0.255q-0.045-0.15-0.045-0.327zm1.071-0.153q3e-3 -0.189-0.096-0.309-0.096-0.123-0.267-0.123-0.096 0-0.171 0.039-0.072 0.036-0.123 0.096t-0.081 0.138q-0.027 0.078-0.036 0.159z"/>
      <path id="path1187" d="m1.43-1.035q0.096-0.024 0.255-0.051t0.366-0.027q0.186 0 0.309 0.054 0.123 0.051 0.195 0.147 0.075 0.093 0.105 0.225t0.03 0.291v0.876h-0.279v-0.816q0-0.144-0.021-0.246-0.018-0.102-0.063-0.165t-0.12-0.09q-0.075-0.03-0.186-0.03-0.045 0-0.093 3e-3t-0.093 9e-3q-0.042 3e-3 -0.078 9e-3 -0.033 6e-3 -0.048 9e-3v1.317h-0.279z"/>
      <path id="path1189" d="m3.515 0.279q0.171 0 0.252-0.045 0.084-0.045 0.084-0.144 0-0.102-0.081-0.162t-0.267-0.135q-0.09-0.036-0.174-0.072-0.081-0.039-0.141-0.09t-0.096-0.123-0.036-0.177q0-0.207 0.153-0.327 0.153-0.123 0.417-0.123 0.066 0 0.132 9e-3 0.066 6e-3 0.123 0.018 0.057 9e-3 0.099 0.021 0.045 0.012 0.069 0.021l-0.051 0.24q-0.045-0.024-0.141-0.048-0.096-0.027-0.231-0.027-0.117 0-0.204 0.048-0.087 0.045-0.087 0.144 0 0.051 0.018 0.09 0.021 0.039 0.06 0.072 0.042 0.03 0.102 0.057t0.144 0.057q0.111 0.042 0.198 0.084 0.087 0.039 0.147 0.093 0.063 0.054 0.096 0.132 0.033 0.075 0.033 0.186 0 0.216-0.162 0.327-0.159 0.111-0.456 0.111-0.207 0-0.324-0.036-0.117-0.033-0.159-0.051l0.051-0.24q0.048 0.018 0.153 0.054t0.279 0.036z"/>
      <path id="path1191" d="m4.769 0.48h-0.279v-1.56h0.279zm-0.141-1.842q-0.075 0-0.129-0.048-0.051-0.051-0.051-0.135t0.051-0.132q0.054-0.051 0.129-0.051t0.126 0.051q0.054 0.048 0.054 0.132t-0.054 0.135q-0.051 0.048-0.126 0.048z"/>
      <path id="path1193" d="m5.51-1.08h0.591v0.234h-0.591v0.72q0 0.117 0.018 0.195 0.018 0.075 0.054 0.12 0.036 0.042 0.09 0.06t0.126 0.018q0.126 0 0.201-0.027 0.078-0.03 0.108-0.042l0.054 0.231q-0.042 0.021-0.147 0.051-0.105 0.033-0.24 0.033-0.159 0-0.264-0.039-0.102-0.042-0.165-0.123t-0.09-0.198q-0.024-0.12-0.024-0.276v-1.392l0.279-0.048z"/>
      <path id="path1195" d="m6.272 0.771q0.033 0.015 0.084 0.027 0.054 0.015 0.105 0.015 0.165 0 0.258-0.075 0.093-0.072 0.168-0.237-0.189-0.36-0.354-0.762-0.162-0.405-0.27-0.819h0.3q0.033 0.135 0.078 0.291 0.048 0.156 0.105 0.321t0.123 0.33 0.138 0.318q0.114-0.315 0.198-0.624t0.159-0.636h0.288q-0.108 0.441-0.24 0.849-0.132 0.405-0.285 0.759-0.06 0.135-0.126 0.231-0.063 0.099-0.141 0.162t-0.177 0.093q-0.096 0.03-0.219 0.03-0.033 0-0.069-6e-3 -0.036-3e-3 -0.072-0.012-0.033-6e-3 -0.063-0.015-0.027-9e-3 -0.039-0.015z"/>
    </g>
    <g id="g170" transform="translate(20.13,75.42)">
      <path id="path1198" d="m-1.4845 0.273q0.456 0 0.456-0.312 0-0.096-0.042-0.162-0.039-0.069-0.108-0.117-0.069-0.051-0.159-0.087-0.087-0.036-0.186-0.072-0.114-0.039-0.216-0.087-0.102-0.051-0.177-0.117-0.075-0.069-0.12-0.162-0.042-0.093-0.042-0.225 0-0.273 0.186-0.426t0.513-0.153q0.189 0 0.342 0.042 0.156 0.039 0.228 0.087l-0.093 0.237q-0.063-0.039-0.189-0.075-0.123-0.039-0.288-0.039-0.084 0-0.156 0.018t-0.126 0.054-0.087 0.093q-0.03 0.054-0.03 0.129 0 0.084 0.033 0.141 0.033 0.057 0.093 0.102 0.06 0.042 0.138 0.078 0.081 0.036 0.177 0.072 0.135 0.054 0.246 0.108 0.114 0.054 0.195 0.129 0.084 0.075 0.129 0.18 0.045 0.102 0.045 0.249 0 0.273-0.201 0.42-0.198 0.147-0.561 0.147-0.123 0-0.228-0.018-0.102-0.015-0.183-0.036-0.081-0.024-0.141-0.048-0.057-0.027-0.09-0.045l0.087-0.24q0.069 0.039 0.21 0.087t0.345 0.048z"/>
      <path id="path1200" d="m0.69351-0.297q0-0.273-0.135-0.42t-0.36-0.147q-0.126 0-0.198 9e-3 -0.069 9e-3 -0.111 0.021v0.984q0.051 0.042 0.147 0.081t0.21 0.039q0.12 0 0.204-0.042 0.087-0.045 0.141-0.12 0.054-0.078 0.078-0.18 0.024-0.105 0.024-0.225zm0.291 0q0 0.177-0.048 0.327-0.045 0.15-0.135 0.258t-0.222 0.168q-0.129 0.06-0.297 0.06-0.135 0-0.24-0.036-0.102-0.036-0.153-0.069v0.624h-0.279v-2.067q0.099-0.024 0.246-0.051 0.15-0.03 0.345-0.03 0.18 0 0.324 0.057t0.246 0.162q0.102 0.105 0.156 0.258 0.057 0.15 0.057 0.339z"/>
      <path id="path1202" d="m1.9535-1.113q0.036 0 0.081 6e-3 0.048 3e-3 0.093 0.012 0.045 6e-3 0.081 0.015 0.039 6e-3 0.057 0.012l-0.048 0.243q-0.033-0.012-0.111-0.027-0.075-0.018-0.195-0.018-0.078 0-0.156 0.018-0.075 0.015-0.099 0.021v1.311h-0.279v-1.494q0.099-0.036 0.246-0.066 0.147-0.033 0.33-0.033z"/>
      <path id="path1204" d="m2.4485-0.297q0-0.207 0.06-0.36 0.06-0.156 0.159-0.258 0.099-0.102 0.228-0.153t0.264-0.051q0.315 0 0.483 0.198 0.168 0.195 0.168 0.597 0 0.018 0 0.048 0 0.027-3e-3 0.051h-1.068q0.018 0.243 0.141 0.369t0.384 0.126q0.147 0 0.246-0.024 0.102-0.027 0.153-0.051l0.039 0.234q-0.051 0.027-0.18 0.057-0.126 0.03-0.288 0.03-0.204 0-0.354-0.06-0.147-0.063-0.243-0.171t-0.144-0.255q-0.045-0.15-0.045-0.327zm1.071-0.153q3e-3 -0.189-0.096-0.309-0.096-0.123-0.267-0.123-0.096 0-0.171 0.039-0.072 0.036-0.123 0.096t-0.081 0.138q-0.027 0.078-0.036 0.159z"/>
      <path id="path1206" d="m4.7405 0.279q0.099 0 0.174-3e-3 0.078-6e-3 0.129-0.018v-0.465q-0.03-0.015-0.099-0.024-0.066-0.012-0.162-0.012-0.063 0-0.135 9e-3 -0.069 9e-3 -0.129 0.039-0.057 0.027-0.096 0.078-0.039 0.048-0.039 0.129 0 0.15 0.096 0.21 0.096 0.057 0.261 0.057zm-0.024-1.398q0.168 0 0.282 0.045 0.117 0.042 0.186 0.123 0.072 0.078 0.102 0.189 0.03 0.108 0.03 0.24v0.975q-0.036 6e-3 -0.102 0.018-0.063 9e-3 -0.144 0.018t-0.177 0.015q-0.093 9e-3 -0.186 9e-3 -0.132 0-0.243-0.027t-0.192-0.084q-0.081-0.06-0.126-0.156t-0.045-0.231q0-0.129 0.051-0.222 0.054-0.093 0.144-0.15t0.21-0.084 0.252-0.027q0.042 0 0.087 6e-3 0.045 3e-3 0.084 0.012 0.042 6e-3 0.072 0.012t0.042 9e-3v-0.078q0-0.069-0.015-0.135-0.015-0.069-0.054-0.12-0.039-0.054-0.108-0.084-0.066-0.033-0.174-0.033-0.138 0-0.243 0.021-0.102 0.018-0.153 0.039l-0.033-0.231q0.054-0.024 0.18-0.045 0.126-0.024 0.273-0.024z"/>
      <path id="path1208" d="m6.7865-0.75q-0.051-0.042-0.147-0.081t-0.21-0.039q-0.12 0-0.207 0.045-0.084 0.042-0.138 0.12-0.054 0.075-0.078 0.18t-0.024 0.225q0 0.273 0.135 0.423 0.135 0.147 0.36 0.147 0.114 0 0.189-9e-3 0.078-0.012 0.12-0.024zm0-1.05 0.279-0.048v2.283q-0.096 0.027-0.246 0.054t-0.345 0.027q-0.18 0-0.324-0.057t-0.246-0.162-0.159-0.255q-0.054-0.153-0.054-0.342 0-0.18 0.045-0.33 0.048-0.15 0.138-0.258t0.219-0.168q0.132-0.06 0.3-0.06 0.135 0 0.237 0.036 0.105 0.036 0.156 0.069z"/>
    </g>
    <g id="g173" transform="translate(5.525,86.85)">
      <path id="path1211" d="m-0.96599 5.921v0.252h-0.654v1.827h-0.291v-1.827h-0.654v-0.252z"/>
      <path id="path1213" d="m-0.222 6.407q0.036 0 0.081 6e-3 0.048 3e-3 0.093 0.012 0.045 6e-3 0.081 0.015 0.039 6e-3 0.057 0.012l-0.048 0.243q-0.033-0.012-0.111-0.027-0.075-0.018-0.195-0.018-0.078 0-0.156 0.018-0.075 0.015-0.099 0.021v1.311h-0.279v-1.494q0.099-0.036 0.246-0.066 0.147-0.033 0.33-0.033z"/>
      <path id="path1215" d="m0.639 8h-0.279v-1.56h0.279zm-0.141-1.842q-0.075 0-0.129-0.048-0.051-0.051-0.051-0.135t0.051-0.132q0.054-0.051 0.129-0.051t0.126 0.051q0.054 0.048 0.054 0.132t-0.054 0.135q-0.051 0.048-0.126 0.048z"/>
      <path id="path1217" d="m2.097 7.844q-0.036 0.024-0.141 0.063-0.102 0.036-0.24 0.036-0.141 0-0.267-0.045-0.123-0.045-0.216-0.138-0.093-0.096-0.147-0.237t-0.054-0.336q0-0.171 0.051-0.312 0.051-0.144 0.147-0.246 0.099-0.105 0.24-0.162 0.141-0.06 0.318-0.06 0.195 0 0.339 0.03 0.147 0.027 0.246 0.051v1.392q0 0.36-0.186 0.522t-0.564 0.162q-0.147 0-0.279-0.024-0.129-0.024-0.225-0.057l0.051-0.243q0.084 0.033 0.204 0.057 0.123 0.027 0.255 0.027 0.249 0 0.357-0.099 0.111-0.099 0.111-0.315zm-3e-3 -1.158q-0.042-0.012-0.114-0.021-0.069-0.012-0.189-0.012-0.225 0-0.348 0.147-0.12 0.147-0.12 0.39 0 0.135 0.033 0.231 0.036 0.096 0.093 0.159 0.06 0.063 0.135 0.093 0.078 0.03 0.159 0.03 0.111 0 0.204-0.03 0.093-0.033 0.147-0.075z"/>
    </g>
    <g id="g177" transform="translate(24.575,86.85)">
      <path id="path_jhhsqkqhwt" transform="matrix(.26458 0 0 .26458 -24.575 -86.85)" d="m80.977 310.68a5.6693 5.6693 0 0 0-5.6699 5.668v45.355a5.6693 5.6693 0 0 0 5.6699 5.668h23.811a5.6693 5.6693 0 0 0 5.6699-5.668v-45.355a5.6693 5.6693 0 0 0-5.6699-5.668zm11.906 4.3457a13.229 13.229 0 0 1 0 26.457 13.229 13.229 0 0 1 0-26.457zm-7.7285 35.426c0.35528 0 0.66928 0.023 0.94141 0.0684 0.27968 0.0453 0.51831 0.0977 0.71484 0.1582 0.19654 0.0605 0.35562 0.12117 0.47656 0.18164 0.1285 0.0605 0.21441 0.10648 0.25977 0.13672l-0.35156 0.91797c-0.21921-0.14362-0.51021-0.26085-0.87305-0.35156-0.36284-0.0983-0.73338-0.14844-1.1113-0.14844-0.40063 0-0.76701 0.0732-1.0996 0.2168-0.32504 0.14362-0.60356 0.35092-0.83789 0.62304-0.22677 0.27213-0.4047 0.60498-0.5332 0.99805-0.1285 0.38551-0.19336 0.81895-0.19336 1.3027 0 0.46867 0.05238 0.89574 0.1582 1.2812 0.11339 0.38552 0.28079 0.71837 0.5 0.99805 0.22677 0.27213 0.50113 0.48359 0.82617 0.63477 0.3326 0.15118 0.72198 0.22851 1.168 0.22851 0.31748 0 0.58743-0.0166 0.80664-0.0469 0.22677-0.0378 0.38806-0.0713 0.48633-0.10156v-2.9258h1.0996v3.6738c-0.09071 0.0302-0.22263 0.0657-0.39648 0.10352-0.1663 0.0378-0.36307 0.0755-0.58984 0.11328-0.21921 0.0378-0.46004 0.0672-0.72461 0.0898-0.26457 0.0302-0.53256 0.0449-0.80469 0.0449-0.55181 0-1.0562-0.0901-1.5098-0.27148-0.45354-0.18142-0.84293-0.44525-1.168-0.79297-0.32504-0.34772-0.5764-0.77479-0.75781-1.2812-0.17386-0.50646-0.26172-1.0904-0.26172-1.748 0-0.65763 0.09839-1.2396 0.29492-1.7461 0.2041-0.51402 0.47625-0.9433 0.81641-1.291 0.34016-0.34771 0.73591-0.6135 1.1895-0.79492 0.4611-0.18141 0.95303-0.27148 1.4746-0.27148zm10.998 0.31836v1.8242h2.2344v0.88476h-2.2344v2.7207c0 0.2948 0.023 0.54174 0.06836 0.73828 0.04535 0.18897 0.11437 0.33974 0.20508 0.45312 0.09071 0.10583 0.20378 0.18121 0.33984 0.22656 0.13606 0.0454 0.29514 0.0684 0.47656 0.0684 0.31748 0 0.57079-0.0335 0.75976-0.10156 0.19654-0.0756 0.33261-0.12992 0.4082-0.16015l0.20312 0.87304c-0.10583 0.0529-0.29012 0.11777-0.55469 0.19336-0.26457 0.0832-0.56805 0.125-0.9082 0.125-0.40063 0-0.73348-0.0502-0.99805-0.14844-0.25701-0.10582-0.46431-0.26075-0.62305-0.46484s-0.27181-0.45324-0.33984-0.74805c-0.06047-0.30236-0.0918-0.64989-0.0918-1.043v-5.2617zm-5 1.6777c0.42331 0 0.77916 0.0565 1.0664 0.16992 0.2948 0.10583 0.52927 0.26075 0.70312 0.46485 0.18142 0.19653 0.30918 0.43516 0.38477 0.71484 0.07559 0.27213 0.11328 0.57365 0.11328 0.90625v3.6856c-0.09071 0.0151-0.21847 0.0381-0.38477 0.0684-0.15874 0.0227-0.34083 0.0437-0.54492 0.0664-0.20409 0.0227-0.42608 0.0415-0.66797 0.0566-0.23433 0.0227-0.4688 0.0352-0.70312 0.0352-0.3326 0-0.63828-0.0335-0.91797-0.10156-0.27968-0.068-0.52247-0.17474-0.72656-0.31836-0.20409-0.15118-0.36318-0.34795-0.47656-0.58984s-0.16992-0.53289-0.16992-0.87305c0-0.32504 0.06485-0.60356 0.19336-0.83789 0.13606-0.23433 0.3162-0.42474 0.54297-0.56836s0.49256-0.24838 0.79492-0.31641c0.30236-0.068 0.61857-0.10351 0.95117-0.10351 0.10583 0 0.21669 8e-3 0.33008 0.0234 0.11339 8e-3 0.21814 0.0222 0.31641 0.0449 0.10583 0.0151 0.19785 0.0317 0.27344 0.0469 0.07559 0.0151 0.12797 0.0257 0.1582 0.0332v-0.29492c0-0.17386-0.01884-0.34346-0.05664-0.50976-0.0378-0.17386-0.10681-0.32462-0.20508-0.45313-0.09827-0.13606-0.23434-0.24277-0.4082-0.31836-0.1663-0.0831-0.38412-0.125-0.65625-0.125-0.34772 0-0.6534 0.0272-0.91797 0.0801-0.25701 0.0453-0.45157 0.0936-0.58008 0.14648l-0.12305-0.87304c0.13606-0.0605 0.36221-0.11701 0.67969-0.16992 0.31748-0.0605 0.66086-0.0899 1.0312-0.0899zm10.818 0c0.7937 0 1.4009 0.24915 1.8242 0.74805 0.42331 0.49134 0.63477 1.243 0.63477 2.2559v0.18164c0 0.068-4e-3 0.13289-0.0117 0.19336h-4.0352c0.0454 0.61228 0.22328 1.077 0.53321 1.3945 0.30992 0.31748 0.79353 0.47656 1.4512 0.47656 0.37039 0 0.68024-0.0313 0.92969-0.0918 0.257-0.068 0.44962-0.13289 0.57812-0.19336l0.14648 0.88476c-0.1285 0.068-0.35464 0.14121-0.67968 0.2168-0.31748 0.0756-0.6797 0.11328-1.0879 0.11328-0.51402 0-0.95994-0.0754-1.3379-0.22656-0.3704-0.15874-0.67804-0.37436-0.91993-0.64649-0.24189-0.27212-0.42202-0.59445-0.54297-0.96484-0.11339-0.37795-0.16992-0.79034-0.16992-1.2363 0-0.52157 0.07538-0.97386 0.22656-1.3594 0.15118-0.39307 0.35016-0.71956 0.59961-0.97657 0.24944-0.257 0.53824-0.44962 0.86328-0.57812 0.32504-0.12851 0.65789-0.19141 0.99804-0.19141zm-0.0117 0.89453c-0.24189 0-0.4575 0.0502-0.64648 0.14844-0.18142 0.0907-0.33634 0.2121-0.46484 0.36328-0.12851 0.15118-0.23105 0.32495-0.30664 0.52149-0.068 0.19653-0.11405 0.39551-0.13672 0.59961h2.9258c8e-3 -0.47622-0.11383-0.86561-0.36328-1.168-0.24189-0.30992-0.57695-0.46485-1.0078-0.46485zm-10.557 2.416c-0.15874 0-0.32835 0.0105-0.50977 0.0332-0.17386 0.0227-0.3371 0.0729-0.48828 0.14844-0.14362 0.068-0.26501 0.16642-0.36328 0.29492-0.09827 0.12095-0.14648 0.28224-0.14648 0.48633 0 0.37795 0.12139 0.64374 0.36328 0.79492 0.24189 0.14362 0.57058 0.21485 0.98633 0.21485 0.24945 0 0.46727-4e-3 0.65625-0.0117 0.19654-0.0151 0.35978-0.0381 0.48828-0.0684v-1.7559c-0.07559-0.0378-0.20114-0.0691-0.375-0.0918-0.1663-0.0302-0.36944-0.0449-0.61133-0.0449z" style=""/>
    </g>
    <g id="g183" transform="translate(5.525,103.36)">
      <path id="path_nowuhzqgtz" transform="matrix(.26458 0 0 .26458 -5.525 -103.36)" d="m8.9766 373.08a5.6693 5.6693 0 0 0-5.6699 5.668v45.355a5.6693 5.6693 0 0 0 5.6699 5.668h23.811a5.6693 5.6693 0 0 0 5.6699-5.668v-45.355a5.6693 5.6693 0 0 0-5.6699-5.668zm11.906 4.3457a13.229 13.229 0 0 1 0 26.457 13.229 13.229 0 0 1 0-26.457zm1.3945 34.666v7.0859c0 0.17386 0.01469 0.31826 0.04492 0.43164 0.03024 0.11339 0.07845 0.20345 0.14648 0.27149 0.06803 0.068 0.16005 0.1204 0.27344 0.1582 0.11338 0.0302 0.25167 0.0574 0.41797 0.0801l-0.14648 0.88476c-0.65008-0.0151-1.1107-0.15535-1.3828-0.41992s-0.4082-0.67696-0.4082-1.2363v-7.0742zm-12.281 0.86133c1.1036 0 1.9514 0.21146 2.541 0.63477 0.59717 0.41575 0.89453 1.0396 0.89453 1.8711 0 0.45354-0.08175 0.84293-0.24805 1.168-0.15874 0.31748-0.3932 0.57911-0.70312 0.7832-0.30236 0.19654-0.6729 0.33898-1.1113 0.42969-0.43843 0.0907-0.93452 0.13672-1.4863 0.13672h-0.87305v2.9141h-1.0996v-7.7441c0.30992-0.0756 0.65525-0.12576 1.0332-0.14844 0.38551-0.0302 0.73525-0.0449 1.0527-0.0449zm0.091797 0.96289c-0.46866 0-0.82868 0.0125-1.0781 0.0352v3.084h0.82812c0.37795 0 0.71912-0.023 1.0215-0.0684 0.30236-0.0529 0.55567-0.13661 0.75977-0.25 0.21165-0.12094 0.37294-0.28223 0.48633-0.48632 0.11339-0.2041 0.16992-0.46573 0.16992-0.78321 0-0.30236-0.0607-0.55151-0.18164-0.74804-0.11339-0.19654-0.27052-0.35146-0.47461-0.46485-0.19654-0.12094-0.42879-0.20464-0.69336-0.25-0.26457-0.0453-0.54309-0.0684-0.83789-0.0684zm16.043 0.92969c0.1663 0 0.3337 0.0125 0.5 0.0352 0.1663 0.0151 0.32122 0.0381 0.46484 0.0684 0.14362 0.0227 0.26722 0.0479 0.37305 0.0781 0.11339 0.0302 0.20125 0.0574 0.26172 0.0801l-0.19336 0.90625c-0.11338-0.0605-0.29131-0.11922-0.5332-0.17969-0.24189-0.068-0.53289-0.10351-0.87305-0.10351-0.2948 0-0.55032 0.0607-0.76953 0.18164-0.21921 0.11338-0.33008 0.29547-0.33008 0.54492 0 0.1285 0.02301 0.24157 0.06836 0.33984 0.05291 0.0983 0.1283 0.18834 0.22656 0.27149 0.10583 0.0756 0.23554 0.14876 0.38672 0.21679 0.15118 0.068 0.33132 0.13926 0.54297 0.21485 0.27968 0.10582 0.52884 0.21253 0.74805 0.31836 0.21921 0.0983 0.40546 0.21354 0.55664 0.34961 0.15874 0.13606 0.28013 0.30346 0.36328 0.5 0.08315 0.18897 0.125 0.42344 0.125 0.70312 0 0.54425-0.20509 0.95664-0.61328 1.2363-0.40063 0.27968-0.97431 0.41797-1.7227 0.41797-0.52158 0-0.92981-0.0441-1.2246-0.13477-0.2948-0.0831-0.49574-0.148-0.60156-0.19336l0.19336-0.90625c0.12094 0.0454 0.31356 0.11242 0.57812 0.20313 0.26457 0.0907 0.61626 0.13672 1.0547 0.13672 0.43087 0 0.74708-0.0565 0.95117-0.16993 0.21165-0.11338 0.31836-0.29547 0.31836-0.54492 0-0.25701-0.10255-0.46014-0.30664-0.61133-0.20409-0.15118-0.5411-0.32274-1.0098-0.51171-0.22677-0.0907-0.4446-0.18078-0.65625-0.27149-0.2041-0.0983-0.38202-0.21134-0.5332-0.33984-0.15118-0.12851-0.27257-0.28343-0.36328-0.46485-0.09071-0.18141-0.13672-0.40535-0.13672-0.66992 1e-6 -0.52157 0.19261-0.93201 0.57813-1.2344 0.38551-0.30992 0.91098-0.4668 1.5762-0.4668zm5.625 0c0.7937 0 1.4029 0.2511 1.8262 0.75 0.42331 0.49134 0.63477 1.243 0.63477 2.2559v0.18164c0 0.068-0.0042 0.13093-0.01172 0.19141h-4.0371c0.04535 0.61228 0.22328 1.079 0.5332 1.3965s0.79353 0.47461 1.4512 0.47461c0.37039 0 0.68024-0.0294 0.92969-0.0898 0.25701-0.068 0.44962-0.13289 0.57812-0.19336l0.14844 0.88476c-0.1285 0.068-0.3566 0.13926-0.68164 0.21485-0.31748 0.0756-0.6797 0.11328-1.0879 0.11328-0.51402 0-0.95994-0.0754-1.3379-0.22656-0.37039-0.15875-0.67608-0.37436-0.91797-0.64649s-0.42398-0.5925-0.54492-0.96289c-0.11339-0.37795-0.16992-0.79034-0.16992-1.2363 0-0.52157 0.07538-0.97386 0.22656-1.3594 0.15118-0.39307 0.35211-0.71956 0.60156-0.97657 0.24945-0.257 0.53629-0.44962 0.86133-0.57812 0.32504-0.1285 0.65789-0.19336 0.99805-0.19336zm-17.088 0.14844h1.0547v3.084c0 0.71811 0.11307 1.233 0.33984 1.543s0.60979 0.46484 1.1465 0.46484c0.11339 0 0.23062-4e-3 0.35156-0.0117 0.12094-8e-3 0.23402-0.0159 0.33984-0.0234 0.10583-0.0151 0.20005-0.0256 0.2832-0.0332 0.09071-0.0151 0.15556-0.0298 0.19336-0.0449v-4.9785h1.0527v5.7266c-0.24189 0.0605-0.56226 0.12337-0.96289 0.19141-0.39307 0.068-0.84952 0.10351-1.3711 0.10351-0.45354 0-0.83656-0.0648-1.1465-0.19336-0.30992-0.13606-0.55907-0.32451-0.74805-0.5664-0.18898-0.24189-0.32505-0.52653-0.4082-0.85157-0.08315-0.33259-0.125-0.69898-0.125-1.0996zm17.076 0.74804c-0.24189 0-0.45751 0.0502-0.64648 0.14844-0.18142 0.0907-0.33634 0.21015-0.46484 0.36133-0.1285 0.15118-0.23105 0.32495-0.30664 0.52148-0.06803 0.19654-0.11209 0.39747-0.13477 0.60157h2.9258c0.0076-0.47622-0.11383-0.86561-0.36328-1.168-0.24189-0.30992-0.5789-0.46485-1.0098-0.46485z" style=""/>
    </g>
    <g id="g187" transform="translate(24.575,103.36)">
      <path id="path_yebidspuvm" transform="matrix(.26458 0 0 .26458 -24.575 -103.36)" d="m80.977 373.08a5.6693 5.6693 0 0 0-5.6699 5.668v45.355a5.6693 5.6693 0 0 0 5.6699 5.668h23.811a5.6693 5.6693 0 0 0 5.6699-5.668v-45.355a5.6693 5.6693 0 0 0-5.6699-5.668zm11.906 4.3457a13.229 13.229 0 0 1 0 26.457 13.229 13.229 0 0 1 0-26.457zm-4.4453 34.586h1.0547l-3.8223 10.977h-1.0762zm4.9199 0.83984c0.50646 0 0.9837 0.0859 1.4297 0.25977 0.45354 0.17385 0.8493 0.43548 1.1895 0.7832 0.34016 0.34016 0.61011 0.76723 0.80664 1.2812 0.2041 0.51401 0.30469 1.1065 0.30469 1.7793 0 0.67276-0.10059 1.2672-0.30469 1.7813-0.19654 0.51401-0.46648 0.94525-0.80664 1.293-0.34016 0.34016-0.73591 0.59568-1.1895 0.76954-0.44598 0.17385-0.92323 0.26171-1.4297 0.26171-0.51402 0-1.0018-0.0879-1.4629-0.26171-0.45354-0.17386-0.85346-0.42938-1.2012-0.76954-0.34016-0.34771-0.61231-0.77895-0.81641-1.293-0.19654-0.51402-0.29492-1.1085-0.29492-1.7813 0-0.67275 0.09839-1.2653 0.29492-1.7793 0.2041-0.51402 0.47625-0.94109 0.81641-1.2812 0.34772-0.34772 0.74763-0.60935 1.2012-0.7832 0.4611-0.17386 0.94888-0.25977 1.4629-0.25977zm-15.057 0.18164h1.2129c0.40819 1.1943 0.8081 2.3417 1.2012 3.4453s0.7991 2.1399 1.2148 3.1074c0.41575-0.96 0.81982-1.9921 1.2129-3.0957 0.39307-1.1112 0.78882-2.2627 1.1895-3.457h1.1797c-0.28724 0.8315-0.56356 1.602-0.82812 2.3125-0.25701 0.70299-0.51032 1.3709-0.75977 2.0059s-0.4986 1.2441-0.74805 1.8262c-0.24189 0.57449-0.49104 1.146-0.74805 1.7129h-1.0312c-0.25701-0.56693-0.51032-1.1384-0.75976-1.7129-0.24189-0.58205-0.49104-1.1912-0.74805-1.8262-0.24945-0.63496-0.50692-1.3029-0.77148-2.0059-0.26457-0.71055-0.53672-1.481-0.81641-2.3125zm26.611 0.13477v1.8262h2.2344v0.88476h-2.2344v2.7207c0 0.2948 0.023 0.53979 0.0684 0.73632 0.0453 0.18898 0.11242 0.3417 0.20312 0.45508 0.0907 0.10583 0.20378 0.18121 0.33985 0.22656 0.13606 0.0454 0.29514 0.0684 0.47656 0.0684 0.31748 0 0.57079-0.0355 0.75977-0.10351 0.19653-0.0756 0.33261-0.12797 0.4082-0.1582l0.20508 0.87304c-0.10583 0.0529-0.29208 0.11777-0.55664 0.19336-0.26457 0.0831-0.5661 0.125-0.90625 0.125-0.40063 0-0.73348-0.0502-0.99805-0.14844-0.25701-0.10582-0.46431-0.26074-0.62305-0.46484-0.15874-0.20409-0.27181-0.45324-0.33984-0.74805-0.0605-0.30236-0.0918-0.64989-0.0918-1.043v-5.2617zm-11.576 0.64648c-0.40063 0-0.7648 0.0754-1.0898 0.22656-0.31748 0.14362-0.58964 0.35288-0.81641 0.625-0.21921 0.27213-0.38882 0.60303-0.50977 0.9961-0.12094 0.38551-0.18164 0.81674-0.18164 1.293 0 0.47623 0.0607 0.91162 0.18164 1.3047 0.12094 0.38551 0.29055 0.7142 0.50977 0.98633 0.22677 0.27213 0.49892 0.48359 0.81641 0.63477 0.32504 0.14362 0.68921 0.21484 1.0898 0.21484 0.40063 0 0.75869-0.0712 1.0762-0.21484 0.31748-0.15118 0.58548-0.36264 0.80469-0.63477 0.22677-0.27213 0.40054-0.60082 0.52148-0.98633 0.12094-0.39307 0.18164-0.82846 0.18164-1.3047 0-0.47622-0.0607-0.90745-0.18164-1.293-0.12094-0.39307-0.29471-0.72397-0.52148-0.9961-0.21921-0.27212-0.48721-0.48138-0.80469-0.625-0.31748-0.15118-0.67554-0.22656-1.0762-0.22656zm7.8125 1.0312c0.26456 0 0.5284 0.023 0.79297 0.0684 0.26456 0.0454 0.51787 0.11853 0.75976 0.2168l-0.23828 0.89453c-0.15874-0.0756-0.34303-0.13629-0.55469-0.18164-0.20409-0.0454-0.42387-0.0664-0.6582-0.0664-0.58961 0-1.0438 0.18429-1.3613 0.55469-0.30992 0.37039-0.46484 0.91054-0.46484 1.6211 0 0.31748 0.03353 0.60848 0.10156 0.87305 0.07559 0.26457 0.19062 0.49071 0.3418 0.67969 0.15874 0.18897 0.35772 0.33753 0.59961 0.44336 0.24189 0.0983 0.53705 0.14648 0.88476 0.14648 0.27969 0 0.533-0.0252 0.75977-0.0781s0.4047-0.10944 0.5332-0.16992l0.14649 0.88282c-0.0605 0.0378-0.14638 0.0774-0.25977 0.11523-0.11339 0.0302-0.2431 0.0555-0.38672 0.0781-0.14362 0.0302-0.29854 0.0532-0.46484 0.0684-0.15874 0.0227-0.31367 0.0332-0.46485 0.0332-0.47622 0-0.89497-0.0754-1.2578-0.22656-0.35528-0.15119-0.6568-0.36264-0.90625-0.63477-0.24189-0.27213-0.42398-0.5925-0.54492-0.96289-0.12094-0.37795-0.18164-0.7945-0.18164-1.248 0-0.45354 0.06485-0.86814 0.19336-1.2461 0.13606-0.37795 0.32452-0.70444 0.56641-0.97656 0.24189-0.27969 0.53705-0.49531 0.88477-0.64649 0.35528-0.15874 0.74882-0.23828 1.1797-0.23828z" style=""/>
    </g>
    <g id="g191" transform="translate(15.05,103.36)">
      <path id="path_fxujzlfzxn" transform="matrix(.26458 0 0 .26458 -15.05 -103.36)" d="m44.977 373.08a5.6693 5.6693 0 0 0-5.6699 5.668v45.355a5.6693 5.6693 0 0 0 5.6699 5.668h23.811a5.6693 5.6693 0 0 0 5.6699-5.668v-45.355a5.6693 5.6693 0 0 0-5.6699-5.668zm11.906 4.3457a13.229 13.229 0 0 1 0 26.457 13.229 13.229 0 0 1 0-26.457zm-2.9199 35.426c0.32504 0 0.61604 0.023 0.87305 0.0684 0.26457 0.0453 0.49071 0.0977 0.67969 0.1582 0.19654 0.0605 0.35562 0.12117 0.47656 0.18164 0.12094 0.0605 0.20464 0.10453 0.25 0.13477l-0.31836 0.9082c-0.06803-0.0453-0.16642-0.0955-0.29492-0.14844-0.1285-0.0529-0.27511-0.10529-0.44141-0.1582-0.15874-0.0529-0.33667-0.0948-0.5332-0.125-0.18898-0.0378-0.38159-0.0566-0.57812-0.0566-0.41575 0-0.79045 0.0732-1.123 0.2168-0.3326 0.14362-0.61528 0.35092-0.84961 0.62304-0.23433 0.27213-0.41642 0.60498-0.54492 0.99805-0.12094 0.38551-0.18164 0.81896-0.18164 1.3027 0 0.46867 0.05238 0.89574 0.1582 1.2813 0.11339 0.38551 0.28079 0.71836 0.5 0.99804 0.21921 0.27213 0.49137 0.48359 0.81641 0.63477 0.3326 0.15118 0.71782 0.22656 1.1562 0.22656 0.50646 0 0.92522-0.0524 1.2578-0.1582 0.3326-0.10583 0.58175-0.20006 0.74805-0.28321l0.28516 0.90625c-0.05291 0.0378-0.14909 0.088-0.28516 0.14844-0.13606 0.0529-0.30567 0.10529-0.50977 0.1582-0.20409 0.0529-0.44272 0.0989-0.71484 0.13672-0.27212 0.0378-0.56533 0.0566-0.88281 0.0566-0.55181 0-1.0543-0.0901-1.5078-0.27148-0.45354-0.18142-0.84293-0.44721-1.168-0.79492-0.32504-0.34772-0.57835-0.7748-0.75977-1.2812-0.17386-0.51402-0.26172-1.1002-0.26172-1.7578 0-0.65763 0.09839-1.2396 0.29492-1.7461 0.2041-0.51401 0.47625-0.94525 0.81641-1.293 0.34016-0.34771 0.73786-0.61155 1.1914-0.79297 0.45354-0.18141 0.93716-0.27148 1.4512-0.27148zm2.9238 0.18164h1.2148c0.40819 1.1943 0.8081 2.3417 1.2012 3.4453 0.39307 1.1036 0.79714 2.1399 1.2129 3.1074 0.41575-0.96 0.81982-1.9921 1.2129-3.0957 0.39307-1.1112 0.79078-2.2627 1.1914-3.457h1.1797c-0.28724 0.8315-0.56356 1.602-0.82812 2.3125-0.25701 0.70299-0.51032 1.3709-0.75976 2.0059s-0.4986 1.2441-0.74805 1.8262c-0.24189 0.57449-0.49104 1.146-0.74805 1.7129h-1.0332c-0.25701-0.56693-0.51032-1.1384-0.75977-1.7129-0.24189-0.58205-0.49104-1.1912-0.74805-1.8262-0.24945-0.63496-0.50692-1.3029-0.77148-2.0059-0.26457-0.71055-0.53672-1.481-0.81641-2.3125z" style=""/>
    </g>
  </g>
  <g id="throughholes">
    <circle id="circle195" cx="7.43" cy="3" r="1.7"/>
    <circle id="circle197" cx="7.43" cy="125.5" r="1.7"/>
    <circle id="circle199" cx="7.43" cy="19.54" r="3.15"/>
    <circle id="circle203" cx="15.05" cy="42.4" r="3.65"/>
    <circle id="circle207" cx="5.525" cy="86.85" r="3.15"/>
    <circle id="circle211" cx="24.575" cy="86.85" r="3.15"/>
    <circle id="circle215" cx="5.525" cy="103.36" r="3.15"/>
    <circle id="circle219" cx="24.575" cy="103.36" r="3.15"/>
    <circle id="circle223" cx="15.05" cy="103.36" r="3.15"/>
  </g>
  <g id="cosmetics">
    <g id="cosmetics_offset" transform="translate(15.05,17)">
      <g id="g235" transform="translate(-7.62 2.54)">
        <path id="path229" d="m3.5466-0.15485v0.3097l0.1713 0.33462-0.056808 0.32218-0.27541 0.25586-0.10592 0.29102 0.046518 0.37303-0.16357 0.28332-0.34631 0.14623-0.19907 0.23724-0.083871 0.36644-0.25061 0.21029-0.37544 0.018965-0.26821 0.15485-0.20414 0.31566-0.30742 0.11189-0.35929-0.11059-0.30499 0.053778-0.2998 0.2268h-0.32715l-0.2998-0.2268-0.30499-0.053778-0.35929 0.11059-0.30742-0.11189-0.20414-0.31566-0.26821-0.15485-0.37544-0.018965-0.25061-0.21029-0.083871-0.36644-0.19907-0.23724-0.34631-0.14623-0.16357-0.28332 0.046518-0.37303-0.10592-0.29102-0.27541-0.25586-0.056808-0.32218 0.1713-0.33462v-0.3097l-0.1713-0.33462 0.056808-0.32218 0.27541-0.25586 0.10592-0.29102-0.046518-0.37303 0.16357-0.28332 0.34631-0.14623 0.19907-0.23724 0.083871-0.36644 0.25061-0.21029 0.37544-0.018965 0.26821-0.15485 0.20414-0.31566 0.30742-0.11189 0.35929 0.11059 0.30499-0.053778 0.2998-0.2268h0.32715l0.2998 0.2268 0.30499 0.053778 0.35929-0.11059 0.30742 0.11189 0.20414 0.31566 0.26821 0.15485 0.37544 0.018965 0.25061 0.21029 0.083871 0.36644 0.19907 0.23724 0.34631 0.14623 0.16357 0.28332-0.046518 0.37303 0.10592 0.29102 0.27541 0.25586 0.056808 0.32218z" fill="url(#id1) none"/>
        <circle id="circle231" r="3.15" fill="url(#id2) none"/>
        <circle id="circle233" r="2.35" fill="url(#id3) none"/>
      </g>
      <g id="g249" transform="translate(-2.54 33.02)">
        <circle id="circle237" cx="2.54" cy="-7.62" r="9.25" fill="url(#id4) none"/>
        <circle id="circle239" cx="2.54" cy="-7.62" r="9.25" fill="url(#id5) none"/>
        <path id="path241" d="m-1.9566-13.809a7.65 7.65 0 0 1 5.2962-1.4191l0.64326 0.45211 0.8855 0.23727 0.78313-0.069913a7.65 7.65 0 0 1 3.8771 3.8771l-0.069913 0.78313 0.23727 0.8855 0.45211 0.64326a7.65 7.65 0 0 1-1.4191 5.2962l-0.71317 0.33102-0.64823 0.64823-0.33102 0.71317a7.65 7.65 0 0 1-5.2962 1.4191l-0.64326-0.45211-0.8855-0.23727-0.78313 0.069913a7.65 7.65 0 0 1-3.8771-3.8771l0.069913-0.78313-0.23727-0.8855-0.45211-0.64326a7.65 7.65 0 0 1 1.4191-5.2962l0.71317-0.33102 0.64823-0.64823z" fill="url(#id6) none"/>
        <path id="path243" d="m-1.3394-12.96a6.6 6.6 0 0 1 4.5693-1.2243l0.54547 0.43715 0.75814 0.20314 0.69097-0.10585a6.6 6.6 0 0 1 3.3449 3.3449l-0.10585 0.69097 0.20314 0.75814 0.43715 0.54547a6.6 6.6 0 0 1-1.2243 4.5693l-0.65132 0.25382-0.555 0.555-0.25382 0.65132a6.6 6.6 0 0 1-4.5693 1.2243l-0.54547-0.43715-0.75814-0.20314-0.69097 0.10585a6.6 6.6 0 0 1-3.3449-3.3449l0.10585-0.69097-0.20314-0.75814-0.43715-0.54547a6.6 6.6 0 0 1 1.2243-4.5693l0.65132-0.25382 0.555-0.555z" fill="url(#id7) none"/>
        <circle id="circle245" cx="2.54" cy="-7.62" r="5.75" fill="url(#id8) none"/>
        <line id="line247" x1="2.54" x2="-1.5259" y1="-7.62" y2="-11.686" stroke="#fff" stroke-width=".8"/>
      </g>
      <g id="g255" transform="translate(-10.16 58.42)">
        <path id="path251" d="m5.5891-7.6949v0.1497l0.19211 0.16423-0.015635 0.15875-0.22046 0.1236-0.029205 0.14683 0.15638 0.19856-0.046306 0.15265-0.24034 0.078214-0.057288 0.13831 0.11464 0.22525-0.075196 0.14068-0.25098 0.029824-0.08317 0.12447 0.068492 0.24329-0.1012 0.12331-0.25198-0.019713-0.10585 0.10585 0.019713 0.25198-0.12331 0.1012-0.24329-0.068492-0.12447 0.08317-0.029824 0.25098-0.14068 0.075196-0.22525-0.11464-0.13831 0.057288-0.078214 0.24034-0.15265 0.046306-0.19856-0.15638-0.14683 0.029205-0.1236 0.22046-0.15875 0.015635-0.16423-0.19211h-0.1497l-0.16423 0.19211-0.15875-0.015635-0.1236-0.22046-0.14683-0.029205-0.19856 0.15638-0.15265-0.046306-0.078214-0.24034-0.13831-0.057288-0.22525 0.11464-0.14068-0.075196-0.029824-0.25098-0.12447-0.08317-0.24329 0.068492-0.12331-0.1012 0.019713-0.25198-0.10585-0.10585-0.25198 0.019713-0.1012-0.12331 0.068492-0.24329-0.08317-0.12447-0.25098-0.029824-0.075196-0.14068 0.11464-0.22525-0.057288-0.13831-0.24034-0.078214-0.046306-0.15265 0.15638-0.19856-0.029205-0.14683-0.22046-0.1236-0.015635-0.15875 0.19211-0.16423v-0.1497l-0.19211-0.16423 0.015635-0.15875 0.22046-0.1236 0.029205-0.14683-0.15638-0.19856 0.046306-0.15265 0.24034-0.078214 0.057288-0.13831-0.11464-0.22525 0.075196-0.14068 0.25098-0.029824 0.08317-0.12447-0.068492-0.24329 0.1012-0.12331 0.25198 0.019713 0.10585-0.10585-0.019713-0.25198 0.12331-0.1012 0.24329 0.068492 0.12447-0.08317 0.029824-0.25098 0.14068-0.075196 0.22525 0.11464 0.13831-0.057288 0.078214-0.24034 0.15265-0.046306 0.19856 0.15638 0.14683-0.029205 0.1236-0.22046 0.15875-0.015635 0.16423 0.19211h0.1497l0.16423-0.19211 0.15875 0.015635 0.1236 0.22046 0.14683 0.029205 0.19856-0.15638 0.15265 0.046306 0.078214 0.24034 0.13831 0.057288 0.22525-0.11464 0.14068 0.075196 0.029824 0.25098 0.12447 0.08317 0.24329-0.068492 0.12331 0.1012-0.019713 0.25198 0.10585 0.10585 0.25198-0.019713 0.1012 0.12331-0.068492 0.24329 0.08317 0.12447 0.25098 0.029824 0.075196 0.14068-0.11464 0.22525 0.057288 0.13831 0.24034 0.078214 0.046306 0.15265-0.15638 0.19856 0.029205 0.14683 0.22046 0.1236 0.015635 0.15875z" fill="url(#id9) none"/>
        <line id="line253" x1="2.54" x2=".2419" y1="-7.62" y2="-9.9181" stroke="#fff" stroke-width=".8"/>
      </g>
      <g id="g261" transform="translate(5.08 58.42)">
        <path id="path257" d="m5.5891-7.6949v0.1497l0.19211 0.16423-0.015635 0.15875-0.22046 0.1236-0.029205 0.14683 0.15638 0.19856-0.046306 0.15265-0.24034 0.078214-0.057288 0.13831 0.11464 0.22525-0.075196 0.14068-0.25098 0.029824-0.08317 0.12447 0.068492 0.24329-0.1012 0.12331-0.25198-0.019713-0.10585 0.10585 0.019713 0.25198-0.12331 0.1012-0.24329-0.068492-0.12447 0.08317-0.029824 0.25098-0.14068 0.075196-0.22525-0.11464-0.13831 0.057288-0.078214 0.24034-0.15265 0.046306-0.19856-0.15638-0.14683 0.029205-0.1236 0.22046-0.15875 0.015635-0.16423-0.19211h-0.1497l-0.16423 0.19211-0.15875-0.015635-0.1236-0.22046-0.14683-0.029205-0.19856 0.15638-0.15265-0.046306-0.078214-0.24034-0.13831-0.057288-0.22525 0.11464-0.14068-0.075196-0.029824-0.25098-0.12447-0.08317-0.24329 0.068492-0.12331-0.1012 0.019713-0.25198-0.10585-0.10585-0.25198 0.019713-0.1012-0.12331 0.068492-0.24329-0.08317-0.12447-0.25098-0.029824-0.075196-0.14068 0.11464-0.22525-0.057288-0.13831-0.24034-0.078214-0.046306-0.15265 0.15638-0.19856-0.029205-0.14683-0.22046-0.1236-0.015635-0.15875 0.19211-0.16423v-0.1497l-0.19211-0.16423 0.015635-0.15875 0.22046-0.1236 0.029205-0.14683-0.15638-0.19856 0.046306-0.15265 0.24034-0.078214 0.057288-0.13831-0.11464-0.22525 0.075196-0.14068 0.25098-0.029824 0.08317-0.12447-0.068492-0.24329 0.1012-0.12331 0.25198 0.019713 0.10585-0.10585-0.019713-0.25198 0.12331-0.1012 0.24329 0.068492 0.12447-0.08317 0.029824-0.25098 0.14068-0.075196 0.22525 0.11464 0.13831-0.057288 0.078214-0.24034 0.15265-0.046306 0.19856 0.15638 0.14683-0.029205 0.1236-0.22046 0.15875-0.015635 0.16423 0.19211h0.1497l0.16423-0.19211 0.15875 0.015635 0.1236 0.22046 0.14683 0.029205 0.19856-0.15638 0.15265 0.046306 0.078214 0.24034 0.13831 0.057288 0.22525-0.11464 0.14068 0.075196 0.029824 0.25098 0.12447 0.08317 0.24329-0.068492 0.12331 0.1012-0.019713 0.25198 0.10585 0.10585 0.25198-0.019713 0.1012 0.12331-0.068492 0.24329 0.08317 0.12447 0.25098 0.029824 0.075196 0.14068-0.11464 0.22525 0.057288 0.13831 0.24034 0.078214 0.046306 0.15265-0.15638 0.19856 0.029205 0.14683 0.22046 0.1236 0.015635 0.15875z" fill="url(#id9) none"/>
        <line id="line259" x1="2.54" x2=".2419" y1="-7.62" y2="-9.9181" stroke="#fff" stroke-width=".8"/>
      </g>
      <g id="g269" transform="translate(-9.525 69.85)">
        <path id="path263" d="m3.5466-0.15485v0.3097l0.1713 0.33462-0.056808 0.32218-0.27541 0.25586-0.10592 0.29102 0.046518 0.37303-0.16357 0.28332-0.34631 0.14623-0.19907 0.23724-0.083871 0.36644-0.25061 0.21029-0.37544 0.018965-0.26821 0.15485-0.20414 0.31566-0.30742 0.11189-0.35929-0.11059-0.30499 0.053778-0.2998 0.2268h-0.32715l-0.2998-0.2268-0.30499-0.053778-0.35929 0.11059-0.30742-0.11189-0.20414-0.31566-0.26821-0.15485-0.37544-0.018965-0.25061-0.21029-0.083871-0.36644-0.19907-0.23724-0.34631-0.14623-0.16357-0.28332 0.046518-0.37303-0.10592-0.29102-0.27541-0.25586-0.056808-0.32218 0.1713-0.33462v-0.3097l-0.1713-0.33462 0.056808-0.32218 0.27541-0.25586 0.10592-0.29102-0.046518-0.37303 0.16357-0.28332 0.34631-0.14623 0.19907-0.23724 0.083871-0.36644 0.25061-0.21029 0.37544-0.018965 0.26821-0.15485 0.20414-0.31566 0.30742-0.11189 0.35929 0.11059 0.30499-0.053778 0.2998-0.2268h0.32715l0.2998 0.2268 0.30499 0.053778 0.35929-0.11059 0.30742 0.11189 0.20414 0.31566 0.26821 0.15485 0.37544 0.018965 0.25061 0.21029 0.083871 0.36644 0.19907 0.23724 0.34631 0.14623 0.16357 0.28332-0.046518 0.37303 0.10592 0.29102 0.27541 0.25586 0.056808 0.32218z" fill="url(#id1) none"/>
        <circle id="circle265" r="3.15" fill="url(#id2) none"/>
        <circle id="circle267" r="2.35" fill="url(#id3) none"/>
      </g>
      <g id="g277" transform="translate(9.525 69.85)">
        <path id="path271" d="m3.5466-0.15485v0.3097l0.1713 0.33462-0.056808 0.32218-0.27541 0.25586-0.10592 0.29102 0.046518 0.37303-0.16357 0.28332-0.34631 0.14623-0.19907 0.23724-0.083871 0.36644-0.25061 0.21029-0.37544 0.018965-0.26821 0.15485-0.20414 0.31566-0.30742 0.11189-0.35929-0.11059-0.30499 0.053778-0.2998 0.2268h-0.32715l-0.2998-0.2268-0.30499-0.053778-0.35929 0.11059-0.30742-0.11189-0.20414-0.31566-0.26821-0.15485-0.37544-0.018965-0.25061-0.21029-0.083871-0.36644-0.19907-0.23724-0.34631-0.14623-0.16357-0.28332 0.046518-0.37303-0.10592-0.29102-0.27541-0.25586-0.056808-0.32218 0.1713-0.33462v-0.3097l-0.1713-0.33462 0.056808-0.32218 0.27541-0.25586 0.10592-0.29102-0.046518-0.37303 0.16357-0.28332 0.34631-0.14623 0.19907-0.23724 0.083871-0.36644 0.25061-0.21029 0.37544-0.018965 0.26821-0.15485 0.20414-0.31566 0.30742-0.11189 0.35929 0.11059 0.30499-0.053778 0.2998-0.2268h0.32715l0.2998 0.2268 0.30499 0.053778 0.35929-0.11059 0.30742 0.11189 0.20414 0.31566 0.26821 0.15485 0.37544 0.018965 0.25061 0.21029 0.083871 0.36644 0.19907 0.23724 0.34631 0.14623 0.16357 0.28332-0.046518 0.37303 0.10592 0.29102 0.27541 0.25586 0.056808 0.32218z" fill="url(#id1) none"/>
        <circle id="circle273" r="3.15" fill="url(#id2) none"/>
        <circle id="circle275" r="2.35" fill="url(#id3) none"/>
      </g>
      <g id="g283" transform="translate(0,68.58)">
        <circle id="circle279" cy="1.27" r="2.55" fill="url(#id17) none"/>
        <ellipse id="ellipse281" transform="rotate(20 .85 -.005)" cx=".85" cy="-.005" rx="1.275" ry=".85" fill="#fff" opacity=".8"/>
      </g>
      <g id="g291" transform="translate(-9.525 86.36)">
        <path id="path285" d="m3.5466-0.15485v0.3097l0.1713 0.33462-0.056808 0.32218-0.27541 0.25586-0.10592 0.29102 0.046518 0.37303-0.16357 0.28332-0.34631 0.14623-0.19907 0.23724-0.083871 0.36644-0.25061 0.21029-0.37544 0.018965-0.26821 0.15485-0.20414 0.31566-0.30742 0.11189-0.35929-0.11059-0.30499 0.053778-0.2998 0.2268h-0.32715l-0.2998-0.2268-0.30499-0.053778-0.35929 0.11059-0.30742-0.11189-0.20414-0.31566-0.26821-0.15485-0.37544-0.018965-0.25061-0.21029-0.083871-0.36644-0.19907-0.23724-0.34631-0.14623-0.16357-0.28332 0.046518-0.37303-0.10592-0.29102-0.27541-0.25586-0.056808-0.32218 0.1713-0.33462v-0.3097l-0.1713-0.33462 0.056808-0.32218 0.27541-0.25586 0.10592-0.29102-0.046518-0.37303 0.16357-0.28332 0.34631-0.14623 0.19907-0.23724 0.083871-0.36644 0.25061-0.21029 0.37544-0.018965 0.26821-0.15485 0.20414-0.31566 0.30742-0.11189 0.35929 0.11059 0.30499-0.053778 0.2998-0.2268h0.32715l0.2998 0.2268 0.30499 0.053778 0.35929-0.11059 0.30742 0.11189 0.20414 0.31566 0.26821 0.15485 0.37544 0.018965 0.25061 0.21029 0.083871 0.36644 0.19907 0.23724 0.34631 0.14623 0.16357 0.28332-0.046518 0.37303 0.10592 0.29102 0.27541 0.25586 0.056808 0.32218z" fill="url(#id1) none"/>
        <circle id="circle287" r="3.15" fill="url(#id2) none"/>
        <circle id="circle289" r="2.35" fill="url(#id3) none"/>
      </g>
      <g id="g299" transform="translate(9.525 86.36)">
        <path id="path293" d="m3.5466-0.15485v0.3097l0.1713 0.33462-0.056808 0.32218-0.27541 0.25586-0.10592 0.29102 0.046518 0.37303-0.16357 0.28332-0.34631 0.14623-0.19907 0.23724-0.083871 0.36644-0.25061 0.21029-0.37544 0.018965-0.26821 0.15485-0.20414 0.31566-0.30742 0.11189-0.35929-0.11059-0.30499 0.053778-0.2998 0.2268h-0.32715l-0.2998-0.2268-0.30499-0.053778-0.35929 0.11059-0.30742-0.11189-0.20414-0.31566-0.26821-0.15485-0.37544-0.018965-0.25061-0.21029-0.083871-0.36644-0.19907-0.23724-0.34631-0.14623-0.16357-0.28332 0.046518-0.37303-0.10592-0.29102-0.27541-0.25586-0.056808-0.32218 0.1713-0.33462v-0.3097l-0.1713-0.33462 0.056808-0.32218 0.27541-0.25586 0.10592-0.29102-0.046518-0.37303 0.16357-0.28332 0.34631-0.14623 0.19907-0.23724 0.083871-0.36644 0.25061-0.21029 0.37544-0.018965 0.26821-0.15485 0.20414-0.31566 0.30742-0.11189 0.35929 0.11059 0.30499-0.053778 0.2998-0.2268h0.32715l0.2998 0.2268 0.30499 0.053778 0.35929-0.11059 0.30742 0.11189 0.20414 0.31566 0.26821 0.15485 0.37544 0.018965 0.25061 0.21029 0.083871 0.36644 0.19907 0.23724 0.34631 0.14623 0.16357 0.28332-0.046518 0.37303 0.10592 0.29102 0.27541 0.25586 0.056808 0.32218z" fill="url(#id1) none"/>
        <circle id="circle295" r="3.15" fill="url(#id2) none"/>
        <circle id="circle297" r="2.35" fill="url(#id3) none"/>
      </g>
      <g id="g307" transform="translate(0 86.36)">
        <path id="path301" d="m3.5466-0.15485v0.3097l0.1713 0.33462-0.056808 0.32218-0.27541 0.25586-0.10592 0.29102 0.046518 0.37303-0.16357 0.28332-0.34631 0.14623-0.19907 0.23724-0.083871 0.36644-0.25061 0.21029-0.37544 0.018965-0.26821 0.15485-0.20414 0.31566-0.30742 0.11189-0.35929-0.11059-0.30499 0.053778-0.2998 0.2268h-0.32715l-0.2998-0.2268-0.30499-0.053778-0.35929 0.11059-0.30742-0.11189-0.20414-0.31566-0.26821-0.15485-0.37544-0.018965-0.25061-0.21029-0.083871-0.36644-0.19907-0.23724-0.34631-0.14623-0.16357-0.28332 0.046518-0.37303-0.10592-0.29102-0.27541-0.25586-0.056808-0.32218 0.1713-0.33462v-0.3097l-0.1713-0.33462 0.056808-0.32218 0.27541-0.25586 0.10592-0.29102-0.046518-0.37303 0.16357-0.28332 0.34631-0.14623 0.19907-0.23724 0.083871-0.36644 0.25061-0.21029 0.37544-0.018965 0.26821-0.15485 0.20414-0.31566 0.30742-0.11189 0.35929 0.11059 0.30499-0.053778 0.2998-0.2268h0.32715l0.2998 0.2268 0.30499 0.053778 0.35929-0.11059 0.30742 0.11189 0.20414 0.31566 0.26821 0.15485 0.37544 0.018965 0.25061 0.21029 0.083871 0.36644 0.19907 0.23724 0.34631 0.14623 0.16357 0.28332-0.046518 0.37303 0.10592 0.29102 0.27541 0.25586 0.056808 0.32218z" fill="url(#id1) none"/>
        <circle id="circle303" r="3.15" fill="url(#id2) none"/>
        <circle id="circle305" r="2.35" fill="url(#id3) none"/>
      </g>
    </g>
  </g>
</svg>
