<?xml version="1.0" encoding="UTF-8" standalone="no"?>
<!-- Created with Inkscape (http://www.inkscape.org/) -->

<svg
   width="181.08179mm"
   height="148.97064mm"
   viewBox="0 0 181.08179 148.97064"
   version="1.1"
   id="svg1"
   xml:space="preserve"
   inkscape:version="1.3.2 (091e20ef0f, 2023-11-25)"
   sodipodi:docname="drift_card.svg"
   xmlns:inkscape="http://www.inkscape.org/namespaces/inkscape"
   xmlns:sodipodi="http://sodipodi.sourceforge.net/DTD/sodipodi-0.dtd"
   xmlns:xlink="http://www.w3.org/1999/xlink"
   xmlns="http://www.w3.org/2000/svg"
   xmlns:svg="http://www.w3.org/2000/svg"><sodipodi:namedview
     id="namedview1"
     pagecolor="#ffffff"
     bordercolor="#000000"
     borderopacity="0.25"
     inkscape:showpageshadow="2"
     inkscape:pageopacity="0.0"
     inkscape:pagecheckerboard="0"
     inkscape:deskcolor="#d1d1d1"
     inkscape:document-units="mm"
     inkscape:zoom="0.66161081"
     inkscape:cx="78.596056"
     inkscape:cy="286.42216"
     inkscape:window-width="1920"
     inkscape:window-height="1011"
     inkscape:window-x="0"
     inkscape:window-y="32"
     inkscape:window-maximized="1"
     inkscape:current-layer="layer1" /><defs
     id="defs1" /><g
     inkscape:label="Layer 1"
     inkscape:groupmode="layer"
     id="layer1"
     transform="translate(-7.3401213,-4.2534599)"><rect
       style="fill:#ffffff;stroke-width:0.9906;fill-opacity:1"
       id="rect6"
       width="181.08179"
       height="148.97064"
       x="7.3401213"
       y="4.2534599" /><g
       id="g1"
       transform="translate(-17.737299,0.4706144)"><rect
         style="fill:#000000;stroke-width:0.626775"
         id="rect1"
         width="22"
         height="130.5"
         x="37.733509"
         y="13.018167" /><image
         preserveAspectRatio="none"
         inkscape:svg-dpi="600"
         width="20.000013"
         height="128.49992"
         style="image-rendering:optimizeQuality"
         xlink:href="images/drift.svg"
         id="image1"
         x="38.733501"
         y="14.018205" /></g><g
       id="g6"
       transform="translate(8.3257101,5.0938259)"><g
         id="g36"
         transform="matrix(1.9794482,0,0,1.9794482,-81.452868,26.830906)"><text
           xml:space="preserve"
           style="font-style:normal;font-variant:normal;font-weight:normal;font-stretch:normal;font-size:16.9333px;line-height:1;font-family:Ubuntu;-inkscape-font-specification:Ubuntu;opacity:1;fill:#000000;fill-opacity:1;stroke:none;stroke-width:1.2;stroke-dasharray:none;stroke-opacity:1"
           x="74.488228"
           y="16.548672"
           id="text36"><tspan
             sodipodi:role="line"
             id="tspan36"
             style="font-weight:normal;font-size:16.9333px;stroke-width:1.2"
             x="74.488228"
             y="16.548672">Drift</tspan></text></g><path
         id="path1-6"
         style="color:#000000;fill:#000000;stroke:none;stroke-width:0;stroke-dasharray:none"
         d="m 96.517078,69.542976 c -3.10468,0 -5.64323,2.53855 -5.64323,5.64324 0,3.10468 2.53855,5.64323 5.64323,5.64323 1.52312,0 2.75922,-0.61796 3.814202,-1.51434 0.37308,-0.31699 0.74588,-0.67594 1.1295,-1.06386 l -0.002,-1.42313 -1.45224,7.3e-4 c -0.359802,0.36509 -0.690252,0.68577 -0.989372,0.93992 -0.85169,0.72365 -1.46681,1.0315 -2.50001,1.0315 -2.00797,0 -3.61396,-1.60599 -3.61396,-3.61396 0,-2.00796 1.60599,-3.61395 3.61396,-3.61395 1.0332,0 1.64832,0.30785 2.50001,1.0315 0.29912,0.25415 0.62957,0.57482 0.989372,0.93992 l 1.45224,7.2e-4 0.002,-1.42312 c -0.38362,-0.38792 -0.75642,-0.74687 -1.1295,-1.06386 -1.054982,-0.89638 -2.291082,-1.51434 -3.814202,-1.51434 z m 12.960222,0 c -1.52308,3e-5 -2.75915,0.61799 -3.8141,1.51435 -0.38979,0.33118 -0.77918,0.70771 -1.18112,1.11584 h 3.04839 c 0.60047,-0.41646 1.14938,-0.60089 1.94683,-0.60091 h 9e-5 c 1.50336,0 2.78124,0.90028 3.32865,2.19544 l -1.46489,-0.0182 -2.08163,-0.74674 -6.96883,10e-5 v 1.36888 h -5.500592 v 1.62906 h 5.500592 v 1.36889 l 6.96883,9e-5 2.08162,-0.74673 1.4649,-0.0183 c -0.54741,1.29516 -1.82529,2.19544 -3.32865,2.19544 h -9e-5 c -0.79745,-1e-5 -1.34636,-0.18445 -1.94683,-0.60091 h -3.04839 c 0.40194,0.40813 0.79133,0.78466 1.18112,1.11585 1.05495,0.89636 2.29102,1.51432 3.8141,1.51434 h 9e-5 c 3.10469,0 5.64324,-2.53855 5.64324,-5.64324 0,-3.10468 -2.53855,-5.64323 -5.64324,-5.64323 z m -14.478272,4.67855 -0.70089,0.96469 0.70089,0.96469 1.13411,-0.36848 v -1.19242 z" /><text
         xml:space="preserve"
         style="font-size:4.23333px;line-height:1.2;font-family:Ubuntu;-inkscape-font-specification:Ubuntu;text-align:center;text-anchor:middle;fill:#000000;stroke-width:0.9906"
         x="102.84859"
         y="99.132072"
         id="text4"><tspan
           sodipodi:role="line"
           id="tspan4"
           style="font-size:4.23333px;text-align:center;text-anchor:middle;stroke-width:0.9906"
           x="102.84859"
           y="99.132072">organic modulation generator</tspan><tspan
           sodipodi:role="line"
           style="font-size:4.23333px;text-align:center;text-anchor:middle;stroke-width:0.9906"
           x="102.84859"
           y="104.21207"
           id="tspan5" /><tspan
           sodipodi:role="line"
           style="font-size:4.23333px;text-align:center;text-anchor:middle;stroke-width:0.9906"
           x="102.84859"
           y="109.29206"
           id="tspan6">by Free Modular</tspan></text></g></g></svg>
