<?xml version="1.0" encoding="UTF-8" standalone="no"?>
<svg
   xmlns:dc="http://purl.org/dc/elements/1.1/"
   xmlns:cc="http://creativecommons.org/ns#"
   xmlns:rdf="http://www.w3.org/1999/02/22-rdf-syntax-ns#"
   xmlns:svg="http://www.w3.org/2000/svg"
   xmlns="http://www.w3.org/2000/svg"
   xmlns:sodipodi="http://sodipodi.sourceforge.net/DTD/sodipodi-0.dtd"
   xmlns:inkscape="http://www.inkscape.org/namespaces/inkscape"
   sodipodi:docname="AARR_loop.svg"
   inkscape:version="0.92.5 (2060ec1f9f, 2020-04-08)"
   id="svg1050"
   version="1.1"
   viewBox="0 0 169.58284 72.156967"
   height="72.156967mm"
   width="169.58284mm">
  <defs
     id="defs1044" />
  <sodipodi:namedview
     inkscape:window-maximized="0"
     inkscape:window-y="42"
     inkscape:window-x="0"
     inkscape:window-height="1946"
     inkscape:window-width="2988"
     showgrid="true"
     inkscape:document-rotation="0"
     inkscape:current-layer="layer1"
     inkscape:document-units="mm"
     inkscape:cy="177.41071"
     inkscape:cx="235.65078"
     inkscape:zoom="1.197522"
     inkscape:pageshadow="2"
     inkscape:pageopacity="0.0"
     borderopacity="1.0"
     bordercolor="#666666"
     pagecolor="#ffffff"
     id="base">
    <inkscape:grid
       originy="-41.173453"
       originx="-29.624088"
       spacingy="0.66145834"
       spacingx="0.66145834"
       id="grid1613"
       type="xygrid" />
  </sodipodi:namedview>
  <metadata
     id="metadata1047">
    <rdf:RDF>
      <cc:Work
         rdf:about="">
        <dc:format>image/svg+xml</dc:format>
        <dc:type
           rdf:resource="http://purl.org/dc/dcmitype/StillImage" />
        <dc:title />
      </cc:Work>
    </rdf:RDF>
  </metadata>
  <g
     transform="translate(-29.624087,-18.96125)"
     id="layer1"
     inkscape:groupmode="layer"
     inkscape:label="Layer 1">
    <path
       style="fill:none;stroke:#000000;stroke-width:0.565;stroke-linecap:butt;stroke-linejoin:miter;stroke-miterlimit:4;stroke-dasharray:1.695, 1.695;stroke-dashoffset:0;stroke-opacity:1"
       d="M 119.0625,19.843751 V 72.76042"
       id="path927"
       inkscape:connector-curvature="0" />
    <path
       style="fill:none;stroke:#5ece1c;stroke-width:0.565;stroke-linecap:butt;stroke-linejoin:miter;stroke-miterlimit:4;stroke-dasharray:1.695, 1.695;stroke-dashoffset:0;stroke-opacity:1"
       d="m 119.0625,19.84375 72.76042,52.916669"
       id="path835"
       sodipodi:nodetypes="cc"
       inkscape:connector-curvature="0" />
    <path
       style="fill:none;stroke:#ed2222;stroke-width:2.7650001;stroke-linecap:butt;stroke-linejoin:miter;stroke-miterlimit:4;stroke-dasharray:none;stroke-opacity:1"
       d="m 191.82292,72.760417 c 0,6.61458 -35.05729,4e-6 -36.38021,6.614584 -1.32292,-6.61458 -36.38021,-4e-6 -36.38021,-6.614584"
       id="path879"
       sodipodi:nodetypes="ccc"
       inkscape:connector-curvature="0" />
    <path
       style="fill:none;stroke:#3b75ff;stroke-width:2.7650001;stroke-linecap:butt;stroke-linejoin:miter;stroke-miterlimit:4;stroke-dasharray:none;stroke-opacity:1"
       d="m 82.682292,26.458334 c 6.614583,-4e-6 0,18.52083 6.614584,19.84375 -6.614584,1.32291 0,19.84375 -6.614584,19.84375"
       id="path854"
       sodipodi:nodetypes="ccc"
       inkscape:connector-curvature="0" />
    <path
       sodipodi:nodetypes="ccc"
       id="path854-3"
       d="m 46.302084,72.760418 c 0,6.614583 35.057292,0 36.380208,6.614583 1.322917,-6.614583 36.380208,0 36.380208,-6.614583"
       style="fill:none;stroke:#f5d400;stroke-width:2.7650001;stroke-linecap:butt;stroke-linejoin:miter;stroke-miterlimit:4;stroke-dasharray:none;stroke-opacity:1"
       inkscape:connector-curvature="0" />
    <path
       style="fill:none;stroke:#5ece1c;stroke-width:2.7650001;stroke-linecap:butt;stroke-linejoin:miter;stroke-miterlimit:4;stroke-dasharray:none;stroke-opacity:1"
       d="m 155.44271,66.145834 c 6.61458,-2e-5 0,-18.52082 6.61458,-19.84375 -6.61458,-1.32292 0,-19.843746 -6.61458,-19.843746"
       id="path873"
       sodipodi:nodetypes="ccc"
       inkscape:connector-curvature="0" />
    <g
       style="font-style:normal;font-variant:normal;font-weight:normal;font-stretch:normal;font-size:12.69999981px;line-height:1.25;font-family:Ubuntu;-inkscape-font-specification:Ubuntu;fill:#000000;fill-opacity:1;stroke:none;stroke-width:0.26458299"
       id="text883"
       aria-label="Attack">
      <path
         id="path883"
         style="font-style:normal;font-variant:normal;font-weight:normal;font-stretch:normal;font-size:12.69999981px;font-family:Ubuntu;-inkscape-font-specification:Ubuntu;stroke-width:0.26458299"
         d="m 70.58053,90.96582 q -0.2159,-0.5715 -0.4064,-1.1176 -0.1905,-0.5588 -0.3937,-1.1303 h -3.987799 l -0.8001,2.2479 h -1.2827 q 0.508,-1.397 0.9525,-2.5781 0.4445,-1.1938 0.8636,-2.2606 0.4318,-1.0668 0.8509,-2.032 0.4191,-0.9779 0.8763,-1.9304 h 1.1303 q 0.4572,0.9525 0.8763,1.9304 0.419099,0.9652 0.838199,2.032 0.4318,1.0668 0.8763,2.2606 0.4445,1.1811 0.9525,2.5781 z m -1.155699,-3.2639 q -0.4064,-1.1049 -0.8128,-2.1336 -0.3937,-1.0414 -0.8255,-1.9939 -0.4445,0.9525 -0.8509,1.9939 -0.3937,1.0287 -0.7874,2.1336 z"
         inkscape:connector-curvature="0" />
      <path
         id="path885"
         style="font-style:normal;font-variant:normal;font-weight:normal;font-stretch:normal;font-size:12.69999981px;font-family:Ubuntu;-inkscape-font-specification:Ubuntu;stroke-width:0.26458299"
         d="m 74.137919,84.36182 h 2.5019 v 0.9906 h -2.5019 v 3.048 q 0,0.4953 0.0762,0.8255 0.0762,0.3175 0.2286,0.508 0.1524,0.1778 0.381,0.254 0.2286,0.0762 0.5334,0.0762 0.5334,0 0.8509,-0.1143 0.3302,-0.127 0.4572,-0.1778 l 0.2286,0.9779 q -0.1778,0.0889 -0.6223,0.2159 -0.4445,0.1397 -1.016,0.1397 -0.6731,0 -1.1176,-0.1651 -0.4318,-0.1778 -0.6985,-0.5207 -0.2667,-0.3429 -0.381,-0.8382 -0.1016,-0.508 -0.1016,-1.1684 v -5.8928 l 1.1811,-0.2032 z"
         inkscape:connector-curvature="0" />
      <path
         id="path887"
         style="font-style:normal;font-variant:normal;font-weight:normal;font-stretch:normal;font-size:12.69999981px;font-family:Ubuntu;-inkscape-font-specification:Ubuntu;stroke-width:0.26458299"
         d="m 79.247685,84.36182 h 2.5019 v 0.9906 h -2.5019 v 3.048 q 0,0.4953 0.0762,0.8255 0.0762,0.3175 0.2286,0.508 0.1524,0.1778 0.381,0.254 0.2286,0.0762 0.5334,0.0762 0.5334,0 0.8509,-0.1143 0.3302,-0.127 0.4572,-0.1778 l 0.2286,0.9779 q -0.1778,0.0889 -0.6223,0.2159 -0.4445,0.1397 -1.016,0.1397 -0.6731,0 -1.1176,-0.1651 -0.4318,-0.1778 -0.6985,-0.5207 -0.2667,-0.3429 -0.381,-0.8382 -0.1016,-0.508 -0.1016,-1.1684 v -5.8928 l 1.1811,-0.2032 z"
         inkscape:connector-curvature="0" />
      <path
         id="path889"
         style="font-style:normal;font-variant:normal;font-weight:normal;font-stretch:normal;font-size:12.69999981px;font-family:Ubuntu;-inkscape-font-specification:Ubuntu;stroke-width:0.26458299"
         d="m 85.487749,90.11492 q 0.4191,0 0.7366,-0.0127 0.3302,-0.0254 0.5461,-0.0762 v -1.9685 q -0.127,-0.0635 -0.4191,-0.1016 -0.2794,-0.0508 -0.6858,-0.0508 -0.2667,0 -0.5715,0.0381 -0.2921,0.0381 -0.5461,0.1651 -0.2413,0.1143 -0.4064,0.3302 -0.1651,0.2032 -0.1651,0.5461 0,0.635 0.4064,0.889 0.4064,0.2413 1.1049,0.2413 z m -0.1016,-5.9182 q 0.7112,0 1.1938,0.1905 0.4953,0.1778 0.7874,0.5207 0.3048,0.3302 0.4318,0.8001 0.127,0.4572 0.127,1.016 v 4.1275 q -0.1524,0.0254 -0.4318,0.0762 -0.2667,0.0381 -0.6096,0.0762 -0.3429,0.0381 -0.7493,0.0635 -0.3937,0.0381 -0.7874,0.0381 -0.5588,0 -1.0287,-0.1143 -0.4699,-0.1143 -0.8128,-0.3556 -0.3429,-0.254 -0.5334,-0.6604 -0.1905,-0.4064 -0.1905,-0.9779 0,-0.5461 0.2159,-0.9398 0.2286,-0.3937 0.6096,-0.635 0.381,-0.2413 0.889,-0.3556 0.508,-0.1143 1.0668,-0.1143 0.1778,0 0.3683,0.0254 0.1905,0.0127 0.3556,0.0508 0.1778,0.0254 0.3048,0.0508 0.127,0.0254 0.1778,0.0381 v -0.3302 q 0,-0.2921 -0.0635,-0.5715 -0.0635,-0.2921 -0.2286,-0.508 -0.1651,-0.2286 -0.4572,-0.3556 -0.2794,-0.1397 -0.7366,-0.1397 -0.5842,0 -1.0287,0.0889 -0.4318,0.0762 -0.6477,0.1651 l -0.1397,-0.9779 q 0.2286,-0.1016 0.762,-0.1905 0.5334,-0.1016 1.1557,-0.1016 z"
         inkscape:connector-curvature="0" />
      <path
         id="path891"
         style="font-style:normal;font-variant:normal;font-weight:normal;font-stretch:normal;font-size:12.69999981px;font-family:Ubuntu;-inkscape-font-specification:Ubuntu;stroke-width:0.26458299"
         d="m 92.745602,91.11822 q -0.8001,0 -1.4097,-0.254 -0.5969,-0.254 -1.016,-0.7112 -0.4064,-0.4572 -0.6096,-1.0795 -0.2032,-0.635 -0.2032,-1.397 0,-0.762 0.2159,-1.397 0.2286,-0.635 0.635,-1.0922 0.4064,-0.4699 0.9906,-0.7239 0.5969,-0.2667 1.3208,-0.2667 0.4445,0 0.889,0.0762 0.4445,0.0762 0.8509,0.2413 l -0.2667,1.0033 q -0.2667,-0.127 -0.6223,-0.2032 -0.3429,-0.0762 -0.7366,-0.0762 -0.9906,0 -1.524,0.6223 -0.5207,0.6223 -0.5207,1.8161 0,0.5334 0.1143,0.9779 0.127,0.4445 0.381,0.762 0.2667,0.3175 0.6731,0.4953 0.4064,0.1651 0.9906,0.1651 0.4699,0 0.8509,-0.0889 0.381,-0.0889 0.5969,-0.1905 l 0.1651,0.9906 q -0.1016,0.0635 -0.2921,0.127 -0.1905,0.0508 -0.4318,0.0889 -0.2413,0.0508 -0.5207,0.0762 -0.2667,0.0381 -0.5207,0.0381 z"
         inkscape:connector-curvature="0" />
      <path
         id="path893"
         style="font-style:normal;font-variant:normal;font-weight:normal;font-stretch:normal;font-size:12.69999981px;font-family:Ubuntu;-inkscape-font-specification:Ubuntu;stroke-width:0.26458299"
         d="m 98.166517,87.33362 q 0.381,0.2921 0.8001,0.7239 0.431799,0.4318 0.838199,0.9398 0.419104,0.4953 0.787404,1.016 0.3683,0.508 0.6223,0.9525 h -1.384304 q -0.2667,-0.4445 -0.6223,-0.9017 -0.342899,-0.4699 -0.723899,-0.889 -0.381,-0.4318 -0.7747,-0.7874 -0.3937,-0.3556 -0.7493,-0.5969 v 3.175 h -1.1811 v -9.652 l 1.1811,-0.2032 v 6.0198 q 0.3048,-0.3048 0.6731,-0.6731 0.3683,-0.3683 0.7239,-0.7493 0.3556,-0.381 0.6731,-0.7239 0.317499,-0.3556 0.546099,-0.6223 h 1.384304 q -0.2921,0.3175 -0.635,0.6985 -0.342904,0.381 -0.711204,0.7747 -0.3683,0.381 -0.749299,0.7747 -0.3683,0.381 -0.6985,0.7239 z"
         inkscape:connector-curvature="0" />
    </g>
    <g
       aria-label="Release"
       id="text887"
       style="font-style:normal;font-variant:normal;font-weight:normal;font-stretch:normal;font-size:12.69999981px;line-height:1.25;font-family:Ubuntu;-inkscape-font-specification:Ubuntu;fill:#000000;fill-opacity:1;stroke:none;stroke-width:0.26458299">
      <path
         d="m 137.78393,87.112181 q 0.2032,0.254 0.508,0.6731 0.3175,0.4064 0.6477,0.9144 0.3302,0.4953 0.6477,1.0414 0.3302,0.5461 0.5588,1.0541 h -1.3462 q -0.254,-0.4826 -0.5588,-0.9779 -0.2921,-0.4953 -0.5969,-0.9398 -0.3048,-0.4572 -0.6096,-0.8509 -0.2921,-0.3937 -0.5334,-0.6858 -0.1651,0.0127 -0.3429,0.0127 -0.1651,0 -0.3429,0 h -1.1049 v 3.4417 h -1.2319 v -8.6741 q 0.5207,-0.127 1.1557,-0.1651 0.6477,-0.0508 1.1811,-0.0508 1.8542,0 2.8194,0.6985 0.9779,0.6985 0.9779,2.0828 0,0.8763 -0.4699,1.4986 -0.4572,0.6223 -1.3589,0.9271 z m -1.8669,-4.1275 q -0.7874,0 -1.2065,0.0381 v 3.3147 h 0.8763 q 0.635,0 1.143,-0.0635 0.508,-0.0635 0.8509,-0.2413 0.3556,-0.1778 0.5461,-0.4953 0.1905,-0.3302 0.1905,-0.8636 0,-0.4953 -0.1905,-0.8255 -0.1905,-0.3302 -0.5207,-0.5207 -0.3175,-0.1905 -0.762,-0.2667 -0.4318,-0.0762 -0.9271,-0.0762 z"
         style="font-style:normal;font-variant:normal;font-weight:normal;font-stretch:normal;font-size:12.69999981px;font-family:Ubuntu;-inkscape-font-specification:Ubuntu;stroke-width:0.26458299"
         id="path913"
         inkscape:connector-curvature="0" />
      <path
         d="m 141.02124,87.505881 q 0,-0.8763 0.254,-1.524 0.254,-0.6604 0.6731,-1.0922 0.4191,-0.4318 0.9652,-0.6477 0.5461,-0.2159 1.1176,-0.2159 1.3335,0 2.0447,0.8382 0.7112,0.8255 0.7112,2.5273 0,0.0762 0,0.2032 0,0.1143 -0.0127,0.2159 h -4.5212 q 0.0762,1.0287 0.5969,1.5621 0.5207,0.5334 1.6256,0.5334 0.6223,0 1.0414,-0.1016 0.4318,-0.1143 0.6477,-0.2159 l 0.1651,0.9906 q -0.2159,0.1143 -0.762,0.2413 -0.5334,0.127 -1.2192,0.127 -0.8636,0 -1.4986,-0.254 -0.6223,-0.2667 -1.0287,-0.7239 -0.4064,-0.4572 -0.6096,-1.0795 -0.1905,-0.635 -0.1905,-1.3843 z m 4.5339,-0.6477 q 0.0127,-0.8001 -0.4064,-1.3081 -0.4064,-0.5207 -1.1303,-0.5207 -0.4064,0 -0.7239,0.1651 -0.3048,0.1524 -0.5207,0.4064 -0.2159,0.254 -0.3429,0.5842 -0.1143,0.3302 -0.1524,0.6731 z"
         style="font-style:normal;font-variant:normal;font-weight:normal;font-stretch:normal;font-size:12.69999981px;font-family:Ubuntu;-inkscape-font-specification:Ubuntu;stroke-width:0.26458299"
         id="path915"
         inkscape:connector-curvature="0" />
      <path
         d="m 150.46488,90.922181 q -1.0922,-0.0254 -1.5494,-0.4699 -0.4572,-0.4445 -0.4572,-1.3843 v -7.9248 l 1.1811,-0.2032 v 7.9375 q 0,0.2921 0.0508,0.4826 0.0508,0.1905 0.1651,0.3048 0.1143,0.1143 0.3048,0.1778 0.1905,0.0508 0.4699,0.0889 z"
         style="font-style:normal;font-variant:normal;font-weight:normal;font-stretch:normal;font-size:12.69999981px;font-family:Ubuntu;-inkscape-font-specification:Ubuntu;stroke-width:0.26458299"
         id="path917"
         inkscape:connector-curvature="0" />
      <path
         d="m 151.58803,87.505881 q 0,-0.8763 0.254,-1.524 0.254,-0.6604 0.6731,-1.0922 0.4191,-0.4318 0.9652,-0.6477 0.5461,-0.2159 1.1176,-0.2159 1.3335,0 2.0447,0.8382 0.7112,0.8255 0.7112,2.5273 0,0.0762 0,0.2032 0,0.1143 -0.0127,0.2159 h -4.5212 q 0.0762,1.0287 0.5969,1.5621 0.5207,0.5334 1.6256,0.5334 0.6223,0 1.0414,-0.1016 0.4318,-0.1143 0.6477,-0.2159 l 0.1651,0.9906 q -0.2159,0.1143 -0.762,0.2413 -0.5334,0.127 -1.2192,0.127 -0.8636,0 -1.4986,-0.254 -0.6223,-0.2667 -1.0287,-0.7239 -0.4064,-0.4572 -0.6096,-1.0795 -0.1905,-0.635 -0.1905,-1.3843 z m 4.5339,-0.6477 q 0.0127,-0.8001 -0.4064,-1.3081 -0.4064,-0.5207 -1.1303,-0.5207 -0.4064,0 -0.7239,0.1651 -0.3048,0.1524 -0.5207,0.4064 -0.2159,0.254 -0.3429,0.5842 -0.1143,0.3302 -0.1524,0.6731 z"
         style="font-style:normal;font-variant:normal;font-weight:normal;font-stretch:normal;font-size:12.69999981px;font-family:Ubuntu;-inkscape-font-specification:Ubuntu;stroke-width:0.26458299"
         id="path919"
         inkscape:connector-curvature="0" />
      <path
         d="m 161.28568,89.944281 q 0.4191,0 0.7366,-0.0127 0.3302,-0.0254 0.5461,-0.0762 v -1.9685 q -0.127,-0.0635 -0.4191,-0.1016 -0.2794,-0.0508 -0.6858,-0.0508 -0.2667,0 -0.5715,0.0381 -0.2921,0.0381 -0.5461,0.1651 -0.2413,0.1143 -0.4064,0.3302 -0.1651,0.2032 -0.1651,0.5461 0,0.635 0.4064,0.889 0.4064,0.2413 1.1049,0.2413 z m -0.1016,-5.9182 q 0.7112,0 1.1938,0.1905 0.4953,0.1778 0.7874,0.5207 0.3048,0.3302 0.4318,0.8001 0.127,0.4572 0.127,1.016 v 4.1275 q -0.1524,0.0254 -0.4318,0.0762 -0.2667,0.0381 -0.6096,0.0762 -0.3429,0.0381 -0.7493,0.0635 -0.3937,0.0381 -0.7874,0.0381 -0.5588,0 -1.0287,-0.1143 -0.4699,-0.1143 -0.8128,-0.3556 -0.3429,-0.254 -0.5334,-0.6604 -0.1905,-0.4064 -0.1905,-0.9779 0,-0.5461 0.2159,-0.9398 0.2286,-0.3937 0.6096,-0.635 0.381,-0.2413 0.889,-0.3556 0.508,-0.1143 1.0668,-0.1143 0.1778,0 0.3683,0.0254 0.1905,0.0127 0.3556,0.0508 0.1778,0.0254 0.3048,0.0508 0.127,0.0254 0.1778,0.0381 v -0.3302 q 0,-0.2921 -0.0635,-0.5715 -0.0635,-0.2921 -0.2286,-0.508 -0.1651,-0.2286 -0.4572,-0.3556 -0.2794,-0.1397 -0.7366,-0.1397 -0.5842,0 -1.0287,0.0889 -0.4318,0.0762 -0.6477,0.1651 l -0.1397,-0.9779 q 0.2286,-0.1016 0.762,-0.1905 0.5334,-0.1016 1.1557,-0.1016 z"
         style="font-style:normal;font-variant:normal;font-weight:normal;font-stretch:normal;font-size:12.69999981px;font-family:Ubuntu;-inkscape-font-specification:Ubuntu;stroke-width:0.26458299"
         id="path921"
         inkscape:connector-curvature="0" />
      <path
         d="m 167.21003,89.944281 q 0.7239,0 1.0668,-0.1905 0.3556,-0.1905 0.3556,-0.6096 0,-0.4318 -0.3429,-0.6858 -0.3429,-0.254 -1.1303,-0.5715 -0.381,-0.1524 -0.7366,-0.3048 -0.3429,-0.1651 -0.5969,-0.381 -0.254,-0.2159 -0.4064,-0.5207 -0.1524,-0.3048 -0.1524,-0.7493 0,-0.8763 0.6477,-1.3843 0.6477,-0.5207 1.7653,-0.5207 0.2794,0 0.5588,0.0381 0.2794,0.0254 0.5207,0.0762 0.2413,0.0381 0.4191,0.0889 0.1905,0.0508 0.2921,0.0889 l -0.2159,1.016 q -0.1905,-0.1016 -0.5969,-0.2032 -0.4064,-0.1143 -0.9779,-0.1143 -0.4953,0 -0.8636,0.2032 -0.3683,0.1905 -0.3683,0.6096 0,0.2159 0.0762,0.381 0.0889,0.1651 0.254,0.3048 0.1778,0.127 0.4318,0.2413 0.254,0.1143 0.6096,0.2413 0.4699,0.1778 0.8382,0.3556 0.3683,0.1651 0.6223,0.3937 0.2667,0.2286 0.4064,0.5588 0.1397,0.3175 0.1397,0.7874 0,0.9144 -0.6858,1.3843 -0.6731,0.4699 -1.9304,0.4699 -0.8763,0 -1.3716,-0.1524 -0.4953,-0.1397 -0.6731,-0.2159 l 0.2159,-1.016 q 0.2032,0.0762 0.6477,0.2286 0.4445,0.1524 1.1811,0.1524 z"
         style="font-style:normal;font-variant:normal;font-weight:normal;font-stretch:normal;font-size:12.69999981px;font-family:Ubuntu;-inkscape-font-specification:Ubuntu;stroke-width:0.26458299"
         id="path923"
         inkscape:connector-curvature="0" />
      <path
         d="m 170.96049,87.505881 q 0,-0.8763 0.254,-1.524 0.254,-0.6604 0.6731,-1.0922 0.4191,-0.4318 0.9652,-0.6477 0.5461,-0.2159 1.1176,-0.2159 1.3335,0 2.0447,0.8382 0.7112,0.8255 0.7112,2.5273 0,0.0762 0,0.2032 0,0.1143 -0.0127,0.2159 h -4.5212 q 0.0762,1.0287 0.5969,1.5621 0.5207,0.5334 1.6256,0.5334 0.6223,0 1.0414,-0.1016 0.4318,-0.1143 0.6477,-0.2159 l 0.1651,0.9906 q -0.2159,0.1143 -0.762,0.2413 -0.5334,0.127 -1.2192,0.127 -0.8636,0 -1.4986,-0.254 -0.6223,-0.2667 -1.0287,-0.7239 -0.4064,-0.4572 -0.6096,-1.0795 -0.1905,-0.635 -0.1905,-1.3843 z m 4.5339,-0.6477 q 0.0127,-0.8001 -0.4064,-1.3081 -0.4064,-0.5207 -1.1303,-0.5207 -0.4064,0 -0.7239,0.1651 -0.3048,0.1524 -0.5207,0.4064 -0.2159,0.254 -0.3429,0.5842 -0.1143,0.3302 -0.1524,0.6731 z"
         style="font-style:normal;font-variant:normal;font-weight:normal;font-stretch:normal;font-size:12.69999981px;font-family:Ubuntu;-inkscape-font-specification:Ubuntu;stroke-width:0.26458299"
         id="path926"
         inkscape:connector-curvature="0" />
    </g>
    <g
       style="font-style:normal;font-variant:normal;font-weight:normal;font-stretch:normal;font-size:12.69999981px;line-height:1.25;font-family:Ubuntu;-inkscape-font-specification:Ubuntu;fill:#000000;fill-opacity:1;stroke:none;stroke-width:0.26458299"
       id="text887-0"
       aria-label="A'">
      <path
         id="path896"
         style="font-style:normal;font-variant:normal;font-weight:normal;font-stretch:normal;font-size:12.69999981px;font-family:Ubuntu;-inkscape-font-specification:Ubuntu;stroke-width:0.26458299"
         d="m 100.18579,50.689266 q -0.215897,-0.5715 -0.406397,-1.1176 -0.1905,-0.5588 -0.3937,-1.1303 h -3.9878 l -0.8001,2.2479 h -1.2827 q 0.508,-1.397 0.9525,-2.5781 0.4445,-1.1938 0.8636,-2.2606 0.4318,-1.0668 0.8509,-2.032 0.4191,-0.9779 0.8763,-1.9304 h 1.1303 q 0.4572,0.9525 0.8763,1.9304 0.4191,0.9652 0.8382,2.032 0.431797,1.0668 0.876297,2.2606 0.4445,1.1811 0.9525,2.5781 z m -1.155697,-3.2639 q -0.4064,-1.1049 -0.8128,-2.1336 -0.3937,-1.0414 -0.8255,-1.9939 -0.4445,0.9525 -0.8509,1.9939 -0.3937,1.0287 -0.7874,2.1336 z"
         inkscape:connector-curvature="0" />
      <path
         id="path898"
         style="font-style:normal;font-variant:normal;font-weight:normal;font-stretch:normal;font-size:12.69999981px;font-family:Ubuntu;-inkscape-font-specification:Ubuntu;stroke-width:0.26458299"
         d="m 102.77639,41.037266 v 0.635 q 0,0.6223 -0.0762,1.3081 -0.0762,0.6731 -0.1905,1.3462 h -0.6985 q -0.1143,-0.6731 -0.1905,-1.3462 -0.0762,-0.6858 -0.0762,-1.3208 v -0.6223 z"
         inkscape:connector-curvature="0" />
    </g>
    <g
       aria-label="R'"
       id="text887-0-0"
       style="font-style:normal;font-variant:normal;font-weight:normal;font-stretch:normal;font-size:12.69999981px;line-height:1.25;font-family:Ubuntu;-inkscape-font-specification:Ubuntu;fill:#000000;fill-opacity:1;stroke:none;stroke-width:0.26458299">
      <path
         d="m 171.035,47.505511 q 0.2032,0.254 0.508,0.6731 0.3175,0.4064 0.6477,0.9144 0.3302,0.4953 0.6477,1.0414 0.3302,0.5461 0.5588,1.0541 h -1.3462 q -0.254,-0.4826 -0.5588,-0.9779 -0.2921,-0.4953 -0.5969,-0.9398 -0.3048,-0.4572 -0.6096,-0.8509 -0.2921,-0.3937 -0.5334,-0.6858 -0.1651,0.0127 -0.3429,0.0127 -0.1651,0 -0.3429,0 h -1.1049 v 3.4417 h -1.2319 v -8.6741 q 0.5207,-0.127 1.1557,-0.1651 0.6477,-0.0508 1.1811,-0.0508 1.8542,0 2.8194,0.6985 0.9779,0.6985 0.9779,2.0828 0,0.8763 -0.4699,1.4986 -0.4572,0.6223 -1.3589,0.9271 z m -1.8669,-4.1275 q -0.7874,0 -1.2065,0.0381 v 3.3147 h 0.8763 q 0.635,0 1.143,-0.0635 0.508,-0.0635 0.8509,-0.2413 0.3556,-0.1778 0.5461,-0.4953 0.1905,-0.3302 0.1905,-0.8636 0,-0.4953 -0.1905,-0.8255 -0.1905,-0.3302 -0.5207,-0.5207 -0.3175,-0.1905 -0.762,-0.2667 -0.4318,-0.0762 -0.9271,-0.0762 z"
         style="font-style:normal;font-variant:normal;font-weight:normal;font-stretch:normal;font-size:12.69999981px;font-family:Ubuntu;-inkscape-font-specification:Ubuntu;stroke-width:0.26458299"
         id="path929"
         inkscape:connector-curvature="0" />
      <path
         d="m 175.77091,41.536511 v 0.635 q 0,0.6223 -0.0762,1.3081 -0.0762,0.6731 -0.1905,1.3462 h -0.6985 q -0.1143,-0.6731 -0.1905,-1.3462 -0.0762,-0.6858 -0.0762,-1.3208 v -0.6223 z"
         style="font-style:normal;font-variant:normal;font-weight:normal;font-stretch:normal;font-size:12.69999981px;font-family:Ubuntu;-inkscape-font-specification:Ubuntu;stroke-width:0.26458299"
         id="path931"
         inkscape:connector-curvature="0" />
    </g>
    <path
       sodipodi:nodetypes="cc"
       id="path835-7"
       d="m 119.0625,19.84375 c 72.76042,-1e-6 72.76042,52.91667 72.76042,52.91667"
       style="fill:none;stroke:#5ece1c;stroke-width:0.56499898;stroke-linecap:butt;stroke-linejoin:miter;stroke-miterlimit:4;stroke-dasharray:1.695, 1.695;stroke-dashoffset:0;stroke-opacity:1"
       inkscape:connector-curvature="0" />
    <path
       sodipodi:nodetypes="cc"
       style="fill:none;stroke:#3b75ff;stroke-width:0.56499898;stroke-linecap:butt;stroke-linejoin:miter;stroke-miterlimit:4;stroke-dasharray:1.695, 1.695;stroke-dashoffset:0;stroke-opacity:1"
       d="m 46.302089,72.760419 c 0,0 72.760421,-3e-6 72.760411,-52.916669"
       id="path835-7-1"
       inkscape:connector-curvature="0" />
    <path
       sodipodi:nodetypes="cc"
       id="path835-8"
       d="M 46.302086,72.76042 119.0625,19.84375"
       style="fill:none;stroke:#3b75ff;stroke-width:0.56499898;stroke-linecap:butt;stroke-linejoin:miter;stroke-miterlimit:4;stroke-dasharray:1.695, 1.695;stroke-dashoffset:0;stroke-opacity:1"
       inkscape:connector-curvature="0" />
    <path
       id="path835-2-7"
       transform="matrix(0.26458333,0,0,0.26458333,-7.4120281,18.96125)"
       style="fill:none;stroke:#000000;stroke-width:6.67086601;stroke-linecap:butt;stroke-linejoin:miter;stroke-miterlimit:4;stroke-dasharray:none;stroke-opacity:1"
       d="m 778.01367,118.41797 c -24.9836,44.49686 -24.99984,87.41773 -24.99984,87.41773 0,0 -274.99986,-2.50026 -274.99986,-202.5002669 -274.99999,0 -275,200.0000169 -275,200.0000169 0,0 -26.24263,-0.009 -62.5,-5.90038"
       inkscape:connector-curvature="0"
       sodipodi:nodetypes="ccccc" />
  </g>
</svg>
