<?xml version="1.0" encoding="UTF-8" standalone="no"?>
<svg
   xmlns:dc="http://purl.org/dc/elements/1.1/"
   xmlns:cc="http://creativecommons.org/ns#"
   xmlns:rdf="http://www.w3.org/1999/02/22-rdf-syntax-ns#"
   xmlns:svg="http://www.w3.org/2000/svg"
   xmlns="http://www.w3.org/2000/svg"
   xmlns:sodipodi="http://sodipodi.sourceforge.net/DTD/sodipodi-0.dtd"
   xmlns:inkscape="http://www.inkscape.org/namespaces/inkscape"
   width="212.46411mm"
   height="94.369171mm"
   viewBox="0 0 212.46411 94.369171"
   version="1.1"
   id="svg1050"
   inkscape:version="1.0 (4035a4fb49, 2020-05-01)"
   sodipodi:docname="AARR.svg">
  <defs
     id="defs1044" />
  <sodipodi:namedview
     id="base"
     pagecolor="#ffffff"
     bordercolor="#666666"
     borderopacity="1.0"
     inkscape:pageopacity="0.0"
     inkscape:pageshadow="2"
     inkscape:zoom="1.4"
     inkscape:cx="480.83174"
     inkscape:cy="236.66863"
     inkscape:document-units="mm"
     inkscape:current-layer="layer1"
     inkscape:document-rotation="0"
     showgrid="true"
     inkscape:window-width="1920"
     inkscape:window-height="1017"
     inkscape:window-x="-8"
     inkscape:window-y="-8"
     inkscape:window-maximized="1">
    <inkscape:grid
       type="xygrid"
       id="grid1613"
       spacingx="0.66145834"
       spacingy="0.66145834"
       originx="7.412028"
       originy="-18.961251" />
  </sodipodi:namedview>
  <metadata
     id="metadata1047">
    <rdf:RDF>
      <cc:Work
         rdf:about="">
        <dc:format>image/svg+xml</dc:format>
        <dc:type
           rdf:resource="http://purl.org/dc/dcmitype/StillImage" />
        <dc:title />
      </cc:Work>
    </rdf:RDF>
  </metadata>
  <g
     inkscape:label="Layer 1"
     inkscape:groupmode="layer"
     id="layer1"
     transform="translate(7.4120281,-18.96125)">
    <path
       id="path927"
       d="M 119.0625,19.843751 V 72.76042"
       style="fill:none;stroke:#000000;stroke-width:0.565;stroke-linecap:butt;stroke-linejoin:miter;stroke-miterlimit:4;stroke-dasharray:1.695, 1.695;stroke-dashoffset:0;stroke-opacity:1" />
    <path
       sodipodi:nodetypes="cc"
       id="path835"
       d="m 119.0625,19.84375 72.76042,52.916669"
       style="fill:none;stroke:#5ece1c;stroke-width:0.565;stroke-linecap:butt;stroke-linejoin:miter;stroke-miterlimit:4;stroke-dasharray:1.695, 1.695;stroke-dashoffset:0;stroke-opacity:1" />
    <path
       sodipodi:nodetypes="ccc"
       id="path879"
       d="m 191.82292,72.760417 c 0,6.61458 -35.05729,4e-6 -36.38021,6.614584 -1.32292,-6.61458 -36.38021,-4e-6 -36.38021,-6.614584"
       style="fill:none;stroke:#ed2222;stroke-width:2.765;stroke-linecap:butt;stroke-linejoin:miter;stroke-miterlimit:4;stroke-dasharray:none;stroke-opacity:1" />
    <path
       sodipodi:nodetypes="ccc"
       id="path854"
       d="m 82.682292,26.458334 c 6.614583,-4e-6 0,18.52083 6.614584,19.84375 -6.614584,1.32291 0,19.84375 -6.614584,19.84375"
       style="fill:none;stroke:#3b75ff;stroke-width:2.765;stroke-linecap:butt;stroke-linejoin:miter;stroke-miterlimit:4;stroke-dasharray:none;stroke-opacity:1" />
    <path
       style="fill:none;stroke:#f5d400;stroke-width:2.765;stroke-linecap:butt;stroke-linejoin:miter;stroke-miterlimit:4;stroke-dasharray:none;stroke-opacity:1"
       d="m 46.302084,72.760418 c 0,6.614583 35.057292,0 36.380208,6.614583 1.322917,-6.614583 36.380208,0 36.380208,-6.614583"
       id="path854-3"
       sodipodi:nodetypes="ccc" />
    <path
       sodipodi:nodetypes="ccc"
       id="path873"
       d="m 155.44271,66.145834 c 6.61458,-2e-5 0,-18.52082 6.61458,-19.84375 -6.61458,-1.32292 0,-19.843746 -6.61458,-19.843746"
       style="fill:none;stroke:#5ece1c;stroke-width:2.765;stroke-linecap:butt;stroke-linejoin:miter;stroke-miterlimit:4;stroke-dasharray:none;stroke-opacity:1" />
    <text
       id="text883"
       y="90.96582"
       x="63.608231"
       style="font-style:normal;font-variant:normal;font-weight:normal;font-stretch:normal;font-size:12.7px;line-height:1.25;font-family:Ubuntu;-inkscape-font-specification:Ubuntu;fill:#000000;fill-opacity:1;stroke:none;stroke-width:0.264583"
       xml:space="preserve"><tspan
         style="font-style:normal;font-variant:normal;font-weight:normal;font-stretch:normal;font-size:12.7px;font-family:Ubuntu;-inkscape-font-specification:Ubuntu;stroke-width:0.264583"
         y="90.96582"
         x="63.608231"
         id="tspan881"
         sodipodi:role="line">Attack</tspan></text>
    <g
       style="font-style:normal;font-variant:normal;font-weight:normal;font-stretch:normal;font-size:12.7px;line-height:1.25;font-family:Ubuntu;-inkscape-font-specification:Ubuntu;fill:#000000;fill-opacity:1;stroke:none;stroke-width:0.264583"
       id="text887"
       aria-label="Release">
      <path
         id="path913"
         style="font-style:normal;font-variant:normal;font-weight:normal;font-stretch:normal;font-size:12.7px;font-family:Ubuntu;-inkscape-font-specification:Ubuntu;stroke-width:0.264583"
         d="m 137.78393,87.112181 q 0.2032,0.254 0.508,0.6731 0.3175,0.4064 0.6477,0.9144 0.3302,0.4953 0.6477,1.0414 0.3302,0.5461 0.5588,1.0541 h -1.3462 q -0.254,-0.4826 -0.5588,-0.9779 -0.2921,-0.4953 -0.5969,-0.9398 -0.3048,-0.4572 -0.6096,-0.8509 -0.2921,-0.3937 -0.5334,-0.6858 -0.1651,0.0127 -0.3429,0.0127 -0.1651,0 -0.3429,0 h -1.1049 v 3.4417 h -1.2319 v -8.6741 q 0.5207,-0.127 1.1557,-0.1651 0.6477,-0.0508 1.1811,-0.0508 1.8542,0 2.8194,0.6985 0.9779,0.6985 0.9779,2.0828 0,0.8763 -0.4699,1.4986 -0.4572,0.6223 -1.3589,0.9271 z m -1.8669,-4.1275 q -0.7874,0 -1.2065,0.0381 v 3.3147 h 0.8763 q 0.635,0 1.143,-0.0635 0.508,-0.0635 0.8509,-0.2413 0.3556,-0.1778 0.5461,-0.4953 0.1905,-0.3302 0.1905,-0.8636 0,-0.4953 -0.1905,-0.8255 -0.1905,-0.3302 -0.5207,-0.5207 -0.3175,-0.1905 -0.762,-0.2667 -0.4318,-0.0762 -0.9271,-0.0762 z" />
      <path
         id="path915"
         style="font-style:normal;font-variant:normal;font-weight:normal;font-stretch:normal;font-size:12.7px;font-family:Ubuntu;-inkscape-font-specification:Ubuntu;stroke-width:0.264583"
         d="m 141.02124,87.505881 q 0,-0.8763 0.254,-1.524 0.254,-0.6604 0.6731,-1.0922 0.4191,-0.4318 0.9652,-0.6477 0.5461,-0.2159 1.1176,-0.2159 1.3335,0 2.0447,0.8382 0.7112,0.8255 0.7112,2.5273 0,0.0762 0,0.2032 0,0.1143 -0.0127,0.2159 h -4.5212 q 0.0762,1.0287 0.5969,1.5621 0.5207,0.5334 1.6256,0.5334 0.6223,0 1.0414,-0.1016 0.4318,-0.1143 0.6477,-0.2159 l 0.1651,0.9906 q -0.2159,0.1143 -0.762,0.2413 -0.5334,0.127 -1.2192,0.127 -0.8636,0 -1.4986,-0.254 -0.6223,-0.2667 -1.0287,-0.7239 -0.4064,-0.4572 -0.6096,-1.0795 -0.1905,-0.635 -0.1905,-1.3843 z m 4.5339,-0.6477 q 0.0127,-0.8001 -0.4064,-1.3081 -0.4064,-0.5207 -1.1303,-0.5207 -0.4064,0 -0.7239,0.1651 -0.3048,0.1524 -0.5207,0.4064 -0.2159,0.254 -0.3429,0.5842 -0.1143,0.3302 -0.1524,0.6731 z" />
      <path
         id="path917"
         style="font-style:normal;font-variant:normal;font-weight:normal;font-stretch:normal;font-size:12.7px;font-family:Ubuntu;-inkscape-font-specification:Ubuntu;stroke-width:0.264583"
         d="m 150.46488,90.922181 q -1.0922,-0.0254 -1.5494,-0.4699 -0.4572,-0.4445 -0.4572,-1.3843 v -7.9248 l 1.1811,-0.2032 v 7.9375 q 0,0.2921 0.0508,0.4826 0.0508,0.1905 0.1651,0.3048 0.1143,0.1143 0.3048,0.1778 0.1905,0.0508 0.4699,0.0889 z" />
      <path
         id="path919"
         style="font-style:normal;font-variant:normal;font-weight:normal;font-stretch:normal;font-size:12.7px;font-family:Ubuntu;-inkscape-font-specification:Ubuntu;stroke-width:0.264583"
         d="m 151.58803,87.505881 q 0,-0.8763 0.254,-1.524 0.254,-0.6604 0.6731,-1.0922 0.4191,-0.4318 0.9652,-0.6477 0.5461,-0.2159 1.1176,-0.2159 1.3335,0 2.0447,0.8382 0.7112,0.8255 0.7112,2.5273 0,0.0762 0,0.2032 0,0.1143 -0.0127,0.2159 h -4.5212 q 0.0762,1.0287 0.5969,1.5621 0.5207,0.5334 1.6256,0.5334 0.6223,0 1.0414,-0.1016 0.4318,-0.1143 0.6477,-0.2159 l 0.1651,0.9906 q -0.2159,0.1143 -0.762,0.2413 -0.5334,0.127 -1.2192,0.127 -0.8636,0 -1.4986,-0.254 -0.6223,-0.2667 -1.0287,-0.7239 -0.4064,-0.4572 -0.6096,-1.0795 -0.1905,-0.635 -0.1905,-1.3843 z m 4.5339,-0.6477 q 0.0127,-0.8001 -0.4064,-1.3081 -0.4064,-0.5207 -1.1303,-0.5207 -0.4064,0 -0.7239,0.1651 -0.3048,0.1524 -0.5207,0.4064 -0.2159,0.254 -0.3429,0.5842 -0.1143,0.3302 -0.1524,0.6731 z" />
      <path
         id="path921"
         style="font-style:normal;font-variant:normal;font-weight:normal;font-stretch:normal;font-size:12.7px;font-family:Ubuntu;-inkscape-font-specification:Ubuntu;stroke-width:0.264583"
         d="m 161.28568,89.944281 q 0.4191,0 0.7366,-0.0127 0.3302,-0.0254 0.5461,-0.0762 v -1.9685 q -0.127,-0.0635 -0.4191,-0.1016 -0.2794,-0.0508 -0.6858,-0.0508 -0.2667,0 -0.5715,0.0381 -0.2921,0.0381 -0.5461,0.1651 -0.2413,0.1143 -0.4064,0.3302 -0.1651,0.2032 -0.1651,0.5461 0,0.635 0.4064,0.889 0.4064,0.2413 1.1049,0.2413 z m -0.1016,-5.9182 q 0.7112,0 1.1938,0.1905 0.4953,0.1778 0.7874,0.5207 0.3048,0.3302 0.4318,0.8001 0.127,0.4572 0.127,1.016 v 4.1275 q -0.1524,0.0254 -0.4318,0.0762 -0.2667,0.0381 -0.6096,0.0762 -0.3429,0.0381 -0.7493,0.0635 -0.3937,0.0381 -0.7874,0.0381 -0.5588,0 -1.0287,-0.1143 -0.4699,-0.1143 -0.8128,-0.3556 -0.3429,-0.254 -0.5334,-0.6604 -0.1905,-0.4064 -0.1905,-0.9779 0,-0.5461 0.2159,-0.9398 0.2286,-0.3937 0.6096,-0.635 0.381,-0.2413 0.889,-0.3556 0.508,-0.1143 1.0668,-0.1143 0.1778,0 0.3683,0.0254 0.1905,0.0127 0.3556,0.0508 0.1778,0.0254 0.3048,0.0508 0.127,0.0254 0.1778,0.0381 v -0.3302 q 0,-0.2921 -0.0635,-0.5715 -0.0635,-0.2921 -0.2286,-0.508 -0.1651,-0.2286 -0.4572,-0.3556 -0.2794,-0.1397 -0.7366,-0.1397 -0.5842,0 -1.0287,0.0889 -0.4318,0.0762 -0.6477,0.1651 l -0.1397,-0.9779 q 0.2286,-0.1016 0.762,-0.1905 0.5334,-0.1016 1.1557,-0.1016 z" />
      <path
         id="path923"
         style="font-style:normal;font-variant:normal;font-weight:normal;font-stretch:normal;font-size:12.7px;font-family:Ubuntu;-inkscape-font-specification:Ubuntu;stroke-width:0.264583"
         d="m 167.21003,89.944281 q 0.7239,0 1.0668,-0.1905 0.3556,-0.1905 0.3556,-0.6096 0,-0.4318 -0.3429,-0.6858 -0.3429,-0.254 -1.1303,-0.5715 -0.381,-0.1524 -0.7366,-0.3048 -0.3429,-0.1651 -0.5969,-0.381 -0.254,-0.2159 -0.4064,-0.5207 -0.1524,-0.3048 -0.1524,-0.7493 0,-0.8763 0.6477,-1.3843 0.6477,-0.5207 1.7653,-0.5207 0.2794,0 0.5588,0.0381 0.2794,0.0254 0.5207,0.0762 0.2413,0.0381 0.4191,0.0889 0.1905,0.0508 0.2921,0.0889 l -0.2159,1.016 q -0.1905,-0.1016 -0.5969,-0.2032 -0.4064,-0.1143 -0.9779,-0.1143 -0.4953,0 -0.8636,0.2032 -0.3683,0.1905 -0.3683,0.6096 0,0.2159 0.0762,0.381 0.0889,0.1651 0.254,0.3048 0.1778,0.127 0.4318,0.2413 0.254,0.1143 0.6096,0.2413 0.4699,0.1778 0.8382,0.3556 0.3683,0.1651 0.6223,0.3937 0.2667,0.2286 0.4064,0.5588 0.1397,0.3175 0.1397,0.7874 0,0.9144 -0.6858,1.3843 -0.6731,0.4699 -1.9304,0.4699 -0.8763,0 -1.3716,-0.1524 -0.4953,-0.1397 -0.6731,-0.2159 l 0.2159,-1.016 q 0.2032,0.0762 0.6477,0.2286 0.4445,0.1524 1.1811,0.1524 z" />
      <path
         id="path926"
         style="font-style:normal;font-variant:normal;font-weight:normal;font-stretch:normal;font-size:12.7px;font-family:Ubuntu;-inkscape-font-specification:Ubuntu;stroke-width:0.264583"
         d="m 170.96049,87.505881 q 0,-0.8763 0.254,-1.524 0.254,-0.6604 0.6731,-1.0922 0.4191,-0.4318 0.9652,-0.6477 0.5461,-0.2159 1.1176,-0.2159 1.3335,0 2.0447,0.8382 0.7112,0.8255 0.7112,2.5273 0,0.0762 0,0.2032 0,0.1143 -0.0127,0.2159 h -4.5212 q 0.0762,1.0287 0.5969,1.5621 0.5207,0.5334 1.6256,0.5334 0.6223,0 1.0414,-0.1016 0.4318,-0.1143 0.6477,-0.2159 l 0.1651,0.9906 q -0.2159,0.1143 -0.762,0.2413 -0.5334,0.127 -1.2192,0.127 -0.8636,0 -1.4986,-0.254 -0.6223,-0.2667 -1.0287,-0.7239 -0.4064,-0.4572 -0.6096,-1.0795 -0.1905,-0.635 -0.1905,-1.3843 z m 4.5339,-0.6477 q 0.0127,-0.8001 -0.4064,-1.3081 -0.4064,-0.5207 -1.1303,-0.5207 -0.4064,0 -0.7239,0.1651 -0.3048,0.1524 -0.5207,0.4064 -0.2159,0.254 -0.3429,0.5842 -0.1143,0.3302 -0.1524,0.6731 z" />
    </g>
    <text
       xml:space="preserve"
       style="font-style:normal;font-variant:normal;font-weight:normal;font-stretch:normal;font-size:12.7px;line-height:1.25;font-family:Ubuntu;-inkscape-font-specification:Ubuntu;fill:#000000;fill-opacity:1;stroke:none;stroke-width:0.264583"
       x="93.213493"
       y="50.689266"
       id="text887-0"><tspan
         sodipodi:role="line"
         id="tspan885-8"
         x="93.213493"
         y="50.689266"
         style="font-style:normal;font-variant:normal;font-weight:normal;font-stretch:normal;font-size:12.7px;font-family:Ubuntu;-inkscape-font-specification:Ubuntu;stroke-width:0.264583">A'</tspan></text>
    <g
       style="font-style:normal;font-variant:normal;font-weight:normal;font-stretch:normal;font-size:12.7px;line-height:1.25;font-family:Ubuntu;-inkscape-font-specification:Ubuntu;fill:#000000;fill-opacity:1;stroke:none;stroke-width:0.264583"
       id="text887-0-0"
       aria-label="R'">
      <path
         id="path929"
         style="font-style:normal;font-variant:normal;font-weight:normal;font-stretch:normal;font-size:12.7px;font-family:Ubuntu;-inkscape-font-specification:Ubuntu;stroke-width:0.264583"
         d="m 171.035,47.505511 q 0.2032,0.254 0.508,0.6731 0.3175,0.4064 0.6477,0.9144 0.3302,0.4953 0.6477,1.0414 0.3302,0.5461 0.5588,1.0541 h -1.3462 q -0.254,-0.4826 -0.5588,-0.9779 -0.2921,-0.4953 -0.5969,-0.9398 -0.3048,-0.4572 -0.6096,-0.8509 -0.2921,-0.3937 -0.5334,-0.6858 -0.1651,0.0127 -0.3429,0.0127 -0.1651,0 -0.3429,0 h -1.1049 v 3.4417 h -1.2319 v -8.6741 q 0.5207,-0.127 1.1557,-0.1651 0.6477,-0.0508 1.1811,-0.0508 1.8542,0 2.8194,0.6985 0.9779,0.6985 0.9779,2.0828 0,0.8763 -0.4699,1.4986 -0.4572,0.6223 -1.3589,0.9271 z m -1.8669,-4.1275 q -0.7874,0 -1.2065,0.0381 v 3.3147 h 0.8763 q 0.635,0 1.143,-0.0635 0.508,-0.0635 0.8509,-0.2413 0.3556,-0.1778 0.5461,-0.4953 0.1905,-0.3302 0.1905,-0.8636 0,-0.4953 -0.1905,-0.8255 -0.1905,-0.3302 -0.5207,-0.5207 -0.3175,-0.1905 -0.762,-0.2667 -0.4318,-0.0762 -0.9271,-0.0762 z" />
      <path
         id="path931"
         style="font-style:normal;font-variant:normal;font-weight:normal;font-stretch:normal;font-size:12.7px;font-family:Ubuntu;-inkscape-font-specification:Ubuntu;stroke-width:0.264583"
         d="m 175.77091,41.536511 v 0.635 q 0,0.6223 -0.0762,1.3081 -0.0762,0.6731 -0.1905,1.3462 h -0.6985 q -0.1143,-0.6731 -0.1905,-1.3462 -0.0762,-0.6858 -0.0762,-1.3208 v -0.6223 z" />
    </g>
    <path
       id="path925"
       d="M 33.072915,112.44792 H 46.302081 V 99.218752 l 72.760419,-10e-7 v 13.229169 h 85.98959"
       style="fill:none;stroke:#ed2222;stroke-width:1.765;stroke-linecap:butt;stroke-linejoin:miter;stroke-miterlimit:4;stroke-dasharray:none;stroke-opacity:1"
       sodipodi:nodetypes="cccccc" />
    <text
       xml:space="preserve"
       style="font-style:normal;font-variant:normal;font-weight:normal;font-stretch:normal;font-size:12.7px;line-height:1.25;font-family:Ubuntu;-inkscape-font-specification:Ubuntu;fill:#000000;fill-opacity:1;stroke:none;stroke-width:0.264583"
       x="-0.29452994"
       y="112.32608"
       id="text883-7"><tspan
         sodipodi:role="line"
         id="tspan881-4"
         x="-0.29452994"
         y="112.32608"
         style="font-style:normal;font-variant:normal;font-weight:normal;font-stretch:normal;font-size:12.7px;font-family:Ubuntu;-inkscape-font-specification:Ubuntu;stroke-width:0.264583">Gate</tspan></text>
    <text
       id="text883-7-6"
       y="72.54129"
       x="-7.8311281"
       style="font-style:normal;font-variant:normal;font-weight:normal;font-stretch:normal;font-size:12.7px;line-height:1.25;font-family:Ubuntu;-inkscape-font-specification:Ubuntu;fill:#000000;fill-opacity:1;stroke:none;stroke-width:0.264583"
       xml:space="preserve"><tspan
         style="font-style:normal;font-variant:normal;font-weight:normal;font-stretch:normal;font-size:12.7px;font-family:Ubuntu;-inkscape-font-specification:Ubuntu;stroke-width:0.264583"
         y="72.54129"
         x="-7.8311281"
         id="tspan881-4-2"
         sodipodi:role="line">Signal</tspan></text>
    <path
       style="fill:none;stroke:#5ece1c;stroke-width:0.564999;stroke-linecap:butt;stroke-linejoin:miter;stroke-miterlimit:4;stroke-dasharray:1.695, 1.695;stroke-dashoffset:0;stroke-opacity:1"
       d="m 119.0625,19.84375 c 72.76042,-1e-6 72.76042,52.91667 72.76042,52.91667"
       id="path835-7"
       sodipodi:nodetypes="cc" />
    <path
       id="path835-7-1"
       d="m 46.302089,72.760419 c 0,0 72.760421,-3e-6 72.760411,-52.916669"
       style="fill:none;stroke:#3b75ff;stroke-width:0.564999;stroke-linecap:butt;stroke-linejoin:miter;stroke-miterlimit:4;stroke-dasharray:1.695, 1.695;stroke-dashoffset:0;stroke-opacity:1"
       sodipodi:nodetypes="cc" />
    <path
       style="fill:none;stroke:#3b75ff;stroke-width:0.564999;stroke-linecap:butt;stroke-linejoin:miter;stroke-miterlimit:4;stroke-dasharray:1.695, 1.695;stroke-dashoffset:0;stroke-opacity:1"
       d="M 46.302086,72.76042 119.0625,19.84375"
       id="path835-8"
       sodipodi:nodetypes="cc" />
    <path
       style="fill:none;stroke:#000000;stroke-width:1.765;stroke-linecap:butt;stroke-linejoin:miter;stroke-miterlimit:4;stroke-dasharray:none;stroke-opacity:1"
       d="m 33.072917,72.760418 h 13.229166 c 0,0 3e-6,-52.916668 72.760417,-52.916668 0,52.916668 72.76043,52.916668 72.76043,52.916668 l 13.22916,-10e-7"
       id="path835-2"
       sodipodi:nodetypes="ccccc" />
  </g>
</svg>
