<?xml version="1.0" encoding="UTF-8"?>
<svg id="svg282" width="20mm" height="128.5mm" version="1.1" viewBox="0 0 20 128.5" xmlns="http://www.w3.org/2000/svg">
  <defs id="defs140">
    <linearGradient id="id1" x1=".70711" x2="0" y2=".70711">
      <stop id="stop3" stop-color="#666" offset="0"/>
      <stop id="stop5" stop-color="#191919" offset="1"/>
    </linearGradient>
    <radialGradient id="id2">
      <stop id="stop8" offset=".65385"/>
      <stop id="stop10" stop-opacity="0" offset=".88462"/>
    </radialGradient>
    <linearGradient id="id3" x1=".70711" x2="0" y2=".70711">
      <stop id="stop13" stop-color="#666" offset="0"/>
      <stop id="stop15" stop-color="#686868" offset=".04"/>
      <stop id="stop17" stop-color="#212121" offset="1"/>
    </linearGradient>
    <linearGradient id="id4" x1=".70711" x2="0" y2=".70711">
      <stop id="stop20" stop-color="#777" offset="0"/>
      <stop id="stop22" stop-color="#555" offset="1"/>
    </linearGradient>
    <linearGradient id="id5" x1=".70711" x2="0" y2=".70711">
      <stop id="stop25" stop-color="#e25f62" offset="0"/>
      <stop id="stop27" stop-color="#d23e3e" offset="1"/>
    </linearGradient>
    <linearGradient id="id10" x1=".70711" x2="0" y2=".70711">
      <stop id="stop52" stop-color="#ffa591" offset="0"/>
      <stop id="stop54" stop-color="#e55d44" offset="1"/>
    </linearGradient>
    <linearGradient id="id15" x1=".70711" x2="0" y2=".70711">
      <stop id="stop79" stop-color="#fefe69" offset="0"/>
      <stop id="stop81" stop-color="#fef139" offset="1"/>
    </linearGradient>
    <linearGradient id="id16" x1="1" x2="0" y2="1">
      <stop id="stop84" stop-color="#fff" offset="-1"/>
      <stop id="stop86" offset="2"/>
    </linearGradient>
    <radialGradient id="id17">
      <stop id="stop89" offset=".74603"/>
      <stop id="stop91" stop-color="#fff" offset=".87302"/>
      <stop id="stop93" stop-color="#444" offset="1"/>
    </radialGradient>
    <linearGradient id="id18" x1="1" x2="0" y2="1">
      <stop id="stop96" offset="0"/>
      <stop id="stop98" stop-color="#333" offset="1"/>
    </linearGradient>
    <radialGradient id="id25">
      <stop id="stop135" stop-color="#fff" offset="0"/>
      <stop id="stop137" stop-color="red" offset="1"/>
    </radialGradient>
  </defs>
  <rect id="background" width="20" height="128.5" fill="#fff"/>
  <g id="stencil" font-family="Ubuntu" font-size="3">
    <path id="path1102" d="m8.091 8.4038q0 0.414-0.1288 0.7222-0.1288 0.3036-0.3634 0.506-0.2346 0.1978-0.5612 0.299-0.3266 0.0966-0.7176 0.0966-0.1932 0-0.4278-0.0184-0.23-0.0138-0.4186-0.0598v-3.0912q0.1886-0.046 0.4186-0.0598 0.2346-0.0184 0.4278-0.0184 0.391 0 0.7176 0.1012 0.3266 0.0966 0.5612 0.299 0.2346 0.1978 0.3634 0.506 0.1288 0.3036 0.1288 0.7176zm-1.7342 1.2328q0.6348 0 0.9476-0.322 0.3128-0.3266 0.3128-0.9108t-0.3128-0.9062q-0.3128-0.3266-0.9476-0.3266-0.1886 0-0.2944 0.0046-0.1012 0.0046-0.1426 0.0092v2.438q0.0414 0.0046 0.1426 0.0092 0.1058 0.0046 0.2944 0.0046z"/>
    <path id="path1104" d="m9.609 7.5574q0.0552 0 0.1242 0.0092 0.0736 0.0046 0.1426 0.0184 0.069 0.0092 0.1242 0.023 0.0598 0.0092 0.0874 0.0184l-0.0736 0.3726q-0.0506-0.0184-0.1702-0.0414-0.115-0.0276-0.299-0.0276-0.1196 0-0.2392 0.0276-0.115 0.023-0.1518 0.0322v2.0102h-0.4278v-2.2908q0.1518-0.0552 0.3772-0.1012 0.2254-0.0506 0.506-0.0506z"/>
    <path id="path1106" d="m10.929 10h-0.4278v-2.392h0.4278zm-0.2162-2.8244q-0.115 0-0.1978-0.0736-0.0782-0.0782-0.0782-0.207t0.0782-0.2024q0.0828-0.0782 0.1978-0.0782t0.1932 0.0782q0.0828 0.0736 0.0828 0.2024t-0.0828 0.207q-0.0782 0.0736-0.1932 0.0736z"/>
    <path id="path1108" d="m12.599 6.4304q0.1886 0 0.322 0.0276 0.138 0.0276 0.1932 0.0506l-0.0782 0.368q-0.0552-0.0276-0.1564-0.0506-0.1012-0.0276-0.2484-0.0276-0.299 0-0.4186 0.1656-0.1196 0.161-0.1196 0.437v0.207h0.92v0.3588h-0.92v2.0332h-0.4278v-2.6082q0-0.46 0.2254-0.7084 0.2254-0.253 0.7084-0.253z"/>
    <path id="path1110" d="m13.841 7.608h0.9062v0.3588h-0.9062v1.104q0 0.1794 0.0276 0.299 0.0276 0.115 0.0828 0.184 0.0552 0.0644 0.138 0.092t0.1932 0.0276q0.1932 0 0.3082-0.0414 0.1196-0.046 0.1656-0.0644l0.0828 0.3542q-0.0644 0.0322-0.2254 0.0782-0.161 0.0506-0.368 0.0506-0.2438 0-0.4048-0.0598-0.1564-0.0644-0.253-0.1886t-0.138-0.3036q-0.0368-0.184-0.0368-0.4232v-2.1344l0.4278-0.0736z"/>
    <path id="path146" transform="translate(2.5 116.5) scale(.15)" d="m23.274 0c-12.804 0-23.274 10.47-23.274 23.274 0 12.804 10.47 23.274 23.274 23.274 6.2817 0 11.38-2.5486 15.731-6.2455 1.5387-1.3073 3.0762-2.7877 4.6583-4.3876l-0.0086-5.8693-5.9894 0.0026c-1.4839 1.5057-2.8467 2.8283-4.0804 3.8765-3.5126 2.9845-6.0494 4.2541-10.311 4.2541-8.2813 0-14.905-6.6235-14.905-14.905 0-8.2813 6.6235-14.905 14.905-14.905 4.2612 0 6.7981 1.2697 10.311 4.2541 1.2337 1.0482 2.5965 2.3707 4.0804 3.8765l5.9894 0.0026 0.0086-5.8693c-1.5821-1.5999-3.1196-3.0803-4.6583-4.3876-4.351-3.6969-9.4489-6.2455-15.731-6.2455zm53.451 0c-6.2815 1.0197e-4 -11.379 2.5487-15.73 6.2455-1.6075 1.3659-3.2135 2.9188-4.8712 4.602h12.572c2.4765-1.7176 4.7403-2.4782 8.0292-2.4783h3.82e-4c6.2002 0 11.47 3.7129 13.728 9.0545l-6.0416-0.07531-8.5851-3.0797-28.741 3.81e-4v5.6456h-22.686v6.7186h22.686v5.6456l28.741 3.82e-4 8.5851-3.0797 6.0416-0.07531c-2.2576 5.3415-7.5279 9.0545-13.728 9.0545h-3.82e-4c-3.2889-5.9e-5 -5.5527-0.76071-8.0292-2.4783h-12.572c1.6577 1.6832 3.2637 3.2361 4.8712 4.602 4.3509 3.6968 9.4487 6.2454 15.73 6.2455h3.82e-4c12.804 0 23.274-10.47 23.274-23.274-8e-6 -12.804-10.47-23.274-23.274-23.274zm-59.712 19.295-2.8907 3.9786 2.8907 3.9786 4.6773-1.5197v-4.9178z"/>
    <g id="g150" transform="translate(7.46,28.24)">
      <path id="path1113" d="m-0.96099 3.673q0.456 0 0.456-0.312 0-0.096-0.042-0.162-0.039-0.069-0.108-0.117-0.069-0.051-0.159-0.087-0.087-0.036-0.186-0.072-0.114-0.039-0.216-0.087-0.102-0.051-0.177-0.117-0.075-0.069-0.12-0.162-0.042-0.093-0.042-0.225 0-0.273 0.186-0.426t0.513-0.153q0.189 0 0.342 0.042 0.156 0.039 0.228 0.087l-0.093 0.237q-0.063-0.039-0.189-0.075-0.123-0.039-0.288-0.039-0.084 0-0.156 0.018-0.072 0.018-0.126 0.054t-0.087 0.093q-0.03 0.054-0.03 0.129 0 0.084 0.033 0.141t0.093 0.102q0.06 0.042 0.138 0.078 0.081 0.036 0.177 0.072 0.135 0.054 0.246 0.108 0.114 0.054 0.195 0.129 0.084 0.075 0.129 0.18 0.045 0.102 0.045 0.249 0 0.273-0.201 0.42-0.198 0.147-0.561 0.147-0.123 0-0.228-0.018-0.102-0.015-0.183-0.036-0.081-0.024-0.141-0.048-0.057-0.027-0.09-0.045l0.087-0.24q0.069 0.039 0.21 0.087t0.345 0.048z"/>
      <path id="path1115" d="m1.217 3.103q0-0.273-0.135-0.42-0.135-0.147-0.36-0.147-0.126 0-0.198 9e-3 -0.069 9e-3 -0.111 0.021v0.984q0.051 0.042 0.147 0.081t0.21 0.039q0.12 0 0.204-0.042 0.087-0.045 0.141-0.12 0.054-0.078 0.078-0.18 0.024-0.105 0.024-0.225zm0.291 0q0 0.177-0.048 0.327-0.045 0.15-0.135 0.258t-0.222 0.168q-0.129 0.06-0.297 0.06-0.135 0-0.24-0.036-0.102-0.036-0.153-0.069v0.624h-0.279v-2.067q0.099-0.024 0.246-0.051 0.15-0.03 0.345-0.03 0.18 0 0.324 0.057 0.144 0.057 0.246 0.162t0.156 0.258q0.057 0.15 0.057 0.339z"/>
      <path id="path1117" d="m1.814 3.103q0-0.207 0.06-0.36 0.06-0.156 0.159-0.258t0.228-0.153 0.264-0.051q0.315 0 0.483 0.198 0.168 0.195 0.168 0.597 0 0.018 0 0.048 0 0.027-3e-3 0.051h-1.068q0.018 0.243 0.141 0.369t0.384 0.126q0.147 0 0.246-0.024 0.102-0.027 0.153-0.051l0.039 0.234q-0.051 0.027-0.18 0.057-0.126 0.03-0.288 0.03-0.204 0-0.354-0.06-0.147-0.063-0.243-0.171t-0.144-0.255q-0.045-0.15-0.045-0.327zm1.071-0.153q3e-3 -0.189-0.096-0.309-0.096-0.123-0.267-0.123-0.096 0-0.171 0.039-0.072 0.036-0.123 0.096t-0.081 0.138q-0.027 0.078-0.036 0.159z"/>
      <path id="path1119" d="m3.491 3.103q0-0.207 0.06-0.36 0.06-0.156 0.159-0.258t0.228-0.153 0.264-0.051q0.315 0 0.483 0.198 0.168 0.195 0.168 0.597 0 0.018 0 0.048 0 0.027-3e-3 0.051h-1.068q0.018 0.243 0.141 0.369t0.384 0.126q0.147 0 0.246-0.024 0.102-0.027 0.153-0.051l0.039 0.234q-0.051 0.027-0.18 0.057-0.126 0.03-0.288 0.03-0.204 0-0.354-0.06-0.147-0.063-0.243-0.171t-0.144-0.255q-0.045-0.15-0.045-0.327zm1.071-0.153q3e-3 -0.189-0.096-0.309-0.096-0.123-0.267-0.123-0.096 0-0.171 0.039-0.072 0.036-0.123 0.096t-0.081 0.138q-0.027 0.078-0.036 0.159z"/>
      <path id="path1121" d="m6.263 2.65q-0.051-0.042-0.147-0.081t-0.21-0.039q-0.12 0-0.207 0.045-0.084 0.042-0.138 0.12-0.054 0.075-0.078 0.18t-0.024 0.225q0 0.273 0.135 0.423 0.135 0.147 0.36 0.147 0.114 0 0.189-9e-3 0.078-0.012 0.12-0.024zm0-1.05 0.279-0.048v2.283q-0.096 0.027-0.246 0.054t-0.345 0.027q-0.18 0-0.324-0.057t-0.246-0.162-0.159-0.255q-0.054-0.153-0.054-0.342 0-0.18 0.045-0.33 0.048-0.15 0.138-0.258t0.219-0.168q0.132-0.06 0.3-0.06 0.135 0 0.237 0.036 0.105 0.036 0.156 0.069z"/>
    </g>
    <g id="g154" transform="translate(7.46,51.1)">
      <path id="path1124" d="m-1.0645 1.801v0.252h-0.654v1.827h-0.291v-1.827h-0.654v-0.252z"/>
      <path id="path1126" d="m-1.0285 3.103q0-0.207 0.06-0.36 0.06-0.156 0.159-0.258t0.228-0.153 0.264-0.051q0.315 0 0.483 0.198 0.168 0.195 0.168 0.597 0 0.018 0 0.048 0 0.027-3e-3 0.051h-1.068q0.018 0.243 0.141 0.369t0.384 0.126q0.147 0 0.246-0.024 0.102-0.027 0.153-0.051l0.039 0.234q-0.051 0.027-0.18 0.057-0.126 0.03-0.288 0.03-0.204 0-0.354-0.06-0.147-0.063-0.243-0.171t-0.144-0.255q-0.045-0.15-0.045-0.327zm1.071-0.153q3e-3 -0.189-0.096-0.309-0.096-0.123-0.267-0.123-0.096 0-0.171 0.039-0.072 0.036-0.123 0.096t-0.081 0.138q-0.027 0.078-0.036 0.159z"/>
      <path id="path1128" d="m1.6685 3.88q-0.033-0.066-0.081-0.147t-0.105-0.165q-0.057-0.087-0.117-0.171t-0.117-0.159q-0.057 0.075-0.117 0.162-0.06 0.084-0.117 0.171-0.054 0.084-0.102 0.165-0.048 0.081-0.081 0.144h-0.288q0.105-0.204 0.249-0.414 0.147-0.213 0.291-0.405l-0.516-0.741h0.315l0.372 0.546 0.375-0.546h0.297l-0.504 0.723q0.144 0.195 0.294 0.414 0.153 0.216 0.258 0.423z"/>
      <path id="path1130" d="m2.5295 2.32h0.591v0.234h-0.591v0.72q0 0.117 0.018 0.195 0.018 0.075 0.054 0.12 0.036 0.042 0.09 0.06t0.126 0.018q0.126 0 0.201-0.027 0.078-0.03 0.108-0.042l0.054 0.231q-0.042 0.021-0.147 0.051-0.105 0.033-0.24 0.033-0.159 0-0.264-0.039-0.102-0.042-0.165-0.123t-0.09-0.198q-0.024-0.12-0.024-0.276v-1.392l0.279-0.048z"/>
      <path id="path1132" d="m4.7165 3.835q-0.096 0.024-0.255 0.051-0.156 0.027-0.363 0.027-0.18 0-0.303-0.051-0.123-0.054-0.198-0.15t-0.108-0.225q-0.033-0.132-0.033-0.291v-0.876h0.279v0.816q0 0.285 0.09 0.408t0.303 0.123q0.045 0 0.093-3e-3t0.09-6e-3q0.042-6e-3 0.075-9e-3 0.036-6e-3 0.051-0.012v-1.317h0.279z"/>
      <path id="path1134" d="m5.7725 2.287q0.036 0 0.081 6e-3 0.048 3e-3 0.093 0.012 0.045 6e-3 0.081 0.015 0.039 6e-3 0.057 0.012l-0.048 0.243q-0.033-0.012-0.111-0.027-0.075-0.018-0.195-0.018-0.078 0-0.156 0.018-0.075 0.015-0.099 0.021v1.311h-0.279v-1.494q0.099-0.036 0.246-0.066 0.147-0.033 0.33-0.033z"/>
      <path id="path1136" d="m6.2675 3.103q0-0.207 0.06-0.36 0.06-0.156 0.159-0.258t0.228-0.153 0.264-0.051q0.315 0 0.483 0.198 0.168 0.195 0.168 0.597 0 0.018 0 0.048 0 0.027-3e-3 0.051h-1.068q0.018 0.243 0.141 0.369t0.384 0.126q0.147 0 0.246-0.024 0.102-0.027 0.153-0.051l0.039 0.234q-0.051 0.027-0.18 0.057-0.126 0.03-0.288 0.03-0.204 0-0.354-0.06-0.147-0.063-0.243-0.171t-0.144-0.255q-0.045-0.15-0.045-0.327zm1.071-0.153q3e-3 -0.189-0.096-0.309-0.096-0.123-0.267-0.123-0.096 0-0.171 0.039-0.072 0.036-0.123 0.096t-0.081 0.138q-0.027 0.078-0.036 0.159z"/>
    </g>
    <g id="g158" transform="translate(7.46,73.96)">
      <path id="path1139" d="m0.30201 3.88q-0.051-0.135-0.096-0.264-0.045-0.132-0.093-0.267h-0.942l-0.189 0.531h-0.303q0.12-0.33 0.225-0.609 0.105-0.282 0.204-0.534 0.102-0.252 0.201-0.48 0.099-0.231 0.207-0.456h0.267q0.108 0.225 0.207 0.456 0.099 0.228 0.198 0.48 0.102 0.252 0.207 0.534 0.105 0.279 0.225 0.609zm-0.273-0.771q-0.096-0.261-0.192-0.504-0.093-0.246-0.195-0.471-0.105 0.225-0.201 0.471-0.093 0.243-0.186 0.504z"/>
      <path id="path1141" d="m1.145 2.32h0.591v0.234h-0.591v0.72q0 0.117 0.018 0.195 0.018 0.075 0.054 0.12 0.036 0.042 0.09 0.06t0.126 0.018q0.126 0 0.201-0.027 0.078-0.03 0.108-0.042l0.054 0.231q-0.042 0.021-0.147 0.051-0.105 0.033-0.24 0.033-0.159 0-0.264-0.039-0.102-0.042-0.165-0.123-0.063-0.081-0.09-0.198-0.024-0.12-0.024-0.276v-1.392l0.279-0.048z"/>
      <path id="path1143" d="m2.351 2.32h0.591v0.234h-0.591v0.72q0 0.117 0.018 0.195 0.018 0.075 0.054 0.12 0.036 0.042 0.09 0.06t0.126 0.018q0.126 0 0.201-0.027 0.078-0.03 0.108-0.042l0.054 0.231q-0.042 0.021-0.147 0.051-0.105 0.033-0.24 0.033-0.159 0-0.264-0.039-0.102-0.042-0.165-0.123t-0.09-0.198q-0.024-0.12-0.024-0.276v-1.392l0.279-0.048z"/>
      <path id="path1145" d="m3.179 3.103q0-0.207 0.06-0.36 0.06-0.156 0.159-0.258t0.228-0.153 0.264-0.051q0.315 0 0.483 0.198 0.168 0.195 0.168 0.597 0 0.018 0 0.048 0 0.027-3e-3 0.051h-1.068q0.018 0.243 0.141 0.369t0.384 0.126q0.147 0 0.246-0.024 0.102-0.027 0.153-0.051l0.039 0.234q-0.051 0.027-0.18 0.057-0.126 0.03-0.288 0.03-0.204 0-0.354-0.06-0.147-0.063-0.243-0.171t-0.144-0.255q-0.045-0.15-0.045-0.327zm1.071-0.153q3e-3 -0.189-0.096-0.309-0.096-0.123-0.267-0.123-0.096 0-0.171 0.039-0.072 0.036-0.123 0.096t-0.081 0.138q-0.027 0.078-0.036 0.159z"/>
      <path id="path1147" d="m4.943 2.365q0.096-0.024 0.255-0.051t0.366-0.027q0.186 0 0.309 0.054 0.123 0.051 0.195 0.147 0.075 0.093 0.105 0.225t0.03 0.291v0.876h-0.279v-0.816q0-0.144-0.021-0.246-0.018-0.102-0.063-0.165t-0.12-0.09q-0.075-0.03-0.186-0.03-0.045 0-0.093 3e-3t-0.093 9e-3q-0.042 3e-3 -0.078 9e-3 -0.033 6e-3 -0.048 9e-3v1.317h-0.279z"/>
    </g>
    <g id="g168" transform="translate(15.08,104.44)">
      <path id="path_vktsyyiqeb" transform="matrix(.26458 0 0 .26458 -15.08 -104.44)" d="m45.09 377.16a5.6693 5.6693 0 0 0-5.6699 5.6699v45.355a5.6693 5.6693 0 0 0 5.6699 5.668h23.811a5.6693 5.6693 0 0 0 5.6699-5.668v-45.355a5.6693 5.6693 0 0 0-5.6699-5.6699zm11.906 4.3477a13.229 13.229 0 0 1 0 26.457 13.229 13.229 0 0 1 0-26.457zm-5.5117 35.426c0.50646 0 0.9837 0.0859 1.4297 0.25977 0.45354 0.17385 0.8493 0.43548 1.1895 0.7832 0.34016 0.34016 0.60815 0.76723 0.80469 1.2812 0.2041 0.51402 0.30664 1.1065 0.30664 1.7793 0 0.67275-0.10255 1.2672-0.30664 1.7812-0.19654 0.51401-0.46453 0.9433-0.80469 1.291-0.34016 0.34016-0.73591 0.59763-1.1895 0.77149-0.44598 0.17385-0.92323 0.26171-1.4297 0.26171-0.51402 1e-5 -1.0018-0.0879-1.4629-0.26171-0.45354-0.17386-0.85346-0.43133-1.2012-0.77149-0.34016-0.34771-0.61231-0.777-0.81641-1.291-0.19654-0.51402-0.29492-1.1085-0.29492-1.7812 0-0.67276 0.09839-1.2653 0.29492-1.7793 0.2041-0.51402 0.47625-0.94109 0.81641-1.2812 0.34772-0.34772 0.74763-0.60935 1.2012-0.7832 0.4611-0.17386 0.94888-0.25977 1.4629-0.25977zm12.791 0.31641v1.8262h2.2324v0.88476h-2.2324v2.7207c0 0.2948 0.02105 0.53979 0.06641 0.73633 0.04535 0.18897 0.11437 0.34169 0.20508 0.45507 0.09071 0.10583 0.20378 0.18121 0.33984 0.22657 0.13606 0.0453 0.29514 0.0684 0.47656 0.0684 0.31748 0 0.57079-0.0355 0.75977-0.10352 0.19654-0.0756 0.33261-0.12797 0.4082-0.1582l0.20312 0.87304c-0.10583 0.0529-0.29012 0.11777-0.55469 0.19336-0.26457 0.0831-0.56805 0.125-0.9082 0.125-0.40063 0-0.73153-0.0502-0.99609-0.14843-0.25701-0.10583-0.46626-0.26075-0.625-0.46485-0.15874-0.20409-0.27181-0.45324-0.33984-0.74804-0.06047-0.30237-0.08984-0.6499-0.08984-1.043v-5.2617zm-12.812 0.64648c-0.40063 0-0.7648 0.0754-1.0898 0.22656-0.31748 0.14363-0.58964 0.35288-0.81641 0.625-0.21921 0.27213-0.38882 0.60303-0.50977 0.9961-0.12094 0.38551-0.18164 0.81675-0.18164 1.293s0.0607 0.91161 0.18164 1.3047c0.12094 0.38552 0.29055 0.71421 0.50977 0.98633 0.22677 0.27213 0.49893 0.48359 0.81641 0.63477 0.32504 0.14362 0.68921 0.21484 1.0898 0.21484s0.75869-0.0712 1.0762-0.21484c0.31748-0.15118 0.58548-0.36264 0.80469-0.63477 0.22677-0.27212 0.40054-0.60081 0.52148-0.98633 0.12094-0.39307 0.18164-0.82846 0.18164-1.3047s-0.0607-0.90746-0.18164-1.293c-0.12094-0.39307-0.29471-0.72397-0.52148-0.9961-0.21921-0.27212-0.48721-0.48137-0.80469-0.625-0.31748-0.15118-0.67554-0.22656-1.0762-0.22656zm5.248 1.1797h1.0547v3.084c0 0.71811 0.11502 1.2311 0.3418 1.541s0.60784 0.4668 1.1445 0.4668c0.11339 0 0.23062-4e-3 0.35156-0.0117 0.12094-8e-3 0.23402-0.0159 0.33984-0.0234 0.10583-0.0151 0.20005-0.0256 0.2832-0.0332 0.09071-0.0151 0.15556-0.0318 0.19336-0.0469v-4.9766h1.0547v5.7266c-0.24189 0.0605-0.56421 0.12338-0.96484 0.19141-0.39307 0.068-0.84952 0.10351-1.3711 0.10351-0.45354 0-0.83656-0.0649-1.1465-0.19336-0.30992-0.13606-0.55907-0.32451-0.74805-0.5664-0.18898-0.24189-0.32505-0.52653-0.4082-0.85156-0.08315-0.3326-0.125-0.69898-0.125-1.0996z" style=""/>
    </g>
    <path id="path172" d="m10 43.48c15 15 5.08 5.72 5.08 45.72" fill="none" stroke="#000" stroke-width=".6"/>
    <path id="path174" d="m10 20.62c-15 15-5.08 28.58-5.08 68.58" fill="none" stroke="#000" stroke-width=".6"/>
  </g>
  <g id="throughholes">
    <circle id="circle178" cx="7.46" cy="3" r="1.7"/>
    <circle id="circle180" cx="7.46" cy="125.5" r="1.7"/>
    <circle id="circle182" cx="10" cy="20.62" r="3.65"/>
    <circle id="circle186" cx="10" cy="43.48" r="3.65"/>
    <circle id="circle190" cx="10" cy="66.34" r="3.65"/>
    <circle id="circle194" cx="4.92" cy="89.2" r="3.15"/>
    <circle id="circle198" cx="15.08" cy="89.2" r="3.15"/>
    <circle id="circle202" cx="15.08" cy="104.44" r="3.15"/>
  </g>
  <g id="cosmetics">
    <g id="cosmetics_offset" transform="translate(10 13)">
      <g id="g220" transform="translate(-2.54 15.24)">
        <circle id="circle208" cx="2.54" cy="-7.62" r="7.15" fill="url(#id1) none"/>
        <circle id="circle210" cx="2.54" cy="-7.62" r="7.15" fill="url(#id2) none"/>
        <path id="path212" d="m-0.69282-12.07a5.5 5.5 0 0 1 3.8077-1.0203l0.46279 0.32345 0.63684 0.17064 0.56252-0.048716a5.5 5.5 0 0 1 2.7874 2.7874l-0.048716 0.56252 0.17064 0.63684 0.32345 0.46279a5.5 5.5 0 0 1-1.0203 3.8077l-0.51151 0.23907-0.4662 0.4662-0.23907 0.51151a5.5 5.5 0 0 1-3.8077 1.0203l-0.46279-0.32345-0.63684-0.17064-0.56252 0.048716a5.5 5.5 0 0 1-2.7874-2.7874l0.048716-0.56252-0.17064-0.63684-0.32345-0.46279a5.5 5.5 0 0 1 1.0203-3.8077l0.51151-0.23907 0.4662-0.4662z" fill="url(#id3) none"/>
        <path id="path214" d="m-0.25198-11.463a4.75 4.75 0 0 1 3.2885-0.88115l0.39295 0.31276 0.54586 0.14626 0.49668-0.074383a4.75 4.75 0 0 1 2.4073 2.4073l-0.074383 0.49668 0.14626 0.54586 0.31276 0.39295a4.75 4.75 0 0 1-0.88115 3.2885l-0.46733 0.18392-0.3996 0.3996-0.18392 0.46733a4.75 4.75 0 0 1-3.2885 0.88115l-0.39295-0.31276-0.54586-0.14626-0.49668 0.074383a4.75 4.75 0 0 1-2.4073-2.4073l0.074383-0.49668-0.14626-0.54586-0.31276-0.39295a4.75 4.75 0 0 1 0.88115-3.2885l0.46733-0.18392 0.3996-0.3996z" fill="url(#id4) none"/>
        <circle id="circle216" cx="2.54" cy="-7.62" r="4" fill="url(#id5) none"/>
        <line id="line218" x1="2.54" x2="-.28843" y1="-7.62" y2="-10.448" stroke="#fff" stroke-width=".8"/>
      </g>
      <g id="g234" transform="translate(-2.54 38.1)">
        <circle id="circle222" cx="2.54" cy="-7.62" r="7.15" fill="url(#id1) none"/>
        <circle id="circle224" cx="2.54" cy="-7.62" r="7.15" fill="url(#id2) none"/>
        <path id="path226" d="m-0.69282-12.07a5.5 5.5 0 0 1 3.8077-1.0203l0.46279 0.32345 0.63684 0.17064 0.56252-0.048716a5.5 5.5 0 0 1 2.7874 2.7874l-0.048716 0.56252 0.17064 0.63684 0.32345 0.46279a5.5 5.5 0 0 1-1.0203 3.8077l-0.51151 0.23907-0.4662 0.4662-0.23907 0.51151a5.5 5.5 0 0 1-3.8077 1.0203l-0.46279-0.32345-0.63684-0.17064-0.56252 0.048716a5.5 5.5 0 0 1-2.7874-2.7874l0.048716-0.56252-0.17064-0.63684-0.32345-0.46279a5.5 5.5 0 0 1 1.0203-3.8077l0.51151-0.23907 0.4662-0.4662z" fill="url(#id3) none"/>
        <path id="path228" d="m-0.25198-11.463a4.75 4.75 0 0 1 3.2885-0.88115l0.39295 0.31276 0.54586 0.14626 0.49668-0.074383a4.75 4.75 0 0 1 2.4073 2.4073l-0.074383 0.49668 0.14626 0.54586 0.31276 0.39295a4.75 4.75 0 0 1-0.88115 3.2885l-0.46733 0.18392-0.3996 0.3996-0.18392 0.46733a4.75 4.75 0 0 1-3.2885 0.88115l-0.39295-0.31276-0.54586-0.14626-0.49668 0.074383a4.75 4.75 0 0 1-2.4073-2.4073l0.074383-0.49668-0.14626-0.54586-0.31276-0.39295a4.75 4.75 0 0 1 0.88115-3.2885l0.46733-0.18392 0.3996-0.3996z" fill="url(#id4) none"/>
        <circle id="circle230" cx="2.54" cy="-7.62" r="4" fill="url(#id10) none"/>
        <line id="line232" x1="2.54" x2="-.28843" y1="-7.62" y2="-10.448" stroke="#fff" stroke-width=".8"/>
      </g>
      <g id="g248" transform="translate(-2.54 60.96)">
        <circle id="circle236" cx="2.54" cy="-7.62" r="7.15" fill="url(#id1) none"/>
        <circle id="circle238" cx="2.54" cy="-7.62" r="7.15" fill="url(#id2) none"/>
        <path id="path240" d="m-0.69282-12.07a5.5 5.5 0 0 1 3.8077-1.0203l0.46279 0.32345 0.63684 0.17064 0.56252-0.048716a5.5 5.5 0 0 1 2.7874 2.7874l-0.048716 0.56252 0.17064 0.63684 0.32345 0.46279a5.5 5.5 0 0 1-1.0203 3.8077l-0.51151 0.23907-0.4662 0.4662-0.23907 0.51151a5.5 5.5 0 0 1-3.8077 1.0203l-0.46279-0.32345-0.63684-0.17064-0.56252 0.048716a5.5 5.5 0 0 1-2.7874-2.7874l0.048716-0.56252-0.17064-0.63684-0.32345-0.46279a5.5 5.5 0 0 1 1.0203-3.8077l0.51151-0.23907 0.4662-0.4662z" fill="url(#id3) none"/>
        <path id="path242" d="m-0.25198-11.463a4.75 4.75 0 0 1 3.2885-0.88115l0.39295 0.31276 0.54586 0.14626 0.49668-0.074383a4.75 4.75 0 0 1 2.4073 2.4073l-0.074383 0.49668 0.14626 0.54586 0.31276 0.39295a4.75 4.75 0 0 1-0.88115 3.2885l-0.46733 0.18392-0.3996 0.3996-0.18392 0.46733a4.75 4.75 0 0 1-3.2885 0.88115l-0.39295-0.31276-0.54586-0.14626-0.49668 0.074383a4.75 4.75 0 0 1-2.4073-2.4073l0.074383-0.49668-0.14626-0.54586-0.31276-0.39295a4.75 4.75 0 0 1 0.88115-3.2885l0.46733-0.18392 0.3996-0.3996z" fill="url(#id4) none"/>
        <circle id="circle244" cx="2.54" cy="-7.62" r="4" fill="url(#id15) none"/>
        <line id="line246" x1="2.54" x2="-.28843" y1="-7.62" y2="-10.448" stroke="#000" stroke-width=".8"/>
      </g>
      <g id="g256" transform="translate(-5.08 76.2)">
        <path id="path250" d="m3.55 0-0.013509 0.3094 0.15654 0.34178-0.070807 0.31939-0.28631 0.2436-0.11852 0.28612 0.030203 0.37471-0.17578 0.27591-0.35236 0.13098-0.20923 0.22833-0.099776 0.36244-0.25954 0.19915-0.37591 0.00257-0.27471 0.143-0.21772 0.30645-0.312 0.098375-0.35412-0.12615-0.30705 0.040424-0.3094 0.21351-0.32683-0.01427-0.28962-0.23966-0.30236-0.067031-0.36377 0.094811-0.30224-0.12519-0.19018-0.32426-0.2612-0.1664-0.37426-0.035323-0.2412-0.22102-0.067807-0.36975-0.18853-0.2457-0.33961-0.1612-0.15106-0.29018 0.062745-0.37065-0.093128-0.29536-0.26399-0.26763-0.042701-0.32435 0.18573-0.32683 0.013509-0.3094-0.15654-0.34178 0.070807-0.31939 0.28631-0.2436 0.11852-0.28612-0.030203-0.37471 0.17578-0.27591 0.35236-0.13098 0.20923-0.22833 0.099776-0.36244 0.25954-0.19915 0.37591-0.00257 0.27471-0.143 0.21772-0.30645 0.312-0.098375 0.35412 0.12615 0.30705-0.040424 0.3094-0.21351 0.32683 0.01427 0.28962 0.23966 0.30236 0.067031 0.36377-0.094811 0.30224 0.12519 0.19018 0.32426 0.2612 0.1664 0.37426 0.035323 0.2412 0.22102 0.067807 0.36975 0.18853 0.2457 0.33961 0.1612 0.15106 0.29018-0.062745 0.37065 0.093128 0.29536 0.26399 0.26763 0.042701 0.32435z" fill="url(#id16) none"/>
        <circle id="circle252" r="3.15" fill="url(#id17) none"/>
        <circle id="circle254" r="2.35" fill="url(#id18) none"/>
      </g>
      <g id="g264" transform="translate(5.08 76.2)">
        <path id="path258" d="m3.55 0-0.013509 0.3094 0.15654 0.34178-0.070807 0.31939-0.28631 0.2436-0.11852 0.28612 0.030203 0.37471-0.17578 0.27591-0.35236 0.13098-0.20923 0.22833-0.099776 0.36244-0.25954 0.19915-0.37591 0.00257-0.27471 0.143-0.21772 0.30645-0.312 0.098375-0.35412-0.12615-0.30705 0.040424-0.3094 0.21351-0.32683-0.01427-0.28962-0.23966-0.30236-0.067031-0.36377 0.094811-0.30224-0.12519-0.19018-0.32426-0.2612-0.1664-0.37426-0.035323-0.2412-0.22102-0.067807-0.36975-0.18853-0.2457-0.33961-0.1612-0.15106-0.29018 0.062745-0.37065-0.093128-0.29536-0.26399-0.26763-0.042701-0.32435 0.18573-0.32683 0.013509-0.3094-0.15654-0.34178 0.070807-0.31939 0.28631-0.2436 0.11852-0.28612-0.030203-0.37471 0.17578-0.27591 0.35236-0.13098 0.20923-0.22833 0.099776-0.36244 0.25954-0.19915 0.37591-0.00257 0.27471-0.143 0.21772-0.30645 0.312-0.098375 0.35412 0.12615 0.30705-0.040424 0.3094-0.21351 0.32683 0.01427 0.28962 0.23966 0.30236 0.067031 0.36377-0.094811 0.30224 0.12519 0.19018 0.32426 0.2612 0.1664 0.37426 0.035323 0.2412 0.22102 0.067807 0.36975 0.18853 0.2457 0.33961 0.1612 0.15106 0.29018-0.062745 0.37065 0.093128 0.29536 0.26399 0.26763 0.042701 0.32435z" fill="url(#id16) none"/>
        <circle id="circle260" r="3.15" fill="url(#id17) none"/>
        <circle id="circle262" r="2.35" fill="url(#id18) none"/>
      </g>
      <g id="g272" transform="translate(5.08 91.44)">
        <path id="path266" d="m3.55 0-0.013509 0.3094 0.15654 0.34178-0.070807 0.31939-0.28631 0.2436-0.11852 0.28612 0.030203 0.37471-0.17578 0.27591-0.35236 0.13098-0.20923 0.22833-0.099776 0.36244-0.25954 0.19915-0.37591 0.00257-0.27471 0.143-0.21772 0.30645-0.312 0.098375-0.35412-0.12615-0.30705 0.040424-0.3094 0.21351-0.32683-0.01427-0.28962-0.23966-0.30236-0.067031-0.36377 0.094811-0.30224-0.12519-0.19018-0.32426-0.2612-0.1664-0.37426-0.035323-0.2412-0.22102-0.067807-0.36975-0.18853-0.2457-0.33961-0.1612-0.15106-0.29018 0.062745-0.37065-0.093128-0.29536-0.26399-0.26763-0.042701-0.32435 0.18573-0.32683 0.013509-0.3094-0.15654-0.34178 0.070807-0.31939 0.28631-0.2436 0.11852-0.28612-0.030203-0.37471 0.17578-0.27591 0.35236-0.13098 0.20923-0.22833 0.099776-0.36244 0.25954-0.19915 0.37591-0.00257 0.27471-0.143 0.21772-0.30645 0.312-0.098375 0.35412 0.12615 0.30705-0.040424 0.3094-0.21351 0.32683 0.01427 0.28962 0.23966 0.30236 0.067031 0.36377-0.094811 0.30224 0.12519 0.19018 0.32426 0.2612 0.1664 0.37426 0.035323 0.2412 0.22102 0.067807 0.36975 0.18853 0.2457 0.33961 0.1612 0.15106 0.29018-0.062745 0.37065 0.093128 0.29536 0.26399 0.26763 0.042701 0.32435z" fill="url(#id16) none"/>
        <circle id="circle268" r="3.15" fill="url(#id17) none"/>
        <circle id="circle270" r="2.35" fill="url(#id18) none"/>
      </g>
      <g id="g278" transform="translate(-5.08 90.17)">
        <circle id="circle274" cy="1.27" r="2.5" fill="url(#id25) none"/>
        <ellipse id="ellipse276" transform="rotate(20 .83333 .02)" cx=".83333" cy=".02" rx="1.25" ry=".83333" fill="#fff" opacity=".8"/>
      </g>
    </g>
  </g>
</svg>
