<?xml version="1.0" encoding="UTF-8"?>
<svg id="svg413" width="20mm" height="128.5mm" version="1.1" viewBox="0 0 20 128.5" xmlns="http://www.w3.org/2000/svg">
  <defs id="defs207">
    <linearGradient id="id1" x1="1" x2="0" y2="1">
      <stop id="stop3" stop-color="#fff" offset="-1"/>
      <stop id="stop5" offset="2"/>
    </linearGradient>
    <radialGradient id="id2">
      <stop id="stop8" offset=".74603"/>
      <stop id="stop10" stop-color="#fff" offset=".87302"/>
      <stop id="stop12" stop-color="#444" offset="1"/>
    </radialGradient>
    <linearGradient id="id3" x1="1" x2="0" y2="1">
      <stop id="stop15" offset="0"/>
      <stop id="stop17" stop-color="#333" offset="1"/>
    </linearGradient>
  </defs>
  <rect id="background" width="20" height="128.5" fill="#fff"/>
  <g id="stencil" font-family="Ubuntu" font-size="3">
    <path id="path1240" d="m8.115 10q-0.085-0.225-0.16-0.44-0.075-0.22-0.155-0.445h-1.57l-0.315 0.885h-0.505q0.2-0.55 0.375-1.015 0.175-0.47 0.34-0.89 0.17-0.42 0.335-0.8 0.165-0.385 0.345-0.76h0.445q0.18 0.375 0.345 0.76 0.165 0.38 0.33 0.8 0.17 0.42 0.345 0.89 0.175 0.465 0.375 1.015zm-0.455-1.285q-0.16-0.435-0.32-0.84-0.155-0.41-0.325-0.785-0.175 0.375-0.335 0.785-0.155 0.405-0.31 0.84z"/>
    <path id="path1242" d="m11.2 9.58v0.42h-2.085v-3.465h0.485v3.045z"/>
    <path id="path1244" d="m12.91 10.075q-0.34 0-0.59-0.105t-0.41-0.285q-0.16-0.185-0.24-0.435-0.075-0.25-0.075-0.54v-2.175h0.485v2.12q0 0.52 0.23 0.755t0.6 0.235q0.185 0 0.335-0.055 0.155-0.06 0.265-0.18t0.17-0.305q0.06-0.19 0.06-0.45v-2.12h0.485v2.175q0 0.29-0.08 0.54-0.075 0.25-0.24 0.435-0.16 0.18-0.41 0.285-0.245 0.105-0.585 0.105z"/>
    <path id="path213" transform="translate(2.5 116.5) scale(.15)" d="m23.274 0c-12.804 0-23.274 10.47-23.274 23.274 0 12.804 10.47 23.274 23.274 23.274 6.2817 0 11.38-2.5486 15.731-6.2455 1.5387-1.3073 3.0762-2.7877 4.6583-4.3876l-0.0086-5.8693-5.9894 0.0026c-1.4839 1.5057-2.8467 2.8283-4.0804 3.8765-3.5126 2.9845-6.0494 4.2541-10.311 4.2541-8.2813 0-14.905-6.6235-14.905-14.905 0-8.2813 6.6235-14.905 14.905-14.905 4.2612 0 6.7981 1.2697 10.311 4.2541 1.2337 1.0482 2.5965 2.3707 4.0804 3.8765l5.9894 0.0026 0.0086-5.8693c-1.5821-1.5999-3.1196-3.0803-4.6583-4.3876-4.351-3.6969-9.4489-6.2455-15.731-6.2455zm53.451 0c-6.2815 1.0197e-4 -11.379 2.5487-15.73 6.2455-1.6075 1.3659-3.2135 2.9188-4.8712 4.602h12.572c2.4765-1.7176 4.7403-2.4782 8.0292-2.4783h3.82e-4c6.2002 0 11.47 3.7129 13.728 9.0545l-6.0416-0.07531-8.5851-3.0797-28.741 3.81e-4v5.6456h-22.686v6.7186h22.686v5.6456l28.741 3.82e-4 8.5851-3.0797 6.0416-0.07531c-2.2576 5.3415-7.5279 9.0545-13.728 9.0545h-3.82e-4c-3.2889-5.9e-5 -5.5527-0.76071-8.0292-2.4783h-12.572c1.6577 1.6832 3.2637 3.2361 4.8712 4.602 4.3509 3.6968 9.4487 6.2454 15.73 6.2455h3.82e-4c12.804 0 23.274-10.47 23.274-23.274-8e-6 -12.804-10.47-23.274-23.274-23.274zm-59.712 19.295-2.8907 3.9786 2.8907 3.9786 4.6773-1.5197v-4.9178z"/>
    <g id="g216" transform="translate(4.92,19.62)">
      <path id="path1247" d="m0.6525 8q-0.051-0.135-0.096-0.264-0.045-0.132-0.093-0.267h-0.942l-0.189 0.531h-0.303q0.12-0.33 0.225-0.609 0.105-0.282 0.204-0.534 0.102-0.252 0.201-0.48 0.099-0.231 0.207-0.456h0.267q0.108 0.225 0.207 0.456 0.099 0.228 0.198 0.48 0.102 0.252 0.207 0.534 0.105 0.279 0.225 0.609zm-0.273-0.771q-0.096-0.261-0.192-0.504-0.093-0.246-0.195-0.471-0.105 0.225-0.201 0.471-0.093 0.243-0.186 0.504z"/>
    </g>
    <g id="g219" transform="translate(15.08,19.62)">
      <path id="path1250" d="m-0.1455 8.018q-0.063 0-0.138-3e-3 -0.072-3e-3 -0.147-9e-3 -0.072-6e-3 -0.144-0.015t-0.132-0.024v-2.016q0.06-0.015 0.132-0.024t0.144-0.015q0.075-6e-3 0.147-9e-3t0.135-3e-3q0.18 0 0.336 0.027 0.159 0.027 0.273 0.093 0.117 0.063 0.183 0.168t0.066 0.258q0 0.171-0.081 0.282-0.081 0.108-0.216 0.162 0.183 0.054 0.291 0.171t0.108 0.33q0 0.312-0.231 0.471-0.228 0.156-0.726 0.156zm-0.273-0.987v0.732q0.033 3e-3 0.078 6e-3 0.039 3e-3 0.09 6e-3 0.054 0 0.123 0 0.129 0 0.243-0.015 0.117-0.018 0.204-0.06t0.138-0.117q0.054-0.075 0.054-0.189 0-0.102-0.039-0.171-0.039-0.072-0.114-0.114-0.072-0.042-0.174-0.06t-0.228-0.018zm0-0.234h0.306q0.108 0 0.204-0.015t0.165-0.054q0.072-0.039 0.111-0.102 0.042-0.063 0.042-0.159 0-0.09-0.042-0.15-0.042-0.063-0.117-0.099-0.072-0.039-0.171-0.057t-0.21-0.018-0.174 3e-3 -0.114 9e-3z"/>
    </g>
    <g id="g223" transform="translate(4.92,36.13)">
      <path id="path_cannkgwrwx" transform="matrix(.26458 0 0 .26458 -4.92 -36.13)" d="m6.6895 118.98a5.6693 5.6693 0 0 0-5.6699 5.668v45.355a5.6693 5.6693 0 0 0 5.6699 5.668h23.811a5.6693 5.6693 0 0 0 5.6699-5.668v-45.355a5.6693 5.6693 0 0 0-5.6699-5.668zm11.906 4.3457a13.229 13.229 0 0 1 0 26.457 13.229 13.229 0 0 1 0-26.457zm-3.543 35.426c0.50646 0 0.98175 0.0859 1.4277 0.25977 0.45354 0.17386 0.85125 0.43549 1.1914 0.7832 0.34016 0.34016 0.60815 0.76724 0.80469 1.2812 0.2041 0.51402 0.30664 1.1065 0.30664 1.7793 0 0.67275-0.10255 1.2672-0.30664 1.7812-0.19654 0.51401-0.46453 0.94525-0.80469 1.293-0.34016 0.34015-0.73786 0.59567-1.1914 0.76953-0.44598 0.17386-0.92128 0.26172-1.4277 0.26172-0.51402 0-1.0018-0.0879-1.4629-0.26172-0.45354-0.17386-0.85541-0.42938-1.2031-0.76953-0.34016-0.34772-0.61231-0.77896-0.81641-1.293-0.19654-0.51402-0.29492-1.1085-0.29492-1.7812 0-0.67276 0.09839-1.2653 0.29492-1.7793 0.2041-0.51401 0.47625-0.94109 0.81641-1.2812 0.34772-0.34771 0.74958-0.60934 1.2031-0.7832 0.4611-0.17386 0.94888-0.25977 1.4629-0.25977zm7.4492 0.10157c1.1036 0 1.9431 0.20729 2.5176 0.62304 0.58205 0.41575 0.87305 1.0354 0.87305 1.8594 0 0.52157-0.14024 0.96749-0.41992 1.3379-0.27213 0.37039-0.6762 0.64671-1.2129 0.82812 0.12094 0.15118 0.27171 0.35212 0.45312 0.60157 0.18898 0.24189 0.38159 0.51404 0.57812 0.8164 0.19654 0.29481 0.38915 0.60465 0.57812 0.92969 0.19654 0.32504 0.36198 0.63904 0.49805 0.94141h-1.2012c-0.15118-0.28725-0.31663-0.57825-0.49805-0.87305-0.17386-0.2948-0.35179-0.57528-0.5332-0.83985-0.18142-0.27212-0.3635-0.52543-0.54492-0.75976-0.17386-0.23433-0.33294-0.43747-0.47656-0.61133-0.09827 8e-3 -0.20081 0.0117-0.30664 0.0117h-1.291v3.0723h-1.0996v-7.7441c0.30992-0.0756 0.6533-0.12577 1.0312-0.14844 0.38551-0.0302 0.73721-0.0449 1.0547-0.0449zm-7.4727 0.86132c-0.40063 0-0.76285 0.0754-1.0879 0.22657-0.31748 0.14362-0.58963 0.35287-0.81641 0.625-0.21921 0.27212-0.39077 0.60302-0.51172 0.99609-0.12094 0.38551-0.17969 0.81675-0.17969 1.293s0.05874 0.91162 0.17969 1.3047c0.12094 0.38551 0.29251 0.7142 0.51172 0.98632 0.22677 0.27213 0.49893 0.48359 0.81641 0.63477 0.32504 0.14362 0.68726 0.21484 1.0879 0.21484s0.76064-0.0712 1.0781-0.21484c0.31748-0.15118 0.58548-0.36264 0.80469-0.63477 0.22677-0.27212 0.40054-0.60081 0.52148-0.98632 0.12094-0.39307 0.18164-0.82847 0.18164-1.3047s-0.0607-0.90746-0.18164-1.293c-0.12094-0.39307-0.29471-0.72397-0.52148-0.99609-0.21921-0.27213-0.48721-0.48138-0.80469-0.625-0.31748-0.15118-0.6775-0.22657-1.0781-0.22657zm7.5625 0.10157c-0.46866 0-0.82672 0.0125-1.0762 0.0352v2.959h0.78125c0.37795 0 0.71912-0.0189 1.0215-0.0566 0.30236-0.0378 0.55567-0.10902 0.75977-0.21485 0.21165-0.10582 0.37294-0.25438 0.48633-0.44336 0.11339-0.19653 0.16992-0.45205 0.16992-0.76953 0-0.2948-0.05654-0.54174-0.16992-0.73828-0.11339-0.19653-0.26831-0.35146-0.46484-0.46484-0.18898-0.11339-0.41512-0.19293-0.67969-0.23828-0.25701-0.0454-0.53332-0.0684-0.82812-0.0684z" style=""/>
    </g>
    <g id="g227" transform="translate(15.08,36.13)">
      <path id="path_stvqvmigzv" transform="matrix(.26458 0 0 .26458 -15.08 -36.13)" d="m45.09 118.98a5.6693 5.6693 0 0 0-5.6699 5.668v45.355a5.6693 5.6693 0 0 0 5.6699 5.668h23.811a5.6693 5.6693 0 0 0 5.6699-5.668v-45.355a5.6693 5.6693 0 0 0-5.6699-5.668zm11.906 4.3457a13.229 13.229 0 0 1 0 26.457 13.229 13.229 0 0 1 0-26.457zm6.9043 35.527c0.64252 0 1.2328 0.0837 1.7695 0.25 0.53669 0.15874 0.9973 0.40373 1.3828 0.73632 0.38551 0.32504 0.68483 0.74159 0.89648 1.248 0.21165 0.4989 0.31641 1.0873 0.31641 1.7676 0 0.68031-0.10475 1.2748-0.31641 1.7812-0.21165 0.4989-0.51097 0.91349-0.89648 1.2461-0.38551 0.32504-0.84612 0.57198-1.3828 0.73828-0.53669 0.15874-1.127 0.23829-1.7695 0.23829-0.31748 0-0.66918-0.0166-1.0547-0.0469-0.37795-0.0227-0.72133-0.0709-1.0312-0.14648v-7.6191c0.30992-0.0756 0.6533-0.12577 1.0312-0.14844 0.38551-0.0302 0.73721-0.0449 1.0547-0.0449zm-15.58 0.0801h1.0098c0.27213 0.56693 0.53375 1.1406 0.7832 1.7227 0.24945 0.57449 0.4986 1.1795 0.74805 1.8144 0.25701 0.63496 0.51668 1.307 0.78125 2.0176 0.26457 0.70299 0.5492 1.4712 0.85156 2.3027h-1.2031c-0.1285-0.34016-0.24794-0.67301-0.36133-0.99805-0.11339-0.3326-0.23062-0.66961-0.35156-1.0098h-3.5605l-0.71484 2.0078h-1.1445c0.30236-0.8315 0.58504-1.5998 0.84961-2.3027 0.26457-0.71055 0.52204-1.3826 0.77148-2.0176 0.25701-0.63496 0.51032-1.24 0.75976-1.8144 0.24945-0.58205 0.50912-1.1557 0.78125-1.7227zm5.2402 0h0.87305c0.35528 0.37796 0.73218 0.81972 1.1328 1.3262 0.40819 0.49889 0.8081 1.016 1.2012 1.5527 0.40063 0.52913 0.77533 1.0504 1.123 1.5644 0.35528 0.51402 0.6546 0.97242 0.89648 1.373v-5.8164h1.0762v7.8574h-0.91797c-0.1663-0.27969-0.35891-0.59369-0.57812-0.94141-0.21165-0.34772-0.44196-0.70773-0.69141-1.0781-0.24945-0.37795-0.51108-0.75902-0.7832-1.1445-0.26457-0.38551-0.5284-0.75605-0.79297-1.1113-0.26457-0.36283-0.52204-0.70205-0.77148-1.0195s-0.47975-0.59795-0.69141-0.83984v6.1348h-1.0762zm10.43 0.88282c-0.30992 0-0.55075 4e-3 -0.72461 0.0117-0.1663 8e-3 -0.28353 0.0159-0.35156 0.0234v6.0098c0.06803 8e-3 0.18526 0.0139 0.35156 0.0215 0.17386 8e-3 0.41469 0.0117 0.72461 0.0117 1.0432 0 1.8219-0.26383 2.3359-0.79297 0.51402-0.53669 0.77148-1.2861 0.77148-2.2461s-0.25747-1.7033-0.77148-2.2324c-0.51402-0.5367-1.2928-0.80664-2.3359-0.80664zm-15.193 0.375c-0.26457 0.56693-0.51788 1.1594-0.75977 1.7793-0.23433 0.61229-0.46879 1.2486-0.70312 1.9062h2.9258c-0.24189-0.65763-0.48272-1.294-0.72461-1.9062-0.23433-0.61984-0.48127-1.2124-0.73828-1.7793z" style=""/>
    </g>
    <g id="g231" transform="translate(4.92,52.64)">
      <path id="path_yrrrokilbs" transform="matrix(.26458 0 0 .26458 -4.92 -52.64)" d="m6.6895 181.38a5.6693 5.6693 0 0 0-5.6699 5.6699v45.354a5.6693 5.6693 0 0 0 5.6699 5.6699h23.811a5.6693 5.6693 0 0 0 5.6699-5.6699v-45.354a5.6693 5.6693 0 0 0-5.6699-5.6699zm11.906 4.3476a13.229 13.229 0 0 1 0 26.457 13.229 13.229 0 0 1 0-26.457zm0.58398 35.426c0.50646 0 0.98175 0.0859 1.4277 0.25977 0.45354 0.17386 0.85125 0.43549 1.1914 0.7832 0.34016 0.34016 0.60815 0.76724 0.80469 1.2812 0.20409 0.51402 0.30664 1.1065 0.30664 1.7793s-0.10255 1.2672-0.30664 1.7812c-0.19654 0.51402-0.46453 0.9433-0.80469 1.291-0.34016 0.34016-0.73786 0.59763-1.1914 0.77149-0.44598 0.17386-0.92128 0.26172-1.4277 0.26172-0.51402 0-1.0018-0.0879-1.4629-0.26172-0.45354-0.17386-0.85541-0.43133-1.2031-0.77149-0.34016-0.34771-0.61036-0.77699-0.81445-1.291-0.19654-0.51402-0.29492-1.1085-0.29492-1.7812s0.09839-1.2653 0.29492-1.7793c0.20409-0.51401 0.4743-0.94109 0.81445-1.2812 0.34772-0.34771 0.74958-0.60934 1.2031-0.7832 0.4611-0.17386 0.94888-0.25977 1.4629-0.25977zm7.4492 0.10157c1.1036 0 1.9431 0.2073 2.5176 0.62304 0.58205 0.41575 0.87305 1.0354 0.87305 1.8594 0 0.52157-0.14024 0.9675-0.41992 1.3379-0.27213 0.37039-0.6762 0.64671-1.2129 0.82812 0.12094 0.15118 0.27171 0.35212 0.45312 0.60157 0.18898 0.24189 0.38159 0.51404 0.57812 0.8164 0.19654 0.29481 0.38915 0.60465 0.57812 0.92969 0.19654 0.32504 0.36198 0.63904 0.49805 0.94141h-1.2012c-0.15118-0.28725-0.31663-0.57825-0.49805-0.87305-0.17386-0.2948-0.35179-0.57528-0.5332-0.83984-0.18142-0.27213-0.3635-0.52544-0.54492-0.75977-0.17386-0.23433-0.33294-0.43747-0.47656-0.61133-0.09827 8e-3 -0.19886 0.01-0.30469 0.01h-1.293v3.0742h-1.0996v-7.7441c0.30992-0.0756 0.6533-0.12576 1.0312-0.14844 0.38551-0.0302 0.73721-0.0449 1.0547-0.0449zm-19.162 0.0781h0.87305c0.35528 0.37795 0.73218 0.82167 1.1328 1.3281 0.40819 0.49889 0.81005 1.016 1.2031 1.5527 0.40063 0.52913 0.77338 1.0504 1.1211 1.5644 0.35528 0.51402 0.6546 0.97242 0.89648 1.373v-5.8184h1.0781v7.8594h-0.91992c-0.1663-0.27969-0.35891-0.59369-0.57812-0.94141-0.21165-0.34772-0.44196-0.70773-0.69141-1.0781-0.24945-0.37796-0.50912-0.75902-0.78125-1.1445-0.26457-0.38551-0.53036-0.75605-0.79492-1.1113-0.26457-0.36284-0.52204-0.70401-0.77148-1.0215s-0.47975-0.596-0.69141-0.83789v6.1348h-1.0762zm11.689 0.7832c-0.40063 0-0.76285 0.0754-1.0879 0.22657-0.31748 0.14362-0.58963 0.35092-0.81641 0.62304-0.21921 0.27213-0.38882 0.60498-0.50976 0.99805-0.12094 0.38551-0.18164 0.81675-0.18164 1.293s0.0607 0.91162 0.18164 1.3047c0.12094 0.38551 0.29055 0.7142 0.50976 0.98633 0.22677 0.27212 0.49893 0.48358 0.81641 0.63476 0.32504 0.14362 0.68726 0.21484 1.0879 0.21484s0.76064-0.0712 1.0781-0.21484c0.31748-0.15118 0.58548-0.36264 0.80469-0.63476 0.22677-0.27213 0.40054-0.60082 0.52148-0.98633 0.12094-0.39307 0.18164-0.82847 0.18164-1.3047 0-0.47622-0.0607-0.90746-0.18164-1.293-0.12094-0.39307-0.29471-0.72592-0.52148-0.99805-0.21921-0.27212-0.48721-0.47942-0.80469-0.62304-0.31748-0.15118-0.6775-0.22657-1.0781-0.22657zm7.5625 0.10157c-0.46866 0-0.82672 0.0125-1.0762 0.0351v2.959h0.78125c0.37795 0 0.71912-0.0188 1.0215-0.0566 0.30236-0.0378 0.55567-0.10902 0.75977-0.21485 0.21165-0.10582 0.37294-0.25438 0.48633-0.44336 0.11339-0.19653 0.17188-0.454 0.17188-0.77148 0-0.2948-0.05849-0.53979-0.17188-0.73633-0.11339-0.19653-0.26831-0.35146-0.46484-0.46484-0.18898-0.11339-0.41512-0.19293-0.67969-0.23828-0.25701-0.0454-0.53332-0.0684-0.82812-0.0684z" style=""/>
    </g>
    <g id="g235" transform="translate(15.08,52.64)">
      <path id="path_vzpoapcczo" transform="matrix(.26458 0 0 .26458 -15.08 -52.64)" d="m45.09 181.38a5.6693 5.6693 0 0 0-5.6699 5.6699v45.354a5.6693 5.6693 0 0 0 5.6699 5.6699h23.811a5.6693 5.6693 0 0 0 5.6699-5.6699v-45.354a5.6693 5.6693 0 0 0-5.6699-5.6699zm11.906 4.3476a13.229 13.229 0 0 1 0 26.457 13.229 13.229 0 0 1 0-26.457zm-0.10352 35.426c0.50646 0 0.9837 0.0859 1.4297 0.25977 0.45354 0.17386 0.8493 0.43549 1.1895 0.7832 0.34016 0.34016 0.6101 0.76724 0.80664 1.2812 0.2041 0.51402 0.30469 1.1065 0.30469 1.7793s-0.10059 1.2672-0.30469 1.7812c-0.19654 0.51402-0.46648 0.9433-0.80664 1.291-0.34016 0.34016-0.73591 0.59763-1.1895 0.77149-0.44598 0.17386-0.92323 0.26172-1.4297 0.26172-0.51402 0-1.0018-0.0879-1.4629-0.26172-0.45354-0.17386-0.85346-0.43133-1.2012-0.77149-0.34016-0.34771-0.61231-0.77699-0.81641-1.291-0.19654-0.51402-0.29492-1.1085-0.29492-1.7812-1e-6 -0.67276 0.09839-1.2653 0.29492-1.7793 0.2041-0.51401 0.47625-0.94109 0.81641-1.2812 0.34772-0.34771 0.74763-0.60934 1.2012-0.7832 0.4611-0.17386 0.94887-0.25977 1.4629-0.25977zm7.4492 0.10157c1.1036 0 1.9431 0.2073 2.5176 0.62304 0.58205 0.41575 0.87305 1.0354 0.87305 1.8594 0 0.52157-0.14024 0.9675-0.41992 1.3379-0.27213 0.37039-0.6762 0.64671-1.2129 0.82812 0.12094 0.15118 0.27171 0.35212 0.45312 0.60157 0.18898 0.24189 0.38354 0.51404 0.58008 0.8164 0.19654 0.29481 0.38915 0.60465 0.57813 0.92969 0.19654 0.32504 0.36198 0.63904 0.49805 0.94141h-1.2012c-0.15118-0.28725-0.31858-0.57825-0.5-0.87305-0.17386-0.2948-0.35178-0.57528-0.5332-0.83984-0.18142-0.27213-0.36155-0.52544-0.54297-0.75977-0.17386-0.23433-0.33294-0.43747-0.47656-0.61133-0.09827 8e-3 -0.20081 0.01-0.30664 0.01h-1.293v3.0742h-1.0996v-7.7441c0.30992-0.0756 0.65525-0.12576 1.0332-0.14844 0.38551-0.0302 0.73526-0.0449 1.0527-0.0449zm-18.402 0.0781h1.2715l1.9375 2.9258 1.916-2.9258h1.2598l-2.4727 3.6641c0.51402 0.73323 0.99763 1.4472 1.4512 2.1426 0.45354 0.69543 0.85541 1.38 1.2031 2.0527h-1.2363c-0.11339-0.22678-0.24946-0.47788-0.4082-0.75-0.15874-0.27969-0.33251-0.56653-0.52148-0.86133-0.18898-0.30236-0.38575-0.59973-0.58984-0.89453-0.20409-0.30237-0.40087-0.587-0.58984-0.85157-0.18898 0.26457-0.38575 0.5492-0.58984 0.85157-0.20409 0.2948-0.40087 0.59217-0.58984 0.89453-0.18142 0.2948-0.35518 0.58164-0.52148 0.86133-0.15874 0.27212-0.29482 0.52322-0.4082 0.75h-1.2129c0.34016-0.6652 0.7337-1.3434 1.1797-2.0312 0.45354-0.68788 0.933-1.3935 1.4395-2.1191zm10.932 0.7832c-0.40063 0-0.7648 0.0754-1.0898 0.22657-0.31748 0.14362-0.58964 0.35092-0.81641 0.62304-0.21921 0.27213-0.38882 0.60498-0.50977 0.99805-0.12094 0.38551-0.18164 0.81675-0.18164 1.293-1e-6 0.47622 0.0607 0.91162 0.18164 1.3047 0.12094 0.38551 0.29055 0.7142 0.50977 0.98633 0.22677 0.27212 0.49893 0.48358 0.81641 0.63476 0.32504 0.14362 0.68921 0.21484 1.0898 0.21484s0.75869-0.0712 1.0762-0.21484c0.31748-0.15118 0.58548-0.36264 0.80469-0.63476 0.22677-0.27213 0.40054-0.60082 0.52148-0.98633 0.12094-0.39307 0.18164-0.82847 0.18164-1.3047s-0.0607-0.90746-0.18164-1.293c-0.12094-0.39307-0.29471-0.72592-0.52148-0.99805-0.21921-0.27212-0.48721-0.47942-0.80469-0.62304-0.31748-0.15118-0.67554-0.22657-1.0762-0.22657zm7.5625 0.10157c-0.46866 0-0.82868 0.0125-1.0781 0.0351v2.959h0.7832c0.37795 0 0.71717-0.0188 1.0195-0.0566s0.55567-0.10902 0.75977-0.21485c0.21165-0.10582 0.3749-0.25438 0.48828-0.44336 0.11339-0.19653 0.16992-0.454 0.16992-0.77148 0-0.2948-0.05654-0.53979-0.16992-0.73633-0.11339-0.19653-0.26831-0.35146-0.46484-0.46484-0.18898-0.11339-0.41512-0.19293-0.67969-0.23828-0.25701-0.0454-0.53332-0.0684-0.82812-0.0684z" style=""/>
    </g>
    <g id="g238" transform="translate(4.92,71.69)">
      <path id="path1253" d="m0.6525 8q-0.051-0.135-0.096-0.264-0.045-0.132-0.093-0.267h-0.942l-0.189 0.531h-0.303q0.12-0.33 0.225-0.609 0.105-0.282 0.204-0.534 0.102-0.252 0.201-0.48 0.099-0.231 0.207-0.456h0.267q0.108 0.225 0.207 0.456 0.099 0.228 0.198 0.48 0.102 0.252 0.207 0.534 0.105 0.279 0.225 0.609zm-0.273-0.771q-0.096-0.261-0.192-0.504-0.093-0.246-0.195-0.471-0.105 0.225-0.201 0.471-0.093 0.243-0.186 0.504z"/>
    </g>
    <g id="g241" transform="translate(15.08,71.69)">
      <path id="path1256" d="m-0.1455 8.018q-0.063 0-0.138-3e-3 -0.072-3e-3 -0.147-9e-3 -0.072-6e-3 -0.144-0.015t-0.132-0.024v-2.016q0.06-0.015 0.132-0.024t0.144-0.015q0.075-6e-3 0.147-9e-3t0.135-3e-3q0.18 0 0.336 0.027 0.159 0.027 0.273 0.093 0.117 0.063 0.183 0.168t0.066 0.258q0 0.171-0.081 0.282-0.081 0.108-0.216 0.162 0.183 0.054 0.291 0.171t0.108 0.33q0 0.312-0.231 0.471-0.228 0.156-0.726 0.156zm-0.273-0.987v0.732q0.033 3e-3 0.078 6e-3 0.039 3e-3 0.09 6e-3 0.054 0 0.123 0 0.129 0 0.243-0.015 0.117-0.018 0.204-0.06t0.138-0.117q0.054-0.075 0.054-0.189 0-0.102-0.039-0.171-0.039-0.072-0.114-0.114-0.072-0.042-0.174-0.06t-0.228-0.018zm0-0.234h0.306q0.108 0 0.204-0.015t0.165-0.054q0.072-0.039 0.111-0.102 0.042-0.063 0.042-0.159 0-0.09-0.042-0.15-0.042-0.063-0.117-0.099-0.072-0.039-0.171-0.057t-0.21-0.018-0.174 3e-3 -0.114 9e-3z"/>
    </g>
    <g id="g245" transform="translate(4.92,88.2)">
      <path id="path_epxegnwiqb" transform="matrix(.26458 0 0 .26458 -4.92 -88.2)" d="m6.6895 315.78a5.6693 5.6693 0 0 0-5.6699 5.6699v45.354a5.6693 5.6693 0 0 0 5.6699 5.6699h23.811a5.6693 5.6693 0 0 0 5.6699-5.6699v-45.354a5.6693 5.6693 0 0 0-5.6699-5.6699zm11.906 4.3476a13.228 13.228 0 0 1 0 26.455 13.228 13.228 0 0 1 0-26.455zm6.3945 35.527c0.45354 0 0.87646 0.0335 1.2695 0.10156 0.40063 0.068 0.74401 0.18526 1.0312 0.35156 0.2948 0.15874 0.52706 0.3702 0.69336 0.63477 0.1663 0.26456 0.24805 0.5891 0.24805 0.97461 0 0.43086-0.10059 0.78672-0.30469 1.0664-0.20409 0.27213-0.47625 0.47527-0.81641 0.61133 0.4611 0.13606 0.82748 0.35168 1.0996 0.64649 0.27212 0.2948 0.4082 0.71135 0.4082 1.248 0 0.78614-0.291 1.3787-0.87305 1.7793-0.57449 0.39307-1.4893 0.58984-2.7441 0.58984-0.15874 0-0.33251-4e-3 -0.52148-0.0117-0.18142-8e-3 -0.36766-0.0181-0.55664-0.0332-0.18142-0.0151-0.36155-0.034-0.54297-0.0566-0.18142-0.0227-0.34882-0.0521-0.5-0.0898v-7.6211c0.15118-0.0378 0.31858-0.0672 0.5-0.0898 0.18142-0.0227 0.36155-0.0415 0.54297-0.0566 0.18898-0.0151 0.37522-0.0276 0.55664-0.0352 0.18142-8e-3 0.35102-0.01 0.50976-0.01zm-13.742 0.0781h1.0098c0.27213 0.56693 0.5318 1.1426 0.78125 1.7246 0.24945 0.57449 0.4986 1.1795 0.74805 1.8144 0.25701 0.63497 0.51864 1.307 0.7832 2.0176 0.26457 0.70299 0.54725 1.4693 0.84961 2.3008h-1.2012c-0.1285-0.34015-0.2499-0.673-0.36328-0.99804-0.11339-0.3326-0.23062-0.66766-0.35156-1.0078h-3.5605l-0.71289 2.0059h-1.1465c0.30236-0.83149 0.587-1.5978 0.85156-2.3008 0.26457-0.71055 0.52008-1.3826 0.76953-2.0176 0.25701-0.63496 0.51032-1.24 0.75977-1.8144 0.24945-0.58205 0.51108-1.1577 0.7832-1.7246zm13.811 0.83985c-0.27968 0-0.49946 4e-3 -0.6582 0.0117-0.15874 8e-3 -0.30118 0.0181-0.42969 0.0332v2.4258h1.1562c0.27213 0 0.52764-0.0189 0.76953-0.0566 0.24189-0.0378 0.45114-0.10486 0.625-0.20313 0.18142-0.0983 0.32166-0.22602 0.41992-0.38476 0.10583-0.15874 0.1582-0.35968 0.1582-0.60156 0-0.22678-0.05238-0.41523-0.1582-0.56641-0.10583-0.15874-0.25438-0.28429-0.44336-0.375-0.18142-0.0983-0.39704-0.16949-0.64648-0.21485-0.24945-0.0453-0.51328-0.0684-0.79297-0.0684zm-13.334 0.41992c-0.26457 0.56693-0.51788 1.1594-0.75976 1.7793-0.23433 0.61229-0.4688 1.2467-0.70312 1.9043h2.9258c-0.24189-0.65764-0.48467-1.292-0.72656-1.9043-0.23433-0.61984-0.47932-1.2124-0.73633-1.7793zm6.5312 0.41797h0.90625v2.3359h2.1426v0.89649h-2.1426v2.3476h-0.90625v-2.3476h-2.1445v-0.89649h2.1445zm5.7148 2.5176v2.7676c0.08315 8e-3 0.17958 0.0139 0.29297 0.0215 0.09827 8e-3 0.21329 0.0159 0.3418 0.0234h0.46484c0.32504 0 0.63072-0.0188 0.91797-0.0566 0.2948-0.0453 0.55227-0.12073 0.77148-0.22656 0.21921-0.10583 0.39298-0.25438 0.52148-0.44336 0.13606-0.18897 0.20312-0.42564 0.20312-0.71289 0-0.25701-0.04822-0.47262-0.14648-0.64648-0.09827-0.18142-0.24266-0.32582-0.43164-0.43164-0.18142-0.10583-0.4012-0.18121-0.6582-0.22657-0.25701-0.0453-0.54385-0.0684-0.86133-0.0684z" style=""/>
    </g>
    <g id="g249" transform="translate(15.08,88.2)">
      <path id="path_ksnojtxtjx" transform="matrix(.26458 0 0 .26458 -15.08 -88.2)" d="m45.09 315.78a5.6693 5.6693 0 0 0-5.6699 5.6699v45.354a5.6693 5.6693 0 0 0 5.6699 5.6699h23.811a5.6693 5.6693 0 0 0 5.6699-5.6699v-45.354a5.6693 5.6693 0 0 0-5.6699-5.6699zm11.906 4.3476a13.228 13.228 0 0 1 0 26.455 13.228 13.228 0 0 1 0-26.455zm4.8926 35.527c0.45354 0 0.87646 0.0335 1.2695 0.10156 0.40063 0.068 0.74401 0.18526 1.0312 0.35156 0.2948 0.15874 0.52511 0.3702 0.69141 0.63477 0.1663 0.26456 0.25 0.5891 0.25 0.97461 0 0.43086-0.10255 0.78672-0.30664 1.0664-0.2041 0.27213-0.47625 0.47527-0.81641 0.61133 0.4611 0.13606 0.82748 0.35168 1.0996 0.64649 0.27213 0.2948 0.4082 0.71135 0.4082 1.248 0 0.78614-0.291 1.3787-0.87305 1.7793-0.57449 0.39307-1.4893 0.58984-2.7441 0.58984-0.15874 0-0.33251-4e-3 -0.52148-0.0117-0.18142-8e-3 -0.36571-0.0181-0.55469-0.0332-0.18142-0.0151-0.3635-0.034-0.54492-0.0566-0.18142-0.0227-0.34687-0.0521-0.49805-0.0898v-7.6211c0.15118-0.0378 0.31663-0.0672 0.49805-0.0898 0.18142-0.0227 0.3635-0.0415 0.54492-0.0566 0.18898-0.0151 0.37327-0.0276 0.55469-0.0352 0.18142-8e-3 0.35298-0.01 0.51172-0.01zm-10.738 0.0781h1.0098c0.27213 0.56693 0.5318 1.1426 0.78125 1.7246 0.24945 0.57449 0.4986 1.1795 0.74805 1.8144 0.25701 0.63497 0.51864 1.307 0.7832 2.0176 0.26457 0.70299 0.54725 1.4693 0.84961 2.3008h-1.2012c-0.1285-0.34015-0.2499-0.673-0.36328-0.99804-0.11338-0.3326-0.23062-0.66766-0.35156-1.0078h-3.5605l-0.71289 2.0059h-1.1465c0.30236-0.83149 0.587-1.5978 0.85156-2.3008 0.26457-0.71055 0.52008-1.3826 0.76953-2.0176 0.25701-0.63496 0.51032-1.24 0.75977-1.8144 0.24945-0.58205 0.51108-1.1577 0.7832-1.7246zm10.805 0.83985c-0.27968 0-0.49751 4e-3 -0.65625 0.0117-0.15874 8e-3 -0.30314 0.0181-0.43164 0.0332v2.4258h1.1562c0.27212 0 0.52959-0.0189 0.77148-0.0566 0.24189-0.0378 0.44919-0.10486 0.62305-0.20313 0.18142-0.0983 0.32165-0.22602 0.41992-0.38476 0.10583-0.15874 0.1582-0.35968 0.1582-0.60156 0-0.22678-0.05238-0.41523-0.1582-0.56641-0.10583-0.15874-0.25243-0.28429-0.44141-0.375-0.18142-0.0983-0.39704-0.16949-0.64648-0.21485-0.24945-0.0453-0.51524-0.0684-0.79492-0.0684zm-10.328 0.41992c-0.26457 0.56693-0.51788 1.1594-0.75976 1.7793-0.23433 0.61229-0.4688 1.2467-0.70313 1.9043h2.9258c-0.24189-0.65764-0.48467-1.292-0.72656-1.9043-0.23433-0.61984-0.47932-1.2124-0.73633-1.7793zm4.082 2.709h2.8008v0.98633h-2.8008zm5.1582 0.22656v2.7676c0.08315 8e-3 0.18154 0.0139 0.29492 0.0215 0.09827 8e-3 0.21134 0.0159 0.33984 0.0234h0.46484c0.32504 0 0.63072-0.0188 0.91797-0.0566 0.2948-0.0453 0.55227-0.12073 0.77148-0.22656s0.39298-0.25438 0.52148-0.44336c0.13606-0.18897 0.20508-0.42564 0.20508-0.71289 0-0.25701-0.05017-0.47262-0.14844-0.64648-0.09827-0.18142-0.24071-0.32582-0.42969-0.43164-0.18142-0.10583-0.4012-0.18121-0.6582-0.22657-0.25701-0.0453-0.54385-0.0684-0.86133-0.0684z" style=""/>
    </g>
    <g id="g253" transform="translate(4.92,104.71)">
      <path id="path_mqthqmaofj" transform="matrix(.26458 0 0 .26458 -4.92 -104.71)" d="m6.6895 378.18a5.6693 5.6693 0 0 0-5.6699 5.6699v45.354a5.6693 5.6693 0 0 0 5.6699 5.6699h23.811a5.6693 5.6693 0 0 0 5.6699-5.6699v-45.354a5.6693 5.6693 0 0 0-5.6699-5.6699zm11.906 4.3457a13.229 13.229 0 0 1 0 26.457 13.229 13.229 0 0 1 0-26.457zm-11.078 35.607h0.96289c0.20409 0.3326 0.42387 0.72615 0.6582 1.1797s0.46879 0.92884 0.70312 1.4277c0.23433 0.49134 0.46048 0.98743 0.67969 1.4863 0.21921 0.49134 0.42015 0.94142 0.60156 1.3496 0.18142-0.40819 0.38235-0.85827 0.60156-1.3496 0.21921-0.4989 0.44536-0.99499 0.67969-1.4863 0.23433-0.49889 0.46879-0.97419 0.70312-1.4277s0.45411-0.84709 0.6582-1.1797h0.96289c0.25701 2.5323 0.44962 5.1513 0.57812 7.8574h-1.0762c-0.0378-1.0583-0.08381-2.105-0.13672-3.1406-0.05291-1.0432-0.11998-2.0104-0.20312-2.9023-0.07559 0.1285-0.17814 0.31279-0.30664 0.55468-0.12094 0.24189-0.25286 0.51821-0.39648 0.82813-0.14362 0.30236-0.29854 0.62689-0.46484 0.97461-0.15874 0.34015-0.31146 0.67301-0.45508 0.99804-0.14362 0.32504-0.2797 0.62852-0.4082 0.90821-0.12094 0.27968-0.21933 0.50999-0.29492 0.6914h-0.88281c-0.07559-0.18141-0.17814-0.41172-0.30664-0.6914-0.12094-0.27969-0.25286-0.58317-0.39648-0.90821-0.14362-0.32503-0.29854-0.65789-0.46484-0.99804-0.15874-0.34772-0.31146-0.67225-0.45508-0.97461-0.14362-0.30992-0.27775-0.58624-0.40625-0.82813-0.12094-0.24189-0.21933-0.42618-0.29492-0.55468-0.08315 0.89196-0.15216 1.8592-0.20508 2.9023-0.052913 1.0356-0.098923 2.0824-0.13672 3.1406h-1.0762c0.030236-0.68031 0.063767-1.3649 0.10156-2.0527 0.037795-0.69543 0.079646-1.3758 0.125-2.041 0.052913-0.67275 0.10529-1.326 0.1582-1.9609 0.060472-0.63496 0.12533-1.2358 0.19336-1.8027zm11.793 0h1.0078c0.27213 0.56693 0.53376 1.1406 0.7832 1.7227 0.24945 0.57449 0.4986 1.1795 0.74805 1.8144 0.25701 0.63496 0.51668 1.309 0.78125 2.0195 0.26457 0.703 0.5492 1.4693 0.85156 2.3008h-1.2012c-0.1285-0.34015-0.2499-0.673-0.36328-0.99804-0.11339-0.3326-0.23062-0.66766-0.35156-1.0078h-3.5605l-0.71484 2.0058h-1.1445c0.30236-0.83149 0.58504-1.5978 0.84961-2.3008 0.26457-0.71055 0.52204-1.3846 0.77148-2.0195 0.25701-0.63496 0.51032-1.24 0.75977-1.8144 0.24945-0.58205 0.51108-1.1557 0.7832-1.7227zm4.9082 0h1.2695l1.9395 2.9258 1.916-2.9258h1.2598l-2.4727 3.6621c0.51402 0.73323 0.99763 1.4472 1.4512 2.1426 0.45354 0.69543 0.85541 1.38 1.2031 2.0527h-1.2363c-0.11339-0.22677-0.24946-0.47592-0.4082-0.74804-0.15874-0.27969-0.33251-0.56653-0.52148-0.86133-0.18898-0.30236-0.38575-0.60168-0.58984-0.89648-0.2041-0.30237-0.40087-0.58505-0.58984-0.84961-0.18898 0.26456-0.38575 0.54724-0.58984 0.84961-0.20409 0.2948-0.40087 0.59412-0.58984 0.89648-0.18142 0.2948-0.35519 0.58164-0.52148 0.86133-0.15874 0.27212-0.29482 0.52127-0.4082 0.74804h-1.2129c0.34016-0.66519 0.7337-1.3414 1.1797-2.0293 0.45354-0.68788 0.933-1.3954 1.4395-2.1211zm-4.4336 1.2578c-0.26457 0.56693-0.51788 1.1614-0.75976 1.7813-0.23433 0.61228-0.4688 1.2466-0.70312 1.9043h2.9258c-0.24189-0.65764-0.48272-1.292-0.72461-1.9043-0.23433-0.61985-0.48127-1.2143-0.73828-1.7813z" style=""/>
    </g>
    <g id="g257" transform="translate(15.08,104.71)">
      <path id="path_thgesaddda" transform="matrix(.26458 0 0 .26458 -15.08 -104.71)" d="m45.09 378.18a5.6693 5.6693 0 0 0-5.6699 5.6699v45.354a5.6693 5.6693 0 0 0 5.6699 5.6699h23.811a5.6693 5.6693 0 0 0 5.6699-5.6699v-45.354a5.6693 5.6693 0 0 0-5.6699-5.6699zm11.906 4.3457a13.229 13.229 0 0 1 0 26.457 13.229 13.229 0 0 1 0-26.457zm-11.176 34.588h0.98633v10.975h-0.98633zm21.363 0h0.98633v10.975h-0.98633zm-5.2949 0.93945c0.45354 0 0.87646 0.0355 1.2695 0.10352 0.40063 0.068 0.74401 0.18526 1.0312 0.35156 0.2948 0.15874 0.52511 0.3702 0.69141 0.63477 0.1663 0.26457 0.25 0.5891 0.25 0.97461 0 0.43086-0.10255 0.78672-0.30664 1.0664-0.2041 0.27213-0.47625 0.47527-0.81641 0.61133 0.4611 0.13606 0.82748 0.35168 1.0996 0.64649 0.27213 0.2948 0.4082 0.71135 0.4082 1.248 0 0.78614-0.291 1.3787-0.87305 1.7793-0.57449 0.39307-1.4893 0.58984-2.7441 0.58984-0.15874 0-0.33251-4e-3 -0.52148-0.0117-0.18142-8e-3 -0.36571-0.0181-0.55469-0.0332-0.18142-0.0151-0.3635-0.034-0.54492-0.0566-0.18142-0.0227-0.34687-0.054-0.49805-0.0918v-7.6191c0.15118-0.0378 0.31663-0.0672 0.49805-0.0898 0.18142-0.0227 0.3635-0.0415 0.54492-0.0566 0.18898-0.0151 0.37327-0.0276 0.55469-0.0352 0.18142-8e-3 0.35298-0.0117 0.51172-0.0117zm-10.738 0.0801h1.0098c0.27213 0.56693 0.5318 1.1406 0.78125 1.7227 0.24945 0.57449 0.4986 1.1795 0.74805 1.8144 0.25701 0.63496 0.51864 1.309 0.7832 2.0195 0.26457 0.703 0.54725 1.4693 0.84961 2.3008h-1.2012c-0.1285-0.34015-0.2499-0.673-0.36328-0.99804-0.11338-0.3326-0.23062-0.66766-0.35156-1.0078h-3.5605l-0.71289 2.0058h-1.1465c0.30236-0.83149 0.587-1.5978 0.85156-2.3008 0.26457-0.71055 0.52008-1.3846 0.76953-2.0195 0.25701-0.63496 0.51032-1.24 0.75977-1.8144 0.24945-0.58205 0.51108-1.1557 0.7832-1.7227zm10.805 0.83985c-0.27968 0-0.49751 2e-3 -0.65625 0.01s-0.30314 0.02-0.43164 0.0352v2.4258h1.1562c0.27212 0 0.52959-0.0188 0.77148-0.0566s0.44919-0.10486 0.62305-0.20313c0.18142-0.0983 0.32165-0.22797 0.41992-0.38671 0.10583-0.15875 0.1582-0.35772 0.1582-0.59961 0-0.22678-0.05238-0.41718-0.1582-0.56836-0.10583-0.15874-0.25243-0.28234-0.44141-0.37305-0.18142-0.0983-0.39704-0.17144-0.64648-0.2168-0.24945-0.0453-0.51524-0.0664-0.79492-0.0664zm-10.328 0.41796c-0.26457 0.56693-0.51788 1.1614-0.75976 1.7813-0.23433 0.61228-0.4688 1.2466-0.70313 1.9043h2.9258c-0.24189-0.65764-0.48467-1.292-0.72656-1.9043-0.23433-0.61985-0.47932-1.2143-0.73633-1.7813zm4.082 2.7109h2.8008v0.98633h-2.8008zm5.1582 0.22656v2.7676c0.08315 8e-3 0.18154 0.0139 0.29492 0.0215 0.09827 8e-3 0.21134 0.0159 0.33984 0.0234h0.46484c0.32504 0 0.63072-0.0188 0.91797-0.0566 0.2948-0.0453 0.55227-0.12073 0.77148-0.22656 0.21921-0.10582 0.39298-0.25438 0.52148-0.44336 0.13606-0.18897 0.20508-0.4276 0.20508-0.71484 0-0.25701-0.05017-0.47067-0.14844-0.64453-0.09827-0.18142-0.24071-0.32582-0.42969-0.43164-0.18142-0.10583-0.4012-0.18121-0.6582-0.22657-0.25701-0.0453-0.54385-0.0684-0.86133-0.0684z" style=""/>
    </g>
  </g>
  <g id="throughholes">
    <circle id="circle261" cx="7.46" cy="3" r="1.7"/>
    <circle id="circle263" cx="7.46" cy="125.5" r="1.7"/>
    <circle id="circle265" cx="4.92" cy="19.62" r="3.15"/>
    <circle id="circle269" cx="15.08" cy="19.62" r="3.15"/>
    <circle id="circle273" cx="4.92" cy="36.13" r="3.15"/>
    <circle id="circle277" cx="15.08" cy="36.13" r="3.15"/>
    <circle id="circle281" cx="4.92" cy="52.64" r="3.15"/>
    <circle id="circle285" cx="15.08" cy="52.64" r="3.15"/>
    <circle id="circle289" cx="4.92" cy="71.69" r="3.15"/>
    <circle id="circle293" cx="15.08" cy="71.69" r="3.15"/>
    <circle id="circle297" cx="4.92" cy="88.2" r="3.15"/>
    <circle id="circle301" cx="15.08" cy="88.2" r="3.15"/>
    <circle id="circle305" cx="4.92" cy="104.71" r="3.15"/>
    <circle id="circle309" cx="15.08" cy="104.71" r="3.15"/>
  </g>
  <g id="cosmetics">
    <g id="cosmetics_offset" transform="translate(10 12)">
      <g id="g321" transform="translate(-5.08 7.62)">
        <path id="path315" d="m3.55 0-0.013509 0.3094 0.15654 0.34178-0.070807 0.31939-0.28631 0.2436-0.11852 0.28612 0.030203 0.37471-0.17578 0.27591-0.35236 0.13098-0.20923 0.22833-0.099776 0.36244-0.25954 0.19915-0.37591 0.00257-0.27471 0.143-0.21772 0.30645-0.312 0.098375-0.35412-0.12615-0.30705 0.040424-0.3094 0.21351-0.32683-0.01427-0.28962-0.23966-0.30236-0.067031-0.36377 0.094811-0.30224-0.12519-0.19018-0.32426-0.2612-0.1664-0.37426-0.035323-0.2412-0.22102-0.067807-0.36975-0.18853-0.2457-0.33961-0.1612-0.15106-0.29018 0.062745-0.37065-0.093128-0.29536-0.26399-0.26763-0.042701-0.32435 0.18573-0.32683 0.013509-0.3094-0.15654-0.34178 0.070807-0.31939 0.28631-0.2436 0.11852-0.28612-0.030203-0.37471 0.17578-0.27591 0.35236-0.13098 0.20923-0.22833 0.099776-0.36244 0.25954-0.19915 0.37591-0.00257 0.27471-0.143 0.21772-0.30645 0.312-0.098375 0.35412 0.12615 0.30705-0.040424 0.3094-0.21351 0.32683 0.01427 0.28962 0.23966 0.30236 0.067031 0.36377-0.094811 0.30224 0.12519 0.19018 0.32426 0.2612 0.1664 0.37426 0.035323 0.2412 0.22102 0.067807 0.36975 0.18853 0.2457 0.33961 0.1612 0.15106 0.29018-0.062745 0.37065 0.093128 0.29536 0.26399 0.26763 0.042701 0.32435z" fill="url(#id1) none"/>
        <circle id="circle317" r="3.15" fill="url(#id2) none"/>
        <circle id="circle319" r="2.35" fill="url(#id3) none"/>
      </g>
      <g id="g329" transform="translate(5.08 7.62)">
        <path id="path323" d="m3.55 0-0.013509 0.3094 0.15654 0.34178-0.070807 0.31939-0.28631 0.2436-0.11852 0.28612 0.030203 0.37471-0.17578 0.27591-0.35236 0.13098-0.20923 0.22833-0.099776 0.36244-0.25954 0.19915-0.37591 0.00257-0.27471 0.143-0.21772 0.30645-0.312 0.098375-0.35412-0.12615-0.30705 0.040424-0.3094 0.21351-0.32683-0.01427-0.28962-0.23966-0.30236-0.067031-0.36377 0.094811-0.30224-0.12519-0.19018-0.32426-0.2612-0.1664-0.37426-0.035323-0.2412-0.22102-0.067807-0.36975-0.18853-0.2457-0.33961-0.1612-0.15106-0.29018 0.062745-0.37065-0.093128-0.29536-0.26399-0.26763-0.042701-0.32435 0.18573-0.32683 0.013509-0.3094-0.15654-0.34178 0.070807-0.31939 0.28631-0.2436 0.11852-0.28612-0.030203-0.37471 0.17578-0.27591 0.35236-0.13098 0.20923-0.22833 0.099776-0.36244 0.25954-0.19915 0.37591-0.00257 0.27471-0.143 0.21772-0.30645 0.312-0.098375 0.35412 0.12615 0.30705-0.040424 0.3094-0.21351 0.32683 0.01427 0.28962 0.23966 0.30236 0.067031 0.36377-0.094811 0.30224 0.12519 0.19018 0.32426 0.2612 0.1664 0.37426 0.035323 0.2412 0.22102 0.067807 0.36975 0.18853 0.2457 0.33961 0.1612 0.15106 0.29018-0.062745 0.37065 0.093128 0.29536 0.26399 0.26763 0.042701 0.32435z" fill="url(#id1) none"/>
        <circle id="circle325" r="3.15" fill="url(#id2) none"/>
        <circle id="circle327" r="2.35" fill="url(#id3) none"/>
      </g>
      <g id="g337" transform="translate(-5.08 24.13)">
        <path id="path331" d="m3.55 0-0.013509 0.3094 0.15654 0.34178-0.070807 0.31939-0.28631 0.2436-0.11852 0.28612 0.030203 0.37471-0.17578 0.27591-0.35236 0.13098-0.20923 0.22833-0.099776 0.36244-0.25954 0.19915-0.37591 0.00257-0.27471 0.143-0.21772 0.30645-0.312 0.098375-0.35412-0.12615-0.30705 0.040424-0.3094 0.21351-0.32683-0.01427-0.28962-0.23966-0.30236-0.067031-0.36377 0.094811-0.30224-0.12519-0.19018-0.32426-0.2612-0.1664-0.37426-0.035323-0.2412-0.22102-0.067807-0.36975-0.18853-0.2457-0.33961-0.1612-0.15106-0.29018 0.062745-0.37065-0.093128-0.29536-0.26399-0.26763-0.042701-0.32435 0.18573-0.32683 0.013509-0.3094-0.15654-0.34178 0.070807-0.31939 0.28631-0.2436 0.11852-0.28612-0.030203-0.37471 0.17578-0.27591 0.35236-0.13098 0.20923-0.22833 0.099776-0.36244 0.25954-0.19915 0.37591-0.00257 0.27471-0.143 0.21772-0.30645 0.312-0.098375 0.35412 0.12615 0.30705-0.040424 0.3094-0.21351 0.32683 0.01427 0.28962 0.23966 0.30236 0.067031 0.36377-0.094811 0.30224 0.12519 0.19018 0.32426 0.2612 0.1664 0.37426 0.035323 0.2412 0.22102 0.067807 0.36975 0.18853 0.2457 0.33961 0.1612 0.15106 0.29018-0.062745 0.37065 0.093128 0.29536 0.26399 0.26763 0.042701 0.32435z" fill="url(#id1) none"/>
        <circle id="circle333" r="3.15" fill="url(#id2) none"/>
        <circle id="circle335" r="2.35" fill="url(#id3) none"/>
      </g>
      <g id="g345" transform="translate(5.08 24.13)">
        <path id="path339" d="m3.55 0-0.013509 0.3094 0.15654 0.34178-0.070807 0.31939-0.28631 0.2436-0.11852 0.28612 0.030203 0.37471-0.17578 0.27591-0.35236 0.13098-0.20923 0.22833-0.099776 0.36244-0.25954 0.19915-0.37591 0.00257-0.27471 0.143-0.21772 0.30645-0.312 0.098375-0.35412-0.12615-0.30705 0.040424-0.3094 0.21351-0.32683-0.01427-0.28962-0.23966-0.30236-0.067031-0.36377 0.094811-0.30224-0.12519-0.19018-0.32426-0.2612-0.1664-0.37426-0.035323-0.2412-0.22102-0.067807-0.36975-0.18853-0.2457-0.33961-0.1612-0.15106-0.29018 0.062745-0.37065-0.093128-0.29536-0.26399-0.26763-0.042701-0.32435 0.18573-0.32683 0.013509-0.3094-0.15654-0.34178 0.070807-0.31939 0.28631-0.2436 0.11852-0.28612-0.030203-0.37471 0.17578-0.27591 0.35236-0.13098 0.20923-0.22833 0.099776-0.36244 0.25954-0.19915 0.37591-0.00257 0.27471-0.143 0.21772-0.30645 0.312-0.098375 0.35412 0.12615 0.30705-0.040424 0.3094-0.21351 0.32683 0.01427 0.28962 0.23966 0.30236 0.067031 0.36377-0.094811 0.30224 0.12519 0.19018 0.32426 0.2612 0.1664 0.37426 0.035323 0.2412 0.22102 0.067807 0.36975 0.18853 0.2457 0.33961 0.1612 0.15106 0.29018-0.062745 0.37065 0.093128 0.29536 0.26399 0.26763 0.042701 0.32435z" fill="url(#id1) none"/>
        <circle id="circle341" r="3.15" fill="url(#id2) none"/>
        <circle id="circle343" r="2.35" fill="url(#id3) none"/>
      </g>
      <g id="g353" transform="translate(-5.08 40.64)">
        <path id="path347" d="m3.55 0-0.013509 0.3094 0.15654 0.34178-0.070807 0.31939-0.28631 0.2436-0.11852 0.28612 0.030203 0.37471-0.17578 0.27591-0.35236 0.13098-0.20923 0.22833-0.099776 0.36244-0.25954 0.19915-0.37591 0.00257-0.27471 0.143-0.21772 0.30645-0.312 0.098375-0.35412-0.12615-0.30705 0.040424-0.3094 0.21351-0.32683-0.01427-0.28962-0.23966-0.30236-0.067031-0.36377 0.094811-0.30224-0.12519-0.19018-0.32426-0.2612-0.1664-0.37426-0.035323-0.2412-0.22102-0.067807-0.36975-0.18853-0.2457-0.33961-0.1612-0.15106-0.29018 0.062745-0.37065-0.093128-0.29536-0.26399-0.26763-0.042701-0.32435 0.18573-0.32683 0.013509-0.3094-0.15654-0.34178 0.070807-0.31939 0.28631-0.2436 0.11852-0.28612-0.030203-0.37471 0.17578-0.27591 0.35236-0.13098 0.20923-0.22833 0.099776-0.36244 0.25954-0.19915 0.37591-0.00257 0.27471-0.143 0.21772-0.30645 0.312-0.098375 0.35412 0.12615 0.30705-0.040424 0.3094-0.21351 0.32683 0.01427 0.28962 0.23966 0.30236 0.067031 0.36377-0.094811 0.30224 0.12519 0.19018 0.32426 0.2612 0.1664 0.37426 0.035323 0.2412 0.22102 0.067807 0.36975 0.18853 0.2457 0.33961 0.1612 0.15106 0.29018-0.062745 0.37065 0.093128 0.29536 0.26399 0.26763 0.042701 0.32435z" fill="url(#id1) none"/>
        <circle id="circle349" r="3.15" fill="url(#id2) none"/>
        <circle id="circle351" r="2.35" fill="url(#id3) none"/>
      </g>
      <g id="g361" transform="translate(5.08 40.64)">
        <path id="path355" d="m3.55 0-0.013509 0.3094 0.15654 0.34178-0.070807 0.31939-0.28631 0.2436-0.11852 0.28612 0.030203 0.37471-0.17578 0.27591-0.35236 0.13098-0.20923 0.22833-0.099776 0.36244-0.25954 0.19915-0.37591 0.00257-0.27471 0.143-0.21772 0.30645-0.312 0.098375-0.35412-0.12615-0.30705 0.040424-0.3094 0.21351-0.32683-0.01427-0.28962-0.23966-0.30236-0.067031-0.36377 0.094811-0.30224-0.12519-0.19018-0.32426-0.2612-0.1664-0.37426-0.035323-0.2412-0.22102-0.067807-0.36975-0.18853-0.2457-0.33961-0.1612-0.15106-0.29018 0.062745-0.37065-0.093128-0.29536-0.26399-0.26763-0.042701-0.32435 0.18573-0.32683 0.013509-0.3094-0.15654-0.34178 0.070807-0.31939 0.28631-0.2436 0.11852-0.28612-0.030203-0.37471 0.17578-0.27591 0.35236-0.13098 0.20923-0.22833 0.099776-0.36244 0.25954-0.19915 0.37591-0.00257 0.27471-0.143 0.21772-0.30645 0.312-0.098375 0.35412 0.12615 0.30705-0.040424 0.3094-0.21351 0.32683 0.01427 0.28962 0.23966 0.30236 0.067031 0.36377-0.094811 0.30224 0.12519 0.19018 0.32426 0.2612 0.1664 0.37426 0.035323 0.2412 0.22102 0.067807 0.36975 0.18853 0.2457 0.33961 0.1612 0.15106 0.29018-0.062745 0.37065 0.093128 0.29536 0.26399 0.26763 0.042701 0.32435z" fill="url(#id1) none"/>
        <circle id="circle357" r="3.15" fill="url(#id2) none"/>
        <circle id="circle359" r="2.35" fill="url(#id3) none"/>
      </g>
      <g id="g369" transform="translate(-5.08 59.69)">
        <path id="path363" d="m3.55 0-0.013509 0.3094 0.15654 0.34178-0.070807 0.31939-0.28631 0.2436-0.11852 0.28612 0.030203 0.37471-0.17578 0.27591-0.35236 0.13098-0.20923 0.22833-0.099776 0.36244-0.25954 0.19915-0.37591 0.00257-0.27471 0.143-0.21772 0.30645-0.312 0.098375-0.35412-0.12615-0.30705 0.040424-0.3094 0.21351-0.32683-0.01427-0.28962-0.23966-0.30236-0.067031-0.36377 0.094811-0.30224-0.12519-0.19018-0.32426-0.2612-0.1664-0.37426-0.035323-0.2412-0.22102-0.067807-0.36975-0.18853-0.2457-0.33961-0.1612-0.15106-0.29018 0.062745-0.37065-0.093128-0.29536-0.26399-0.26763-0.042701-0.32435 0.18573-0.32683 0.013509-0.3094-0.15654-0.34178 0.070807-0.31939 0.28631-0.2436 0.11852-0.28612-0.030203-0.37471 0.17578-0.27591 0.35236-0.13098 0.20923-0.22833 0.099776-0.36244 0.25954-0.19915 0.37591-0.00257 0.27471-0.143 0.21772-0.30645 0.312-0.098375 0.35412 0.12615 0.30705-0.040424 0.3094-0.21351 0.32683 0.01427 0.28962 0.23966 0.30236 0.067031 0.36377-0.094811 0.30224 0.12519 0.19018 0.32426 0.2612 0.1664 0.37426 0.035323 0.2412 0.22102 0.067807 0.36975 0.18853 0.2457 0.33961 0.1612 0.15106 0.29018-0.062745 0.37065 0.093128 0.29536 0.26399 0.26763 0.042701 0.32435z" fill="url(#id1) none"/>
        <circle id="circle365" r="3.15" fill="url(#id2) none"/>
        <circle id="circle367" r="2.35" fill="url(#id3) none"/>
      </g>
      <g id="g377" transform="translate(5.08 59.69)">
        <path id="path371" d="m3.55 0-0.013509 0.3094 0.15654 0.34178-0.070807 0.31939-0.28631 0.2436-0.11852 0.28612 0.030203 0.37471-0.17578 0.27591-0.35236 0.13098-0.20923 0.22833-0.099776 0.36244-0.25954 0.19915-0.37591 0.00257-0.27471 0.143-0.21772 0.30645-0.312 0.098375-0.35412-0.12615-0.30705 0.040424-0.3094 0.21351-0.32683-0.01427-0.28962-0.23966-0.30236-0.067031-0.36377 0.094811-0.30224-0.12519-0.19018-0.32426-0.2612-0.1664-0.37426-0.035323-0.2412-0.22102-0.067807-0.36975-0.18853-0.2457-0.33961-0.1612-0.15106-0.29018 0.062745-0.37065-0.093128-0.29536-0.26399-0.26763-0.042701-0.32435 0.18573-0.32683 0.013509-0.3094-0.15654-0.34178 0.070807-0.31939 0.28631-0.2436 0.11852-0.28612-0.030203-0.37471 0.17578-0.27591 0.35236-0.13098 0.20923-0.22833 0.099776-0.36244 0.25954-0.19915 0.37591-0.00257 0.27471-0.143 0.21772-0.30645 0.312-0.098375 0.35412 0.12615 0.30705-0.040424 0.3094-0.21351 0.32683 0.01427 0.28962 0.23966 0.30236 0.067031 0.36377-0.094811 0.30224 0.12519 0.19018 0.32426 0.2612 0.1664 0.37426 0.035323 0.2412 0.22102 0.067807 0.36975 0.18853 0.2457 0.33961 0.1612 0.15106 0.29018-0.062745 0.37065 0.093128 0.29536 0.26399 0.26763 0.042701 0.32435z" fill="url(#id1) none"/>
        <circle id="circle373" r="3.15" fill="url(#id2) none"/>
        <circle id="circle375" r="2.35" fill="url(#id3) none"/>
      </g>
      <g id="g385" transform="translate(-5.08 76.2)">
        <path id="path379" d="m3.55 0-0.013509 0.3094 0.15654 0.34178-0.070807 0.31939-0.28631 0.2436-0.11852 0.28612 0.030203 0.37471-0.17578 0.27591-0.35236 0.13098-0.20923 0.22833-0.099776 0.36244-0.25954 0.19915-0.37591 0.00257-0.27471 0.143-0.21772 0.30645-0.312 0.098375-0.35412-0.12615-0.30705 0.040424-0.3094 0.21351-0.32683-0.01427-0.28962-0.23966-0.30236-0.067031-0.36377 0.094811-0.30224-0.12519-0.19018-0.32426-0.2612-0.1664-0.37426-0.035323-0.2412-0.22102-0.067807-0.36975-0.18853-0.2457-0.33961-0.1612-0.15106-0.29018 0.062745-0.37065-0.093128-0.29536-0.26399-0.26763-0.042701-0.32435 0.18573-0.32683 0.013509-0.3094-0.15654-0.34178 0.070807-0.31939 0.28631-0.2436 0.11852-0.28612-0.030203-0.37471 0.17578-0.27591 0.35236-0.13098 0.20923-0.22833 0.099776-0.36244 0.25954-0.19915 0.37591-0.00257 0.27471-0.143 0.21772-0.30645 0.312-0.098375 0.35412 0.12615 0.30705-0.040424 0.3094-0.21351 0.32683 0.01427 0.28962 0.23966 0.30236 0.067031 0.36377-0.094811 0.30224 0.12519 0.19018 0.32426 0.2612 0.1664 0.37426 0.035323 0.2412 0.22102 0.067807 0.36975 0.18853 0.2457 0.33961 0.1612 0.15106 0.29018-0.062745 0.37065 0.093128 0.29536 0.26399 0.26763 0.042701 0.32435z" fill="url(#id1) none"/>
        <circle id="circle381" r="3.15" fill="url(#id2) none"/>
        <circle id="circle383" r="2.35" fill="url(#id3) none"/>
      </g>
      <g id="g393" transform="translate(5.08 76.2)">
        <path id="path387" d="m3.55 0-0.013509 0.3094 0.15654 0.34178-0.070807 0.31939-0.28631 0.2436-0.11852 0.28612 0.030203 0.37471-0.17578 0.27591-0.35236 0.13098-0.20923 0.22833-0.099776 0.36244-0.25954 0.19915-0.37591 0.00257-0.27471 0.143-0.21772 0.30645-0.312 0.098375-0.35412-0.12615-0.30705 0.040424-0.3094 0.21351-0.32683-0.01427-0.28962-0.23966-0.30236-0.067031-0.36377 0.094811-0.30224-0.12519-0.19018-0.32426-0.2612-0.1664-0.37426-0.035323-0.2412-0.22102-0.067807-0.36975-0.18853-0.2457-0.33961-0.1612-0.15106-0.29018 0.062745-0.37065-0.093128-0.29536-0.26399-0.26763-0.042701-0.32435 0.18573-0.32683 0.013509-0.3094-0.15654-0.34178 0.070807-0.31939 0.28631-0.2436 0.11852-0.28612-0.030203-0.37471 0.17578-0.27591 0.35236-0.13098 0.20923-0.22833 0.099776-0.36244 0.25954-0.19915 0.37591-0.00257 0.27471-0.143 0.21772-0.30645 0.312-0.098375 0.35412 0.12615 0.30705-0.040424 0.3094-0.21351 0.32683 0.01427 0.28962 0.23966 0.30236 0.067031 0.36377-0.094811 0.30224 0.12519 0.19018 0.32426 0.2612 0.1664 0.37426 0.035323 0.2412 0.22102 0.067807 0.36975 0.18853 0.2457 0.33961 0.1612 0.15106 0.29018-0.062745 0.37065 0.093128 0.29536 0.26399 0.26763 0.042701 0.32435z" fill="url(#id1) none"/>
        <circle id="circle389" r="3.15" fill="url(#id2) none"/>
        <circle id="circle391" r="2.35" fill="url(#id3) none"/>
      </g>
      <g id="g401" transform="translate(-5.08 92.71)">
        <path id="path395" d="m3.55 0-0.013509 0.3094 0.15654 0.34178-0.070807 0.31939-0.28631 0.2436-0.11852 0.28612 0.030203 0.37471-0.17578 0.27591-0.35236 0.13098-0.20923 0.22833-0.099776 0.36244-0.25954 0.19915-0.37591 0.00257-0.27471 0.143-0.21772 0.30645-0.312 0.098375-0.35412-0.12615-0.30705 0.040424-0.3094 0.21351-0.32683-0.01427-0.28962-0.23966-0.30236-0.067031-0.36377 0.094811-0.30224-0.12519-0.19018-0.32426-0.2612-0.1664-0.37426-0.035323-0.2412-0.22102-0.067807-0.36975-0.18853-0.2457-0.33961-0.1612-0.15106-0.29018 0.062745-0.37065-0.093128-0.29536-0.26399-0.26763-0.042701-0.32435 0.18573-0.32683 0.013509-0.3094-0.15654-0.34178 0.070807-0.31939 0.28631-0.2436 0.11852-0.28612-0.030203-0.37471 0.17578-0.27591 0.35236-0.13098 0.20923-0.22833 0.099776-0.36244 0.25954-0.19915 0.37591-0.00257 0.27471-0.143 0.21772-0.30645 0.312-0.098375 0.35412 0.12615 0.30705-0.040424 0.3094-0.21351 0.32683 0.01427 0.28962 0.23966 0.30236 0.067031 0.36377-0.094811 0.30224 0.12519 0.19018 0.32426 0.2612 0.1664 0.37426 0.035323 0.2412 0.22102 0.067807 0.36975 0.18853 0.2457 0.33961 0.1612 0.15106 0.29018-0.062745 0.37065 0.093128 0.29536 0.26399 0.26763 0.042701 0.32435z" fill="url(#id1) none"/>
        <circle id="circle397" r="3.15" fill="url(#id2) none"/>
        <circle id="circle399" r="2.35" fill="url(#id3) none"/>
      </g>
      <g id="g409" transform="translate(5.08 92.71)">
        <path id="path403" d="m3.55 0-0.013509 0.3094 0.15654 0.34178-0.070807 0.31939-0.28631 0.2436-0.11852 0.28612 0.030203 0.37471-0.17578 0.27591-0.35236 0.13098-0.20923 0.22833-0.099776 0.36244-0.25954 0.19915-0.37591 0.00257-0.27471 0.143-0.21772 0.30645-0.312 0.098375-0.35412-0.12615-0.30705 0.040424-0.3094 0.21351-0.32683-0.01427-0.28962-0.23966-0.30236-0.067031-0.36377 0.094811-0.30224-0.12519-0.19018-0.32426-0.2612-0.1664-0.37426-0.035323-0.2412-0.22102-0.067807-0.36975-0.18853-0.2457-0.33961-0.1612-0.15106-0.29018 0.062745-0.37065-0.093128-0.29536-0.26399-0.26763-0.042701-0.32435 0.18573-0.32683 0.013509-0.3094-0.15654-0.34178 0.070807-0.31939 0.28631-0.2436 0.11852-0.28612-0.030203-0.37471 0.17578-0.27591 0.35236-0.13098 0.20923-0.22833 0.099776-0.36244 0.25954-0.19915 0.37591-0.00257 0.27471-0.143 0.21772-0.30645 0.312-0.098375 0.35412 0.12615 0.30705-0.040424 0.3094-0.21351 0.32683 0.01427 0.28962 0.23966 0.30236 0.067031 0.36377-0.094811 0.30224 0.12519 0.19018 0.32426 0.2612 0.1664 0.37426 0.035323 0.2412 0.22102 0.067807 0.36975 0.18853 0.2457 0.33961 0.1612 0.15106 0.29018-0.062745 0.37065 0.093128 0.29536 0.26399 0.26763 0.042701 0.32435z" fill="url(#id1) none"/>
        <circle id="circle405" r="3.15" fill="url(#id2) none"/>
        <circle id="circle407" r="2.35" fill="url(#id3) none"/>
      </g>
    </g>
  </g>
</svg>
