<svg xmlns="http://www.w3.org/2000/svg" width="523.843" height="243.844" viewBox="0 0 138.6 64.517" xmlns:v="https://vecta.io/nano" style="background-color:white"><defs><clipPath id="A"><path d="M115.46-14.165h44.634v93.277H115.46z" opacity=".997" fill="#fff" fill-opacity="1" stroke="none" stroke-width="6" stroke-miterlimit="4" stroke-dasharray="none" stroke-opacity="1"/></clipPath></defs><path d="M106.34 5.8c14.613 0 26.458 11.846 26.458 26.458s-11.846 26.458-26.458 26.458S85.175 48.133 69.3 32.258C85.175 16.383 91.73 5.8 106.34 5.8zm-74.083 0C17.645 5.8 5.8 17.645 5.8 32.258s11.846 26.458 26.458 26.458S53.425 48.133 69.3 32.258C53.425 16.383 46.87 5.8 32.258 5.8z" opacity=".996" fill="none" stroke="#000" stroke-width="11.6"/><path d="M61.07 16.1l-.012 7.31c-11.285-.015-22.57-.01-33.854.006-.252.113-1.024-.295-1.474-.392-1.062-.302-2.1-.79-3.214-.86-1.52.167-2.033 1.836-2.898 2.847l-5.24 7.26 7.64 10.43c2.34-.75 4.652-1.587 7.014-2.266 1.784 1.165 4 .55 5.98.68l26.06.005-.008 6.875c.335.967 1.505 1.018 2.31.908l42.5.014 11.63-4.5 14.182.158-.04-4.734 5.328-2.46.182-9.926-5.623-2.756-.04-4.62c-4.87-.323-9.83.16-14.6-.518-4.037-1.365-7.967-3.124-12.156-3.982h-43.68v.53z" opacity=".997" fill="#fff"/><path d="M65.26 19.777v7.825H31.763v9.312H65.26v7.825h39.835l11.64-4.527 10.735.13-.03-3.922 7.45-.4.134-7.253-7.65-.668-.03-3.922-10.347-.13-11.9-4.268zm-41.71 6.96l-4 5.535 4.03 5.505 6.482-2.133-.026-6.824z" opacity=".997"/><path clip-path="url(#A)" d="M105.833 5.292c14.613 0 26.458 11.846 26.458 26.458s-11.846 26.458-26.458 26.458S84.667 47.625 68.792 31.75C84.667 15.875 91.22 5.292 105.833 5.292zm-74.083 0c-14.613 0-26.458 11.846-26.458 26.458S17.137 58.208 31.75 58.208 52.917 47.625 68.792 31.75C52.917 15.875 46.363 5.292 31.75 5.292z" opacity=".996" fill="none" stroke="#000" stroke-width="11.6" transform="translate(.508 .508)"/><path d="M31.92 22.98h.275v18.014h-.275z" opacity=".997" stroke="#fff" stroke-width="3.217"/></svg>