<?xml version="1.0" encoding="UTF-8" standalone="no"?>
<svg
   xmlns:dc="http://purl.org/dc/elements/1.1/"
   xmlns:cc="http://creativecommons.org/ns#"
   xmlns:rdf="http://www.w3.org/1999/02/22-rdf-syntax-ns#"
   xmlns:svg="http://www.w3.org/2000/svg"
   xmlns="http://www.w3.org/2000/svg"
   xmlns:sodipodi="http://sodipodi.sourceforge.net/DTD/sodipodi-0.dtd"
   xmlns:inkscape="http://www.inkscape.org/namespaces/inkscape"
   inkscape:version="1.0 (4035a4fb49, 2020-05-01)"
   sodipodi:docname="logo_black_optimized_inkscape.svg"
   id="svg6"
   viewBox="0 0 1048 488"
   height="650.667"
   width="1397.333"
   version="1.0">
  <metadata
     id="metadata12">
    <rdf:RDF>
      <cc:Work
         rdf:about="">
        <dc:format>image/svg+xml</dc:format>
        <dc:type
           rdf:resource="http://purl.org/dc/dcmitype/StillImage" />
        <dc:title></dc:title>
      </cc:Work>
    </rdf:RDF>
  </metadata>
  <defs
     id="defs10" />
  <sodipodi:namedview
     inkscape:current-layer="svg6"
     inkscape:window-maximized="1"
     inkscape:window-y="-8"
     inkscape:window-x="1912"
     inkscape:cy="177.99278"
     inkscape:cx="534.71637"
     inkscape:zoom="0.76359751"
     showgrid="false"
     id="namedview8"
     inkscape:window-height="1017"
     inkscape:window-width="1920"
     inkscape:pageshadow="2"
     inkscape:pageopacity="0"
     guidetolerance="10"
     gridtolerance="10"
     objecttolerance="10"
     borderopacity="1"
     bordercolor="#666666"
     pagecolor="#ffffff" />
  <path
     sodipodi:nodetypes="ccccccccccccccccccscccccccccccc"
     id="path2"
     d="M 225,0.6 C 141.4,8.3 71.2,53.7 30.1,126.7 16.8,150.3 7.1,179.6 2.3,210 c -2.4,16.1 -2.4,51.9 0,68 8,51 29.1,95.6 62.6,131.5 38.8,41.6 87.9,67.4 145.1,76.2 16.2,2.5 51.9,2.4 68.5,-0.1 35.2,-5.3 65.9,-17.3 96.4,-37.7 24.2,-16.1 43.2,-32.3 73,-62.3 13.27024,-16.3396 14.22681,-17.51807 14.22681,-17.51807 L 462,311 h -63.3 l -19.6,19.3 c -43.1,42.3 -70.6,59.8 -106.1,67.4 -6.7,1.4 -12.8,1.8 -29.5,1.7 -19.4,0 -21.9,-0.2 -33,-2.8 -30.6,-7.2 -54.1,-20 -75.9,-41.4 C 112.1,333 97.9,307.1 90.8,275.3 88.9,266.9 88.6,262.5 88.6,244 c 0,-23.6 1.2,-31.6 7.4,-50.2 10.9,-32.5 34.3,-62.3 63.9,-81.5 23.6,-15.2 49.6,-23.1 79.1,-24 51.1,-1.6 85,15.2 140.1,69.4 l 19.6,19.3 h 63.2 l 0.3,-30.1 0.3,-30 L 442,96.6 C 430.7,85.5 416.8,72.4 411,67.4 366.3,29.2 326.3,9.6 279,2.5 268.9,1 234.3,-0.2 225,0.6 Z" />
  <path
     sodipodi:nodetypes="ccccccscccccccccccccccccccccccsccscccccccccc"
     id="path4"
     d="M 785,0.6 C 718,6.7 668.2,33.9 601.5,100.9 l -17,17.1 h 129.4 l 8.7,-5.6 c 16.7,-10.9 33.7,-18.1 52.4,-22.1 6.6,-1.4 13,-1.8 29,-1.8 21.3,0 27.7,0.8 44.5,5.7 39.4,11.3 76,42 94.9,79.4 2,3.9 3.6,7.6 3.6,8.1 -22.23071,1.32545 -37.59184,0.39789 -62.5,0 C 854.94342,171.19827 825.42278,160.59621 795.9,150 H 493 v 59 H 255.43665 L 256,279 h 237 v 59 h 302.9 c 29.17526,-11.43027 58.38871,-22.76228 87.6,-34.1 21.46667,0.46667 42.93333,0.93333 64.4,1.4 l -4.6,9 c -5.6,11.3 -8,15.1 -16.4,25.7 -26.1,33.1 -63.5,54.2 -104.9,59.1 -11.9,1.5 -37.9,0.6 -48,-1.6 -17.6,-3.8 -35.2,-11.4 -51.8,-22.1 L 713.9,370 H 584.5 l 17,17.1 c 54.4,54.6 96.2,81.7 145,93.8 20.8,5.2 32.6,6.5 57.5,6.5 26.1,0 37.9,-1.4 62,-7.5 84.8,-21.7 153,-90.2 174.5,-175.4 5.6,-22.4 7,-34.1 7,-60.5 0,-26.4 -1.4,-38.1 -7,-60.5 -19,-75.3 -75,-138.6 -147.8,-167 C 878.7,11 855,4.9 839,2.5 828,0.9 794.8,-0.3 785,0.6 Z m -637.1,243.5 31,41.3 c 17.00955,-5.39985 48.1,-15.5 48.1,-15.5 l -0.5,-52.3 -48.4,-15.4 z" />
</svg>
