<?xml version="1.0" encoding="UTF-8" standalone="no"?>
<svg
   id="svg8"
   version="1.1"
   viewBox="0 0 138.59981 64.515442"
   height="64.515442mm"
   width="138.59981mm"
   xmlns="http://www.w3.org/2000/svg"
   xmlns:svg="http://www.w3.org/2000/svg"
   xmlns:rdf="http://www.w3.org/1999/02/22-rdf-syntax-ns#"
   xmlns:cc="http://creativecommons.org/ns#"
   xmlns:dc="http://purl.org/dc/elements/1.1/">
  <defs
     id="defs2" />
  <metadata
     id="metadata5">
    <rdf:RDF>
      <cc:Work
         rdf:about="">
        <dc:format>image/svg+xml</dc:format>
        <dc:type
           rdf:resource="http://purl.org/dc/dcmitype/StillImage" />
      </cc:Work>
    </rdf:RDF>
  </metadata>
  <path
     id="path1"
     style="color:#000000;fill:#20aaac;stroke:none;stroke-width:0;stroke-dasharray:none;fill-opacity:1"
     d="M 121.91992,0 C 54.844381,0 0,54.844381 0,121.91992 c 0,67.07554 54.844382,121.91992 121.91992,121.91992 32.90644,0 59.61185,-13.35093 82.4043,-32.71679 8.0602,-6.84844 16.11455,-14.60343 24.40234,-22.98438 l -0.0449,-30.74609 -31.375,0.0137 c -7.77322,7.88773 -14.91257,14.81576 -21.375,20.30664 -18.40039,15.6341 -31.68979,22.28516 -54.01172,22.28516 -43.381302,0 -78.078123,-34.69682 -78.078123,-78.07813 0,-43.381304 34.696819,-78.078123 78.078123,-78.078123 22.32193,0 35.61133,6.651057 54.01172,22.285156 6.46243,5.490879 13.60178,12.41891 21.375,20.306641 l 31.375,0.01367 0.0449,-30.746122 C 220.43877,47.320221 212.38442,39.565236 204.32422,32.716797 181.53177,13.350934 154.82636,0 121.91992,0 Z m 280,0 C 369.01438,5.3417351e-4 342.30957,13.351321 319.51758,32.716797 311.09651,39.871854 302.68369,48.006638 294,56.824219 h 65.85938 c 12.97285,-8.997479 24.83194,-12.982112 42.06054,-12.982422 h 0.002 c 32.47947,0 60.08761,19.450112 71.91406,47.431641 l -31.64844,-0.394532 -44.97266,-16.132812 -150.55859,0.002 V 104.32227 H 127.81836 v 35.19531 h 118.83789 v 29.57422 l 150.55859,0.002 44.97266,-16.13281 31.64844,-0.39453 c -11.82645,27.98152 -39.43458,47.43164 -71.91406,47.43164 h -0.002 c -17.2286,-3.1e-4 -29.08768,-3.98495 -42.06054,-12.98243 H 294 c 8.68369,8.81759 17.09651,16.95237 25.51758,24.10743 22.79199,19.36547 49.4968,32.71626 82.40234,32.71679 h 0.002 c 67.07557,0 121.91992,-54.84438 121.91992,-121.91992 C 523.8418,54.844381 468.99744,0 401.92188,0 Z m -312.796873,101.07812 -15.142578,20.8418 15.142578,20.8418 24.501953,-7.96094 v -25.76172 z"
     transform="scale(0.26458333)" />
</svg>
