<?xml version="1.0" encoding="UTF-8" standalone="no"?>
<svg
   xmlns:dc="http://purl.org/dc/elements/1.1/"
   xmlns:cc="http://creativecommons.org/ns#"
   xmlns:rdf="http://www.w3.org/1999/02/22-rdf-syntax-ns#"
   xmlns:svg="http://www.w3.org/2000/svg"
   xmlns="http://www.w3.org/2000/svg"
   xmlns:sodipodi="http://sodipodi.sourceforge.net/DTD/sodipodi-0.dtd"
   xmlns:inkscape="http://www.inkscape.org/namespaces/inkscape"
   width="138.60002mm"
   height="64.51667mm"
   viewBox="0 0 138.60002 64.51667"
   version="1.1"
   id="svg8"
   inkscape:version="1.0 (4035a4fb49, 2020-05-01)"
   sodipodi:docname="logo.svg">
  <defs
     id="defs2">
    <inkscape:path-effect
       message="Use fill-rule evenodd on &lt;b&gt;fill and stroke&lt;/b&gt; dialog if no flatten result after convert clip to paths."
       hide_clip="false"
       flatten="false"
       inverse="true"
       lpeversion="1"
       is_visible="true"
       id="path-effect878"
       effect="powerclip" />
    <clipPath
       id="clipPath980"
       clipPathUnits="userSpaceOnUse">
      <rect
         y="-14.165285"
         x="115.46043"
         height="93.277069"
         width="44.63401"
         id="rect982"
         style="opacity:0.997;fill:#ffffff;fill-opacity:1;stroke:none;stroke-width:6.00001;stroke-miterlimit:4;stroke-dasharray:none;stroke-opacity:1" />
    </clipPath>
    <clipPath
       id="clipPath874"
       clipPathUnits="userSpaceOnUse">
      <path
         sodipodi:nodetypes="cccccccccccccccccccccccccc"
         d="m 60.505858,22.873047 -31.4375,-0.01367 -0.796486,0.602193 -6.869529,-2.201802 -7.583985,10.51758 7.673829,10.476561 7.98242,-2.613282 2.694141,1.000001 h 28.348829 l 9e-5,7.824218 v 1.417339 l 1.608545,-1.417339 h 43.256598 l 11.62891,-4.511717 14.2168,0.162108 -0.0312,-4.1875 -0.12891,-16.226563 -0.0312,-4.173828 -14.52014,-0.468668 -12.10095,-4.02352 H 82.466897 62.067215 l -1.549548,-1.135661 v 1.135661 l -0.0059,3.918944 z"
         style="display:none;opacity:0.996;fill:#ac2075;fill-opacity:1;stroke:none;stroke-width:4.10615;stroke-miterlimit:4;stroke-dasharray:none;stroke-opacity:0.46371"
         id="path876" />
      <path
         d="M -5.5083336,-5.5083336 H 143.09167 V 69.008333 H -5.5083336 Z m 66.0141916,28.3813806 -31.4375,-0.01367 -0.796486,0.602193 -6.869529,-2.201802 -7.583985,10.51758 7.673829,10.476561 7.98242,-2.613282 2.694141,1.000001 h 28.348829 l 9e-5,7.824218 v 1.417339 l 1.608545,-1.417339 h 43.256598 l 11.62891,-4.511717 14.2168,0.162108 -0.0312,-4.1875 -0.12891,-16.226563 -0.0312,-4.173828 -14.52014,-0.468668 -12.10095,-4.02352 H 82.466897 62.067215 l -1.549548,-1.135661 v 1.135661 l -0.0059,3.918944 z"
         class="powerclip"
         style="opacity:0.996;fill:#ac2075;fill-opacity:1;stroke:none;stroke-width:4.10615;stroke-miterlimit:4;stroke-dasharray:none;stroke-opacity:0.46371"
         id="lpe_path-effect878" />
    </clipPath>
  </defs>
  <sodipodi:namedview
     id="base"
     pagecolor="#ffffff"
     bordercolor="#666666"
     borderopacity="1.0"
     inkscape:pageopacity="0.0"
     inkscape:pageshadow="2"
     inkscape:zoom="1"
     inkscape:cx="202.91739"
     inkscape:cy="4.9964313"
     inkscape:document-units="mm"
     inkscape:current-layer="layer1"
     inkscape:document-rotation="0"
     showgrid="true"
     inkscape:window-width="1920"
     inkscape:window-height="1017"
     inkscape:window-x="-8"
     inkscape:window-y="-8"
     inkscape:window-maximized="1" />
  <metadata
     id="metadata5">
    <rdf:RDF>
      <cc:Work
         rdf:about="">
        <dc:format>image/svg+xml</dc:format>
        <dc:type
           rdf:resource="http://purl.org/dc/dcmitype/StillImage" />
        <dc:title />
      </cc:Work>
    </rdf:RDF>
  </metadata>
  <g
     transform="translate(0.50833359,0.50833359)"
     inkscape:label="Layer 1"
     inkscape:groupmode="layer"
     id="layer1">
    <path
       inkscape:original-d="m 105.83333,5.2916666 c 14.61254,0 26.45834,11.8457994 26.45834,26.4583334 0,14.612532 -11.8458,26.458333 -26.45834,26.458333 C 91.220801,58.208333 84.666667,47.625 68.791667,31.75 84.666667,15.875 91.220801,5.2916666 105.83333,5.2916666 Z m -74.08333,0 C 17.137466,5.2916666 5.2916666,17.137466 5.2916666,31.75 5.2916666,46.362532 17.137466,58.208333 31.75,58.208333 46.362532,58.208333 52.916666,47.624999 68.791666,31.75 52.916666,15.875 46.362532,5.2916666 31.75,5.2916666 Z"
       inkscape:path-effect="#path-effect878"
       clip-path="url(#clipPath874)"
       id="path876-7"
       style="opacity:0.996;fill:none;fill-opacity:1;stroke:#20aaac;stroke-width:11.6;stroke-miterlimit:4;stroke-dasharray:none;stroke-opacity:1"
       d="m 105.83333,5.2916666 c 14.61254,0 26.45834,11.8457994 26.45834,26.4583334 0,14.612532 -11.8458,26.458333 -26.45834,26.458333 C 91.220801,58.208333 84.666667,47.625 68.791667,31.75 84.666667,15.875 91.220801,5.2916666 105.83333,5.2916666 Z m -74.08333,0 C 17.137466,5.2916666 5.2916666,17.137466 5.2916666,31.75 5.2916666,46.362532 17.137466,58.208333 31.75,58.208333 46.362532,58.208333 52.916666,47.624999 68.791666,31.75 52.916666,15.875 46.362532,5.2916666 31.75,5.2916666 Z" />
    <path
       sodipodi:nodetypes="ccccccccccccccccccccccc"
       d="m 64.753124,19.269053 v 7.824929 l -31.442458,0 v 9.311684 l 31.442458,3.54e-4 v 7.824927 H 104.5886 l 11.64014,-4.526759 10.73513,0.129438 -0.0315,-3.922367 7.4511,-0.400904 0.13363,-7.253438 -7.6512,-0.668174 -0.0315,-3.922367 -10.34683,-0.129083 -11.899,-4.26824 z m -41.709134,6.9606 -3.989914,5.535378 4.031291,5.505318 6.481752,-2.132883 -0.02581,-6.823736 z"
       style="opacity:0.996;fill:#20aaac;fill-opacity:1;stroke:none;stroke-width:4.10616;stroke-miterlimit:4;stroke-dasharray:none;stroke-opacity:0.46371"
       id="rect940" />
    <path
       clip-path="url(#clipPath980)"
       d="m 105.83333,5.2916672 c 14.61254,0 26.45835,11.8457998 26.45835,26.4583328 0,14.612533 -11.84581,26.458334 -26.45835,26.458334 C 91.220796,58.208334 84.666666,47.625 68.791666,31.75 84.666666,15.875001 91.220796,5.2916672 105.83333,5.2916672 Z m -74.083334,0 C 17.137463,5.2916672 5.291663,17.137467 5.291663,31.75 c 0,14.612533 11.8458,26.458334 26.458333,26.458334 C 46.362529,58.208334 52.916663,47.625 68.791666,31.75 52.916663,15.875001 46.362529,5.2916672 31.749996,5.2916672 Z"
       style="opacity:0.996;fill:none;fill-opacity:1;stroke:#20aaac;stroke-width:11.6;stroke-miterlimit:4;stroke-dasharray:none;stroke-opacity:1"
       id="path876-7-0" />
  </g>
</svg>
