<svg xmlns="http://www.w3.org/2000/svg" xmlns:xlink="http://www.w3.org/1999/xlink" viewBox="0 0 138.6 64.517" height="243.844" width="523.843" xmlns:v="https://vecta.io/nano"><defs><clipPath id="A"><path d="M115.46-14.165h44.634v93.277H115.46z" opacity=".997" fill="#fff" fill-opacity="1" stroke="none" stroke-width="6" stroke-miterlimit="4" stroke-dasharray="none" stroke-opacity="1"/></clipPath><clipPath id="B"><path d="M-5.508-5.508h148.6v74.517h-148.6zm66.014 28.381l-31.437-.014-.796.602-6.87-2.202-7.584 10.518 7.674 10.477 7.982-2.613 2.694 1h28.349v7.824 1.417l1.609-1.417h43.257l11.629-4.512 14.217.162-.031-4.187-.129-16.227-.031-4.174-14.52-.469-12.101-4.024H82.467h-20.4l-1.55-1.136v1.136l-.006 3.919z" opacity=".996" fill="#ac2075" fill-opacity="1" stroke="none" stroke-width="4.106" stroke-miterlimit="4" stroke-dasharray="none" stroke-opacity=".464"/></clipPath><path id="C" d="M105.833 5.292c14.613 0 26.458 11.846 26.458 26.458s-11.846 26.458-26.458 26.458S84.667 47.625 68.792 31.75C84.667 15.875 91.221 5.292 105.833 5.292zm-74.083 0c-14.613 0-26.458 11.846-26.458 26.458S17.137 58.208 31.75 58.208 52.917 47.625 68.792 31.75C52.917 15.875 46.363 5.292 31.75 5.292z"/></defs><g transform="translate(.508 .508)"><use xlink:href="#C" clip-path="url(#B)" opacity=".996" fill="none" stroke="#000" stroke-width="11.6"/><path d="M64.753 19.269v7.825H33.311v9.312h31.442v7.825h39.835l11.64-4.527 10.735.129-.031-3.922 7.451-.401.134-7.253-7.651-.668-.031-3.922-10.347-.129-11.899-4.268zM23.044 26.23l-3.99 5.535 4.031 5.505 6.482-2.133-.026-6.824z" opacity=".996"/><use xlink:href="#C" clip-path="url(#A)" opacity=".996" fill="none" stroke="#000" stroke-width="11.6"/></g></svg>