<?xml version="1.0" encoding="UTF-8" standalone="no"?>
<svg
   id="svg8"
   version="1.1"
   viewBox="0 0 150.85415 150.85416"
   height="150.85416mm"
   width="150.85416mm"
   xmlns="http://www.w3.org/2000/svg"
   xmlns:svg="http://www.w3.org/2000/svg"
   xmlns:rdf="http://www.w3.org/1999/02/22-rdf-syntax-ns#"
   xmlns:cc="http://creativecommons.org/ns#"
   xmlns:dc="http://purl.org/dc/elements/1.1/">
  <defs
     id="defs2">
    <clipPath
       clipPathUnits="userSpaceOnUse"
       id="clipPath980">
      <rect
         style="opacity:0.997;fill:#ffffff;fill-opacity:1;stroke:none;stroke-width:6.00001;stroke-miterlimit:4;stroke-dasharray:none;stroke-opacity:1"
         id="rect982"
         width="44.63401"
         height="93.277069"
         x="115.46043"
         y="-14.165285" />
    </clipPath>
    <clipPath
       clipPathUnits="userSpaceOnUse"
       id="clipPath874">
      <path
         id="path876"
         style="display:block;opacity:0.996;fill:#ac2075;fill-opacity:1;stroke:none;stroke-width:4.10615;stroke-miterlimit:4;stroke-dasharray:none;stroke-opacity:0.46371"
         d="m 60.505858,22.873047 -31.4375,-0.01367 -0.796486,0.602193 -6.869529,-2.201802 -7.583985,10.51758 7.673829,10.476561 7.98242,-2.613282 2.694141,1.000001 h 28.348829 l 9e-5,7.824218 v 1.417339 l 1.608545,-1.417339 h 43.256598 l 11.62891,-4.511717 14.2168,0.162108 -0.0312,-4.1875 -0.12891,-16.226563 -0.0312,-4.173828 -14.52014,-0.468668 -12.10095,-4.02352 H 82.466897 62.067215 l -1.549548,-1.135661 v 1.135661 l -0.0059,3.918944 z" />
    </clipPath>
  </defs>
  <metadata
     id="metadata5">
    <rdf:RDF>
      <cc:Work
         rdf:about="">
        <dc:format>image/svg+xml</dc:format>
        <dc:type
           rdf:resource="http://purl.org/dc/dcmitype/StillImage" />
      </cc:Work>
    </rdf:RDF>
  </metadata>
  <path
     id="path839"
     style="fill:#20aaac;fill-opacity:1;stroke-width:4.665;stroke-linecap:round;stroke-linejoin:round"
     d="M 75.426918,0 C 33.769831,4.5298706e-5 8.7674891e-5,33.769789 0,75.426918 -1.987308e-4,117.08425 33.769628,150.85431 75.426918,150.85436 117.08421,150.85431 150.85404,117.08425 150.85384,75.426918 150.85375,33.769786 117.08401,4.3837455e-5 75.426918,0 Z" />
  <path
     id="path1"
     style="color:#000000;fill:#ffffff;stroke:none;stroke-width:0;stroke-dasharray:none;fill-opacity:1"
     d="m 38.385267,43.168929 c -17.74707,0 -32.2579792,14.510909 -32.2579792,32.257978 0,17.74707 14.5109092,32.257983 32.2579792,32.257983 8.70649,0 15.7723,-3.53244 21.8028,-8.656321 2.1326,-1.811983 4.26364,-3.863825 6.45646,-6.081284 l -0.0119,-8.134903 -8.30131,0.0036 c -2.05666,2.086962 -3.94561,3.920003 -5.65546,5.372798 -4.86844,4.136522 -8.38459,5.896282 -14.29061,5.896282 -11.47796,0 -20.65817,-9.1802 -20.65817,-20.658171 0,-11.477971 9.1802,-20.65817 20.65817,-20.65817 5.90602,0 9.42217,1.759758 14.29061,5.89628 1.70985,1.452795 3.5988,3.285837 5.65546,5.372799 l 8.30131,0.0036 0.0119,-8.134911 c -2.19282,-2.21746 -4.32386,-4.2693 -6.45646,-6.081283 -6.0305,-5.123884 -13.09631,-8.656319 -21.8028,-8.656319 z m 74.083333,0 c -8.70626,1.41e-4 -15.771903,3.532537 -21.802283,8.656319 -2.22808,1.893109 -4.45397,4.045437 -6.75153,6.378422 h 17.425293 c 3.4324,-2.380583 6.57012,-3.43485 11.12852,-3.434932 h 5.3e-4 c 8.59353,0 15.89818,5.146175 19.02726,12.549621 l -8.37365,-0.104386 -11.89901,-4.268474 -39.835303,5.3e-4 v 7.824834 h -31.44253 v 9.312092 h 31.44252 v 7.824846 l 39.835303,5.29e-4 11.89901,-4.268473 8.37365,-0.104386 c -3.12908,7.403444 -10.43373,12.549621 -19.02726,12.549621 h -5.3e-4 c -4.5584,-8.2e-5 -7.69611,-1.054351 -11.12852,-3.434934 H 83.914787 c 2.29756,2.332987 4.52345,4.485314 6.75153,6.378424 6.03038,5.123778 13.096023,8.656178 21.802283,8.656318 h 5.3e-4 c 17.74708,0 32.25798,-14.51091 32.25798,-32.257979 -1e-5,-17.747083 -14.51091,-32.257992 -32.25799,-32.257992 z m -82.760843,26.743586 -4.00647,5.514392 4.00647,5.514393 6.48281,-2.106332 v -6.816121 z" />
</svg>
