<?xml version="1.0" encoding="UTF-8" standalone="no"?>
<svg
   xmlns:dc="http://purl.org/dc/elements/1.1/"
   xmlns:cc="http://creativecommons.org/ns#"
   xmlns:rdf="http://www.w3.org/1999/02/22-rdf-syntax-ns#"
   xmlns:svg="http://www.w3.org/2000/svg"
   xmlns="http://www.w3.org/2000/svg"
   xmlns:sodipodi="http://sodipodi.sourceforge.net/DTD/sodipodi-0.dtd"
   xmlns:inkscape="http://www.inkscape.org/namespaces/inkscape"
   width="138.60002mm"
   height="148.58467mm"
   viewBox="0 0 138.60002 148.58467"
   version="1.1"
   id="svg8"
   inkscape:version="1.0 (4035a4fb49, 2020-05-01)"
   sodipodi:docname="logo_with_text.svg">
  <defs
     id="defs2">
    <clipPath
       id="clipPath980"
       clipPathUnits="userSpaceOnUse">
      <rect
         y="-14.165285"
         x="115.46043"
         height="93.277069"
         width="44.63401"
         id="rect982"
         style="opacity:0.997;fill:#ffffff;fill-opacity:1;stroke:none;stroke-width:6.00001;stroke-miterlimit:4;stroke-dasharray:none;stroke-opacity:1" />
    </clipPath>
  </defs>
  <sodipodi:namedview
     id="base"
     pagecolor="#ffffff"
     bordercolor="#666666"
     borderopacity="1.0"
     inkscape:pageopacity="0.0"
     inkscape:pageshadow="2"
     inkscape:zoom="0.98994949"
     inkscape:cx="-39.878225"
     inkscape:cy="395.82181"
     inkscape:document-units="mm"
     inkscape:current-layer="text843"
     inkscape:document-rotation="0"
     showgrid="true"
     inkscape:window-width="1920"
     inkscape:window-height="1017"
     inkscape:window-x="-8"
     inkscape:window-y="-8"
     inkscape:window-maximized="1" />
  <metadata
     id="metadata5">
    <rdf:RDF>
      <cc:Work
         rdf:about="">
        <dc:format>image/svg+xml</dc:format>
        <dc:type
           rdf:resource="http://purl.org/dc/dcmitype/StillImage" />
        <dc:title />
      </cc:Work>
    </rdf:RDF>
  </metadata>
  <g
     transform="translate(0.50833359,0.50833359)"
     inkscape:label="Layer 1"
     inkscape:groupmode="layer"
     id="layer1">
    <path
       id="path876-7"
       style="opacity:0.996;fill:none;fill-opacity:1;stroke:#20aaac;stroke-width:11.6;stroke-miterlimit:4;stroke-dasharray:none;stroke-opacity:1"
       d="m 105.83333,5.2916666 c 14.61254,0 26.45834,11.8457994 26.45834,26.4583334 0,14.612532 -11.8458,26.458333 -26.45834,26.458333 C 91.220801,58.208333 84.666667,47.625 68.791667,31.75 84.666667,15.875 91.220801,5.2916666 105.83333,5.2916666 Z m -74.08333,0 C 17.137466,5.2916666 5.2916666,17.137466 5.2916666,31.75 5.2916666,46.362532 17.137466,58.208333 31.75,58.208333 46.362532,58.208333 52.916666,47.624999 68.791666,31.75 52.916666,15.875 46.362532,5.2916666 31.75,5.2916666 Z" />
    <path
       d="m 60.560547,15.592785 c -0.0021,2.4362 -0.0081,4.872396 -0.01172,7.308594 -11.284508,-0.01509 -22.569012,-0.0088 -33.853516,0.0059 -0.252302,0.113074 -1.0236,-0.294688 -1.473789,-0.392356 -1.062177,-0.30169 -2.109511,-0.791204 -3.213711,-0.859597 -1.51868,0.166581 -2.032645,1.836486 -2.897696,2.847044 -1.746456,2.420042 -3.49197,4.840766 -5.239022,7.260378 2.54532,3.477222 5.091235,6.954016 7.638672,10.429688 2.339701,-0.749596 4.651518,-1.587343 7.013672,-2.265625 1.784358,1.16535 3.990388,0.549055 5.978514,0.680703 8.68684,-0.01386 17.373775,-0.04902 26.060548,0.0048 -0.02908,2.291599 0.01863,4.583354 -0.0078,6.875 0.334922,0.966995 1.505484,1.01777 2.310546,0.908204 14.169192,0.03193 28.339966,0.0045 42.509765,0.01367 3.87725,-1.502489 7.75386,-3.006639 11.63086,-4.509766 4.72721,0.05268 9.45442,0.105787 14.18164,0.158203 -0.0119,-1.578134 -0.0262,-3.156249 -0.0391,-4.734375 1.77606,-0.819621 3.55197,-1.639569 5.32812,-2.458984 0.06,-3.308604 0.12178,-6.617176 0.18164,-9.925782 -1.87429,-0.918733 -3.7487,-1.837221 -5.62304,-2.755859 -0.0129,-1.539714 -0.0267,-3.079421 -0.0391,-4.619141 -4.87065,-0.322881 -9.82865,0.161191 -14.59961,-0.517578 -4.03691,-1.365154 -7.96742,-3.123793 -12.15625,-3.982422 -14.55989,0 -29.119786,0 -43.679682,0 0,0.176433 0,0.352865 0,0.529297 z"
       style="opacity:0.997;fill:#ffffff;fill-opacity:1;stroke:none;stroke-width:4.10616;stroke-miterlimit:4;stroke-dasharray:none;stroke-opacity:0.46371"
       id="rect940-3" />
    <path
       sodipodi:nodetypes="ccccccccccccccccccccccc"
       d="m 64.753124,19.269053 v 7.824929 H 31.255106 v 9.312038 h 33.498018 v 7.824927 H 104.5886 l 11.64014,-4.526759 10.73513,0.129438 -0.0315,-3.922367 7.4511,-0.400904 0.13363,-7.253438 -7.6512,-0.668174 -0.0315,-3.922367 -10.34683,-0.129083 -11.899,-4.26824 z m -41.709134,6.9606 -3.989914,5.535378 4.031291,5.505318 6.481752,-2.132883 -0.02581,-6.823736 z"
       style="opacity:0.997;fill:#20aaac;fill-opacity:1;stroke:none;stroke-width:4.10616;stroke-miterlimit:4;stroke-dasharray:none;stroke-opacity:0.46371"
       id="rect940" />
    <path
       clip-path="url(#clipPath980)"
       d="m 105.83333,5.2916672 c 14.61254,0 26.45835,11.8457998 26.45835,26.4583328 0,14.612533 -11.84581,26.458334 -26.45835,26.458334 C 91.220796,58.208334 84.666666,47.625 68.791666,31.75 84.666666,15.875001 91.220796,5.2916672 105.83333,5.2916672 Z m -74.083334,0 C 17.137463,5.2916672 5.291663,17.137467 5.291663,31.75 c 0,14.612533 11.8458,26.458334 26.458333,26.458334 C 46.362529,58.208334 52.916663,47.625 68.791666,31.75 52.916663,15.875001 46.362529,5.2916672 31.749996,5.2916672 Z"
       style="opacity:0.996;fill:none;fill-opacity:1;stroke:#20aaac;stroke-width:11.6;stroke-miterlimit:4;stroke-dasharray:none;stroke-opacity:1"
       id="path876-7-0" />
    <rect
       y="22.473473"
       x="31.413054"
       height="18.013525"
       width="0.27530065"
       id="rect995"
       style="opacity:0.997;fill:#000000;fill-opacity:1;stroke:#ffffff;stroke-width:3.21722;stroke-miterlimit:4;stroke-dasharray:none;stroke-opacity:1" />
    <g
       style="font-style:normal;font-weight:normal;font-size:71.7754px;line-height:1.25;font-family:sans-serif;fill:#20aaac;fill-opacity:1;stroke:none;stroke-width:0.37383"
       id="text839"
       aria-label="Free">
      <path
         id="path899"
         style="font-style:normal;font-variant:normal;font-weight:normal;font-stretch:normal;font-size:71.7754px;font-family:Ubuntu;-inkscape-font-specification:Ubuntu;fill:#20aaac;fill-opacity:1;stroke-width:0.37383"
         d="M 1.8343669,116.79867 V 67.058317 H 31.836483 v 5.957358 H 8.7965805 V 88.016733 H 29.252569 v 5.885583 H 8.7965805 v 22.896354 z" />
      <path
         id="path901"
         style="font-style:normal;font-variant:normal;font-weight:normal;font-stretch:normal;font-size:71.7754px;font-family:Ubuntu;-inkscape-font-specification:Ubuntu;fill:#20aaac;fill-opacity:1;stroke-width:0.37383"
         d="m 51.773222,78.685931 q 0.861304,0 1.937935,0.143551 1.148407,0.07178 2.225038,0.287102 1.076631,0.143551 1.937935,0.358877 0.933081,0.143551 1.363733,0.287101 l -1.148406,5.813808 q -0.78953,-0.287102 -2.65569,-0.645979 -1.794385,-0.430652 -4.665401,-0.430652 -1.86616,0 -3.732321,0.430652 -1.794385,0.358877 -2.368588,0.502428 V 116.79867 H 37.992345 V 81.05452 q 2.368588,-0.861305 5.885583,-1.579059 3.516994,-0.78953 7.895294,-0.78953 z" />
      <path
         id="path903"
         style="font-style:normal;font-variant:normal;font-weight:normal;font-stretch:normal;font-size:71.7754px;font-family:Ubuntu;-inkscape-font-specification:Ubuntu;fill:#20aaac;fill-opacity:1;stroke-width:0.37383"
         d="m 63.667748,98.20884 q 0,-4.952503 1.435508,-8.613048 1.435508,-3.732321 3.804096,-6.172684 2.368588,-2.440364 5.45493,-3.660546 3.086342,-1.220181 6.316235,-1.220181 7.536417,0 11.555839,4.737176 4.019423,4.665401 4.019423,14.283304 0,0.430653 0,1.148407 0,0.645978 -0.07178,1.220181 H 70.629962 q 0.430652,5.813811 3.373443,8.828371 2.942792,3.01457 9.187251,3.01457 3.516995,0 5.885583,-0.5742 2.440363,-0.64598 3.660545,-1.22018 l 0.93308,5.59848 q -1.220181,0.64597 -4.306523,1.36373 -3.014567,0.71775 -6.890439,0.71775 -4.880727,0 -8.469497,-1.43551 -3.516994,-1.50728 -5.813807,-4.09119 -2.296813,-2.58392 -3.445219,-6.10091 -1.076631,-3.58877 -1.076631,-7.82352 z m 25.623817,-3.660546 q 0.07178,-4.52185 -2.296813,-7.392866 -2.296812,-2.942791 -6.38801,-2.942791 -2.296813,0 -4.091198,0.93308 -1.722609,0.861305 -2.942791,2.296813 -1.220182,1.435508 -1.937936,3.301668 -0.645978,1.866161 -0.861305,3.804096 z" />
      <path
         id="path905"
         style="font-style:normal;font-variant:normal;font-weight:normal;font-stretch:normal;font-size:71.7754px;font-family:Ubuntu;-inkscape-font-specification:Ubuntu;fill:#20aaac;fill-opacity:1;stroke-width:0.37383"
         d="m 103.76104,98.20884 q 0,-4.952503 1.43551,-8.613048 1.43551,-3.732321 3.80409,-6.172684 2.36859,-2.440364 5.45493,-3.660546 3.08635,-1.220181 6.31624,-1.220181 7.53642,0 11.55584,4.737176 4.01942,4.665401 4.01942,14.283304 0,0.430653 0,1.148407 0,0.645978 -0.0718,1.220181 h -25.55205 q 0.43066,5.813811 3.37345,8.828371 2.94279,3.01457 9.18725,3.01457 3.51699,0 5.88558,-0.5742 2.44036,-0.64598 3.66055,-1.22018 l 0.93308,5.59848 q -1.22019,0.64597 -4.30653,1.36373 -3.01456,0.71775 -6.89044,0.71775 -4.88072,0 -8.46949,-1.43551 -3.517,-1.50728 -5.81381,-4.09119 -2.29681,-2.58392 -3.44522,-6.10091 -1.07663,-3.58877 -1.07663,-7.82352 z m 25.62382,-3.660546 q 0.0718,-4.52185 -2.29682,-7.392866 -2.29681,-2.942791 -6.38801,-2.942791 -2.29681,0 -4.09119,0.93308 -1.72261,0.861305 -2.94279,2.296813 -1.22019,1.435508 -1.93794,3.301668 -0.64598,1.866161 -0.86131,3.804096 z" />
    </g>
    <g
       style="font-style:normal;font-weight:normal;font-size:35.2426px;line-height:1.25;font-family:sans-serif;fill:#20aaac;fill-opacity:1;stroke:none;stroke-width:0.367111"
       id="text843"
       aria-label="Modular">
      <path
         id="path908"
         style="font-size:35.2426px;fill:#20aaac;fill-opacity:1;stroke-width:0.367111"
         d="m 22.522478,147.54288 h -3.407243 v -22.07825 l -7.124237,15.02284 H 9.9604189 L 2.8878073,125.46463 v 22.07825 H -0.29572827 V 121.91972 H 4.3505129 l 6.8316951,14.26568 6.607988,-14.26568 h 4.732282 z" />
      <path
         id="path910"
         style="font-size:35.2426px;fill:#20aaac;fill-opacity:1;stroke-width:0.367111"
         d="m 45.564392,137.94065 q 0,4.69786 -2.409162,7.41677 -2.409162,2.71891 -6.453113,2.71891 -4.078367,0 -6.487529,-2.71891 -2.391954,-2.71891 -2.391954,-7.41677 0,-4.69787 2.391954,-7.41678 2.409162,-2.73612 6.487529,-2.73612 4.043951,0 6.453113,2.73612 2.409162,2.71891 2.409162,7.41678 z m -3.33841,0 q 0,-3.73421 -1.462706,-5.54108 -1.462705,-1.82408 -4.061159,-1.82408 -2.63287,0 -4.095575,1.82408 -1.445497,1.80687 -1.445497,5.54108 0,3.61374 1.462705,5.48944 1.462706,1.8585 4.078367,1.8585 2.581245,0 4.043951,-1.84129 1.479914,-1.85849 1.479914,-5.50665 z" />
      <path
         id="path912"
         style="font-size:35.2426px;fill:#20aaac;fill-opacity:1;stroke-width:0.367111"
         d="m 66.179934,147.54288 h -3.235161 v -2.01337 q -1.393872,1.20458 -2.908202,1.8757 -1.514331,0.67112 -3.286786,0.67112 -3.44166,0 -5.472239,-2.65007 -2.013372,-2.65008 -2.013372,-7.34795 0,-2.44358 0.688333,-4.3537 0.70554,-1.91012 1.892913,-3.25237 1.170164,-1.30783 2.718911,-1.99616 1.565955,-0.68833 3.235161,-0.68833 1.51433,0 2.684494,0.32696 1.170165,0.30975 2.460787,0.98087 v -8.32882 h 3.235161 z m -3.235161,-4.73229 v -11.03052 q -1.30783,-0.58508 -2.340328,-0.80879 -1.032498,-0.2237 -2.254288,-0.2237 -2.718911,0 -4.233242,1.89291 -1.51433,1.89291 -1.51433,5.36899 0,3.42445 1.170164,5.21411 1.170165,1.77246 3.75141,1.77246 1.376664,0 2.787744,-0.60229 1.411081,-0.6195 2.63287,-1.58317 z" />
      <path
         id="path914"
         style="font-size:35.2426px;fill:#20aaac;fill-opacity:1;stroke-width:0.367111"
         d="m 88.481894,147.54288 h -3.23516 v -2.13383 q -1.634789,1.29062 -3.131911,1.97895 -1.497122,0.68833 -3.303994,0.68833 -3.028661,0 -4.715074,-1.84128 -1.686414,-1.8585 -1.686414,-5.43783 v -12.47601 h 3.235161 v 10.94447 q 0,1.46271 0.137666,2.51242 0.137667,1.03249 0.585083,1.77245 0.464624,0.75717 1.204581,1.10133 0.739956,0.34417 2.151037,0.34417 1.256206,0 2.73612,-0.65392 1.497122,-0.65391 2.787745,-1.6692 v -14.35172 h 3.23516 z" />
      <path
         id="path916"
         style="font-size:35.2426px;fill:#20aaac;fill-opacity:1;stroke-width:0.367111"
         d="m 98.118541,147.54288 h -3.23516 v -26.77612 h 3.23516 z" />
      <path
         id="path918"
         style="font-size:35.2426px;fill:#20aaac;fill-opacity:1;stroke-width:0.367111"
         d="m 119.49125,147.54288 h -3.21795 v -2.04779 q -0.43021,0.29254 -1.17017,0.826 -0.72274,0.51625 -1.41108,0.826 -0.80879,0.39579 -1.85849,0.65391 -1.04971,0.27533 -2.46079,0.27533 -2.59845,0 -4.40532,-1.72083 -1.80688,-1.72083 -1.80688,-4.38811 0,-2.18546 0.92925,-3.5277 0.94646,-1.35946 2.6845,-2.13383 1.75524,-0.77438 4.21603,-1.04971 2.46079,-0.27533 5.28295,-0.413 v -0.49904 q 0,-1.10133 -0.39579,-1.82408 -0.37858,-0.72275 -1.10133,-1.13575 -0.68834,-0.39579 -1.652,-0.53345 -0.96366,-0.13767 -2.01337,-0.13767 -1.27342,0 -2.83937,0.34417 -1.56596,0.32695 -3.23516,0.96366 h -0.17208 v -3.28679 q 0.94645,-0.25812 2.73612,-0.56787 1.78966,-0.30975 3.5277,-0.30975 2.03058,0 3.5277,0.34417 1.51433,0.32696 2.61566,1.13575 1.08412,0.79158 1.652,2.04778 0.56787,1.25621 0.56787,3.11471 z m -3.21795,-4.73229 v -5.35178 q -1.47991,0.086 -3.49329,0.25813 -1.99616,0.17208 -3.16632,0.49904 -1.39388,0.39579 -2.25429,1.239 -0.86042,0.82599 -0.86042,2.2887 0,1.652 0.99809,2.4952 0.99808,0.826 3.04587,0.826 1.70362,0 3.1147,-0.65391 1.41108,-0.67113 2.61566,-1.60038 z" />
      <path
         id="path920"
         style="font-size:35.2426px;fill:#20aaac;fill-opacity:1;stroke-width:0.367111"
         d="m 137.74926,131.84891 h -0.17208 q -0.72275,-0.17209 -1.41108,-0.24092 -0.67113,-0.086 -1.60037,-0.086 -1.49713,0 -2.891,0.67112 -1.39387,0.65392 -2.68449,1.70362 v 13.64619 h -3.23516 v -19.22167 h 3.23516 v 2.83937 q 1.92733,-1.54875 3.39003,-2.18546 1.47992,-0.65391 3.01145,-0.65391 0.84321,0 1.22179,0.0516 0.37859,0.0344 1.13575,0.15488 z" />
    </g>
  </g>
</svg>
