<?xml version="1.0" encoding="UTF-8" standalone="no"?>
<svg
   xmlns:dc="http://purl.org/dc/elements/1.1/"
   xmlns:cc="http://creativecommons.org/ns#"
   xmlns:rdf="http://www.w3.org/1999/02/22-rdf-syntax-ns#"
   xmlns:svg="http://www.w3.org/2000/svg"
   xmlns="http://www.w3.org/2000/svg"
   id="svg92"
   viewBox="0 0 69.628695 47.792537"
   height="0.66378462in"
   width="0.96706641in"
   xml:space="preserve"
   y="0px"
   x="0px"
   version="1.1"
   enable-background="new 0 0 255.118 175.75"><metadata
   id="metadata96"><rdf:RDF><cc:Work
       rdf:about=""><dc:format>image/svg+xml</dc:format><dc:type
         rdf:resource="http://purl.org/dc/dcmitype/StillImage" /><dc:title></dc:title></cc:Work></rdf:RDF></metadata>
    <desc
   id="desc2">
        <referenceFile>svg.schematic.OLED_128x64 I2C_Monnochrome_Display_schematic.svg</referenceFile>
    </desc>
    <defs
   id="defs4" />
    <rect
   height="36.557095"
   stroke-linejoin="round"
   width="65.802773"
   stroke-linecap="round"
   fill="none"
   stroke="#000000"
   y="9.576066"
   x="1.913314"
   gorn="0.2"
   stroke-width="0.739892"
   id="rect10403" />
    <g
   transform="matrix(0.27512398,0,0,0.27512398,-0.28024989,-0.27997664)"
   id="g37">
        <g
   id="g19"
   enable-background="new    ">
            <path
   id="path7"
   d="m 104.739,107.14 h -1.582 V 97.059 c -0.381,0.363 -0.88,0.727 -1.499,1.09 -0.619,0.363 -1.173,0.636 -1.666,0.817 v -1.529 c 0.885,-0.416 1.658,-0.92 2.32,-1.512 0.662,-0.592 1.131,-1.166 1.406,-1.723 h 1.02 v 12.938 z" />
            <path
   id="path9"
   d="m 117.105,105.62 v 1.521 h -8.517 c -0.012,-0.381 0.05,-0.747 0.185,-1.099 0.217,-0.58 0.564,-1.151 1.042,-1.714 0.478,-0.563 1.167,-1.213 2.07,-1.951 1.4,-1.148 2.347,-2.058 2.839,-2.729 0.492,-0.671 0.738,-1.306 0.738,-1.903 0,-0.627 -0.224,-1.155 -0.672,-1.587 -0.448,-0.43 -1.033,-0.646 -1.753,-0.646 -0.762,0 -1.371,0.229 -1.828,0.686 -0.457,0.457 -0.688,1.09 -0.694,1.898 l -1.626,-0.167 c 0.111,-1.213 0.53,-2.137 1.257,-2.773 0.727,-0.635 1.702,-0.953 2.927,-0.953 1.236,0 2.215,0.343 2.936,1.028 0.721,0.685 1.081,1.535 1.081,2.549 0,0.516 -0.105,1.022 -0.316,1.521 -0.211,0.499 -0.561,1.022 -1.05,1.573 -0.489,0.551 -1.302,1.307 -2.439,2.268 -0.949,0.797 -1.559,1.338 -1.828,1.622 -0.269,0.284 -0.492,0.569 -0.668,0.856 z" />
            <path
   id="path11"
   d="m 121.236,100.153 c -0.656,-0.24 -1.143,-0.583 -1.459,-1.028 -0.316,-0.445 -0.475,-0.979 -0.475,-1.6 0,-0.938 0.337,-1.726 1.011,-2.364 0.674,-0.638 1.57,-0.958 2.689,-0.958 1.125,0 2.03,0.327 2.716,0.98 0.686,0.653 1.028,1.448 1.028,2.386 0,0.598 -0.157,1.118 -0.47,1.56 -0.313,0.443 -0.79,0.784 -1.428,1.024 0.791,0.258 1.393,0.674 1.806,1.248 0.413,0.574 0.62,1.26 0.62,2.057 0,1.102 -0.39,2.027 -1.169,2.777 -0.779,0.75 -1.805,1.125 -3.076,1.125 -1.271,0 -2.297,-0.376 -3.076,-1.13 -0.779,-0.752 -1.169,-1.691 -1.169,-2.816 0,-0.838 0.212,-1.539 0.637,-2.105 0.425,-0.565 1.03,-0.951 1.815,-1.156 z m -0.826,3.269 c 0,0.451 0.107,0.888 0.321,1.31 0.214,0.422 0.532,0.749 0.954,0.98 0.422,0.231 0.876,0.347 1.362,0.347 0.756,0 1.38,-0.243 1.872,-0.729 0.492,-0.486 0.738,-1.104 0.738,-1.854 0,-0.762 -0.253,-1.392 -0.76,-1.89 -0.507,-0.498 -1.141,-0.747 -1.903,-0.747 -0.744,0 -1.361,0.246 -1.85,0.738 -0.489,0.492 -0.734,1.107 -0.734,1.845 z m 0.51,-5.95 c 0,0.609 0.196,1.107 0.589,1.494 0.393,0.387 0.902,0.58 1.529,0.58 0.609,0 1.109,-0.191 1.499,-0.576 0.39,-0.383 0.584,-0.854 0.584,-1.41 0,-0.58 -0.201,-1.068 -0.602,-1.463 -0.401,-0.396 -0.901,-0.594 -1.499,-0.594 -0.604,0 -1.104,0.193 -1.503,0.58 -0.399,0.387 -0.597,0.85 -0.597,1.389 z" />
            <path
   id="path13"
   d="m 128.198,107.14 3.41,-4.852 -3.156,-4.482 h 1.979 l 1.432,2.188 c 0.27,0.416 0.486,0.765 0.65,1.046 0.258,-0.387 0.496,-0.729 0.713,-1.028 l 1.572,-2.206 h 1.891 l -3.227,4.395 3.473,4.939 h -1.943 l -1.916,-2.9 -0.51,-0.782 -2.451,3.683 h -1.917 z" />
            <path
   id="path15"
   d="m 146.022,97.411 -1.574,0.123 c -0.141,-0.621 -0.34,-1.072 -0.598,-1.354 -0.428,-0.451 -0.955,-0.677 -1.582,-0.677 -0.504,0 -0.945,0.141 -1.326,0.422 -0.498,0.363 -0.891,0.894 -1.178,1.591 -0.287,0.697 -0.438,1.69 -0.449,2.979 0.381,-0.58 0.848,-1.011 1.398,-1.292 0.55,-0.281 1.127,-0.422 1.73,-0.422 1.055,0 1.953,0.389 2.694,1.165 0.741,0.776 1.112,1.779 1.112,3.01 0,0.809 -0.175,1.561 -0.523,2.254 -0.349,0.695 -0.828,1.227 -1.438,1.596 -0.61,0.369 -1.301,0.554 -2.074,0.554 -1.318,0 -2.393,-0.484 -3.225,-1.454 -0.832,-0.97 -1.248,-2.568 -1.248,-4.795 0,-2.49 0.459,-4.301 1.379,-5.432 0.803,-0.984 1.885,-1.477 3.244,-1.477 1.014,0 1.844,0.284 2.491,0.853 0.647,0.569 1.038,1.354 1.167,2.356 z m -6.461,5.554 c 0,0.545 0.116,1.066 0.348,1.564 0.232,0.498 0.555,0.878 0.971,1.138 0.416,0.262 0.854,0.392 1.311,0.392 0.668,0 1.242,-0.27 1.723,-0.809 0.481,-0.539 0.721,-1.271 0.721,-2.197 0,-0.891 -0.238,-1.592 -0.713,-2.104 -0.475,-0.512 -1.072,-0.77 -1.793,-0.77 -0.715,0 -1.32,0.257 -1.818,0.77 -0.498,0.513 -0.75,1.184 -0.75,2.016 z" />
            <path
   id="path17"
   d="m 152.895,107.14 v -3.085 h -5.59 v -1.45 l 5.879,-8.35 h 1.293 v 8.35 h 1.74 v 1.45 h -1.74 v 3.085 z m 0,-4.535 v -5.81 l -4.035,5.81 z" />
        </g>
        <g
   id="g35"
   enable-background="new    ">
            <path
   id="path21"
   d="m 88.225,126.986 v -12.885 h 1.705 v 12.885 z" />
            <path
   id="path23"
   d="m 100.608,125.465 v 1.521 h -8.517 c -0.012,-0.381 0.05,-0.747 0.185,-1.099 0.217,-0.58 0.564,-1.151 1.042,-1.714 0.478,-0.563 1.167,-1.213 2.07,-1.951 1.4,-1.148 2.347,-2.058 2.839,-2.729 0.492,-0.671 0.738,-1.306 0.738,-1.903 0,-0.627 -0.224,-1.155 -0.672,-1.587 -0.448,-0.43 -1.033,-0.646 -1.753,-0.646 -0.762,0 -1.371,0.229 -1.828,0.686 -0.457,0.457 -0.688,1.09 -0.694,1.898 l -1.626,-0.167 c 0.111,-1.213 0.53,-2.137 1.257,-2.773 0.727,-0.635 1.702,-0.953 2.927,-0.953 1.236,0 2.215,0.343 2.936,1.028 0.721,0.685 1.081,1.535 1.081,2.549 0,0.516 -0.105,1.022 -0.316,1.521 -0.211,0.499 -0.561,1.022 -1.05,1.573 -0.489,0.551 -1.302,1.307 -2.439,2.268 -0.949,0.797 -1.559,1.338 -1.828,1.622 -0.269,0.284 -0.492,0.569 -0.668,0.856 z" />
            <path
   id="path25"
   d="m 112.14,122.468 1.705,0.431 c -0.357,1.4 -1,2.469 -1.929,3.204 -0.929,0.735 -2.064,1.103 -3.406,1.103 -1.389,0 -2.518,-0.282 -3.388,-0.849 -0.87,-0.564 -1.532,-1.384 -1.986,-2.456 -0.454,-1.072 -0.681,-2.224 -0.681,-3.454 0,-1.342 0.256,-2.512 0.769,-3.512 0.513,-0.998 1.242,-1.758 2.188,-2.275 0.946,-0.52 1.988,-0.778 3.125,-0.778 1.289,0 2.373,0.328 3.252,0.984 0.879,0.656 1.491,1.579 1.837,2.769 l -1.679,0.396 c -0.299,-0.938 -0.732,-1.62 -1.301,-2.048 -0.569,-0.428 -1.283,-0.642 -2.145,-0.642 -0.99,0 -1.818,0.237 -2.483,0.712 -0.665,0.475 -1.132,1.111 -1.402,1.912 -0.27,0.799 -0.404,1.624 -0.404,2.474 0,1.096 0.16,2.052 0.479,2.87 0.319,0.816 0.816,1.428 1.49,1.832 0.674,0.404 1.403,0.606 2.188,0.606 0.955,0 1.764,-0.275 2.426,-0.826 0.662,-0.551 1.11,-1.369 1.345,-2.453 z" />
            <path
   id="path27"
   d="m 120.428,120.71 c 0,-2.139 0.574,-3.813 1.723,-5.023 1.148,-1.209 2.631,-1.814 4.447,-1.814 1.189,0 2.262,0.284 3.217,0.853 0.955,0.569 1.683,1.361 2.184,2.378 0.501,1.017 0.752,2.169 0.752,3.458 0,1.307 -0.264,2.476 -0.791,3.507 -0.527,1.031 -1.275,1.813 -2.242,2.342 -0.967,0.531 -2.009,0.796 -3.128,0.796 -1.213,0 -2.297,-0.293 -3.252,-0.879 -0.955,-0.586 -1.679,-1.386 -2.171,-2.399 -0.492,-1.013 -0.739,-2.088 -0.739,-3.219 z m 1.758,0.027 c 0,1.553 0.417,2.776 1.252,3.669 0.835,0.895 1.882,1.341 3.142,1.341 1.283,0 2.339,-0.451 3.168,-1.354 0.829,-0.903 1.244,-2.183 1.244,-3.841 0,-1.049 -0.178,-1.965 -0.532,-2.746 -0.354,-0.783 -0.873,-1.389 -1.556,-1.82 -0.683,-0.43 -1.449,-0.646 -2.298,-0.646 -1.207,0 -2.246,0.415 -3.116,1.243 -0.869,0.831 -1.304,2.214 -1.304,4.154 z" />
            <path
   id="path29"
   d="m 134.877,126.986 v -12.885 h 1.705 v 11.364 h 6.346 v 1.521 z" />
            <path
   id="path31"
   d="m 144.993,126.986 v -12.885 h 9.316 v 1.521 h -7.611 v 3.946 h 7.129 v 1.512 h -7.129 v 4.386 h 7.91 v 1.521 h -9.615 z" />
            <path
   id="path33"
   d="m 156.963,126.986 v -12.885 h 4.439 c 1.002,0 1.766,0.062 2.293,0.185 0.738,0.17 1.369,0.478 1.891,0.923 0.68,0.574 1.188,1.309 1.524,2.201 0.337,0.895 0.505,1.915 0.505,3.063 0,0.979 -0.113,1.846 -0.342,2.602 -0.229,0.756 -0.521,1.382 -0.879,1.876 -0.357,0.496 -0.749,0.886 -1.174,1.17 -0.425,0.284 -0.938,0.499 -1.538,0.646 -0.6,0.147 -1.29,0.22 -2.069,0.22 h -4.65 z m 1.705,-1.521 h 2.752 c 0.85,0 1.516,-0.079 1.999,-0.237 0.483,-0.158 0.868,-0.381 1.155,-0.668 0.404,-0.404 0.72,-0.947 0.945,-1.631 0.226,-0.682 0.338,-1.51 0.338,-2.482 0,-1.348 -0.221,-2.383 -0.663,-3.107 -0.442,-0.723 -0.979,-1.208 -1.612,-1.454 -0.457,-0.176 -1.193,-0.264 -2.207,-0.264 h -2.707 z" />
        </g>
    </g>
    <g
   id="g56"
   transform="matrix(0.27512398,0,0,0.27512398,-0.76767189,21.644358)">
        <g
   id="g54">
            <g
   id="g52">
                <g
   id="g50">
                    <g
   id="g48">
                        <g
   gorn="0.4.0.0.0.0.0"
   id="g12334">
                            <g
   id="g45"
   enable-background="new    ">
                                <path
   id="path39"
   d="m 159.353,-30.768 0.894,-0.078 c 0.043,0.358 0.141,0.651 0.295,0.882 0.155,0.229 0.395,0.414 0.721,0.557 0.326,0.141 0.691,0.212 1.099,0.212 0.361,0 0.681,-0.054 0.957,-0.161 0.276,-0.107 0.482,-0.255 0.618,-0.441 0.135,-0.188 0.202,-0.392 0.202,-0.613 0,-0.225 -0.065,-0.421 -0.195,-0.588 -0.13,-0.168 -0.345,-0.309 -0.645,-0.423 -0.192,-0.075 -0.616,-0.191 -1.274,-0.349 -0.658,-0.158 -1.118,-0.308 -1.382,-0.447 -0.342,-0.179 -0.597,-0.401 -0.765,-0.666 -0.167,-0.266 -0.251,-0.563 -0.251,-0.892 0,-0.361 0.103,-0.699 0.308,-1.013 0.205,-0.314 0.504,-0.553 0.898,-0.716 0.394,-0.163 0.832,-0.244 1.313,-0.244 0.53,0 0.999,0.085 1.403,0.257 0.406,0.17 0.717,0.422 0.936,0.754 0.219,0.332 0.336,0.708 0.352,1.128 l -0.908,0.068 c -0.049,-0.452 -0.214,-0.794 -0.496,-1.025 -0.281,-0.231 -0.697,-0.347 -1.247,-0.347 -0.573,0 -0.99,0.105 -1.253,0.314 -0.262,0.211 -0.393,0.464 -0.393,0.76 0,0.257 0.093,0.469 0.278,0.635 0.183,0.166 0.658,0.336 1.429,0.51 0.77,0.175 1.297,0.327 1.584,0.457 0.416,0.192 0.725,0.436 0.923,0.73 0.198,0.294 0.298,0.634 0.298,1.018 0,0.381 -0.109,0.74 -0.327,1.076 -0.218,0.338 -0.531,0.6 -0.94,0.787 -0.408,0.187 -0.867,0.28 -1.379,0.28 -0.648,0 -1.19,-0.095 -1.629,-0.283 -0.438,-0.188 -0.781,-0.473 -1.029,-0.853 -0.251,-0.378 -0.382,-0.807 -0.395,-1.286 z" />
                                <path
   id="path41"
   d="m 166.345,-28.468 v -7.158 h 2.466 c 0.557,0 0.981,0.034 1.274,0.103 0.41,0.095 0.761,0.266 1.05,0.513 0.377,0.319 0.66,0.727 0.848,1.223 0.187,0.497 0.28,1.064 0.28,1.702 0,0.544 -0.063,1.025 -0.19,1.445 -0.127,0.42 -0.289,0.768 -0.488,1.042 -0.199,0.275 -0.416,0.492 -0.652,0.65 -0.235,0.157 -0.521,0.277 -0.854,0.358 -0.334,0.081 -0.717,0.122 -1.15,0.122 z m 0.948,-0.844 h 1.528 c 0.473,0 0.842,-0.044 1.111,-0.132 0.268,-0.088 0.482,-0.212 0.642,-0.371 0.225,-0.225 0.399,-0.526 0.524,-0.906 0.126,-0.379 0.188,-0.839 0.188,-1.379 0,-0.749 -0.123,-1.324 -0.368,-1.727 -0.246,-0.401 -0.545,-0.671 -0.896,-0.808 -0.254,-0.098 -0.662,-0.146 -1.226,-0.146 h -1.504 v 5.469 z" />
                                <path
   id="path43"
   d="m 172.781,-28.468 2.749,-7.158 h 1.021 l 2.93,7.158 h -1.079 l -0.835,-2.168 h -2.993 l -0.786,2.168 z m 2.065,-2.939 h 2.427 l -0.747,-1.982 c -0.229,-0.603 -0.396,-1.097 -0.508,-1.484 -0.092,0.459 -0.22,0.915 -0.386,1.367 z" />
                            </g>
                        </g>
                    </g>
                </g>
            </g>
        </g>
    </g>
    <g
   transform="matrix(0.27512398,0,0,0.27512398,-0.28024989,-0.27997664)"
   id="g64"
   enable-background="new    ">
        <path
   id="path58"
   d="m 131.015,48.921 0.894,-0.078 c 0.043,0.358 0.141,0.651 0.295,0.882 0.155,0.229 0.395,0.414 0.721,0.557 0.326,0.141 0.691,0.212 1.099,0.212 0.361,0 0.681,-0.054 0.957,-0.161 0.276,-0.107 0.482,-0.255 0.618,-0.441 0.135,-0.188 0.202,-0.392 0.202,-0.613 0,-0.225 -0.065,-0.421 -0.195,-0.588 -0.13,-0.168 -0.345,-0.309 -0.645,-0.423 -0.192,-0.075 -0.616,-0.191 -1.274,-0.349 -0.658,-0.158 -1.118,-0.308 -1.382,-0.447 -0.342,-0.179 -0.597,-0.401 -0.765,-0.666 -0.167,-0.266 -0.251,-0.563 -0.251,-0.892 0,-0.361 0.103,-0.699 0.308,-1.013 0.205,-0.314 0.504,-0.553 0.898,-0.716 0.394,-0.163 0.832,-0.244 1.313,-0.244 0.53,0 0.999,0.085 1.403,0.257 0.406,0.17 0.717,0.422 0.936,0.754 0.219,0.332 0.336,0.708 0.352,1.128 l -0.908,0.068 c -0.049,-0.452 -0.214,-0.794 -0.496,-1.025 -0.281,-0.231 -0.697,-0.347 -1.247,-0.347 -0.573,0 -0.99,0.105 -1.253,0.314 -0.262,0.211 -0.393,0.464 -0.393,0.76 0,0.257 0.093,0.469 0.278,0.635 0.183,0.166 0.658,0.336 1.429,0.51 0.77,0.175 1.297,0.327 1.584,0.457 0.416,0.192 0.725,0.436 0.923,0.73 0.198,0.294 0.298,0.634 0.298,1.018 0,0.381 -0.109,0.74 -0.327,1.076 -0.218,0.338 -0.531,0.6 -0.94,0.787 -0.408,0.187 -0.867,0.28 -1.379,0.28 -0.648,0 -1.19,-0.095 -1.629,-0.283 -0.438,-0.188 -0.781,-0.473 -1.029,-0.853 -0.251,-0.378 -0.382,-0.807 -0.395,-1.286 z" />
        <path
   id="path60"
   d="m 143.115,48.711 0.947,0.239 c -0.198,0.778 -0.556,1.371 -1.071,1.78 -0.517,0.408 -1.146,0.612 -1.893,0.612 -0.771,0 -1.398,-0.157 -1.883,-0.472 -0.482,-0.313 -0.851,-0.769 -1.104,-1.364 -0.252,-0.596 -0.378,-1.235 -0.378,-1.919 0,-0.745 0.143,-1.396 0.427,-1.951 0.285,-0.555 0.69,-0.977 1.217,-1.264 0.525,-0.289 1.104,-0.433 1.735,-0.433 0.716,0 1.318,0.183 1.807,0.547 0.489,0.364 0.829,0.877 1.021,1.538 l -0.933,0.22 c -0.166,-0.521 -0.407,-0.9 -0.723,-1.138 -0.316,-0.238 -0.713,-0.356 -1.191,-0.356 -0.55,0 -1.01,0.132 -1.38,0.396 -0.369,0.264 -0.629,0.617 -0.778,1.063 -0.149,0.443 -0.225,0.902 -0.225,1.374 0,0.608 0.089,1.14 0.267,1.595 0.177,0.453 0.453,0.793 0.827,1.018 0.374,0.225 0.78,0.337 1.216,0.337 0.531,0 0.98,-0.153 1.348,-0.459 0.368,-0.306 0.617,-0.76 0.747,-1.363 z" />
        <path
   id="path62"
   d="m 145.19,51.221 v -7.158 h 0.947 v 3.55 l 3.555,-3.55 h 1.284 l -3.003,2.9 3.135,4.258 h -1.25 l -2.549,-3.623 -1.172,1.143 v 2.48 z" />
    </g>
    <g
   transform="matrix(0.27512398,0,0,0.27512398,-0.28024989,-0.27997664)"
   id="g72"
   enable-background="new    ">
        <path
   id="path66"
   d="m 106.534,51.221 -2.773,-7.158 h 1.025 l 1.86,5.2 c 0.15,0.417 0.275,0.808 0.376,1.172 0.111,-0.391 0.239,-0.781 0.386,-1.172 l 1.934,-5.2 h 0.967 l -2.803,7.158 z" />
        <path
   id="path68"
   d="m 111.158,51.221 v -7.158 h 2.466 c 0.557,0 0.981,0.034 1.274,0.103 0.41,0.095 0.76,0.266 1.05,0.513 0.377,0.319 0.66,0.727 0.847,1.223 0.187,0.497 0.281,1.064 0.281,1.702 0,0.544 -0.063,1.025 -0.19,1.445 -0.127,0.42 -0.29,0.768 -0.488,1.042 -0.199,0.275 -0.416,0.492 -0.652,0.65 -0.236,0.157 -0.521,0.277 -0.854,0.358 -0.333,0.081 -0.717,0.122 -1.15,0.122 z m 0.947,-0.845 h 1.528 c 0.472,0 0.842,-0.044 1.111,-0.132 0.269,-0.088 0.482,-0.212 0.642,-0.371 0.225,-0.225 0.399,-0.526 0.525,-0.906 0.125,-0.379 0.188,-0.839 0.188,-1.379 0,-0.749 -0.123,-1.324 -0.369,-1.727 -0.246,-0.401 -0.544,-0.671 -0.896,-0.808 -0.254,-0.098 -0.663,-0.146 -1.226,-0.146 h -1.504 v 5.469 z" />
        <path
   id="path70"
   d="m 118.379,51.221 v -7.158 h 2.466 c 0.557,0 0.981,0.034 1.274,0.103 0.41,0.095 0.76,0.266 1.05,0.513 0.377,0.319 0.66,0.727 0.847,1.223 0.187,0.497 0.281,1.064 0.281,1.702 0,0.544 -0.063,1.025 -0.19,1.445 -0.127,0.42 -0.29,0.768 -0.488,1.042 -0.199,0.275 -0.416,0.492 -0.652,0.65 -0.236,0.157 -0.521,0.277 -0.854,0.358 -0.333,0.081 -0.717,0.122 -1.15,0.122 z m 0.948,-0.845 h 1.528 c 0.472,0 0.842,-0.044 1.111,-0.132 0.269,-0.088 0.482,-0.212 0.642,-0.371 0.225,-0.225 0.399,-0.526 0.525,-0.906 0.125,-0.379 0.188,-0.839 0.188,-1.379 0,-0.749 -0.123,-1.324 -0.369,-1.727 -0.246,-0.401 -0.544,-0.671 -0.896,-0.808 -0.254,-0.098 -0.663,-0.146 -1.226,-0.146 h -1.504 v 5.469 z" />
    </g>
    <g
   transform="matrix(0.27512398,0,0,0.27512398,-0.28024989,-0.27997664)"
   id="g80"
   enable-background="new    ">
        <path
   id="path74"
   d="m 80.708,48.414 v -0.84 l 3.032,-0.005 v 2.656 c -0.465,0.371 -0.946,0.65 -1.44,0.838 -0.495,0.187 -1.002,0.28 -1.523,0.28 -0.703,0 -1.342,-0.15 -1.917,-0.452 -0.575,-0.301 -1.008,-0.736 -1.301,-1.306 -0.293,-0.57 -0.439,-1.206 -0.439,-1.909 0,-0.696 0.146,-1.347 0.437,-1.951 0.292,-0.604 0.71,-1.052 1.257,-1.345 0.547,-0.293 1.177,-0.439 1.89,-0.439 0.518,0 0.985,0.084 1.404,0.251 0.418,0.168 0.746,0.401 0.984,0.701 0.238,0.3 0.418,0.69 0.542,1.172 l -0.854,0.234 c -0.107,-0.364 -0.241,-0.651 -0.4,-0.859 -0.159,-0.208 -0.387,-0.375 -0.684,-0.5 -0.296,-0.126 -0.625,-0.188 -0.986,-0.188 -0.433,0 -0.807,0.065 -1.123,0.198 -0.316,0.131 -0.57,0.305 -0.764,0.52 -0.194,0.215 -0.344,0.451 -0.452,0.708 -0.182,0.442 -0.273,0.923 -0.273,1.44 0,0.638 0.11,1.172 0.33,1.602 0.22,0.43 0.54,0.749 0.959,0.957 0.419,0.208 0.866,0.313 1.338,0.313 0.41,0 0.811,-0.079 1.201,-0.236 0.391,-0.158 0.687,-0.327 0.889,-0.506 v -1.333 h -2.107 z" />
        <path
   id="path76"
   d="m 85.126,51.221 v -7.158 h 0.972 l 3.76,5.62 v -5.62 h 0.908 v 7.158 h -0.972 l -3.76,-5.625 v 5.625 z" />
        <path
   id="path78"
   d="m 92.358,51.221 v -7.158 h 2.466 c 0.557,0 0.981,0.034 1.274,0.103 0.41,0.095 0.76,0.266 1.05,0.513 0.377,0.319 0.66,0.727 0.847,1.223 0.187,0.497 0.281,1.064 0.281,1.702 0,0.544 -0.063,1.025 -0.19,1.445 -0.127,0.42 -0.29,0.768 -0.488,1.042 -0.199,0.275 -0.416,0.492 -0.652,0.65 -0.236,0.157 -0.521,0.277 -0.854,0.358 -0.333,0.081 -0.717,0.122 -1.15,0.122 z m 0.947,-0.845 h 1.528 c 0.472,0 0.842,-0.044 1.111,-0.132 0.269,-0.088 0.482,-0.212 0.642,-0.371 0.225,-0.225 0.399,-0.526 0.525,-0.906 0.125,-0.379 0.188,-0.839 0.188,-1.379 0,-0.749 -0.123,-1.324 -0.369,-1.727 C 96.684,45.46 96.386,45.19 96.034,45.053 95.78,44.955 95.371,44.907 94.808,44.907 h -1.504 v 5.469 z" />
    </g>
    <path
   style="opacity:0.997"
   fill="none"
   stroke="#000000"
   gorn="0.8"
   d="M 38.470138,2.2649203 V 9.5763396"
   stroke-width="0.825374"
   id="path12324" />
    <path
   fill="none"
   stroke="#000000"
   gorn="0.9"
   d="M 45.781558,2.2649203 V 9.5763396"
   stroke-width="0.825374"
   id="path12326" />
    <path
   fill="none"
   stroke="#000000"
   gorn="0.10"
   d="M 31.158994,2.2649203 V 9.5763396"
   stroke-width="0.825374"
   id="path12346" />
    <path
   fill="none"
   stroke="#000000"
   gorn="0.11"
   d="M 23.847574,2.2649203 V 9.5763396"
   stroke-width="0.825374"
   id="path12883" />
    <rect
   id="rect86"
   height="46.792538"
   stroke-miterlimit="10"
   width="68.628845"
   fill="none"
   stroke="#ffffff"
   y="0.5"
   x="0.49972644"
   stroke-width="0.275124" />
    <rect
   style="stroke-width:0.275124"
   height="1.9495286"
   width="1.9498037"
   fill="none"
   y="1.2901559"
   x="44.806522"
   gorn="0.13"
   id="connector4pin" />
    <rect
   style="stroke-width:0.275124"
   height="1.9495286"
   width="1.9495286"
   fill="none"
   y="1.2901559"
   x="37.495377"
   gorn="0.14"
   id="connector5pin" />
    <rect
   style="stroke-width:0.275124"
   height="1.9495286"
   width="1.9498037"
   fill="none"
   y="1.2901559"
   x="30.183954"
   gorn="0.15"
   id="connector7pin" />
    <rect
   style="stroke-width:0.275124"
   height="1.9495286"
   width="1.9495286"
   fill="none"
   y="1.2901559"
   x="22.872807"
   gorn="0.16"
   id="connector8pin" />
</svg>
