<?xml version="1.0" encoding="UTF-8"?>
<svg id="svg435" width="40.3mm" height="128.5mm" version="1.1" viewBox="0 0 40.3 128.5" xmlns="http://www.w3.org/2000/svg">
  <defs id="defs192">
    <linearGradient id="id1" x1=".70711" x2="0" y2=".70711">
      <stop id="stop3" stop-color="#666" offset="0"/>
      <stop id="stop5" stop-color="#191919" offset="1"/>
    </linearGradient>
    <radialGradient id="id2">
      <stop id="stop8" offset=".65385"/>
      <stop id="stop10" stop-opacity="0" offset=".88462"/>
    </radialGradient>
    <linearGradient id="id3" x1=".70711" x2="0" y2=".70711">
      <stop id="stop13" stop-color="#666" offset="0"/>
      <stop id="stop15" stop-color="#686868" offset=".04"/>
      <stop id="stop17" stop-color="#212121" offset="1"/>
    </linearGradient>
    <linearGradient id="id4" x1=".70711" x2="0" y2=".70711">
      <stop id="stop20" stop-color="#777" offset="0"/>
      <stop id="stop22" stop-color="#555" offset="1"/>
    </linearGradient>
    <linearGradient id="id5" x1=".70711" x2="0" y2=".70711">
      <stop id="stop25" stop-color="#ffa591" offset="0"/>
      <stop id="stop27" stop-color="#e55d44" offset="1"/>
    </linearGradient>
    <radialGradient id="id7">
      <stop id="stop35" offset=".70297"/>
      <stop id="stop37" stop-opacity="0" offset=".95108"/>
    </radialGradient>
    <linearGradient id="id10" x1=".70711" x2="0" y2=".70711">
      <stop id="stop52" stop-color="#92cba8" offset="0"/>
      <stop id="stop54" stop-color="#379a64" offset="1"/>
    </linearGradient>
    <linearGradient id="id11" x1="1" x2="0" y2="1">
      <stop id="stop57" stop-color="#fff" offset="-1"/>
      <stop id="stop59" offset="2"/>
    </linearGradient>
    <radialGradient id="id12">
      <stop id="stop62" offset=".74603"/>
      <stop id="stop64" stop-color="#fff" offset=".87302"/>
      <stop id="stop66" stop-color="#444" offset="1"/>
    </radialGradient>
    <linearGradient id="id13" x1="1" x2="0" y2="1">
      <stop id="stop69" offset="0"/>
      <stop id="stop71" stop-color="#333" offset="1"/>
    </linearGradient>
    <radialGradient id="id18">
      <stop id="stop96" offset=".83158"/>
      <stop id="stop98" stop-color="#fff" offset=".91579"/>
      <stop id="stop100" stop-color="#444" offset="1"/>
    </radialGradient>
    <radialGradient id="id26">
      <stop id="stop142" stop-color="#fff" offset="0"/>
      <stop id="stop144" stop-color="#f00" offset="1"/>
    </radialGradient>
    <radialGradient id="id27">
      <stop id="stop147" stop-color="#fff" offset="0"/>
      <stop id="stop149" stop-color="#fcca05" offset="1"/>
    </radialGradient>
    <radialGradient id="id28">
      <stop id="stop152" stop-color="#fff" offset="0"/>
      <stop id="stop154" stop-color="#2fdd04" offset="1"/>
    </radialGradient>
  </defs>
  <rect id="background" width="40.3" height="128.5" fill="#fff"/>
  <g id="stencil" font-family="Ubuntu" font-size="3">
    <path id="path1254" d="m12.143 4.565q0-0.445 0.13-0.785 0.135-0.34 0.36-0.565 0.23-0.23 0.53-0.345 0.305-0.115 0.645-0.115 0.335 0 0.63 0.115 0.3 0.115 0.525 0.345 0.225 0.225 0.355 0.565 0.135 0.34 0.135 0.785t-0.135 0.785q-0.13 0.34-0.355 0.57-0.225 0.225-0.525 0.34-0.295 0.115-0.63 0.115-0.34 0-0.645-0.115-0.3-0.115-0.53-0.34-0.225-0.23-0.36-0.57-0.13-0.34-0.13-0.785zm0.51 0q0 0.315 0.08 0.575 0.08 0.255 0.225 0.435 0.15 0.18 0.36 0.28 0.215 0.095 0.48 0.095t0.475-0.095q0.21-0.1 0.355-0.28 0.15-0.18 0.23-0.435 0.08-0.26 0.08-0.575t-0.08-0.57q-0.08-0.26-0.23-0.44-0.145-0.18-0.355-0.275-0.21-0.1-0.475-0.1t-0.48 0.1q-0.21 0.095-0.36 0.275-0.145 0.18-0.225 0.44-0.08 0.255-0.08 0.57z"/>
    <path id="path1256" d="m18.213 6.225q-0.16 0.04-0.425 0.085-0.26 0.045-0.605 0.045-0.3 0-0.505-0.085-0.205-0.09-0.33-0.25t-0.18-0.375q-0.055-0.22-0.055-0.485v-1.46h0.465v1.36q0 0.475 0.15 0.68t0.505 0.205q0.075 0 0.155-5e-3t0.15-0.01q0.07-0.01 0.125-0.015 0.06-0.01 0.085-0.02v-2.195h0.465z"/>
    <path id="path1258" d="m19.448 3.7h0.985v0.39h-0.985v1.2q0 0.195 0.03 0.325 0.03 0.125 0.09 0.2 0.06 0.07 0.15 0.1t0.21 0.03q0.21 0 0.335-0.045 0.13-0.05 0.18-0.07l0.09 0.385q-0.07 0.035-0.245 0.085-0.175 0.055-0.4 0.055-0.265 0-0.44-0.065-0.17-0.07-0.275-0.205t-0.15-0.33q-0.04-0.2-0.04-0.46v-2.32l0.465-0.08z"/>
    <path id="path1260" d="m22.828 5.005q0-0.455-0.225-0.7t-0.6-0.245q-0.21 0-0.33 0.015-0.115 0.015-0.185 0.035v1.64q0.085 0.07 0.245 0.135t0.35 0.065q0.2 0 0.34-0.07 0.145-0.075 0.235-0.2 0.09-0.13 0.13-0.3 0.04-0.175 0.04-0.375zm0.485 0q0 0.295-0.08 0.545-0.075 0.25-0.225 0.43t-0.37 0.28q-0.215 0.1-0.495 0.1-0.225 0-0.4-0.06-0.17-0.06-0.255-0.115v1.04h-0.465v-3.445q0.165-0.04 0.41-0.085 0.25-0.05 0.575-0.05 0.3 0 0.54 0.095t0.41 0.27 0.26 0.43q0.095 0.25 0.095 0.565z"/>
    <path id="path1262" d="m26.037 6.225q-0.16 0.04-0.425 0.085-0.26 0.045-0.605 0.045-0.3 0-0.505-0.085-0.205-0.09-0.33-0.25t-0.18-0.375q-0.055-0.22-0.055-0.485v-1.46h0.465v1.36q0 0.475 0.15 0.68t0.505 0.205q0.075 0 0.155-5e-3t0.15-0.01q0.07-0.01 0.125-0.015 0.06-0.01 0.085-0.02v-2.195h0.465z"/>
    <path id="path1264" d="m27.272 3.7h0.985v0.39h-0.985v1.2q0 0.195 0.03 0.325 0.03 0.125 0.09 0.2 0.06 0.07 0.15 0.1t0.21 0.03q0.21 0 0.335-0.045 0.13-0.05 0.18-0.07l0.09 0.385q-0.07 0.035-0.245 0.085-0.175 0.055-0.4 0.055-0.265 0-0.44-0.065-0.17-0.07-0.275-0.205t-0.15-0.33q-0.04-0.2-0.04-0.46v-2.32l0.465-0.08z"/>
    <path id="path198" transform="translate(12.65 119.5) scale(.15)" d="m23.274 0c-12.804 0-23.274 10.47-23.274 23.274 0 12.804 10.47 23.274 23.274 23.274 6.2817 0 11.38-2.5486 15.731-6.2455 1.5387-1.3073 3.0762-2.7877 4.6583-4.3876l-0.0086-5.8693-5.9894 0.0026c-1.4839 1.5057-2.8467 2.8283-4.0804 3.8765-3.5126 2.9845-6.0494 4.2541-10.311 4.2541-8.2813 0-14.905-6.6235-14.905-14.905 0-8.2813 6.6235-14.905 14.905-14.905 4.2612 0 6.7981 1.2697 10.311 4.2541 1.2337 1.0482 2.5965 2.3707 4.0804 3.8765l5.9894 0.0026 0.0086-5.8693c-1.5821-1.5999-3.1196-3.0803-4.6583-4.3876-4.351-3.6969-9.4489-6.2455-15.731-6.2455zm53.451 0c-6.2815 1.0197e-4 -11.379 2.5487-15.73 6.2455-1.6075 1.3659-3.2135 2.9188-4.8712 4.602h12.572c2.4765-1.7176 4.7403-2.4782 8.0292-2.4783h3.82e-4c6.2002 0 11.47 3.7129 13.728 9.0545l-6.0416-0.07531-8.5851-3.0797-28.741 3.81e-4v5.6456h-22.686v6.7186h22.686v5.6456l28.741 3.82e-4 8.5851-3.0797 6.0416-0.07531c-2.2576 5.3415-7.5279 9.0545-13.728 9.0545h-3.82e-4c-3.2889-5.9e-5 -5.5527-0.76071-8.0292-2.4783h-12.572c1.6577 1.6832 3.2637 3.2361 4.8712 4.602 4.3509 3.6968 9.4487 6.2454 15.73 6.2455h3.82e-4c12.804 0 23.274-10.47 23.274-23.274-8e-6 -12.804-10.47-23.274-23.274-23.274zm-59.712 19.295-2.8907 3.9786 2.8907 3.9786 4.6773-1.5197v-4.9178z"/>
    <g id="g202" transform="translate(26.5,27.16)">
      <path id="path1267" d="m-1.672 1.78q0.438 0 0.672 0.168 0.237 0.165 0.237 0.495 0 0.18-0.066 0.309-0.063 0.126-0.186 0.207-0.12 0.078-0.294 0.114t-0.393 0.036h-0.231v0.771h-0.291v-2.049q0.123-0.03 0.273-0.039 0.153-0.012 0.279-0.012zm0.024 0.255q-0.186 0-0.285 9e-3v0.816h0.219q0.15 0 0.27-0.018 0.12-0.021 0.201-0.066 0.084-0.048 0.129-0.129t0.045-0.207q0-0.12-0.048-0.198-0.045-0.078-0.126-0.123-0.078-0.048-0.183-0.066t-0.222-0.018z"/>
      <path id="path1269" d="m-0.41799 3.88v-2.28l0.279-0.048v0.798q0.078-0.03 0.165-0.045 0.09-0.018 0.177-0.018 0.186 0 0.309 0.054 0.123 0.051 0.195 0.147 0.075 0.093 0.105 0.225t0.03 0.291v0.876h-0.279v-0.816q0-0.144-0.021-0.246-0.018-0.102-0.063-0.165t-0.12-0.09q-0.075-0.03-0.186-0.03-0.045 0-0.093 6e-3t-0.093 0.015q-0.042 6e-3 -0.078 0.015-0.033 9e-3 -0.048 0.015v1.296z"/>
      <path id="path1271" d="m2.672 3.1q0 0.186-0.054 0.336t-0.153 0.258q-0.096 0.108-0.231 0.168-0.135 0.057-0.294 0.057t-0.294-0.057q-0.135-0.06-0.234-0.168-0.096-0.108-0.15-0.258t-0.054-0.336q0-0.183 0.054-0.333 0.054-0.153 0.15-0.261 0.099-0.108 0.234-0.165 0.135-0.06 0.294-0.06t0.294 0.06q0.135 0.057 0.231 0.165 0.099 0.108 0.153 0.261 0.054 0.15 0.054 0.333zm-0.291 0q0-0.264-0.12-0.417-0.117-0.156-0.321-0.156t-0.324 0.156q-0.117 0.153-0.117 0.417t0.117 0.42q0.12 0.153 0.324 0.153t0.321-0.153q0.12-0.156 0.12-0.42z"/>
      <path id="path1273" d="m3.065 2.365q0.096-0.024 0.255-0.051t0.366-0.027q0.186 0 0.309 0.054 0.123 0.051 0.195 0.147 0.075 0.093 0.105 0.225t0.03 0.291v0.876h-0.279v-0.816q0-0.144-0.021-0.246-0.018-0.102-0.063-0.165t-0.12-0.09q-0.075-0.03-0.186-0.03-0.045 0-0.093 3e-3t-0.093 9e-3q-0.042 3e-3 -0.078 9e-3 -0.033 6e-3 -0.048 9e-3v1.317h-0.279z"/>
      <path id="path1275" d="m4.7 3.103q0-0.207 0.06-0.36 0.06-0.156 0.159-0.258t0.228-0.153 0.264-0.051q0.315 0 0.483 0.198 0.168 0.195 0.168 0.597 0 0.018 0 0.048 0 0.027-3e-3 0.051h-1.068q0.018 0.243 0.141 0.369t0.384 0.126q0.147 0 0.246-0.024 0.102-0.027 0.153-0.051l0.039 0.234q-0.051 0.027-0.18 0.057-0.126 0.03-0.288 0.03-0.204 0-0.354-0.06-0.147-0.063-0.243-0.171t-0.144-0.255q-0.045-0.15-0.045-0.327zm1.071-0.153q3e-3 -0.189-0.096-0.309-0.096-0.123-0.267-0.123-0.096 0-0.171 0.039-0.072 0.036-0.123 0.096t-0.081 0.138q-0.027 0.078-0.036 0.159z"/>
      <path id="path1277" d="m6.827 3.679q0.171 0 0.252-0.045 0.084-0.045 0.084-0.144 0-0.102-0.081-0.162t-0.267-0.135q-0.09-0.036-0.174-0.072-0.081-0.039-0.141-0.09t-0.096-0.123-0.036-0.177q0-0.207 0.153-0.327 0.153-0.123 0.417-0.123 0.066 0 0.132 9e-3 0.066 6e-3 0.123 0.018 0.057 9e-3 0.099 0.021 0.045 0.012 0.069 0.021l-0.051 0.24q-0.045-0.024-0.141-0.048-0.096-0.027-0.231-0.027-0.117 0-0.204 0.048-0.087 0.045-0.087 0.144 0 0.051 0.018 0.09 0.021 0.039 0.06 0.072 0.042 0.03 0.102 0.057t0.144 0.057q0.111 0.042 0.198 0.084 0.087 0.039 0.147 0.093 0.063 0.054 0.096 0.132 0.033 0.075 0.033 0.186 0 0.216-0.162 0.327-0.159 0.111-0.456 0.111-0.207 0-0.324-0.036-0.117-0.033-0.159-0.051l0.051-0.24q0.048 0.018 0.153 0.054t0.279 0.036z"/>
    </g>
    <g id="g206" transform="translate(11.26,43.67)">
      <path id="path1280" d="m-1.504 4.878v0.252h-1.251v-2.079h0.291v1.827z"/>
      <path id="path1282" d="m-0.93699 5.13h-0.279v-1.56h0.279zm-0.141-1.842q-0.075 0-0.129-0.048-0.051-0.051-0.051-0.135t0.051-0.132q0.054-0.051 0.129-0.051t0.126 0.051q0.054 0.048 0.054 0.132t-0.054 0.135q-0.051 0.048-0.126 0.048z"/>
      <path id="path1284" d="m-0.45699 3.615q0.096-0.024 0.255-0.051t0.366-0.027q0.186 0 0.309 0.054 0.123 0.051 0.195 0.147 0.075 0.093 0.105 0.225t0.03 0.291v0.876h-0.279v-0.816q0-0.144-0.021-0.246-0.018-0.102-0.063-0.165t-0.12-0.09q-0.075-0.03-0.186-0.03-0.045 0-0.093 3e-3t-0.093 9e-3q-0.042 3e-3 -0.078 9e-3 -0.033 6e-3 -0.048 9e-3v1.317h-0.279z"/>
      <path id="path1286" d="m1.178 4.353q0-0.207 0.06-0.36 0.06-0.156 0.159-0.258t0.228-0.153 0.264-0.051q0.315 0 0.483 0.198 0.168 0.195 0.168 0.597 0 0.018 0 0.048 0 0.027-3e-3 0.051h-1.068q0.018 0.243 0.141 0.369t0.384 0.126q0.147 0 0.246-0.024 0.102-0.027 0.153-0.051l0.039 0.234q-0.051 0.027-0.18 0.057-0.126 0.03-0.288 0.03-0.204 0-0.354-0.06-0.147-0.063-0.243-0.171t-0.144-0.255q-0.045-0.15-0.045-0.327zm1.071-0.153q3e-3 -0.189-0.096-0.309-0.096-0.123-0.267-0.123-0.096 0-0.171 0.039-0.072 0.036-0.123 0.096t-0.081 0.138q-0.027 0.078-0.036 0.159z"/>
      <path id="path1288" d="m5.012 4.35q0 0.186-0.054 0.336t-0.153 0.258q-0.096 0.108-0.231 0.168-0.135 0.057-0.294 0.057t-0.294-0.057q-0.135-0.06-0.234-0.168-0.096-0.108-0.15-0.258t-0.054-0.336q0-0.183 0.054-0.333 0.054-0.153 0.15-0.261 0.099-0.108 0.234-0.165 0.135-0.06 0.294-0.06t0.294 0.06q0.135 0.057 0.231 0.165 0.099 0.108 0.153 0.261 0.054 0.15 0.054 0.333zm-0.291 0q0-0.264-0.12-0.417-0.117-0.156-0.321-0.156t-0.324 0.156q-0.117 0.153-0.117 0.417t0.117 0.42q0.12 0.153 0.324 0.153t0.321-0.153q0.12-0.156 0.12-0.42z"/>
      <path id="path1290" d="m6.647 5.085q-0.096 0.024-0.255 0.051-0.156 0.027-0.363 0.027-0.18 0-0.303-0.051-0.123-0.054-0.198-0.15t-0.108-0.225q-0.033-0.132-0.033-0.291v-0.876h0.279v0.816q0 0.285 0.09 0.408t0.303 0.123q0.045 0 0.093-3e-3t0.09-6e-3q0.042-6e-3 0.075-9e-3 0.036-6e-3 0.051-0.012v-1.317h0.279z"/>
      <path id="path1292" d="m7.388 3.57h0.591v0.234h-0.591v0.72q0 0.117 0.018 0.195 0.018 0.075 0.054 0.12 0.036 0.042 0.09 0.06t0.126 0.018q0.126 0 0.201-0.027 0.078-0.03 0.108-0.042l0.054 0.231q-0.042 0.021-0.147 0.051-0.105 0.033-0.24 0.033-0.159 0-0.264-0.039-0.102-0.042-0.165-0.123t-0.09-0.198q-0.024-0.12-0.024-0.276v-1.392l0.279-0.048z"/>
    </g>
    <g id="g209" transform="translate(12.53,56.37)">
      <path id="path1295" d="m-2.1315 5.921h0.291v2.079h-0.291z"/>
      <path id="path1297" d="m-1.3425 6.485q0.096-0.024 0.255-0.051t0.366-0.027q0.186 0 0.309 0.054 0.123 0.051 0.195 0.147 0.075 0.093 0.105 0.225t0.03 0.291v0.876h-0.279v-0.816q0-0.144-0.021-0.246-0.018-0.102-0.063-0.165t-0.12-0.09q-0.075-0.03-0.186-0.03-0.045 0-0.093 3e-3t-0.093 9e-3q-0.042 3e-3 -0.078 9e-3 -0.033 6e-3 -0.048 9e-3v1.317h-0.279z"/>
      <path id="path1299" d="m2.3415 7.748v0.252h-1.251v-2.079h0.291v1.827z"/>
    </g>
    <g id="g212" transform="translate(27.77,56.37)">
      <path id="path1302" d="m-2.2965 5.921h0.291v2.079h-0.291z"/>
      <path id="path1304" d="m-1.5075 6.485q0.096-0.024 0.255-0.051t0.366-0.027q0.186 0 0.309 0.054 0.123 0.051 0.195 0.147 0.075 0.093 0.105 0.225t0.03 0.291v0.876h-0.279v-0.816q0-0.144-0.021-0.246-0.018-0.102-0.063-0.165t-0.12-0.09q-0.075-0.03-0.186-0.03-0.045 0-0.093 3e-3t-0.093 9e-3q-0.042 3e-3 -0.078 9e-3 -0.033 6e-3 -0.048 9e-3v1.317h-0.279z"/>
      <path id="path1306" d="m1.9425 7.13q0.048 0.06 0.12 0.159 0.075 0.096 0.153 0.216 0.078 0.117 0.153 0.246 0.078 0.129 0.132 0.249h-0.318q-0.06-0.114-0.132-0.231-0.069-0.117-0.141-0.222-0.072-0.108-0.144-0.201-0.069-0.093-0.126-0.162-0.039 3e-3 -0.081 3e-3 -0.039 0-0.081 0h-0.261v0.813h-0.291v-2.049q0.123-0.03 0.273-0.039 0.153-0.012 0.279-0.012 0.438 0 0.666 0.165 0.231 0.165 0.231 0.492 0 0.207-0.111 0.354-0.108 0.147-0.321 0.219zm-0.441-0.975q-0.186 0-0.285 9e-3v0.783h0.207q0.15 0 0.27-0.015t0.201-0.057q0.084-0.042 0.129-0.117 0.045-0.078 0.045-0.204 0-0.117-0.045-0.195t-0.123-0.123q-0.075-0.045-0.18-0.063-0.102-0.018-0.219-0.018z"/>
    </g>
    <g id="g218" transform="translate(20.15,91.93)">
      <path id="path1310" d="m-4.2695-5.252v0.252h-1.251v-2.079h0.291v1.827z"/>
    </g>
    <g id="g221" transform="translate(20.15,108.44)">
      <path id="path1313" d="m-4.6685-5.87q0.048 0.06 0.12 0.159 0.075 0.096 0.153 0.216 0.078 0.117 0.153 0.246 0.078 0.129 0.132 0.249h-0.318q-0.06-0.114-0.132-0.231-0.069-0.117-0.141-0.222-0.072-0.108-0.144-0.201-0.069-0.093-0.126-0.162-0.039 3e-3 -0.081 3e-3 -0.039 0-0.081 0h-0.261v0.813h-0.291v-2.049q0.123-0.03 0.273-0.039 0.153-0.012 0.279-0.012 0.438 0 0.666 0.165 0.231 0.165 0.231 0.492 0 0.207-0.111 0.354-0.108 0.147-0.321 0.219zm-0.441-0.975q-0.186 0-0.285 9e-3v0.783h0.207q0.15 0 0.27-0.015t0.201-0.057q0.084-0.042 0.129-0.117 0.045-0.078 0.045-0.204 0-0.117-0.045-0.195t-0.123-0.123q-0.075-0.045-0.18-0.063-0.102-0.018-0.219-0.018z"/>
    </g>
    <path id="path223" d="m14.4 68.42c-0.52488 0-0.95257 0.4277-0.95257 0.95257v0.0783c-0.17505 0.09524-0.29743 0.28152-0.29743 0.49854 0 0.30949 0.24146 0.56768 0.54336 0.56768h0.10085v-1.1354h-0.10085c-0.01573 0-0.02885 0.0081-0.04422 0.0095v-0.01861c0-0.41587 0.335-0.75087 0.75087-0.75087 0.41587 0 0.75077 0.335 0.75077 0.75087v0.01861c-0.01537-0.0014-0.0285-0.0095-0.04422-0.0095h-0.10085v1.1354h0.10085c0.3019 0 0.54346-0.25819 0.54346-0.56768 0-0.21707-0.12244-0.40343-0.29754-0.49864v-0.0782c0-0.52488-0.4276-0.95257-0.95248-0.95257z" stroke-width="0"/>
    <path id="path1316" d="m2.2092 79.111h0.5292v-0.5768h0.224v0.5768h0.5292v0.2212h-0.5292v0.5796h-0.224v-0.5796h-0.5292z"/>
    <path id="path1318" d="m3.8164 79.282q0-0.2828 0.0784-0.4984 0.0784-0.2184 0.2212-0.3668 0.1456-0.1484 0.35-0.224 0.2072-0.0784 0.4648-0.0812l0.0196 0.2184q-0.1652 0.0028-0.3024 0.0364-0.1344 0.0336-0.2408 0.1064t-0.1792 0.1904q-0.0728 0.1148-0.1092 0.2856 0.0728-0.0336 0.1624-0.056 0.0924-0.0224 0.1904-0.0224 0.1652 0 0.28 0.0504t0.1876 0.1344q0.0728 0.0812 0.1036 0.1904 0.0336 0.1064 0.0336 0.224 0 0.1064-0.0364 0.2184t-0.112 0.2044q-0.0728 0.0924-0.1876 0.1512t-0.2716 0.0588q-0.3192 0-0.4872-0.2184-0.1652-0.2184-0.1652-0.602zm0.6272-0.1988q-0.098 0-0.182 0.0196-0.084 0.0168-0.168 0.0532-0.0028 0.0308-0.0056 0.0644 0 0.0308 0 0.0616 0 0.1232 0.0168 0.2324t0.0588 0.1932q0.0448 0.0812 0.1176 0.1316 0.0728 0.0476 0.1848 0.0476 0.0924 0 0.1568-0.0392t0.1064-0.1008 0.0588-0.1316q0.0196-0.0728 0.0196-0.14 0-0.1904-0.0924-0.2912-0.0896-0.1008-0.2716-0.1008z"/>
    <path id="path1321" d="m2.2092 85.461h0.5292v-0.5768h0.224v0.5768h0.5292v0.2212h-0.5292v0.5796h-0.224v-0.5796h-0.5292z"/>
    <path id="path1323" d="m4.2728 86.22q0.2492 0 0.3556-0.098 0.1092-0.098 0.1092-0.2632 0-0.1064-0.0448-0.1792t-0.1176-0.1148q-0.0728-0.0448-0.1708-0.0616-0.0952-0.0196-0.196-0.0196h-0.0672v-0.2128h0.0924q0.07 0 0.1428-0.014 0.0756-0.014 0.1372-0.0504t0.1008-0.098q0.0392-0.0644 0.0392-0.1596 0-0.0784-0.028-0.1344t-0.0756-0.0924q-0.0448-0.0364-0.1064-0.0504-0.0588-0.0168-0.126-0.0168-0.1344 0-0.2296 0.0392-0.0924 0.0392-0.1568 0.0812l-0.1008-0.1988q0.0336-0.0224 0.084-0.0476 0.0532-0.028 0.1176-0.0504t0.1372-0.0364q0.0756-0.0168 0.1568-0.0168 0.154 0 0.266 0.0392 0.112 0.0364 0.1848 0.1064 0.0728 0.0672 0.1092 0.1624 0.0364 0.0924 0.0364 0.2016 0 0.1512-0.0868 0.2604-0.0868 0.1064-0.21 0.1624 0.0756 0.0224 0.1456 0.0644t0.1204 0.1064q0.0532 0.0644 0.084 0.1484 0.0336 0.084 0.0336 0.1876 0 0.126-0.0448 0.2352-0.042 0.1064-0.1344 0.1848-0.0896 0.0784-0.2268 0.1232t-0.3248 0.0448q-0.0728 0-0.1512-0.0112-0.0756-0.0112-0.1428-0.028t-0.1176-0.0336-0.0728-0.028l0.0504-0.2268q0.0476 0.0224 0.1568 0.0588 0.112 0.0364 0.2716 0.0364z"/>
    <path id="path1326" d="m2.9904 91.788q0-0.4872 0.1708-0.7504 0.1736-0.2632 0.4788-0.2632t0.476 0.2632q0.1736 0.2632 0.1736 0.7504t-0.1736 0.7504q-0.1708 0.2632-0.476 0.2632t-0.4788-0.2632q-0.1708-0.2632-0.1708-0.7504zm1.0248 0q0-0.1596-0.0196-0.3024-0.0168-0.1428-0.0616-0.2492-0.042-0.1064-0.1148-0.168-0.0728-0.0644-0.1792-0.0644t-0.1792 0.0644q-0.0728 0.0616-0.1176 0.168-0.042 0.1064-0.0616 0.2492-0.0168 0.1428-0.0168 0.3024t0.0168 0.3024q0.0196 0.1428 0.0616 0.2492 0.0448 0.1064 0.1176 0.1708 0.0728 0.0616 0.1792 0.0616t0.1792-0.0616q0.0728-0.0644 0.1148-0.1708 0.0448-0.1064 0.0616-0.2492 0.0196-0.1428 0.0196-0.3024z"/>
    <path id="path1329" d="m2.5046 98.15h0.6916v0.2436h-0.6916z"/>
    <path id="path1331" d="m4.6718 97.945q0 0.5768-0.2884 0.8736-0.2856 0.294-0.8512 0.2968l-0.0084-0.2184q0.1764 0 0.3164-0.0336 0.1428-0.0336 0.2492-0.1064 0.1064-0.0756 0.1764-0.1932 0.0728-0.1176 0.1064-0.2884-0.0728 0.0336-0.1652 0.056-0.0924 0.0196-0.1904 0.0196-0.1652 0-0.28-0.0476-0.1148-0.0504-0.1876-0.1316-0.0728-0.084-0.1064-0.1904-0.0308-0.1092-0.0308-0.2268 0-0.1036 0.0364-0.2156t0.1092-0.2044q0.0756-0.0924 0.1904-0.1512t0.2716-0.0588q0.1596 0 0.28 0.056 0.1232 0.056 0.2044 0.1624 0.084 0.1064 0.126 0.2604 0.042 0.1512 0.042 0.3416zm-0.6272 0.1932q0.098 0 0.1848-0.0168 0.0868-0.0196 0.168-0.056 0.0028-0.0308 0.0028-0.0588 0-0.0308 0-0.0616 0-0.1204-0.0168-0.2296-0.0168-0.112-0.0616-0.1932-0.042-0.084-0.1148-0.1316-0.0728-0.0504-0.1848-0.0504-0.0924 0-0.1568 0.0392t-0.1064 0.1008q-0.042 0.0588-0.0616 0.1316-0.0168 0.07-0.0168 0.1372 0 0.1904 0.0896 0.2912 0.0924 0.098 0.2744 0.098z"/>
    <path id="path1334" d="m1.715 104.5h0.6916v0.2436h-0.6916z"/>
    <path id="path1336" d="m2.7398 103.92q0.1596-0.0616 0.3108-0.1568 0.1512-0.098 0.2772-0.2436h0.1848v1.9404h-0.2604v-1.5792q-0.0336 0.0308-0.084 0.0644-0.0476 0.0336-0.1064 0.0644-0.056 0.0308-0.1204 0.0588-0.0616 0.028-0.1204 0.0476z"/>
    <path id="path1338" d="m5.4838 104.96q0 0.1176-0.042 0.2184-0.0392 0.098-0.1204 0.1736-0.0784 0.0728-0.1988 0.112-0.1204 0.042-0.2772 0.042-0.182 0-0.3052-0.0504-0.1204-0.0532-0.1932-0.1316-0.0728-0.0784-0.1036-0.1708-0.0308-0.0952-0.0308-0.1792 0-0.0812 0.0252-0.154 0.028-0.0756 0.07-0.14 0.0448-0.0644 0.1008-0.1148 0.0588-0.0532 0.1232-0.0924-0.2744-0.1568-0.2744-0.462 0-0.1064 0.042-0.2016 0.042-0.098 0.1176-0.1708 0.0784-0.0728 0.1876-0.1148 0.1092-0.0448 0.2436-0.0448 0.1568 0 0.2688 0.0476t0.182 0.1232q0.0728 0.0728 0.1036 0.1624 0.0336 0.0896 0.0336 0.1736 0 0.0812-0.0252 0.154-0.0224 0.07-0.0644 0.1316-0.0392 0.0616-0.0924 0.1092-0.0504 0.0476-0.1064 0.084 0.3304 0.1568 0.336 0.4956zm-1.008 0.0168q0 0.0504 0.0168 0.1064 0.0196 0.0532 0.0644 0.1008 0.0448 0.0448 0.1148 0.0756t0.1764 0.0308q0.0952 0 0.1652-0.028 0.0728-0.028 0.1176-0.07 0.0448-0.0448 0.0672-0.1008t0.0224-0.1148q0-0.0896-0.0336-0.1568t-0.098-0.1176q-0.0616-0.0504-0.1512-0.084-0.0868-0.0364-0.1988-0.0616-0.126 0.07-0.196 0.1736-0.0672 0.1036-0.0672 0.2464zm0.7-0.994q0-0.042-0.0196-0.0924-0.0168-0.0504-0.056-0.0924-0.0392-0.0448-0.1008-0.0728-0.0616-0.0308-0.1512-0.0308t-0.154 0.028q-0.0616 0.028-0.1008 0.0728-0.0392 0.042-0.0588 0.0952-0.0168 0.0504-0.0168 0.1008 0 0.0616 0.0224 0.1232t0.07 0.1148 0.1232 0.0952q0.0784 0.042 0.1848 0.0672 0.1176-0.07 0.1876-0.1624 0.07-0.0952 0.07-0.2464z"/>
    <path id="path1341" d="m35.229 79.111h0.5292v-0.5768h0.224v0.5768h0.5292v0.2212h-0.5292v0.5796h-0.224v-0.5796h-0.5292z"/>
    <path id="path1343" d="m36.836 79.282q0-0.2828 0.0784-0.4984 0.0784-0.2184 0.2212-0.3668 0.1456-0.1484 0.35-0.224 0.2072-0.0784 0.4648-0.0812l0.0196 0.2184q-0.1652 0.0028-0.3024 0.0364-0.1344 0.0336-0.2408 0.1064t-0.1792 0.1904q-0.0728 0.1148-0.1092 0.2856 0.0728-0.0336 0.1624-0.056 0.0924-0.0224 0.1904-0.0224 0.1652 0 0.28 0.0504t0.1876 0.1344q0.0728 0.0812 0.1036 0.1904 0.0336 0.1064 0.0336 0.224 0 0.1064-0.0364 0.2184t-0.112 0.2044q-0.0728 0.0924-0.1876 0.1512t-0.2716 0.0588q-0.3192 0-0.4872-0.2184-0.1652-0.2184-0.1652-0.602zm0.6272-0.1988q-0.098 0-0.182 0.0196-0.084 0.0168-0.168 0.0532-0.0028 0.0308-0.0056 0.0644 0 0.0308 0 0.0616 0 0.1232 0.0168 0.2324t0.0588 0.1932q0.0448 0.0812 0.1176 0.1316 0.0728 0.0476 0.1848 0.0476 0.0924 0 0.1568-0.0392t0.1064-0.1008 0.0588-0.1316q0.0196-0.0728 0.0196-0.14 0-0.1904-0.0924-0.2912-0.0896-0.1008-0.2716-0.1008z"/>
    <path id="path1346" d="m35.229 85.461h0.5292v-0.5768h0.224v0.5768h0.5292v0.2212h-0.5292v0.5796h-0.224v-0.5796h-0.5292z"/>
    <path id="path1348" d="m37.293 86.22q0.2492 0 0.3556-0.098 0.1092-0.098 0.1092-0.2632 0-0.1064-0.0448-0.1792t-0.1176-0.1148q-0.0728-0.0448-0.1708-0.0616-0.0952-0.0196-0.196-0.0196h-0.0672v-0.2128h0.0924q0.07 0 0.1428-0.014 0.0756-0.014 0.1372-0.0504t0.1008-0.098q0.0392-0.0644 0.0392-0.1596 0-0.0784-0.028-0.1344t-0.0756-0.0924q-0.0448-0.0364-0.1064-0.0504-0.0588-0.0168-0.126-0.0168-0.1344 0-0.2296 0.0392-0.0924 0.0392-0.1568 0.0812l-0.1008-0.1988q0.0336-0.0224 0.084-0.0476 0.0532-0.028 0.1176-0.0504t0.1372-0.0364q0.0756-0.0168 0.1568-0.0168 0.154 0 0.266 0.0392 0.112 0.0364 0.1848 0.1064 0.0728 0.0672 0.1092 0.1624 0.0364 0.0924 0.0364 0.2016 0 0.1512-0.0868 0.2604-0.0868 0.1064-0.21 0.1624 0.0756 0.0224 0.1456 0.0644t0.1204 0.1064q0.0532 0.0644 0.084 0.1484 0.0336 0.084 0.0336 0.1876 0 0.126-0.0448 0.2352-0.042 0.1064-0.1344 0.1848-0.0896 0.0784-0.2268 0.1232t-0.3248 0.0448q-0.0728 0-0.1512-0.0112-0.0756-0.0112-0.1428-0.028t-0.1176-0.0336-0.0728-0.028l0.0504-0.2268q0.0476 0.0224 0.1568 0.0588 0.112 0.0364 0.2716 0.0364z"/>
    <path id="path1351" d="m36.01 91.788q0-0.4872 0.1708-0.7504 0.1736-0.2632 0.4788-0.2632t0.476 0.2632q0.1736 0.2632 0.1736 0.7504t-0.1736 0.7504q-0.1708 0.2632-0.476 0.2632t-0.4788-0.2632q-0.1708-0.2632-0.1708-0.7504zm1.0248 0q0-0.1596-0.0196-0.3024-0.0168-0.1428-0.0616-0.2492-0.042-0.1064-0.1148-0.168-0.0728-0.0644-0.1792-0.0644t-0.1792 0.0644q-0.0728 0.0616-0.1176 0.168-0.042 0.1064-0.0616 0.2492-0.0168 0.1428-0.0168 0.3024t0.0168 0.3024q0.0196 0.1428 0.0616 0.2492 0.0448 0.1064 0.1176 0.1708 0.0728 0.0616 0.1792 0.0616t0.1792-0.0616q0.0728-0.0644 0.1148-0.1708 0.0448-0.1064 0.0616-0.2492 0.0196-0.1428 0.0196-0.3024z"/>
    <path id="path1354" d="m35.525 98.15h0.6916v0.2436h-0.6916z"/>
    <path id="path1356" d="m37.692 97.945q0 0.5768-0.2884 0.8736-0.2856 0.294-0.8512 0.2968l-0.0084-0.2184q0.1764 0 0.3164-0.0336 0.1428-0.0336 0.2492-0.1064 0.1064-0.0756 0.1764-0.1932 0.0728-0.1176 0.1064-0.2884-0.0728 0.0336-0.1652 0.056-0.0924 0.0196-0.1904 0.0196-0.1652 0-0.28-0.0476-0.1148-0.0504-0.1876-0.1316-0.0728-0.084-0.1064-0.1904-0.0308-0.1092-0.0308-0.2268 0-0.1036 0.0364-0.2156t0.1092-0.2044q0.0756-0.0924 0.1904-0.1512t0.2716-0.0588q0.1596 0 0.28 0.056 0.1232 0.056 0.2044 0.1624 0.084 0.1064 0.126 0.2604 0.042 0.1512 0.042 0.3416zm-0.6272 0.1932q0.098 0 0.1848-0.0168 0.0868-0.0196 0.168-0.056 0.0028-0.0308 0.0028-0.0588 0-0.0308 0-0.0616 0-0.1204-0.0168-0.2296-0.0168-0.112-0.0616-0.1932-0.042-0.084-0.1148-0.1316-0.0728-0.0504-0.1848-0.0504-0.0924 0-0.1568 0.0392t-0.1064 0.1008q-0.042 0.0588-0.0616 0.1316-0.0168 0.07-0.0168 0.1372 0 0.1904 0.0896 0.2912 0.0924 0.098 0.2744 0.098z"/>
    <path id="path1359" d="m34.735 104.5h0.6916v0.2436h-0.6916z"/>
    <path id="path1361" d="m35.76 103.92q0.1596-0.0616 0.3108-0.1568 0.1512-0.098 0.2772-0.2436h0.1848v1.9404h-0.2604v-1.5792q-0.0336 0.0308-0.084 0.0644-0.0476 0.0336-0.1064 0.0644-0.056 0.0308-0.1204 0.0588-0.0616 0.028-0.1204 0.0476z"/>
    <path id="path1363" d="m38.504 104.96q0 0.1176-0.042 0.2184-0.0392 0.098-0.1204 0.1736-0.0784 0.0728-0.1988 0.112-0.1204 0.042-0.2772 0.042-0.182 0-0.3052-0.0504-0.1204-0.0532-0.1932-0.1316t-0.1036-0.1708q-0.0308-0.0952-0.0308-0.1792 0-0.0812 0.0252-0.154 0.028-0.0756 0.07-0.14 0.0448-0.0644 0.1008-0.1148 0.0588-0.0532 0.1232-0.0924-0.2744-0.1568-0.2744-0.462 0-0.1064 0.042-0.2016 0.042-0.098 0.1176-0.1708 0.0784-0.0728 0.1876-0.1148 0.1092-0.0448 0.2436-0.0448 0.1568 0 0.2688 0.0476t0.182 0.1232q0.0728 0.0728 0.1036 0.1624 0.0336 0.0896 0.0336 0.1736 0 0.0812-0.0252 0.154-0.0224 0.07-0.0644 0.1316-0.0392 0.0616-0.0924 0.1092-0.0504 0.0476-0.1064 0.084 0.3304 0.1568 0.336 0.4956zm-1.008 0.0168q0 0.0504 0.0168 0.1064 0.0196 0.0532 0.0644 0.1008 0.0448 0.0448 0.1148 0.0756t0.1764 0.0308q0.0952 0 0.1652-0.028 0.0728-0.028 0.1176-0.07 0.0448-0.0448 0.0672-0.1008t0.0224-0.1148q0-0.0896-0.0336-0.1568t-0.098-0.1176q-0.0616-0.0504-0.1512-0.084-0.0868-0.0364-0.1988-0.0616-0.126 0.07-0.196 0.1736-0.0672 0.1036-0.0672 0.2464zm0.7-0.994q0-0.042-0.0196-0.0924-0.0168-0.0504-0.056-0.0924-0.0392-0.0448-0.1008-0.0728-0.0616-0.0308-0.1512-0.0308t-0.154 0.028q-0.0616 0.028-0.1008 0.0728-0.0392 0.042-0.0588 0.0952-0.0168 0.0504-0.0168 0.1008 0 0.0616 0.0224 0.1232t0.07 0.1148 0.1232 0.0952q0.0784 0.042 0.1848 0.0672 0.1176-0.07 0.1876-0.1624 0.07-0.0952 0.07-0.2464z"/>
  </g>
  <g id="throughholes">
    <circle id="circle267" cx="7.45" cy="3" r="1.7"/>
    <circle id="circle269" cx="7.45" cy="125.5" r="1.7"/>
    <circle id="circle271" cx="32.85" cy="3" r="1.7"/>
    <circle id="circle273" cx="32.85" cy="125.5" r="1.7"/>
    <circle id="circle275" cx="29.04" cy="19.54" r="3.65"/>
    <circle id="circle279" cx="13.8" cy="36.05" r="3.65"/>
    <circle id="circle283" cx="12.53" cy="56.37" r="3.15"/>
    <circle id="circle287" cx="27.77" cy="56.37" r="3.15"/>
    <circle id="circle291" cx="20.15" cy="75.42" r="4.75"/>
    <circle id="circle295" cx="20.15" cy="91.93" r="4.75"/>
    <circle id="circle299" cx="20.15" cy="108.44" r="4.75"/>
  </g>
  <g id="cosmetics">
    <g id="cosmetics_offset" transform="translate(20.15,17)">
      <g id="g317" transform="translate(6.35,10.16)">
        <circle id="circle305" cx="2.54" cy="-7.62" r="7.15" fill="url(#id1) none"/>
        <circle id="circle307" cx="2.54" cy="-7.62" r="7.15" fill="url(#id2) none"/>
        <path id="path309" d="m-0.69282-12.07a5.5 5.5 0 0 1 3.8077-1.0203l0.46279 0.32345 0.63684 0.17064 0.56252-0.048716a5.5 5.5 0 0 1 2.7874 2.7874l-0.048716 0.56252 0.17064 0.63684 0.32345 0.46279a5.5 5.5 0 0 1-1.0203 3.8077l-0.51151 0.23907-0.4662 0.4662-0.23907 0.51151a5.5 5.5 0 0 1-3.8077 1.0203l-0.46279-0.32345-0.63684-0.17064-0.56252 0.048716a5.5 5.5 0 0 1-2.7874-2.7874l0.048716-0.56252-0.17064-0.63684-0.32345-0.46279a5.5 5.5 0 0 1 1.0203-3.8077l0.51151-0.23907 0.4662-0.4662z" fill="url(#id3) none"/>
        <path id="path311" d="m-0.25198-11.463a4.75 4.75 0 0 1 3.2885-0.88115l0.39295 0.31276 0.54586 0.14626 0.49668-0.074383a4.75 4.75 0 0 1 2.4073 2.4073l-0.074383 0.49668 0.14626 0.54586 0.31276 0.39295a4.75 4.75 0 0 1-0.88115 3.2885l-0.46733 0.18392-0.3996 0.3996-0.18392 0.46733a4.75 4.75 0 0 1-3.2885 0.88115l-0.39295-0.31276-0.54586-0.14626-0.49668 0.074383a4.75 4.75 0 0 1-2.4073-2.4073l0.074383-0.49668-0.14626-0.54586-0.31276-0.39295a4.75 4.75 0 0 1 0.88115-3.2885l0.46733-0.18392 0.3996-0.3996z" fill="url(#id4) none"/>
        <circle id="circle313" cx="2.54" cy="-7.62" r="4" fill="url(#id5) none"/>
        <line id="line315" x1="2.54" x2="-.28843" y1="-7.62" y2="-10.448" stroke="#fff" stroke-width=".8"/>
      </g>
      <g id="g331" transform="translate(-8.89 26.67)">
        <circle id="circle319" cx="2.54" cy="-7.62" r="9.25" fill="url(#id1) none"/>
        <circle id="circle321" cx="2.54" cy="-7.62" r="9.25" fill="url(#id7) none"/>
        <path id="path323" d="m-1.9566-13.809a7.65 7.65 0 0 1 5.2962-1.4191l0.64326 0.45211 0.8855 0.23727 0.78313-0.069913a7.65 7.65 0 0 1 3.8771 3.8771l-0.069913 0.78313 0.23727 0.8855 0.45211 0.64326a7.65 7.65 0 0 1-1.4191 5.2962l-0.71317 0.33102-0.64823 0.64823-0.33102 0.71317a7.65 7.65 0 0 1-5.2962 1.4191l-0.64326-0.45211-0.8855-0.23727-0.78313 0.069913a7.65 7.65 0 0 1-3.8771-3.8771l0.069913-0.78313-0.23727-0.8855-0.45211-0.64326a7.65 7.65 0 0 1 1.4191-5.2962l0.71317-0.33102 0.64823-0.64823z" fill="url(#id3) none"/>
        <path id="path325" d="m-1.3394-12.96a6.6 6.6 0 0 1 4.5693-1.2243l0.54547 0.43715 0.75814 0.20314 0.69097-0.10585a6.6 6.6 0 0 1 3.3449 3.3449l-0.10585 0.69097 0.20314 0.75814 0.43715 0.54547a6.6 6.6 0 0 1-1.2243 4.5693l-0.65132 0.25382-0.555 0.555-0.25382 0.65132a6.6 6.6 0 0 1-4.5693 1.2243l-0.54547-0.43715-0.75814-0.20314-0.69097 0.10585a6.6 6.6 0 0 1-3.3449-3.3449l0.10585-0.69097-0.20314-0.75814-0.43715-0.54547a6.6 6.6 0 0 1 1.2243-4.5693l0.65132-0.25382 0.555-0.555z" fill="url(#id4) none"/>
        <circle id="circle327" cx="2.54" cy="-7.62" r="5.75" fill="url(#id10) none"/>
        <line id="line329" x1="2.54" x2="-1.5259" y1="-7.62" y2="-11.686" stroke="#fff" stroke-width=".8"/>
      </g>
      <g id="g339" transform="translate(-7.62 39.37)">
        <path id="path333" d="m3.55 0-0.013509 0.3094 0.15654 0.34178-0.070807 0.31939-0.28631 0.2436-0.11852 0.28612 0.030203 0.37471-0.17578 0.27591-0.35236 0.13098-0.20923 0.22833-0.099776 0.36244-0.25954 0.19915-0.37591 0.00257-0.27471 0.143-0.21772 0.30645-0.312 0.098375-0.35412-0.12615-0.30705 0.040424-0.3094 0.21351-0.32683-0.01427-0.28962-0.23966-0.30236-0.067031-0.36377 0.094811-0.30224-0.12519-0.19018-0.32426-0.2612-0.1664-0.37426-0.035323-0.2412-0.22102-0.067807-0.36975-0.18853-0.2457-0.33961-0.1612-0.15106-0.29018 0.062745-0.37065-0.093128-0.29536-0.26399-0.26763-0.042701-0.32435 0.18573-0.32683 0.013509-0.3094-0.15654-0.34178 0.070807-0.31939 0.28631-0.2436 0.11852-0.28612-0.030203-0.37471 0.17578-0.27591 0.35236-0.13098 0.20923-0.22833 0.099776-0.36244 0.25954-0.19915 0.37591-0.00257 0.27471-0.143 0.21772-0.30645 0.312-0.098375 0.35412 0.12615 0.30705-0.040424 0.3094-0.21351 0.32683 0.01427 0.28962 0.23966 0.30236 0.067031 0.36377-0.094811 0.30224 0.12519 0.19018 0.32426 0.2612 0.1664 0.37426 0.035323 0.2412 0.22102 0.067807 0.36975 0.18853 0.2457 0.33961 0.1612 0.15106 0.29018-0.062745 0.37065 0.093128 0.29536 0.26399 0.26763 0.042701 0.32435z" fill="url(#id11) none"/>
        <circle id="circle335" r="3.15" fill="url(#id12) none"/>
        <circle id="circle337" r="2.35" fill="url(#id13) none"/>
      </g>
      <g id="g347" transform="translate(7.62 39.37)">
        <path id="path341" d="m3.55 0-0.013509 0.3094 0.15654 0.34178-0.070807 0.31939-0.28631 0.2436-0.11852 0.28612 0.030203 0.37471-0.17578 0.27591-0.35236 0.13098-0.20923 0.22833-0.099776 0.36244-0.25954 0.19915-0.37591 0.00257-0.27471 0.143-0.21772 0.30645-0.312 0.098375-0.35412-0.12615-0.30705 0.040424-0.3094 0.21351-0.32683-0.01427-0.28962-0.23966-0.30236-0.067031-0.36377 0.094811-0.30224-0.12519-0.19018-0.32426-0.2612-0.1664-0.37426-0.035323-0.2412-0.22102-0.067807-0.36975-0.18853-0.2457-0.33961-0.1612-0.15106-0.29018 0.062745-0.37065-0.093128-0.29536-0.26399-0.26763-0.042701-0.32435 0.18573-0.32683 0.013509-0.3094-0.15654-0.34178 0.070807-0.31939 0.28631-0.2436 0.11852-0.28612-0.030203-0.37471 0.17578-0.27591 0.35236-0.13098 0.20923-0.22833 0.099776-0.36244 0.25954-0.19915 0.37591-0.00257 0.27471-0.143 0.21772-0.30645 0.312-0.098375 0.35412 0.12615 0.30705-0.040424 0.3094-0.21351 0.32683 0.01427 0.28962 0.23966 0.30236 0.067031 0.36377-0.094811 0.30224 0.12519 0.19018 0.32426 0.2612 0.1664 0.37426 0.035323 0.2412 0.22102 0.067807 0.36975 0.18853 0.2457 0.33961 0.1612 0.15106 0.29018-0.062745 0.37065 0.093128 0.29536 0.26399 0.26763 0.042701 0.32435z" fill="url(#id11) none"/>
        <circle id="circle343" r="3.15" fill="url(#id12) none"/>
        <circle id="circle345" r="2.35" fill="url(#id13) none"/>
      </g>
      <g id="g355" transform="translate(0,58.42)">
        <path id="path349" d="m5.2395 3.025-5.2395 3.025-5.2395-3.025-2e-15 -6.05 5.2395-3.025 5.2395 3.025z" fill="url(#id11) none"/>
        <circle id="circle351" r="4.75" fill="url(#id18) none"/>
        <circle id="circle353" r="3.95" fill="url(#id13) none"/>
      </g>
      <g id="g363" transform="translate(0,74.93)">
        <path id="path357" d="m5.2395 3.025-5.2395 3.025-5.2395-3.025-2e-15 -6.05 5.2395-3.025 5.2395 3.025z" fill="url(#id11) none"/>
        <circle id="circle359" r="4.75" fill="url(#id18) none"/>
        <circle id="circle361" r="3.95" fill="url(#id13) none"/>
      </g>
      <g id="g371" transform="translate(0,91.44)">
        <path id="path365" d="m5.2395 3.025-5.2395 3.025-5.2395-3.025-2e-15 -6.05 5.2395-3.025 5.2395 3.025z" fill="url(#id11) none"/>
        <circle id="circle367" r="4.75" fill="url(#id18) none"/>
        <circle id="circle369" r="3.95" fill="url(#id13) none"/>
      </g>
      <g id="g377" transform="translate(-11.43,60.96)">
        <circle id="circle373" cy="1.27" r="1.55" fill="url(#id26) none"/>
        <ellipse id="ellipse375" transform="rotate(20 .51667 .495)" cx=".51667" cy=".495" rx=".775" ry=".51667" fill="#fff" opacity=".8"/>
      </g>
      <g id="g383" transform="translate(-11.43 67.31)">
        <circle id="circle379" cy="1.27" r="1.55" fill="url(#id27) none"/>
        <ellipse id="ellipse381" transform="rotate(20 .51667 .495)" cx=".51667" cy=".495" rx=".775" ry=".51667" fill="#fff" opacity=".8"/>
      </g>
      <g id="g389" transform="translate(-11.43 73.66)">
        <circle id="circle385" cy="1.27" r="1.55" fill="url(#id28) none"/>
        <ellipse id="ellipse387" transform="rotate(20 .51667 .495)" cx=".51667" cy=".495" rx=".775" ry=".51667" fill="#fff" opacity=".8"/>
      </g>
      <g id="g395" transform="translate(-11.43,80.01)">
        <circle id="circle391" cy="1.27" r="1.55" fill="url(#id28) none"/>
        <ellipse id="ellipse393" transform="rotate(20 .51667 .495)" cx=".51667" cy=".495" rx=".775" ry=".51667" fill="#fff" opacity=".8"/>
      </g>
      <g id="g401" transform="translate(-11.43 86.36)">
        <circle id="circle397" cy="1.27" r="1.55" fill="url(#id28) none"/>
        <ellipse id="ellipse399" transform="rotate(20 .51667 .495)" cx=".51667" cy=".495" rx=".775" ry=".51667" fill="#fff" opacity=".8"/>
      </g>
      <g id="g407" transform="translate(11.43,60.96)">
        <circle id="circle403" cy="1.27" r="1.55" fill="url(#id26) none"/>
        <ellipse id="ellipse405" transform="rotate(20 .51667 .495)" cx=".51667" cy=".495" rx=".775" ry=".51667" fill="#fff" opacity=".8"/>
      </g>
      <g id="g413" transform="translate(11.43 67.31)">
        <circle id="circle409" cy="1.27" r="1.55" fill="url(#id27) none"/>
        <ellipse id="ellipse411" transform="rotate(20 .51667 .495)" cx=".51667" cy=".495" rx=".775" ry=".51667" fill="#fff" opacity=".8"/>
      </g>
      <g id="g419" transform="translate(11.43 73.66)">
        <circle id="circle415" cy="1.27" r="1.55" fill="url(#id28) none"/>
        <ellipse id="ellipse417" transform="rotate(20 .51667 .495)" cx=".51667" cy=".495" rx=".775" ry=".51667" fill="#fff" opacity=".8"/>
      </g>
      <g id="g425" transform="translate(11.43,80.01)">
        <circle id="circle421" cy="1.27" r="1.55" fill="url(#id28) none"/>
        <ellipse id="ellipse423" transform="rotate(20 .51667 .495)" cx=".51667" cy=".495" rx=".775" ry=".51667" fill="#fff" opacity=".8"/>
      </g>
      <g id="g431" transform="translate(11.43 86.36)">
        <circle id="circle427" cy="1.27" r="1.55" fill="url(#id28) none"/>
        <ellipse id="ellipse429" transform="rotate(20 .51667 .495)" cx=".51667" cy=".495" rx=".775" ry=".51667" fill="#fff" opacity=".8"/>
      </g>
    </g>
  </g>
</svg>
