<?xml version="1.0" encoding="UTF-8" standalone="no"?>
<svg
   width="9.8mm"
   height="128.5mm"
   version="1.1"
   viewBox="0 0 9.8 128.5"
   id="svg33"
   sodipodi:docname="debug.svg"
   inkscape:version="1.4.2 (ebf0e940d0, 2025-05-08)"
   xmlns:inkscape="http://www.inkscape.org/namespaces/inkscape"
   xmlns:sodipodi="http://sodipodi.sourceforge.net/DTD/sodipodi-0.dtd"
   xmlns="http://www.w3.org/2000/svg"
   xmlns:svg="http://www.w3.org/2000/svg">
  <sodipodi:namedview
     id="namedview33"
     pagecolor="#505050"
     bordercolor="#eeeeee"
     borderopacity="1"
     inkscape:showpageshadow="0"
     inkscape:pageopacity="0"
     inkscape:pagecheckerboard="0"
     inkscape:deskcolor="#505050"
     inkscape:document-units="mm"
     inkscape:zoom="1.3960117"
     inkscape:cx="18.624486"
     inkscape:cy="242.83465"
     inkscape:window-width="1500"
     inkscape:window-height="931"
     inkscape:window-x="0"
     inkscape:window-y="0"
     inkscape:window-maximized="1"
     inkscape:current-layer="stencil_offset" />
  <defs
     id="defs13">
    <radialGradient
       id="id1">
      <stop
         stop-color="#fff"
         offset="0"
         id="stop1" />
      <stop
         stop-color="red"
         offset="1"
         id="stop2" />
    </radialGradient>
    <linearGradient
       id="id2"
       x1="1"
       x2="0"
       y2="1">
      <stop
         stop-color="#aaa"
         offset="0"
         id="stop3" />
      <stop
         offset="1"
         id="stop4" />
    </linearGradient>
    <linearGradient
       id="id3"
       x1="1"
       x2="0"
       y2="1">
      <stop
         stop-color="#111"
         offset="0"
         id="stop5" />
      <stop
         stop-color="#888"
         offset="1"
         id="stop6" />
    </linearGradient>
    <linearGradient
       id="id4"
       x1="1"
       x2="0"
       y2="1">
      <stop
         stop-color="#fff"
         offset="-1"
         id="stop7" />
      <stop
         offset="2"
         id="stop8" />
    </linearGradient>
    <radialGradient
       id="id5">
      <stop
         offset=".74603"
         id="stop9" />
      <stop
         stop-color="#fff"
         offset=".87302"
         id="stop10" />
      <stop
         stop-color="#444"
         offset="1"
         id="stop11" />
    </radialGradient>
    <linearGradient
       id="id6"
       x1="1"
       x2="0"
       y2="1">
      <stop
         offset="0"
         id="stop12" />
      <stop
         stop-color="#333"
         offset="1"
         id="stop13" />
    </linearGradient>
  </defs>
  <rect
     id="background"
     width="9.8"
     height="128.5"
     fill="#fff" />
  <g
     id="stencil"
     font-family="Ubuntu"
     font-size="3">
    <path
       transform="translate(1 116.5) scale(.078)"
       d="m23.274 0c-12.804 0-23.274 10.47-23.274 23.274 0 12.804 10.47 23.274 23.274 23.274 6.2817 0 11.38-2.5486 15.731-6.2455 1.5387-1.3073 3.0762-2.7877 4.6583-4.3876l-0.0086-5.8693-5.9894 0.0026c-1.4839 1.5057-2.8467 2.8283-4.0804 3.8765-3.5126 2.9845-6.0494 4.2541-10.311 4.2541-8.2813 0-14.905-6.6235-14.905-14.905 0-8.2813 6.6235-14.905 14.905-14.905 4.2612 0 6.7981 1.2697 10.311 4.2541 1.2337 1.0482 2.5965 2.3707 4.0804 3.8765l5.9894 0.0026 0.0086-5.8693c-1.5821-1.5999-3.1196-3.0803-4.6583-4.3876-4.351-3.6969-9.4489-6.2455-15.731-6.2455zm53.451 0c-6.2815 1.0197e-4 -11.379 2.5487-15.73 6.2455-1.6075 1.3659-3.2135 2.9188-4.8712 4.602h12.572c2.4765-1.7176 4.7403-2.4782 8.0292-2.4783h3.82e-4c6.2002 0 11.47 3.7129 13.728 9.0545l-6.0416-0.07531-8.5851-3.0797-28.741 3.81e-4v5.6456h-22.686v6.7186h22.686v5.6456l28.741 3.82e-4 8.5851-3.0797 6.0416-0.07531c-2.2576 5.3415-7.5279 9.0545-13.728 9.0545h-3.82e-4c-3.2889-5.9e-5 -5.5527-0.76071-8.0292-2.4783h-12.572c1.6577 1.6832 3.2637 3.2361 4.8712 4.602 4.3509 3.6968 9.4487 6.2454 15.73 6.2455h3.82e-4c12.804 0 23.274-10.47 23.274-23.274-8e-6 -12.804-10.47-23.274-23.274-23.274zm-59.712 19.295-2.8907 3.9786 2.8907 3.9786 4.6773-1.5197v-4.9178z"
       id="path13" />
    <g
       id="stencil_offset"
       transform="translate(4.9,17.5)">
      <path
         transform="translate(-4 -10)"
         d="m6.6758 2.7454h1.3242m-1.6552 1.4759 1.4345 0.88277m-1.5035-3.9173 1.3242-1.0621m-6.2758 2.6207h-1.3242m1.6552 1.4759-1.4345 0.88277m1.5035-3.9173-1.3242-1.0621m3.0384 6.5395 0.099867 0.39016h0.84379l0.13656-0.25399m-1.1926-0.58268-0.15362 0.22037 0.19864 0.221 1.2239 0.11764 0.16314-0.18241-0.11737-0.21089m-1.3597-0.60709-0.15362 0.22037 0.19864 0.221 1.3271 0.13473 0.20856-0.17892-0.13611-0.25668m-1.4255-0.52473-0.16832 0.17786 0.14928 0.20636 1.4445 0.1405 0.1405-0.24149-0.20982-0.28324m0 0c0-1.2877 1.1345-1.3406 1.1359-2.6865 8.046e-4 -0.79842-0.70779-1.751-1.814-1.751-1.1062 0-1.8148 0.95257-1.814 1.751 0.00135 1.3459 1.1359 1.3988 1.1359 2.6865 0.45207 0.00474 0.90412 0.00216 1.3562 0z"
         fill="none"
         stroke="#000"
         stroke-width=".344"
         id="path14" />
      <g
         transform="translate(0,40.64)"
         id="g14">
        <path
           d="m 0.65249984,8 q -0.051,-0.135 -0.096,-0.264 -0.045,-0.132 -0.093,-0.267 h -0.942 l -0.189,0.531 h -0.303 q 0.12,-0.33 0.225,-0.609 0.105,-0.282 0.204,-0.534 0.102,-0.252 0.201,-0.48 0.099,-0.231 0.207,-0.456 h 0.267 q 0.108,0.225 0.207,0.456 0.099,0.228 0.198,0.48 0.102,0.252 0.207,0.534 0.105,0.279 0.225,0.609 z m -0.273,-0.771 q -0.096,-0.261 -0.192,-0.504 -0.093,-0.246 -0.195,-0.471 -0.105,0.225 -0.201,0.471 -0.093,0.243 -0.186,0.504 z"
           id="text_glgkybrzig"
           style="font-size:3px;text-anchor:middle"
           aria-label="A" />
      </g>
      <g
         transform="translate(0 55.88)"
         id="g15">
        <path
           d="m 0.33150043,7.13 q 0.048,0.06 0.12,0.159 0.075,0.096 0.153,0.216 0.078,0.117 0.153,0.246 0.078,0.129 0.132,0.249 h -0.318 q -0.06,-0.114 -0.132,-0.231 -0.069,-0.117 -0.141,-0.222 -0.072,-0.108 -0.144,-0.201 -0.069,-0.093 -0.126,-0.162 -0.039,0.003 -0.081,0.003 -0.039,0 -0.081,0 h -0.261 V 8 h -0.291 V 5.951 q 0.123,-0.03 0.273,-0.039 0.153,-0.012 0.279,-0.012 0.438,0 0.666,0.165 0.231,0.165 0.231,0.492 0,0.207 -0.111,0.354 -0.108,0.147 -0.321,0.219 z m -0.441,-0.975 q -0.186,0 -0.285,0.009 v 0.783 h 0.207 q 0.15,0 0.27,-0.015 0.12,-0.015 0.201,-0.057 0.084,-0.042 0.129,-0.117 0.045,-0.078 0.045,-0.204 0,-0.117 -0.045,-0.195 -0.045,-0.078 -0.123,-0.123 -0.075,-0.045 -0.18,-0.063 -0.102,-0.018 -0.219,-0.018 z"
           id="text_iqbenhyipv"
           style="font-size:3px;text-anchor:middle"
           aria-label="R" />
      </g>
      <g
         transform="translate(0,71.12)"
         id="g16">
        <path
           d="m 0.51899867,6.977 h 0.291 v 0.972 q -0.036,0.012 -0.105,0.027 -0.066,0.015 -0.156,0.03 -0.087,0.015 -0.192,0.024 -0.105,0.012 -0.213,0.012 -0.219,0 -0.399,-0.072 -0.18,-0.072 -0.309,-0.21 -0.129,-0.138 -0.201,-0.339 -0.069,-0.201 -0.069,-0.462 0,-0.261 0.078,-0.462 0.081,-0.204 0.216,-0.342 0.135,-0.138 0.315,-0.21 0.183,-0.072 0.39,-0.072 0.141,0 0.249,0.018 0.111,0.018 0.189,0.042 0.078,0.024 0.126,0.048 0.051,0.024 0.069,0.036 l -0.093,0.243 q -0.087,-0.057 -0.231,-0.093 -0.144,-0.039 -0.294,-0.039 -0.159,0 -0.291,0.057 -0.129,0.057 -0.222,0.165 -0.09,0.108 -0.141,0.264 -0.051,0.153 -0.051,0.345 0,0.186 0.042,0.339 0.045,0.153 0.132,0.264 0.09,0.108 0.219,0.168 0.1320000024854,0.06 0.309,0.06 0.126,0 0.213,-0.012 0.09,-0.015 0.129,-0.027 z"
           id="text_koivhtfnia"
           style="font-size:3px;text-anchor:middle"
           aria-label="G" />
      </g>
      <g
         transform="translate(0,86.36)"
         id="g17">
        <path
           d="m -0.14549947,8.018 q -0.063,0 -0.138,-0.003 -0.072,-0.003 -0.147,-0.009 -0.072,-0.006 -0.144,-0.015 -0.072,-0.009 -0.132,-0.024 V 5.951 q 0.06,-0.015 0.132,-0.024 0.072,-0.009 0.144,-0.015 0.075,-0.006 0.147,-0.009 0.072,-0.003 0.135,-0.003 0.18,0 0.336,0.027 0.159,0.027 0.273,0.093 0.117,0.063 0.183,0.168 0.066,0.105 0.066,0.258 0,0.171 -0.081,0.282 -0.081,0.108 -0.216,0.162 0.183,0.054 0.291,0.171 0.108,0.117 0.108,0.33 0,0.312 -0.231,0.471 -0.228,0.156 -0.726,0.156 z m -0.273,-0.987 v 0.732 q 0.033,0.003 0.078,0.006 0.039,0.003 0.09,0.006 0.054,0 0.123,0 0.129,0 0.243,-0.015 0.117,-0.018 0.204,-0.06 0.087,-0.042 0.138,-0.117 0.054,-0.075 0.054,-0.189 0,-0.102 -0.039,-0.171 -0.039,-0.072 -0.114,-0.114 -0.072,-0.042 -0.174,-0.06 -0.102,-0.018 -0.228,-0.018 z m 0,-0.234 h 0.306 q 0.108,0 0.204,-0.015 0.096,-0.015 0.165,-0.054 0.072,-0.039 0.111,-0.102 0.042,-0.063 0.042,-0.159 0,-0.09 -0.042,-0.15 -0.042,-0.063 -0.117,-0.099 -0.072,-0.039 -0.171,-0.057 -0.099,-0.018 -0.21,-0.018 -0.111,0 -0.174,0.003 -0.063,0.003 -0.114,0.009 z"
           id="text_jwpuwlcpuk"
           style="font-size:3px;text-anchor:middle"
           aria-label="B" />
      </g>
    </g>
  </g>
  <g
     id="throughholes">
    <circle
       cx="7.44"
       cy="3"
       r="1.7"
       id="circle17" />
    <circle
       cx="7.44"
       cy="125.5"
       r="1.7"
       id="circle18" />
    <g
       id="throughholes_offset"
       transform="translate(4.9,17.5)">
      <g
         transform="translate(0,40.64)"
         id="g19">
        <circle
           r="3.15"
           id="circle19" />
      </g>
      <g
         transform="translate(0 55.88)"
         id="g20">
        <circle
           r="3.15"
           id="circle20" />
      </g>
      <g
         transform="translate(0,71.12)"
         id="g21">
        <circle
           r="3.15"
           id="circle21" />
      </g>
      <g
         transform="translate(0,86.36)"
         id="g22">
        <circle
           r="3.15"
           id="circle22" />
      </g>
    </g>
  </g>
  <g
     id="cosmetics">
    <g
       id="cosmetics_offset"
       transform="translate(4.9,17.5)">
      <g
         transform="translate(0 2.54)"
         id="g23">
        <circle
           cy="1.27"
           r="2.55"
           fill="url(#id1) none"
           id="circle23" />
        <ellipse
           transform="rotate(20 .85 -.005)"
           cx=".85"
           cy="-.005"
           rx="1.275"
           ry=".85"
           fill="#fff"
           opacity=".8"
           id="ellipse23" />
      </g>
      <g
         transform="translate(0 15.24)"
         id="g25">
        <circle
           r="2.55"
           fill="url(#id2) none"
           id="circle24" />
        <circle
           r="2.04"
           fill="url(#id3) none"
           id="circle25" />
      </g>
      <g
         transform="translate(0,40.64)"
         id="g27">
        <path
           d="m3.5466-0.15485v0.3097l0.1713 0.33462-0.056808 0.32218-0.27541 0.25586-0.10592 0.29102 0.046518 0.37303-0.16357 0.28332-0.34631 0.14623-0.19907 0.23724-0.083871 0.36644-0.25061 0.21029-0.37544 0.018965-0.26821 0.15485-0.20414 0.31566-0.30742 0.11189-0.35929-0.11059-0.30499 0.053778-0.2998 0.2268h-0.32715l-0.2998-0.2268-0.30499-0.053778-0.35929 0.11059-0.30742-0.11189-0.20414-0.31566-0.26821-0.15485-0.37544-0.018965-0.25061-0.21029-0.083871-0.36644-0.19907-0.23724-0.34631-0.14623-0.16357-0.28332 0.046518-0.37303-0.10592-0.29102-0.27541-0.25586-0.056808-0.32218 0.1713-0.33462v-0.3097l-0.1713-0.33462 0.056808-0.32218 0.27541-0.25586 0.10592-0.29102-0.046518-0.37303 0.16357-0.28332 0.34631-0.14623 0.19907-0.23724 0.083871-0.36644 0.25061-0.21029 0.37544-0.018965 0.26821-0.15485 0.20414-0.31566 0.30742-0.11189 0.35929 0.11059 0.30499-0.053778 0.2998-0.2268h0.32715l0.2998 0.2268 0.30499 0.053778 0.35929-0.11059 0.30742 0.11189 0.20414 0.31566 0.26821 0.15485 0.37544 0.018965 0.25061 0.21029 0.083871 0.36644 0.19907 0.23724 0.34631 0.14623 0.16357 0.28332-0.046518 0.37303 0.10592 0.29102 0.27541 0.25586 0.056808 0.32218z"
           fill="url(#id4) none"
           id="path25" />
        <circle
           r="3.15"
           fill="url(#id5) none"
           id="circle26" />
        <circle
           r="2.35"
           fill="url(#id6) none"
           id="circle27" />
      </g>
      <g
         transform="translate(0 55.88)"
         id="g29">
        <path
           d="m3.5466-0.15485v0.3097l0.1713 0.33462-0.056808 0.32218-0.27541 0.25586-0.10592 0.29102 0.046518 0.37303-0.16357 0.28332-0.34631 0.14623-0.19907 0.23724-0.083871 0.36644-0.25061 0.21029-0.37544 0.018965-0.26821 0.15485-0.20414 0.31566-0.30742 0.11189-0.35929-0.11059-0.30499 0.053778-0.2998 0.2268h-0.32715l-0.2998-0.2268-0.30499-0.053778-0.35929 0.11059-0.30742-0.11189-0.20414-0.31566-0.26821-0.15485-0.37544-0.018965-0.25061-0.21029-0.083871-0.36644-0.19907-0.23724-0.34631-0.14623-0.16357-0.28332 0.046518-0.37303-0.10592-0.29102-0.27541-0.25586-0.056808-0.32218 0.1713-0.33462v-0.3097l-0.1713-0.33462 0.056808-0.32218 0.27541-0.25586 0.10592-0.29102-0.046518-0.37303 0.16357-0.28332 0.34631-0.14623 0.19907-0.23724 0.083871-0.36644 0.25061-0.21029 0.37544-0.018965 0.26821-0.15485 0.20414-0.31566 0.30742-0.11189 0.35929 0.11059 0.30499-0.053778 0.2998-0.2268h0.32715l0.2998 0.2268 0.30499 0.053778 0.35929-0.11059 0.30742 0.11189 0.20414 0.31566 0.26821 0.15485 0.37544 0.018965 0.25061 0.21029 0.083871 0.36644 0.19907 0.23724 0.34631 0.14623 0.16357 0.28332-0.046518 0.37303 0.10592 0.29102 0.27541 0.25586 0.056808 0.32218z"
           fill="url(#id4) none"
           id="path27" />
        <circle
           r="3.15"
           fill="url(#id5) none"
           id="circle28" />
        <circle
           r="2.35"
           fill="url(#id6) none"
           id="circle29" />
      </g>
      <g
         transform="translate(0,71.12)"
         id="g31">
        <path
           d="m3.5466-0.15485v0.3097l0.1713 0.33462-0.056808 0.32218-0.27541 0.25586-0.10592 0.29102 0.046518 0.37303-0.16357 0.28332-0.34631 0.14623-0.19907 0.23724-0.083871 0.36644-0.25061 0.21029-0.37544 0.018965-0.26821 0.15485-0.20414 0.31566-0.30742 0.11189-0.35929-0.11059-0.30499 0.053778-0.2998 0.2268h-0.32715l-0.2998-0.2268-0.30499-0.053778-0.35929 0.11059-0.30742-0.11189-0.20414-0.31566-0.26821-0.15485-0.37544-0.018965-0.25061-0.21029-0.083871-0.36644-0.19907-0.23724-0.34631-0.14623-0.16357-0.28332 0.046518-0.37303-0.10592-0.29102-0.27541-0.25586-0.056808-0.32218 0.1713-0.33462v-0.3097l-0.1713-0.33462 0.056808-0.32218 0.27541-0.25586 0.10592-0.29102-0.046518-0.37303 0.16357-0.28332 0.34631-0.14623 0.19907-0.23724 0.083871-0.36644 0.25061-0.21029 0.37544-0.018965 0.26821-0.15485 0.20414-0.31566 0.30742-0.11189 0.35929 0.11059 0.30499-0.053778 0.2998-0.2268h0.32715l0.2998 0.2268 0.30499 0.053778 0.35929-0.11059 0.30742 0.11189 0.20414 0.31566 0.26821 0.15485 0.37544 0.018965 0.25061 0.21029 0.083871 0.36644 0.19907 0.23724 0.34631 0.14623 0.16357 0.28332-0.046518 0.37303 0.10592 0.29102 0.27541 0.25586 0.056808 0.32218z"
           fill="url(#id4) none"
           id="path29" />
        <circle
           r="3.15"
           fill="url(#id5) none"
           id="circle30" />
        <circle
           r="2.35"
           fill="url(#id6) none"
           id="circle31" />
      </g>
      <g
         transform="translate(0,86.36)"
         id="g33">
        <path
           d="m3.5466-0.15485v0.3097l0.1713 0.33462-0.056808 0.32218-0.27541 0.25586-0.10592 0.29102 0.046518 0.37303-0.16357 0.28332-0.34631 0.14623-0.19907 0.23724-0.083871 0.36644-0.25061 0.21029-0.37544 0.018965-0.26821 0.15485-0.20414 0.31566-0.30742 0.11189-0.35929-0.11059-0.30499 0.053778-0.2998 0.2268h-0.32715l-0.2998-0.2268-0.30499-0.053778-0.35929 0.11059-0.30742-0.11189-0.20414-0.31566-0.26821-0.15485-0.37544-0.018965-0.25061-0.21029-0.083871-0.36644-0.19907-0.23724-0.34631-0.14623-0.16357-0.28332 0.046518-0.37303-0.10592-0.29102-0.27541-0.25586-0.056808-0.32218 0.1713-0.33462v-0.3097l-0.1713-0.33462 0.056808-0.32218 0.27541-0.25586 0.10592-0.29102-0.046518-0.37303 0.16357-0.28332 0.34631-0.14623 0.19907-0.23724 0.083871-0.36644 0.25061-0.21029 0.37544-0.018965 0.26821-0.15485 0.20414-0.31566 0.30742-0.11189 0.35929 0.11059 0.30499-0.053778 0.2998-0.2268h0.32715l0.2998 0.2268 0.30499 0.053778 0.35929-0.11059 0.30742 0.11189 0.20414 0.31566 0.26821 0.15485 0.37544 0.018965 0.25061 0.21029 0.083871 0.36644 0.19907 0.23724 0.34631 0.14623 0.16357 0.28332-0.046518 0.37303 0.10592 0.29102 0.27541 0.25586 0.056808 0.32218z"
           fill="url(#id4) none"
           id="path31" />
        <circle
           r="3.15"
           fill="url(#id5) none"
           id="circle32" />
        <circle
           r="2.35"
           fill="url(#id6) none"
           id="circle33" />
      </g>
    </g>
  </g>
</svg>
