<svg xmlns:inkscape="http://www.inkscape.org/namespaces/inkscape" xmlns:sodipodi="http://sodipodi.sourceforge.net/DTD/sodipodi-0.dtd" xmlns="http://www.w3.org/2000/svg" xmlns:svg="http://www.w3.org/2000/svg" height="128.5mm" version="1.1" viewBox="0,0,40.14,128.5" width="40.14mm" id="svg494" sodipodi:docname="mixer_faceplate.svg" inkscape:version="1.1.2 (0a00cf5339, 2022-02-04)">
  <sodipodi:namedview id="namedview496" pagecolor="#ffffff" bordercolor="#666666" borderopacity="1.0" inkscape:pageshadow="2" inkscape:pageopacity="0.0" inkscape:pagecheckerboard="0" inkscape:document-units="mm" showgrid="false" inkscape:zoom="1.5710279" inkscape:cx="75.746587" inkscape:cy="242.83465" inkscape:window-width="1495" inkscape:window-height="972" inkscape:window-x="1920" inkscape:window-y="0" inkscape:window-maximized="0" inkscape:current-layer="svg494"/>
  <defs id="defs215">
    <linearGradient id="id1" x1="1" x2="0" y1="0" y2="1">
      <stop offset="-1" stop-color="white" id="stop3"/>
      <stop offset="2" stop-color="black" id="stop5"/>
    </linearGradient>
    <radialGradient cx="0.5" cy="0.5" id="id2" r="0.5">
      <stop offset="0.7647058823529411" stop-color="black" id="stop8"/>
      <stop offset="0.8823529411764706" stop-color="white" id="stop10"/>
      <stop offset="1" stop-color="#444" id="stop12"/>
    </radialGradient>
    <linearGradient id="id3" x1="1" x2="0" y1="0" y2="1">
      <stop offset="0" stop-color="black" id="stop15"/>
      <stop offset="1" stop-color="#333" id="stop17"/>
    </linearGradient>
    <linearGradient id="id4" x1="1" x2="0" y1="0" y2="1">
      <stop offset="-1" stop-color="white" id="stop20"/>
      <stop offset="2" stop-color="black" id="stop22"/>
    </linearGradient>
    <radialGradient cx="0.5" cy="0.5" id="id5" r="0.5">
      <stop offset="0.6981132075471698" stop-color="black" id="stop25"/>
      <stop offset="0.8490566037735849" stop-color="white" id="stop27"/>
      <stop offset="1" stop-color="#444" id="stop29"/>
    </radialGradient>
    <radialGradient cx="0.65" cy="0.6" id="id6" r="0.6">
      <stop offset="0" stop-color="#eee" id="stop32"/>
      <stop offset="1" stop-color="#111" id="stop34"/>
    </radialGradient>
    <linearGradient id="id7" x1="1" x2="0" y1="0" y2="1">
      <stop offset="0" stop-color="white" id="stop37"/>
      <stop offset="1" stop-color="black" id="stop39"/>
    </linearGradient>
    <linearGradient id="id8" x1="1" x2="0" y1="0" y2="1">
      <stop offset="-1" stop-color="white" id="stop42"/>
      <stop offset="2" stop-color="black" id="stop44"/>
    </linearGradient>
    <radialGradient cx="0.5" cy="0.5" id="id9" r="0.5">
      <stop offset="0.7647058823529411" stop-color="black" id="stop47"/>
      <stop offset="0.8823529411764706" stop-color="white" id="stop49"/>
      <stop offset="1" stop-color="#444" id="stop51"/>
    </radialGradient>
    <linearGradient id="id10" x1="1" x2="0" y1="0" y2="1">
      <stop offset="0" stop-color="black" id="stop54"/>
      <stop offset="1" stop-color="#333" id="stop56"/>
    </linearGradient>
    <linearGradient id="id11" x1="1" x2="0" y1="0" y2="1">
      <stop offset="-1" stop-color="white" id="stop59"/>
      <stop offset="2" stop-color="black" id="stop61"/>
    </linearGradient>
    <radialGradient cx="0.5" cy="0.5" id="id12" r="0.5">
      <stop offset="0.6981132075471698" stop-color="black" id="stop64"/>
      <stop offset="0.8490566037735849" stop-color="white" id="stop66"/>
      <stop offset="1" stop-color="#444" id="stop68"/>
    </radialGradient>
    <radialGradient cx="0.65" cy="0.6" id="id13" r="0.6">
      <stop offset="0" stop-color="#eee" id="stop71"/>
      <stop offset="1" stop-color="#111" id="stop73"/>
    </radialGradient>
    <linearGradient id="id14" x1="1" x2="0" y1="0" y2="1">
      <stop offset="0" stop-color="white" id="stop76"/>
      <stop offset="1" stop-color="black" id="stop78"/>
    </linearGradient>
    <linearGradient id="id15" x1="1" x2="0" y1="0" y2="1">
      <stop offset="-1" stop-color="white" id="stop81"/>
      <stop offset="2" stop-color="black" id="stop83"/>
    </linearGradient>
    <radialGradient cx="0.5" cy="0.5" id="id16" r="0.5">
      <stop offset="0.7647058823529411" stop-color="black" id="stop86"/>
      <stop offset="0.8823529411764706" stop-color="white" id="stop88"/>
      <stop offset="1" stop-color="#444" id="stop90"/>
    </radialGradient>
    <linearGradient id="id17" x1="1" x2="0" y1="0" y2="1">
      <stop offset="0" stop-color="black" id="stop93"/>
      <stop offset="1" stop-color="#333" id="stop95"/>
    </linearGradient>
    <linearGradient id="id18" x1="1" x2="0" y1="0" y2="1">
      <stop offset="-1" stop-color="white" id="stop98"/>
      <stop offset="2" stop-color="black" id="stop100"/>
    </linearGradient>
    <radialGradient cx="0.5" cy="0.5" id="id19" r="0.5">
      <stop offset="0.6981132075471698" stop-color="black" id="stop103"/>
      <stop offset="0.8490566037735849" stop-color="white" id="stop105"/>
      <stop offset="1" stop-color="#444" id="stop107"/>
    </radialGradient>
    <radialGradient cx="0.65" cy="0.6" id="id20" r="0.6">
      <stop offset="0" stop-color="#eee" id="stop110"/>
      <stop offset="1" stop-color="#111" id="stop112"/>
    </radialGradient>
    <linearGradient id="id21" x1="1" x2="0" y1="0" y2="1">
      <stop offset="0" stop-color="white" id="stop115"/>
      <stop offset="1" stop-color="black" id="stop117"/>
    </linearGradient>
    <linearGradient id="id22" x1="1" x2="0" y1="0" y2="1">
      <stop offset="-1" stop-color="white" id="stop120"/>
      <stop offset="2" stop-color="black" id="stop122"/>
    </linearGradient>
    <radialGradient cx="0.5" cy="0.5" id="id23" r="0.5">
      <stop offset="0.7647058823529411" stop-color="black" id="stop125"/>
      <stop offset="0.8823529411764706" stop-color="white" id="stop127"/>
      <stop offset="1" stop-color="#444" id="stop129"/>
    </radialGradient>
    <linearGradient id="id24" x1="1" x2="0" y1="0" y2="1">
      <stop offset="0" stop-color="black" id="stop132"/>
      <stop offset="1" stop-color="#333" id="stop134"/>
    </linearGradient>
    <linearGradient id="id25" x1="1" x2="0" y1="0" y2="1">
      <stop offset="-1" stop-color="white" id="stop137"/>
      <stop offset="2" stop-color="black" id="stop139"/>
    </linearGradient>
    <radialGradient cx="0.5" cy="0.5" id="id26" r="0.5">
      <stop offset="0.6981132075471698" stop-color="black" id="stop142"/>
      <stop offset="0.8490566037735849" stop-color="white" id="stop144"/>
      <stop offset="1" stop-color="#444" id="stop146"/>
    </radialGradient>
    <radialGradient cx="0.65" cy="0.6" id="id27" r="0.6">
      <stop offset="0" stop-color="#eee" id="stop149"/>
      <stop offset="1" stop-color="#111" id="stop151"/>
    </radialGradient>
    <linearGradient id="id28" x1="1" x2="0" y1="0" y2="1">
      <stop offset="0" stop-color="white" id="stop154"/>
      <stop offset="1" stop-color="black" id="stop156"/>
    </linearGradient>
    <linearGradient id="id29" x1="1" x2="0" y1="0" y2="1">
      <stop offset="-1" stop-color="white" id="stop159"/>
      <stop offset="2" stop-color="black" id="stop161"/>
    </linearGradient>
    <radialGradient cx="0.5" cy="0.5" id="id30" r="0.5">
      <stop offset="0.7647058823529411" stop-color="black" id="stop164"/>
      <stop offset="0.8823529411764706" stop-color="white" id="stop166"/>
      <stop offset="1" stop-color="#444" id="stop168"/>
    </radialGradient>
    <linearGradient id="id31" x1="1" x2="0" y1="0" y2="1">
      <stop offset="0" stop-color="black" id="stop171"/>
      <stop offset="1" stop-color="#333" id="stop173"/>
    </linearGradient>
    <linearGradient id="id32" x1="1" x2="0" y1="0" y2="1">
      <stop offset="-1" stop-color="white" id="stop176"/>
      <stop offset="2" stop-color="black" id="stop178"/>
    </linearGradient>
    <radialGradient cx="0.5" cy="0.5" id="id33" r="0.5">
      <stop offset="0.6981132075471698" stop-color="black" id="stop181"/>
      <stop offset="0.8490566037735849" stop-color="white" id="stop183"/>
      <stop offset="1" stop-color="#444" id="stop185"/>
    </radialGradient>
    <radialGradient cx="0.65" cy="0.6" id="id34" r="0.6">
      <stop offset="0" stop-color="#eee" id="stop188"/>
      <stop offset="1" stop-color="#111" id="stop190"/>
    </radialGradient>
    <linearGradient id="id35" x1="1" x2="0" y1="0" y2="1">
      <stop offset="-1" stop-color="white" id="stop193"/>
      <stop offset="2" stop-color="black" id="stop195"/>
    </linearGradient>
    <radialGradient cx="0.5" cy="0.5" id="id36" r="0.5">
      <stop offset="0.7647058823529411" stop-color="black" id="stop198"/>
      <stop offset="0.8823529411764706" stop-color="white" id="stop200"/>
      <stop offset="1" stop-color="#444" id="stop202"/>
    </radialGradient>
    <linearGradient id="id37" x1="1" x2="0" y1="0" y2="1">
      <stop offset="0" stop-color="black" id="stop205"/>
      <stop offset="1" stop-color="#333" id="stop207"/>
    </linearGradient>
    <radialGradient cx="0.5" cy="0.5" id="id38" r="0.5">
      <stop offset="0" stop-color="white" id="stop210"/>
      <stop offset="1" stop-color="red" id="stop212"/>
    </radialGradient>
  </defs>
  <rect fill="white" height="128.5" id="background" width="40.14" x="0" y="0"/>
  <g fill="none" id="outline" stroke="black"/>
  <g font-family="Ubuntu" font-size="3" id="stencil">
    <path d="m 15.657519,4.52 q -0.05,-0.12 -0.135,-0.305 -0.08,-0.185 -0.175,-0.4 -0.095,-0.215 -0.205,-0.44 -0.105,-0.23 -0.2,-0.43 -0.095,-0.205 -0.18,-0.365 -0.08,-0.16 -0.13,-0.245 -0.055,0.59 -0.09,1.28 -0.035,0.685 -0.06,1.385 h -0.475 q 0.02,-0.45 0.045,-0.905 0.025,-0.46 0.055,-0.9 0.035,-0.445 0.07,-0.865 0.04,-0.42 0.085,-0.795 h 0.425 q 0.135,0.22 0.29,0.52 0.155,0.3 0.31,0.63 0.155,0.325 0.3,0.655 0.145,0.325 0.265,0.595 0.12,-0.27 0.265,-0.595 0.145,-0.33 0.3,-0.655 0.155,-0.33 0.31,-0.63 0.155,-0.3 0.29,-0.52 h 0.425 q 0.17,1.675 0.255,3.465 h -0.475 q -0.025,-0.7 -0.06,-1.385 -0.035,-0.69 -0.09,-1.28 -0.05,0.085 -0.135,0.245 -0.08,0.16 -0.175,0.365 -0.095,0.2 -0.205,0.43 -0.105,0.225 -0.2,0.44 -0.095,0.215 -0.18,0.4 -0.08,0.185 -0.13,0.305 z" id="path1314" style="font-size:5px;text-anchor:middle"/>
    <path d="m 18.892511,5 h -0.465 V 2.4 h 0.465 z m -0.235,-3.07 q -0.125,0 -0.215,-0.08 -0.085,-0.085 -0.085,-0.225 0,-0.14 0.085,-0.22 0.09,-0.085 0.215,-0.085 0.125,0 0.21,0.085 0.09,0.08 0.09,0.22 0,0.14 -0.09,0.225 -0.085,0.08 -0.21,0.08 z" id="path1316" style="font-size:5px;text-anchor:middle"/>
    <path d="m 21.247502,5 q -0.055,-0.11 -0.135,-0.245 -0.08,-0.135 -0.175,-0.275 -0.095,-0.145 -0.195,-0.285 -0.1,-0.14 -0.195,-0.265 -0.095,0.125 -0.195,0.27 -0.1,0.14 -0.195,0.285 -0.09,0.14 -0.17,0.275 -0.08,0.135 -0.135,0.24 h -0.48 q 0.175,-0.34 0.415,-0.69 0.245,-0.355 0.485,-0.675 l -0.86,-1.235 h 0.525 l 0.62,0.91 0.625,-0.91 h 0.495 l -0.84,1.205 q 0.24,0.325 0.49,0.69 0.255,0.36 0.43,0.705 z" id="path1318" style="font-size:5px;text-anchor:middle"/>
    <path d="m 21.997492,3.705 q 0,-0.345 0.1,-0.6 0.1,-0.26 0.265,-0.43 0.165,-0.17 0.38,-0.255 0.215,-0.085 0.44,-0.085 0.525,0 0.805,0.33 0.28,0.325 0.28,0.995 0,0.03 0,0.08 0,0.045 -0.005,0.085 h -1.78 q 0.03,0.405 0.235,0.615 0.205,0.21 0.64,0.21 0.245,0 0.41,-0.04 0.17,-0.045 0.255,-0.085 l 0.065,0.39 q -0.085,0.045 -0.3,0.095 -0.21,0.05 -0.48,0.05 -0.34,0 -0.59,-0.1 -0.245,-0.105 -0.405,-0.285 -0.16,-0.18 -0.24,-0.425 -0.075,-0.25 -0.075,-0.545 z m 1.785,-0.255 q 0.005,-0.315 -0.16,-0.515 -0.16,-0.205 -0.445,-0.205 -0.16,0 -0.285,0.065 -0.12,0.06 -0.205,0.16 -0.085,0.1 -0.135,0.23 -0.045,0.13 -0.06,0.265 z" id="path1320" style="font-size:5px;text-anchor:middle"/>
    <path d="m 25.897482,2.345 q 0.06,0 0.135,0.01 0.08,0.005 0.155,0.02 0.075,0.01 0.135,0.025 0.065,0.01 0.095,0.02 l -0.08,0.405 q -0.055,-0.02 -0.185,-0.045 -0.125,-0.03 -0.325,-0.03 -0.13,0 -0.26,0.03 -0.125,0.025 -0.165,0.035 V 5 h -0.465 V 2.51 q 0.165,-0.06 0.41,-0.11 0.245,-0.055 0.55,-0.055 z" id="path1322" style="font-size:5px;text-anchor:middle"/>
    <path d="M 23.273995,0 C 10.46956,0 0,10.46956 0,23.273995 0,36.078431 10.46956,46.54799 23.273995,46.54799 c 6.2817,0 11.379649,-2.548635 15.730632,-6.245496 1.538657,-1.307338 3.076198,-2.787732 4.658303,-4.38762 l -0.0086,-5.869298 -5.989355,0.0026 c -1.483874,1.505733 -2.846746,2.828266 -4.080397,3.876451 -3.512556,2.984484 -6.049447,4.254142 -10.310608,4.254142 -8.281306,0 -14.9047822,-6.623476 -14.9047822,-14.904783 0,-8.281306 6.6234762,-14.9047823 14.9047822,-14.9047823 4.261161,0 6.798052,1.2696585 10.310608,4.2541413 1.233651,1.048185 2.596523,2.370718 4.080397,3.876452 l 5.989355,0.0026 0.0086,-5.869304 C 42.080825,9.0332294 40.543284,7.5528356 39.004627,6.2454977 34.653644,2.5486366 29.555695,0 23.273995,0 Z M 76.724807,0 C 70.443279,1.0197146e-4 65.345444,2.5487105 60.99455,6.2454977 59.387003,7.6113677 57.781031,9.1642634 56.123352,10.847502 H 68.695628 C 71.17209,9.1299217 73.43594,8.3692721 76.724807,8.369213 h 3.82e-4 c 6.200192,0 11.470469,3.712943 13.728089,9.054499 l -6.041554,-0.07531 -8.585089,-3.079684 -28.740996,3.81e-4 v 5.645584 H 24.399983 v 6.718636 h 22.685649 v 5.645592 l 28.740995,3.82e-4 8.58509,-3.079684 6.041553,-0.07531 c -2.25762,5.341544 -7.527894,9.054489 -13.728089,9.054489 h -3.82e-4 c -3.288867,-5.9e-5 -5.552715,-0.760709 -8.029179,-2.47829 H 56.123352 c 1.657679,1.68324 3.263651,3.236135 4.871198,4.602006 4.350894,3.696786 9.448729,6.245395 15.730257,6.245496 h 3.82e-4 C 89.52963,46.548 99.999184,36.07844 99.999184,23.274005 99.999176,10.46956 89.52962,0 76.725181,0 Z m -59.711596,19.295384 -2.890653,3.978611 2.890653,3.978612 4.677319,-1.51971 v -4.917803 z" transform="translate(12.57, 119.5) scale(0.15)" id="path221"/>
    <g transform="translate(4.83,16.635)" id="g224"/>
    <path d="M 4.83,21.151916 H 31.5 v 20.32" fill="none" stroke="#000000" stroke-width="0.6" id="path226"/>
    <g transform="translate(14.99,21.08)" id="g228"/>
    <g transform="translate(23.88,18.54)" id="g230"/>
    <g transform="translate(4.83,36.955)" id="g233"/>
    <path d="M 4.83,41.471916 H 31.5 v 20.32" fill="none" stroke="#000000" stroke-width="0.6" id="path235"/>
    <g transform="translate(14.99,41.4)" id="g237"/>
    <g transform="translate(23.88,38.86)" id="g239"/>
    <g transform="translate(4.83,57.275)" id="g242"/>
    <path d="M 4.83,61.791916 H 31.5 v 20.32" fill="none" stroke="#000000" stroke-width="0.6" id="path244"/>
    <g transform="translate(14.99,61.72)" id="g246"/>
    <g transform="translate(23.88,59.18)" id="g248"/>
    <g transform="translate(4.83,77.595)" id="g251"/>
    <path d="M 4.83,82.111916 H 31.5 v 20.320004" fill="none" stroke="#000000" stroke-width="0.6" id="path253"/>
    <g transform="translate(14.99,82.04)" id="g255"/>
    <g transform="translate(23.88,79.5)" id="g257"/>
    <g transform="translate(4.83,97.915)" id="g260"/>
    <path d="M 4.83,102.43192 H 31.5" fill="none" stroke="#000000" stroke-width="0.6" id="path262"/>
    <g transform="translate(14.99,102.36)" id="g264"/>
    <g transform="translate(31.5,97.915)" id="g268">
      <path id="path_wtftmpjvvb" style="" d="m 108.09375,370.51367 a 5.6692913,5.6692913 0 0 0 -5.66797,5.66992 v 45.35352 a 5.6692913,5.6692913 0 0 0 5.66797,5.66992 h 21.92187 a 5.6692913,5.6692913 0 0 0 5.66993,-5.66992 v -45.35352 a 5.6692913,5.6692913 0 0 0 -5.66993,-5.66992 z m 10.96094,2.64649 a 13.984375,13.984375 0 0 1 0,27.96875 13.984375,13.984375 0 0 1 0,-27.96875 z m -7.08008,36.18164 c 0.50646,0 0.98175,0.0859 1.42773,0.25976 0.45355,0.17386 0.85125,0.43549 1.19141,0.78321 0.34016,0.34015 0.60815,0.76723 0.80469,1.28125 0.20409,0.51401 0.30664,1.10654 0.30664,1.77929 0,0.67276 -0.10255,1.26724 -0.30664,1.78125 -0.19654,0.51402 -0.46453,0.94525 -0.80469,1.29297 -0.34016,0.34016 -0.73786,0.59567 -1.19141,0.76953 -0.44598,0.17386 -0.92127,0.26172 -1.42773,0.26172 -0.51402,0 -1.00179,-0.0879 -1.46289,-0.26172 -0.45354,-0.17386 -0.85346,-0.42937 -1.20117,-0.76953 -0.34016,-0.34772 -0.61231,-0.77895 -0.81641,-1.29297 -0.19653,-0.51401 -0.29492,-1.10849 -0.29492,-1.78125 0,-0.67275 0.0984,-1.26528 0.29492,-1.77929 0.2041,-0.51402 0.47625,-0.9411 0.81641,-1.28125 0.34771,-0.34772 0.74763,-0.60935 1.20117,-0.78321 0.4611,-0.17386 0.94887,-0.25976 1.46289,-0.25976 z m 5.30664,0.18164 h 1.09961 v 4.80664 c 0,0.78614 0.17377,1.35761 0.52148,1.71289 0.34772,0.35527 0.80001,0.5332 1.35938,0.5332 0.27968,0 0.53299,-0.0419 0.75976,-0.125 0.23434,-0.0907 0.43527,-0.22678 0.60157,-0.4082 0.1663,-0.18142 0.29601,-0.41172 0.38672,-0.69141 0.0907,-0.28724 0.13476,-0.62841 0.13476,-1.02148 v -4.80664 h 1.09961 v 4.93164 c 0,0.43842 -0.0607,0.84665 -0.18164,1.22461 -0.11339,0.37795 -0.29352,0.70664 -0.54297,0.98633 -0.24189,0.27212 -0.55173,0.48774 -0.92969,0.64648 -0.37039,0.15874 -0.81411,0.23828 -1.32812,0.23828 -0.51402,0 -0.95994,-0.0795 -1.33789,-0.23828 -0.37795,-0.15874 -0.6878,-0.37436 -0.92969,-0.64648 -0.24189,-0.27969 -0.42202,-0.60838 -0.54297,-0.98633 -0.11338,-0.37796 -0.16992,-0.78619 -0.16992,-1.22461 z m 7.0625,0 h 6.04492 v 0.95117 h -2.47265 v 6.90625 h -1.09961 v -6.90625 h -2.47266 z m -12.39258,0.78125 c -0.40063,0 -0.76285,0.0754 -1.08789,0.22656 -0.31748,0.14362 -0.58963,0.35287 -0.8164,0.625 -0.21922,0.27213 -0.38883,0.60498 -0.50977,0.99805 -0.12095,0.38551 -0.18164,0.81479 -0.18164,1.29101 0,0.47622 0.0607,0.91162 0.18164,1.30469 0.12094,0.38551 0.29055,0.7142 0.50977,0.98633 0.22677,0.27212 0.49892,0.48358 0.8164,0.63476 0.32504,0.14363 0.68726,0.21485 1.08789,0.21485 0.40063,0 0.76065,-0.0712 1.07813,-0.21485 0.31748,-0.15118 0.58547,-0.36264 0.80468,-0.63476 0.22678,-0.27213 0.40054,-0.60082 0.52149,-0.98633 0.12094,-0.39307 0.18164,-0.82847 0.18164,-1.30469 0,-0.47622 -0.0607,-0.9055 -0.18164,-1.29101 -0.12095,-0.39307 -0.29471,-0.72592 -0.52149,-0.99805 -0.21921,-0.27213 -0.4872,-0.48138 -0.80468,-0.625 -0.31748,-0.15118 -0.6775,-0.22656 -1.07813,-0.22656 z" transform="matrix(0.26458333,0,0,0.26458333,-31.5,-97.915)"/>
    </g>
    <g transform="translate(35.31,93.47)" id="g270"/>
  </g>
  <g fill="black" id="throughholes" stroke="none">
    <circle cx="7.62" cy="3" r="1.7" stroke="none" id="circle274"/>
    <circle cx="7.62" cy="125.5" r="1.7" stroke="none" id="circle276"/>
    <circle cx="32.52" cy="3" r="1.7" stroke="none" id="circle278"/>
    <circle cx="32.52" cy="125.5" r="1.7" stroke="none" id="circle280"/>
    <circle cx="4.8299999" cy="21.151917" r="3.4000001" id="circle282"/>
    <circle cx="14.99" cy="21.08" r="2.6500001" id="circle286"/>
    <circle cx="31.5" cy="21.08" r="3.9000001" id="circle290"/>
    <circle cx="4.8299999" cy="41.471916" r="3.4000001" id="circle294"/>
    <circle cx="14.99" cy="41.400002" r="2.6500001" id="circle298"/>
    <circle cx="31.5" cy="41.400002" r="3.9000001" id="circle302"/>
    <circle cx="4.8299999" cy="61.791916" r="3.4000001" id="circle306"/>
    <circle cx="14.99" cy="61.720001" r="2.6500001" id="circle310"/>
    <circle cx="31.5" cy="61.720001" r="3.9000001" id="circle314"/>
    <circle cx="4.8299999" cy="82.111916" r="3.4000001" id="circle318"/>
    <circle cx="14.99" cy="82.040001" r="2.6500001" id="circle322"/>
    <circle cx="31.5" cy="82.040001" r="3.9000001" id="circle326"/>
    <circle cx="4.8299999" cy="102.43192" r="3.4000001" id="circle330"/>
    <circle cx="14.99" cy="102.36" r="2.6500001" id="circle334"/>
    <circle cx="31.5" cy="102.43192" r="3.4000001" id="circle338"/>
    <circle cx="35.310001" cy="94.739998" r="1.5" id="circle342"/>
  </g>
  <g id="cosmetics">
    <g id="cosmetics_offset" transform="translate(20.07,16)">
      <g transform="translate(-15.239999999999998,0.635)" id="g354">
        <path d="M 3.8 4.51691566 L 3.785539852748633 4.848107482441101 L 3.939231012048832 5.211508370667722 L 3.8637033051562732 5.552191840410083 L 3.5708319589864517 5.816592204637542 L 3.4439695907392696 6.122865054614659 L 3.464101615137755 6.51691566 L 3.276608177155967 6.811221405404185 L 2.9109688838521164 6.959508576808849 L 2.6870057685088806 7.203921428508881 L 2.5711504387461575 7.581093432475912 L 2.2943057454041846 7.793523837155968 L 1.9000000000000004 7.807812194380867 L 1.605949394614658 7.9608852507392704 L 1.3680805733026753 8.275686143143634 L 1.035276180410083 8.380618965156273 L 0.6598630751343355 8.259185121446391 L 0.33119182244110174 8.302455512748633 L 2.4492935982947064e-16 8.51691566 L -0.34862297099063205 8.501694452366984 L -0.6598630751343352 8.259185121446391 L -0.9835123713895784 8.18743379989846 L -1.3680805733026749 8.275686143143634 L -1.6904730469627973 8.1421468081466 L -1.899999999999999 7.807812194380867 L -2.179590458133974 7.62969342829817 L -2.5711504387461575 7.581093432475912 L -2.82842712474619 7.34534278474619 L -2.910968883852116 6.959508576808851 L -3.1127777682981677 6.696506118133977 L -3.464101615137755 6.51691566 L -3.6252311481465997 6.207388706962798 L -3.5708319589864512 5.8165922046375425 L -3.670518139898459 5.50042803138958 L -3.939231012048832 5.211508370667723 L -3.984778792366982 4.865538630990633 L -3.8 4.516915660000001 L -3.785539852748633 4.1857238375589 L -3.9392310120488325 3.82232294933228 L -3.8637033051562732 3.4816394795899175 L -3.5708319589864517 3.2172391153624593 L -3.44396959073927 2.910966265385343 L -3.4641016151377553 2.5169156600000013 L -3.276608177155968 2.222609914595817 L -2.9109688838521164 2.0743227431911513 L -2.687005768508881 1.8299098914911203 L -2.571150438746158 1.4527378875240888 L -2.2943057454041855 1.2403074828440341 L -1.9000000000000017 1.2260191256191346 L -1.6059493946146597 1.0729460692607318 L -1.3680805733026775 0.7581451768563676 L -1.0352761804100825 0.6532123548437272 L -0.6598630751343352 0.7746461985536102 L -0.33119182244110135 0.7313758072513674 L -7.347880794884119e-16 0.5169156600000004 L 0.34862297099063155 0.5321368676330183 L 0.6598630751343338 0.7746461985536097 L 0.983512371389577 0.8463975201015406 L 1.3680805733026726 0.7581451768563663 L 1.6904730469627953 0.8916845118533994 L 1.9000000000000004 1.2260191256191337 L 2.179590458133975 1.404137891701832 L 2.571150438746157 1.452737887524088 L 2.8284271247461894 1.6884885352538097 L 2.9109688838521155 2.07432274319115 L 3.1127777682981677 2.3373252018660238 L 3.4641016151377535 2.5169156599999987 L 3.625231148146599 2.8264426130372007 L 3.570831958986451 3.2172391153624567 L 3.6705181398984594 3.5334032886104216 L 3.939231012048832 3.822322949332279 L 3.984778792366982 4.168292689009367 z" fill="url(#id1) none" id="path348"/>
        <circle cx="0" cy="4.51691566" fill="url(#id2) none" r="3.4" id="circle350"/>
        <circle cx="0" cy="4.51691566" fill="url(#id3) none" r="2.5999999999999996" id="circle352"/>
      </g>
      <g transform="translate(-5.08,5.08)" id="g364">
        <circle cx="0" cy="0" fill="url(#id4) none" r="3.0" id="circle356"/>
        <circle cx="0" cy="0" fill="url(#id5) none" r="2.65" id="circle358"/>
        <circle cx="0" cy="0" fill="#111" r="1.8499999999999999" id="circle360"/>
        <path d="M 1.1 0.0 l 0.39933366658731323 3.980016661112103 c 0.24958354161707078 2.4875104131950643 -3.248250874791696 2.4875104131950647 -2.9986673331746254 3.672308351280035e-16 l 0.39933366658731045 -3.9800166611121033 z" fill="url(#id6) none" id="path362"/>
      </g>
      <g transform="translate(3.8099999999999996,2.54)" id="g374">
        <circle cx="7.619999999999999" cy="2.54" fill="url(#id7) none" r="7.9375" id="circle366"/>
        <circle cx="7.619999999999999" cy="2.54" fill="#eee" r="5.85" stroke="black" stroke-width="2" id="circle368"/>
        <line stroke="black" stroke-linecap="round" stroke-width="2" x1="7.619999999999999" x2="3.4834253300586964" y1="2.54" y2="-1.5965746699413028" id="line370"/>
        <rect fill="black" height="1.4142135623730951" width="1.4142135623730951" x="2.0692117676856014" y="-3.0107882323143977" id="rect372"/>
      </g>
      <g transform="translate(-15.239999999999998,20.955000000000002)" id="g382">
        <path d="M 3.8 4.51691566 L 3.785539852748633 4.848107482441101 L 3.939231012048832 5.211508370667722 L 3.8637033051562732 5.552191840410083 L 3.5708319589864517 5.816592204637542 L 3.4439695907392696 6.122865054614659 L 3.464101615137755 6.51691566 L 3.276608177155967 6.811221405404185 L 2.9109688838521164 6.959508576808849 L 2.6870057685088806 7.203921428508881 L 2.5711504387461575 7.581093432475912 L 2.2943057454041846 7.793523837155968 L 1.9000000000000004 7.807812194380867 L 1.605949394614658 7.9608852507392704 L 1.3680805733026753 8.275686143143634 L 1.035276180410083 8.380618965156273 L 0.6598630751343355 8.259185121446391 L 0.33119182244110174 8.302455512748633 L 2.4492935982947064e-16 8.51691566 L -0.34862297099063205 8.501694452366984 L -0.6598630751343352 8.259185121446391 L -0.9835123713895784 8.18743379989846 L -1.3680805733026749 8.275686143143634 L -1.6904730469627973 8.1421468081466 L -1.899999999999999 7.807812194380867 L -2.179590458133974 7.62969342829817 L -2.5711504387461575 7.581093432475912 L -2.82842712474619 7.34534278474619 L -2.910968883852116 6.959508576808851 L -3.1127777682981677 6.696506118133977 L -3.464101615137755 6.51691566 L -3.6252311481465997 6.207388706962798 L -3.5708319589864512 5.8165922046375425 L -3.670518139898459 5.50042803138958 L -3.939231012048832 5.211508370667723 L -3.984778792366982 4.865538630990633 L -3.8 4.516915660000001 L -3.785539852748633 4.1857238375589 L -3.9392310120488325 3.82232294933228 L -3.8637033051562732 3.4816394795899175 L -3.5708319589864517 3.2172391153624593 L -3.44396959073927 2.910966265385343 L -3.4641016151377553 2.5169156600000013 L -3.276608177155968 2.222609914595817 L -2.9109688838521164 2.0743227431911513 L -2.687005768508881 1.8299098914911203 L -2.571150438746158 1.4527378875240888 L -2.2943057454041855 1.2403074828440341 L -1.9000000000000017 1.2260191256191346 L -1.6059493946146597 1.0729460692607318 L -1.3680805733026775 0.7581451768563676 L -1.0352761804100825 0.6532123548437272 L -0.6598630751343352 0.7746461985536102 L -0.33119182244110135 0.7313758072513674 L -7.347880794884119e-16 0.5169156600000004 L 0.34862297099063155 0.5321368676330183 L 0.6598630751343338 0.7746461985536097 L 0.983512371389577 0.8463975201015406 L 1.3680805733026726 0.7581451768563663 L 1.6904730469627953 0.8916845118533994 L 1.9000000000000004 1.2260191256191337 L 2.179590458133975 1.404137891701832 L 2.571150438746157 1.452737887524088 L 2.8284271247461894 1.6884885352538097 L 2.9109688838521155 2.07432274319115 L 3.1127777682981677 2.3373252018660238 L 3.4641016151377535 2.5169156599999987 L 3.625231148146599 2.8264426130372007 L 3.570831958986451 3.2172391153624567 L 3.6705181398984594 3.5334032886104216 L 3.939231012048832 3.822322949332279 L 3.984778792366982 4.168292689009367 z" fill="url(#id8) none" id="path376"/>
        <circle cx="0" cy="4.51691566" fill="url(#id9) none" r="3.4" id="circle378"/>
        <circle cx="0" cy="4.51691566" fill="url(#id10) none" r="2.5999999999999996" id="circle380"/>
      </g>
      <g transform="translate(-5.08,25.4)" id="g392">
        <circle cx="0" cy="0" fill="url(#id11) none" r="3.0" id="circle384"/>
        <circle cx="0" cy="0" fill="url(#id12) none" r="2.65" id="circle386"/>
        <circle cx="0" cy="0" fill="#111" r="1.8499999999999999" id="circle388"/>
        <path d="M 1.1 0.0 l 0.39933366658731323 3.980016661112103 c 0.24958354161707078 2.4875104131950643 -3.248250874791696 2.4875104131950647 -2.9986673331746254 3.672308351280035e-16 l 0.39933366658731045 -3.9800166611121033 z" fill="url(#id13) none" id="path390"/>
      </g>
      <g transform="translate(3.8099999999999996,22.86)" id="g402">
        <circle cx="7.619999999999999" cy="2.54" fill="url(#id14) none" r="7.9375" id="circle394"/>
        <circle cx="7.619999999999999" cy="2.54" fill="#eee" r="5.85" stroke="black" stroke-width="2" id="circle396"/>
        <line stroke="black" stroke-linecap="round" stroke-width="2" x1="7.619999999999999" x2="3.4834253300586964" y1="2.54" y2="-1.5965746699413028" id="line398"/>
        <rect fill="black" height="1.4142135623730951" width="1.4142135623730951" x="2.0692117676856014" y="-3.0107882323143977" id="rect400"/>
      </g>
      <g transform="translate(-15.239999999999998,41.275)" id="g410">
        <path d="M 3.8 4.51691566 L 3.785539852748633 4.848107482441101 L 3.939231012048832 5.211508370667722 L 3.8637033051562732 5.552191840410083 L 3.5708319589864517 5.816592204637542 L 3.4439695907392696 6.122865054614659 L 3.464101615137755 6.51691566 L 3.276608177155967 6.811221405404185 L 2.9109688838521164 6.959508576808849 L 2.6870057685088806 7.203921428508881 L 2.5711504387461575 7.581093432475912 L 2.2943057454041846 7.793523837155968 L 1.9000000000000004 7.807812194380867 L 1.605949394614658 7.9608852507392704 L 1.3680805733026753 8.275686143143634 L 1.035276180410083 8.380618965156273 L 0.6598630751343355 8.259185121446391 L 0.33119182244110174 8.302455512748633 L 2.4492935982947064e-16 8.51691566 L -0.34862297099063205 8.501694452366984 L -0.6598630751343352 8.259185121446391 L -0.9835123713895784 8.18743379989846 L -1.3680805733026749 8.275686143143634 L -1.6904730469627973 8.1421468081466 L -1.899999999999999 7.807812194380867 L -2.179590458133974 7.62969342829817 L -2.5711504387461575 7.581093432475912 L -2.82842712474619 7.34534278474619 L -2.910968883852116 6.959508576808851 L -3.1127777682981677 6.696506118133977 L -3.464101615137755 6.51691566 L -3.6252311481465997 6.207388706962798 L -3.5708319589864512 5.8165922046375425 L -3.670518139898459 5.50042803138958 L -3.939231012048832 5.211508370667723 L -3.984778792366982 4.865538630990633 L -3.8 4.516915660000001 L -3.785539852748633 4.1857238375589 L -3.9392310120488325 3.82232294933228 L -3.8637033051562732 3.4816394795899175 L -3.5708319589864517 3.2172391153624593 L -3.44396959073927 2.910966265385343 L -3.4641016151377553 2.5169156600000013 L -3.276608177155968 2.222609914595817 L -2.9109688838521164 2.0743227431911513 L -2.687005768508881 1.8299098914911203 L -2.571150438746158 1.4527378875240888 L -2.2943057454041855 1.2403074828440341 L -1.9000000000000017 1.2260191256191346 L -1.6059493946146597 1.0729460692607318 L -1.3680805733026775 0.7581451768563676 L -1.0352761804100825 0.6532123548437272 L -0.6598630751343352 0.7746461985536102 L -0.33119182244110135 0.7313758072513674 L -7.347880794884119e-16 0.5169156600000004 L 0.34862297099063155 0.5321368676330183 L 0.6598630751343338 0.7746461985536097 L 0.983512371389577 0.8463975201015406 L 1.3680805733026726 0.7581451768563663 L 1.6904730469627953 0.8916845118533994 L 1.9000000000000004 1.2260191256191337 L 2.179590458133975 1.404137891701832 L 2.571150438746157 1.452737887524088 L 2.8284271247461894 1.6884885352538097 L 2.9109688838521155 2.07432274319115 L 3.1127777682981677 2.3373252018660238 L 3.4641016151377535 2.5169156599999987 L 3.625231148146599 2.8264426130372007 L 3.570831958986451 3.2172391153624567 L 3.6705181398984594 3.5334032886104216 L 3.939231012048832 3.822322949332279 L 3.984778792366982 4.168292689009367 z" fill="url(#id15) none" id="path404"/>
        <circle cx="0" cy="4.51691566" fill="url(#id16) none" r="3.4" id="circle406"/>
        <circle cx="0" cy="4.51691566" fill="url(#id17) none" r="2.5999999999999996" id="circle408"/>
      </g>
      <g transform="translate(-5.08,45.72)" id="g420">
        <circle cx="0" cy="0" fill="url(#id18) none" r="3.0" id="circle412"/>
        <circle cx="0" cy="0" fill="url(#id19) none" r="2.65" id="circle414"/>
        <circle cx="0" cy="0" fill="#111" r="1.8499999999999999" id="circle416"/>
        <path d="M 1.1 0.0 l 0.39933366658731323 3.980016661112103 c 0.24958354161707078 2.4875104131950643 -3.248250874791696 2.4875104131950647 -2.9986673331746254 3.672308351280035e-16 l 0.39933366658731045 -3.9800166611121033 z" fill="url(#id20) none" id="path418"/>
      </g>
      <g transform="translate(3.8099999999999996,43.18)" id="g430">
        <circle cx="7.619999999999999" cy="2.54" fill="url(#id21) none" r="7.9375" id="circle422"/>
        <circle cx="7.619999999999999" cy="2.54" fill="#eee" r="5.85" stroke="black" stroke-width="2" id="circle424"/>
        <line stroke="black" stroke-linecap="round" stroke-width="2" x1="7.619999999999999" x2="3.4834253300586964" y1="2.54" y2="-1.5965746699413028" id="line426"/>
        <rect fill="black" height="1.4142135623730951" width="1.4142135623730951" x="2.0692117676856014" y="-3.0107882323143977" id="rect428"/>
      </g>
      <g transform="translate(-15.239999999999998,61.595)" id="g438">
        <path d="M 3.8 4.51691566 L 3.785539852748633 4.848107482441101 L 3.939231012048832 5.211508370667722 L 3.8637033051562732 5.552191840410083 L 3.5708319589864517 5.816592204637542 L 3.4439695907392696 6.122865054614659 L 3.464101615137755 6.51691566 L 3.276608177155967 6.811221405404185 L 2.9109688838521164 6.959508576808849 L 2.6870057685088806 7.203921428508881 L 2.5711504387461575 7.581093432475912 L 2.2943057454041846 7.793523837155968 L 1.9000000000000004 7.807812194380867 L 1.605949394614658 7.9608852507392704 L 1.3680805733026753 8.275686143143634 L 1.035276180410083 8.380618965156273 L 0.6598630751343355 8.259185121446391 L 0.33119182244110174 8.302455512748633 L 2.4492935982947064e-16 8.51691566 L -0.34862297099063205 8.501694452366984 L -0.6598630751343352 8.259185121446391 L -0.9835123713895784 8.18743379989846 L -1.3680805733026749 8.275686143143634 L -1.6904730469627973 8.1421468081466 L -1.899999999999999 7.807812194380867 L -2.179590458133974 7.62969342829817 L -2.5711504387461575 7.581093432475912 L -2.82842712474619 7.34534278474619 L -2.910968883852116 6.959508576808851 L -3.1127777682981677 6.696506118133977 L -3.464101615137755 6.51691566 L -3.6252311481465997 6.207388706962798 L -3.5708319589864512 5.8165922046375425 L -3.670518139898459 5.50042803138958 L -3.939231012048832 5.211508370667723 L -3.984778792366982 4.865538630990633 L -3.8 4.516915660000001 L -3.785539852748633 4.1857238375589 L -3.9392310120488325 3.82232294933228 L -3.8637033051562732 3.4816394795899175 L -3.5708319589864517 3.2172391153624593 L -3.44396959073927 2.910966265385343 L -3.4641016151377553 2.5169156600000013 L -3.276608177155968 2.222609914595817 L -2.9109688838521164 2.0743227431911513 L -2.687005768508881 1.8299098914911203 L -2.571150438746158 1.4527378875240888 L -2.2943057454041855 1.2403074828440341 L -1.9000000000000017 1.2260191256191346 L -1.6059493946146597 1.0729460692607318 L -1.3680805733026775 0.7581451768563676 L -1.0352761804100825 0.6532123548437272 L -0.6598630751343352 0.7746461985536102 L -0.33119182244110135 0.7313758072513674 L -7.347880794884119e-16 0.5169156600000004 L 0.34862297099063155 0.5321368676330183 L 0.6598630751343338 0.7746461985536097 L 0.983512371389577 0.8463975201015406 L 1.3680805733026726 0.7581451768563663 L 1.6904730469627953 0.8916845118533994 L 1.9000000000000004 1.2260191256191337 L 2.179590458133975 1.404137891701832 L 2.571150438746157 1.452737887524088 L 2.8284271247461894 1.6884885352538097 L 2.9109688838521155 2.07432274319115 L 3.1127777682981677 2.3373252018660238 L 3.4641016151377535 2.5169156599999987 L 3.625231148146599 2.8264426130372007 L 3.570831958986451 3.2172391153624567 L 3.6705181398984594 3.5334032886104216 L 3.939231012048832 3.822322949332279 L 3.984778792366982 4.168292689009367 z" fill="url(#id22) none" id="path432"/>
        <circle cx="0" cy="4.51691566" fill="url(#id23) none" r="3.4" id="circle434"/>
        <circle cx="0" cy="4.51691566" fill="url(#id24) none" r="2.5999999999999996" id="circle436"/>
      </g>
      <g transform="translate(-5.08,66.04)" id="g448">
        <circle cx="0" cy="0" fill="url(#id25) none" r="3.0" id="circle440"/>
        <circle cx="0" cy="0" fill="url(#id26) none" r="2.65" id="circle442"/>
        <circle cx="0" cy="0" fill="#111" r="1.8499999999999999" id="circle444"/>
        <path d="M 1.1 0.0 l 0.39933366658731323 3.980016661112103 c 0.24958354161707078 2.4875104131950643 -3.248250874791696 2.4875104131950647 -2.9986673331746254 3.672308351280035e-16 l 0.39933366658731045 -3.9800166611121033 z" fill="url(#id27) none" id="path446"/>
      </g>
      <g transform="translate(3.8099999999999996,63.5)" id="g458">
        <circle cx="7.619999999999999" cy="2.54" fill="url(#id28) none" r="7.9375" id="circle450"/>
        <circle cx="7.619999999999999" cy="2.54" fill="#eee" r="5.85" stroke="black" stroke-width="2" id="circle452"/>
        <line stroke="black" stroke-linecap="round" stroke-width="2" x1="7.619999999999999" x2="3.4834253300586964" y1="2.54" y2="-1.5965746699413028" id="line454"/>
        <rect fill="black" height="1.4142135623730951" width="1.4142135623730951" x="2.0692117676856014" y="-3.0107882323143977" id="rect456"/>
      </g>
      <g transform="translate(-15.239999999999998,81.915)" id="g466">
        <path d="M 3.8 4.51691566 L 3.785539852748633 4.848107482441101 L 3.939231012048832 5.211508370667722 L 3.8637033051562732 5.552191840410083 L 3.5708319589864517 5.816592204637542 L 3.4439695907392696 6.122865054614659 L 3.464101615137755 6.51691566 L 3.276608177155967 6.811221405404185 L 2.9109688838521164 6.959508576808849 L 2.6870057685088806 7.203921428508881 L 2.5711504387461575 7.581093432475912 L 2.2943057454041846 7.793523837155968 L 1.9000000000000004 7.807812194380867 L 1.605949394614658 7.9608852507392704 L 1.3680805733026753 8.275686143143634 L 1.035276180410083 8.380618965156273 L 0.6598630751343355 8.259185121446391 L 0.33119182244110174 8.302455512748633 L 2.4492935982947064e-16 8.51691566 L -0.34862297099063205 8.501694452366984 L -0.6598630751343352 8.259185121446391 L -0.9835123713895784 8.18743379989846 L -1.3680805733026749 8.275686143143634 L -1.6904730469627973 8.1421468081466 L -1.899999999999999 7.807812194380867 L -2.179590458133974 7.62969342829817 L -2.5711504387461575 7.581093432475912 L -2.82842712474619 7.34534278474619 L -2.910968883852116 6.959508576808851 L -3.1127777682981677 6.696506118133977 L -3.464101615137755 6.51691566 L -3.6252311481465997 6.207388706962798 L -3.5708319589864512 5.8165922046375425 L -3.670518139898459 5.50042803138958 L -3.939231012048832 5.211508370667723 L -3.984778792366982 4.865538630990633 L -3.8 4.516915660000001 L -3.785539852748633 4.1857238375589 L -3.9392310120488325 3.82232294933228 L -3.8637033051562732 3.4816394795899175 L -3.5708319589864517 3.2172391153624593 L -3.44396959073927 2.910966265385343 L -3.4641016151377553 2.5169156600000013 L -3.276608177155968 2.222609914595817 L -2.9109688838521164 2.0743227431911513 L -2.687005768508881 1.8299098914911203 L -2.571150438746158 1.4527378875240888 L -2.2943057454041855 1.2403074828440341 L -1.9000000000000017 1.2260191256191346 L -1.6059493946146597 1.0729460692607318 L -1.3680805733026775 0.7581451768563676 L -1.0352761804100825 0.6532123548437272 L -0.6598630751343352 0.7746461985536102 L -0.33119182244110135 0.7313758072513674 L -7.347880794884119e-16 0.5169156600000004 L 0.34862297099063155 0.5321368676330183 L 0.6598630751343338 0.7746461985536097 L 0.983512371389577 0.8463975201015406 L 1.3680805733026726 0.7581451768563663 L 1.6904730469627953 0.8916845118533994 L 1.9000000000000004 1.2260191256191337 L 2.179590458133975 1.404137891701832 L 2.571150438746157 1.452737887524088 L 2.8284271247461894 1.6884885352538097 L 2.9109688838521155 2.07432274319115 L 3.1127777682981677 2.3373252018660238 L 3.4641016151377535 2.5169156599999987 L 3.625231148146599 2.8264426130372007 L 3.570831958986451 3.2172391153624567 L 3.6705181398984594 3.5334032886104216 L 3.939231012048832 3.822322949332279 L 3.984778792366982 4.168292689009367 z" fill="url(#id29) none" id="path460"/>
        <circle cx="0" cy="4.51691566" fill="url(#id30) none" r="3.4" id="circle462"/>
        <circle cx="0" cy="4.51691566" fill="url(#id31) none" r="2.5999999999999996" id="circle464"/>
      </g>
      <g transform="translate(-5.08,86.36)" id="g476">
        <circle cx="0" cy="0" fill="url(#id32) none" r="3.0" id="circle468"/>
        <circle cx="0" cy="0" fill="url(#id33) none" r="2.65" id="circle470"/>
        <circle cx="0" cy="0" fill="#111" r="1.8499999999999999" id="circle472"/>
        <path d="M 1.1 0.0 l 0.39933366658731323 3.980016661112103 c 0.24958354161707078 2.4875104131950643 -3.248250874791696 2.4875104131950647 -2.9986673331746254 3.672308351280035e-16 l 0.39933366658731045 -3.9800166611121033 z" fill="url(#id34) none" id="path474"/>
      </g>
      <g transform="translate(11.43,81.915)" id="g484">
        <path d="M 3.8 4.51691566 L 3.785539852748633 4.848107482441101 L 3.939231012048832 5.211508370667722 L 3.8637033051562732 5.552191840410083 L 3.5708319589864517 5.816592204637542 L 3.4439695907392696 6.122865054614659 L 3.464101615137755 6.51691566 L 3.276608177155967 6.811221405404185 L 2.9109688838521164 6.959508576808849 L 2.6870057685088806 7.203921428508881 L 2.5711504387461575 7.581093432475912 L 2.2943057454041846 7.793523837155968 L 1.9000000000000004 7.807812194380867 L 1.605949394614658 7.9608852507392704 L 1.3680805733026753 8.275686143143634 L 1.035276180410083 8.380618965156273 L 0.6598630751343355 8.259185121446391 L 0.33119182244110174 8.302455512748633 L 2.4492935982947064e-16 8.51691566 L -0.34862297099063205 8.501694452366984 L -0.6598630751343352 8.259185121446391 L -0.9835123713895784 8.18743379989846 L -1.3680805733026749 8.275686143143634 L -1.6904730469627973 8.1421468081466 L -1.899999999999999 7.807812194380867 L -2.179590458133974 7.62969342829817 L -2.5711504387461575 7.581093432475912 L -2.82842712474619 7.34534278474619 L -2.910968883852116 6.959508576808851 L -3.1127777682981677 6.696506118133977 L -3.464101615137755 6.51691566 L -3.6252311481465997 6.207388706962798 L -3.5708319589864512 5.8165922046375425 L -3.670518139898459 5.50042803138958 L -3.939231012048832 5.211508370667723 L -3.984778792366982 4.865538630990633 L -3.8 4.516915660000001 L -3.785539852748633 4.1857238375589 L -3.9392310120488325 3.82232294933228 L -3.8637033051562732 3.4816394795899175 L -3.5708319589864517 3.2172391153624593 L -3.44396959073927 2.910966265385343 L -3.4641016151377553 2.5169156600000013 L -3.276608177155968 2.222609914595817 L -2.9109688838521164 2.0743227431911513 L -2.687005768508881 1.8299098914911203 L -2.571150438746158 1.4527378875240888 L -2.2943057454041855 1.2403074828440341 L -1.9000000000000017 1.2260191256191346 L -1.6059493946146597 1.0729460692607318 L -1.3680805733026775 0.7581451768563676 L -1.0352761804100825 0.6532123548437272 L -0.6598630751343352 0.7746461985536102 L -0.33119182244110135 0.7313758072513674 L -7.347880794884119e-16 0.5169156600000004 L 0.34862297099063155 0.5321368676330183 L 0.6598630751343338 0.7746461985536097 L 0.983512371389577 0.8463975201015406 L 1.3680805733026726 0.7581451768563663 L 1.6904730469627953 0.8916845118533994 L 1.9000000000000004 1.2260191256191337 L 2.179590458133975 1.404137891701832 L 2.571150438746157 1.452737887524088 L 2.8284271247461894 1.6884885352538097 L 2.9109688838521155 2.07432274319115 L 3.1127777682981677 2.3373252018660238 L 3.4641016151377535 2.5169156599999987 L 3.625231148146599 2.8264426130372007 L 3.570831958986451 3.2172391153624567 L 3.6705181398984594 3.5334032886104216 L 3.939231012048832 3.822322949332279 L 3.984778792366982 4.168292689009367 z" fill="url(#id35) none" id="path478"/>
        <circle cx="0" cy="4.51691566" fill="url(#id36) none" r="3.4" id="circle480"/>
        <circle cx="0" cy="4.51691566" fill="url(#id37) none" r="2.5999999999999996" id="circle482"/>
      </g>
      <g transform="translate(15.239999999999998,77.47)" id="g490">
        <circle cx="0" cy="1.27" fill="url(#id38) none" r="1.5" id="circle486"/>
        <ellipse cx="0.5" cy="0.52" fill="white" opacity="0.8" rx="0.75" ry="0.5" transform="rotate(20,0.5,0.52)" id="ellipse488"/>
      </g>
    </g>
  </g>
</svg>