<svg xmlns:inkscape="http://www.inkscape.org/namespaces/inkscape" xmlns:sodipodi="http://sodipodi.sourceforge.net/DTD/sodipodi-0.dtd" xmlns="http://www.w3.org/2000/svg" xmlns:svg="http://www.w3.org/2000/svg" height="128.5mm" version="1.1" viewBox="0,0,40.14,128.5" width="40.14mm" id="svg159" sodipodi:docname="envelope_faceplate.svg" inkscape:version="1.1.2 (0a00cf5339, 2022-02-04)">
  <sodipodi:namedview id="namedview161" pagecolor="#ffffff" bordercolor="#666666" borderopacity="1.0" inkscape:pageshadow="2" inkscape:pageopacity="0.0" inkscape:pagecheckerboard="0" inkscape:document-units="mm" showgrid="false" inkscape:zoom="1.5710279" inkscape:cx="75.746587" inkscape:cy="242.83465" inkscape:window-width="1495" inkscape:window-height="972" inkscape:window-x="0" inkscape:window-y="32" inkscape:window-maximized="0" inkscape:current-layer="svg159"/>
  <defs id="defs3">
    </defs>
  <rect fill="white" height="128.5" id="background" width="40.14" x="0" y="0"/>
  <g fill="none" id="outline" stroke="black">
    <line stroke="black" stroke-width="1" x1="0" x2="0" y1="-3" y2="3" id="line6"/>
    <line stroke="black" stroke-width="1" x1="-3" x2="3" y1="0" y2="0" id="line8"/>
    <line stroke="black" stroke-width="1" x1="43.14" x2="37.14" y1="0" y2="0" id="line10"/>
    <line stroke="black" stroke-width="1" x1="40.14" x2="40.14" y1="-3" y2="3" id="line12"/>
    <line stroke="black" stroke-width="1" x1="0" x2="0" y1="131.5" y2="125.5" id="line14"/>
    <line stroke="black" stroke-width="1" x1="-3" x2="3" y1="128.5" y2="128.5" id="line16"/>
    <line stroke="black" stroke-width="1" x1="40.14" x2="40.14" y1="131.5" y2="125.5" id="line18"/>
    <line stroke="black" stroke-width="1" x1="43.14" x2="37.14" y1="128.5" y2="128.5" id="line20"/>
  </g>
  <g font-family="Ubuntu" font-size="3" id="stencil">
    <path d="M 11.036279,5 V 1.8815 h 1.9035 V 2.255 h -1.467 v 0.927 h 1.305 v 0.3645 h -1.305 v 1.08 h 1.5795 V 5 Z" id="path980" style="font-size:4.5px;text-anchor:middle"/>
    <path d="m 13.578775,2.7275 q 0.144,-0.036 0.3825,-0.0765 0.2385,-0.0405 0.549,-0.0405 0.279,0 0.4635,0.081 0.1845,0.0765 0.2925,0.2205 0.1125,0.1395 0.1575,0.3375 0.045,0.198 0.045,0.4365 V 5 h -0.4185 V 3.776 q 0,-0.216 -0.0315,-0.369 -0.027,-0.153 -0.0945,-0.2475 -0.0675,-0.0945 -0.18,-0.135 -0.1125,-0.045 -0.279,-0.045 -0.0675,0 -0.1395,0.0045 -0.072,0.0045 -0.1395,0.0135 -0.063,0.0045 -0.117,0.0135 -0.0495,0.009 -0.072,0.0135 V 5 h -0.4185 z" id="path982" style="font-size:4.5px;text-anchor:middle"/>
    <path d="m 17.916769,2.66 q -0.1755,0.657 -0.414,1.26 -0.234,0.603 -0.4545,1.08 h -0.378 q -0.2205,-0.477 -0.459,-1.08 -0.234,-0.603 -0.4095,-1.26 h 0.45 q 0.054,0.2205 0.126,0.4725 0.0765,0.2475 0.1575,0.495 0.0855,0.243 0.171,0.4725 0.0855,0.2295 0.162,0.4095 0.0765,-0.18 0.162,-0.4095 0.0855,-0.2295 0.1665,-0.4725 0.0855,-0.2475 0.1575,-0.495 0.0765,-0.252 0.1305,-0.4725 z" id="path984" style="font-size:4.5px;text-anchor:middle"/>
    <path d="m 18.155256,3.8345 q 0,-0.3105 0.09,-0.54 0.09,-0.234 0.2385,-0.387 0.1485,-0.153 0.342,-0.2295 0.1935,-0.0765 0.396,-0.0765 0.4725,0 0.7245,0.297 0.252,0.2925 0.252,0.8955 0,0.027 0,0.072 0,0.0405 -0.0045,0.0765 h -1.602 q 0.027,0.3645 0.2115,0.5535 0.1845,0.189 0.576,0.189 0.2205,0 0.369,-0.036 0.153,-0.0405 0.2295,-0.0765 l 0.0585,0.351 q -0.0765,0.0405 -0.27,0.0855 -0.189,0.045 -0.432,0.045 -0.306,0 -0.531,-0.09 -0.2205,-0.0945 -0.3645,-0.2565 -0.144,-0.162 -0.216,-0.3825 -0.0675,-0.225 -0.0675,-0.4905 z m 1.6065,-0.2295 q 0.0045,-0.2835 -0.144,-0.4635 -0.144,-0.1845 -0.4005,-0.1845 -0.144,0 -0.2565,0.0585 -0.108,0.054 -0.1845,0.144 -0.0765,0.09 -0.1215,0.207 -0.0405,0.117 -0.054,0.2385 z" id="path986" style="font-size:4.5px;text-anchor:middle"/>
    <path d="m 21.503247,5.045 q -0.387,-0.009 -0.549,-0.1665 -0.162,-0.1575 -0.162,-0.4905 V 1.58 l 0.4185,-0.072 v 2.8125 q 0,0.1035 0.018,0.171 0.018,0.0675 0.0585,0.108 0.0405,0.0405 0.108,0.063 0.0675,0.018 0.1665,0.0315 z" id="path988" style="font-size:4.5px;text-anchor:middle"/>
    <path d="m 24.095242,3.83 q 0,0.279 -0.081,0.504 -0.081,0.225 -0.2295,0.387 -0.144,0.162 -0.3465,0.252 -0.2025,0.0855 -0.441,0.0855 -0.2385,0 -0.441,-0.0855 -0.2025,-0.09 -0.351,-0.252 -0.144,-0.162 -0.225,-0.387 -0.081,-0.225 -0.081,-0.504 0,-0.2745 0.081,-0.4995 0.081,-0.2295 0.225,-0.3915 0.1485,-0.162 0.351,-0.2475 0.2025,-0.09 0.441,-0.09 0.2385,0 0.441,0.09 0.2025,0.0855 0.3465,0.2475 0.1485,0.162 0.2295,0.3915 0.081,0.225 0.081,0.4995 z m -0.4365,0 q 0,-0.396 -0.18,-0.6255 -0.1755,-0.234 -0.4815,-0.234 -0.306,0 -0.486,0.234 -0.1755,0.2295 -0.1755,0.6255 0,0.396 0.1755,0.63 0.18,0.2295 0.486,0.2295 0.306,0 0.4815,-0.2295 0.18,-0.234 0.18,-0.63 z" id="path990" style="font-size:4.5px;text-anchor:middle"/>
    <path d="m 26.309234,3.8345 q 0,-0.4095 -0.2025,-0.63 -0.2025,-0.2205 -0.54,-0.2205 -0.189,0 -0.297,0.0135 -0.1035,0.0135 -0.1665,0.0315 v 1.476 q 0.0765,0.063 0.2205,0.1215 0.144,0.0585 0.315,0.0585 0.18,0 0.306,-0.063 0.1305,-0.0675 0.2115,-0.18 0.081,-0.117 0.117,-0.27 0.036,-0.1575 0.036,-0.3375 z m 0.4365,0 q 0,0.2655 -0.072,0.4905 -0.0675,0.225 -0.2025,0.387 -0.135,0.162 -0.333,0.252 -0.1935,0.09 -0.4455,0.09 -0.2025,0 -0.36,-0.054 -0.153,-0.054 -0.2295,-0.1035 v 0.936 h -0.4185 V 2.732 q 0.1485,-0.036 0.369,-0.0765 0.225,-0.045 0.5175,-0.045 0.27,0 0.486,0.0855 0.216,0.0855 0.369,0.243 0.153,0.1575 0.234,0.387 0.0855,0.225 0.0855,0.5085 z" id="path992" style="font-size:4.5px;text-anchor:middle"/>
    <path d="m 27.20473,3.8345 q 0,-0.3105 0.09,-0.54 0.09,-0.234 0.2385,-0.387 0.1485,-0.153 0.342,-0.2295 0.1935,-0.0765 0.396,-0.0765 0.4725,0 0.7245,0.297 0.252,0.2925 0.252,0.8955 0,0.027 0,0.072 0,0.0405 -0.0045,0.0765 h -1.602 q 0.027,0.3645 0.2115,0.5535 0.1845,0.189 0.576,0.189 0.2205,0 0.369,-0.036 0.153,-0.0405 0.2295,-0.0765 l 0.0585,0.351 q -0.0765,0.0405 -0.27,0.0855 -0.189,0.045 -0.432,0.045 -0.306,0 -0.531,-0.09 -0.2205,-0.0945 -0.3645,-0.2565 -0.144,-0.162 -0.216,-0.3825 -0.0675,-0.225 -0.0675,-0.4905 z m 1.6065,-0.2295 q 0.0045,-0.2835 -0.144,-0.4635 -0.144,-0.1845 -0.4005,-0.1845 -0.144,0 -0.2565,0.0585 -0.108,0.054 -0.1845,0.144 -0.0765,0.09 -0.1215,0.207 -0.0405,0.117 -0.054,0.2385 z" id="path994" style="font-size:4.5px;text-anchor:middle"/>
    <path d="M 23.273995,0 C 10.46956,0 0,10.46956 0,23.273995 0,36.078431 10.46956,46.54799 23.273995,46.54799 c 6.2817,0 11.379649,-2.548635 15.730632,-6.245496 1.538657,-1.307338 3.076198,-2.787732 4.658303,-4.38762 l -0.0086,-5.869298 -5.989355,0.0026 c -1.483874,1.505733 -2.846746,2.828266 -4.080397,3.876451 -3.512556,2.984484 -6.049447,4.254142 -10.310608,4.254142 -8.281306,0 -14.9047822,-6.623476 -14.9047822,-14.904783 0,-8.281306 6.6234762,-14.9047823 14.9047822,-14.9047823 4.261161,0 6.798052,1.2696585 10.310608,4.2541413 1.233651,1.048185 2.596523,2.370718 4.080397,3.876452 l 5.989355,0.0026 0.0086,-5.869304 C 42.080825,9.0332294 40.543284,7.5528356 39.004627,6.2454977 34.653644,2.5486366 29.555695,0 23.273995,0 Z M 76.724807,0 C 70.443279,1.0197146e-4 65.345444,2.5487105 60.99455,6.2454977 59.387003,7.6113677 57.781031,9.1642634 56.123352,10.847502 H 68.695628 C 71.17209,9.1299217 73.43594,8.3692721 76.724807,8.369213 h 3.82e-4 c 6.200192,0 11.470469,3.712943 13.728089,9.054499 l -6.041554,-0.07531 -8.585089,-3.079684 -28.740996,3.81e-4 v 5.645584 H 24.399983 v 6.718636 h 22.685649 v 5.645592 l 28.740995,3.82e-4 8.58509,-3.079684 6.041553,-0.07531 c -2.25762,5.341544 -7.527894,9.054489 -13.728089,9.054489 h -3.82e-4 c -3.288867,-5.9e-5 -5.552715,-0.760709 -8.029179,-2.47829 H 56.123352 c 1.657679,1.68324 3.263651,3.236135 4.871198,4.602006 4.350894,3.696786 9.448729,6.245395 15.730257,6.245496 h 3.82e-4 C 89.52963,46.548 99.999184,36.07844 99.999184,23.274005 99.999176,10.46956 89.52962,0 76.725181,0 Z m -59.711596,19.295384 -2.890653,3.978611 2.890653,3.978612 4.677319,-1.51971 v -4.917803 z" transform="translate(12.57, 119.5) scale(0.15)" id="path25"/>
    <g transform="translate(6.1,14.54)" id="g27"/>
    <g transform="translate(14.99,14.54)" id="g29"/>
    <g transform="translate(20.07,14.54)" id="g31"/>
    <g transform="translate(25.15,14.54)" id="g33"/>
    <g transform="translate(30.23,14.54)" id="g35"/>
    <g transform="translate(7.37,29.78)" id="g38">
      <path d="m -3.9104713,8 q -0.051,-0.135 -0.096,-0.264 -0.045,-0.132 -0.093,-0.267 h -0.942 l -0.189,0.531 h -0.303 q 0.12,-0.33 0.225,-0.609 0.105,-0.282 0.204,-0.534 0.102,-0.252 0.201,-0.48 0.099,-0.231 0.207,-0.456 h 0.267 q 0.108,0.225 0.207,0.456 0.099,0.228 0.198,0.48 0.102,0.252 0.207,0.534 0.105,0.279 0.225,0.609 z m -0.273,-0.771 q -0.096,-0.261 -0.192,-0.504 -0.093,-0.246 -0.195,-0.471 -0.105,0.225 -0.201,0.471 -0.093,0.243 -0.186,0.504 z" id="path997" style="text-anchor:middle"/>
      <path d="m -3.3044818,8.555 h -0.285 l 1.017,-2.904 h 0.279 z" id="path999" style="text-anchor:middle"/>
      <path d="m -0.86848862,8 q -0.051,-0.135 -0.096,-0.264 -0.045,-0.132 -0.093,-0.267 h -0.942 l -0.189,0.531 h -0.303 q 0.12,-0.33 0.225,-0.609 0.105,-0.282 0.204,-0.534 0.102,-0.252 0.201,-0.48 0.099,-0.231 0.207,-0.456 h 0.267 q 0.108,0.225 0.207,0.456 0.099,0.228 0.1979999,0.48 0.102,0.252 0.207,0.534 0.105,0.279 0.225,0.609 z M -1.1414886,7.229 q -0.096,-0.261 -0.192,-0.504 -0.093,-0.246 -0.195,-0.471 -0.105,0.225 -0.201,0.471 -0.093,0.243 -0.186,0.504 z" id="path1001" style="text-anchor:middle"/>
      <path d="m -0.26249915,8.555 h -0.285 l 1.017,-2.904 h 0.279 z" id="path1003" style="text-anchor:middle"/>
      <path d="m 2.173494,8 q -0.051,-0.135 -0.096,-0.264 -0.045,-0.132 -0.093,-0.267 h -0.942 L 0.85349403,8 h -0.303 q 0.12,-0.33 0.225,-0.609 0.105,-0.282 0.204,-0.534 Q 1.081494,6.605 1.180494,6.377 q 0.099,-0.231 0.207,-0.456 h 0.267 q 0.108,0.225 0.207,0.456 0.099,0.228 0.198,0.48 0.102,0.252 0.207,0.534 0.105,0.279 0.225,0.609 z m -0.273,-0.771 q -0.096,-0.261 -0.192,-0.504 -0.093,-0.246 -0.195,-0.471 -0.105,0.225 -0.201,0.471 -0.093,0.243 -0.186,0.504 z" id="path1005" style="text-anchor:middle"/>
      <path d="m 2.7794835,8.555 h -0.285 l 1.017,-2.904 h 0.279 z" id="path1007" style="text-anchor:middle"/>
      <path d="m 5.2154767,8 q -0.051,-0.135 -0.096,-0.264 -0.045,-0.132 -0.093,-0.267 h -0.942 L 3.8954767,8 h -0.303 q 0.12,-0.33 0.225,-0.609 0.105,-0.282 0.204,-0.534 0.102,-0.252 0.201,-0.48 0.099,-0.231 0.207,-0.456 h 0.267 q 0.108,0.225 0.207,0.456 0.099,0.228 0.198,0.48 0.102,0.252 0.207,0.534 0.105,0.279 0.225,0.609 z m -0.273,-0.771 q -0.096,-0.261 -0.192,-0.504 -0.093,-0.246 -0.195,-0.471 -0.105,0.225 -0.201,0.471 -0.093,0.243 -0.186,0.504 z" id="path1009" style="text-anchor:middle"/>
    </g>
    <path d="M 7.37,29.78 H 30.23" fill="none" stroke="#000000" stroke-width="0.6" id="path40"/>
    <g transform="translate(27.69,37.4)" id="g42"/>
    <g transform="translate(7.37,47.56)" id="g45">
      <path d="m -3.8939773,6.959 q 0,0.27 -0.084,0.471 -0.084,0.198 -0.237,0.33 -0.153,0.129 -0.366,0.195 -0.213,0.063 -0.468,0.063 -0.126,0 -0.279,-0.012 -0.15,-0.009 -0.273,-0.039 V 5.951 q 0.123,-0.03 0.273,-0.039 0.153,-0.012 0.279,-0.012 0.255,0 0.468,0.066 0.213,0.063 0.366,0.195 0.153,0.129 0.237,0.33 0.084,0.198 0.084,0.468 z m -1.131,0.804 q 0.414,0 0.618,-0.21 0.204,-0.213 0.204,-0.594 0,-0.381 -0.204,-0.591 -0.204,-0.213 -0.618,-0.213 -0.123,0 -0.192,0.003 -0.066,0.003 -0.093,0.006 v 1.59 q 0.027,0.003 0.093,0.006 0.069,0.003 0.192,0.003 z" id="path1012" style="text-anchor:middle"/>
      <path d="m -3.6359828,8.555 h -0.285 l 1.017,-2.904 h 0.279 z" id="path1014" style="text-anchor:middle"/>
      <path d="m -1.1999896,8 q -0.051,-0.135 -0.096,-0.264 -0.045,-0.132 -0.093,-0.267 h -0.942 l -0.189,0.531 h -0.303 q 0.12,-0.33 0.225,-0.609 0.105,-0.282 0.204,-0.534 0.102,-0.252 0.201,-0.48 0.099,-0.231 0.207,-0.456 h 0.267 q 0.108,0.225 0.207,0.456 0.099,0.228 0.198,0.48 0.102,0.252 0.207,0.534 0.105,0.279 0.22499997,0.609 z m -0.273,-0.771 q -0.096,-0.261 -0.192,-0.504 -0.093,-0.246 -0.195,-0.471 -0.105,0.225 -0.201,0.471 -0.093,0.243 -0.186,0.504 z" id="path1016" style="text-anchor:middle"/>
      <path d="m -0.5849981,5.72 v 0.15 q 0,0.147 -0.018,0.309 -0.018,0.159 -0.045,0.318 h -0.165 q -0.027,-0.159 -0.045,-0.318 -0.018,-0.162 -0.018,-0.312 V 5.72 Z" id="path1018" style="text-anchor:middle"/>
      <path d="m -0.15600043,8.555 h -0.285 l 1.017,-2.904 h 0.279 z" id="path1020" style="text-anchor:middle"/>
      <path d="m 2.2799927,8 q -0.051,-0.135 -0.096,-0.264 -0.045,-0.132 -0.093,-0.267 h -0.942 L 0.95999274,8 h -0.303 q 0.12,-0.33 0.225,-0.609 0.105,-0.282 0.20399996,-0.534 0.102,-0.252 0.201,-0.48 0.099,-0.231 0.207,-0.456 h 0.267 q 0.108,0.225 0.207,0.456 0.099,0.228 0.198,0.48 0.102,0.252 0.207,0.534 0.105,0.279 0.225,0.609 z m -0.273,-0.771 q -0.096,-0.261 -0.192,-0.504 -0.093,-0.246 -0.195,-0.471 -0.105,0.225 -0.201,0.471 -0.093,0.243 -0.186,0.504 z" id="path1022" style="text-anchor:middle"/>
      <path d="m 2.8949843,5.72 v 0.15 q 0,0.147 -0.018,0.309 -0.018,0.159 -0.045,0.318 h -0.165 q -0.027,-0.159 -0.045,-0.318 -0.018,-0.162 -0.018,-0.312 V 5.72 Z" id="path1024" style="text-anchor:middle"/>
      <path d="m 3.3239819,8.555 h -0.285 l 1.017,-2.904 h 0.279 z" id="path1026" style="text-anchor:middle"/>
      <path d="m 5.0039786,7.793 q 0.456,0 0.456,-0.312 0,-0.096 -0.042,-0.162 -0.039,-0.069 -0.108,-0.117 -0.069,-0.051 -0.159,-0.087 -0.087,-0.036 -0.186,-0.072 -0.114,-0.039 -0.216,-0.087 -0.102,-0.051 -0.177,-0.117 -0.075,-0.069 -0.12,-0.162 -0.042,-0.093 -0.042,-0.225 0,-0.273 0.186,-0.426 0.186,-0.153 0.513,-0.153 0.189,0 0.342,0.042 0.156,0.039 0.228,0.087 l -0.093,0.237 q -0.063,-0.039 -0.189,-0.075 -0.123,-0.039 -0.288,-0.039 -0.084,0 -0.156,0.018 -0.072,0.018 -0.126,0.054 -0.054,0.036 -0.087,0.093 -0.03,0.054 -0.03,0.129 0,0.084 0.033,0.141 0.033,0.057 0.093,0.102 0.06,0.042 0.138,0.078 0.081,0.036 0.177,0.072 0.135,0.054 0.246,0.108 0.114,0.054 0.195,0.129 0.084,0.075 0.129,0.18 0.045,0.102 0.045,0.249 0,0.273 -0.201,0.42 -0.198,0.147 -0.561,0.147 -0.123,0 -0.228,-0.018 -0.102,-0.015 -0.183,-0.036 -0.081,-0.024 -0.141,-0.048 -0.057,-0.027 -0.09,-0.045 l 0.087,-0.24 q 0.069,0.039 0.21,0.087 0.141,0.048 0.345,0.048 z" id="path1028" style="text-anchor:middle"/>
    </g>
    <path d="M 7.37,47.56 H 30.23" fill="none" stroke="#000000" stroke-width="0.6" id="path47"/>
    <g transform="translate(27.69,55.18)" id="g49"/>
    <g transform="translate(7.37,65.34)" id="g52">
      <path d="m -4.6514904,7.793 q 0.456,0 0.456,-0.312 0,-0.096 -0.042,-0.162 -0.039,-0.069 -0.108,-0.117 -0.069,-0.051 -0.159,-0.087 -0.087,-0.036 -0.186,-0.072 -0.114,-0.039 -0.216,-0.087 -0.102,-0.051 -0.177,-0.117 -0.075,-0.069 -0.12,-0.162 -0.042,-0.093 -0.042,-0.225 0,-0.273 0.186,-0.426 0.186,-0.153 0.513,-0.153 0.189,0 0.342,0.042 0.156,0.039 0.228,0.087 l -0.093,0.237 q -0.063,-0.039 -0.189,-0.075 -0.123,-0.039 -0.288,-0.039 -0.084,0 -0.156,0.018 -0.072,0.018 -0.126,0.054 -0.054,0.036 -0.087,0.093 -0.03,0.054 -0.03,0.129 0,0.084 0.033,0.141 0.033,0.057 0.093,0.102 0.06,0.042 0.138,0.078 0.081,0.036 0.177,0.072 0.135,0.054 0.246,0.108 0.114,0.054 0.195,0.129 0.084,0.075 0.129,0.18 0.045,0.102 0.045,0.249 0,0.273 -0.201,0.42 -0.198,0.147 -0.561,0.147 -0.123,0 -0.228,-0.018 -0.102,-0.015 -0.183,-0.036 -0.081,-0.024 -0.141,-0.048 -0.057,-0.027 -0.09,-0.045 l 0.087,-0.24 q 0.069,0.039 0.21,0.087 0.141,0.048 0.345,0.048 z" id="path1031" style="text-anchor:middle"/>
      <path d="m -3.5834916,8.555 h -0.285 l 1.017,-2.904 h 0.279 z" id="path1033" style="text-anchor:middle"/>
      <path d="m -1.369495,7.13 q 0.048,0.06 0.12,0.159 0.075,0.096 0.153,0.216 0.078,0.117 0.15299999,0.246 0.078,0.129 0.132,0.249 H -1.129495 q -0.06,-0.114 -0.132,-0.231 -0.069,-0.117 -0.141,-0.222 -0.072,-0.108 -0.144,-0.201 -0.069,-0.093 -0.126,-0.162 -0.039,0.003 -0.081,0.003 -0.039,0 -0.081,0 h -0.261 V 8 h -0.291 V 5.951 q 0.123,-0.03 0.273,-0.039 0.153,-0.012 0.279,-0.012 0.438,0 0.666,0.165 0.23099999,0.165 0.23099999,0.492 0,0.207 -0.11099999,0.354 -0.108,0.147 -0.321,0.219 z m -0.441,-0.975 q -0.186,0 -0.285,0.009 v 0.783 h 0.207 q 0.15,0 0.27,-0.015 0.12,-0.015 0.201,-0.057 0.084,-0.042 0.129,-0.117 0.045,-0.078 0.045,-0.204 0,-0.117 -0.045,-0.195 -0.045,-0.078 -0.123,-0.123 -0.075,-0.045 -0.18,-0.063 -0.102,-0.018 -0.219,-0.018 z" id="path1035" style="text-anchor:middle"/>
      <path d="m -0.50849849,8.555 h -0.285 l 1.017,-2.904 h 0.279 z" id="path1037" style="text-anchor:middle"/>
      <path d="m 1.7054981,7.13 q 0.048,0.06 0.12,0.159 0.075,0.096 0.153,0.216 0.078,0.117 0.153,0.246 0.078,0.129 0.132,0.249 h -0.318 q -0.06,-0.114 -0.132,-0.231 -0.069,-0.117 -0.141,-0.222 -0.072,-0.108 -0.144,-0.201 -0.069,-0.093 -0.126,-0.162 -0.039,0.003 -0.081,0.003 -0.039,0 -0.081,0 H 0.97949812 V 8 h -0.291 V 5.951 q 0.123,-0.03 0.273,-0.039 Q 1.1144981,5.9 1.2404981,5.9 q 0.438,0 0.666,0.165 0.231,0.165 0.231,0.492 0,0.207 -0.111,0.354 -0.108,0.147 -0.321,0.219 z m -0.441,-0.975 q -0.186,0 -0.28499998,0.009 V 6.947 H 1.1864981 q 0.15,0 0.27,-0.015 0.12,-0.015 0.201,-0.057 0.084,-0.042 0.129,-0.117 0.045,-0.078 0.045,-0.204 0,-0.117 -0.045,-0.195 -0.045,-0.078 -0.123,-0.123 -0.075,-0.045 -0.18,-0.063 -0.102,-0.018 -0.219,-0.018 z" id="path1039" style="text-anchor:middle"/>
      <path d="m 2.5664946,8.555 h -0.285 l 1.017,-2.904 h 0.279 z" id="path1041" style="text-anchor:middle"/>
      <path d="m 4.7804913,7.13 q 0.048,0.06 0.12,0.159 0.075,0.096 0.153,0.216 0.078,0.117 0.153,0.246 0.078,0.129 0.132,0.249 h -0.318 q -0.06,-0.114 -0.132,-0.231 -0.069,-0.117 -0.141,-0.222 -0.072,-0.108 -0.144,-0.201 -0.069,-0.093 -0.126,-0.162 -0.039,0.003 -0.081,0.003 -0.039,0 -0.081,0 h -0.261 V 8 h -0.291 V 5.951 q 0.123,-0.03 0.273,-0.039 0.153,-0.012 0.279,-0.012 0.438,0 0.666,0.165 0.231,0.165 0.231,0.492 0,0.207 -0.111,0.354 -0.108,0.147 -0.321,0.219 z m -0.441,-0.975 q -0.186,0 -0.285,0.009 v 0.783 h 0.207 q 0.15,0 0.27,-0.015 0.12,-0.015 0.201,-0.057 0.084,-0.042 0.129,-0.117 0.045,-0.078 0.045,-0.204 0,-0.117 -0.045,-0.195 -0.045,-0.078 -0.123,-0.123 -0.075,-0.045 -0.18,-0.063 -0.102,-0.018 -0.219,-0.018 z" id="path1043" style="text-anchor:middle"/>
    </g>
    <path d="M 7.37,65.34 H 30.23" fill="none" stroke="#000000" stroke-width="0.6" id="path54"/>
    <g transform="translate(27.69,72.96)" id="g56"/>
    <g transform="translate(7.37,83.12)" id="g59">
      <path d="m -5.093989,7.13 q 0.048,0.06 0.12,0.159 0.075,0.096 0.153,0.216 0.078,0.117 0.153,0.246 0.078,0.129 0.132,0.249 h -0.318 q -0.06,-0.114 -0.132,-0.231 -0.069,-0.117 -0.141,-0.222 -0.072,-0.108 -0.144,-0.201 -0.069,-0.093 -0.126,-0.162 -0.039,0.003 -0.081,0.003 -0.039,0 -0.081,0 h -0.261 V 8 h -0.291 V 5.951 q 0.123,-0.03 0.273,-0.039 0.153,-0.012 0.279,-0.012 0.438,0 0.666,0.165 0.231,0.165 0.231,0.492 0,0.207 -0.111,0.354 -0.108,0.147 -0.321,0.219 z m -0.441,-0.975 q -0.186,0 -0.285,0.009 v 0.783 h 0.207 q 0.15,0 0.27,-0.015 0.12,-0.015 0.201,-0.057 0.084,-0.042 0.129,-0.117 0.045,-0.078 0.045,-0.204 0,-0.117 -0.045,-0.195 -0.045,-0.078 -0.123,-0.123 -0.075,-0.045 -0.18,-0.063 -0.102,-0.018 -0.219,-0.018 z" id="path1046" style="text-anchor:middle"/>
      <path d="m -4.2329925,8.555 h -0.285 l 1.017,-2.904 h 0.279 z" id="path1048" style="text-anchor:middle"/>
      <path d="m -2.0189959,7.13 q 0.048,0.06 0.12,0.159 0.075,0.096 0.153,0.216 0.078,0.117 0.153,0.246 0.078,0.129 0.132,0.249 h -0.318 q -0.06,-0.114 -0.132,-0.231 -0.069,-0.117 -0.141,-0.222 -0.072,-0.108 -0.144,-0.201 -0.069,-0.093 -0.126,-0.162 -0.039,0.003 -0.081,0.003 -0.039,0 -0.081,0 h -0.261 V 8 h -0.291 V 5.951 q 0.123,-0.03 0.273,-0.039 0.153,-0.012 0.279,-0.012 0.438,0 0.666,0.165 0.231,0.165 0.231,0.492 0,0.207 -0.111,0.354 -0.108,0.147 -0.321,0.219 z m -0.441,-0.975 q -0.186,0 -0.285,0.009 v 0.783 h 0.207 q 0.15,0 0.27,-0.015 0.12,-0.015 0.201,-0.057 0.084,-0.042 0.129,-0.117 0.045,-0.078 0.045,-0.204 0,-0.117 -0.045,-0.195 -0.045,-0.078 -0.123,-0.123 -0.075,-0.045 -0.18,-0.063 -0.102,-0.018 -0.219,-0.018 z" id="path1050" style="text-anchor:middle"/>
      <path d="m -0.89999673,5.72 v 0.15 q 0,0.147 -0.018,0.309 -0.018,0.159 -0.045,0.318 H -1.1279967 q -0.027,-0.159 -0.045,-0.318 -0.018,-0.162 -0.018,-0.312 V 5.72 Z" id="path1052" style="text-anchor:middle"/>
      <path d="m -0.47099906,8.555 h -0.285 l 1.017,-2.904 h 0.279 z" id="path1054" style="text-anchor:middle"/>
      <path d="m 1.7429976,7.13 q 0.048,0.06 0.12,0.159 0.075,0.096 0.153,0.216 0.078,0.117 0.153,0.246 0.078,0.129 0.132,0.249 h -0.318 q -0.06,-0.114 -0.132,-0.231 -0.069,-0.117 -0.141,-0.222 -0.072,-0.108 -0.144,-0.201 -0.069,-0.093 -0.126,-0.162 -0.039,0.003 -0.081,0.003 -0.039,0 -0.081,0 h -0.261 V 8 H 0.72599755 V 5.951 q 0.123,-0.03 0.273,-0.039 Q 1.1519976,5.9 1.2779976,5.9 q 0.438,0 0.666,0.165 0.231,0.165 0.231,0.492 0,0.207 -0.111,0.354 -0.108,0.147 -0.321,0.219 z m -0.441,-0.975 q -0.186,0 -0.285,0.009 v 0.783 h 0.207 q 0.15,0 0.27,-0.015 0.12,-0.015 0.201,-0.057 0.084,-0.042 0.129,-0.117 0.045,-0.078 0.045,-0.204 0,-0.117 -0.045,-0.195 -0.045,-0.078 -0.123,-0.123 -0.075,-0.045 -0.18,-0.063 -0.102,-0.018 -0.219,-0.018 z" id="path1056" style="text-anchor:middle"/>
      <path d="m 2.8619967,5.72 v 0.15 q 0,0.147 -0.018,0.309 -0.018,0.159 -0.045,0.318 h -0.165 q -0.027,-0.159 -0.045,-0.318 -0.018,-0.162 -0.018,-0.312 V 5.72 Z" id="path1058" style="text-anchor:middle"/>
      <path d="m 3.2909943,8.555 h -0.285 l 1.017,-2.904 h 0.279 z" id="path1060" style="text-anchor:middle"/>
      <path d="m 6.194991,6.959 q 0,0.27 -0.084,0.471 -0.084,0.198 -0.237,0.33 -0.153,0.129 -0.366,0.195 -0.213,0.063 -0.468,0.063 -0.126,0 -0.279,-0.012 -0.15,-0.009 -0.273,-0.039 V 5.951 q 0.123,-0.03 0.273,-0.039 0.153,-0.012 0.279,-0.012 0.255,0 0.468,0.066 0.213,0.063 0.366,0.195 0.153,0.129 0.237,0.33 0.084,0.198 0.084,0.468 z m -1.131,0.804 q 0.414,0 0.618,-0.21 0.204,-0.213 0.204,-0.594 0,-0.381 -0.204,-0.591 -0.204,-0.213 -0.618,-0.213 -0.123,0 -0.192,0.003 -0.066,0.003 -0.093,0.006 v 1.59 q 0.027,0.003 0.093,0.006 0.069,0.003 0.192,0.003 z" id="path1062" style="text-anchor:middle"/>
    </g>
    <path d="M 7.37,83.12 H 30.23" fill="none" stroke="#000000" stroke-width="0.6" id="path61"/>
    <g transform="translate(27.69,90.74)" id="g63"/>
    <g transform="translate(4.83,103.44)" id="g66">
      <path d="m -1.6904921,6.977 h 0.291 v 0.972 q -0.036,0.012 -0.105,0.027 -0.066,0.015 -0.156,0.03 -0.087,0.015 -0.192,0.024 -0.105,0.012 -0.213,0.012 -0.219,0 -0.399,-0.072 -0.18,-0.072 -0.309,-0.21 -0.129,-0.138 -0.201,-0.339 -0.069,-0.201 -0.069,-0.462 0,-0.261 0.078,-0.462 0.081,-0.204 0.216,-0.342 0.135,-0.138 0.315,-0.21 0.183,-0.072 0.39,-0.072 0.141,0 0.249,0.018 0.111,0.018 0.189,0.042 0.078,0.024 0.126,0.048 0.051,0.024 0.069,0.036 l -0.093,0.243 q -0.087,-0.057 -0.231,-0.093 -0.144,-0.039 -0.294,-0.039 -0.159,0 -0.291,0.057 -0.129,0.057 -0.222,0.165 -0.09,0.108 -0.141,0.264 -0.051,0.153 -0.051,0.345 0,0.186 0.042,0.339 0.045,0.153 0.132,0.264 0.09,0.108 0.219,0.168 0.132,0.06 0.309,0.06 0.126,0 0.213,-0.012 0.09,-0.015 0.129,-0.027 z" id="path1065" style="text-anchor:middle"/>
      <path d="m -0.43349517,7.799 q 0.099,0 0.174,-0.003 0.078,-0.006 0.129,-0.018 V 7.313 q -0.03,-0.015 -0.099,-0.024 -0.066,-0.012 -0.162,-0.012 -0.063,0 -0.135,0.009 -0.069,0.009 -0.129,0.039 -0.057,0.027 -0.096,0.078 -0.039,0.048 -0.039,0.129 0,0.15 0.096,0.21 0.096,0.057 0.261,0.057 z m -0.024,-1.398 q 0.168,0 0.282,0.045 0.117,0.042 0.186,0.123 0.072,0.078 0.102,0.189 0.03,0.108 0.03,0.24 v 0.975 q -0.036,0.006 -0.102,0.018 -0.063,0.009 -0.144,0.018 -0.081,0.009 -0.177,0.015 -0.093,0.009 -0.186,0.009 -0.132,0 -0.243,-0.027 -0.111,-0.027 -0.192,-0.084 -0.081,-0.06 -0.12600003,-0.156 -0.045,-0.096 -0.045,-0.231 0,-0.129 0.051,-0.222 0.054,-0.093 0.14400003,-0.15 0.09,-0.057 0.21,-0.084 0.12,-0.027 0.252,-0.027 0.042,0 0.087,0.006 0.045,0.003 0.084,0.012 0.042,0.006 0.072,0.012 0.03,0.006 0.042,0.009 V 7.013 q 0,-0.069 -0.015,-0.135 -0.015,-0.069 -0.054,-0.12 -0.039,-0.054 -0.108,-0.084 -0.066,-0.033 -0.174,-0.033 -0.138,0 -0.243,0.021 -0.102,0.018 -0.153,0.039 l -0.033,-0.231 q 0.054,-0.024 0.18,-0.045 0.126,-0.024 0.273,-0.024 z" id="path1067" style="text-anchor:middle"/>
      <path d="M 0.86550291,6.44 H 1.4565029 V 6.674 H 0.86550291 v 0.72 q 0,0.117 0.018,0.195 0.018,0.075 0.054,0.12 0.036,0.042 0.09,0.06 0.054,0.018 0.126,0.018 0.126,0 0.201,-0.027 0.078,-0.03 0.108,-0.042 l 0.054,0.231 q -0.042,0.021 -0.147,0.051 -0.105,0.033 -0.24,0.033 -0.15899995,0 -0.26399995,-0.039 -0.102,-0.042 -0.165,-0.123 -0.063,-0.081 -0.09,-0.198 -0.024,-0.12 -0.024,-0.276 V 6.005 l 0.279,-0.048 z" id="path1069" style="text-anchor:middle"/>
      <path d="m 1.6934978,7.223 q 0,-0.207 0.06,-0.36 0.06,-0.156 0.159,-0.258 0.099,-0.102 0.228,-0.153 0.129,-0.051 0.264,-0.051 0.315,0 0.483,0.198 0.168,0.195 0.168,0.597 0,0.018 0,0.048 0,0.027 -0.003,0.051 h -1.068 q 0.018,0.243 0.141,0.369 0.123,0.126 0.384,0.126 0.147,0 0.246,-0.024 0.102,-0.027 0.153,-0.051 l 0.039,0.234 q -0.051,0.027 -0.18,0.057 -0.126,0.03 -0.288,0.03 -0.204,0 -0.354,-0.06 -0.147,-0.063 -0.243,-0.171 -0.096,-0.108 -0.144,-0.255 -0.045,-0.15 -0.045,-0.327 z m 1.071,-0.153 q 0.003,-0.189 -0.096,-0.309 -0.096,-0.123 -0.267,-0.123 -0.096,0 -0.171,0.039 -0.072,0.036 -0.123,0.096 -0.051,0.06 -0.081,0.138 -0.027,0.078 -0.036,0.159 z" id="path1071" style="text-anchor:middle"/>
    </g>
    <g transform="translate(14.99,103.44)" id="g69">
      <path d="M -0.96599229,5.921 V 6.173 H -1.6199923 V 8 h -0.291 V 6.173 h -0.654 V 5.921 Z" id="path1074" style="text-anchor:middle"/>
      <path d="m -0.22199915,6.407 q 0.036,0 0.081,0.006 0.048,0.003 0.093,0.012 0.045,0.006 0.081,0.015 0.039,0.006 0.057,0.012 l -0.048,0.243 q -0.033,-0.012 -0.111,-0.027 -0.075,-0.018 -0.195,-0.018 -0.078,0 -0.156,0.018 -0.075,0.015 -0.099,0.021 V 8 h -0.279 V 6.506 q 0.099,-0.036 0.246,-0.066 0.147,-0.033 0.33,-0.033 z" id="path1076" style="text-anchor:middle"/>
      <path d="m 0.63899989,8 h -0.279 V 6.44 h 0.279 z m -0.141,-1.842 q -0.075,0 -0.129,-0.048 -0.051,-0.051 -0.051,-0.135 0,-0.084 0.051,-0.132 0.054,-0.051 0.129,-0.051 0.075,0 0.126,0.051 0.054,0.048 0.054,0.132 0,0.084 -0.054,0.135 -0.051,0.048 -0.126,0.048 z" id="path1078" style="text-anchor:middle"/>
      <path d="m 2.0969949,7.844 q -0.036,0.024 -0.141,0.063 -0.102,0.036 -0.24,0.036 -0.141,0 -0.267,-0.045 -0.123,-0.045 -0.216,-0.138 -0.093,-0.096 -0.147,-0.237 -0.054,-0.141 -0.054,-0.336 0,-0.171 0.051,-0.312 0.051,-0.144 0.147,-0.246 0.099,-0.105 0.24,-0.162 0.141,-0.06 0.318,-0.06 0.195,0 0.339,0.03 0.147,0.027 0.246,0.051 V 7.88 q 0,0.36 -0.186,0.522 -0.186,0.162 -0.564,0.162 -0.147,0 -0.279,-0.024 -0.129,-0.024 -0.225,-0.057 l 0.051,-0.243 q 0.084,0.033 0.204,0.057 0.123,0.027 0.255,0.027 0.249,0 0.357,-0.099 0.111,-0.099 0.111,-0.315 z m -0.003,-1.158 q -0.042,-0.012 -0.114,-0.021 -0.069,-0.012 -0.189,-0.012 -0.225,0 -0.348,0.147 -0.12,0.147 -0.12,0.39 0,0.135 0.033,0.231 0.036,0.096 0.093,0.159 0.06,0.063 0.135,0.093 0.078,0.03 0.159,0.03 0.111,0 0.204,-0.03 0.093,-0.033 0.147,-0.075 z" id="path1080" style="text-anchor:middle"/>
    </g>
    <g transform="translate(25.15,103.44)" id="g73">
      <path id="path_oqrdopmvln" style="" d="m 84.09375,374.32422 a 5.6692913,5.6692913 0 0 0 -5.667969,5.66992 v 45.35352 a 5.6692913,5.6692913 0 0 0 5.667969,5.66992 h 21.92187 a 5.6692913,5.6692913 0 0 0 5.66993,-5.66992 v -45.35352 a 5.6692913,5.6692913 0 0 0 -5.66993,-5.66992 z m 10.960938,2.64648 a 13.984375,13.984375 0 0 1 0,27.96875 13.984375,13.984375 0 0 1 0,-27.96875 z m -5.509766,36.18164 c 0.506457,0 0.98175,0.0859 1.427734,0.25977 0.453544,0.17386 0.851249,0.43549 1.191406,0.7832 0.340158,0.34016 0.608153,0.76724 0.804688,1.28125 0.204094,0.51402 0.306641,1.10654 0.306641,1.7793 0,0.67276 -0.102547,1.26723 -0.306641,1.78125 -0.196535,0.51402 -0.46453,0.9433 -0.804688,1.29101 -0.340157,0.34016 -0.737862,0.59763 -1.191406,0.77149 -0.445984,0.17386 -0.921277,0.26172 -1.427734,0.26172 -0.514016,0 -1.001788,-0.0879 -1.462891,-0.26172 -0.453543,-0.17386 -0.853455,-0.43133 -1.201172,-0.77149 -0.340157,-0.34771 -0.612311,-0.77699 -0.816406,-1.29101 -0.196535,-0.51402 -0.294922,-1.10849 -0.294922,-1.78125 0,-0.67276 0.09839,-1.26528 0.294922,-1.7793 0.204095,-0.51401 0.476249,-0.94109 0.816406,-1.28125 0.347717,-0.34771 0.747629,-0.60934 1.201172,-0.7832 0.461103,-0.17386 0.948875,-0.25977 1.462891,-0.25977 z m 12.789058,0.31641 v 1.82617 h 2.23438 v 0.88477 h -2.23438 v 2.7207 c 0,0.2948 0.023,0.53979 0.0684,0.73633 0.0454,0.18898 0.11437,0.33974 0.20508,0.45312 0.0907,0.10583 0.20378,0.18317 0.33985,0.22852 0.13606,0.0454 0.29514,0.0664 0.47656,0.0664 0.31748,0 0.57079,-0.0335 0.75976,-0.10157 0.19654,-0.0756 0.33262,-0.12796 0.40821,-0.1582 l 0.20312,0.87305 c -0.10582,0.0529 -0.29012,0.11777 -0.55469,0.19336 -0.26456,0.0831 -0.56804,0.12304 -0.9082,0.12304 -0.40063,0 -0.73348,-0.0482 -0.99805,-0.14648 -0.257,-0.10583 -0.4643,-0.26075 -0.62304,-0.46485 -0.15874,-0.20409 -0.27181,-0.45324 -0.33985,-0.74804 -0.0605,-0.30236 -0.0918,-0.6499 -0.0918,-1.04297 v -5.26172 z m -12.812496,0.64648 c -0.40063,0 -0.762851,0.0754 -1.08789,0.22657 -0.317481,0.14362 -0.589635,0.35092 -0.816406,0.62304 -0.219213,0.27213 -0.388821,0.60498 -0.509766,0.99805 -0.120945,0.38551 -0.181641,0.81675 -0.181641,1.29297 0,0.47622 0.0607,0.91162 0.181641,1.30469 0.120945,0.38551 0.290553,0.7142 0.509766,0.98633 0.226771,0.27212 0.498925,0.48358 0.816406,0.63476 0.325039,0.14362 0.68726,0.21484 1.08789,0.21484 0.40063,0 0.760645,-0.0712 1.078125,-0.21484 0.317481,-0.15118 0.585475,-0.36264 0.804688,-0.63476 0.226772,-0.27213 0.400539,-0.60082 0.521484,-0.98633 0.120945,-0.39307 0.181641,-0.82847 0.181641,-1.30469 0,-0.47622 -0.0607,-0.90746 -0.181641,-1.29297 -0.120945,-0.39307 -0.294712,-0.72592 -0.521484,-0.99805 -0.219213,-0.27212 -0.487207,-0.47942 -0.804688,-0.62304 -0.31748,-0.15118 -0.677495,-0.22657 -1.078125,-0.22657 z m 5.25,1.17969 h 1.054688 v 3.08399 c 0,0.71811 0.113072,1.23109 0.339844,1.54101 0.226771,0.30992 0.607838,0.46485 1.144531,0.46485 0.113386,0 0.230617,-0.002 0.351562,-0.01 0.120945,-0.008 0.23597,-0.0159 0.341797,-0.0234 0.105827,-0.0151 0.200054,-0.0256 0.283203,-0.0332 0.09071,-0.0151 0.153611,-0.0318 0.191407,-0.0469 v -4.97656 h 1.054687 v 5.72461 c -0.24189,0.0605 -0.562261,0.12533 -0.962891,0.19336 -0.39307,0.068 -0.851472,0.10156 -1.373046,0.10156 -0.453544,0 -0.83461,-0.0629 -1.144532,-0.1914 -0.309921,-0.13607 -0.55907,-0.32647 -0.748046,-0.56836 -0.188977,-0.24189 -0.325054,-0.52457 -0.408204,-0.84961 -0.08315,-0.3326 -0.125,-0.69898 -0.125,-1.09961 z" transform="matrix(0.26458333,0,0,0.26458333,-25.15,-103.44)"/>
    </g>
    <g transform="translate(35.31,103.44)" id="g77">
      <path id="path_zgcjnatglz" style="" d="m 122.49414,374.32422 a 5.6692913,5.6692913 0 0 0 -5.66797,5.66992 v 45.35352 a 5.6692913,5.6692913 0 0 0 5.66797,5.66992 h 21.92188 a 5.6692913,5.6692913 0 0 0 5.66992,-5.66992 v -45.35352 a 5.6692913,5.6692913 0 0 0 -5.66992,-5.66992 z m 10.96094,2.64648 a 13.984375,13.984375 0 0 1 0,27.96875 13.984375,13.984375 0 0 1 0,-27.96875 z m -6.5586,36.36133 h 1.09961 v 7.85938 h -1.09961 z m 5.32813,1.83789 c 0.46866,0 0.85805,0.0671 1.16797,0.20313 0.30992,0.1285 0.55491,0.31475 0.73633,0.55664 0.18897,0.23433 0.32284,0.51701 0.39843,0.84961 0.0756,0.3326 0.11328,0.69898 0.11328,1.09961 v 3.3125 h -1.05468 v -3.08399 c 0,-0.36283 -0.0272,-0.67463 -0.0801,-0.93164 -0.0454,-0.25701 -0.1249,-0.46431 -0.23828,-0.62305 -0.11339,-0.15874 -0.26415,-0.27181 -0.45313,-0.33984 -0.18897,-0.0756 -0.42344,-0.11328 -0.70312,-0.11328 -0.11339,0 -0.23062,0.004 -0.35156,0.0117 -0.12095,0.008 -0.23818,0.0181 -0.35157,0.0332 -0.10582,0.008 -0.20421,0.02 -0.29492,0.0352 -0.0831,0.0151 -0.14384,0.0256 -0.18164,0.0332 v 4.97852 h -1.05469 v -5.72657 c 0.24189,-0.0605 0.56422,-0.12532 0.96485,-0.19336 0.40063,-0.068 0.86123,-0.10156 1.38281,-0.10156 z m 3.25391,0.125 h 1.13476 c 0.0907,0.3704 0.19546,0.76615 0.31641,1.18946 0.1285,0.41574 0.26237,0.83229 0.39843,1.24804 0.14363,0.40819 0.28607,0.80394 0.42969,1.18946 0.14362,0.38551 0.2797,0.73084 0.40821,1.0332 0.1285,-0.30236 0.26458,-0.64769 0.4082,-1.0332 0.14362,-0.38552 0.28386,-0.78127 0.41992,-1.18946 0.14362,-0.41575 0.27554,-0.8323 0.39648,-1.24804 0.12851,-0.42331 0.23742,-0.81906 0.32813,-1.18946 h 1.08984 c -0.2948,1.10362 -0.64234,2.16092 -1.04297,3.17383 -0.39307,1.01291 -0.77609,1.9214 -1.14648,2.72266 h -0.95117 c -0.37039,-0.80126 -0.75562,-1.70975 -1.15625,-2.72266 -0.39307,-1.01291 -0.7384,-2.07021 -1.0332,-3.17383 z" transform="matrix(0.26458333,0,0,0.26458333,-35.31,-103.44)"/>
    </g>
  </g>
  <g fill="black" id="throughholes" stroke="none">
    <circle cx="7.62" cy="3" r="1.7" stroke="none" id="circle81"/>
    <circle cx="7.62" cy="125.5" r="1.7" stroke="none" id="circle83"/>
    <circle cx="32.52" cy="3" r="1.7" stroke="none" id="circle85"/>
    <circle cx="32.52" cy="125.5" r="1.7" stroke="none" id="circle87"/>
    <circle cx="6.0999999" cy="14.54" r="4" id="circle89"/>
    <circle cx="14.99" cy="15.81" r="1.5" id="circle93"/>
    <circle cx="20.07" cy="15.81" r="1.5" id="circle97"/>
    <circle cx="25.15" cy="15.81" r="1.5" id="circle101"/>
    <circle cx="30.23" cy="15.81" r="1.5" id="circle105"/>
    <circle cx="7.3699999" cy="29.780001" r="3.4000001" id="circle109"/>
    <circle cx="30.23" cy="29.780001" r="3.9000001" id="circle113"/>
    <circle cx="7.3699999" cy="47.560001" r="3.4000001" id="circle117"/>
    <circle cx="30.23" cy="47.560001" r="3.9000001" id="circle121"/>
    <circle cx="7.3699999" cy="65.339996" r="3.4000001" id="circle125"/>
    <circle cx="30.23" cy="65.339996" r="3.9000001" id="circle129"/>
    <circle cx="7.3699999" cy="83.120003" r="3.4000001" id="circle133"/>
    <circle cx="30.23" cy="83.120003" r="3.9000001" id="circle137"/>
    <circle cx="4.8299999" cy="103.44" r="3.4000001" id="circle141"/>
    <circle cx="14.99" cy="103.44" r="3.4000001" id="circle145"/>
    <circle cx="25.15" cy="103.44" r="3.4000001" id="circle149"/>
    <circle cx="35.310001" cy="103.44" r="3.4000001" id="circle153"/>
  </g>
</svg>