<?xml version="1.0" encoding="UTF-8" standalone="no"?>
<svg
   width="237.98221mm"
   height="133.87917mm"
   viewBox="0 0 237.98221 133.87915"
   version="1.1"
   id="svg8"
   xmlns="http://www.w3.org/2000/svg"
   xmlns:svg="http://www.w3.org/2000/svg"
   xmlns:rdf="http://www.w3.org/1999/02/22-rdf-syntax-ns#"
   xmlns:cc="http://creativecommons.org/ns#"
   xmlns:dc="http://purl.org/dc/elements/1.1/">
  <defs
     id="defs2" />
  <metadata
     id="metadata5">
    <rdf:RDF>
      <cc:Work
         rdf:about="">
        <dc:format>image/svg+xml</dc:format>
        <dc:type
           rdf:resource="http://purl.org/dc/dcmitype/StillImage" />
      </cc:Work>
    </rdf:RDF>
  </metadata>
  <g
     id="layer1"
     transform="translate(33.072918,26.987503)">
    <rect
       width="104.80299%"
       height="119.11696%"
       fill="#ffffff"
       id="rect6"
       x="-33.072918"
       y="-26.987503"
       style="stroke-width:1.11732" />
    <path
       style="fill:none;stroke:#000000;stroke-width:0.565;stroke-linecap:butt;stroke-linejoin:miter;stroke-miterlimit:4;stroke-dasharray:1.695, 1.695;stroke-dashoffset:0;stroke-opacity:1"
       d="M 52.916669,0 V 52.916669"
       id="path927" />
    <path
       style="fill:none;stroke:#000000;stroke-width:0.565;stroke-linecap:butt;stroke-linejoin:miter;stroke-miterlimit:4;stroke-dasharray:1.695, 1.695;stroke-dashoffset:0;stroke-opacity:1"
       d="M 79.375002,52.916669 V 13.229167"
       id="path929" />
    <path
       style="fill:none;stroke:#000000;stroke-width:0.565;stroke-linecap:butt;stroke-linejoin:miter;stroke-miterlimit:4;stroke-dasharray:1.695, 1.695;stroke-dashoffset:0;stroke-opacity:1"
       d="M 145.52083,13.229167 V 52.916669"
       id="path931" />
    <path
       style="fill:none;stroke:#000000;stroke-width:1.765;stroke-linecap:butt;stroke-linejoin:miter;stroke-miterlimit:4;stroke-dasharray:none;stroke-opacity:1"
       d="M 13.229167,52.916668 H 26.458334 L 52.916668,0 79.375002,13.229167 h 66.145838 l 52.91667,39.687501"
       id="path835" />
    <path
       style="fill:none;stroke:#ed2222;stroke-width:2.765;stroke-linecap:butt;stroke-linejoin:miter;stroke-miterlimit:4;stroke-dasharray:none;stroke-opacity:1"
       d="m 79.374999,13.229169 c 6.614587,0 0,18.520833 6.614587,19.843749 -6.614587,1.322918 0,19.843751 -6.614587,19.843753"
       id="path879" />
    <path
       style="fill:none;stroke:#3b75ff;stroke-width:2.765;stroke-linecap:butt;stroke-linejoin:miter;stroke-miterlimit:4;stroke-dasharray:none;stroke-opacity:1"
       d="m 52.916669,-5e-7 c -10e-7,-6.614583 11.906249,1e-6 13.229166,-6.614583 1.322917,6.614584 13.229167,0 13.229167,6.61458299999999"
       id="path854" />
    <path
       id="path854-3"
       d="m 26.458334,52.916668 c -1e-6,6.614583 11.90625,-1e-6 13.229167,6.614583 1.322917,-6.614584 13.229167,0 13.229167,-6.614583"
       style="fill:none;stroke:#f5d400;stroke-width:2.765;stroke-linecap:butt;stroke-linejoin:miter;stroke-miterlimit:4;stroke-dasharray:none;stroke-opacity:1" />
    <path
       style="fill:none;stroke:#5ece1c;stroke-width:2.765;stroke-linecap:butt;stroke-linejoin:miter;stroke-miterlimit:4;stroke-dasharray:none;stroke-opacity:1"
       d="m 145.52083,52.916668 c 1e-5,6.614583 25.13542,0 26.45834,6.614583 1.32292,-6.614583 26.45833,0 26.45833,-6.614583"
       id="path873" />
    <g
       style="font-style:normal;font-variant:normal;font-weight:normal;font-stretch:normal;font-size:12.7px;line-height:1.25;font-family:Ubuntu;-inkscape-font-specification:Ubuntu;fill:#000000;fill-opacity:1;stroke:none;stroke-width:0.264583"
       id="text883"
       aria-label="Attack">
      <path
         id="path862"
         style="font-style:normal;font-variant:normal;font-weight:normal;font-stretch:normal;font-size:12.7px;font-family:Ubuntu;-inkscape-font-specification:Ubuntu;stroke-width:0.264583"
         d="m 28.327954,72.571426 q -0.2159,-0.5715 -0.4064,-1.1176 -0.1905,-0.5588 -0.3937,-1.1303 h -3.9878 l -0.8001,2.2479 h -1.2827 q 0.508,-1.397 0.9525,-2.5781 0.4445,-1.1938 0.8636,-2.2606 0.4318,-1.0668 0.8509,-2.032 0.4191,-0.977899 0.8763,-1.930399 h 1.1303 q 0.4572,0.9525 0.8763,1.930399 0.4191,0.9652 0.8382,2.032 0.4318,1.0668 0.8763,2.2606 0.4445,1.1811 0.9525,2.5781 z m -1.1557,-3.2639 q -0.4064,-1.1049 -0.8128,-2.1336 -0.3937,-1.0414 -0.8255,-1.993899 -0.4445,0.952499 -0.8509,1.993899 -0.3937,1.0287 -0.7874,2.1336 z" />
      <path
         id="path864"
         style="font-style:normal;font-variant:normal;font-weight:normal;font-stretch:normal;font-size:12.7px;font-family:Ubuntu;-inkscape-font-specification:Ubuntu;stroke-width:0.264583"
         d="m 31.885342,65.967426 h 2.5019 v 0.9906 h -2.5019 v 3.048 q 0,0.4953 0.0762,0.8255 0.0762,0.3175 0.2286,0.508 0.1524,0.1778 0.381,0.254 0.2286,0.0762 0.5334,0.0762 0.5334,0 0.8509,-0.1143 0.3302,-0.127 0.4572,-0.1778 l 0.2286,0.9779 q -0.1778,0.0889 -0.6223,0.2159 -0.4445,0.1397 -1.016,0.1397 -0.6731,0 -1.1176,-0.1651 -0.4318,-0.1778 -0.6985,-0.5207 -0.2667,-0.3429 -0.381,-0.8382 -0.1016,-0.508 -0.1016,-1.1684 v -5.892799 l 1.1811,-0.2032 z" />
      <path
         id="path866"
         style="font-style:normal;font-variant:normal;font-weight:normal;font-stretch:normal;font-size:12.7px;font-family:Ubuntu;-inkscape-font-specification:Ubuntu;stroke-width:0.264583"
         d="m 36.995108,65.967426 h 2.5019 v 0.9906 h -2.5019 v 3.048 q 0,0.4953 0.0762,0.8255 0.0762,0.3175 0.2286,0.508 0.1524,0.1778 0.381,0.254 0.2286,0.0762 0.5334,0.0762 0.5334,0 0.8509,-0.1143 0.3302,-0.127 0.4572,-0.1778 l 0.2286,0.9779 q -0.1778,0.0889 -0.6223,0.2159 -0.4445,0.1397 -1.016,0.1397 -0.6731,0 -1.1176,-0.1651 -0.4318,-0.1778 -0.6985,-0.5207 -0.2667,-0.3429 -0.381,-0.8382 -0.1016,-0.508 -0.1016,-1.1684 v -5.892799 l 1.1811,-0.2032 z" />
      <path
         id="path868"
         style="font-style:normal;font-variant:normal;font-weight:normal;font-stretch:normal;font-size:12.7px;font-family:Ubuntu;-inkscape-font-specification:Ubuntu;stroke-width:0.264583"
         d="m 43.235173,71.720526 q 0.419099,0 0.736599,-0.0127 0.3302,-0.0254 0.5461,-0.0762 v -1.9685 q -0.127,-0.0635 -0.4191,-0.1016 -0.2794,-0.0508 -0.6858,-0.0508 -0.266699,0 -0.571499,0.0381 -0.2921,0.0381 -0.5461,0.1651 -0.2413,0.1143 -0.4064,0.3302 -0.1651,0.2032 -0.1651,0.5461 0,0.635 0.4064,0.889 0.4064,0.2413 1.1049,0.2413 z m -0.1016,-5.9182 q 0.711199,0 1.193799,0.1905 0.4953,0.1778 0.7874,0.5207 0.3048,0.3302 0.4318,0.8001 0.127,0.4572 0.127,1.016 v 4.1275 q -0.1524,0.0254 -0.4318,0.0762 -0.2667,0.0381 -0.6096,0.0762 -0.3429,0.0381 -0.7493,0.0635 -0.3937,0.0381 -0.787399,0.0381 -0.5588,0 -1.0287,-0.1143 -0.4699,-0.1143 -0.8128,-0.3556 -0.3429,-0.254 -0.5334,-0.6604 -0.1905,-0.4064 -0.1905,-0.9779 0,-0.5461 0.2159,-0.9398 0.2286,-0.3937 0.6096,-0.635 0.381,-0.2413 0.889,-0.3556 0.508,-0.1143 1.066799,-0.1143 0.1778,0 0.3683,0.0254 0.1905,0.0127 0.3556,0.0508 0.1778,0.0254 0.3048,0.0508 0.127,0.0254 0.1778,0.0381 v -0.3302 q 0,-0.2921 -0.0635,-0.5715 -0.0635,-0.2921 -0.2286,-0.508 -0.1651,-0.2286 -0.4572,-0.3556 -0.2794,-0.1397 -0.736599,-0.1397 -0.5842,0 -1.0287,0.0889 -0.4318,0.0762 -0.6477,0.1651 l -0.1397,-0.9779 q 0.2286,-0.1016 0.762,-0.1905 0.5334,-0.1016 1.1557,-0.1016 z" />
      <path
         id="path870"
         style="font-style:normal;font-variant:normal;font-weight:normal;font-stretch:normal;font-size:12.7px;font-family:Ubuntu;-inkscape-font-specification:Ubuntu;stroke-width:0.264583"
         d="m 50.493025,72.723826 q -0.8001,0 -1.4097,-0.254 -0.5969,-0.254 -1.016,-0.7112 -0.4064,-0.4572 -0.6096,-1.0795 -0.2032,-0.635 -0.2032,-1.397 0,-0.762 0.2159,-1.397 0.2286,-0.635 0.635,-1.0922 0.4064,-0.4699 0.9906,-0.7239 0.5969,-0.2667 1.3208,-0.2667 0.4445,0 0.889,0.0762 0.4445,0.0762 0.8509,0.2413 l -0.2667,1.0033 q -0.2667,-0.127 -0.6223,-0.2032 -0.3429,-0.0762 -0.7366,-0.0762 -0.9906,0 -1.524,0.6223 -0.5207,0.6223 -0.5207,1.8161 0,0.5334 0.1143,0.9779 0.127,0.4445 0.381,0.762 0.2667,0.3175 0.6731,0.4953 0.4064,0.1651 0.9906,0.1651 0.4699,0 0.8509,-0.0889 0.381,-0.0889 0.5969,-0.1905 l 0.1651,0.9906 q -0.1016,0.0635 -0.2921,0.127 -0.1905,0.0508 -0.4318,0.0889 -0.2413,0.0508 -0.5207,0.0762 -0.2667,0.0381 -0.5207,0.0381 z" />
      <path
         id="path872"
         style="font-style:normal;font-variant:normal;font-weight:normal;font-stretch:normal;font-size:12.7px;font-family:Ubuntu;-inkscape-font-specification:Ubuntu;stroke-width:0.264583"
         d="m 55.91394,68.939226 q 0.381,0.2921 0.8001,0.7239 0.4318,0.4318 0.8382,0.9398 0.4191,0.4953 0.7874,1.016 0.3683,0.508 0.6223,0.9525 h -1.3843 q -0.2667,-0.4445 -0.6223,-0.9017 -0.3429,-0.4699 -0.7239,-0.889 -0.381,-0.4318 -0.7747,-0.7874 -0.3937,-0.3556 -0.7493,-0.5969 v 3.175 h -1.1811 v -9.651999 l 1.1811,-0.2032 v 6.019799 q 0.3048,-0.3048 0.6731,-0.6731 0.3683,-0.3683 0.7239,-0.7493 0.3556,-0.381 0.6731,-0.7239 0.3175,-0.3556 0.5461,-0.6223 h 1.3843 q -0.2921,0.3175 -0.635,0.6985 -0.3429,0.381 -0.7112,0.7747 -0.3683,0.381 -0.7493,0.7747 -0.3683,0.381 -0.6985,0.7239 z" />
    </g>
    <g
       style="font-style:normal;font-variant:normal;font-weight:normal;font-stretch:normal;font-size:12.7px;line-height:1.25;font-family:Ubuntu;-inkscape-font-specification:Ubuntu;fill:#000000;fill-opacity:1;stroke:none;stroke-width:0.264583"
       id="text887"
       aria-label="Decay">
      <path
         id="path889"
         style="font-style:normal;font-variant:normal;font-weight:normal;font-stretch:normal;font-size:12.7px;font-family:Ubuntu;-inkscape-font-specification:Ubuntu;stroke-width:0.264583"
         d="m 58.022373,-14.423269 q 0,1.143 -0.3556,1.9939 -0.3556,0.8382 -1.0033,1.397 -0.6477,0.5461 -1.5494,0.8255 -0.9017,0.2667001 -1.9812,0.2667001 -0.5334,0 -1.1811,-0.0508 -0.635,-0.0381 -1.1557,-0.1651001 v -8.5344 q 0.5207,-0.127 1.1557,-0.1651 0.6477,-0.0508 1.1811,-0.0508 1.0795,0 1.9812,0.2794 0.9017,0.2667 1.5494,0.8255 0.6477,0.5461 1.0033,1.397 0.3556,0.8382 0.3556,1.9812 z m -4.7879,3.4036 q 1.7526,0 2.6162,-0.889 0.8636,-0.9017 0.8636,-2.5146 0,-1.6129 -0.8636,-2.5019 -0.8636,-0.9017 -2.6162,-0.9017 -0.5207,0 -0.8128,0.0127 -0.2794,0.0127 -0.3937,0.0254 v 6.731 q 0.1143,0.0127 0.3937,0.0254 0.2921,0.0127 0.8128,0.0127 z" />
      <path
         id="path891"
         style="font-style:normal;font-variant:normal;font-weight:normal;font-stretch:normal;font-size:12.7px;font-family:Ubuntu;-inkscape-font-specification:Ubuntu;stroke-width:0.264583"
         d="m 59.405284,-13.305669 q 0,-0.8763 0.254,-1.524 0.254,-0.6604 0.6731,-1.0922 0.4191,-0.4318 0.9652,-0.6477 0.5461,-0.2159 1.1176,-0.2159 1.3335,0 2.0447,0.8382 0.7112,0.8255 0.7112,2.5273 0,0.0762 0,0.2032 0,0.1143 -0.0127,0.2159 h -4.5212 q 0.0762,1.0287 0.5969,1.5621 0.5207,0.5334 1.6256,0.5334 0.6223,0 1.0414,-0.1016 0.4318,-0.1143 0.6477,-0.2159 l 0.1651,0.9906 q -0.2159,0.1143 -0.762,0.2413001 -0.5334,0.127 -1.2192,0.127 -0.8636,0 -1.4986,-0.2540001 -0.6223,-0.2667 -1.0287,-0.7239 -0.4064,-0.4572 -0.6096,-1.0795 -0.1905,-0.635 -0.1905,-1.3843 z m 4.5339,-0.6477 q 0.0127,-0.8001 -0.4064,-1.3081 -0.4064,-0.5207 -1.1303,-0.5207 -0.4064,0 -0.7239,0.1651 -0.3048,0.1524 -0.5207,0.4064 -0.2159,0.254 -0.3429,0.5842 -0.1143,0.3302 -0.1524,0.6731 z" />
      <path
         id="path893"
         style="font-style:normal;font-variant:normal;font-weight:normal;font-stretch:normal;font-size:12.7px;font-family:Ubuntu;-inkscape-font-specification:Ubuntu;stroke-width:0.264583"
         d="m 69.737925,-9.8639689 q -0.8001,0 -1.4097,-0.2540001 -0.5969,-0.254 -1.016,-0.7112 -0.4064,-0.4572 -0.6096,-1.0795 -0.2032,-0.635 -0.2032,-1.397 0,-0.762 0.2159,-1.397 0.2286,-0.635 0.635,-1.0922 0.4064,-0.4699 0.9906,-0.7239 0.5969,-0.2667 1.3208,-0.2667 0.4445,0 0.889,0.0762 0.4445,0.0762 0.8509,0.2413 l -0.2667,1.0033 q -0.2667,-0.127 -0.6223,-0.2032 -0.3429,-0.0762 -0.7366,-0.0762 -0.9906,0 -1.524,0.6223 -0.5207,0.6223 -0.5207,1.8161 0,0.5334 0.1143,0.9779 0.127,0.4445 0.381,0.762 0.2667,0.3175 0.6731,0.4953 0.4064,0.1651 0.9906,0.1651 0.4699,0 0.8509,-0.0889 0.381,-0.0889 0.5969,-0.1905 l 0.1651,0.9906 q -0.1016,0.0635 -0.2921,0.127 -0.1905,0.0508 -0.4318,0.0889 -0.2413,0.0508 -0.5207,0.0762 -0.2667,0.0381 -0.5207,0.0381 z" />
      <path
         id="path895"
         style="font-style:normal;font-variant:normal;font-weight:normal;font-stretch:normal;font-size:12.7px;font-family:Ubuntu;-inkscape-font-specification:Ubuntu;stroke-width:0.264583"
         d="m 75.006439,-10.867269 q 0.4191,0 0.7366,-0.0127 0.3302,-0.0254 0.5461,-0.0762 v -1.9685 q -0.127,-0.0635 -0.4191,-0.1016 -0.2794,-0.0508 -0.6858,-0.0508 -0.2667,0 -0.5715,0.0381 -0.2921,0.0381 -0.5461,0.1651 -0.2413,0.1143 -0.4064,0.3302 -0.1651,0.2032 -0.1651,0.5461 0,0.635 0.4064,0.889 0.4064,0.2413 1.1049,0.2413 z m -0.1016,-5.9182 q 0.7112,0 1.1938,0.1905 0.4953,0.1778 0.7874,0.5207 0.3048,0.3302 0.4318,0.8001 0.127,0.4572 0.127,1.016 v 4.1275 q -0.1524,0.0254 -0.4318,0.0762 -0.2667,0.0381 -0.6096,0.0762 -0.3429,0.0381 -0.7493,0.0635 -0.3937,0.0381 -0.7874,0.0381 -0.5588,0 -1.0287,-0.1143 -0.4699,-0.1143 -0.8128,-0.3556 -0.3429,-0.254 -0.5334,-0.6604 -0.1905,-0.4064 -0.1905,-0.9779 0,-0.5461 0.2159,-0.9398 0.2286,-0.3937 0.6096,-0.635 0.381,-0.2413 0.889,-0.3556 0.508,-0.1143 1.0668,-0.1143 0.1778,0 0.3683,0.0254 0.1905,0.0127 0.3556,0.0508 0.1778,0.0254 0.3048,0.0508 0.127,0.0254 0.1778,0.0381 v -0.3302 q 0,-0.2921 -0.0635,-0.5715 -0.0635,-0.2921 -0.2286,-0.508 -0.1651,-0.2286 -0.4572,-0.3556 -0.2794,-0.1397 -0.7366,-0.1397 -0.5842,0 -1.0287,0.0889 -0.4318,0.0762 -0.6477,0.1651 l -0.1397,-0.9779 q 0.2286,-0.1016 0.762,-0.1905 0.5334,-0.1016 1.1557,-0.1016 z" />
      <path
         id="path897"
         style="font-style:normal;font-variant:normal;font-weight:normal;font-stretch:normal;font-size:12.7px;font-family:Ubuntu;-inkscape-font-specification:Ubuntu;stroke-width:0.264583"
         d="m 78.420953,-8.7844689 q 0.1397,0.0635 0.3556,0.1143 0.2286,0.0635 0.4445,0.0635 0.6985,0 1.0922,-0.3175 0.3937,-0.3048 0.7112,-1.0033 -0.8001,-1.5240001 -1.4986,-3.2258001 -0.6858,-1.7145 -1.143,-3.4671 h 1.27 q 0.1397,0.5715 0.3302,1.2319 0.2032,0.6604 0.4445,1.3589 0.2413,0.6985 0.5207,1.397 0.2794,0.6985 0.5842,1.3462 0.4826,-1.3335 0.8382,-2.6416 0.3556,-1.3081 0.6731,-2.6924 h 1.2192 q -0.4572,1.8669 -1.016,3.5941 -0.5588,1.7145 -1.2065,3.2131001 -0.254,0.5715 -0.5334,0.9779 -0.2667,0.4191 -0.5969,0.6858 -0.3302,0.2667 -0.7493,0.3937 -0.4064,0.127 -0.9271,0.127 -0.1397,0 -0.2921,-0.0254 -0.1524,-0.0127 -0.3048,-0.0508 -0.1397,-0.0254 -0.2667,-0.0635 -0.1143,-0.0381 -0.1651,-0.0635 z" />
    </g>
    <g
       style="font-style:normal;font-variant:normal;font-weight:normal;font-stretch:normal;font-size:12.7px;line-height:1.25;font-family:Ubuntu;-inkscape-font-specification:Ubuntu;fill:#000000;fill-opacity:1;stroke:none;stroke-width:0.264583"
       id="text887-0"
       aria-label="Sustain">
      <path
         id="path900"
         style="font-style:normal;font-variant:normal;font-weight:normal;font-stretch:normal;font-size:12.7px;font-family:Ubuntu;-inkscape-font-specification:Ubuntu;stroke-width:0.264583"
         d="m 93.284216,35.97638 q 1.9304,0 1.9304,-1.3208 0,-0.4064 -0.1778,-0.6858 -0.1651,-0.2921 -0.4572,-0.4953 -0.2921,-0.2159 -0.6731,-0.3683 -0.3683,-0.1524 -0.7874,-0.3048 -0.4826,-0.1651 -0.9144,-0.3683 -0.4318,-0.2159 -0.7493,-0.4953 -0.3175,-0.2921 -0.508,-0.6858 -0.1778,-0.3937 -0.1778,-0.9525 0,-1.1557 0.7874,-1.8034 0.7874,-0.6477 2.1717,-0.6477 0.8001,0 1.4478,0.1778 0.6604,0.1651 0.9652,0.3683 l -0.3937,1.0033 q -0.2667,-0.1651 -0.8001,-0.3175 -0.5207,-0.1651 -1.2192,-0.1651 -0.3556,0 -0.6604,0.0762 -0.3048,0.0762 -0.5334,0.2286 -0.2286,0.1524 -0.3683,0.3937 -0.127,0.2286 -0.127,0.5461 0,0.3556 0.1397,0.5969 0.1397,0.2413 0.3937,0.4318 0.254,0.1778 0.5842,0.3302 0.3429,0.1524 0.7493,0.3048 0.5715,0.2286 1.0414,0.4572 0.4826,0.2286 0.8255,0.5461 0.3556,0.3175 0.5461,0.762 0.1905,0.4318 0.1905,1.0541 0,1.1557 -0.8509,1.778 -0.8382,0.6223 -2.3749,0.6223 -0.5207,0 -0.9652,-0.0762 -0.4318,-0.0635 -0.7747,-0.1524 -0.3429,-0.1016 -0.5969,-0.2032 -0.2413,-0.1143 -0.381,-0.1905 l 0.3683,-1.016 q 0.2921,0.1651 0.889,0.3683 0.5969,0.2032 1.4605,0.2032 z" />
      <path
         id="path902"
         style="font-style:normal;font-variant:normal;font-weight:normal;font-stretch:normal;font-size:12.7px;font-family:Ubuntu;-inkscape-font-specification:Ubuntu;stroke-width:0.264583"
         d="m 103.16799,36.66218 q -0.4064,0.1016 -1.0795,0.2159 -0.6604,0.1143 -1.5367,0.1143 -0.761999,0 -1.282699,-0.2159 -0.5207,-0.2286 -0.8382,-0.635 -0.3175,-0.4064 -0.4572,-0.9525 -0.1397,-0.5588 -0.1397,-1.2319 v -3.7084 h 1.1811 v 3.4544 q 0,1.2065 0.381,1.7272 0.381,0.5207 1.282699,0.5207 0.1905,0 0.3937,-0.0127 0.2032,-0.0127 0.381,-0.0254 0.1778,-0.0254 0.3175,-0.0381 0.1524,-0.0254 0.2159,-0.0508 v -5.5753 h 1.1811 z" />
      <path
         id="path904"
         style="font-style:normal;font-variant:normal;font-weight:normal;font-stretch:normal;font-size:12.7px;font-family:Ubuntu;-inkscape-font-specification:Ubuntu;stroke-width:0.264583"
         d="m 106.73947,36.00178 q 0.7239,0 1.0668,-0.1905 0.3556,-0.1905 0.3556,-0.6096 0,-0.4318 -0.3429,-0.6858 -0.3429,-0.254 -1.1303,-0.5715 -0.381,-0.1524 -0.7366,-0.3048 -0.3429,-0.1651 -0.5969,-0.381 -0.254,-0.2159 -0.4064,-0.5207 -0.1524,-0.3048 -0.1524,-0.7493 0,-0.8763 0.6477,-1.3843 0.6477,-0.5207 1.7653,-0.5207 0.2794,0 0.5588,0.0381 0.2794,0.0254 0.5207,0.0762 0.2413,0.0381 0.4191,0.0889 0.1905,0.0508 0.2921,0.0889 l -0.2159,1.016 q -0.1905,-0.1016 -0.5969,-0.2032 -0.4064,-0.1143 -0.9779,-0.1143 -0.4953,0 -0.8636,0.2032 -0.3683,0.1905 -0.3683,0.6096 0,0.2159 0.0762,0.381 0.0889,0.1651 0.254,0.3048 0.1778,0.127 0.4318,0.2413 0.254,0.1143 0.6096,0.2413 0.4699,0.1778 0.8382,0.3556 0.3683,0.1651 0.6223,0.3937 0.2667,0.2286 0.4064,0.5588 0.1397,0.3175 0.1397,0.7874 0,0.9144 -0.6858,1.3843 -0.6731,0.4699 -1.9304,0.4699 -0.8763,0 -1.3716,-0.1524 -0.4953,-0.1397 -0.6731,-0.2159 l 0.2159,-1.016 q 0.2032,0.0762 0.6477,0.2286 0.4445,0.1524 1.1811,0.1524 z" />
      <path
         id="path906"
         style="font-style:normal;font-variant:normal;font-weight:normal;font-stretch:normal;font-size:12.7px;font-family:Ubuntu;-inkscape-font-specification:Ubuntu;stroke-width:0.264583"
         d="m 111.96314,30.24868 h 2.5019 v 0.9906 h -2.5019 v 3.048 q 0,0.4953 0.0762,0.8255 0.0762,0.3175 0.2286,0.508 0.1524,0.1778 0.381,0.254 0.2286,0.0762 0.5334,0.0762 0.5334,0 0.8509,-0.1143 0.3302,-0.127 0.4572,-0.1778 l 0.2286,0.9779 q -0.1778,0.0889 -0.6223,0.2159 -0.4445,0.1397 -1.016,0.1397 -0.6731,0 -1.1176,-0.1651 -0.4318,-0.1778 -0.6985,-0.5207 -0.2667,-0.3429 -0.381,-0.8382 -0.1016,-0.508 -0.1016,-1.1684 v -5.8928 l 1.1811,-0.2032 z" />
      <path
         id="path908"
         style="font-style:normal;font-variant:normal;font-weight:normal;font-stretch:normal;font-size:12.7px;font-family:Ubuntu;-inkscape-font-specification:Ubuntu;stroke-width:0.264583"
         d="m 118.2032,36.00178 q 0.4191,0 0.7366,-0.0127 0.3302,-0.0254 0.5461,-0.0762 v -1.9685 q -0.127,-0.0635 -0.4191,-0.1016 -0.2794,-0.0508 -0.6858,-0.0508 -0.2667,0 -0.5715,0.0381 -0.2921,0.0381 -0.5461,0.1651 -0.2413,0.1143 -0.4064,0.3302 -0.1651,0.2032 -0.1651,0.5461 0,0.635 0.4064,0.889 0.4064,0.2413 1.1049,0.2413 z m -0.1016,-5.9182 q 0.7112,0 1.1938,0.1905 0.4953,0.1778 0.7874,0.5207 0.3048,0.3302 0.4318,0.8001 0.127,0.4572 0.127,1.016 v 4.1275 q -0.1524,0.0254 -0.4318,0.0762 -0.2667,0.0381 -0.6096,0.0762 -0.3429,0.0381 -0.7493,0.0635 -0.3937,0.0381 -0.7874,0.0381 -0.5588,0 -1.0287,-0.1143 -0.4699,-0.1143 -0.8128,-0.3556 -0.3429,-0.254 -0.5334,-0.6604 -0.1905,-0.4064 -0.1905,-0.9779 0,-0.5461 0.2159,-0.9398 0.2286,-0.3937 0.6096,-0.635 0.381,-0.2413 0.889,-0.3556 0.508,-0.1143 1.0668,-0.1143 0.1778,0 0.3683,0.0254 0.1905,0.0127 0.3556,0.0508 0.1778,0.0254 0.3048,0.0508 0.127,0.0254 0.1778,0.0381 v -0.3302 q 0,-0.2921 -0.0635,-0.5715 -0.0635,-0.2921 -0.2286,-0.508 -0.1651,-0.2286 -0.4572,-0.3556 -0.2794,-0.1397 -0.7366,-0.1397 -0.5842,0 -1.0287,0.0889 -0.4318,0.0762 -0.6477,0.1651 l -0.1397,-0.9779 q 0.2286,-0.1016 0.762,-0.1905 0.5334,-0.1016 1.1557,-0.1016 z" />
      <path
         id="path910"
         style="font-style:normal;font-variant:normal;font-weight:normal;font-stretch:normal;font-size:12.7px;font-family:Ubuntu;-inkscape-font-specification:Ubuntu;stroke-width:0.264583"
         d="m 123.77195,36.85268 h -1.1811 v -6.604 h 1.1811 z m -0.5969,-7.7978 q -0.3175,0 -0.5461,-0.2032 -0.2159,-0.2159 -0.2159,-0.5715 0,-0.3556 0.2159,-0.5588 0.2286,-0.2159 0.5461,-0.2159 0.3175,0 0.5334,0.2159 0.2286,0.2032 0.2286,0.5588 0,0.3556 -0.2286,0.5715 -0.2159,0.2032 -0.5334,0.2032 z" />
      <path
         id="path912"
         style="font-style:normal;font-variant:normal;font-weight:normal;font-stretch:normal;font-size:12.7px;font-family:Ubuntu;-inkscape-font-specification:Ubuntu;stroke-width:0.264583"
         d="m 125.81547,30.43918 q 0.4064,-0.1016 1.0795,-0.2159 0.6731,-0.1143 1.5494,-0.1143 0.7874,0 1.3081,0.2286 0.5207,0.2159 0.8255,0.6223 0.3175,0.3937 0.4445,0.9525 0.127,0.5588 0.127,1.2319 v 3.7084 h -1.1811 v -3.4544 q 0,-0.6096 -0.0889,-1.0414 -0.0762,-0.4318 -0.2667,-0.6985 -0.1905,-0.2667 -0.508,-0.381 -0.3175,-0.127 -0.7874,-0.127 -0.1905,0 -0.3937,0.0127 -0.2032,0.0127 -0.3937,0.0381 -0.1778,0.0127 -0.3302,0.0381 -0.1397,0.0254 -0.2032,0.0381 v 5.5753 h -1.1811 z" />
    </g>
    <g
       style="font-style:normal;font-variant:normal;font-weight:normal;font-stretch:normal;font-size:12.7px;line-height:1.25;font-family:Ubuntu;-inkscape-font-specification:Ubuntu;fill:#000000;fill-opacity:1;stroke:none;stroke-width:0.264583"
       id="text887-0-0"
       aria-label="Release">
      <path
         id="path915"
         style="font-style:normal;font-variant:normal;font-weight:normal;font-stretch:normal;font-size:12.7px;font-family:Ubuntu;-inkscape-font-specification:Ubuntu;stroke-width:0.264583"
         d="m 155.64303,69.077414 q 0.2032,0.254 0.508,0.6731 0.3175,0.4064 0.6477,0.9144 0.3302,0.4953 0.6477,1.0414 0.3302,0.5461 0.5588,1.0541 h -1.3462 q -0.254,-0.4826 -0.5588,-0.9779 -0.2921,-0.4953 -0.5969,-0.9398 -0.3048,-0.4572 -0.6096,-0.8509 -0.2921,-0.3937 -0.5334,-0.6858 -0.1651,0.0127 -0.3429,0.0127 -0.1651,0 -0.3429,0 h -1.1049 v 3.4417 h -1.2319 v -8.6741 q 0.5207,-0.127 1.1557,-0.1651 0.6477,-0.0508 1.1811,-0.0508 1.8542,0 2.8194,0.6985 0.9779,0.6985 0.9779,2.0828 0,0.8763 -0.4699,1.4986 -0.4572,0.6223 -1.3589,0.9271 z m -1.8669,-4.1275 q -0.7874,0 -1.2065,0.0381 v 3.3147 h 0.8763 q 0.635,0 1.143,-0.0635 0.508,-0.0635 0.8509,-0.2413 0.3556,-0.1778 0.5461,-0.4953 0.1905,-0.3302 0.1905,-0.8636 0,-0.4953 -0.1905,-0.8255 -0.1905,-0.3302 -0.5207,-0.5207 -0.3175,-0.1905 -0.762,-0.2667 -0.4318,-0.0762 -0.9271,-0.0762 z" />
      <path
         id="path917"
         style="font-style:normal;font-variant:normal;font-weight:normal;font-stretch:normal;font-size:12.7px;font-family:Ubuntu;-inkscape-font-specification:Ubuntu;stroke-width:0.264583"
         d="m 158.88034,69.471114 q 0,-0.8763 0.254,-1.524 0.254,-0.6604 0.6731,-1.0922 0.4191,-0.4318 0.9652,-0.6477 0.5461,-0.2159 1.1176,-0.2159 1.3335,0 2.0447,0.8382 0.7112,0.8255 0.7112,2.5273 0,0.0762 0,0.2032 0,0.1143 -0.0127,0.2159 h -4.5212 q 0.0762,1.0287 0.5969,1.5621 0.5207,0.5334 1.6256,0.5334 0.6223,0 1.0414,-0.1016 0.4318,-0.1143 0.6477,-0.2159 l 0.1651,0.9906 q -0.2159,0.1143 -0.762,0.2413 -0.5334,0.127 -1.2192,0.127 -0.8636,0 -1.4986,-0.254 -0.6223,-0.2667 -1.0287,-0.7239 -0.4064,-0.4572 -0.6096,-1.0795 -0.1905,-0.635 -0.1905,-1.3843 z m 4.5339,-0.6477 q 0.0127,-0.8001 -0.4064,-1.3081 -0.4064,-0.5207 -1.1303,-0.5207 -0.4064,0 -0.7239,0.1651 -0.3048,0.1524 -0.5207,0.4064 -0.2159,0.254 -0.3429,0.5842 -0.1143,0.3302 -0.1524,0.6731 z" />
      <path
         id="path919"
         style="font-style:normal;font-variant:normal;font-weight:normal;font-stretch:normal;font-size:12.7px;font-family:Ubuntu;-inkscape-font-specification:Ubuntu;stroke-width:0.264583"
         d="m 168.32398,72.887414 q -1.0922,-0.0254 -1.5494,-0.4699 -0.4572,-0.4445 -0.4572,-1.3843 v -7.9248 l 1.1811,-0.2032 v 7.9375 q 0,0.2921 0.0508,0.4826 0.0508,0.1905 0.1651,0.3048 0.1143,0.1143 0.3048,0.1778 0.1905,0.0508 0.4699,0.0889 z" />
      <path
         id="path921"
         style="font-style:normal;font-variant:normal;font-weight:normal;font-stretch:normal;font-size:12.7px;font-family:Ubuntu;-inkscape-font-specification:Ubuntu;stroke-width:0.264583"
         d="m 169.44713,69.471114 q 0,-0.8763 0.254,-1.524 0.254,-0.6604 0.6731,-1.0922 0.4191,-0.4318 0.9652,-0.6477 0.5461,-0.2159 1.1176,-0.2159 1.3335,0 2.0447,0.8382 0.7112,0.8255 0.7112,2.5273 0,0.0762 0,0.2032 0,0.1143 -0.0127,0.2159 h -4.5212 q 0.0762,1.0287 0.5969,1.5621 0.5207,0.5334 1.6256,0.5334 0.6223,0 1.0414,-0.1016 0.4318,-0.1143 0.6477,-0.2159 l 0.1651,0.9906 q -0.2159,0.1143 -0.762,0.2413 -0.5334,0.127 -1.2192,0.127 -0.8636,0 -1.4986,-0.254 -0.6223,-0.2667 -1.0287,-0.7239 -0.4064,-0.4572 -0.6096,-1.0795 -0.1905,-0.635 -0.1905,-1.3843 z m 4.5339,-0.6477 q 0.0127,-0.8001 -0.4064,-1.3081 -0.4064,-0.5207 -1.1303,-0.5207 -0.4064,0 -0.7239,0.1651 -0.3048,0.1524 -0.5207,0.4064 -0.2159,0.254 -0.3429,0.5842 -0.1143,0.3302 -0.1524,0.6731 z" />
      <path
         id="path923"
         style="font-style:normal;font-variant:normal;font-weight:normal;font-stretch:normal;font-size:12.7px;font-family:Ubuntu;-inkscape-font-specification:Ubuntu;stroke-width:0.264583"
         d="m 179.14478,71.909514 q 0.4191,0 0.7366,-0.0127 0.3302,-0.0254 0.5461,-0.0762 v -1.9685 q -0.127,-0.0635 -0.4191,-0.1016 -0.2794,-0.0508 -0.6858,-0.0508 -0.2667,0 -0.5715,0.0381 -0.2921,0.0381 -0.5461,0.1651 -0.2413,0.1143 -0.4064,0.3302 -0.1651,0.2032 -0.1651,0.5461 0,0.635 0.4064,0.889 0.4064,0.2413 1.1049,0.2413 z m -0.1016,-5.9182 q 0.7112,0 1.1938,0.1905 0.4953,0.1778 0.7874,0.5207 0.3048,0.3302 0.4318,0.8001 0.127,0.4572 0.127,1.016 v 4.1275 q -0.1524,0.0254 -0.4318,0.0762 -0.2667,0.0381 -0.6096,0.0762 -0.3429,0.0381 -0.7493,0.0635 -0.3937,0.0381 -0.7874,0.0381 -0.5588,0 -1.0287,-0.1143 -0.4699,-0.1143 -0.8128,-0.3556 -0.3429,-0.254 -0.5334,-0.6604 -0.1905,-0.4064 -0.1905,-0.9779 0,-0.5461 0.2159,-0.9398 0.2286,-0.3937 0.6096,-0.635 0.381,-0.2413 0.889,-0.3556 0.508,-0.1143 1.0668,-0.1143 0.1778,0 0.3683,0.0254 0.1905,0.0127 0.3556,0.0508 0.1778,0.0254 0.3048,0.0508 0.127,0.0254 0.1778,0.0381 v -0.3302 q 0,-0.2921 -0.0635,-0.5715 -0.0635,-0.2921 -0.2286,-0.508 -0.1651,-0.2286 -0.4572,-0.3556 -0.2794,-0.1397 -0.7366,-0.1397 -0.5842,0 -1.0287,0.0889 -0.4318,0.0762 -0.6477,0.1651 l -0.1397,-0.9779 q 0.2286,-0.1016 0.762,-0.1905 0.5334,-0.1016 1.1557,-0.1016 z" />
      <path
         id="path926"
         style="font-style:normal;font-variant:normal;font-weight:normal;font-stretch:normal;font-size:12.7px;font-family:Ubuntu;-inkscape-font-specification:Ubuntu;stroke-width:0.264583"
         d="m 185.06913,71.909514 q 0.7239,0 1.0668,-0.1905 0.3556,-0.1905 0.3556,-0.6096 0,-0.4318 -0.3429,-0.6858 -0.3429,-0.254 -1.1303,-0.5715 -0.381,-0.1524 -0.7366,-0.3048 -0.3429,-0.1651 -0.5969,-0.381 -0.254,-0.2159 -0.4064,-0.5207 -0.1524,-0.3048 -0.1524,-0.7493 0,-0.8763 0.6477,-1.3843 0.6477,-0.5207 1.7653,-0.5207 0.2794,0 0.5588,0.0381 0.2794,0.0254 0.5207,0.0762 0.2413,0.0381 0.4191,0.0889 0.1905,0.0508 0.2921,0.0889 l -0.2159,1.016 q -0.1905,-0.1016 -0.5969,-0.2032 -0.4064,-0.1143 -0.9779,-0.1143 -0.4953,0 -0.8636,0.2032 -0.3683,0.1905 -0.3683,0.6096 0,0.2159 0.0762,0.381 0.0889,0.1651 0.254,0.3048 0.1778,0.127 0.4318,0.2413 0.254,0.1143 0.6096,0.2413 0.4699,0.1778 0.8382,0.3556 0.3683,0.1651 0.6223,0.3937 0.2667,0.2286 0.4064,0.5588 0.1397,0.3175 0.1397,0.7874 0,0.9144 -0.6858,1.3843 -0.6731,0.4699 -1.9304,0.4699 -0.8763,0 -1.3716,-0.1524 -0.4953,-0.1397 -0.6731,-0.2159 l 0.2159,-1.016 q 0.2032,0.0762 0.6477,0.2286 0.4445,0.1524 1.1811,0.1524 z" />
      <path
         id="path928"
         style="font-style:normal;font-variant:normal;font-weight:normal;font-stretch:normal;font-size:12.7px;font-family:Ubuntu;-inkscape-font-specification:Ubuntu;stroke-width:0.264583"
         d="m 188.81959,69.471114 q 0,-0.8763 0.254,-1.524 0.254,-0.6604 0.6731,-1.0922 0.4191,-0.4318 0.9652,-0.6477 0.5461,-0.2159 1.1176,-0.2159 1.3335,0 2.0447,0.8382 0.7112,0.8255 0.7112,2.5273 0,0.0762 0,0.2032 0,0.1143 -0.0127,0.2159 h -4.5212 q 0.0762,1.0287 0.5969,1.5621 0.5207,0.5334 1.6256,0.5334 0.6223,0 1.0414,-0.1016 0.4318,-0.1143 0.6477,-0.2159 l 0.1651,0.9906 q -0.2159,0.1143 -0.762,0.2413 -0.5334,0.127 -1.2192,0.127 -0.8636,0 -1.4986,-0.254 -0.6223,-0.2667 -1.0287,-0.7239 -0.4064,-0.4572 -0.6096,-1.0795 -0.1905,-0.635 -0.1905,-1.3843 z m 4.5339,-0.6477 q 0.0127,-0.8001 -0.4064,-1.3081 -0.4064,-0.5207 -1.1303,-0.5207 -0.4064,0 -0.7239,0.1651 -0.3048,0.1524 -0.5207,0.4064 -0.2159,0.254 -0.3429,0.5842 -0.1143,0.3302 -0.1524,0.6731 z" />
    </g>
    <path
       style="fill:none;stroke:#ed2222;stroke-width:1.765;stroke-linecap:butt;stroke-linejoin:miter;stroke-miterlimit:4;stroke-dasharray:none;stroke-opacity:1"
       d="M 13.229167,92.604168 H 26.458333 V 79.375002 H 145.52083 v 13.229166 h 52.91667"
       id="path925" />
    <g
       style="font-style:normal;font-variant:normal;font-weight:normal;font-stretch:normal;font-size:12.7px;line-height:1.25;font-family:Ubuntu;-inkscape-font-specification:Ubuntu;fill:#000000;fill-opacity:1;stroke:none;stroke-width:0.264583"
       id="text883-7"
       aria-label="Gate">
      <path
         id="path852"
         style="font-style:normal;font-variant:normal;font-weight:normal;font-stretch:normal;font-size:12.7px;font-family:Ubuntu;-inkscape-font-specification:Ubuntu;stroke-width:0.264583"
         d="m -13.673977,88.15163 h 1.2319 v 4.1148 q -0.1524,0.0508 -0.4445,0.1143 -0.2794,0.0635 -0.6604,0.127 -0.3683,0.0635 -0.8128,0.1016 -0.4445,0.0508 -0.9017,0.0508 -0.9271,0 -1.6891,-0.3048 -0.762,-0.3048 -1.3081,-0.889 -0.5461,-0.5842 -0.8509,-1.4351 -0.2921,-0.8509 -0.2921,-1.9558 0,-1.1049 0.3302,-1.9558 0.3429,-0.8636 0.9144,-1.4478 0.5715,-0.5842 1.3335,-0.889 0.7747,-0.3048 1.651,-0.3048 0.5969,0 1.0541,0.0762 0.4699,0.0762 0.8001,0.1778 0.3302,0.1016 0.5334,0.2032 0.2159,0.1016 0.2921,0.1524 l -0.3937,1.0287 q -0.3683,-0.2413 -0.9779,-0.3937 -0.6096,-0.1651 -1.2446,-0.1651 -0.6731,0 -1.2319,0.2413 -0.5461,0.2413 -0.9398,0.6985 -0.381,0.4572 -0.5969,1.1176 -0.2159,0.6477 -0.2159,1.4605 0,0.7874 0.1778,1.4351 0.1905,0.6477 0.5588,1.1176 0.381,0.4572 0.9271,0.7112 0.5588,0.254 1.3081,0.254 0.5334,0 0.9017,-0.0508 0.381,-0.0635 0.5461,-0.1143 z" />
      <path
         id="path855"
         style="font-style:normal;font-variant:normal;font-weight:normal;font-stretch:normal;font-size:12.7px;font-family:Ubuntu;-inkscape-font-specification:Ubuntu;stroke-width:0.264583"
         d="m -8.354265,91.63143 q 0.4191,0 0.7366,-0.0127 0.3302,-0.0254 0.5461,-0.0762 v -1.9685 q -0.127,-0.0635 -0.4191,-0.1016 -0.2794,-0.0508 -0.6858,-0.0508 -0.2667,0 -0.5715,0.0381 -0.2921,0.0381 -0.5461,0.1651 -0.2413,0.1143 -0.4064,0.3302 -0.1651,0.2032 -0.1651,0.5461 0,0.635 0.4064,0.889 0.4064,0.2413 1.1049,0.2413 z m -0.1016,-5.9182 q 0.7112,0 1.1938,0.1905 0.4953,0.1778 0.7874,0.5207 0.3048,0.3302 0.4318,0.8001 0.127,0.4572 0.127,1.016 v 4.1275 q -0.1524,0.0254 -0.4318,0.0762 -0.2667,0.0381 -0.6096,0.0762 -0.3429,0.0381 -0.7493,0.0635 -0.3937,0.0381 -0.7874,0.0381 -0.5588,0 -1.0287,-0.1143 -0.4699,-0.1143 -0.8128,-0.3556 -0.3429,-0.254 -0.5334,-0.6604 -0.1905,-0.4064 -0.1905,-0.9779 0,-0.5461 0.2159,-0.9398 0.2286,-0.3937 0.6096,-0.635 0.381,-0.2413 0.889,-0.3556 0.508,-0.1143 1.0668,-0.1143 0.1778,0 0.3683,0.0254 0.1905,0.0127 0.3556,0.0508 0.1778,0.0254 0.3048,0.0508 0.127,0.0254 0.1778,0.0381 v -0.3302 q 0,-0.2921 -0.0635,-0.5715 -0.0635,-0.2921 -0.2286,-0.508 -0.1651,-0.2286 -0.4572,-0.3556 -0.2794,-0.1397 -0.7366,-0.1397 -0.5842,0 -1.0287,0.0889 -0.4318,0.0762 -0.6477,0.1651 l -0.1397,-0.9779 q 0.2286,-0.1016 0.762,-0.1905 0.5334,-0.1016 1.1557,-0.1016 z" />
      <path
         id="path857"
         style="font-style:normal;font-variant:normal;font-weight:normal;font-stretch:normal;font-size:12.7px;font-family:Ubuntu;-inkscape-font-specification:Ubuntu;stroke-width:0.264583"
         d="m -2.8617136,85.87833 h 2.50189997 v 0.9906 H -2.8617136 v 3.048 q 0,0.4953 0.0762,0.8255 0.0762,0.3175 0.2286,0.508 0.1524,0.1778 0.381,0.254 0.2286,0.0762 0.5334,0.0762 0.5334,0 0.85089997,-0.1143 0.3302,-0.127 0.4572,-0.1778 l 0.22859999,0.9779 q -0.17779999,0.0889 -0.62229999,0.2159 -0.44449997,0.1397 -1.01599997,0.1397 -0.6731,0 -1.1176,-0.1651 -0.4318,-0.1778 -0.6985,-0.5207 -0.2667,-0.3429 -0.381,-0.8382 -0.1016,-0.508 -0.1016,-1.1684 v -5.8928 l 1.1811,-0.2032 z" />
      <path
         id="path859"
         style="font-style:normal;font-variant:normal;font-weight:normal;font-stretch:normal;font-size:12.7px;font-family:Ubuntu;-inkscape-font-specification:Ubuntu;stroke-width:0.264583"
         d="m 0.65082804,89.19303 q 0,-0.8763 0.254,-1.524 0.25399996,-0.6604 0.67309996,-1.0922 0.4191,-0.4318 0.9652,-0.6477 0.5461,-0.2159 1.1176,-0.2159 1.3335,0 2.0447,0.8382 0.7112,0.8255 0.7112,2.5273 0,0.0762 0,0.2032 0,0.1143 -0.0127,0.2159 h -4.5212 q 0.0762,1.0287 0.5969,1.5621 0.5207,0.5334 1.6256,0.5334 0.6223,0 1.0414,-0.1016 0.4318,-0.1143 0.6477,-0.2159 l 0.1651,0.9906 q -0.2159,0.1143 -0.762,0.2413 -0.5334,0.127 -1.2192,0.127 -0.8636,0 -1.4986,-0.254 -0.6223,-0.2667 -1.0287,-0.7239 -0.4064,-0.4572 -0.60959996,-1.0795 -0.1905,-0.635 -0.1905,-1.3843 z M 5.184728,88.54533 q 0.0127,-0.8001 -0.4064,-1.3081 -0.4064,-0.5207 -1.1303,-0.5207 -0.4064,0 -0.7239,0.1651 -0.3048,0.1524 -0.5207,0.4064 -0.2159,0.254 -0.3429,0.5842 -0.1143,0.3302 -0.1524,0.6731 z" />
    </g>
    <g
       style="font-style:normal;font-variant:normal;font-weight:normal;font-stretch:normal;font-size:12.7px;line-height:1.25;font-family:Ubuntu;-inkscape-font-specification:Ubuntu;fill:#000000;fill-opacity:1;stroke:none;stroke-width:0.264583"
       id="text883-7-6"
       aria-label="Signal">
      <path
         id="path875"
         style="font-style:normal;font-variant:normal;font-weight:normal;font-stretch:normal;font-size:12.7px;font-family:Ubuntu;-inkscape-font-specification:Ubuntu;stroke-width:0.264583"
         d="m -24.537973,51.821244 q 1.9304,0 1.9304,-1.3208 0,-0.4064 -0.1778,-0.6858 -0.1651,-0.2921 -0.4572,-0.4953 -0.2921,-0.2159 -0.6731,-0.3683 -0.3683,-0.1524 -0.7874,-0.3048 -0.4826,-0.1651 -0.9144,-0.3683 -0.4318,-0.2159 -0.7493,-0.4953 -0.3175,-0.2921 -0.508,-0.6858 -0.1778,-0.3937 -0.1778,-0.9525 0,-1.1557 0.7874,-1.8034 0.7874,-0.6477 2.1717,-0.6477 0.8001,0 1.4478,0.1778 0.6604,0.1651 0.9652,0.3683 l -0.3937,1.0033 q -0.2667,-0.1651 -0.8001,-0.3175 -0.5207,-0.1651 -1.2192,-0.1651 -0.3556,0 -0.6604,0.0762 -0.3048,0.0762 -0.5334,0.2286 -0.2286,0.1524 -0.3683,0.3937 -0.127,0.2286 -0.127,0.5461 0,0.3556 0.1397,0.5969 0.1397,0.2413 0.3937,0.4318 0.254,0.1778 0.5842,0.3302 0.3429,0.1524 0.7493,0.3048 0.5715,0.2286 1.0414,0.4572 0.4826,0.2286 0.8255,0.5461 0.3556,0.3175 0.5461,0.762 0.1905,0.4318 0.1905,1.0541 0,1.1557 -0.8509,1.778 -0.8382,0.6223 -2.3749,0.6223 -0.5207,0 -0.9652,-0.0762 -0.4318,-0.0635 -0.7747,-0.1524 -0.3429,-0.1016 -0.5969,-0.2032 -0.2413,-0.1143 -0.381,-0.1905 l 0.3683,-1.016 q 0.2921,0.1651 0.889,0.3683 0.5969,0.2032 1.4605,0.2032 z" />
      <path
         id="path877"
         style="font-style:normal;font-variant:normal;font-weight:normal;font-stretch:normal;font-size:12.7px;font-family:Ubuntu;-inkscape-font-specification:Ubuntu;stroke-width:0.264583"
         d="m -18.730899,52.697544 h -1.1811 v -6.604 h 1.1811 z m -0.5969,-7.7978 q -0.3175,0 -0.5461,-0.2032 -0.2159,-0.2159 -0.2159,-0.5715 0,-0.3556 0.2159,-0.5588 0.2286,-0.2159 0.5461,-0.2159 0.3175,0 0.5334,0.2159 0.2286,0.2032 0.2286,0.5588 0,0.3556 -0.2286,0.5715 -0.2159,0.2032 -0.5334,0.2032 z" />
      <path
         id="path880"
         style="font-style:normal;font-variant:normal;font-weight:normal;font-stretch:normal;font-size:12.7px;font-family:Ubuntu;-inkscape-font-specification:Ubuntu;stroke-width:0.264583"
         d="m -12.547189,52.037144 q -0.1524,0.1016 -0.5969,0.2667 -0.4318,0.1524 -1.016,0.1524 -0.5969,0 -1.1303,-0.1905 -0.5207,-0.1905 -0.9144,-0.5842 -0.3937,-0.4064 -0.6223,-1.0033 -0.2286,-0.5969 -0.2286,-1.4224 0,-0.7239 0.2159,-1.3208 0.2159,-0.6096 0.6223,-1.0414 0.4191,-0.4445 1.016,-0.6858 0.5969,-0.254 1.3462,-0.254 0.8255,0 1.4351,0.127 0.6223,0.1143 1.0414,0.2159 v 5.8928 q 0,1.524 -0.7874,2.2098 -0.7874,0.6858 -2.3876,0.6858 -0.6223,0 -1.1811,-0.1016 -0.5461,-0.1016 -0.9525,-0.2413 l 0.2159,-1.0287 q 0.3556,0.1397 0.8636,0.2413 0.5207,0.1143 1.0795,0.1143 1.0541,0 1.5113,-0.4191 0.4699,-0.4191 0.4699,-1.3335 z m -0.0127,-4.9022 q -0.1778,-0.0508 -0.4826,-0.0889 -0.2921,-0.0508 -0.8001,-0.0508 -0.9525,0 -1.4732,0.6223 -0.508,0.6223 -0.508,1.651 0,0.5715 0.1397,0.9779 0.1524,0.4064 0.3937,0.6731 0.254,0.2667 0.5715,0.3937 0.3302,0.127 0.6731,0.127 0.4699,0 0.8636,-0.127 0.3937,-0.1397 0.6223,-0.3175 z" />
      <path
         id="path882"
         style="font-style:normal;font-variant:normal;font-weight:normal;font-stretch:normal;font-size:12.7px;font-family:Ubuntu;-inkscape-font-specification:Ubuntu;stroke-width:0.264583"
         d="m -9.3452023,46.284044 q 0.4064,-0.1016 1.0795,-0.2159 0.6731,-0.1143 1.5494,-0.1143 0.7874,0 1.3081,0.2286 0.5207,0.2159 0.8255,0.6223 0.3175,0.3937 0.4445,0.9525 0.127,0.5588 0.127,1.2319 v 3.7084 h -1.1811 v -3.4544 q 0,-0.6096 -0.0889,-1.0414 -0.0762,-0.4318 -0.2667,-0.6985 -0.1905,-0.2667 -0.508,-0.381 -0.3175,-0.127 -0.7874,-0.127 -0.1905,0 -0.3937,0.0127 -0.2032,0.0127 -0.3937,0.0381 -0.1778,0.0127 -0.3302,0.0381 -0.1397,0.0254 -0.2032,0.0381 v 5.5753 h -1.1811 z" />
      <path
         id="path884"
         style="font-style:normal;font-variant:normal;font-weight:normal;font-stretch:normal;font-size:12.7px;font-family:Ubuntu;-inkscape-font-specification:Ubuntu;stroke-width:0.264583"
         d="m 0.18257736,51.846644 q 0.4191,0 0.73659999,-0.0127 0.33019995,-0.0254 0.54609995,-0.0762 v -1.9685 q -0.127,-0.0635 -0.4191,-0.1016 -0.27939995,-0.0508 -0.68579994,-0.0508 -0.2667,0 -0.57149999,0.0381 -0.2921,0.0381 -0.54609999,0.1651 -0.2413,0.1143 -0.40639998,0.3302 -0.1651,0.2032 -0.1651,0.5461 0,0.635 0.40639998,0.889 0.40639999,0.2413 1.10489998,0.2413 z m -0.1016,-5.9182 q 0.71119999,0 1.19379994,0.1905 0.4953,0.1778 0.7874,0.5207 0.3048,0.3302 0.4318,0.8001 0.127,0.4572 0.127,1.016 v 4.1275 q -0.1524,0.0254 -0.4318,0.0762 -0.2667,0.0381 -0.6096,0.0762 -0.3429,0.0381 -0.74929995,0.0635 -0.39369999,0.0381 -0.78739999,0.0381 -0.55879999,0 -1.02869998,-0.1143 -0.46989998,-0.1143 -0.81279998,-0.3556 -0.3429,-0.254 -0.5334,-0.6604 -0.1905,-0.4064 -0.1905,-0.9779 0,-0.5461 0.2159,-0.9398 0.2286,-0.3937 0.6096,-0.635 0.381,-0.2413 0.88899998,-0.3556 0.50799999,-0.1143 1.06679998,-0.1143 0.1778,0 0.3683,0.0254 0.19049999,0.0127 0.35559999,0.0508 0.17779995,0.0254 0.30479995,0.0508 0.127,0.0254 0.1778,0.0381 v -0.3302 q 0,-0.2921 -0.0635,-0.5715 -0.0635,-0.2921 -0.2286,-0.508 -0.1651,-0.2286 -0.45719995,-0.3556 -0.27939999,-0.1397 -0.73659998,-0.1397 -0.5842,0 -1.02869997,0.0889 -0.4318,0.0762 -0.6477,0.1651 l -0.1397,-0.9779 q 0.2286,-0.1016 0.762,-0.1905 0.53339997,-0.1016 1.15569996,-0.1016 z" />
      <path
         id="path886"
         style="font-style:normal;font-variant:normal;font-weight:normal;font-stretch:normal;font-size:12.7px;font-family:Ubuntu;-inkscape-font-specification:Ubuntu;stroke-width:0.264583"
         d="m 6.5514278,52.824544 q -1.0922,-0.0254 -1.5494,-0.4699 -0.4572,-0.4445 -0.4572,-1.3843 v -7.9248 l 1.1811,-0.2032 v 7.9375 q 0,0.2921 0.0508,0.4826 0.0508,0.1905 0.1651,0.3048 0.1143,0.1143 0.3048,0.1778 0.1905,0.0508 0.4699,0.0889 z" />
    </g>
  </g>
</svg>
