<?xml version="1.0" encoding="UTF-8"?>
<svg width="50.5mm" height="128.5mm" baseProfile="full" version="1.1" viewBox="0 0 50.5 128.5" xmlns="http://www.w3.org/2000/svg">
  <defs>
    <radialGradient id="id1">
      <stop stop-color="#fff" offset="0"/>
      <stop stop-color="red" offset="1"/>
    </radialGradient>
    <linearGradient id="id8" x1="1" x2="0" y2="1">
      <stop stop-color="#555" offset="0"/>
      <stop stop-color="#111" offset="1"/>
    </linearGradient>
    <linearGradient id="id9" x1="1" x2="0" y2="1">
      <stop stop-color="#777" offset="0"/>
      <stop stop-color="#222" offset="1"/>
    </linearGradient>
    <linearGradient id="id10" x1="1" x2="0" y2="1">
      <stop stop-color="#e25f62" offset="0"/>
      <stop stop-color="#d23e3e" offset="1"/>
    </linearGradient>
    <filter id="id11">
      <feGaussianBlur in="SourceGraphic" stdDeviation="0.3"/>
    </filter>
    <linearGradient id="id14" x1="1" x2="0" y2="1">
      <stop stop-color="#fff" offset="0"/>
      <stop stop-color="#bbb" offset="1"/>
    </linearGradient>
    <filter id="id18">
      <feGaussianBlur in="SourceGraphic" stdDeviation="0.3"/>
    </filter>
    <filter id="id22">
      <feGaussianBlur in="SourceGraphic" stdDeviation="0.3"/>
    </filter>
    <linearGradient id="id23" x1="1" x2="0" y2="1">
      <stop stop-color="#fff" offset="-1"/>
      <stop offset="2"/>
    </linearGradient>
    <radialGradient id="id24">
      <stop offset=".7594"/>
      <stop stop-color="#fff" offset=".8797"/>
      <stop stop-color="#444" offset="1"/>
    </radialGradient>
    <radialGradient id="id25" cx=".8" cy=".35" r=".6">
      <stop stop-color="#eee" offset="0"/>
      <stop stop-color="#111" offset="1"/>
    </radialGradient>
    <radialGradient id="id30">
      <stop offset=".74603"/>
      <stop stop-color="#fff" offset=".87302"/>
      <stop stop-color="#444" offset="1"/>
    </radialGradient>
    <linearGradient id="id31" x1="1" x2="0" y2="1">
      <stop offset="0"/>
      <stop stop-color="#333" offset="1"/>
    </linearGradient>
  </defs>
  <rect id="background" width="50.5" height="128.5" fill="#fff"/>
  <g id="stencil" font-family="Ubuntu" font-size="3">
    <text x="25.25" y="6.3" font-size="5" text-anchor="middle">RNG</text>
    <path transform="translate(17.75 119.5) scale(.15)" d="m23.274 0c-12.804 0-23.274 10.47-23.274 23.274 0 12.804 10.47 23.274 23.274 23.274 6.2817 0 11.38-2.5486 15.731-6.2455 1.5387-1.3073 3.0762-2.7877 4.6583-4.3876l-0.0086-5.8693-5.9894 0.0026c-1.4839 1.5057-2.8467 2.8283-4.0804 3.8765-3.5126 2.9845-6.0494 4.2541-10.311 4.2541-8.2813 0-14.905-6.6235-14.905-14.905 0-8.2813 6.6235-14.905 14.905-14.905 4.2612 0 6.7981 1.2697 10.311 4.2541 1.2337 1.0482 2.5965 2.3707 4.0804 3.8765l5.9894 0.0026 0.0086-5.8693c-1.5821-1.5999-3.1196-3.0803-4.6583-4.3876-4.351-3.6969-9.4489-6.2455-15.731-6.2455zm53.451 0c-6.2815 1.0197e-4 -11.379 2.5487-15.73 6.2455-1.6075 1.3659-3.2135 2.9188-4.8712 4.602h12.572c2.4765-1.7176 4.7403-2.4782 8.0292-2.4783h3.82e-4c6.2002 0 11.47 3.7129 13.728 9.0545l-6.0416-0.07531-8.5851-3.0797-28.741 3.81e-4v5.6456h-22.686v6.7186h22.686v5.6456l28.741 3.82e-4 8.5851-3.0797 6.0416-0.07531c-2.2576 5.3415-7.5279 9.0545-13.728 9.0545h-3.82e-4c-3.2889-5.9e-5 -5.5527-0.76071-8.0292-2.4783h-12.572c1.6577 1.6832 3.2637 3.2361 4.8712 4.602 4.3509 3.6968 9.4487 6.2454 15.73 6.2455h3.82e-4c12.804 0 23.274-10.47 23.274-23.274-8e-6 -12.804-10.47-23.274-23.274-23.274zm-59.712 19.295-2.8907 3.9786 2.8907 3.9786 4.6773-1.5197v-4.9178z"/>
    <g id="stencil_offset" transform="translate(25.25,13)">
      <g transform="translate(-15.24 25.4)">
        <text x="2.54" y="4.380000000000001" text-anchor="middle">Chance</text>
      </g>
      <g transform="translate(10.16,25.4)">
        <text x="2.54" y="4.380000000000001" text-anchor="middle">Time</text>
      </g>
      <g transform="translate(-15.24 50.8)">
        <text x="2.54" y="2.380000000000001" text-anchor="middle">Spread</text>
      </g>
      <g transform="translate(10.16,50.8)">
        <text x="2.54" y="2.380000000000001" text-anchor="middle">Bias</text>
      </g>
      <g transform="translate(-12.7,63.5)" text-anchor="middle">
        <text x="-8" y="1.5">Uni</text>
        <text x="8" y="1.5">Bi</text>
      </g>
      <g transform="translate(12.7,63.5)" text-anchor="middle">
        <text x="-8" y="1.5">Trig</text>
        <text x="8" y="1.5">Gate</text>
      </g>
      <g transform="translate(-17.78 73.66)">
        <text id="text_nqtgpvqwqb" y="-0.9830843399999996" text-anchor="middle">Clock</text>
      </g>
      <g transform="translate(-7.62 73.66)">
        <text id="text_uzqyralank" y="-0.9830843399999996" text-anchor="middle">Enable</text>
      </g>
      <g transform="translate(-12.7,96.52)">
        <path id="path_rcstctwgqe" d="m-4.65-7.6669a1.5 1.5 0 0 1 1.5-1.5h6.3a1.5 1.5 0 0 1 1.5 1.5v12a1.5 1.5 0 0 1-1.5 1.5h-6.3a1.5 1.5 0 0 1-1.5-1.5zm4.65-0.5a3.65 3.65 0 1 0 0 7.3 3.65 3.65 0 1 0 0-7.3z" style=""/>
        <text id="text_rcstctwgqe" y="3.4830843399999996" fill="#ffffff" text-anchor="middle">Out</text>
      </g>
      <g transform="translate(12.7,73.66)">
        <text id="text_cnunyjshit" y="-0.9830843399999996" text-anchor="middle">Bias</text>
      </g>
      <g transform="translate(7.62 96.52)">
        <path id="path_yevzkmyxdc" d="m-4.65-7.6669a1.5 1.5 0 0 1 1.5-1.5h6.3a1.5 1.5 0 0 1 1.5 1.5v12a1.5 1.5 0 0 1-1.5 1.5h-6.3a1.5 1.5 0 0 1-1.5-1.5zm4.65-0.5a3.65 3.65 0 1 0 0 7.3 3.65 3.65 0 1 0 0-7.3z" style=""/>
        <text id="text_yevzkmyxdc" y="3.4830843399999996" fill="#ffffff" text-anchor="middle">A</text>
      </g>
      <g transform="translate(17.78 96.52)">
        <path id="path_vcnltvihmn" d="m-4.65-7.6669a1.5 1.5 0 0 1 1.5-1.5h6.3a1.5 1.5 0 0 1 1.5 1.5v12a1.5 1.5 0 0 1-1.5 1.5h-6.3a1.5 1.5 0 0 1-1.5-1.5zm4.65-0.5a3.65 3.65 0 1 0 0 7.3 3.65 3.65 0 1 0 0-7.3z" style=""/>
        <text id="text_vcnltvihmn" y="3.4830843399999996" fill="#ffffff" text-anchor="middle">B</text>
      </g>
      <path d="m0 41v59" fill="none" stroke="#000" stroke-width=".8"/>
      <path d="m0 2-1.75-3h3.5z"/>
    </g>
  </g>
  <g id="throughholes">
    <circle cx="7.47" cy="3" r="1.7"/>
    <circle cx="7.47" cy="125.5" r="1.7"/>
    <circle cx="43.03" cy="3" r="1.7"/>
    <circle cx="43.03" cy="125.5" r="1.7"/>
    <g id="throughholes_offset" transform="translate(25.25,13)">
      <g transform="translate(-19.05 2.54)">
        <circle cy="1.27" r="1.55"/>
      </g>
      <g transform="translate(-12.7,2.54)">
        <circle cy="1.27" r="1.55"/>
      </g>
      <g transform="translate(-6.35,2.54)">
        <circle cy="1.27" r="1.55"/>
      </g>
      <g transform="translate(0 2.54)">
        <circle cy="1.27" r="1.55"/>
      </g>
      <g transform="translate(6.35,2.54)">
        <circle cy="1.27" r="1.55"/>
      </g>
      <g transform="translate(12.7,2.54)">
        <circle cy="1.27" r="1.55"/>
      </g>
      <g transform="translate(19.05 2.54)">
        <circle cy="1.27" r="1.55"/>
      </g>
      <g transform="translate(-15.24 25.4)">
        <circle cx="2.54" cy="-7.62" r="3.65"/>
      </g>
      <g transform="translate(10.16,25.4)">
        <circle cx="2.54" cy="-7.62" r="3.65"/>
      </g>
      <g transform="translate(-15.24 50.8)">
        <circle cx="2.54" cy="-7.62" r="3.65"/>
      </g>
      <g transform="translate(10.16,50.8)">
        <circle cx="2.54" cy="-7.62" r="3.65"/>
      </g>
      <g transform="translate(-12.7,63.5)">
        <circle r="3.325"/>
      </g>
      <g transform="translate(12.7,63.5)">
        <circle r="3.325"/>
      </g>
      <g transform="translate(-17.78 73.66)">
        <circle cy="4.5169" r="3.15"/>
      </g>
      <g transform="translate(-7.62 73.66)">
        <circle cy="4.5169" r="3.15"/>
      </g>
      <g transform="translate(-12.7,96.52)">
        <circle cy="-4.5169" r="3.15"/>
      </g>
      <g transform="translate(-21.59,83.82)">
        <circle cy="1.27" r="1.55"/>
      </g>
      <g transform="translate(-3.81 83.82)">
        <circle cy="1.27" r="1.55"/>
      </g>
      <g transform="translate(12.7,73.66)">
        <circle cy="4.5169" r="3.15"/>
      </g>
      <g transform="translate(7.62 96.52)">
        <circle cy="-4.5169" r="3.15"/>
      </g>
      <g transform="translate(17.78 96.52)">
        <circle cy="-4.5169" r="3.15"/>
      </g>
      <g transform="translate(21.59,83.82)">
        <circle cy="1.27" r="1.55"/>
      </g>
      <g transform="translate(3.81 83.82)">
        <circle cy="1.27" r="1.55"/>
      </g>
    </g>
  </g>
  <g id="cosmetics">
    <g id="cosmetics_offset" transform="translate(25.25,13)">
      <g transform="translate(-19.05 2.54)">
        <circle cy="1.27" r="1.55" fill="url(#id1) none"/>
        <ellipse transform="rotate(20 .51667 .495)" cx=".51667" cy=".495" rx=".775" ry=".51667" fill="#fff" opacity=".8"/>
      </g>
      <g transform="translate(-12.7,2.54)">
        <circle cy="1.27" r="1.55" fill="url(#id1) none"/>
        <ellipse transform="rotate(20 .51667 .495)" cx=".51667" cy=".495" rx=".775" ry=".51667" fill="#fff" opacity=".8"/>
      </g>
      <g transform="translate(-6.35,2.54)">
        <circle cy="1.27" r="1.55" fill="url(#id1) none"/>
        <ellipse transform="rotate(20 .51667 .495)" cx=".51667" cy=".495" rx=".775" ry=".51667" fill="#fff" opacity=".8"/>
      </g>
      <g transform="translate(0 2.54)">
        <circle cy="1.27" r="1.55" fill="url(#id1) none"/>
        <ellipse transform="rotate(20 .51667 .495)" cx=".51667" cy=".495" rx=".775" ry=".51667" fill="#fff" opacity=".8"/>
      </g>
      <g transform="translate(6.35,2.54)">
        <circle cy="1.27" r="1.55" fill="url(#id1) none"/>
        <ellipse transform="rotate(20 .51667 .495)" cx=".51667" cy=".495" rx=".775" ry=".51667" fill="#fff" opacity=".8"/>
      </g>
      <g transform="translate(12.7,2.54)">
        <circle cy="1.27" r="1.55" fill="url(#id1) none"/>
        <ellipse transform="rotate(20 .51667 .495)" cx=".51667" cy=".495" rx=".775" ry=".51667" fill="#fff" opacity=".8"/>
      </g>
      <g transform="translate(19.05 2.54)">
        <circle cy="1.27" r="1.55" fill="url(#id1) none"/>
        <ellipse transform="rotate(20 .51667 .495)" cx=".51667" cy=".495" rx=".775" ry=".51667" fill="#fff" opacity=".8"/>
      </g>
      <g transform="translate(-15.24 25.4)">
        <circle cx="2.54" cy="-7.62" r="8" fill="url(#id8) none"/>
        <path d="m-0.69282-12.07a5.5 5.5 0 0 1 3.8077-1.0203l-0.052264 0.49726 1.511 0.40488 0.20337-0.45677a5.5 5.5 0 0 1 2.7874 2.7874l-0.45677 0.20337 0.40488 1.511 0.49726-0.052264a5.5 5.5 0 0 1-1.0203 3.8077l-0.40451-0.29389-1.1062 1.1062 0.29389 0.40451a5.5 5.5 0 0 1-3.8077 1.0203l0.052264-0.49726-1.511-0.40488-0.20337 0.45677a5.5 5.5 0 0 1-2.7874-2.7874l0.45677-0.20337-0.40488-1.511-0.49726 0.052264a5.5 5.5 0 0 1 1.0203-3.8077z" fill="url(#id9) none"/>
        <circle cx="2.54" cy="-7.62" r="4" fill="url(#id10) none"/>
        <line x1="1.1086" x2="-2.0734" y1="-8.1514" y2="-11.333" filter="url(#id11)" opacity=".2" stroke="#000"/>
        <line x1="1.4086" x2="-1.7734" y1="-8.7514" y2="-11.933" stroke="#f44b4c"/>
      </g>
      <g transform="translate(10.16,25.4)">
        <circle cx="2.54" cy="-7.62" r="7.19" fill="url(#id8) none"/>
        <path d="m-0.69282-12.07a5.5 5.5 0 0 1 3.8077-1.0203l-0.052264 0.49726 1.511 0.40488 0.20337-0.45677a5.5 5.5 0 0 1 2.7874 2.7874l-0.45677 0.20337 0.40488 1.511 0.49726-0.052264a5.5 5.5 0 0 1-1.0203 3.8077l-0.40451-0.29389-1.1062 1.1062 0.29389 0.40451a5.5 5.5 0 0 1-3.8077 1.0203l0.052264-0.49726-1.511-0.40488-0.20337 0.45677a5.5 5.5 0 0 1-2.7874-2.7874l0.45677-0.20337-0.40488-1.511-0.49726 0.052264a5.5 5.5 0 0 1 1.0203-3.8077l0.40451 0.29389 1.1062-1.1062z" fill="url(#id9) none"/>
        <circle cx="2.54" cy="-7.62" r="4" fill="url(#id14) none"/>
      </g>
      <g transform="translate(-15.24 50.8)">
        <circle cx="2.54" cy="-7.62" r="5.75" fill="url(#id8) none"/>
        <path d="m-0.69282-12.07a5.5 5.5 0 0 1 3.8077-1.0203l-0.052264 0.49726 1.511 0.40488 0.20337-0.45677a5.5 5.5 0 0 1 2.7874 2.7874l-0.45677 0.20337 0.40488 1.511 0.49726-0.052264a5.5 5.5 0 0 1-1.0203 3.8077l-0.40451-0.29389-1.1062 1.1062 0.29389 0.40451a5.5 5.5 0 0 1-3.8077 1.0203l0.052264-0.49726-1.511-0.40488-0.20337 0.45677a5.5 5.5 0 0 1-2.7874-2.7874l0.45677-0.20337-0.40488-1.511-0.49726 0.052264a5.5 5.5 0 0 1 1.0203-3.8077z" fill="url(#id9) none"/>
        <circle cx="2.54" cy="-7.62" r="4" fill="url(#id14) none"/>
        <line x1="1.1086" x2="-2.0734" y1="-8.1514" y2="-11.333" filter="url(#id18)" opacity=".2" stroke="#000"/>
        <line x1="1.4086" x2="-1.7734" y1="-8.7514" y2="-11.933" stroke="#eee"/>
      </g>
      <g transform="translate(10.16,50.8)">
        <circle cx="2.54" cy="-7.62" r="5.75" fill="url(#id8) none"/>
        <path d="m-0.69282-12.07a5.5 5.5 0 0 1 3.8077-1.0203l-0.052264 0.49726 1.511 0.40488 0.20337-0.45677a5.5 5.5 0 0 1 2.7874 2.7874l-0.45677 0.20337 0.40488 1.511 0.49726-0.052264a5.5 5.5 0 0 1-1.0203 3.8077l-0.40451-0.29389-1.1062 1.1062 0.29389 0.40451a5.5 5.5 0 0 1-3.8077 1.0203l0.052264-0.49726-1.511-0.40488-0.20337 0.45677a5.5 5.5 0 0 1-2.7874-2.7874l0.45677-0.20337-0.40488-1.511-0.49726 0.052264a5.5 5.5 0 0 1 1.0203-3.8077z" fill="url(#id9) none"/>
        <circle cx="2.54" cy="-7.62" r="4" fill="url(#id14) none"/>
        <line x1="1.1086" x2="-2.0734" y1="-8.1514" y2="-11.333" filter="url(#id22)" opacity=".2" stroke="#000"/>
        <line x1="1.4086" x2="-1.7734" y1="-8.7514" y2="-11.933" stroke="#eee"/>
      </g>
      <g transform="translate(-12.7,63.5)">
        <circle r="3.675" fill="url(#id23) none"/>
        <circle r="3.325" fill="url(#id24) none"/>
        <circle r="2.525" fill="#111"/>
        <path d="m6.7356e-17 -1.1 3.98-0.39933c2.4875-0.24958 2.4875 3.2483 1.8362e-16 2.9987l-3.98-0.39933z" fill="url(#id25) none"/>
      </g>
      <g transform="translate(12.7,63.5)">
        <circle r="3.675" fill="url(#id23) none"/>
        <circle r="3.325" fill="url(#id24) none"/>
        <circle r="2.525" fill="#111"/>
        <path d="m6.7356e-17 -1.1 3.98-0.39933c2.4875-0.24958 2.4875 3.2483 1.8362e-16 2.9987l-3.98-0.39933z" fill="url(#id25) none"/>
      </g>
      <g transform="translate(-17.78 73.66)">
        <path d="m3.55 4.5169-0.013509 0.3094 0.15654 0.34178-0.070807 0.31939-0.28631 0.2436-0.11852 0.28612 0.030203 0.37471-0.17578 0.27591-0.35236 0.13098-0.20923 0.22833-0.099776 0.36244-0.25954 0.19915-0.37591 0.00257-0.27471 0.143-0.21772 0.30645-0.312 0.098375-0.35412-0.12615-0.30705 0.040424-0.3094 0.21351-0.32683-0.01427-0.28962-0.23966-0.30236-0.067031-0.36377 0.094811-0.30224-0.12519-0.19018-0.32426-0.2612-0.1664-0.37426-0.035323-0.2412-0.22102-0.067807-0.36975-0.18853-0.2457-0.33961-0.1612-0.15106-0.29018 0.062745-0.37065-0.093128-0.29536-0.26399-0.26763-0.042701-0.32435 0.18573-0.32683 0.013509-0.3094-0.15654-0.34178 0.070807-0.31939 0.28631-0.2436 0.11852-0.28612-0.030203-0.37471 0.17578-0.27591 0.35236-0.13098 0.20923-0.22833 0.099776-0.36244 0.25954-0.19915 0.37591-0.00257 0.27471-0.143 0.21772-0.30645 0.312-0.098375 0.35412 0.12615 0.30705-0.040424 0.3094-0.21351 0.32683 0.01427 0.28962 0.23966 0.30236 0.067031 0.36377-0.094811 0.30224 0.12519 0.19018 0.32426 0.2612 0.1664 0.37426 0.035323 0.2412 0.22102 0.067807 0.36975 0.18853 0.2457 0.33961 0.1612 0.15106 0.29018-0.062745 0.37065 0.093128 0.29536 0.26399 0.26763 0.042701 0.32435z" fill="url(#id23) none"/>
        <circle cy="4.5169" r="3.15" fill="url(#id30) none"/>
        <circle cy="4.5169" r="2.35" fill="url(#id31) none"/>
      </g>
      <g transform="translate(-7.62 73.66)">
        <path d="m3.55 4.5169-0.013509 0.3094 0.15654 0.34178-0.070807 0.31939-0.28631 0.2436-0.11852 0.28612 0.030203 0.37471-0.17578 0.27591-0.35236 0.13098-0.20923 0.22833-0.099776 0.36244-0.25954 0.19915-0.37591 0.00257-0.27471 0.143-0.21772 0.30645-0.312 0.098375-0.35412-0.12615-0.30705 0.040424-0.3094 0.21351-0.32683-0.01427-0.28962-0.23966-0.30236-0.067031-0.36377 0.094811-0.30224-0.12519-0.19018-0.32426-0.2612-0.1664-0.37426-0.035323-0.2412-0.22102-0.067807-0.36975-0.18853-0.2457-0.33961-0.1612-0.15106-0.29018 0.062745-0.37065-0.093128-0.29536-0.26399-0.26763-0.042701-0.32435 0.18573-0.32683 0.013509-0.3094-0.15654-0.34178 0.070807-0.31939 0.28631-0.2436 0.11852-0.28612-0.030203-0.37471 0.17578-0.27591 0.35236-0.13098 0.20923-0.22833 0.099776-0.36244 0.25954-0.19915 0.37591-0.00257 0.27471-0.143 0.21772-0.30645 0.312-0.098375 0.35412 0.12615 0.30705-0.040424 0.3094-0.21351 0.32683 0.01427 0.28962 0.23966 0.30236 0.067031 0.36377-0.094811 0.30224 0.12519 0.19018 0.32426 0.2612 0.1664 0.37426 0.035323 0.2412 0.22102 0.067807 0.36975 0.18853 0.2457 0.33961 0.1612 0.15106 0.29018-0.062745 0.37065 0.093128 0.29536 0.26399 0.26763 0.042701 0.32435z" fill="url(#id23) none"/>
        <circle cy="4.5169" r="3.15" fill="url(#id30) none"/>
        <circle cy="4.5169" r="2.35" fill="url(#id31) none"/>
      </g>
      <g transform="translate(-12.7,96.52)">
        <path d="m3.55-4.5169-0.013509 0.3094 0.15654 0.34178-0.070807 0.31939-0.28631 0.2436-0.11852 0.28612 0.030203 0.37471-0.17578 0.27591-0.35236 0.13098-0.20923 0.22833-0.099776 0.36244-0.25954 0.19915-0.37591 0.00257-0.27471 0.143-0.21772 0.30645-0.312 0.098375-0.35412-0.12615-0.30705 0.040424-0.3094 0.21351-0.32683-0.01427-0.28962-0.23966-0.30236-0.067031-0.36377 0.094811-0.30224-0.12519-0.19018-0.32426-0.2612-0.1664-0.37426-0.035323-0.2412-0.22102-0.067807-0.36975-0.18853-0.2457-0.33961-0.1612-0.15106-0.29018 0.062745-0.37065-0.093128-0.29536-0.26399-0.26763-0.042701-0.32435 0.18573-0.32683 0.013509-0.3094-0.15654-0.34178 0.070807-0.31939 0.28631-0.2436 0.11852-0.28612-0.030203-0.37471 0.17578-0.27591 0.35236-0.13098 0.20923-0.22833 0.099776-0.36244 0.25954-0.19915 0.37591-0.00257 0.27471-0.143 0.21772-0.30645 0.312-0.098375 0.35412 0.12615 0.30705-0.040424 0.3094-0.21351 0.32683 0.01427 0.28962 0.23966 0.30236 0.067031 0.36377-0.094811 0.30224 0.12519 0.19018 0.32426 0.2612 0.1664 0.37426 0.035323 0.2412 0.22102 0.067807 0.36975 0.18853 0.2457 0.33961 0.1612 0.15106 0.29018-0.062745 0.37065 0.093128 0.29536 0.26399 0.26763 0.042701 0.32435z" fill="url(#id23) none"/>
        <circle cy="-4.5169" r="3.15" fill="url(#id30) none"/>
        <circle cy="-4.5169" r="2.35" fill="url(#id31) none"/>
      </g>
      <g transform="translate(-21.59,83.82)">
        <circle cy="1.27" r="1.55" fill="url(#id1) none"/>
        <ellipse transform="rotate(20 .51667 .495)" cx=".51667" cy=".495" rx=".775" ry=".51667" fill="#fff" opacity=".8"/>
      </g>
      <g transform="translate(-3.81 83.82)">
        <circle cy="1.27" r="1.55" fill="url(#id1) none"/>
        <ellipse transform="rotate(20 .51667 .495)" cx=".51667" cy=".495" rx=".775" ry=".51667" fill="#fff" opacity=".8"/>
      </g>
      <g transform="translate(12.7,73.66)">
        <path d="m3.55 4.5169-0.013509 0.3094 0.15654 0.34178-0.070807 0.31939-0.28631 0.2436-0.11852 0.28612 0.030203 0.37471-0.17578 0.27591-0.35236 0.13098-0.20923 0.22833-0.099776 0.36244-0.25954 0.19915-0.37591 0.00257-0.27471 0.143-0.21772 0.30645-0.312 0.098375-0.35412-0.12615-0.30705 0.040424-0.3094 0.21351-0.32683-0.01427-0.28962-0.23966-0.30236-0.067031-0.36377 0.094811-0.30224-0.12519-0.19018-0.32426-0.2612-0.1664-0.37426-0.035323-0.2412-0.22102-0.067807-0.36975-0.18853-0.2457-0.33961-0.1612-0.15106-0.29018 0.062745-0.37065-0.093128-0.29536-0.26399-0.26763-0.042701-0.32435 0.18573-0.32683 0.013509-0.3094-0.15654-0.34178 0.070807-0.31939 0.28631-0.2436 0.11852-0.28612-0.030203-0.37471 0.17578-0.27591 0.35236-0.13098 0.20923-0.22833 0.099776-0.36244 0.25954-0.19915 0.37591-0.00257 0.27471-0.143 0.21772-0.30645 0.312-0.098375 0.35412 0.12615 0.30705-0.040424 0.3094-0.21351 0.32683 0.01427 0.28962 0.23966 0.30236 0.067031 0.36377-0.094811 0.30224 0.12519 0.19018 0.32426 0.2612 0.1664 0.37426 0.035323 0.2412 0.22102 0.067807 0.36975 0.18853 0.2457 0.33961 0.1612 0.15106 0.29018-0.062745 0.37065 0.093128 0.29536 0.26399 0.26763 0.042701 0.32435z" fill="url(#id23) none"/>
        <circle cy="4.5169" r="3.15" fill="url(#id30) none"/>
        <circle cy="4.5169" r="2.35" fill="url(#id31) none"/>
      </g>
      <g transform="translate(7.62 96.52)">
        <path d="m3.55-4.5169-0.013509 0.3094 0.15654 0.34178-0.070807 0.31939-0.28631 0.2436-0.11852 0.28612 0.030203 0.37471-0.17578 0.27591-0.35236 0.13098-0.20923 0.22833-0.099776 0.36244-0.25954 0.19915-0.37591 0.00257-0.27471 0.143-0.21772 0.30645-0.312 0.098375-0.35412-0.12615-0.30705 0.040424-0.3094 0.21351-0.32683-0.01427-0.28962-0.23966-0.30236-0.067031-0.36377 0.094811-0.30224-0.12519-0.19018-0.32426-0.2612-0.1664-0.37426-0.035323-0.2412-0.22102-0.067807-0.36975-0.18853-0.2457-0.33961-0.1612-0.15106-0.29018 0.062745-0.37065-0.093128-0.29536-0.26399-0.26763-0.042701-0.32435 0.18573-0.32683 0.013509-0.3094-0.15654-0.34178 0.070807-0.31939 0.28631-0.2436 0.11852-0.28612-0.030203-0.37471 0.17578-0.27591 0.35236-0.13098 0.20923-0.22833 0.099776-0.36244 0.25954-0.19915 0.37591-0.00257 0.27471-0.143 0.21772-0.30645 0.312-0.098375 0.35412 0.12615 0.30705-0.040424 0.3094-0.21351 0.32683 0.01427 0.28962 0.23966 0.30236 0.067031 0.36377-0.094811 0.30224 0.12519 0.19018 0.32426 0.2612 0.1664 0.37426 0.035323 0.2412 0.22102 0.067807 0.36975 0.18853 0.2457 0.33961 0.1612 0.15106 0.29018-0.062745 0.37065 0.093128 0.29536 0.26399 0.26763 0.042701 0.32435z" fill="url(#id23) none"/>
        <circle cy="-4.5169" r="3.15" fill="url(#id30) none"/>
        <circle cy="-4.5169" r="2.35" fill="url(#id31) none"/>
      </g>
      <g transform="translate(17.78 96.52)">
        <path d="m3.55-4.5169-0.013509 0.3094 0.15654 0.34178-0.070807 0.31939-0.28631 0.2436-0.11852 0.28612 0.030203 0.37471-0.17578 0.27591-0.35236 0.13098-0.20923 0.22833-0.099776 0.36244-0.25954 0.19915-0.37591 0.00257-0.27471 0.143-0.21772 0.30645-0.312 0.098375-0.35412-0.12615-0.30705 0.040424-0.3094 0.21351-0.32683-0.01427-0.28962-0.23966-0.30236-0.067031-0.36377 0.094811-0.30224-0.12519-0.19018-0.32426-0.2612-0.1664-0.37426-0.035323-0.2412-0.22102-0.067807-0.36975-0.18853-0.2457-0.33961-0.1612-0.15106-0.29018 0.062745-0.37065-0.093128-0.29536-0.26399-0.26763-0.042701-0.32435 0.18573-0.32683 0.013509-0.3094-0.15654-0.34178 0.070807-0.31939 0.28631-0.2436 0.11852-0.28612-0.030203-0.37471 0.17578-0.27591 0.35236-0.13098 0.20923-0.22833 0.099776-0.36244 0.25954-0.19915 0.37591-0.00257 0.27471-0.143 0.21772-0.30645 0.312-0.098375 0.35412 0.12615 0.30705-0.040424 0.3094-0.21351 0.32683 0.01427 0.28962 0.23966 0.30236 0.067031 0.36377-0.094811 0.30224 0.12519 0.19018 0.32426 0.2612 0.1664 0.37426 0.035323 0.2412 0.22102 0.067807 0.36975 0.18853 0.2457 0.33961 0.1612 0.15106 0.29018-0.062745 0.37065 0.093128 0.29536 0.26399 0.26763 0.042701 0.32435z" fill="url(#id23) none"/>
        <circle cy="-4.5169" r="3.15" fill="url(#id30) none"/>
        <circle cy="-4.5169" r="2.35" fill="url(#id31) none"/>
      </g>
      <g transform="translate(21.59,83.82)">
        <circle cy="1.27" r="1.55" fill="url(#id1) none"/>
        <ellipse transform="rotate(20 .51667 .495)" cx=".51667" cy=".495" rx=".775" ry=".51667" fill="#fff" opacity=".8"/>
      </g>
      <g transform="translate(3.81 83.82)">
        <circle cy="1.27" r="1.55" fill="url(#id1) none"/>
        <ellipse transform="rotate(20 .51667 .495)" cx=".51667" cy=".495" rx=".775" ry=".51667" fill="#fff" opacity=".8"/>
      </g>
    </g>
  </g>
</svg>
