<svg xmlns:inkscape="http://www.inkscape.org/namespaces/inkscape" xmlns:sodipodi="http://sodipodi.sourceforge.net/DTD/sodipodi-0.dtd" xmlns="http://www.w3.org/2000/svg" xmlns:svg="http://www.w3.org/2000/svg" height="128.5mm" version="1.1" viewBox="0,0,40.14,128.5" width="40.14mm" id="svg152" sodipodi:docname="mixer_faceplate.svg" inkscape:version="1.1.2 (0a00cf5339, 2022-02-04)">
  <sodipodi:namedview id="namedview154" pagecolor="#ffffff" bordercolor="#666666" borderopacity="1.0" inkscape:pageshadow="2" inkscape:pageopacity="0.0" inkscape:pagecheckerboard="0" inkscape:document-units="mm" showgrid="false" inkscape:zoom="1.5710279" inkscape:cx="75.746587" inkscape:cy="242.83465" inkscape:window-width="1495" inkscape:window-height="972" inkscape:window-x="0" inkscape:window-y="32" inkscape:window-maximized="0" inkscape:current-layer="svg152"/>
  <defs id="defs3">
    </defs>
  <rect fill="white" height="128.5" id="background" width="40.14" x="0" y="0"/>
  <g fill="none" id="outline" stroke="black">
    <line stroke="black" stroke-width="1" x1="0" x2="0" y1="-3" y2="3" id="line6"/>
    <line stroke="black" stroke-width="1" x1="-3" x2="3" y1="0" y2="0" id="line8"/>
    <line stroke="black" stroke-width="1" x1="43.14" x2="37.14" y1="0" y2="0" id="line10"/>
    <line stroke="black" stroke-width="1" x1="40.14" x2="40.14" y1="-3" y2="3" id="line12"/>
    <line stroke="black" stroke-width="1" x1="0" x2="0" y1="131.5" y2="125.5" id="line14"/>
    <line stroke="black" stroke-width="1" x1="-3" x2="3" y1="128.5" y2="128.5" id="line16"/>
    <line stroke="black" stroke-width="1" x1="40.14" x2="40.14" y1="131.5" y2="125.5" id="line18"/>
    <line stroke="black" stroke-width="1" x1="43.14" x2="37.14" y1="128.5" y2="128.5" id="line20"/>
  </g>
  <g font-family="Ubuntu" font-size="3" id="stencil">
    <path d="m 15.657519,4.52 q -0.05,-0.12 -0.135,-0.305 -0.08,-0.185 -0.175,-0.4 -0.095,-0.215 -0.205,-0.44 -0.105,-0.23 -0.2,-0.43 -0.095,-0.205 -0.18,-0.365 -0.08,-0.16 -0.13,-0.245 -0.055,0.59 -0.09,1.28 -0.035,0.685 -0.06,1.385 h -0.475 q 0.02,-0.45 0.045,-0.905 0.025,-0.46 0.055,-0.9 0.035,-0.445 0.07,-0.865 0.04,-0.42 0.085,-0.795 h 0.425 q 0.135,0.22 0.29,0.52 0.155,0.3 0.31,0.63 0.155,0.325 0.3,0.655 0.145,0.325 0.265,0.595 0.12,-0.27 0.265,-0.595 0.145,-0.33 0.3,-0.655 0.155,-0.33 0.31,-0.63 0.155,-0.3 0.29,-0.52 h 0.425 q 0.17,1.675 0.255,3.465 h -0.475 q -0.025,-0.7 -0.06,-1.385 -0.035,-0.69 -0.09,-1.28 -0.05,0.085 -0.135,0.245 -0.08,0.16 -0.175,0.365 -0.095,0.2 -0.205,0.43 -0.105,0.225 -0.2,0.44 -0.095,0.215 -0.18,0.4 -0.08,0.185 -0.13,0.305 z" id="path972" style="font-size:5px;text-anchor:middle"/>
    <path d="m 18.892511,5 h -0.465 V 2.4 h 0.465 z m -0.235,-3.07 q -0.125,0 -0.215,-0.08 -0.085,-0.085 -0.085,-0.225 0,-0.14 0.085,-0.22 0.09,-0.085 0.215,-0.085 0.125,0 0.21,0.085 0.09,0.08 0.09,0.22 0,0.14 -0.09,0.225 -0.085,0.08 -0.21,0.08 z" id="path974" style="font-size:5px;text-anchor:middle"/>
    <path d="m 21.247502,5 q -0.055,-0.11 -0.135,-0.245 -0.08,-0.135 -0.175,-0.275 -0.095,-0.145 -0.195,-0.285 -0.1,-0.14 -0.195,-0.265 -0.095,0.125 -0.195,0.27 -0.1,0.14 -0.195,0.285 -0.09,0.14 -0.17,0.275 -0.08,0.135 -0.135,0.24 h -0.48 q 0.175,-0.34 0.415,-0.69 0.245,-0.355 0.485,-0.675 l -0.86,-1.235 h 0.525 l 0.62,0.91 0.625,-0.91 h 0.495 l -0.84,1.205 q 0.24,0.325 0.49,0.69 0.255,0.36 0.43,0.705 z" id="path976" style="font-size:5px;text-anchor:middle"/>
    <path d="m 21.997492,3.705 q 0,-0.345 0.1,-0.6 0.1,-0.26 0.265,-0.43 0.165,-0.17 0.38,-0.255 0.215,-0.085 0.44,-0.085 0.525,0 0.805,0.33 0.28,0.325 0.28,0.995 0,0.03 0,0.08 0,0.045 -0.005,0.085 h -1.78 q 0.03,0.405 0.235,0.615 0.205,0.21 0.64,0.21 0.245,0 0.41,-0.04 0.17,-0.045 0.255,-0.085 l 0.065,0.39 q -0.085,0.045 -0.3,0.095 -0.21,0.05 -0.48,0.05 -0.34,0 -0.59,-0.1 -0.245,-0.105 -0.405,-0.285 -0.16,-0.18 -0.24,-0.425 -0.075,-0.25 -0.075,-0.545 z m 1.785,-0.255 q 0.005,-0.315 -0.16,-0.515 -0.16,-0.205 -0.445,-0.205 -0.16,0 -0.285,0.065 -0.12,0.06 -0.205,0.16 -0.085,0.1 -0.135,0.23 -0.045,0.13 -0.06,0.265 z" id="path978" style="font-size:5px;text-anchor:middle"/>
    <path d="m 25.897482,2.345 q 0.06,0 0.135,0.01 0.08,0.005 0.155,0.02 0.075,0.01 0.135,0.025 0.065,0.01 0.095,0.02 l -0.08,0.405 q -0.055,-0.02 -0.185,-0.045 -0.125,-0.03 -0.325,-0.03 -0.13,0 -0.26,0.03 -0.125,0.025 -0.165,0.035 V 5 h -0.465 V 2.51 q 0.165,-0.06 0.41,-0.11 0.245,-0.055 0.55,-0.055 z" id="path980" style="font-size:5px;text-anchor:middle"/>
    <path d="M 23.273995,0 C 10.46956,0 0,10.46956 0,23.273995 0,36.078431 10.46956,46.54799 23.273995,46.54799 c 6.2817,0 11.379649,-2.548635 15.730632,-6.245496 1.538657,-1.307338 3.076198,-2.787732 4.658303,-4.38762 l -0.0086,-5.869298 -5.989355,0.0026 c -1.483874,1.505733 -2.846746,2.828266 -4.080397,3.876451 -3.512556,2.984484 -6.049447,4.254142 -10.310608,4.254142 -8.281306,0 -14.9047822,-6.623476 -14.9047822,-14.904783 0,-8.281306 6.6234762,-14.9047823 14.9047822,-14.9047823 4.261161,0 6.798052,1.2696585 10.310608,4.2541413 1.233651,1.048185 2.596523,2.370718 4.080397,3.876452 l 5.989355,0.0026 0.0086,-5.869304 C 42.080825,9.0332294 40.543284,7.5528356 39.004627,6.2454977 34.653644,2.5486366 29.555695,0 23.273995,0 Z M 76.724807,0 C 70.443279,1.0197146e-4 65.345444,2.5487105 60.99455,6.2454977 59.387003,7.6113677 57.781031,9.1642634 56.123352,10.847502 H 68.695628 C 71.17209,9.1299217 73.43594,8.3692721 76.724807,8.369213 h 3.82e-4 c 6.200192,0 11.470469,3.712943 13.728089,9.054499 l -6.041554,-0.07531 -8.585089,-3.079684 -28.740996,3.81e-4 v 5.645584 H 24.399983 v 6.718636 h 22.685649 v 5.645592 l 28.740995,3.82e-4 8.58509,-3.079684 6.041553,-0.07531 c -2.25762,5.341544 -7.527894,9.054489 -13.728089,9.054489 h -3.82e-4 c -3.288867,-5.9e-5 -5.552715,-0.760709 -8.029179,-2.47829 H 56.123352 c 1.657679,1.68324 3.263651,3.236135 4.871198,4.602006 4.350894,3.696786 9.448729,6.245395 15.730257,6.245496 h 3.82e-4 C 89.52963,46.548 99.999184,36.07844 99.999184,23.274005 99.999176,10.46956 89.52962,0 76.725181,0 Z m -59.711596,19.295384 -2.890653,3.978611 2.890653,3.978612 4.677319,-1.51971 v -4.917803 z" transform="translate(12.57, 119.5) scale(0.15)" id="path25"/>
    <g transform="translate(4.83,16.635)" id="g28"/>
    <path d="M 4.83,21.151916 H 31.5 v 20.32" fill="none" stroke="#000000" stroke-width="0.6" id="path30"/>
    <g transform="translate(14.99,21.08)" id="g32"/>
    <g transform="translate(23.88,18.54)" id="g34"/>
    <g transform="translate(4.83,36.955)" id="g37"/>
    <path d="M 4.83,41.471916 H 31.5 v 20.32" fill="none" stroke="#000000" stroke-width="0.6" id="path39"/>
    <g transform="translate(14.99,41.4)" id="g41"/>
    <g transform="translate(23.88,38.86)" id="g43"/>
    <g transform="translate(4.83,57.275)" id="g46"/>
    <path d="M 4.83,61.791916 H 31.5 v 20.32" fill="none" stroke="#000000" stroke-width="0.6" id="path48"/>
    <g transform="translate(14.99,61.72)" id="g50"/>
    <g transform="translate(23.88,59.18)" id="g52"/>
    <g transform="translate(4.83,77.595)" id="g55"/>
    <path d="M 4.83,82.111916 H 31.5 v 20.320004" fill="none" stroke="#000000" stroke-width="0.6" id="path57"/>
    <g transform="translate(14.99,82.04)" id="g59"/>
    <g transform="translate(23.88,79.5)" id="g61"/>
    <g transform="translate(4.83,97.915)" id="g64"/>
    <path d="M 4.83,102.43192 H 31.5" fill="none" stroke="#000000" stroke-width="0.6" id="path66"/>
    <g transform="translate(14.99,102.36)" id="g68"/>
    <g transform="translate(31.5,97.915)" id="g72">
      <path id="path_balvzpgkbh" style="" d="m 108.09375,370.51367 a 5.6692913,5.6692913 0 0 0 -5.66797,5.66992 v 45.35352 a 5.6692913,5.6692913 0 0 0 5.66797,5.66992 h 21.92187 a 5.6692913,5.6692913 0 0 0 5.66993,-5.66992 v -45.35352 a 5.6692913,5.6692913 0 0 0 -5.66993,-5.66992 z m 10.96094,2.64649 a 13.984375,13.984375 0 0 1 0,27.96875 13.984375,13.984375 0 0 1 0,-27.96875 z m -7.08008,36.18164 c 0.50646,0 0.98175,0.0859 1.42773,0.25976 0.45355,0.17386 0.85125,0.43549 1.19141,0.78321 0.34016,0.34015 0.60815,0.76723 0.80469,1.28125 0.20409,0.51401 0.30664,1.10654 0.30664,1.77929 0,0.67276 -0.10255,1.26724 -0.30664,1.78125 -0.19654,0.51402 -0.46453,0.94525 -0.80469,1.29297 -0.34016,0.34016 -0.73786,0.59567 -1.19141,0.76953 -0.44598,0.17386 -0.92127,0.26172 -1.42773,0.26172 -0.51402,0 -1.00179,-0.0879 -1.46289,-0.26172 -0.45354,-0.17386 -0.85346,-0.42937 -1.20117,-0.76953 -0.34016,-0.34772 -0.61231,-0.77895 -0.81641,-1.29297 -0.19653,-0.51401 -0.29492,-1.10849 -0.29492,-1.78125 0,-0.67275 0.0984,-1.26528 0.29492,-1.77929 0.2041,-0.51402 0.47625,-0.9411 0.81641,-1.28125 0.34771,-0.34772 0.74763,-0.60935 1.20117,-0.78321 0.4611,-0.17386 0.94887,-0.25976 1.46289,-0.25976 z m 5.30664,0.18164 h 1.09961 v 4.80664 c 0,0.78614 0.17377,1.35761 0.52148,1.71289 0.34772,0.35527 0.80001,0.5332 1.35938,0.5332 0.27968,0 0.53299,-0.0419 0.75976,-0.125 0.23434,-0.0907 0.43527,-0.22678 0.60157,-0.4082 0.1663,-0.18142 0.29601,-0.41172 0.38672,-0.69141 0.0907,-0.28724 0.13476,-0.62841 0.13476,-1.02148 v -4.80664 h 1.09961 v 4.93164 c 0,0.43842 -0.0607,0.84665 -0.18164,1.22461 -0.11339,0.37795 -0.29352,0.70664 -0.54297,0.98633 -0.24189,0.27212 -0.55173,0.48774 -0.92969,0.64648 -0.37039,0.15874 -0.81411,0.23828 -1.32812,0.23828 -0.51402,0 -0.95994,-0.0795 -1.33789,-0.23828 -0.37795,-0.15874 -0.6878,-0.37436 -0.92969,-0.64648 -0.24189,-0.27969 -0.42202,-0.60838 -0.54297,-0.98633 -0.11338,-0.37796 -0.16992,-0.78619 -0.16992,-1.22461 z m 7.0625,0 h 6.04492 v 0.95117 h -2.47265 v 6.90625 h -1.09961 v -6.90625 h -2.47266 z m -12.39258,0.78125 c -0.40063,0 -0.76285,0.0754 -1.08789,0.22656 -0.31748,0.14362 -0.58963,0.35287 -0.8164,0.625 -0.21922,0.27213 -0.38883,0.60498 -0.50977,0.99805 -0.12095,0.38551 -0.18164,0.81479 -0.18164,1.29101 0,0.47622 0.0607,0.91162 0.18164,1.30469 0.12094,0.38551 0.29055,0.7142 0.50977,0.98633 0.22677,0.27212 0.49892,0.48358 0.8164,0.63476 0.32504,0.14363 0.68726,0.21485 1.08789,0.21485 0.40063,0 0.76065,-0.0712 1.07813,-0.21485 0.31748,-0.15118 0.58547,-0.36264 0.80468,-0.63476 0.22678,-0.27213 0.40054,-0.60082 0.52149,-0.98633 0.12094,-0.39307 0.18164,-0.82847 0.18164,-1.30469 0,-0.47622 -0.0607,-0.9055 -0.18164,-1.29101 -0.12095,-0.39307 -0.29471,-0.72592 -0.52149,-0.99805 -0.21921,-0.27213 -0.4872,-0.48138 -0.80468,-0.625 -0.31748,-0.15118 -0.6775,-0.22656 -1.07813,-0.22656 z" transform="matrix(0.26458333,0,0,0.26458333,-31.5,-97.915)"/>
    </g>
    <g transform="translate(35.31,93.47)" id="g74"/>
  </g>
  <g fill="black" id="throughholes" stroke="none">
    <circle cx="7.62" cy="3" r="1.7" stroke="none" id="circle78"/>
    <circle cx="7.62" cy="125.5" r="1.7" stroke="none" id="circle80"/>
    <circle cx="32.52" cy="3" r="1.7" stroke="none" id="circle82"/>
    <circle cx="32.52" cy="125.5" r="1.7" stroke="none" id="circle84"/>
    <circle cx="4.8299999" cy="21.151917" r="3.4000001" id="circle86"/>
    <circle cx="14.99" cy="21.08" r="2.6500001" id="circle90"/>
    <circle cx="31.5" cy="21.08" r="3.9000001" id="circle94"/>
    <circle cx="4.8299999" cy="41.471916" r="3.4000001" id="circle98"/>
    <circle cx="14.99" cy="41.400002" r="2.6500001" id="circle102"/>
    <circle cx="31.5" cy="41.400002" r="3.9000001" id="circle106"/>
    <circle cx="4.8299999" cy="61.791916" r="3.4000001" id="circle110"/>
    <circle cx="14.99" cy="61.720001" r="2.6500001" id="circle114"/>
    <circle cx="31.5" cy="61.720001" r="3.9000001" id="circle118"/>
    <circle cx="4.8299999" cy="82.111916" r="3.4000001" id="circle122"/>
    <circle cx="14.99" cy="82.040001" r="2.6500001" id="circle126"/>
    <circle cx="31.5" cy="82.040001" r="3.9000001" id="circle130"/>
    <circle cx="4.8299999" cy="102.43192" r="3.4000001" id="circle134"/>
    <circle cx="14.99" cy="102.36" r="2.6500001" id="circle138"/>
    <circle cx="31.5" cy="102.43192" r="3.4000001" id="circle142"/>
    <circle cx="35.310001" cy="94.739998" r="1.5" id="circle146"/>
  </g>
</svg>