<?xml version="1.0" encoding="UTF-8"?>
<svg id="svg554" width="40.3mm" height="128.5mm" version="1.1" viewBox="0 0 40.3 128.5" xmlns="http://www.w3.org/2000/svg">
  <defs id="defs267">
    <linearGradient id="id1" x1="1" x2="0" y2="1">
      <stop id="stop3" stop-color="#fff" offset="-1"/>
      <stop id="stop5" offset="2"/>
    </linearGradient>
    <radialGradient id="id2">
      <stop id="stop8" offset=".76471"/>
      <stop id="stop10" stop-color="#fff" offset=".88235"/>
      <stop id="stop12" stop-color="#444" offset="1"/>
    </radialGradient>
    <linearGradient id="id3" x1="1" x2="0" y2="1">
      <stop id="stop15" offset="0"/>
      <stop id="stop17" stop-color="#333" offset="1"/>
    </linearGradient>
    <radialGradient id="id5">
      <stop id="stop25" offset=".69811"/>
      <stop id="stop27" stop-color="#fff" offset=".84906"/>
      <stop id="stop29" stop-color="#444" offset="1"/>
    </radialGradient>
    <radialGradient id="id6" cx=".65" cy=".6" r=".6">
      <stop id="stop32" stop-color="#eee" offset="0"/>
      <stop id="stop34" stop-color="#111" offset="1"/>
    </radialGradient>
    <linearGradient id="id7" x1="1" x2="0" y2="1">
      <stop id="stop37" stop-color="#555" offset="0"/>
      <stop id="stop39" stop-color="#111" offset="1"/>
    </linearGradient>
    <linearGradient id="id8" x1="1" x2="0" y2="1">
      <stop id="stop42" stop-color="#777" offset="0"/>
      <stop id="stop44" stop-color="#222" offset="1"/>
    </linearGradient>
    <linearGradient id="id9" x1="1" x2="0" y2="1">
      <stop id="stop47" stop-color="#fff" offset="0"/>
      <stop id="stop49" stop-color="#bbb" offset="1"/>
    </linearGradient>
    <filter id="id10" x="-.33739" y="-.33739" width="1.6748" height="1.6748">
      <feGaussianBlur id="feGaussianBlur52" in="SourceGraphic" stdDeviation="0.3"/>
    </filter>
    <filter id="id20" x="-.33739" y="-.33739" width="1.6748" height="1.6748">
      <feGaussianBlur id="feGaussianBlur104" in="SourceGraphic" stdDeviation="0.3"/>
    </filter>
    <filter id="id30" x="-.33739" y="-.33739" width="1.6748" height="1.6748">
      <feGaussianBlur id="feGaussianBlur156" in="SourceGraphic" stdDeviation="0.3"/>
    </filter>
    <filter id="id40" x="-.33739" y="-.33739" width="1.6748" height="1.6748">
      <feGaussianBlur id="feGaussianBlur208" in="SourceGraphic" stdDeviation="0.3"/>
    </filter>
    <radialGradient id="id50">
      <stop id="stop262" stop-color="#fff" offset="0"/>
      <stop id="stop264" stop-color="red" offset="1"/>
    </radialGradient>
  </defs>
  <rect id="background" width="40.3" height="128.5" fill="#fff"/>
  <g id="stencil" font-family="Ubuntu" font-size="3">
    <path id="path1374" d="m15.738 5.82q-0.05-0.12-0.135-0.305-0.08-0.185-0.175-0.4t-0.205-0.44q-0.105-0.23-0.2-0.43-0.095-0.205-0.18-0.365-0.08-0.16-0.13-0.245-0.055 0.59-0.09 1.28-0.035 0.685-0.06 1.385h-0.475q0.02-0.45 0.045-0.905 0.025-0.46 0.055-0.9 0.035-0.445 0.07-0.865 0.04-0.42 0.085-0.795h0.425q0.135 0.22 0.29 0.52t0.31 0.63q0.155 0.325 0.3 0.655 0.145 0.325 0.265 0.595 0.12-0.27 0.265-0.595 0.145-0.33 0.3-0.655 0.155-0.33 0.31-0.63t0.29-0.52h0.425q0.17 1.675 0.255 3.465h-0.475q-0.025-0.7-0.06-1.385-0.035-0.69-0.09-1.28-0.05 0.085-0.135 0.245-0.08 0.16-0.175 0.365-0.095 0.2-0.205 0.43-0.105 0.225-0.2 0.44t-0.18 0.4q-0.08 0.185-0.13 0.305z"/>
    <path id="path1376" d="m18.973 6.3h-0.465v-2.6h0.465zm-0.235-3.07q-0.125 0-0.215-0.08-0.085-0.085-0.085-0.225t0.085-0.22q0.09-0.085 0.215-0.085t0.21 0.085q0.09 0.08 0.09 0.22t-0.09 0.225q-0.085 0.08-0.21 0.08z"/>
    <path id="path1378" d="m21.328 6.3q-0.055-0.11-0.135-0.245t-0.175-0.275q-0.095-0.145-0.195-0.285t-0.195-0.265q-0.095 0.125-0.195 0.27-0.1 0.14-0.195 0.285-0.09 0.14-0.17 0.275t-0.135 0.24h-0.48q0.175-0.34 0.415-0.69 0.245-0.355 0.485-0.675l-0.86-1.235h0.525l0.62 0.91 0.625-0.91h0.495l-0.84 1.205q0.24 0.325 0.49 0.69 0.255 0.36 0.43 0.705z"/>
    <path id="path1380" d="m22.077 5.005q0-0.345 0.1-0.6 0.1-0.26 0.265-0.43t0.38-0.255 0.44-0.085q0.525 0 0.805 0.33 0.28 0.325 0.28 0.995 0 0.03 0 0.08 0 0.045-5e-3 0.085h-1.78q0.03 0.405 0.235 0.615t0.64 0.21q0.245 0 0.41-0.04 0.17-0.045 0.255-0.085l0.065 0.39q-0.085 0.045-0.3 0.095-0.21 0.05-0.48 0.05-0.34 0-0.59-0.1-0.245-0.105-0.405-0.285t-0.24-0.425q-0.075-0.25-0.075-0.545zm1.785-0.255q5e-3 -0.315-0.16-0.515-0.16-0.205-0.445-0.205-0.16 0-0.285 0.065-0.12 0.06-0.205 0.16t-0.135 0.23q-0.045 0.13-0.06 0.265z"/>
    <path id="path1382" d="m25.977 3.645q0.06 0 0.135 0.01 0.08 5e-3 0.155 0.02 0.075 0.01 0.135 0.025 0.065 0.01 0.095 0.02l-0.08 0.405q-0.055-0.02-0.185-0.045-0.125-0.03-0.325-0.03-0.13 0-0.26 0.03-0.125 0.025-0.165 0.035v2.185h-0.465v-2.49q0.165-0.06 0.41-0.11 0.245-0.055 0.55-0.055z"/>
    <path id="path273" transform="translate(12.65 119.5) scale(.15)" d="m23.274 0c-12.804 0-23.274 10.47-23.274 23.274 0 12.804 10.47 23.274 23.274 23.274 6.2817 0 11.38-2.5486 15.731-6.2455 1.5387-1.3073 3.0762-2.7877 4.6583-4.3876l-0.0086-5.8693-5.9894 0.0026c-1.4839 1.5057-2.8467 2.8283-4.0804 3.8765-3.5126 2.9845-6.0494 4.2541-10.311 4.2541-8.2813 0-14.905-6.6235-14.905-14.905 0-8.2813 6.6235-14.905 14.905-14.905 4.2612 0 6.7981 1.2697 10.311 4.2541 1.2337 1.0482 2.5965 2.3707 4.0804 3.8765l5.9894 0.0026 0.0086-5.8693c-1.5821-1.5999-3.1196-3.0803-4.6583-4.3876-4.351-3.6969-9.4489-6.2455-15.731-6.2455zm53.451 0c-6.2815 1.0197e-4 -11.379 2.5487-15.73 6.2455-1.6075 1.3659-3.2135 2.9188-4.8712 4.602h12.572c2.4765-1.7176 4.7403-2.4782 8.0292-2.4783h3.82e-4c6.2002 0 11.47 3.7129 13.728 9.0545l-6.0416-0.07531-8.5851-3.0797-28.741 3.81e-4v5.6456h-22.686v6.7186h22.686v5.6456l28.741 3.82e-4 8.5851-3.0797 6.0416-0.07531c-2.2576 5.3415-7.5279 9.0545-13.728 9.0545h-3.82e-4c-3.2889-5.9e-5 -5.5527-0.76071-8.0292-2.4783h-12.572c1.6577 1.6832 3.2637 3.2361 4.8712 4.602 4.3509 3.6968 9.4487 6.2454 15.73 6.2455h3.82e-4c12.804 0 23.274-10.47 23.274-23.274-8e-6 -12.804-10.47-23.274-23.274-23.274zm-59.712 19.295-2.8907 3.9786 2.8907 3.9786 4.6773-1.5197v-4.9178z"/>
    <path id="path278" d="m4.91 21.152h26.67v20.32" fill="none" stroke="#000" stroke-width=".6"/>
    <path id="path287" d="m4.91 41.472h26.67v20.32" fill="none" stroke="#000" stroke-width=".6"/>
    <path id="path296" d="m4.91 61.792h26.67v20.32" fill="none" stroke="#000" stroke-width=".6"/>
    <path id="path305" d="m4.91 82.112h26.67v20.32" fill="none" stroke="#000" stroke-width=".6"/>
    <path id="path314" d="m4.91 102.43h26.67" fill="none" stroke="#000" stroke-width=".6"/>
    <g id="g320" transform="translate(31.58,97.915)">
      <path id="path_voioqpediz" transform="matrix(.26458 0 0 .26458 -31.58 -97.915)" d="m108.4 370.51a5.6693 5.6693 0 0 0-5.668 5.6699v45.354a5.6693 5.6693 0 0 0 5.668 5.6699h21.922a5.6693 5.6693 0 0 0 5.6699-5.6699v-45.354a5.6693 5.6693 0 0 0-5.6699-5.6699zm10.961 2.6465a13.984 13.984 0 0 1 0 27.969 13.984 13.984 0 0 1 0-27.969zm-7.0801 36.182c0.50646 0 0.98175 0.0859 1.4277 0.25976 0.45354 0.17386 0.85125 0.43549 1.1914 0.78321 0.34016 0.34015 0.60816 0.76723 0.80469 1.2812 0.2041 0.51401 0.30664 1.1065 0.30664 1.7793 0 0.67276-0.10254 1.2672-0.30664 1.7812-0.19653 0.51402-0.46453 0.94525-0.80469 1.293-0.34015 0.34016-0.73786 0.59567-1.1914 0.76953-0.44599 0.17386-0.92128 0.26172-1.4277 0.26172-0.51401 0-1.0018-0.0879-1.4629-0.26172-0.45354-0.17386-0.85541-0.42937-1.2031-0.76953-0.34016-0.34772-0.61231-0.77895-0.81641-1.293-0.19653-0.51401-0.29492-1.1085-0.29492-1.7812 0-0.67275 0.0984-1.2653 0.29492-1.7793 0.2041-0.51402 0.47625-0.9411 0.81641-1.2812 0.34771-0.34772 0.74958-0.60935 1.2031-0.78321 0.46111-0.17386 0.94888-0.25976 1.4629-0.25976zm5.3047 0.18164h1.1016v4.8066c0 0.78614 0.17377 1.3576 0.52149 1.7129 0.34771 0.35527 0.8 0.5332 1.3594 0.5332 0.27969 0 0.533-0.0419 0.75977-0.125 0.23433-0.0907 0.43526-0.22678 0.60156-0.4082s0.29406-0.41172 0.38477-0.69141c0.0907-0.28724 0.13672-0.62841 0.13672-1.0215v-4.8066h1.0996v4.9316c0 0.43842-0.0607 0.84665-0.18165 1.2246-0.11338 0.37795-0.29352 0.70664-0.54296 0.98633-0.24189 0.27212-0.55174 0.48774-0.92969 0.64648-0.3704 0.15874-0.81411 0.23828-1.3281 0.23828-0.51401 0-0.95993-0.0795-1.3379-0.23828-0.37795-0.15874-0.6878-0.37436-0.92968-0.64648-0.24189-0.27969-0.42203-0.60838-0.54297-0.98633-0.11339-0.37796-0.17188-0.78619-0.17188-1.2246zm7.0644 0h6.043v0.95117h-2.4707v6.9062h-1.0996v-6.9062h-2.4727zm-12.393 0.78125c-0.40063 0-0.76286 0.0754-1.0879 0.22656-0.31748 0.14362-0.58964 0.35287-0.81641 0.625-0.21921 0.27213-0.39077 0.60498-0.51172 0.99805-0.12094 0.38551-0.17969 0.81479-0.17969 1.291s0.0588 0.91162 0.17969 1.3047c0.12095 0.38551 0.29251 0.7142 0.51172 0.98633 0.22677 0.27212 0.49893 0.48358 0.81641 0.63476 0.32503 0.14363 0.68726 0.21485 1.0879 0.21485s0.75869-0.0712 1.0762-0.21485c0.31748-0.15118 0.58743-0.36264 0.80664-0.63476 0.22677-0.27213 0.40054-0.60082 0.52148-0.98633 0.12095-0.39307 0.18164-0.82847 0.18164-1.3047s-0.0607-0.9055-0.18164-1.291c-0.12094-0.39307-0.29471-0.72592-0.52148-0.99805-0.21921-0.27213-0.48916-0.48138-0.80664-0.625-0.31748-0.15118-0.67554-0.22656-1.0762-0.22656z" style=""/>
    </g>
  </g>
  <g id="throughholes">
    <circle id="circle326" cx="7.45" cy="3" r="1.7"/>
    <circle id="circle328" cx="7.45" cy="125.5" r="1.7"/>
    <circle id="circle330" cx="32.85" cy="3" r="1.7"/>
    <circle id="circle332" cx="32.85" cy="125.5" r="1.7"/>
    <circle id="circle334" cx="4.91" cy="21.152" r="3.4"/>
    <circle id="circle338" cx="15.07" cy="21.08" r="2.65"/>
    <circle id="circle342" cx="31.58" cy="21.08" r="3.9"/>
    <circle id="circle346" cx="4.91" cy="41.472" r="3.4"/>
    <circle id="circle350" cx="15.07" cy="41.4" r="2.65"/>
    <circle id="circle354" cx="31.58" cy="41.4" r="3.9"/>
    <circle id="circle358" cx="4.91" cy="61.792" r="3.4"/>
    <circle id="circle362" cx="15.07" cy="61.72" r="2.65"/>
    <circle id="circle366" cx="31.58" cy="61.72" r="3.9"/>
    <circle id="circle370" cx="4.91" cy="82.112" r="3.4"/>
    <circle id="circle374" cx="15.07" cy="82.04" r="2.65"/>
    <circle id="circle378" cx="31.58" cy="82.04" r="3.9"/>
    <circle id="circle382" cx="4.91" cy="102.43" r="3.4"/>
    <circle id="circle386" cx="15.07" cy="102.36" r="2.65"/>
    <circle id="circle390" cx="31.58" cy="102.43" r="3.4"/>
    <circle id="circle394" cx="35.39" cy="94.74" r="1.5"/>
  </g>
  <g id="cosmetics">
    <g id="cosmetics_offset" transform="translate(20.15,16)">
      <g id="g406" transform="translate(-15.24 .635)">
        <path id="path400" d="m3.8 4.5169-0.01446 0.33119 0.15369 0.3634-0.075528 0.34068-0.29287 0.2644-0.12686 0.30627 0.020132 0.39405-0.18749 0.29431-0.36564 0.14829-0.22396 0.24441-0.11586 0.37717-0.27684 0.21243-0.39431 0.014288-0.29405 0.15307-0.23787 0.3148-0.3328 0.10493-0.37541-0.12143-0.32867 0.04327-0.33119 0.21446-0.34862-0.015221-0.31124-0.24251-0.32365-0.071751-0.38457 0.088252-0.32239-0.13354-0.20953-0.33433-0.27959-0.17812-0.39156-0.0486-0.25728-0.23575-0.082542-0.38583-0.20181-0.263-0.35132-0.17959-0.16113-0.30953 0.054399-0.3908-0.099686-0.31616-0.26871-0.28892-0.045548-0.34597 0.18478-0.34862 0.01446-0.33119-0.15369-0.3634 0.075528-0.34068 0.29287-0.2644 0.12686-0.30627-0.020132-0.39405 0.18749-0.29431 0.36564-0.14829 0.22396-0.24441 0.11586-0.37717 0.27684-0.21243 0.39431-0.014288 0.29405-0.15307 0.23787-0.3148 0.3328-0.10493 0.37541 0.12143 0.32867-0.04327 0.33119-0.21446 0.34862 0.015221 0.31124 0.24251 0.32365 0.071751 0.38457-0.088252 0.32239 0.13354 0.20953 0.33433 0.27959 0.17812 0.39156 0.0486 0.25728 0.23575 0.082542 0.38583 0.20181 0.263 0.35132 0.17959 0.16113 0.30953-0.054399 0.3908 0.099686 0.31616 0.26871 0.28892 0.045548 0.34597z" fill="url(#id1) none"/>
        <circle id="circle402" cy="4.5169" r="3.4" fill="url(#id2) none"/>
        <circle id="circle404" cy="4.5169" r="2.6" fill="url(#id3) none"/>
      </g>
      <g id="g416" transform="translate(-5.08,5.08)">
        <circle id="circle408" r="3" fill="url(#id1) none"/>
        <circle id="circle410" r="2.65" fill="url(#id5) none"/>
        <circle id="circle412" r="1.85" fill="#111"/>
        <path id="path414" d="m1.1 0 0.39933 3.98c0.24958 2.4875-3.2483 2.4875-2.9987 3.6723e-16l0.39933-3.98z" fill="url(#id6) none"/>
      </g>
      <g id="g428" transform="translate(3.81 2.54)">
        <circle id="circle418" cx="7.62" cy="2.54" r="8" fill="url(#id7) none"/>
        <path id="path420" d="m4.3872-1.9096a5.5 5.5 0 0 1 3.8077-1.0203l-0.052264 0.49726 1.511 0.40488 0.20337-0.45677a5.5 5.5 0 0 1 2.7874 2.7874l-0.45677 0.20337 0.40488 1.511 0.49726-0.052264a5.5 5.5 0 0 1-1.0203 3.8077l-0.40451-0.29389-1.1062 1.1062 0.29389 0.40451a5.5 5.5 0 0 1-3.8077 1.0203l0.052264-0.49726-1.511-0.40488-0.20337 0.45677a5.5 5.5 0 0 1-2.7874-2.7874l0.45677-0.20337-0.40488-1.511-0.49726 0.052264a5.5 5.5 0 0 1 1.0203-3.8077z" fill="url(#id8) none"/>
        <circle id="circle422" cx="7.62" cy="2.54" r="4" fill="url(#id9) none"/>
        <line id="line424" x1="6.1886" x2="3.0066" y1="2.0086" y2="-1.1734" filter="url(#id10)" opacity=".2" stroke="#000"/>
        <line id="line426" x1="6.4886" x2="3.3066" y1="1.4086" y2="-1.7734" stroke="#eee"/>
      </g>
      <g id="g436" transform="translate(-15.24 20.955)">
        <path id="path430" d="m3.8 4.5169-0.01446 0.33119 0.15369 0.3634-0.075528 0.34068-0.29287 0.2644-0.12686 0.30627 0.020132 0.39405-0.18749 0.29431-0.36564 0.14829-0.22396 0.24441-0.11586 0.37717-0.27684 0.21243-0.39431 0.014288-0.29405 0.15307-0.23787 0.3148-0.3328 0.10493-0.37541-0.12143-0.32867 0.04327-0.33119 0.21446-0.34862-0.015221-0.31124-0.24251-0.32365-0.071751-0.38457 0.088252-0.32239-0.13354-0.20953-0.33433-0.27959-0.17812-0.39156-0.0486-0.25728-0.23575-0.082542-0.38583-0.20181-0.263-0.35132-0.17959-0.16113-0.30953 0.054399-0.3908-0.099686-0.31616-0.26871-0.28892-0.045548-0.34597 0.18478-0.34862 0.01446-0.33119-0.15369-0.3634 0.075528-0.34068 0.29287-0.2644 0.12686-0.30627-0.020132-0.39405 0.18749-0.29431 0.36564-0.14829 0.22396-0.24441 0.11586-0.37717 0.27684-0.21243 0.39431-0.014288 0.29405-0.15307 0.23787-0.3148 0.3328-0.10493 0.37541 0.12143 0.32867-0.04327 0.33119-0.21446 0.34862 0.015221 0.31124 0.24251 0.32365 0.071751 0.38457-0.088252 0.32239 0.13354 0.20953 0.33433 0.27959 0.17812 0.39156 0.0486 0.25728 0.23575 0.082542 0.38583 0.20181 0.263 0.35132 0.17959 0.16113 0.30953-0.054399 0.3908 0.099686 0.31616 0.26871 0.28892 0.045548 0.34597z" fill="url(#id1) none"/>
        <circle id="circle432" cy="4.5169" r="3.4" fill="url(#id2) none"/>
        <circle id="circle434" cy="4.5169" r="2.6" fill="url(#id3) none"/>
      </g>
      <g id="g446" transform="translate(-5.08,25.4)">
        <circle id="circle438" r="3" fill="url(#id1) none"/>
        <circle id="circle440" r="2.65" fill="url(#id5) none"/>
        <circle id="circle442" r="1.85" fill="#111"/>
        <path id="path444" d="m1.1 0 0.39933 3.98c0.24958 2.4875-3.2483 2.4875-2.9987 3.6723e-16l0.39933-3.98z" fill="url(#id6) none"/>
      </g>
      <g id="g458" transform="translate(3.81 22.86)">
        <circle id="circle448" cx="7.62" cy="2.54" r="8" fill="url(#id7) none"/>
        <path id="path450" d="m4.3872-1.9096a5.5 5.5 0 0 1 3.8077-1.0203l-0.052264 0.49726 1.511 0.40488 0.20337-0.45677a5.5 5.5 0 0 1 2.7874 2.7874l-0.45677 0.20337 0.40488 1.511 0.49726-0.052264a5.5 5.5 0 0 1-1.0203 3.8077l-0.40451-0.29389-1.1062 1.1062 0.29389 0.40451a5.5 5.5 0 0 1-3.8077 1.0203l0.052264-0.49726-1.511-0.40488-0.20337 0.45677a5.5 5.5 0 0 1-2.7874-2.7874l0.45677-0.20337-0.40488-1.511-0.49726 0.052264a5.5 5.5 0 0 1 1.0203-3.8077z" fill="url(#id8) none"/>
        <circle id="circle452" cx="7.62" cy="2.54" r="4" fill="url(#id9) none"/>
        <line id="line454" x1="6.1886" x2="3.0066" y1="2.0086" y2="-1.1734" filter="url(#id20)" opacity=".2" stroke="#000"/>
        <line id="line456" x1="6.4886" x2="3.3066" y1="1.4086" y2="-1.7734" stroke="#eee"/>
      </g>
      <g id="g466" transform="translate(-15.24 41.275)">
        <path id="path460" d="m3.8 4.5169-0.01446 0.33119 0.15369 0.3634-0.075528 0.34068-0.29287 0.2644-0.12686 0.30627 0.020132 0.39405-0.18749 0.29431-0.36564 0.14829-0.22396 0.24441-0.11586 0.37717-0.27684 0.21243-0.39431 0.014288-0.29405 0.15307-0.23787 0.3148-0.3328 0.10493-0.37541-0.12143-0.32867 0.04327-0.33119 0.21446-0.34862-0.015221-0.31124-0.24251-0.32365-0.071751-0.38457 0.088252-0.32239-0.13354-0.20953-0.33433-0.27959-0.17812-0.39156-0.0486-0.25728-0.23575-0.082542-0.38583-0.20181-0.263-0.35132-0.17959-0.16113-0.30953 0.054399-0.3908-0.099686-0.31616-0.26871-0.28892-0.045548-0.34597 0.18478-0.34862 0.01446-0.33119-0.15369-0.3634 0.075528-0.34068 0.29287-0.2644 0.12686-0.30627-0.020132-0.39405 0.18749-0.29431 0.36564-0.14829 0.22396-0.24441 0.11586-0.37717 0.27684-0.21243 0.39431-0.014288 0.29405-0.15307 0.23787-0.3148 0.3328-0.10493 0.37541 0.12143 0.32867-0.04327 0.33119-0.21446 0.34862 0.015221 0.31124 0.24251 0.32365 0.071751 0.38457-0.088252 0.32239 0.13354 0.20953 0.33433 0.27959 0.17812 0.39156 0.0486 0.25728 0.23575 0.082542 0.38583 0.20181 0.263 0.35132 0.17959 0.16113 0.30953-0.054399 0.3908 0.099686 0.31616 0.26871 0.28892 0.045548 0.34597z" fill="url(#id1) none"/>
        <circle id="circle462" cy="4.5169" r="3.4" fill="url(#id2) none"/>
        <circle id="circle464" cy="4.5169" r="2.6" fill="url(#id3) none"/>
      </g>
      <g id="g476" transform="translate(-5.08,45.72)">
        <circle id="circle468" r="3" fill="url(#id1) none"/>
        <circle id="circle470" r="2.65" fill="url(#id5) none"/>
        <circle id="circle472" r="1.85" fill="#111"/>
        <path id="path474" d="m1.1 0 0.39933 3.98c0.24958 2.4875-3.2483 2.4875-2.9987 3.6723e-16l0.39933-3.98z" fill="url(#id6) none"/>
      </g>
      <g id="g488" transform="translate(3.81 43.18)">
        <circle id="circle478" cx="7.62" cy="2.54" r="8" fill="url(#id7) none"/>
        <path id="path480" d="m4.3872-1.9096a5.5 5.5 0 0 1 3.8077-1.0203l-0.052264 0.49726 1.511 0.40488 0.20337-0.45677a5.5 5.5 0 0 1 2.7874 2.7874l-0.45677 0.20337 0.40488 1.511 0.49726-0.052264a5.5 5.5 0 0 1-1.0203 3.8077l-0.40451-0.29389-1.1062 1.1062 0.29389 0.40451a5.5 5.5 0 0 1-3.8077 1.0203l0.052264-0.49726-1.511-0.40488-0.20337 0.45677a5.5 5.5 0 0 1-2.7874-2.7874l0.45677-0.20337-0.40488-1.511-0.49726 0.052264a5.5 5.5 0 0 1 1.0203-3.8077z" fill="url(#id8) none"/>
        <circle id="circle482" cx="7.62" cy="2.54" r="4" fill="url(#id9) none"/>
        <line id="line484" x1="6.1886" x2="3.0066" y1="2.0086" y2="-1.1734" filter="url(#id30)" opacity=".2" stroke="#000"/>
        <line id="line486" x1="6.4886" x2="3.3066" y1="1.4086" y2="-1.7734" stroke="#eee"/>
      </g>
      <g id="g496" transform="translate(-15.24 61.595)">
        <path id="path490" d="m3.8 4.5169-0.01446 0.33119 0.15369 0.3634-0.075528 0.34068-0.29287 0.2644-0.12686 0.30627 0.020132 0.39405-0.18749 0.29431-0.36564 0.14829-0.22396 0.24441-0.11586 0.37717-0.27684 0.21243-0.39431 0.014288-0.29405 0.15307-0.23787 0.3148-0.3328 0.10493-0.37541-0.12143-0.32867 0.04327-0.33119 0.21446-0.34862-0.015221-0.31124-0.24251-0.32365-0.071751-0.38457 0.088252-0.32239-0.13354-0.20953-0.33433-0.27959-0.17812-0.39156-0.0486-0.25728-0.23575-0.082542-0.38583-0.20181-0.263-0.35132-0.17959-0.16113-0.30953 0.054399-0.3908-0.099686-0.31616-0.26871-0.28892-0.045548-0.34597 0.18478-0.34862 0.01446-0.33119-0.15369-0.3634 0.075528-0.34068 0.29287-0.2644 0.12686-0.30627-0.020132-0.39405 0.18749-0.29431 0.36564-0.14829 0.22396-0.24441 0.11586-0.37717 0.27684-0.21243 0.39431-0.014288 0.29405-0.15307 0.23787-0.3148 0.3328-0.10493 0.37541 0.12143 0.32867-0.04327 0.33119-0.21446 0.34862 0.015221 0.31124 0.24251 0.32365 0.071751 0.38457-0.088252 0.32239 0.13354 0.20953 0.33433 0.27959 0.17812 0.39156 0.0486 0.25728 0.23575 0.082542 0.38583 0.20181 0.263 0.35132 0.17959 0.16113 0.30953-0.054399 0.3908 0.099686 0.31616 0.26871 0.28892 0.045548 0.34597z" fill="url(#id1) none"/>
        <circle id="circle492" cy="4.5169" r="3.4" fill="url(#id2) none"/>
        <circle id="circle494" cy="4.5169" r="2.6" fill="url(#id3) none"/>
      </g>
      <g id="g506" transform="translate(-5.08,66.04)">
        <circle id="circle498" r="3" fill="url(#id1) none"/>
        <circle id="circle500" r="2.65" fill="url(#id5) none"/>
        <circle id="circle502" r="1.85" fill="#111"/>
        <path id="path504" d="m1.1 0 0.39933 3.98c0.24958 2.4875-3.2483 2.4875-2.9987 3.6723e-16l0.39933-3.98z" fill="url(#id6) none"/>
      </g>
      <g id="g518" transform="translate(3.81 63.5)">
        <circle id="circle508" cx="7.62" cy="2.54" r="8" fill="url(#id7) none"/>
        <path id="path510" d="m4.3872-1.9096a5.5 5.5 0 0 1 3.8077-1.0203l-0.052264 0.49726 1.511 0.40488 0.20337-0.45677a5.5 5.5 0 0 1 2.7874 2.7874l-0.45677 0.20337 0.40488 1.511 0.49726-0.052264a5.5 5.5 0 0 1-1.0203 3.8077l-0.40451-0.29389-1.1062 1.1062 0.29389 0.40451a5.5 5.5 0 0 1-3.8077 1.0203l0.052264-0.49726-1.511-0.40488-0.20337 0.45677a5.5 5.5 0 0 1-2.7874-2.7874l0.45677-0.20337-0.40488-1.511-0.49726 0.052264a5.5 5.5 0 0 1 1.0203-3.8077z" fill="url(#id8) none"/>
        <circle id="circle512" cx="7.62" cy="2.54" r="4" fill="url(#id9) none"/>
        <line id="line514" x1="6.1886" x2="3.0066" y1="2.0086" y2="-1.1734" filter="url(#id40)" opacity=".2" stroke="#000"/>
        <line id="line516" x1="6.4886" x2="3.3066" y1="1.4086" y2="-1.7734" stroke="#eee"/>
      </g>
      <g id="g526" transform="translate(-15.24 81.915)">
        <path id="path520" d="m3.8 4.5169-0.01446 0.33119 0.15369 0.3634-0.075528 0.34068-0.29287 0.2644-0.12686 0.30627 0.020132 0.39405-0.18749 0.29431-0.36564 0.14829-0.22396 0.24441-0.11586 0.37717-0.27684 0.21243-0.39431 0.014288-0.29405 0.15307-0.23787 0.3148-0.3328 0.10493-0.37541-0.12143-0.32867 0.04327-0.33119 0.21446-0.34862-0.015221-0.31124-0.24251-0.32365-0.071751-0.38457 0.088252-0.32239-0.13354-0.20953-0.33433-0.27959-0.17812-0.39156-0.0486-0.25728-0.23575-0.082542-0.38583-0.20181-0.263-0.35132-0.17959-0.16113-0.30953 0.054399-0.3908-0.099686-0.31616-0.26871-0.28892-0.045548-0.34597 0.18478-0.34862 0.01446-0.33119-0.15369-0.3634 0.075528-0.34068 0.29287-0.2644 0.12686-0.30627-0.020132-0.39405 0.18749-0.29431 0.36564-0.14829 0.22396-0.24441 0.11586-0.37717 0.27684-0.21243 0.39431-0.014288 0.29405-0.15307 0.23787-0.3148 0.3328-0.10493 0.37541 0.12143 0.32867-0.04327 0.33119-0.21446 0.34862 0.015221 0.31124 0.24251 0.32365 0.071751 0.38457-0.088252 0.32239 0.13354 0.20953 0.33433 0.27959 0.17812 0.39156 0.0486 0.25728 0.23575 0.082542 0.38583 0.20181 0.263 0.35132 0.17959 0.16113 0.30953-0.054399 0.3908 0.099686 0.31616 0.26871 0.28892 0.045548 0.34597z" fill="url(#id1) none"/>
        <circle id="circle522" cy="4.5169" r="3.4" fill="url(#id2) none"/>
        <circle id="circle524" cy="4.5169" r="2.6" fill="url(#id3) none"/>
      </g>
      <g id="g536" transform="translate(-5.08,86.36)">
        <circle id="circle528" r="3" fill="url(#id1) none"/>
        <circle id="circle530" r="2.65" fill="url(#id5) none"/>
        <circle id="circle532" r="1.85" fill="#111"/>
        <path id="path534" d="m1.1 0 0.39933 3.98c0.24958 2.4875-3.2483 2.4875-2.9987 3.6723e-16l0.39933-3.98z" fill="url(#id6) none"/>
      </g>
      <g id="g544" transform="translate(11.43,81.915)">
        <path id="path538" d="m3.8 4.5169-0.01446 0.33119 0.15369 0.3634-0.075528 0.34068-0.29287 0.2644-0.12686 0.30627 0.020132 0.39405-0.18749 0.29431-0.36564 0.14829-0.22396 0.24441-0.11586 0.37717-0.27684 0.21243-0.39431 0.014288-0.29405 0.15307-0.23787 0.3148-0.3328 0.10493-0.37541-0.12143-0.32867 0.04327-0.33119 0.21446-0.34862-0.015221-0.31124-0.24251-0.32365-0.071751-0.38457 0.088252-0.32239-0.13354-0.20953-0.33433-0.27959-0.17812-0.39156-0.0486-0.25728-0.23575-0.082542-0.38583-0.20181-0.263-0.35132-0.17959-0.16113-0.30953 0.054399-0.3908-0.099686-0.31616-0.26871-0.28892-0.045548-0.34597 0.18478-0.34862 0.01446-0.33119-0.15369-0.3634 0.075528-0.34068 0.29287-0.2644 0.12686-0.30627-0.020132-0.39405 0.18749-0.29431 0.36564-0.14829 0.22396-0.24441 0.11586-0.37717 0.27684-0.21243 0.39431-0.014288 0.29405-0.15307 0.23787-0.3148 0.3328-0.10493 0.37541 0.12143 0.32867-0.04327 0.33119-0.21446 0.34862 0.015221 0.31124 0.24251 0.32365 0.071751 0.38457-0.088252 0.32239 0.13354 0.20953 0.33433 0.27959 0.17812 0.39156 0.0486 0.25728 0.23575 0.082542 0.38583 0.20181 0.263 0.35132 0.17959 0.16113 0.30953-0.054399 0.3908 0.099686 0.31616 0.26871 0.28892 0.045548 0.34597z" fill="url(#id1) none"/>
        <circle id="circle540" cy="4.5169" r="3.4" fill="url(#id2) none"/>
        <circle id="circle542" cy="4.5169" r="2.6" fill="url(#id3) none"/>
      </g>
      <g id="g550" transform="translate(15.24 77.47)">
        <circle id="circle546" cy="1.27" r="1.5" fill="url(#id50) none"/>
        <ellipse id="ellipse548" transform="rotate(20 .5 .52)" cx=".5" cy=".52" rx=".75" ry=".5" fill="#fff" opacity=".8"/>
      </g>
    </g>
  </g>
</svg>
