<?xml version="1.0" encoding="UTF-8" standalone="no"?>
<svg
   id="svg66"
   width="20mm"
   height="128.5mm"
   version="1.1"
   viewBox="0 0 20 128.5"
   sodipodi:docname="boost_faceplate.svg"
   inkscape:version="1.3.2 (091e20ef0f, 2023-11-25)"
   xmlns:inkscape="http://www.inkscape.org/namespaces/inkscape"
   xmlns:sodipodi="http://sodipodi.sourceforge.net/DTD/sodipodi-0.dtd"
   xmlns="http://www.w3.org/2000/svg"
   xmlns:svg="http://www.w3.org/2000/svg">
  <defs
     id="defs1" />
  <sodipodi:namedview
     id="namedview1"
     pagecolor="#ffffff"
     bordercolor="#000000"
     borderopacity="0.25"
     inkscape:showpageshadow="2"
     inkscape:pageopacity="0.0"
     inkscape:pagecheckerboard="0"
     inkscape:deskcolor="#d1d1d1"
     inkscape:document-units="mm"
     inkscape:zoom="1.1332091"
     inkscape:cx="56.035556"
     inkscape:cy="250.17449"
     inkscape:window-width="960"
     inkscape:window-height="1011"
     inkscape:window-x="960"
     inkscape:window-y="32"
     inkscape:window-maximized="0"
     inkscape:current-layer="svg66" />
  <rect
     id="background"
     width="20"
     height="128.5"
     fill="#fff" />
  <g
     id="stencil"
     font-family="Ubuntu"
     font-size="3">
    <path
       id="path886"
       d="m4.6875 10.03q-0.105 0-0.23-5e-3 -0.12-5e-3 -0.245-0.015-0.12-0.01-0.24-0.025t-0.22-0.04v-3.36q0.1-0.025 0.22-0.04t0.24-0.025q0.125-0.01 0.245-0.015t0.225-5e-3q0.3 0 0.56 0.045 0.265 0.045 0.455 0.155 0.195 0.105 0.305 0.28t0.11 0.43q0 0.285-0.135 0.47-0.135 0.18-0.36 0.27 0.305 0.09 0.485 0.285t0.18 0.55q0 0.52-0.385 0.785-0.38 0.26-1.21 0.26zm-0.455-1.645v1.22q0.055 5e-3 0.13 0.01 0.065 5e-3 0.15 0.01 0.09 0 0.205 0 0.215 0 0.405-0.025 0.195-0.03 0.34-0.1t0.23-0.195q0.09-0.125 0.09-0.315 0-0.17-0.065-0.285-0.065-0.12-0.19-0.19-0.12-0.07-0.29-0.1t-0.38-0.03zm0-0.39h0.51q0.18 0 0.34-0.025t0.275-0.09q0.12-0.065 0.185-0.17 0.07-0.105 0.07-0.265 0-0.15-0.07-0.25-0.07-0.105-0.195-0.165-0.12-0.065-0.285-0.095t-0.35-0.03-0.29 5e-3 -0.19 0.015z" />
    <path
       id="path888"
       d="m9.2325 8.7q0 0.31-0.09 0.56t-0.255 0.43q-0.16 0.18-0.385 0.28-0.225 0.095-0.49 0.095t-0.49-0.095q-0.225-0.1-0.39-0.28-0.16-0.18-0.25-0.43t-0.09-0.56q0-0.305 0.09-0.555 0.09-0.255 0.25-0.435 0.165-0.18 0.39-0.275 0.225-0.1 0.49-0.1t0.49 0.1q0.225 0.095 0.385 0.275 0.165 0.18 0.255 0.435 0.09 0.25 0.09 0.555zm-0.485 0q0-0.44-0.2-0.695-0.195-0.26-0.535-0.26t-0.54 0.26q-0.195 0.255-0.195 0.695t0.195 0.7q0.2 0.255 0.54 0.255t0.535-0.255q0.2-0.26 0.2-0.7z" />
    <path
       id="path890"
       d="m12.183 8.7q0 0.31-0.09 0.56t-0.255 0.43q-0.16 0.18-0.385 0.28-0.225 0.095-0.49 0.095t-0.49-0.095q-0.225-0.1-0.39-0.28-0.16-0.18-0.25-0.43t-0.09-0.56q0-0.305 0.09-0.555 0.09-0.255 0.25-0.435 0.165-0.18 0.39-0.275 0.225-0.1 0.49-0.1t0.49 0.1q0.225 0.095 0.385 0.275 0.165 0.18 0.255 0.435 0.09 0.25 0.09 0.555zm-0.485 0q0-0.44-0.2-0.695-0.195-0.26-0.535-0.26t-0.54 0.26q-0.195 0.255-0.195 0.695t0.195 0.7q0.2 0.255 0.54 0.255t0.535-0.255q0.2-0.26 0.2-0.7z" />
    <path
       id="path892"
       d="m13.442 9.665q0.285 0 0.42-0.075 0.14-0.075 0.14-0.24 0-0.17-0.135-0.27t-0.445-0.225q-0.15-0.06-0.29-0.12-0.135-0.065-0.235-0.15t-0.16-0.205-0.06-0.295q0-0.345 0.255-0.545 0.255-0.205 0.695-0.205 0.11 0 0.22 0.015 0.11 0.01 0.205 0.03 0.095 0.015 0.165 0.035 0.075 0.02 0.115 0.035l-0.085 0.4q-0.075-0.04-0.235-0.08-0.16-0.045-0.385-0.045-0.195 0-0.34 0.08-0.145 0.075-0.145 0.24 0 0.085 0.03 0.15 0.035 0.065 0.1 0.12 0.07 0.05 0.17 0.095t0.24 0.095q0.185 0.07 0.33 0.14 0.145 0.065 0.245 0.155 0.105 0.09 0.16 0.22 0.055 0.125 0.055 0.31 0 0.36-0.27 0.545-0.265 0.185-0.76 0.185-0.345 0-0.54-0.06-0.195-0.055-0.265-0.085l0.085-0.4q0.08 0.03 0.255 0.09t0.465 0.06z" />
    <path
       id="path894"
       d="m15.502 7.4h0.985v0.39h-0.985v1.2q0 0.195 0.03 0.325 0.03 0.125 0.09 0.2 0.06 0.07 0.15 0.1t0.21 0.03q0.21 0 0.335-0.045 0.13-0.05 0.18-0.07l0.09 0.385q-0.07 0.035-0.245 0.085-0.175 0.055-0.4 0.055-0.265 0-0.44-0.065-0.17-0.07-0.275-0.205t-0.15-0.33q-0.04-0.2-0.04-0.46v-2.32l0.465-0.08z" />
    <path
       id="path25"
       transform="translate(2.5 116.5) scale(.15)"
       d="m23.274 0c-12.804 0-23.274 10.47-23.274 23.274 0 12.804 10.47 23.274 23.274 23.274 6.2817 0 11.38-2.5486 15.731-6.2455 1.5387-1.3073 3.0762-2.7877 4.6583-4.3876l-0.0086-5.8693-5.9894 0.0026c-1.4839 1.5057-2.8467 2.8283-4.0804 3.8765-3.5126 2.9845-6.0494 4.2541-10.311 4.2541-8.2813 0-14.905-6.6235-14.905-14.905 0-8.2813 6.6235-14.905 14.905-14.905 4.2612 0 6.7981 1.2697 10.311 4.2541 1.2337 1.0482 2.5965 2.3707 4.0804 3.8765l5.9894 0.0026 0.0086-5.8693c-1.5821-1.5999-3.1196-3.0803-4.6583-4.3876-4.351-3.6969-9.4489-6.2455-15.731-6.2455zm53.451 0c-6.2815 1.0197e-4 -11.379 2.5487-15.73 6.2455-1.6075 1.3659-3.2135 2.9188-4.8712 4.602h12.572c2.4765-1.7176 4.7403-2.4782 8.0292-2.4783h3.82e-4c6.2002 0 11.47 3.7129 13.728 9.0545l-6.0416-0.07531-8.5851-3.0797-28.741 3.81e-4v5.6456h-22.686v6.7186h22.686v5.6456l28.741 3.82e-4 8.5851-3.0797 6.0416-0.07531c-2.2576 5.3415-7.5279 9.0545-13.728 9.0545h-3.82e-4c-3.2889-5.9e-5 -5.5527-0.76071-8.0292-2.4783h-12.572c1.6577 1.6832 3.2637 3.2361 4.8712 4.602 4.3509 3.6968 9.4487 6.2454 15.73 6.2455h3.82e-4c12.804 0 23.274-10.47 23.274-23.274-8e-6 -12.804-10.47-23.274-23.274-23.274zm-59.712 19.295-2.8907 3.9786 2.8907 3.9786 4.6773-1.5197v-4.9178z" />
    <g
       id="g29"
       transform="translate(7.46,32.32)">
      <path
         id="path897"
         d="m0.90651 2.839q0 0.27-0.084 0.471-0.084 0.198-0.237 0.33-0.153 0.129-0.366 0.195-0.213 0.063-0.468 0.063-0.126 0-0.279-0.012-0.15-9e-3 -0.273-0.039v-2.016q0.123-0.03 0.273-0.039 0.153-0.012 0.279-0.012 0.255 0 0.468 0.066 0.213 0.063 0.366 0.195 0.153 0.129 0.237 0.33 0.084 0.198 0.084 0.468zm-1.131 0.804q0.414 0 0.618-0.21 0.204-0.213 0.204-0.594t-0.204-0.591q-0.204-0.213-0.618-0.213-0.123 0-0.192 3e-3 -0.066 3e-3 -0.093 6e-3v1.59q0.027 3e-3 0.093 6e-3 0.069 3e-3 0.192 3e-3z" />
      <path
         id="path899"
         d="m1.8965 2.287q0.036 0 0.081 6e-3 0.048 3e-3 0.093 0.012 0.045 6e-3 0.081 0.015 0.039 6e-3 0.057 0.012l-0.048 0.243q-0.033-0.012-0.111-0.027-0.075-0.018-0.195-0.018-0.078 0-0.156 0.018-0.075 0.015-0.099 0.021v1.311h-0.279v-1.494q0.099-0.036 0.246-0.066 0.147-0.033 0.33-0.033z" />
      <path
         id="path901"
         d="m2.7575 3.88h-0.279v-1.56h0.279zm-0.141-1.842q-0.075 0-0.129-0.048-0.051-0.051-0.051-0.135t0.051-0.132q0.054-0.051 0.129-0.051t0.126 0.051q0.054 0.048 0.054 0.132t-0.054 0.135q-0.051 0.048-0.126 0.048z" />
      <path
         id="path903"
         d="m4.4555 2.32q-0.117 0.438-0.276 0.84-0.156 0.402-0.303 0.72h-0.252q-0.147-0.318-0.306-0.72-0.156-0.402-0.273-0.84h0.3q0.036 0.147 0.084 0.315 0.051 0.165 0.105 0.33 0.057 0.162 0.114 0.315t0.108 0.273q0.051-0.12 0.108-0.273t0.111-0.315q0.057-0.165 0.105-0.33 0.051-0.168 0.087-0.315z" />
      <path
         id="path905"
         d="m4.6145 3.103q0-0.207 0.06-0.36 0.06-0.156 0.159-0.258t0.228-0.153 0.264-0.051q0.315 0 0.483 0.198 0.168 0.195 0.168 0.597 0 0.018 0 0.048 0 0.027-3e-3 0.051h-1.068q0.018 0.243 0.141 0.369t0.384 0.126q0.147 0 0.246-0.024 0.102-0.027 0.153-0.051l0.039 0.234q-0.051 0.027-0.18 0.057-0.126 0.03-0.288 0.03-0.204 0-0.354-0.06-0.147-0.063-0.243-0.171t-0.144-0.255q-0.045-0.15-0.045-0.327zm1.071-0.153q3e-3 -0.189-0.096-0.309-0.096-0.123-0.267-0.123-0.096 0-0.171 0.039-0.072 0.036-0.123 0.096t-0.081 0.138q-0.027 0.078-0.036 0.159z" />
    </g>
    <g
       id="g33"
       transform="translate(7.46,55.18)">
      <path
         id="path908"
         d="m0.83751 1.801v0.252h-0.654v1.827h-0.291v-1.827h-0.654v-0.252z" />
      <path
         id="path910"
         d="m2.3375 3.1q0 0.186-0.054 0.336t-0.153 0.258q-0.096 0.108-0.231 0.168-0.135 0.057-0.294 0.057t-0.294-0.057q-0.135-0.06-0.234-0.168-0.096-0.108-0.15-0.258-0.054-0.15-0.054-0.336 0-0.183 0.054-0.333 0.054-0.153 0.15-0.261 0.099-0.108 0.234-0.165 0.135-0.06 0.294-0.06t0.294 0.06q0.135 0.057 0.231 0.165 0.099 0.108 0.153 0.261 0.054 0.15 0.054 0.333zm-0.291 0q0-0.264-0.12-0.417-0.117-0.156-0.321-0.156t-0.324 0.156q-0.117 0.153-0.117 0.417t0.117 0.42q0.12 0.153 0.324 0.153t0.321-0.153q0.12-0.156 0.12-0.42z" />
      <path
         id="path912"
         d="m2.7305 2.365q0.096-0.024 0.255-0.051t0.366-0.027q0.186 0 0.309 0.054 0.123 0.051 0.195 0.147 0.075 0.093 0.105 0.225t0.03 0.291v0.876h-0.279v-0.816q0-0.144-0.021-0.246-0.018-0.102-0.063-0.165t-0.12-0.09q-0.075-0.03-0.186-0.03-0.045 0-0.093 3e-3t-0.093 9e-3q-0.042 3e-3 -0.078 9e-3 -0.033 6e-3 -0.048 9e-3v1.317h-0.279z" />
      <path
         id="path914"
         d="m4.3655 3.103q0-0.207 0.06-0.36 0.06-0.156 0.159-0.258t0.228-0.153 0.264-0.051q0.315 0 0.483 0.198 0.168 0.195 0.168 0.597 0 0.018 0 0.048 0 0.027-3e-3 0.051h-1.068q0.018 0.243 0.141 0.369t0.384 0.126q0.147 0 0.246-0.024 0.102-0.027 0.153-0.051l0.039 0.234q-0.051 0.027-0.18 0.057-0.126 0.03-0.288 0.03-0.204 0-0.354-0.06-0.147-0.063-0.243-0.171t-0.144-0.255q-0.045-0.15-0.045-0.327zm1.071-0.153q3e-3 -0.189-0.096-0.309-0.096-0.123-0.267-0.123-0.096 0-0.171 0.039-0.072 0.036-0.123 0.096t-0.081 0.138q-0.027 0.078-0.036 0.159z" />
    </g>
    <g
       id="g36"
       transform="translate(10,83.12)">
      <path
         id="path917"
         d="m-1.0065 5.921h0.291v2.079h-0.291z" />
      <path
         id="path919"
         d="m-0.2175 6.485q0.096-0.024 0.255-0.051t0.366-0.027q0.186 0 0.309 0.054 0.123 0.051 0.195 0.147 0.075 0.093 0.105 0.225 0.03 0.132 0.03 0.291v0.876h-0.279v-0.816q0-0.144-0.021-0.246-0.018-0.102-0.063-0.165t-0.12-0.09q-0.075-0.03-0.186-0.03-0.045 0-0.093 3e-3t-0.093 9e-3q-0.042 3e-3 -0.078 9e-3 -0.033 6e-3 -0.048 9e-3v1.317h-0.279z" />
    </g>
    <g
       id="g40"
       transform="translate(10,100.9)">
      <path
         id="path_ijdofxgpzq"
         transform="matrix(.26458 0 0 .26458 -10 -100.9)"
         d="m25.891 363.78a5.6693 5.6693 0 0 0-5.6699 5.6699v45.354a5.6693 5.6693 0 0 0 5.6699 5.6699h23.811a5.6693 5.6693 0 0 0 5.668-5.6699v-45.354a5.6693 5.6693 0 0 0-5.668-5.6699zm11.904 4.3476a13.228 13.228 0 0 1 0 26.455 13.228 13.228 0 0 1 0-26.455zm-5.5098 35.424c0.50646 0 0.98175 0.0879 1.4277 0.26172 0.45354 0.17386 0.85125 0.43353 1.1914 0.78125 0.34016 0.34016 0.60815 0.76723 0.80469 1.2812 0.2041 0.51402 0.30664 1.1085 0.30664 1.7812s-0.10255 1.2653-0.30664 1.7793c-0.19654 0.51401-0.46453 0.94525-0.80469 1.293-0.34016 0.34015-0.73786 0.59762-1.1914 0.77148-0.44598 0.17386-0.92128 0.25977-1.4277 0.25977-0.51402 0-1.0018-0.0859-1.4629-0.25977-0.45354-0.17386-0.85346-0.43133-1.2012-0.77148-0.34016-0.34772-0.61231-0.77896-0.81641-1.293-0.19654-0.51402-0.29492-1.1065-0.29492-1.7793s0.09839-1.2672 0.29492-1.7812c0.20409-0.51402 0.47625-0.94109 0.81641-1.2812 0.34772-0.34772 0.74763-0.60739 1.2012-0.78125 0.4611-0.17386 0.94888-0.26172 1.4629-0.26172zm12.789 0.31836v1.8262h2.2344v0.88281h-2.2344v2.7227c0 0.2948 0.023 0.53979 0.06836 0.73633 0.04535 0.18898 0.11437 0.33974 0.20508 0.45312 0.09071 0.10583 0.20378 0.18121 0.33984 0.22657 0.13606 0.0454 0.29514 0.0684 0.47656 0.0684 0.31748 0 0.56884-0.0335 0.75781-0.10157 0.19654-0.0756 0.33261-0.12796 0.4082-0.1582l0.20508 0.87305c-0.10583 0.0529-0.29012 0.11581-0.55469 0.1914-0.26457 0.0832-0.56805 0.125-0.9082 0.125-0.40063 0-0.73348-0.0482-0.99805-0.14648-0.25701-0.10583-0.46431-0.26075-0.62305-0.46484-0.15874-0.2041-0.27181-0.45325-0.33984-0.74805-0.06047-0.30236-0.0918-0.65185-0.0918-1.0449v-5.2598zm-12.812 0.64648c-0.40063 0-0.76285 0.0754-1.0879 0.22657-0.31748 0.14362-0.58963 0.35092-0.81641 0.62304-0.21921 0.27213-0.38882 0.60498-0.50977 0.99805-0.12094 0.38551-0.18164 0.81675-0.18164 1.293s0.0607 0.91162 0.18164 1.3047c0.12094 0.38551 0.29055 0.7142 0.50977 0.98633 0.22677 0.27212 0.49893 0.48358 0.81641 0.63476 0.32504 0.14362 0.68726 0.21485 1.0879 0.21485s0.76064-0.0712 1.0781-0.21485c0.31748-0.15118 0.58548-0.36264 0.80469-0.63476 0.22677-0.27213 0.40054-0.60082 0.52148-0.98633 0.12094-0.39307 0.18164-0.82847 0.18164-1.3047s-0.0607-0.90746-0.18164-1.293c-0.12094-0.39307-0.29471-0.72592-0.52148-0.99805-0.21921-0.27212-0.48721-0.47942-0.80469-0.62304-0.31748-0.15118-0.6775-0.22656-1.0781-0.22657zm5.25 1.1797h1.0547v3.084c0 0.71811 0.11307 1.2311 0.33984 1.541s0.60784 0.46485 1.1445 0.46485c0.11339 0 0.23062-4e-3 0.35156-0.0117 0.12094-8e-3 0.23597-0.0139 0.3418-0.0215 0.10583-0.0151 0.20005-0.0276 0.2832-0.0352 0.09071-0.0151 0.15361-0.0298 0.19141-0.0449v-4.9766h1.0547v5.7246c-0.24189 0.0605-0.56226 0.12533-0.96289 0.19336-0.39307 0.068-0.85147 0.10156-1.373 0.10156-0.45354 0-0.83461-0.0629-1.1445-0.1914-0.30992-0.13607-0.55907-0.32647-0.74805-0.56836-0.18898-0.24189-0.32505-0.52457-0.4082-0.84961-0.08315-0.3326-0.125-0.69898-0.125-1.0996z"
         style="" />
    </g>
  </g>
</svg>
