<svg xmlns:inkscape="http://www.inkscape.org/namespaces/inkscape" xmlns:sodipodi="http://sodipodi.sourceforge.net/DTD/sodipodi-0.dtd" xmlns="http://www.w3.org/2000/svg" xmlns:svg="http://www.w3.org/2000/svg" height="128.5mm" version="1.1" viewBox="0,0,19.82,128.5" width="19.82mm" id="svg63" sodipodi:docname="dd_faceplate.svg" inkscape:version="1.1.2 (0a00cf5339, 2022-02-04)">
  <sodipodi:namedview id="namedview65" pagecolor="#ffffff" bordercolor="#666666" borderopacity="1.0" inkscape:pageshadow="2" inkscape:pageopacity="0.0" inkscape:pagecheckerboard="0" inkscape:document-units="mm" showgrid="false" inkscape:zoom="1.5710279" inkscape:cx="37.55503" inkscape:cy="242.83465" inkscape:window-width="1495" inkscape:window-height="972" inkscape:window-x="0" inkscape:window-y="32" inkscape:window-maximized="0" inkscape:current-layer="svg63"/>
  <defs id="defs3">
    </defs>
  <rect fill="white" height="128.5" id="background" width="19.82" x="0" y="0"/>
  <g fill="none" id="outline" stroke="black">
    <line stroke="black" stroke-width="1" x1="0" x2="0" y1="-3" y2="3" id="line6"/>
    <line stroke="black" stroke-width="1" x1="-3" x2="3" y1="0" y2="0" id="line8"/>
    <line stroke="black" stroke-width="1" x1="22.82" x2="16.82" y1="0" y2="0" id="line10"/>
    <line stroke="black" stroke-width="1" x1="19.82" x2="19.82" y1="-3" y2="3" id="line12"/>
    <line stroke="black" stroke-width="1" x1="0" x2="0" y1="131.5" y2="125.5" id="line14"/>
    <line stroke="black" stroke-width="1" x1="-3" x2="3" y1="128.5" y2="128.5" id="line16"/>
    <line stroke="black" stroke-width="1" x1="19.82" x2="19.82" y1="131.5" y2="125.5" id="line18"/>
    <line stroke="black" stroke-width="1" x1="22.82" x2="16.82" y1="128.5" y2="128.5" id="line20"/>
  </g>
  <g font-family="Ubuntu" font-size="3" id="stencil">
    <path d="m 3.3400279,7.612 q 0,0.36 -0.112,0.628 -0.112,0.264 -0.316,0.44 -0.204,0.172 -0.488,0.26 -0.284,0.084 -0.624,0.084 -0.168,0 -0.372,-0.016 -0.2,-0.012 -0.364,-0.052 V 6.268 q 0.164,-0.04 0.364,-0.052 0.204,-0.016 0.372,-0.016 0.34,0 0.624,0.088 0.284,0.084 0.488,0.26 0.204,0.172 0.316,0.44 0.112,0.264 0.112,0.624 z m -1.508,1.072 q 0.552,0 0.824,-0.28 0.272,-0.284 0.272,-0.792 0,-0.508 -0.272,-0.788 -0.272,-0.284 -0.824,-0.284 -0.164,0 -0.256,0.004 -0.088,0.004 -0.124,0.008 v 2.12 q 0.036,0.004 0.124,0.008 0.092,0.004 0.256,0.004 z" id="path883" style="font-size:4px;text-anchor:middle"/>
    <path d="m 4.2640253,9 h -0.372 V 6.92 h 0.372 z m -0.188,-2.456 q -0.1,0 -0.172,-0.064 -0.068,-0.068 -0.068,-0.18 0,-0.112 0.068,-0.176 0.072,-0.068 0.172,-0.068 0.1,0 0.168,0.068 0.072,0.064 0.072,0.176 0,0.112 -0.072,0.18 -0.068,0.064 -0.168,0.064 z" id="path885" style="font-size:4px;text-anchor:middle"/>
    <path d="m 5.3880187,8.732 q 0.228,0 0.336,-0.06 0.112,-0.06 0.112,-0.192 0,-0.136 -0.108,-0.216 -0.108,-0.08 -0.356,-0.18 -0.12,-0.048 -0.232,-0.096 -0.108,-0.052 -0.188,-0.12 -0.08,-0.068 -0.128,-0.164 -0.048,-0.096 -0.048,-0.236 0,-0.276 0.204,-0.436 0.204,-0.164 0.556,-0.164 0.088,0 0.176,0.012 0.088,0.008 0.164,0.024 0.076,0.012 0.132,0.028 0.06,0.016 0.092,0.028 l -0.068,0.32 q -0.06,-0.032 -0.188,-0.064 -0.128,-0.036 -0.308,-0.036 -0.156,0 -0.272,0.064 -0.116,0.06 -0.116,0.192 0,0.068 0.024,0.12 0.028,0.052 0.08,0.096 0.056,0.04 0.136,0.076 0.08,0.036 0.192,0.076 0.148,0.056 0.264,0.112 0.116,0.052 0.196,0.124 0.084,0.072 0.128,0.176 0.044,0.1 0.044,0.248 0,0.288 -0.216,0.436 -0.212,0.148 -0.608,0.148 -0.276,0 -0.432,-0.048 -0.156,-0.044 -0.212,-0.068 l 0.068,-0.32 q 0.064,0.024 0.204,0.072 0.14,0.048 0.372,0.048 z" id="path887" style="font-size:4px;text-anchor:middle"/>
    <path d="m 7.0360153,6.92 h 0.788 v 0.312 h -0.788 v 0.96 q 0,0.156 0.024,0.26 0.024,0.1 0.072,0.16 0.048,0.056 0.12,0.08 0.072,0.024 0.168,0.024 0.168,0 0.268,-0.036 0.104,-0.04 0.144,-0.056 l 0.072,0.308 q -0.056,0.028 -0.196,0.068 -0.14,0.044 -0.32,0.044 -0.212,0 -0.352,-0.052 -0.136,-0.056 -0.22,-0.164 -0.084,-0.108 -0.12,-0.264 -0.032,-0.16 -0.032,-0.368 V 6.34 l 0.372,-0.064 z" id="path889" style="font-size:4px;text-anchor:middle"/>
    <path d="m 10.076002,7.96 q 0,0.248 -0.072,0.448 -0.072,0.2 -0.204,0.344 -0.128,0.144 -0.308,0.224 -0.18,0.076 -0.392,0.076 -0.212,0 -0.392,-0.076 -0.18,-0.08 -0.312,-0.224 -0.128,-0.144 -0.2,-0.344 -0.072,-0.2 -0.072,-0.448 0,-0.244 0.072,-0.444 0.072,-0.204 0.2,-0.348 0.132,-0.144 0.312,-0.22 0.18,-0.08 0.392,-0.08 0.212,0 0.392,0.08 0.18,0.076 0.308,0.22 0.132,0.144 0.204,0.348 0.072,0.2 0.072,0.444 z m -0.388,0 q 0,-0.352 -0.16,-0.556 -0.156,-0.208 -0.428,-0.208 -0.272,0 -0.432,0.208 -0.156,0.204 -0.156,0.556 0,0.352 0.156,0.56 0.16,0.204 0.432,0.204 0.272,0 0.428,-0.204 0.16,-0.208 0.16,-0.56 z" id="path891" style="font-size:4px;text-anchor:middle"/>
    <path d="m 11.367995,6.876 q 0.048,0 0.108,0.008 0.064,0.004 0.124,0.016 0.06,0.008 0.108,0.02 0.052,0.008 0.076,0.016 l -0.064,0.324 q -0.044,-0.016 -0.148,-0.036 -0.1,-0.024 -0.26,-0.024 -0.104,0 -0.208,0.024 -0.1,0.02 -0.132,0.028 V 9 h -0.372 V 7.008 q 0.132,-0.048 0.328,-0.088 0.196,-0.044 0.44,-0.044 z" id="path893" style="font-size:4px;text-anchor:middle"/>
    <path d="m 12.491994,6.92 h 0.788 v 0.312 h -0.788 v 0.96 q 0,0.156 0.024,0.26 0.024,0.1 0.072,0.16 0.048,0.056 0.12,0.08 0.072,0.024 0.168,0.024 0.168,0 0.268,-0.036 0.104,-0.04 0.144,-0.056 l 0.072,0.308 q -0.056,0.028 -0.196,0.068 -0.14,0.044 -0.32,0.044 -0.212,0 -0.352,-0.052 -0.136,-0.056 -0.22,-0.164 -0.084,-0.108 -0.12,-0.264 -0.032,-0.16 -0.032,-0.368 V 6.34 l 0.372,-0.064 z" id="path895" style="font-size:4px;text-anchor:middle"/>
    <path d="m 14.123988,9 h -0.372 V 6.92 h 0.372 z m -0.188,-2.456 q -0.1,0 -0.172,-0.064 -0.068,-0.068 -0.068,-0.18 0,-0.112 0.068,-0.176 0.072,-0.068 0.172,-0.068 0.1,0 0.168,0.068 0.072,0.064 0.072,0.176 0,0.112 -0.072,0.18 -0.068,0.064 -0.168,0.064 z" id="path897" style="font-size:4px;text-anchor:middle"/>
    <path d="m 16.599981,7.96 q 0,0.248 -0.072,0.448 -0.072,0.2 -0.204,0.344 -0.128,0.144 -0.308,0.224 -0.18,0.076 -0.392,0.076 -0.212,0 -0.392,-0.076 -0.18,-0.08 -0.312,-0.224 -0.128,-0.144 -0.2,-0.344 -0.072,-0.2 -0.072,-0.448 0,-0.244 0.072,-0.444 0.072,-0.204 0.2,-0.348 0.132,-0.144 0.312,-0.22 0.18,-0.08 0.392,-0.08 0.212,0 0.392,0.08 0.18,0.076 0.308,0.22 0.132,0.144 0.204,0.348 0.072,0.2 0.072,0.444 z m -0.388,0 q 0,-0.352 -0.16,-0.556 -0.156,-0.208 -0.428,-0.208 -0.272,0 -0.432,0.208 -0.156,0.204 -0.156,0.556 0,0.352 0.156,0.56 0.16,0.204 0.432,0.204 0.272,0 0.428,-0.204 0.16,-0.208 0.16,-0.56 z" id="path899" style="font-size:4px;text-anchor:middle"/>
    <path d="m 17.123974,6.98 q 0.128,-0.032 0.34,-0.068 0.212,-0.036 0.488,-0.036 0.248,0 0.412,0.072 0.164,0.068 0.26,0.196 0.1,0.124 0.14,0.3 0.04,0.176 0.04,0.388 V 9 h -0.372 V 7.912 q 0,-0.192 -0.028,-0.328 -0.024,-0.136 -0.084,-0.22 -0.06,-0.084 -0.16,-0.12 -0.1,-0.04 -0.248,-0.04 -0.06,0 -0.124,0.004 -0.064,0.004 -0.124,0.012 -0.056,0.004 -0.104,0.012 -0.044,0.008 -0.064,0.012 V 9 h -0.372 z" id="path901" style="font-size:4px;text-anchor:middle"/>
    <path d="M 23.273995,0 C 10.46956,0 0,10.46956 0,23.273995 0,36.078431 10.46956,46.54799 23.273995,46.54799 c 6.2817,0 11.379649,-2.548635 15.730632,-6.245496 1.538657,-1.307338 3.076198,-2.787732 4.658303,-4.38762 l -0.0086,-5.869298 -5.989355,0.0026 c -1.483874,1.505733 -2.846746,2.828266 -4.080397,3.876451 -3.512556,2.984484 -6.049447,4.254142 -10.310608,4.254142 -8.281306,0 -14.9047822,-6.623476 -14.9047822,-14.904783 0,-8.281306 6.6234762,-14.9047823 14.9047822,-14.9047823 4.261161,0 6.798052,1.2696585 10.310608,4.2541413 1.233651,1.048185 2.596523,2.370718 4.080397,3.876452 l 5.989355,0.0026 0.0086,-5.869304 C 42.080825,9.0332294 40.543284,7.5528356 39.004627,6.2454977 34.653644,2.5486366 29.555695,0 23.273995,0 Z M 76.724807,0 C 70.443279,1.0197146e-4 65.345444,2.5487105 60.99455,6.2454977 59.387003,7.6113677 57.781031,9.1642634 56.123352,10.847502 H 68.695628 C 71.17209,9.1299217 73.43594,8.3692721 76.724807,8.369213 h 3.82e-4 c 6.200192,0 11.470469,3.712943 13.728089,9.054499 l -6.041554,-0.07531 -8.585089,-3.079684 -28.740996,3.81e-4 v 5.645584 H 24.399983 v 6.718636 h 22.685649 v 5.645592 l 28.740995,3.82e-4 8.58509,-3.079684 6.041553,-0.07531 c -2.25762,5.341544 -7.527894,9.054489 -13.728089,9.054489 h -3.82e-4 c -3.288867,-5.9e-5 -5.552715,-0.760709 -8.029179,-2.47829 H 56.123352 c 1.657679,1.68324 3.263651,3.236135 4.871198,4.602006 4.350894,3.696786 9.448729,6.245395 15.730257,6.245496 h 3.82e-4 C 89.52963,46.548 99.999184,36.07844 99.999184,23.274005 99.999176,10.46956 89.52962,0 76.725181,0 Z m -59.711596,19.295384 -2.890653,3.978611 2.890653,3.978612 4.677319,-1.51971 v -4.917803 z" transform="translate(2.41, 116.5) scale(0.15)" id="path25"/>
    <g transform="translate(7.62,32)" id="g27"/>
    <g transform="translate(10.16,62.48)" id="g30">
      <path d="m -0.78749318,12.561915 q -0.21900002,0 -0.39900002,-0.072 -0.18,-0.072 -0.309,-0.21 -0.129,-0.138 -0.201,-0.339 -0.069,-0.204 -0.069,-0.465 0,-0.261 0.078,-0.462 0.081,-0.204 0.216,-0.342 0.135,-0.138 0.315,-0.21 0.18000002,-0.072 0.38400002,-0.072 0.129,0 0.231,0.018 0.105,0.018 0.18,0.042 0.078,0.024 0.126,0.048 0.048,0.024 0.066,0.036 l -0.084,0.24 q -0.027,-0.018 -0.078,-0.039 -0.051,-0.021 -0.117,-0.042 -0.063,-0.021 -0.141,-0.033 -0.075,-0.015 -0.153,-0.015 -0.165,0 -0.29700002,0.057 -0.132,0.057 -0.225,0.165 -0.093,0.108 -0.144,0.264 -0.048,0.153 -0.048,0.345 0,0.186 0.042,0.339 0.045,0.153 0.132,0.264 0.087,0.108 0.216,0.168 0.13200002,0.06 0.30600002,0.06 0.201,0 0.333,-0.042 0.132,-0.042 0.198,-0.075 l 0.075,0.24 q -0.021,0.015 -0.075,0.039 -0.054,0.021 -0.135,0.042 -0.081,0.021 -0.189,0.036 -0.108,0.015 -0.234,0.015 z" id="path904" style="text-anchor:middle"/>
      <path d="m 1.9094985,10.437915 q -0.114,0.33 -0.219,0.612 -0.102,0.279 -0.201,0.531 -0.099,0.252 -0.198,0.483 -0.096,0.228 -0.198,0.453 H 0.82049849 q -0.102,-0.225 -0.201,-0.453 -0.096,-0.231 -0.198,-0.483 -0.099,-0.252 -0.204,-0.531 -0.105,-0.282 -0.216,-0.612 h 0.321 q 0.162,0.474 0.318,0.912 0.156,0.438 0.321,0.822 0.16500001,-0.381 0.32100001,-0.819 0.156,-0.441 0.315,-0.915 z" id="path906" style="text-anchor:middle"/>
    </g>
    <g transform="translate(10.16,80.26)" id="g33">
      <path d="m -1.0064978,10.437915 h 0.29100004 v 2.079 H -1.0064978 Z" id="path909" style="text-anchor:middle"/>
      <path d="m -0.21750046,11.001915 q 0.096,-0.024 0.255,-0.051 0.159,-0.027 0.366,-0.027 0.186,0 0.309,0.054 0.123,0.051 0.195,0.147 0.075,0.093 0.10499996,0.225 0.03,0.132 0.03,0.291 v 0.876 H 0.76349954 v -0.816 q 0,-0.144 -0.021,-0.246 -0.018,-0.102 -0.063,-0.165 -0.045,-0.063 -0.12,-0.09 -0.075,-0.03 -0.186,-0.03 -0.045,0 -0.093,0.003 -0.048,0.003 -0.093,0.009 -0.042,0.003 -0.078,0.009 -0.033,0.006 -0.048,0.009 v 1.317 h -0.279 z" id="path911" style="text-anchor:middle"/>
    </g>
    <g transform="translate(10.16,98.04)" id="g37">
      <path id="path_izmhpaedvo" style="" d="m 27.439453,370.98633 a 5.6692913,5.6692913 0 0 0 -5.669922,5.66992 v 45.35352 a 5.6692913,5.6692913 0 0 0 5.669922,5.66992 h 21.921875 a 5.6692913,5.6692913 0 0 0 5.667969,-5.66992 v -45.35352 a 5.6692913,5.6692913 0 0 0 -5.667969,-5.66992 z m 10.960938,2.64648 a 13.984375,13.984375 0 0 1 0,27.96875 13.984375,13.984375 0 0 1 0,-27.96875 z m -5.511719,36.18164 c 0.506457,0 0.983703,0.0859 1.429687,0.25977 0.453544,0.17386 0.849296,0.43549 1.189453,0.7832 0.340158,0.34016 0.610106,0.76724 0.806641,1.28125 0.204095,0.51402 0.304688,1.10654 0.304688,1.7793 0,0.67275 -0.100593,1.26723 -0.304688,1.78125 -0.196535,0.51401 -0.466483,0.9433 -0.806641,1.29101 -0.340157,0.34016 -0.735909,0.59763 -1.189453,0.77149 -0.445984,0.17386 -0.92323,0.26172 -1.429687,0.26172 -0.514016,0 -0.999835,-0.0879 -1.460938,-0.26172 -0.453543,-0.17386 -0.855408,-0.43133 -1.203125,-0.77149 -0.340157,-0.34771 -0.612311,-0.777 -0.816406,-1.29101 -0.196535,-0.51402 -0.294922,-1.1085 -0.294922,-1.78125 0,-0.67276 0.09839,-1.26528 0.294922,-1.7793 0.204095,-0.51401 0.476249,-0.94109 0.816406,-1.28125 0.347717,-0.34771 0.749582,-0.60934 1.203125,-0.7832 0.461103,-0.17386 0.946922,-0.25977 1.460938,-0.25977 z m 12.791016,0.31641 v 1.82617 h 2.232421 v 0.88477 h -2.232421 v 2.7207 c -10e-7,0.2948 0.023,0.53979 0.06836,0.73633 0.04535,0.18897 0.112416,0.34169 0.203125,0.45508 0.09071,0.10582 0.203781,0.1812 0.339844,0.22656 0.136063,0.0453 0.295145,0.0684 0.476562,0.0684 0.31748,0 0.570789,-0.0355 0.759766,-0.10352 0.196535,-0.0756 0.332612,-0.12796 0.408203,-0.1582 l 0.205078,0.87305 c -0.105827,0.0529 -0.292074,0.11777 -0.556641,0.19336 -0.264567,0.0831 -0.566092,0.125 -0.90625,0.125 -0.40063,0 -0.73348,-0.0502 -0.998046,-0.14844 -0.257008,-0.10583 -0.464307,-0.26075 -0.623047,-0.46485 -0.158741,-0.20409 -0.273766,-0.45324 -0.341797,-0.74804 -0.06047,-0.30236 -0.08984,-0.6499 -0.08984,-1.04297 v -5.26172 z m -12.8125,0.64648 c -0.40063,0 -0.764805,0.0754 -1.089844,0.22657 -0.317481,0.14362 -0.589635,0.35287 -0.816406,0.625 -0.219213,0.27212 -0.388821,0.60302 -0.509766,0.99609 -0.120945,0.38551 -0.181641,0.81675 -0.181641,1.29297 0,0.47622 0.0607,0.91162 0.181641,1.30469 0.120945,0.38551 0.290553,0.7142 0.509766,0.98632 0.226771,0.27213 0.498925,0.48359 0.816406,0.63477 0.325039,0.14362 0.689214,0.21484 1.089844,0.21484 0.400629,0 0.758691,-0.0712 1.076171,-0.21484 0.317481,-0.15118 0.585475,-0.36264 0.804688,-0.63477 0.226772,-0.27212 0.402492,-0.60081 0.523437,-0.98632 0.120945,-0.39307 0.179688,-0.82847 0.179688,-1.30469 0,-0.47622 -0.05874,-0.90746 -0.179688,-1.29297 -0.120945,-0.39307 -0.296665,-0.72397 -0.523437,-0.99609 -0.219213,-0.27213 -0.487207,-0.48138 -0.804688,-0.625 -0.31748,-0.15118 -0.675542,-0.22657 -1.076171,-0.22657 z m 5.25,1.17969 h 1.054687 v 3.08399 c 0,0.71811 0.113072,1.23109 0.339844,1.54101 0.226771,0.30992 0.607838,0.4668 1.144531,0.4668 0.113386,0 0.230618,-0.004 0.351562,-0.0117 0.120945,-0.008 0.234017,-0.0159 0.339844,-0.0234 0.105827,-0.0151 0.200054,-0.0256 0.283203,-0.0332 0.09071,-0.0151 0.155564,-0.0318 0.19336,-0.0469 v -4.97656 h 1.054687 v 5.72656 c -0.24189,0.0605 -0.564214,0.12338 -0.964844,0.19141 -0.39307,0.068 -0.849518,0.10352 -1.371093,0.10352 -0.453544,0 -0.83461,-0.0649 -1.144531,-0.19336 -0.309922,-0.13607 -0.559071,-0.32452 -0.748047,-0.56641 -0.188977,-0.24189 -0.325054,-0.52652 -0.408203,-0.85156 -0.08315,-0.3326 -0.125,-0.69898 -0.125,-1.09961 z" transform="matrix(0.26458333,0,0,0.26458333,-10.16,-98.04)"/>
    </g>
  </g>
  <g fill="black" id="throughholes" stroke="none">
    <circle cx="7.62" cy="3" r="1.7" stroke="none" id="circle41"/>
    <circle cx="7.62" cy="125.5" r="1.7" stroke="none" id="circle43"/>
    <circle cx="10.16" cy="24.380001" r="3.9000001" id="circle45"/>
    <circle cx="10.16" cy="66.996918" r="3.4000001" id="circle49"/>
    <circle cx="10.16" cy="84.776917" r="3.4000001" id="circle53"/>
    <circle cx="10.16" cy="102.55692" r="3.4000001" id="circle57"/>
  </g>
</svg>